%TF.GenerationSoftware,KiCad,Pcbnew,8.0.7*%
%TF.CreationDate,2024-12-29T21:32:39+01:00*%
%TF.ProjectId,stackflex_feature_air_qual,73746163-6b66-46c6-9578-5f6665617475,1*%
%TF.SameCoordinates,Original*%
%TF.FileFunction,Copper,L2,Bot*%
%TF.FilePolarity,Positive*%
%FSLAX46Y46*%
G04 Gerber Fmt 4.6, Leading zero omitted, Abs format (unit mm)*
G04 Created by KiCad (PCBNEW 8.0.7) date 2024-12-29 21:32:39*
%MOMM*%
%LPD*%
G01*
G04 APERTURE LIST*
%TA.AperFunction,ComponentPad*%
%ADD10R,1.700000X1.700000*%
%TD*%
%TA.AperFunction,ComponentPad*%
%ADD11O,1.700000X1.700000*%
%TD*%
%TA.AperFunction,ComponentPad*%
%ADD12C,5.600000*%
%TD*%
%TA.AperFunction,ViaPad*%
%ADD13C,0.600000*%
%TD*%
%TA.AperFunction,Conductor*%
%ADD14C,0.200000*%
%TD*%
%TA.AperFunction,Conductor*%
%ADD15C,0.600000*%
%TD*%
%TA.AperFunction,Conductor*%
%ADD16C,0.300000*%
%TD*%
G04 APERTURE END LIST*
D10*
%TO.P,J2,1,Pin_1*%
%TO.N,3V3_GPIO*%
X17780000Y8890000D03*
D11*
%TO.P,J2,2,Pin_2*%
%TO.N,GND*%
X15240000Y8890000D03*
%TO.P,J2,3,Pin_3*%
%TO.N,IO41*%
X17780000Y6350000D03*
%TO.P,J2,4,Pin_4*%
%TO.N,IO42*%
X15240000Y6350000D03*
%TO.P,J2,5,Pin_5*%
%TO.N,unconnected-(J2-Pin_5-Pad5)*%
X17780000Y3810000D03*
%TO.P,J2,6,Pin_6*%
%TO.N,unconnected-(J2-Pin_6-Pad6)*%
X15240000Y3810000D03*
%TO.P,J2,7,Pin_7*%
%TO.N,IO40_SCL1*%
X17780000Y1270000D03*
%TO.P,J2,8,Pin_8*%
%TO.N,IO39_SDA1*%
X15240000Y1270000D03*
%TO.P,J2,9,Pin_9*%
%TO.N,IO37_CS1*%
X17780000Y-1270000D03*
%TO.P,J2,10,Pin_10*%
%TO.N,IO38_SCLK1*%
X15240000Y-1270000D03*
%TO.P,J2,11,Pin_11*%
%TO.N,IO35_MISO1*%
X17780000Y-3810000D03*
%TO.P,J2,12,Pin_12*%
%TO.N,IO36_MOSI1*%
X15240000Y-3810000D03*
%TO.P,J2,13,Pin_13*%
%TO.N,IO34*%
X17780000Y-6350000D03*
%TO.P,J2,14,Pin_14*%
%TO.N,IO48*%
X15240000Y-6350000D03*
%TO.P,J2,15,Pin_15*%
%TO.N,3V3_GPIO*%
X17780000Y-8890000D03*
%TO.P,J2,16,Pin_16*%
%TO.N,GND*%
X15240000Y-8890000D03*
%TD*%
D12*
%TO.P,H1,1*%
%TO.N,N/C*%
X-16256000Y16256000D03*
%TD*%
%TO.P,H2,1*%
%TO.N,N/C*%
X16256000Y16256000D03*
%TD*%
%TO.P,H3,1*%
%TO.N,N/C*%
X-16256000Y-16256000D03*
%TD*%
%TO.P,H4,1*%
%TO.N,N/C*%
X16256000Y-16256000D03*
%TD*%
D10*
%TO.P,J1,1,Pin_1*%
%TO.N,GND*%
X-15220000Y8875000D03*
D11*
%TO.P,J1,2,Pin_2*%
%TO.N,3V3_GPIO*%
X-17760000Y8875000D03*
%TO.P,J1,3,Pin_3*%
%TO.N,IO1*%
X-15220000Y6335000D03*
%TO.P,J1,4,Pin_4*%
%TO.N,IO2*%
X-17760000Y6335000D03*
%TO.P,J1,5,Pin_5*%
%TO.N,IO4_MOSI0*%
X-15220000Y3795000D03*
%TO.P,J1,6,Pin_6*%
%TO.N,IO5_MISO0*%
X-17760000Y3795000D03*
%TO.P,J1,7,Pin_7*%
%TO.N,IO6_SCLK0*%
X-15220000Y1255000D03*
%TO.P,J1,8,Pin_8*%
%TO.N,IO7_CS0*%
X-17760000Y1255000D03*
%TO.P,J1,9,Pin_9*%
%TO.N,IO8_SDA0*%
X-15220000Y-1285000D03*
%TO.P,J1,10,Pin_10*%
%TO.N,IO9_SCL0*%
X-17760000Y-1285000D03*
%TO.P,J1,11,Pin_11*%
%TO.N,Net-(J1-Pin_11)*%
X-15220000Y-3825000D03*
%TO.P,J1,12,Pin_12*%
%TO.N,unconnected-(J1-Pin_12-Pad12)*%
X-17760000Y-3825000D03*
%TO.P,J1,13,Pin_13*%
%TO.N,IO11*%
X-15220000Y-6365000D03*
%TO.P,J1,14,Pin_14*%
%TO.N,IO10*%
X-17760000Y-6365000D03*
%TO.P,J1,15,Pin_15*%
%TO.N,GND*%
X-15220000Y-8905000D03*
%TO.P,J1,16,Pin_16*%
%TO.N,3V3_GPIO*%
X-17760000Y-8905000D03*
%TD*%
D13*
%TO.N,IO40_SCL1*%
X7112000Y-762000D03*
%TO.N,IO8_SDA0*%
X-6350000Y-13208000D03*
%TO.N,GND*%
X-6350000Y-17018000D03*
X-12192000Y-13970000D03*
X11684000Y6858000D03*
X7366000Y-14224000D03*
X-17780000Y11938000D03*
X4572000Y12700000D03*
X-12192000Y-18034000D03*
X0Y-14224000D03*
X2794000Y5842000D03*
X-11176000Y18034000D03*
X9144000Y11176000D03*
X12700000Y-4826000D03*
X-12192000Y-16002000D03*
X4318000Y-14224000D03*
X12700000Y-9906000D03*
X17780000Y12192000D03*
X670000Y2089687D03*
%TO.N,IO9_SCL0*%
X-7112000Y-13716000D03*
%TO.N,3V3_GPIO*%
X12192000Y-11938000D03*
X6096000Y8636000D03*
X10414000Y4318000D03*
X254000Y16764000D03*
X10414000Y254000D03*
X2540000Y-11176000D03*
X10414000Y-2032000D03*
X4318000Y2032000D03*
%TO.N,IO40_SCL1*%
X7112000Y11430000D03*
%TO.N,IO39_SDA1*%
X6350000Y16114000D03*
X6054429Y10830000D03*
%TO.N,IO40_SCL1*%
X4064000Y-762000D03*
%TO.N,SCL1_1-8V*%
X1270000Y4064000D03*
X1270000Y1524000D03*
X2032000Y-2540000D03*
%TO.N,SDA1_1-8V*%
X7274000Y254000D03*
X2540000Y-1016000D03*
%TD*%
D14*
%TO.N,IO40_SCL1*%
X7112000Y-762000D02*
X4064000Y-762000D01*
%TO.N,IO8_SDA0*%
X-18691000Y-2435000D02*
X-16370000Y-2435000D01*
X-16370000Y-2435000D02*
X-15220000Y-1285000D01*
X-19000000Y-2744000D02*
X-18691000Y-2435000D01*
X-19000000Y-12192000D02*
X-19000000Y-2744000D01*
X-18638000Y-12554000D02*
X-19000000Y-12192000D01*
X-7004000Y-12554000D02*
X-18638000Y-12554000D01*
X-6350000Y-13208000D02*
X-7004000Y-12554000D01*
%TO.N,IO9_SCL0*%
X-19065000Y-1285000D02*
X-17760000Y-1285000D01*
X-19400000Y-1620000D02*
X-19065000Y-1285000D01*
X-7112000Y-13716000D02*
X-7874000Y-12954000D01*
X-19400000Y-12604000D02*
X-19400000Y-1620000D01*
X-7874000Y-12954000D02*
X-19050000Y-12954000D01*
X-19050000Y-12954000D02*
X-19400000Y-12604000D01*
D15*
%TO.N,3V3_GPIO*%
X17780000Y-8890000D02*
X14732000Y-11938000D01*
X12192000Y-11938000D02*
X10414000Y-10160000D01*
X-15489000Y-11176000D02*
X-17760000Y-8905000D01*
X3302000Y-11938000D02*
X2540000Y-11176000D01*
D14*
X5080000Y2794000D02*
X10414000Y2794000D01*
D15*
X10414000Y4318000D02*
X6096000Y8636000D01*
X10414000Y-10160000D02*
X10414000Y-2032000D01*
X13462000Y-11938000D02*
X12192000Y-11938000D01*
D14*
X4318000Y2032000D02*
X5080000Y2794000D01*
D15*
X2540000Y-11176000D02*
X-15489000Y-11176000D01*
X10414000Y254000D02*
X10414000Y2794000D01*
X12192000Y-11938000D02*
X3302000Y-11938000D01*
X254000Y14478000D02*
X6096000Y8636000D01*
X254000Y16764000D02*
X254000Y14478000D01*
X10414000Y-2032000D02*
X10414000Y254000D01*
X10414000Y2794000D02*
X10414000Y4318000D01*
X14732000Y-11938000D02*
X13462000Y-11938000D01*
D16*
%TO.N,IO48*%
X15240000Y-5605834D02*
X15240000Y-6350000D01*
D14*
%TO.N,IO40_SCL1*%
X7112000Y10311654D02*
X14883654Y2540000D01*
X7112000Y11430000D02*
X7112000Y10311654D01*
X16510000Y2540000D02*
X17780000Y1270000D01*
X14883654Y2540000D02*
X16510000Y2540000D01*
%TO.N,IO39_SDA1*%
X6054429Y10830000D02*
X6054429Y10455571D01*
X6054429Y10455571D02*
X15240000Y1270000D01*
X6054429Y10830000D02*
X6054429Y15818429D01*
X6054429Y15818429D02*
X6350000Y16114000D01*
%TO.N,SCL1_1-8V*%
X2032000Y-2540000D02*
X1270000Y-1778000D01*
X1270000Y1524000D02*
X1270000Y4064000D01*
X1270000Y-1778000D02*
X1270000Y1524000D01*
%TO.N,SDA1_1-8V*%
X2540000Y-1016000D02*
X3810000Y254000D01*
X3810000Y254000D02*
X7274000Y254000D01*
%TD*%
%TA.AperFunction,Conductor*%
%TO.N,GND*%
G36*
X15503351Y19479815D02*
G01*
X15549106Y19427011D01*
X15559050Y19357853D01*
X15530025Y19294297D01*
X15471247Y19256523D01*
X15470640Y19256346D01*
X15230356Y19187121D01*
X15136124Y19148089D01*
X14908625Y19053856D01*
X14603835Y18885405D01*
X14319823Y18683887D01*
X14060161Y18451839D01*
X13828113Y18192177D01*
X13626595Y17908165D01*
X13458144Y17603375D01*
X13363911Y17375876D01*
X13327736Y17288540D01*
X13324878Y17281641D01*
X13228474Y16947018D01*
X13228472Y16947010D01*
X13170142Y16603701D01*
X13170140Y16603689D01*
X13150615Y16256000D01*
X13170140Y15908312D01*
X13170142Y15908300D01*
X13228472Y15564991D01*
X13228474Y15564983D01*
X13268908Y15424633D01*
X13324879Y15230356D01*
X13458145Y14908624D01*
X13626595Y14603836D01*
X13828112Y14319824D01*
X14060161Y14060161D01*
X14319824Y13828112D01*
X14603836Y13626595D01*
X14908624Y13458145D01*
X15230356Y13324879D01*
X15564987Y13228473D01*
X15908307Y13170141D01*
X16256000Y13150615D01*
X16603693Y13170141D01*
X16947013Y13228473D01*
X17281644Y13324879D01*
X17603376Y13458145D01*
X17908164Y13626595D01*
X18192176Y13828112D01*
X18451839Y14060161D01*
X18683888Y14319824D01*
X18885405Y14603836D01*
X19053855Y14908624D01*
X19187121Y15230356D01*
X19256346Y15470642D01*
X19293820Y15529611D01*
X19357227Y15558959D01*
X19426436Y15549369D01*
X19479472Y15503884D01*
X19499498Y15436945D01*
X19499500Y15436313D01*
X19499500Y-15436312D01*
X19479815Y-15503351D01*
X19427011Y-15549106D01*
X19357853Y-15559050D01*
X19294297Y-15530025D01*
X19256523Y-15471247D01*
X19256346Y-15470640D01*
X19246456Y-15436312D01*
X19187121Y-15230356D01*
X19053855Y-14908624D01*
X18885405Y-14603836D01*
X18683888Y-14319824D01*
X18451839Y-14060161D01*
X18192176Y-13828112D01*
X17908164Y-13626595D01*
X17603376Y-13458145D01*
X17281644Y-13324879D01*
X17011221Y-13246971D01*
X16947017Y-13228474D01*
X16947009Y-13228472D01*
X16603700Y-13170142D01*
X16603688Y-13170140D01*
X16256000Y-13150615D01*
X15908311Y-13170140D01*
X15908299Y-13170142D01*
X15564990Y-13228472D01*
X15564982Y-13228474D01*
X15230359Y-13324878D01*
X15230356Y-13324879D01*
X15224736Y-13327207D01*
X14908625Y-13458144D01*
X14603835Y-13626595D01*
X14526763Y-13681281D01*
X14340162Y-13813682D01*
X14319823Y-13828113D01*
X14060161Y-14060161D01*
X13828113Y-14319823D01*
X13626595Y-14603835D01*
X13458144Y-14908625D01*
X13324878Y-15230359D01*
X13228474Y-15564982D01*
X13228472Y-15564990D01*
X13170142Y-15908299D01*
X13170140Y-15908311D01*
X13150615Y-16256000D01*
X13170140Y-16603688D01*
X13170141Y-16603693D01*
X13228473Y-16947013D01*
X13324879Y-17281644D01*
X13458145Y-17603376D01*
X13626595Y-17908164D01*
X13828112Y-18192176D01*
X14060161Y-18451839D01*
X14319824Y-18683888D01*
X14603836Y-18885405D01*
X14908624Y-19053855D01*
X15230356Y-19187121D01*
X15461319Y-19253660D01*
X15470640Y-19256346D01*
X15529610Y-19293820D01*
X15558958Y-19357227D01*
X15549368Y-19426436D01*
X15503882Y-19479472D01*
X15436944Y-19499498D01*
X15436312Y-19499500D01*
X-15436312Y-19499500D01*
X-15503351Y-19479815D01*
X-15549106Y-19427011D01*
X-15559050Y-19357853D01*
X-15530025Y-19294297D01*
X-15471247Y-19256523D01*
X-15470640Y-19256346D01*
X-15463582Y-19254312D01*
X-15230356Y-19187121D01*
X-14908624Y-19053855D01*
X-14603836Y-18885405D01*
X-14319824Y-18683888D01*
X-14060161Y-18451839D01*
X-13828112Y-18192176D01*
X-13626595Y-17908164D01*
X-13458145Y-17603376D01*
X-13324879Y-17281644D01*
X-13228473Y-16947013D01*
X-13170141Y-16603693D01*
X-13150615Y-16256000D01*
X-13170141Y-15908307D01*
X-13228473Y-15564987D01*
X-13324879Y-15230356D01*
X-13458145Y-14908624D01*
X-13626595Y-14603836D01*
X-13828112Y-14319824D01*
X-14060161Y-14060161D01*
X-14319824Y-13828112D01*
X-14603836Y-13626595D01*
X-14675427Y-13587028D01*
X-14724580Y-13537371D01*
X-14739083Y-13469023D01*
X-14714333Y-13403684D01*
X-14658186Y-13362099D01*
X-14615446Y-13354500D01*
X-8091255Y-13354500D01*
X-8024216Y-13374185D01*
X-8003574Y-13390819D01*
X-7753403Y-13640990D01*
X-7719918Y-13702313D01*
X-7718145Y-13712485D01*
X-7717682Y-13716000D01*
X-7697044Y-13872762D01*
X-7636536Y-14018841D01*
X-7540282Y-14144282D01*
X-7414841Y-14240536D01*
X-7268762Y-14301044D01*
X-7190381Y-14311363D01*
X-7112001Y-14321682D01*
X-7112000Y-14321682D01*
X-7111999Y-14321682D01*
X-7059746Y-14314802D01*
X-6955238Y-14301044D01*
X-6809159Y-14240536D01*
X-6683718Y-14144282D01*
X-6587464Y-14018841D01*
X-6531011Y-13882550D01*
X-6487170Y-13828147D01*
X-6420876Y-13806082D01*
X-6400273Y-13807063D01*
X-6350000Y-13813682D01*
X-6193238Y-13793044D01*
X-6047159Y-13732536D01*
X-5921718Y-13636282D01*
X-5825464Y-13510841D01*
X-5764956Y-13364762D01*
X-5744318Y-13208000D01*
X-5745383Y-13199913D01*
X-5764956Y-13051239D01*
X-5764956Y-13051238D01*
X-5825464Y-12905159D01*
X-5921718Y-12779718D01*
X-6047159Y-12683464D01*
X-6193238Y-12622956D01*
X-6249423Y-12615559D01*
X-6353515Y-12601855D01*
X-6417411Y-12573588D01*
X-6425010Y-12566597D01*
X-6758085Y-12233522D01*
X-6758087Y-12233520D01*
X-6803750Y-12207156D01*
X-6849411Y-12180793D01*
X-6900343Y-12167146D01*
X-6951273Y-12153500D01*
X-6951274Y-12153500D01*
X-18420745Y-12153500D01*
X-18487784Y-12133815D01*
X-18508426Y-12117181D01*
X-18563181Y-12062426D01*
X-18596666Y-12001103D01*
X-18599500Y-11974745D01*
X-18599500Y-9961010D01*
X-18579815Y-9893971D01*
X-18527011Y-9848216D01*
X-18457853Y-9838272D01*
X-18410225Y-9855582D01*
X-18275019Y-9939298D01*
X-18076198Y-10016321D01*
X-17866610Y-10055500D01*
X-17866608Y-10055500D01*
X-17653392Y-10055500D01*
X-17653390Y-10055500D01*
X-17553640Y-10036853D01*
X-17484125Y-10043884D01*
X-17443174Y-10071061D01*
X-15973861Y-11540374D01*
X-15973851Y-11540385D01*
X-15969521Y-11544715D01*
X-15969520Y-11544716D01*
X-15857716Y-11656520D01*
X-15796371Y-11691937D01*
X-15720785Y-11735577D01*
X-15568057Y-11776501D01*
X-15568054Y-11776501D01*
X-15402347Y-11776501D01*
X-15402331Y-11776500D01*
X2239903Y-11776500D01*
X2306942Y-11796185D01*
X2327583Y-11812818D01*
X2933284Y-12418520D01*
X2933286Y-12418521D01*
X2933290Y-12418524D01*
X3070209Y-12497573D01*
X3070216Y-12497577D01*
X3222943Y-12538501D01*
X3222945Y-12538501D01*
X3388654Y-12538501D01*
X3388670Y-12538500D01*
X12105331Y-12538500D01*
X12105347Y-12538501D01*
X12112943Y-12538501D01*
X12144520Y-12538501D01*
X12160705Y-12539562D01*
X12191999Y-12543682D01*
X12192000Y-12543682D01*
X12192001Y-12543682D01*
X12223295Y-12539562D01*
X12239480Y-12538501D01*
X12278654Y-12538501D01*
X12278670Y-12538500D01*
X13382943Y-12538500D01*
X14645331Y-12538500D01*
X14645347Y-12538501D01*
X14652943Y-12538501D01*
X14811054Y-12538501D01*
X14811057Y-12538501D01*
X14963785Y-12497577D01*
X15024477Y-12462536D01*
X15100716Y-12418520D01*
X15212520Y-12306716D01*
X15212520Y-12306714D01*
X15222724Y-12296511D01*
X15222728Y-12296506D01*
X17463175Y-10056058D01*
X17524496Y-10022575D01*
X17573638Y-10021853D01*
X17673390Y-10040500D01*
X17673391Y-10040500D01*
X17886608Y-10040500D01*
X17886610Y-10040500D01*
X18096198Y-10001321D01*
X18295019Y-9924298D01*
X18476302Y-9812052D01*
X18633872Y-9668407D01*
X18762366Y-9498255D01*
X18826983Y-9368486D01*
X18857403Y-9307394D01*
X18857403Y-9307393D01*
X18857405Y-9307389D01*
X18915756Y-9102310D01*
X18935429Y-8890000D01*
X18915756Y-8677690D01*
X18857405Y-8472611D01*
X18857403Y-8472606D01*
X18857403Y-8472605D01*
X18762367Y-8281746D01*
X18633872Y-8111593D01*
X18476302Y-7967948D01*
X18295019Y-7855702D01*
X18295017Y-7855701D01*
X18134920Y-7793680D01*
X18096198Y-7778679D01*
X17899385Y-7741888D01*
X17837106Y-7710221D01*
X17801833Y-7649908D01*
X17804767Y-7580100D01*
X17844976Y-7522960D01*
X17899384Y-7498111D01*
X18096198Y-7461321D01*
X18295019Y-7384298D01*
X18476302Y-7272052D01*
X18633872Y-7128407D01*
X18762366Y-6958255D01*
X18762367Y-6958253D01*
X18857403Y-6767394D01*
X18857403Y-6767393D01*
X18857405Y-6767389D01*
X18915756Y-6562310D01*
X18935429Y-6350000D01*
X18915756Y-6137690D01*
X18857405Y-5932611D01*
X18857403Y-5932606D01*
X18857403Y-5932605D01*
X18762367Y-5741746D01*
X18633872Y-5571593D01*
X18476302Y-5427948D01*
X18295019Y-5315702D01*
X18295017Y-5315701D01*
X18134920Y-5253680D01*
X18096198Y-5238679D01*
X17899385Y-5201888D01*
X17837106Y-5170221D01*
X17801833Y-5109908D01*
X17804767Y-5040100D01*
X17844976Y-4982960D01*
X17899384Y-4958111D01*
X18096198Y-4921321D01*
X18295019Y-4844298D01*
X18476302Y-4732052D01*
X18633872Y-4588407D01*
X18762366Y-4418255D01*
X18762367Y-4418253D01*
X18857403Y-4227394D01*
X18857403Y-4227393D01*
X18857405Y-4227389D01*
X18915756Y-4022310D01*
X18935429Y-3810000D01*
X18915756Y-3597690D01*
X18857405Y-3392611D01*
X18857403Y-3392606D01*
X18857403Y-3392605D01*
X18762367Y-3201746D01*
X18633872Y-3031593D01*
X18577530Y-2980230D01*
X18476302Y-2887948D01*
X18295019Y-2775702D01*
X18295017Y-2775701D01*
X18134920Y-2713680D01*
X18096198Y-2698679D01*
X17899385Y-2661888D01*
X17837106Y-2630221D01*
X17801833Y-2569908D01*
X17804767Y-2500100D01*
X17844976Y-2442960D01*
X17899384Y-2418111D01*
X18096198Y-2381321D01*
X18295019Y-2304298D01*
X18476302Y-2192052D01*
X18633872Y-2048407D01*
X18762366Y-1878255D01*
X18762367Y-1878253D01*
X18857403Y-1687394D01*
X18857403Y-1687393D01*
X18857405Y-1687389D01*
X18915756Y-1482310D01*
X18935429Y-1270000D01*
X18915756Y-1057690D01*
X18857405Y-852611D01*
X18857403Y-852606D01*
X18857403Y-852605D01*
X18762367Y-661746D01*
X18633872Y-491593D01*
X18598294Y-459159D01*
X18476302Y-347948D01*
X18295019Y-235702D01*
X18295017Y-235701D01*
X18195608Y-197190D01*
X18096198Y-158679D01*
X17899385Y-121888D01*
X17837106Y-90221D01*
X17801833Y-29908D01*
X17804767Y39900D01*
X17844976Y97040D01*
X17899384Y121889D01*
X18096198Y158679D01*
X18295019Y235702D01*
X18476302Y347948D01*
X18633872Y491593D01*
X18762366Y661745D01*
X18772592Y682282D01*
X18857403Y852606D01*
X18857403Y852607D01*
X18857405Y852611D01*
X18915756Y1057690D01*
X18935429Y1270000D01*
X18915756Y1482310D01*
X18857405Y1687389D01*
X18857403Y1687394D01*
X18857403Y1687395D01*
X18762367Y1878254D01*
X18633872Y2048407D01*
X18613785Y2066719D01*
X18476302Y2192052D01*
X18295019Y2304298D01*
X18295017Y2304299D01*
X18134920Y2366320D01*
X18096198Y2381321D01*
X17899385Y2418112D01*
X17837106Y2449779D01*
X17801833Y2510092D01*
X17804767Y2579900D01*
X17844976Y2637040D01*
X17899384Y2661889D01*
X18096198Y2698679D01*
X18295019Y2775702D01*
X18476302Y2887948D01*
X18633872Y3031593D01*
X18762366Y3201745D01*
X18764338Y3205706D01*
X18857403Y3392606D01*
X18857403Y3392607D01*
X18857405Y3392611D01*
X18915756Y3597690D01*
X18935429Y3810000D01*
X18915756Y4022310D01*
X18857405Y4227389D01*
X18857403Y4227394D01*
X18857403Y4227395D01*
X18762367Y4418254D01*
X18633872Y4588407D01*
X18598294Y4620841D01*
X18476302Y4732052D01*
X18295019Y4844298D01*
X18295017Y4844299D01*
X18134920Y4906320D01*
X18096198Y4921321D01*
X17899385Y4958112D01*
X17837106Y4989779D01*
X17801833Y5050092D01*
X17804767Y5119900D01*
X17844976Y5177040D01*
X17899384Y5201889D01*
X18096198Y5238679D01*
X18295019Y5315702D01*
X18476302Y5427948D01*
X18633872Y5571593D01*
X18762366Y5741745D01*
X18762367Y5741747D01*
X18857403Y5932606D01*
X18857403Y5932607D01*
X18857405Y5932611D01*
X18915756Y6137690D01*
X18935429Y6350000D01*
X18915756Y6562310D01*
X18857405Y6767389D01*
X18857403Y6767394D01*
X18857403Y6767395D01*
X18762367Y6958254D01*
X18633872Y7128407D01*
X18476302Y7272052D01*
X18295019Y7384298D01*
X18295017Y7384299D01*
X18195608Y7422810D01*
X18096198Y7461321D01*
X17923456Y7493613D01*
X17861176Y7525281D01*
X17825903Y7585593D01*
X17828837Y7655401D01*
X17869046Y7712541D01*
X17933764Y7738872D01*
X17946233Y7739501D01*
X18674864Y7739501D01*
X18674879Y7739503D01*
X18674882Y7739503D01*
X18699987Y7742414D01*
X18699988Y7742415D01*
X18699991Y7742415D01*
X18802765Y7787794D01*
X18882206Y7867235D01*
X18927585Y7970009D01*
X18930500Y7995135D01*
X18930499Y9784864D01*
X18929086Y9797052D01*
X18927586Y9809988D01*
X18927585Y9809990D01*
X18927585Y9809991D01*
X18882206Y9912765D01*
X18802765Y9992206D01*
X18802763Y9992207D01*
X18699992Y10037585D01*
X18674865Y10040500D01*
X16885143Y10040500D01*
X16885117Y10040498D01*
X16860012Y10037587D01*
X16860008Y10037585D01*
X16757235Y9992207D01*
X16677794Y9912766D01*
X16632415Y9809994D01*
X16632415Y9809992D01*
X16629500Y9784869D01*
X16629500Y9652519D01*
X16609815Y9585480D01*
X16557011Y9539725D01*
X16487853Y9529781D01*
X16424297Y9558806D01*
X16403925Y9581396D01*
X16278113Y9761074D01*
X16278108Y9761080D01*
X16111082Y9928106D01*
X15917578Y10063601D01*
X15703492Y10163430D01*
X15703486Y10163433D01*
X15490000Y10220636D01*
X15490000Y9323012D01*
X15432993Y9355925D01*
X15305826Y9390000D01*
X15174174Y9390000D01*
X15047007Y9355925D01*
X14990000Y9323012D01*
X14990000Y10220636D01*
X14989999Y10220636D01*
X14776513Y10163433D01*
X14776507Y10163430D01*
X14562422Y10063601D01*
X14562420Y10063600D01*
X14368926Y9928114D01*
X14368920Y9928109D01*
X14201891Y9761080D01*
X14201886Y9761074D01*
X14066400Y9567580D01*
X14066399Y9567578D01*
X13966570Y9353493D01*
X13966567Y9353487D01*
X13909364Y9140001D01*
X13909364Y9140000D01*
X14806988Y9140000D01*
X14774075Y9082993D01*
X14740000Y8955826D01*
X14740000Y8824174D01*
X14774075Y8697007D01*
X14806988Y8640000D01*
X13909364Y8640000D01*
X13966567Y8426514D01*
X13966570Y8426508D01*
X14066399Y8212422D01*
X14201894Y8018918D01*
X14368917Y7851895D01*
X14562421Y7716400D01*
X14761573Y7623534D01*
X14814012Y7577362D01*
X14833164Y7510168D01*
X14812948Y7443287D01*
X14759783Y7397952D01*
X14753968Y7395528D01*
X14746771Y7392740D01*
X14724982Y7384299D01*
X14724980Y7384298D01*
X14543699Y7272053D01*
X14386127Y7128407D01*
X14257632Y6958254D01*
X14162596Y6767395D01*
X14162596Y6767393D01*
X14104244Y6562311D01*
X14084571Y6350001D01*
X14084571Y6350000D01*
X14104244Y6137690D01*
X14162596Y5932608D01*
X14162596Y5932606D01*
X14257632Y5741747D01*
X14386127Y5571594D01*
X14386128Y5571593D01*
X14543698Y5427948D01*
X14724981Y5315702D01*
X14923802Y5238679D01*
X15120613Y5201889D01*
X15182893Y5170221D01*
X15218166Y5109908D01*
X15215232Y5040100D01*
X15175023Y4982960D01*
X15120613Y4958112D01*
X14923802Y4921321D01*
X14923799Y4921321D01*
X14923799Y4921320D01*
X14724982Y4844299D01*
X14724980Y4844298D01*
X14543699Y4732053D01*
X14386127Y4588407D01*
X14257632Y4418254D01*
X14162597Y4227395D01*
X14162595Y4227391D01*
X14162595Y4227389D01*
X14160709Y4220761D01*
X14131751Y4118988D01*
X14094471Y4059895D01*
X14031160Y4030338D01*
X13961921Y4039702D01*
X13924804Y4065243D01*
X7548819Y10441228D01*
X7515334Y10502551D01*
X7512500Y10528909D01*
X7512500Y10923420D01*
X7532185Y10990459D01*
X7538124Y10998907D01*
X7540279Y11001717D01*
X7540282Y11001718D01*
X7636536Y11127159D01*
X7697044Y11273238D01*
X7717682Y11430000D01*
X7697044Y11586762D01*
X7636536Y11732841D01*
X7540282Y11858282D01*
X7414841Y11954536D01*
X7268762Y12015044D01*
X7268760Y12015045D01*
X7112001Y12035682D01*
X7111999Y12035682D01*
X6955239Y12015045D01*
X6955237Y12015044D01*
X6809160Y11954537D01*
X6683714Y11858279D01*
X6677302Y11849922D01*
X6620873Y11808721D01*
X6551127Y11804568D01*
X6490208Y11838782D01*
X6457457Y11900500D01*
X6454929Y11925411D01*
X6454929Y15424633D01*
X6474614Y15491672D01*
X6527418Y15537427D01*
X6531444Y15539180D01*
X6652841Y15589464D01*
X6778282Y15685718D01*
X6874536Y15811159D01*
X6935044Y15957238D01*
X6955682Y16114000D01*
X6935044Y16270762D01*
X6874536Y16416841D01*
X6778282Y16542282D01*
X6652841Y16638536D01*
X6506762Y16699044D01*
X6506760Y16699045D01*
X6350001Y16719682D01*
X6349999Y16719682D01*
X6193239Y16699045D01*
X6193237Y16699044D01*
X6047160Y16638537D01*
X5921718Y16542282D01*
X5825463Y16416840D01*
X5764956Y16270763D01*
X5764955Y16270761D01*
X5743257Y16105943D01*
X5741801Y16106135D01*
X5727705Y16053528D01*
X5681221Y15973017D01*
X5681222Y15973016D01*
X5653929Y15871156D01*
X5653929Y11336581D01*
X5634244Y11269542D01*
X5628305Y11261095D01*
X5529893Y11132843D01*
X5469385Y10986763D01*
X5469384Y10986761D01*
X5448747Y10830002D01*
X5448747Y10829999D01*
X5469384Y10673240D01*
X5469385Y10673238D01*
X5529893Y10527159D01*
X5626147Y10401718D01*
X5628102Y10400218D01*
X5629335Y10398529D01*
X5631898Y10395966D01*
X5631498Y10395567D01*
X5669306Y10343791D01*
X5672391Y10333941D01*
X5681222Y10300983D01*
X5733949Y10209658D01*
X5733951Y10209656D01*
X14131805Y1811802D01*
X14165290Y1750479D01*
X14163390Y1690187D01*
X14104244Y1482313D01*
X14084571Y1270001D01*
X14084571Y1270000D01*
X14104244Y1057690D01*
X14162596Y852608D01*
X14162596Y852606D01*
X14257632Y661747D01*
X14336855Y556840D01*
X14386128Y491593D01*
X14543698Y347948D01*
X14724981Y235702D01*
X14923802Y158679D01*
X15120613Y121889D01*
X15182893Y90221D01*
X15218166Y29908D01*
X15215232Y-39900D01*
X15175023Y-97040D01*
X15120613Y-121888D01*
X14923802Y-158679D01*
X14923799Y-158679D01*
X14923799Y-158680D01*
X14724982Y-235701D01*
X14724980Y-235702D01*
X14543699Y-347947D01*
X14386127Y-491593D01*
X14257632Y-661746D01*
X14162596Y-852605D01*
X14162596Y-852607D01*
X14104244Y-1057689D01*
X14095403Y-1153107D01*
X14084571Y-1270000D01*
X14104244Y-1482310D01*
X14143899Y-1621682D01*
X14162596Y-1687392D01*
X14162596Y-1687394D01*
X14257632Y-1878253D01*
X14373736Y-2031998D01*
X14386128Y-2048407D01*
X14543698Y-2192052D01*
X14724981Y-2304298D01*
X14923802Y-2381321D01*
X15120613Y-2418111D01*
X15182893Y-2449779D01*
X15218166Y-2510092D01*
X15215232Y-2579900D01*
X15175023Y-2637040D01*
X15120613Y-2661888D01*
X14923802Y-2698679D01*
X14923799Y-2698679D01*
X14923799Y-2698680D01*
X14724982Y-2775701D01*
X14724980Y-2775702D01*
X14543699Y-2887947D01*
X14386127Y-3031593D01*
X14257632Y-3201746D01*
X14162596Y-3392605D01*
X14162596Y-3392607D01*
X14104244Y-3597689D01*
X14084571Y-3809999D01*
X14084571Y-3810000D01*
X14104244Y-4022310D01*
X14162596Y-4227392D01*
X14162596Y-4227394D01*
X14257632Y-4418253D01*
X14386127Y-4588406D01*
X14386128Y-4588407D01*
X14543698Y-4732052D01*
X14724981Y-4844298D01*
X14923802Y-4921321D01*
X15052825Y-4945439D01*
X15115103Y-4977106D01*
X15150376Y-5037418D01*
X15147442Y-5107226D01*
X15107234Y-5164367D01*
X15073068Y-5181592D01*
X15073621Y-5182926D01*
X15066113Y-5186035D01*
X15017779Y-5213941D01*
X14978566Y-5228441D01*
X14923811Y-5238676D01*
X14923802Y-5238679D01*
X14724985Y-5315700D01*
X14724980Y-5315702D01*
X14543699Y-5427947D01*
X14386127Y-5571593D01*
X14257632Y-5741746D01*
X14162596Y-5932605D01*
X14162596Y-5932607D01*
X14104244Y-6137689D01*
X14084571Y-6349999D01*
X14084571Y-6350000D01*
X14104244Y-6562310D01*
X14162596Y-6767392D01*
X14162596Y-6767394D01*
X14257632Y-6958253D01*
X14386127Y-7128406D01*
X14386128Y-7128407D01*
X14543698Y-7272052D01*
X14724981Y-7384298D01*
X14753961Y-7395525D01*
X14809362Y-7438095D01*
X14832954Y-7503861D01*
X14817244Y-7571942D01*
X14767222Y-7620722D01*
X14761573Y-7623533D01*
X14562422Y-7716399D01*
X14562420Y-7716400D01*
X14368926Y-7851886D01*
X14368920Y-7851891D01*
X14201891Y-8018920D01*
X14201886Y-8018926D01*
X14066400Y-8212420D01*
X14066399Y-8212422D01*
X13966570Y-8426507D01*
X13966567Y-8426513D01*
X13909364Y-8639999D01*
X13909364Y-8640000D01*
X14806988Y-8640000D01*
X14774075Y-8697007D01*
X14740000Y-8824174D01*
X14740000Y-8955826D01*
X14774075Y-9082993D01*
X14806988Y-9140000D01*
X13909364Y-9140000D01*
X13966567Y-9353486D01*
X13966570Y-9353492D01*
X14066399Y-9567578D01*
X14201894Y-9761082D01*
X14368917Y-9928105D01*
X14562421Y-10063600D01*
X14776507Y-10163429D01*
X14776516Y-10163433D01*
X14990000Y-10220634D01*
X14990000Y-9323012D01*
X15047007Y-9355925D01*
X15174174Y-9390000D01*
X15305826Y-9390000D01*
X15432993Y-9355925D01*
X15490000Y-9323012D01*
X15490000Y-10279401D01*
X15470315Y-10346440D01*
X15453681Y-10367082D01*
X14519584Y-11301181D01*
X14458261Y-11334666D01*
X14431903Y-11337500D01*
X12492098Y-11337500D01*
X12425059Y-11317815D01*
X12404417Y-11301181D01*
X11050819Y-9947583D01*
X11017334Y-9886260D01*
X11014500Y-9859902D01*
X11014500Y-2079487D01*
X11015561Y-2063301D01*
X11019682Y-2032000D01*
X11019682Y-2031998D01*
X11015561Y-2000697D01*
X11014500Y-1984512D01*
X11014500Y206513D01*
X11015561Y222699D01*
X11019682Y254000D01*
X11019682Y254002D01*
X11015561Y285303D01*
X11014500Y301488D01*
X11014500Y4270513D01*
X11015561Y4286699D01*
X11019682Y4318000D01*
X11019682Y4318002D01*
X11015561Y4349303D01*
X11014500Y4365488D01*
X11014500Y4397055D01*
X11014500Y4397057D01*
X11006327Y4427559D01*
X11003164Y4443464D01*
X10999044Y4474760D01*
X10999044Y4474762D01*
X10986959Y4503937D01*
X10981747Y4519292D01*
X10973576Y4549787D01*
X10957789Y4577130D01*
X10950618Y4591670D01*
X10938536Y4620841D01*
X10938535Y4620842D01*
X10938535Y4620843D01*
X10919318Y4645887D01*
X10910307Y4659373D01*
X10894522Y4686713D01*
X10894518Y4686718D01*
X10872196Y4709040D01*
X10861501Y4721235D01*
X10842281Y4746283D01*
X10817233Y4765503D01*
X10805045Y4776191D01*
X10782716Y4798520D01*
X10782715Y4798521D01*
X10778384Y4802852D01*
X10778374Y4802861D01*
X6583590Y8997645D01*
X6583588Y8997648D01*
X6554196Y9027040D01*
X6543501Y9039235D01*
X6524281Y9064283D01*
X6499233Y9083503D01*
X6487039Y9094197D01*
X890819Y14690417D01*
X857334Y14751740D01*
X854500Y14778098D01*
X854500Y16716513D01*
X855561Y16732699D01*
X859682Y16764000D01*
X859682Y16764002D01*
X855561Y16795303D01*
X854500Y16811488D01*
X854500Y16843055D01*
X854500Y16843057D01*
X846327Y16873559D01*
X843164Y16889464D01*
X839044Y16920761D01*
X839044Y16920762D01*
X826957Y16949940D01*
X821745Y16965297D01*
X813577Y16995784D01*
X813575Y16995788D01*
X797791Y17023127D01*
X790617Y17037674D01*
X778536Y17066840D01*
X778536Y17066841D01*
X759311Y17091896D01*
X750305Y17105375D01*
X734522Y17132713D01*
X734518Y17132718D01*
X712196Y17155040D01*
X701501Y17167235D01*
X682281Y17192283D01*
X657233Y17211503D01*
X645039Y17222197D01*
X622718Y17244518D01*
X622716Y17244520D01*
X622713Y17244522D01*
X622709Y17244525D01*
X595372Y17260308D01*
X581887Y17269318D01*
X556840Y17288537D01*
X556839Y17288538D01*
X527668Y17300621D01*
X513123Y17307793D01*
X485784Y17323577D01*
X485781Y17323578D01*
X455288Y17331749D01*
X439932Y17336962D01*
X410764Y17349044D01*
X379450Y17353167D01*
X363552Y17356330D01*
X333057Y17364500D01*
X301487Y17364500D01*
X285302Y17365561D01*
X254000Y17369682D01*
X222697Y17365561D01*
X206513Y17364500D01*
X174940Y17364500D01*
X144441Y17356329D01*
X128545Y17353168D01*
X97244Y17349046D01*
X97235Y17349044D01*
X68067Y17336962D01*
X52715Y17331750D01*
X22219Y17323578D01*
X22217Y17323578D01*
X22216Y17323577D01*
X22214Y17323576D01*
X22212Y17323575D01*
X-5125Y17307793D01*
X-19664Y17300623D01*
X-48835Y17288540D01*
X-48840Y17288537D01*
X-73893Y17269314D01*
X-87371Y17260309D01*
X-114717Y17244520D01*
X-137045Y17222193D01*
X-149233Y17211504D01*
X-174282Y17192282D01*
X-193504Y17167233D01*
X-204193Y17155045D01*
X-226520Y17132717D01*
X-242309Y17105371D01*
X-251314Y17091893D01*
X-270537Y17066840D01*
X-270540Y17066835D01*
X-282623Y17037664D01*
X-289793Y17023125D01*
X-305575Y16995788D01*
X-305578Y16995781D01*
X-313750Y16965285D01*
X-318962Y16949933D01*
X-331044Y16920765D01*
X-331046Y16920756D01*
X-335168Y16889455D01*
X-338329Y16873559D01*
X-346500Y16843060D01*
X-346500Y16811488D01*
X-347561Y16795303D01*
X-351682Y16764002D01*
X-351682Y16764000D01*
X-347561Y16732699D01*
X-346500Y16716513D01*
X-346500Y14564670D01*
X-346501Y14564652D01*
X-346501Y14398946D01*
X-346502Y14398946D01*
X-305577Y14246215D01*
X-276642Y14196100D01*
X-276641Y14196096D01*
X-276640Y14196096D01*
X-226521Y14109286D01*
X-226519Y14109283D01*
X-107651Y13990415D01*
X-107645Y13990410D01*
X5637803Y8244961D01*
X5648497Y8232767D01*
X5667717Y8207719D01*
X5692765Y8188499D01*
X5704960Y8177804D01*
X5734349Y8148415D01*
X5734355Y8148410D01*
X9777181Y4105584D01*
X9810666Y4044261D01*
X9813500Y4017903D01*
X9813500Y3318500D01*
X9793815Y3251461D01*
X9741011Y3205706D01*
X9689500Y3194500D01*
X5140339Y3194500D01*
X5140323Y3194501D01*
X5132727Y3194501D01*
X5027273Y3194501D01*
X4947820Y3173211D01*
X4947819Y3173212D01*
X4925415Y3167208D01*
X4925410Y3167206D01*
X4834085Y3114479D01*
X4759518Y3039911D01*
X4393008Y2673403D01*
X4331685Y2639918D01*
X4321513Y2638145D01*
X4161238Y2617044D01*
X4161237Y2617044D01*
X4015160Y2556537D01*
X3889718Y2460282D01*
X3793463Y2334840D01*
X3732956Y2188763D01*
X3732955Y2188761D01*
X3712318Y2032002D01*
X3712318Y2031999D01*
X3732955Y1875240D01*
X3732956Y1875238D01*
X3784876Y1749891D01*
X3793464Y1729159D01*
X3889718Y1603718D01*
X4015159Y1507464D01*
X4161238Y1446956D01*
X4239619Y1436637D01*
X4317999Y1426318D01*
X4318000Y1426318D01*
X4318001Y1426318D01*
X4370254Y1433198D01*
X4474762Y1446956D01*
X4620841Y1507464D01*
X4746282Y1603718D01*
X4842536Y1729159D01*
X4903044Y1875238D01*
X4923682Y2032000D01*
X4923681Y2032003D01*
X4924144Y2035515D01*
X4952410Y2099411D01*
X4959390Y2106999D01*
X5209573Y2357181D01*
X5270896Y2390666D01*
X5297254Y2393500D01*
X9689500Y2393500D01*
X9756539Y2373815D01*
X9802294Y2321011D01*
X9813500Y2269500D01*
X9813500Y301488D01*
X9812439Y285303D01*
X9808318Y254002D01*
X9808318Y254000D01*
X9812439Y222699D01*
X9813500Y206513D01*
X9813500Y-1984512D01*
X9812439Y-2000697D01*
X9808318Y-2031998D01*
X9808318Y-2032000D01*
X9812439Y-2063301D01*
X9813500Y-2079487D01*
X9813500Y-10073330D01*
X9813499Y-10073348D01*
X9813499Y-10239054D01*
X9813498Y-10239054D01*
X9854423Y-10391785D01*
X9883358Y-10441900D01*
X9883359Y-10441904D01*
X9883360Y-10441904D01*
X9933479Y-10528714D01*
X9933481Y-10528717D01*
X10052349Y-10647585D01*
X10052355Y-10647590D01*
X10530584Y-11125819D01*
X10564069Y-11187142D01*
X10559085Y-11256834D01*
X10517213Y-11312767D01*
X10451749Y-11337184D01*
X10442903Y-11337500D01*
X3602098Y-11337500D01*
X3535059Y-11317815D01*
X3514417Y-11301181D01*
X3027590Y-10814355D01*
X3027588Y-10814352D01*
X2998196Y-10784960D01*
X2987501Y-10772765D01*
X2968281Y-10747717D01*
X2943233Y-10728497D01*
X2931039Y-10717803D01*
X2908718Y-10695482D01*
X2908716Y-10695480D01*
X2881370Y-10679691D01*
X2867890Y-10670685D01*
X2842841Y-10651464D01*
X2813665Y-10639378D01*
X2799121Y-10632205D01*
X2771790Y-10616425D01*
X2771780Y-10616421D01*
X2741288Y-10608250D01*
X2725934Y-10603038D01*
X2696767Y-10590957D01*
X2696763Y-10590956D01*
X2665458Y-10586834D01*
X2649557Y-10583671D01*
X2636545Y-10580184D01*
X2619057Y-10575499D01*
X2619056Y-10575499D01*
X2587480Y-10575499D01*
X2571295Y-10574438D01*
X2540001Y-10570318D01*
X2539999Y-10570318D01*
X2508705Y-10574438D01*
X2492520Y-10575499D01*
X2453347Y-10575499D01*
X2453331Y-10575500D01*
X-15188903Y-10575500D01*
X-15255942Y-10555815D01*
X-15276584Y-10539181D01*
X-15433681Y-10382084D01*
X-15467166Y-10320761D01*
X-15470000Y-10294403D01*
X-15470000Y-9338012D01*
X-15412993Y-9370925D01*
X-15285826Y-9405000D01*
X-15154174Y-9405000D01*
X-15027007Y-9370925D01*
X-14970000Y-9338012D01*
X-14970000Y-10235633D01*
X-14756517Y-10178433D01*
X-14756508Y-10178429D01*
X-14542422Y-10078600D01*
X-14348918Y-9943105D01*
X-14181895Y-9776082D01*
X-14046400Y-9582578D01*
X-13946571Y-9368492D01*
X-13946568Y-9368486D01*
X-13889364Y-9155000D01*
X-14786988Y-9155000D01*
X-14754075Y-9097993D01*
X-14720000Y-8970826D01*
X-14720000Y-8839174D01*
X-14754075Y-8712007D01*
X-14786988Y-8655000D01*
X-13889364Y-8655000D01*
X-13889365Y-8654999D01*
X-13946568Y-8441513D01*
X-13946571Y-8441507D01*
X-14046400Y-8227422D01*
X-14046401Y-8227420D01*
X-14181887Y-8033926D01*
X-14181892Y-8033920D01*
X-14348918Y-7866894D01*
X-14542422Y-7731399D01*
X-14741574Y-7638533D01*
X-14794013Y-7592360D01*
X-14813165Y-7525167D01*
X-14792949Y-7458286D01*
X-14739784Y-7412951D01*
X-14733995Y-7410537D01*
X-14704981Y-7399298D01*
X-14523698Y-7287052D01*
X-14366128Y-7143407D01*
X-14237634Y-6973255D01*
X-14142595Y-6782389D01*
X-14084244Y-6577310D01*
X-14064571Y-6365000D01*
X-14084244Y-6152690D01*
X-14142595Y-5947611D01*
X-14142597Y-5947606D01*
X-14142597Y-5947605D01*
X-14237633Y-5756746D01*
X-14366128Y-5586593D01*
X-14382582Y-5571593D01*
X-14523698Y-5442948D01*
X-14704981Y-5330702D01*
X-14704983Y-5330701D01*
X-14804392Y-5292190D01*
X-14903802Y-5253679D01*
X-15100615Y-5216888D01*
X-15162894Y-5185221D01*
X-15198167Y-5124908D01*
X-15195233Y-5055100D01*
X-15155024Y-4997960D01*
X-15100616Y-4973111D01*
X-14903802Y-4936321D01*
X-14704981Y-4859298D01*
X-14523698Y-4747052D01*
X-14366128Y-4603407D01*
X-14237634Y-4433255D01*
X-14142595Y-4242389D01*
X-14084244Y-4037310D01*
X-14064571Y-3825000D01*
X-14084244Y-3612690D01*
X-14142595Y-3407611D01*
X-14142597Y-3407606D01*
X-14142597Y-3407605D01*
X-14237633Y-3216746D01*
X-14366128Y-3046593D01*
X-14382582Y-3031593D01*
X-14523698Y-2902948D01*
X-14704981Y-2790702D01*
X-14704983Y-2790701D01*
X-14804392Y-2752190D01*
X-14903802Y-2713679D01*
X-15100615Y-2676888D01*
X-15162894Y-2645221D01*
X-15198167Y-2584908D01*
X-15195233Y-2515100D01*
X-15155024Y-2457960D01*
X-15100616Y-2433111D01*
X-14903802Y-2396321D01*
X-14704981Y-2319298D01*
X-14523698Y-2207052D01*
X-14366128Y-2063407D01*
X-14237634Y-1893255D01*
X-14206499Y-1830727D01*
X-14142597Y-1702394D01*
X-14142597Y-1702393D01*
X-14142595Y-1702389D01*
X-14084244Y-1497310D01*
X-14064571Y-1285000D01*
X-14084244Y-1072690D01*
X-14142595Y-867611D01*
X-14142597Y-867606D01*
X-14142597Y-867605D01*
X-14237633Y-676746D01*
X-14366128Y-506593D01*
X-14382725Y-491463D01*
X-14523698Y-362948D01*
X-14704981Y-250702D01*
X-14704983Y-250701D01*
X-14821716Y-205479D01*
X-14903802Y-173679D01*
X-15100615Y-136888D01*
X-15162894Y-105221D01*
X-15198167Y-44908D01*
X-15195233Y24900D01*
X-15155024Y82040D01*
X-15100616Y106889D01*
X-14903802Y143679D01*
X-14704981Y220702D01*
X-14523698Y332948D01*
X-14366128Y476593D01*
X-14237634Y646745D01*
X-14237633Y646747D01*
X-14142597Y837606D01*
X-14142597Y837607D01*
X-14142595Y837611D01*
X-14084244Y1042690D01*
X-14064571Y1255000D01*
X-14084244Y1467310D01*
X-14142595Y1672389D01*
X-14142597Y1672394D01*
X-14142597Y1672395D01*
X-14237633Y1863254D01*
X-14366128Y2033407D01*
X-14411171Y2074469D01*
X-14523698Y2177052D01*
X-14704981Y2289298D01*
X-14704983Y2289299D01*
X-14804392Y2327810D01*
X-14903802Y2366321D01*
X-15100615Y2403112D01*
X-15162894Y2434779D01*
X-15198167Y2495092D01*
X-15195233Y2564900D01*
X-15155024Y2622040D01*
X-15100616Y2646889D01*
X-14903802Y2683679D01*
X-14704981Y2760702D01*
X-14523698Y2872948D01*
X-14366128Y3016593D01*
X-14237634Y3186745D01*
X-14237633Y3186747D01*
X-14142597Y3377606D01*
X-14142597Y3377607D01*
X-14142595Y3377611D01*
X-14084244Y3582690D01*
X-14064571Y3795000D01*
X-14084244Y4007310D01*
X-14100375Y4064002D01*
X664318Y4064002D01*
X664318Y4063999D01*
X684955Y3907240D01*
X684956Y3907238D01*
X734208Y3788332D01*
X745464Y3761159D01*
X841718Y3635718D01*
X841720Y3635717D01*
X843876Y3632907D01*
X869070Y3567737D01*
X869500Y3557420D01*
X869500Y2030581D01*
X849815Y1963542D01*
X843876Y1955095D01*
X745464Y1826843D01*
X684956Y1680763D01*
X684955Y1680761D01*
X664318Y1524002D01*
X664318Y1523999D01*
X684955Y1367240D01*
X684956Y1367238D01*
X734208Y1248332D01*
X745464Y1221159D01*
X841718Y1095718D01*
X841720Y1095717D01*
X843876Y1092907D01*
X869070Y1027737D01*
X869500Y1017420D01*
X869500Y-1830726D01*
X896793Y-1932589D01*
X923156Y-1978250D01*
X949520Y-2023913D01*
X949522Y-2023915D01*
X1390597Y-2464990D01*
X1424082Y-2526313D01*
X1425855Y-2536485D01*
X1426318Y-2539998D01*
X1426318Y-2540000D01*
X1446956Y-2696762D01*
X1507464Y-2842841D01*
X1603718Y-2968282D01*
X1729159Y-3064536D01*
X1875238Y-3125044D01*
X1953619Y-3135363D01*
X2031999Y-3145682D01*
X2032000Y-3145682D01*
X2032001Y-3145682D01*
X2084254Y-3138802D01*
X2188762Y-3125044D01*
X2334841Y-3064536D01*
X2460282Y-2968282D01*
X2556536Y-2842841D01*
X2617044Y-2696762D01*
X2637682Y-2540000D01*
X2635719Y-2525092D01*
X2617044Y-2383239D01*
X2617044Y-2383238D01*
X2556536Y-2237159D01*
X2460282Y-2111718D01*
X2334841Y-2015464D01*
X2333274Y-2014815D01*
X2260116Y-1984512D01*
X2188762Y-1954956D01*
X2132577Y-1947559D01*
X2028485Y-1933855D01*
X1964589Y-1905588D01*
X1956990Y-1898597D01*
X1706819Y-1648426D01*
X1673334Y-1587103D01*
X1670500Y-1560745D01*
X1670500Y-1015998D01*
X1934318Y-1015998D01*
X1934318Y-1016001D01*
X1954955Y-1172760D01*
X1954956Y-1172762D01*
X2004208Y-1291668D01*
X2015464Y-1318841D01*
X2111718Y-1444282D01*
X2237159Y-1540536D01*
X2383238Y-1601044D01*
X2461619Y-1611363D01*
X2539999Y-1621682D01*
X2540000Y-1621682D01*
X2540001Y-1621682D01*
X2592254Y-1614802D01*
X2696762Y-1601044D01*
X2842841Y-1540536D01*
X2968282Y-1444282D01*
X3064536Y-1318841D01*
X3125044Y-1172762D01*
X3145682Y-1016000D01*
X3145681Y-1015997D01*
X3146144Y-1012485D01*
X3174410Y-948589D01*
X3181390Y-941001D01*
X3269128Y-853263D01*
X3330449Y-819780D01*
X3400141Y-824764D01*
X3456074Y-866636D01*
X3474375Y-911575D01*
X3476853Y-910912D01*
X3478956Y-918762D01*
X3536501Y-1057689D01*
X3539464Y-1064841D01*
X3635718Y-1190282D01*
X3761159Y-1286536D01*
X3907238Y-1347044D01*
X3985619Y-1357363D01*
X4063999Y-1367682D01*
X4064000Y-1367682D01*
X4064001Y-1367682D01*
X4116254Y-1360802D01*
X4220762Y-1347044D01*
X4366841Y-1286536D01*
X4492282Y-1190282D01*
X4492283Y-1190279D01*
X4495093Y-1188124D01*
X4560263Y-1162930D01*
X4570580Y-1162500D01*
X6605420Y-1162500D01*
X6672459Y-1182185D01*
X6680907Y-1188124D01*
X6683716Y-1190279D01*
X6683718Y-1190282D01*
X6809159Y-1286536D01*
X6955238Y-1347044D01*
X7033619Y-1357363D01*
X7111999Y-1367682D01*
X7112000Y-1367682D01*
X7112001Y-1367682D01*
X7164254Y-1360802D01*
X7268762Y-1347044D01*
X7414841Y-1286536D01*
X7540282Y-1190282D01*
X7636536Y-1064841D01*
X7697044Y-918762D01*
X7717682Y-762000D01*
X7697044Y-605238D01*
X7636536Y-459159D01*
X7636535Y-459158D01*
X7636535Y-459157D01*
X7598802Y-409983D01*
X7573607Y-344814D01*
X7587645Y-276369D01*
X7621687Y-236123D01*
X7702282Y-174282D01*
X7798536Y-48841D01*
X7859044Y97238D01*
X7879682Y254000D01*
X7859044Y410762D01*
X7798536Y556841D01*
X7702282Y682282D01*
X7576841Y778536D01*
X7430762Y839044D01*
X7430760Y839045D01*
X7274001Y859682D01*
X7273999Y859682D01*
X7117239Y839045D01*
X7117237Y839044D01*
X6971160Y778537D01*
X6971159Y778536D01*
X6845718Y682282D01*
X6845716Y682280D01*
X6842907Y680124D01*
X6777737Y654930D01*
X6767420Y654500D01*
X3757273Y654500D01*
X3655410Y627207D01*
X3564087Y574480D01*
X3564084Y574478D01*
X2615008Y-374597D01*
X2553685Y-408082D01*
X2543513Y-409855D01*
X2383238Y-430956D01*
X2383237Y-430956D01*
X2237160Y-491463D01*
X2111718Y-587718D01*
X2015463Y-713160D01*
X1954956Y-859237D01*
X1954955Y-859239D01*
X1934318Y-1015998D01*
X1670500Y-1015998D01*
X1670500Y1017420D01*
X1690185Y1084459D01*
X1696124Y1092907D01*
X1698279Y1095717D01*
X1698282Y1095718D01*
X1794536Y1221159D01*
X1855044Y1367238D01*
X1875682Y1524000D01*
X1855044Y1680762D01*
X1794536Y1826841D01*
X1794535Y1826842D01*
X1794535Y1826843D01*
X1696124Y1955095D01*
X1670930Y2020264D01*
X1670500Y2030581D01*
X1670500Y3557420D01*
X1690185Y3624459D01*
X1696124Y3632907D01*
X1698279Y3635717D01*
X1698282Y3635718D01*
X1794536Y3761159D01*
X1855044Y3907238D01*
X1875682Y4064000D01*
X1875518Y4065243D01*
X1856146Y4212393D01*
X1855044Y4220762D01*
X1794536Y4366841D01*
X1698282Y4492282D01*
X1572841Y4588536D01*
X1426762Y4649044D01*
X1426760Y4649045D01*
X1270001Y4669682D01*
X1269999Y4669682D01*
X1113239Y4649045D01*
X1113237Y4649044D01*
X967160Y4588537D01*
X841718Y4492282D01*
X745463Y4366840D01*
X684956Y4220763D01*
X684955Y4220761D01*
X664318Y4064002D01*
X-14100375Y4064002D01*
X-14142595Y4212389D01*
X-14142597Y4212394D01*
X-14142597Y4212395D01*
X-14237633Y4403254D01*
X-14366128Y4573407D01*
X-14382725Y4588537D01*
X-14523698Y4717052D01*
X-14704981Y4829298D01*
X-14704983Y4829299D01*
X-14804392Y4867810D01*
X-14903802Y4906321D01*
X-15100615Y4943112D01*
X-15162894Y4974779D01*
X-15198167Y5035092D01*
X-15195233Y5104900D01*
X-15155024Y5162040D01*
X-15100616Y5186889D01*
X-14903802Y5223679D01*
X-14704981Y5300702D01*
X-14523698Y5412948D01*
X-14366128Y5556593D01*
X-14237634Y5726745D01*
X-14142595Y5917611D01*
X-14084244Y6122690D01*
X-14064571Y6335000D01*
X-14084244Y6547310D01*
X-14142595Y6752389D01*
X-14142597Y6752394D01*
X-14142597Y6752395D01*
X-14237633Y6943254D01*
X-14366128Y7113407D01*
X-14382582Y7128407D01*
X-14523698Y7257052D01*
X-14523701Y7257054D01*
X-14523702Y7257055D01*
X-14585911Y7295573D01*
X-14632547Y7347601D01*
X-14643651Y7416582D01*
X-14615698Y7480617D01*
X-14557563Y7519373D01*
X-14520634Y7525000D01*
X-14322172Y7525000D01*
X-14322156Y7525001D01*
X-14262628Y7531402D01*
X-14262621Y7531404D01*
X-14127914Y7581646D01*
X-14127907Y7581650D01*
X-14012813Y7667810D01*
X-14012810Y7667813D01*
X-13926650Y7782907D01*
X-13926646Y7782914D01*
X-13876404Y7917621D01*
X-13876402Y7917628D01*
X-13870001Y7977156D01*
X-13870000Y7977173D01*
X-13870000Y8625000D01*
X-14786988Y8625000D01*
X-14754075Y8682007D01*
X-14720000Y8809174D01*
X-14720000Y8940826D01*
X-14754075Y9067993D01*
X-14786988Y9125000D01*
X-13870000Y9125000D01*
X-13870000Y9772828D01*
X-13870001Y9772845D01*
X-13876402Y9832373D01*
X-13876404Y9832380D01*
X-13926646Y9967087D01*
X-13926650Y9967094D01*
X-14012810Y10082188D01*
X-14012813Y10082191D01*
X-14127907Y10168351D01*
X-14127914Y10168355D01*
X-14262621Y10218597D01*
X-14262628Y10218599D01*
X-14322156Y10225000D01*
X-14970000Y10225000D01*
X-14970000Y9308012D01*
X-15027007Y9340925D01*
X-15154174Y9375000D01*
X-15285826Y9375000D01*
X-15412993Y9340925D01*
X-15470000Y9308012D01*
X-15470000Y10225000D01*
X-16117845Y10225000D01*
X-16177373Y10218599D01*
X-16177380Y10218597D01*
X-16312087Y10168355D01*
X-16312094Y10168351D01*
X-16427188Y10082191D01*
X-16427191Y10082188D01*
X-16513351Y9967094D01*
X-16513355Y9967087D01*
X-16563597Y9832380D01*
X-16563599Y9832373D01*
X-16570000Y9772845D01*
X-16570000Y9578269D01*
X-16589685Y9511230D01*
X-16642489Y9465475D01*
X-16711647Y9455531D01*
X-16775203Y9484556D01*
X-16792954Y9503542D01*
X-16906128Y9653407D01*
X-17063698Y9797052D01*
X-17244981Y9909298D01*
X-17244983Y9909299D01*
X-17394171Y9967094D01*
X-17443802Y9986321D01*
X-17653390Y10025500D01*
X-17866610Y10025500D01*
X-18076198Y9986321D01*
X-18076201Y9986321D01*
X-18076201Y9986320D01*
X-18275018Y9909299D01*
X-18275020Y9909298D01*
X-18456301Y9797053D01*
X-18613873Y9653407D01*
X-18742368Y9483254D01*
X-18837404Y9292395D01*
X-18837404Y9292393D01*
X-18895756Y9087311D01*
X-18909329Y8940826D01*
X-18915429Y8875000D01*
X-18895756Y8662690D01*
X-18842325Y8474901D01*
X-18837404Y8457608D01*
X-18837404Y8457606D01*
X-18742368Y8266747D01*
X-18613873Y8096594D01*
X-18613872Y8096593D01*
X-18456302Y7952948D01*
X-18275019Y7840702D01*
X-18076198Y7763679D01*
X-17879387Y7726889D01*
X-17817107Y7695221D01*
X-17781834Y7634908D01*
X-17784768Y7565100D01*
X-17824977Y7507960D01*
X-17879387Y7483112D01*
X-18076198Y7446321D01*
X-18076201Y7446321D01*
X-18076201Y7446320D01*
X-18275018Y7369299D01*
X-18275020Y7369298D01*
X-18456301Y7257053D01*
X-18613873Y7113407D01*
X-18742368Y6943254D01*
X-18837404Y6752395D01*
X-18837404Y6752393D01*
X-18837405Y6752389D01*
X-18895756Y6547310D01*
X-18915429Y6335000D01*
X-18895756Y6122690D01*
X-18841672Y5932606D01*
X-18837404Y5917608D01*
X-18837404Y5917606D01*
X-18742368Y5726747D01*
X-18625200Y5571593D01*
X-18613872Y5556593D01*
X-18456302Y5412948D01*
X-18275019Y5300702D01*
X-18076198Y5223679D01*
X-17879387Y5186889D01*
X-17817107Y5155221D01*
X-17781834Y5094908D01*
X-17784768Y5025100D01*
X-17824977Y4967960D01*
X-17879387Y4943112D01*
X-18076198Y4906321D01*
X-18076201Y4906321D01*
X-18076201Y4906320D01*
X-18275018Y4829299D01*
X-18275020Y4829298D01*
X-18456301Y4717053D01*
X-18613873Y4573407D01*
X-18742368Y4403254D01*
X-18837404Y4212395D01*
X-18837404Y4212393D01*
X-18885242Y4044261D01*
X-18895756Y4007310D01*
X-18915429Y3795000D01*
X-18895756Y3582690D01*
X-18841672Y3392606D01*
X-18837404Y3377608D01*
X-18837404Y3377606D01*
X-18742368Y3186747D01*
X-18625200Y3031593D01*
X-18613872Y3016593D01*
X-18456302Y2872948D01*
X-18275019Y2760702D01*
X-18076198Y2683679D01*
X-17879387Y2646889D01*
X-17817107Y2615221D01*
X-17781834Y2554908D01*
X-17784768Y2485100D01*
X-17824977Y2427960D01*
X-17879387Y2403112D01*
X-18076198Y2366321D01*
X-18076201Y2366321D01*
X-18076201Y2366320D01*
X-18275018Y2289299D01*
X-18275020Y2289298D01*
X-18456301Y2177053D01*
X-18613873Y2033407D01*
X-18742368Y1863254D01*
X-18837404Y1672395D01*
X-18837404Y1672393D01*
X-18879626Y1523999D01*
X-18895756Y1467310D01*
X-18915429Y1255000D01*
X-18895756Y1042690D01*
X-18841672Y852606D01*
X-18837404Y837608D01*
X-18837404Y837606D01*
X-18742368Y646747D01*
X-18625200Y491593D01*
X-18613872Y476593D01*
X-18456302Y332948D01*
X-18275019Y220702D01*
X-18076198Y143679D01*
X-17879387Y106889D01*
X-17817107Y75221D01*
X-17781834Y14908D01*
X-17784768Y-54900D01*
X-17824977Y-112040D01*
X-17879387Y-136888D01*
X-18076198Y-173679D01*
X-18076201Y-173679D01*
X-18076201Y-173680D01*
X-18275018Y-250701D01*
X-18275020Y-250702D01*
X-18456301Y-362947D01*
X-18613873Y-506593D01*
X-18742368Y-676746D01*
X-18811593Y-815771D01*
X-18859096Y-867009D01*
X-18922593Y-884500D01*
X-19004661Y-884500D01*
X-19004677Y-884499D01*
X-19012273Y-884499D01*
X-19117727Y-884499D01*
X-19185634Y-902695D01*
X-19219588Y-911793D01*
X-19231658Y-918762D01*
X-19310913Y-964520D01*
X-19310916Y-964522D01*
X-19313499Y-966014D01*
X-19381399Y-982487D01*
X-19447426Y-959635D01*
X-19490617Y-904714D01*
X-19499500Y-858627D01*
X-19499500Y15436313D01*
X-19479815Y15503352D01*
X-19427011Y15549107D01*
X-19357853Y15559051D01*
X-19294297Y15530026D01*
X-19256523Y15471248D01*
X-19256368Y15470714D01*
X-19187121Y15230356D01*
X-19053855Y14908624D01*
X-18885405Y14603836D01*
X-18683888Y14319824D01*
X-18451839Y14060161D01*
X-18192176Y13828112D01*
X-17908164Y13626595D01*
X-17603376Y13458145D01*
X-17281644Y13324879D01*
X-16947013Y13228473D01*
X-16603693Y13170141D01*
X-16256000Y13150615D01*
X-15908307Y13170141D01*
X-15564987Y13228473D01*
X-15230356Y13324879D01*
X-14908624Y13458145D01*
X-14603836Y13626595D01*
X-14319824Y13828112D01*
X-14060161Y14060161D01*
X-13828112Y14319824D01*
X-13626595Y14603836D01*
X-13458145Y14908624D01*
X-13324879Y15230356D01*
X-13228473Y15564987D01*
X-13170141Y15908307D01*
X-13150615Y16256000D01*
X-13170141Y16603693D01*
X-13228473Y16947013D01*
X-13324879Y17281644D01*
X-13458145Y17603376D01*
X-13626595Y17908164D01*
X-13828112Y18192176D01*
X-14060161Y18451839D01*
X-14319824Y18683888D01*
X-14603836Y18885405D01*
X-14908624Y19053855D01*
X-15230356Y19187121D01*
X-15470640Y19256346D01*
X-15529610Y19293820D01*
X-15558958Y19357227D01*
X-15549368Y19426436D01*
X-15503882Y19479472D01*
X-15436944Y19499498D01*
X-15436312Y19499500D01*
X-65892Y19499500D01*
X15436312Y19499500D01*
X15503351Y19479815D01*
G37*
%TD.AperFunction*%
%TD*%
M02*
