%TF.GenerationSoftware,KiCad,Pcbnew,8.0.7*%
%TF.CreationDate,2024-12-29T21:32:39+01:00*%
%TF.ProjectId,stackflex_feature_air_qual,73746163-6b66-46c6-9578-5f6665617475,1*%
%TF.SameCoordinates,Original*%
%TF.FileFunction,Paste,Top*%
%TF.FilePolarity,Positive*%
%FSLAX46Y46*%
G04 Gerber Fmt 4.6, Leading zero omitted, Abs format (unit mm)*
G04 Created by KiCad (PCBNEW 8.0.7) date 2024-12-29 21:32:39*
%MOMM*%
%LPD*%
G01*
G04 APERTURE LIST*
G04 Aperture macros list*
%AMRoundRect*
0 Rectangle with rounded corners*
0 $1 Rounding radius*
0 $2 $3 $4 $5 $6 $7 $8 $9 X,Y pos of 4 corners*
0 Add a 4 corners polygon primitive as box body*
4,1,4,$2,$3,$4,$5,$6,$7,$8,$9,$2,$3,0*
0 Add four circle primitives for the rounded corners*
1,1,$1+$1,$2,$3*
1,1,$1+$1,$4,$5*
1,1,$1+$1,$6,$7*
1,1,$1+$1,$8,$9*
0 Add four rect primitives between the rounded corners*
20,1,$1+$1,$2,$3,$4,$5,0*
20,1,$1+$1,$4,$5,$6,$7,0*
20,1,$1+$1,$6,$7,$8,$9,0*
20,1,$1+$1,$8,$9,$2,$3,0*%
G04 Aperture macros list end*
%ADD10RoundRect,0.135000X0.135000X0.185000X-0.135000X0.185000X-0.135000X-0.185000X0.135000X-0.185000X0*%
%ADD11RoundRect,0.140000X-0.140000X-0.170000X0.140000X-0.170000X0.140000X0.170000X-0.140000X0.170000X0*%
%ADD12RoundRect,0.135000X-0.135000X-0.185000X0.135000X-0.185000X0.135000X0.185000X-0.135000X0.185000X0*%
%ADD13RoundRect,0.140000X0.170000X-0.140000X0.170000X0.140000X-0.170000X0.140000X-0.170000X-0.140000X0*%
%ADD14R,0.750000X0.300000*%
%ADD15R,0.750000X1.450000*%
%ADD16RoundRect,0.135000X-0.185000X0.135000X-0.185000X-0.135000X0.185000X-0.135000X0.185000X0.135000X0*%
%ADD17RoundRect,0.135000X0.185000X-0.135000X0.185000X0.135000X-0.185000X0.135000X-0.185000X-0.135000X0*%
%ADD18R,0.800000X0.450000*%
%ADD19R,1.250000X1.700000*%
%ADD20R,0.450000X1.000000*%
%ADD21RoundRect,0.140000X-0.170000X0.140000X-0.170000X-0.140000X0.170000X-0.140000X0.170000X0.140000X0*%
%ADD22R,0.700000X0.600000*%
%ADD23R,0.600000X1.250000*%
%ADD24R,0.600000X0.350000*%
%ADD25R,1.100000X1.700000*%
%ADD26RoundRect,0.140000X0.140000X0.170000X-0.140000X0.170000X-0.140000X-0.170000X0.140000X-0.170000X0*%
%ADD27R,0.300000X0.600000*%
%ADD28R,1.400000X1.200000*%
%ADD29R,0.450000X1.425000*%
%ADD30R,0.600000X0.700000*%
G04 APERTURE END LIST*
D10*
%TO.C,R4*%
X5844000Y-3048000D03*
X4824000Y-3048000D03*
%TD*%
D11*
%TO.C,C4*%
X-1242000Y2032000D03*
X-282000Y2032000D03*
%TD*%
D12*
%TO.C,R3*%
X5838000Y1656000D03*
X6858000Y1656000D03*
%TD*%
D13*
%TO.C,C10*%
X2540000Y-10048000D03*
X2540000Y-9088000D03*
%TD*%
D11*
%TO.C,C8*%
X5772000Y-13220000D03*
X6732000Y-13220000D03*
%TD*%
D12*
%TO.C,JP3*%
X-11432000Y-13970000D03*
X-10412000Y-13970000D03*
%TD*%
D13*
%TO.C,C1*%
X-9652000Y-12926000D03*
X-9652000Y-11966000D03*
%TD*%
D10*
%TO.C,R12*%
X9400000Y-14986000D03*
X8380000Y-14986000D03*
%TD*%
D14*
%TO.C,IC4*%
X4334000Y15382000D03*
X4334000Y14732000D03*
X4334000Y14082000D03*
X6334000Y14082000D03*
X6334000Y14732000D03*
X6334000Y15382000D03*
D15*
X5334000Y14732000D03*
%TD*%
D10*
%TO.C,JP1*%
X-7616000Y-12954000D03*
X-8636000Y-12954000D03*
%TD*%
D16*
%TO.C,R1*%
X3810000Y1272000D03*
X3810000Y252000D03*
%TD*%
%TO.C,R7*%
X7620000Y15752000D03*
X7620000Y14732000D03*
%TD*%
%TO.C,R6*%
X11684000Y3558000D03*
X11684000Y2538000D03*
%TD*%
D17*
%TO.C,R5*%
X11684000Y252000D03*
X11684000Y1272000D03*
%TD*%
D10*
%TO.C,JP6*%
X-10414000Y-19050000D03*
X-11434000Y-19050000D03*
%TD*%
D12*
%TO.C,JP7*%
X-11434000Y-18034000D03*
X-10414000Y-18034000D03*
%TD*%
D17*
%TO.C,R2*%
X7874000Y-2542000D03*
X7874000Y-1522000D03*
%TD*%
D18*
%TO.C,IC2*%
X-1130000Y762000D03*
X-1130000Y-38000D03*
X-1130000Y-838000D03*
X1270000Y-838000D03*
X1270000Y-38000D03*
X1270000Y762000D03*
D19*
X70000Y-38000D03*
%TD*%
D10*
%TO.C,R10*%
X10924000Y-9398000D03*
X9904000Y-9398000D03*
%TD*%
D11*
%TO.C,C2*%
X4064000Y8636000D03*
X5024000Y8636000D03*
%TD*%
D13*
%TO.C,C12*%
X7146000Y-10782000D03*
X7146000Y-9822000D03*
%TD*%
D20*
%TO.C,IC7*%
X5192000Y-1646000D03*
X5842000Y-1646000D03*
X6492000Y-1646000D03*
X6492000Y254000D03*
X5842000Y254000D03*
X5192000Y254000D03*
%TD*%
D17*
%TO.C,R11*%
X7874000Y-13210000D03*
X7874000Y-12190000D03*
%TD*%
D21*
%TO.C,C7*%
X3048000Y14818000D03*
X3048000Y13858000D03*
%TD*%
D22*
%TO.C,LED2*%
X1810000Y-15022000D03*
X1810000Y-16522000D03*
X2710000Y-16522000D03*
X2710000Y-15022000D03*
%TD*%
%TO.C,LED3*%
X-2177000Y-15022000D03*
X-2177000Y-16522000D03*
X-1277000Y-16522000D03*
X-1277000Y-15022000D03*
%TD*%
D11*
%TO.C,C6*%
X1764000Y-13220000D03*
X2724000Y-13220000D03*
%TD*%
D23*
%TO.C,IC5*%
X5964000Y7072000D03*
X5014000Y7072000D03*
X4064000Y7072000D03*
X4064000Y4572000D03*
X5964000Y4572000D03*
%TD*%
D16*
%TO.C,R8*%
X-7112000Y13464000D03*
X-7112000Y12444000D03*
%TD*%
D10*
%TO.C,JP4*%
X-10414000Y-17018000D03*
X-11434000Y-17018000D03*
%TD*%
D22*
%TO.C,LED1*%
X5842000Y-15010000D03*
X5842000Y-16510000D03*
X6742000Y-16510000D03*
X6742000Y-15010000D03*
%TD*%
D10*
%TO.C,JP2*%
X-10412000Y-14986000D03*
X-11432000Y-14986000D03*
%TD*%
D13*
%TO.C,C3*%
X7554000Y5342000D03*
X7554000Y6302000D03*
%TD*%
D12*
%TO.C,JP5*%
X-11432000Y-16002000D03*
X-10412000Y-16002000D03*
%TD*%
D10*
%TO.C,R9*%
X5844000Y-7874000D03*
X4824000Y-7874000D03*
%TD*%
D24*
%TO.C,IC6*%
X3810000Y-9256000D03*
X3810000Y-9906000D03*
X3810000Y-10556000D03*
X5910000Y-10556000D03*
X5910000Y-9906000D03*
X5910000Y-9256000D03*
D25*
X4860000Y-9906000D03*
%TD*%
D26*
%TO.C,C5*%
X-5870000Y4318000D03*
X-6830000Y4318000D03*
%TD*%
D11*
%TO.C,C11*%
X3810000Y-11826000D03*
X4770000Y-11826000D03*
%TD*%
%TO.C,C9*%
X-2356000Y-13220000D03*
X-1396000Y-13220000D03*
%TD*%
D27*
%TO.C,IC1*%
X-8638000Y-17332000D03*
X-8138000Y-17332000D03*
X-7638000Y-17332000D03*
X-7138000Y-17332000D03*
X-7138000Y-14732000D03*
X-7638000Y-14732000D03*
X-8138000Y-14732000D03*
X-8638000Y-14732000D03*
D28*
X-7888000Y-16032000D03*
%TD*%
D29*
%TO.C,IC3*%
X-5842000Y10414000D03*
X-6492000Y10414000D03*
X-7142000Y10414000D03*
X-7792000Y10414000D03*
X-7792000Y5990000D03*
X-7142000Y5990000D03*
X-6492000Y5990000D03*
X-5842000Y5990000D03*
%TD*%
D30*
%TO.C,Q3*%
X11364000Y-10938000D03*
X9464000Y-10938000D03*
X10414000Y-12938000D03*
%TD*%
M02*
