%TF.GenerationSoftware,KiCad,Pcbnew,8.0.7*%
%TF.CreationDate,2024-12-29T21:32:39+01:00*%
%TF.ProjectId,stackflex_feature_air_qual,73746163-6b66-46c6-9578-5f6665617475,1*%
%TF.SameCoordinates,Original*%
%TF.FileFunction,Legend,Top*%
%TF.FilePolarity,Positive*%
%FSLAX46Y46*%
G04 Gerber Fmt 4.6, Leading zero omitted, Abs format (unit mm)*
G04 Created by KiCad (PCBNEW 8.0.7) date 2024-12-29 21:32:39*
%MOMM*%
%LPD*%
G01*
G04 APERTURE LIST*
G04 Aperture macros list*
%AMRoundRect*
0 Rectangle with rounded corners*
0 $1 Rounding radius*
0 $2 $3 $4 $5 $6 $7 $8 $9 X,Y pos of 4 corners*
0 Add a 4 corners polygon primitive as box body*
4,1,4,$2,$3,$4,$5,$6,$7,$8,$9,$2,$3,0*
0 Add four circle primitives for the rounded corners*
1,1,$1+$1,$2,$3*
1,1,$1+$1,$4,$5*
1,1,$1+$1,$6,$7*
1,1,$1+$1,$8,$9*
0 Add four rect primitives between the rounded corners*
20,1,$1+$1,$2,$3,$4,$5,0*
20,1,$1+$1,$4,$5,$6,$7,0*
20,1,$1+$1,$6,$7,$8,$9,0*
20,1,$1+$1,$8,$9,$2,$3,0*%
%AMFreePoly0*
4,1,6,1.000000,0.000000,0.500000,-0.750000,-0.500000,-0.750000,-0.500000,0.750000,0.500000,0.750000,1.000000,0.000000,1.000000,0.000000,$1*%
%AMFreePoly1*
4,1,6,0.500000,-0.750000,-0.650000,-0.750000,-0.150000,0.000000,-0.650000,0.750000,0.500000,0.750000,0.500000,-0.750000,0.500000,-0.750000,$1*%
G04 Aperture macros list end*
%ADD10C,0.100000*%
%ADD11C,0.120000*%
%ADD12C,0.250000*%
%ADD13C,0.200000*%
%ADD14C,0.000000*%
%ADD15RoundRect,0.135000X0.135000X0.185000X-0.135000X0.185000X-0.135000X-0.185000X0.135000X-0.185000X0*%
%ADD16RoundRect,0.140000X-0.140000X-0.170000X0.140000X-0.170000X0.140000X0.170000X-0.140000X0.170000X0*%
%ADD17RoundRect,0.135000X-0.135000X-0.185000X0.135000X-0.185000X0.135000X0.185000X-0.135000X0.185000X0*%
%ADD18RoundRect,0.140000X0.170000X-0.140000X0.170000X0.140000X-0.170000X0.140000X-0.170000X-0.140000X0*%
%ADD19R,1.700000X1.700000*%
%ADD20O,1.700000X1.700000*%
%ADD21C,5.600000*%
%ADD22R,0.750000X0.300000*%
%ADD23R,0.750000X1.450000*%
%ADD24RoundRect,0.135000X-0.185000X0.135000X-0.185000X-0.135000X0.185000X-0.135000X0.185000X0.135000X0*%
%ADD25RoundRect,0.135000X0.185000X-0.135000X0.185000X0.135000X-0.185000X0.135000X-0.185000X-0.135000X0*%
%ADD26R,0.800000X0.450000*%
%ADD27R,1.250000X1.700000*%
%ADD28C,1.000000*%
%ADD29R,0.450000X1.000000*%
%ADD30RoundRect,0.140000X-0.170000X0.140000X-0.170000X-0.140000X0.170000X-0.140000X0.170000X0.140000X0*%
%ADD31R,0.700000X0.600000*%
%ADD32R,0.600000X1.250000*%
%ADD33R,0.600000X0.350000*%
%ADD34R,1.100000X1.700000*%
%ADD35RoundRect,0.140000X0.140000X0.170000X-0.140000X0.170000X-0.140000X-0.170000X0.140000X-0.170000X0*%
%ADD36R,0.300000X0.600000*%
%ADD37R,1.400000X1.200000*%
%ADD38R,0.450000X1.425000*%
%ADD39R,0.600000X0.700000*%
%ADD40FreePoly0,180.000000*%
%ADD41FreePoly1,180.000000*%
G04 APERTURE END LIST*
D10*
X3422667Y-3412895D02*
X3156000Y-3031942D01*
X2965524Y-3412895D02*
X2965524Y-2612895D01*
X2965524Y-2612895D02*
X3270286Y-2612895D01*
X3270286Y-2612895D02*
X3346476Y-2650990D01*
X3346476Y-2650990D02*
X3384571Y-2689085D01*
X3384571Y-2689085D02*
X3422667Y-2765276D01*
X3422667Y-2765276D02*
X3422667Y-2879561D01*
X3422667Y-2879561D02*
X3384571Y-2955752D01*
X3384571Y-2955752D02*
X3346476Y-2993847D01*
X3346476Y-2993847D02*
X3270286Y-3031942D01*
X3270286Y-3031942D02*
X2965524Y-3031942D01*
X4108381Y-2879561D02*
X4108381Y-3412895D01*
X3917905Y-2574800D02*
X3727428Y-3146228D01*
X3727428Y-3146228D02*
X4222667Y-3146228D01*
X-895333Y2759296D02*
X-933429Y2721200D01*
X-933429Y2721200D02*
X-1047714Y2683105D01*
X-1047714Y2683105D02*
X-1123905Y2683105D01*
X-1123905Y2683105D02*
X-1238191Y2721200D01*
X-1238191Y2721200D02*
X-1314381Y2797391D01*
X-1314381Y2797391D02*
X-1352476Y2873581D01*
X-1352476Y2873581D02*
X-1390572Y3025962D01*
X-1390572Y3025962D02*
X-1390572Y3140248D01*
X-1390572Y3140248D02*
X-1352476Y3292629D01*
X-1352476Y3292629D02*
X-1314381Y3368820D01*
X-1314381Y3368820D02*
X-1238191Y3445010D01*
X-1238191Y3445010D02*
X-1123905Y3483105D01*
X-1123905Y3483105D02*
X-1047714Y3483105D01*
X-1047714Y3483105D02*
X-933429Y3445010D01*
X-933429Y3445010D02*
X-895333Y3406915D01*
X-209619Y3216439D02*
X-209619Y2683105D01*
X-400095Y3521200D02*
X-590572Y2949772D01*
X-590572Y2949772D02*
X-95333Y2949772D01*
X6214667Y2429105D02*
X5948000Y2810058D01*
X5757524Y2429105D02*
X5757524Y3229105D01*
X5757524Y3229105D02*
X6062286Y3229105D01*
X6062286Y3229105D02*
X6138476Y3191010D01*
X6138476Y3191010D02*
X6176571Y3152915D01*
X6176571Y3152915D02*
X6214667Y3076724D01*
X6214667Y3076724D02*
X6214667Y2962439D01*
X6214667Y2962439D02*
X6176571Y2886248D01*
X6176571Y2886248D02*
X6138476Y2848153D01*
X6138476Y2848153D02*
X6062286Y2810058D01*
X6062286Y2810058D02*
X5757524Y2810058D01*
X6481333Y3229105D02*
X6976571Y3229105D01*
X6976571Y3229105D02*
X6709905Y2924343D01*
X6709905Y2924343D02*
X6824190Y2924343D01*
X6824190Y2924343D02*
X6900381Y2886248D01*
X6900381Y2886248D02*
X6938476Y2848153D01*
X6938476Y2848153D02*
X6976571Y2771962D01*
X6976571Y2771962D02*
X6976571Y2581486D01*
X6976571Y2581486D02*
X6938476Y2505296D01*
X6938476Y2505296D02*
X6900381Y2467200D01*
X6900381Y2467200D02*
X6824190Y2429105D01*
X6824190Y2429105D02*
X6595619Y2429105D01*
X6595619Y2429105D02*
X6519428Y2467200D01*
X6519428Y2467200D02*
X6481333Y2505296D01*
X247714Y-9940704D02*
X209618Y-9978800D01*
X209618Y-9978800D02*
X95333Y-10016895D01*
X95333Y-10016895D02*
X19142Y-10016895D01*
X19142Y-10016895D02*
X-95144Y-9978800D01*
X-95144Y-9978800D02*
X-171334Y-9902609D01*
X-171334Y-9902609D02*
X-209429Y-9826419D01*
X-209429Y-9826419D02*
X-247525Y-9674038D01*
X-247525Y-9674038D02*
X-247525Y-9559752D01*
X-247525Y-9559752D02*
X-209429Y-9407371D01*
X-209429Y-9407371D02*
X-171334Y-9331180D01*
X-171334Y-9331180D02*
X-95144Y-9254990D01*
X-95144Y-9254990D02*
X19142Y-9216895D01*
X19142Y-9216895D02*
X95333Y-9216895D01*
X95333Y-9216895D02*
X209618Y-9254990D01*
X209618Y-9254990D02*
X247714Y-9293085D01*
X1009618Y-10016895D02*
X552475Y-10016895D01*
X781047Y-10016895D02*
X781047Y-9216895D01*
X781047Y-9216895D02*
X704856Y-9331180D01*
X704856Y-9331180D02*
X628666Y-9407371D01*
X628666Y-9407371D02*
X552475Y-9445466D01*
X1504857Y-9216895D02*
X1581047Y-9216895D01*
X1581047Y-9216895D02*
X1657238Y-9254990D01*
X1657238Y-9254990D02*
X1695333Y-9293085D01*
X1695333Y-9293085D02*
X1733428Y-9369276D01*
X1733428Y-9369276D02*
X1771523Y-9521657D01*
X1771523Y-9521657D02*
X1771523Y-9712133D01*
X1771523Y-9712133D02*
X1733428Y-9864514D01*
X1733428Y-9864514D02*
X1695333Y-9940704D01*
X1695333Y-9940704D02*
X1657238Y-9978800D01*
X1657238Y-9978800D02*
X1581047Y-10016895D01*
X1581047Y-10016895D02*
X1504857Y-10016895D01*
X1504857Y-10016895D02*
X1428666Y-9978800D01*
X1428666Y-9978800D02*
X1390571Y-9940704D01*
X1390571Y-9940704D02*
X1352476Y-9864514D01*
X1352476Y-9864514D02*
X1314380Y-9712133D01*
X1314380Y-9712133D02*
X1314380Y-9521657D01*
X1314380Y-9521657D02*
X1352476Y-9369276D01*
X1352476Y-9369276D02*
X1390571Y-9293085D01*
X1390571Y-9293085D02*
X1428666Y-9254990D01*
X1428666Y-9254990D02*
X1504857Y-9216895D01*
X4340667Y-13508704D02*
X4302571Y-13546800D01*
X4302571Y-13546800D02*
X4188286Y-13584895D01*
X4188286Y-13584895D02*
X4112095Y-13584895D01*
X4112095Y-13584895D02*
X3997809Y-13546800D01*
X3997809Y-13546800D02*
X3921619Y-13470609D01*
X3921619Y-13470609D02*
X3883524Y-13394419D01*
X3883524Y-13394419D02*
X3845428Y-13242038D01*
X3845428Y-13242038D02*
X3845428Y-13127752D01*
X3845428Y-13127752D02*
X3883524Y-12975371D01*
X3883524Y-12975371D02*
X3921619Y-12899180D01*
X3921619Y-12899180D02*
X3997809Y-12822990D01*
X3997809Y-12822990D02*
X4112095Y-12784895D01*
X4112095Y-12784895D02*
X4188286Y-12784895D01*
X4188286Y-12784895D02*
X4302571Y-12822990D01*
X4302571Y-12822990D02*
X4340667Y-12861085D01*
X4797809Y-13127752D02*
X4721619Y-13089657D01*
X4721619Y-13089657D02*
X4683524Y-13051561D01*
X4683524Y-13051561D02*
X4645428Y-12975371D01*
X4645428Y-12975371D02*
X4645428Y-12937276D01*
X4645428Y-12937276D02*
X4683524Y-12861085D01*
X4683524Y-12861085D02*
X4721619Y-12822990D01*
X4721619Y-12822990D02*
X4797809Y-12784895D01*
X4797809Y-12784895D02*
X4950190Y-12784895D01*
X4950190Y-12784895D02*
X5026381Y-12822990D01*
X5026381Y-12822990D02*
X5064476Y-12861085D01*
X5064476Y-12861085D02*
X5102571Y-12937276D01*
X5102571Y-12937276D02*
X5102571Y-12975371D01*
X5102571Y-12975371D02*
X5064476Y-13051561D01*
X5064476Y-13051561D02*
X5026381Y-13089657D01*
X5026381Y-13089657D02*
X4950190Y-13127752D01*
X4950190Y-13127752D02*
X4797809Y-13127752D01*
X4797809Y-13127752D02*
X4721619Y-13165847D01*
X4721619Y-13165847D02*
X4683524Y-13203942D01*
X4683524Y-13203942D02*
X4645428Y-13280133D01*
X4645428Y-13280133D02*
X4645428Y-13432514D01*
X4645428Y-13432514D02*
X4683524Y-13508704D01*
X4683524Y-13508704D02*
X4721619Y-13546800D01*
X4721619Y-13546800D02*
X4797809Y-13584895D01*
X4797809Y-13584895D02*
X4950190Y-13584895D01*
X4950190Y-13584895D02*
X5026381Y-13546800D01*
X5026381Y-13546800D02*
X5064476Y-13508704D01*
X5064476Y-13508704D02*
X5102571Y-13432514D01*
X5102571Y-13432514D02*
X5102571Y-13280133D01*
X5102571Y-13280133D02*
X5064476Y-13203942D01*
X5064476Y-13203942D02*
X5026381Y-13165847D01*
X5026381Y-13165847D02*
X4950190Y-13127752D01*
X8375714Y-16520895D02*
X8109047Y-16139942D01*
X7918571Y-16520895D02*
X7918571Y-15720895D01*
X7918571Y-15720895D02*
X8223333Y-15720895D01*
X8223333Y-15720895D02*
X8299523Y-15758990D01*
X8299523Y-15758990D02*
X8337618Y-15797085D01*
X8337618Y-15797085D02*
X8375714Y-15873276D01*
X8375714Y-15873276D02*
X8375714Y-15987561D01*
X8375714Y-15987561D02*
X8337618Y-16063752D01*
X8337618Y-16063752D02*
X8299523Y-16101847D01*
X8299523Y-16101847D02*
X8223333Y-16139942D01*
X8223333Y-16139942D02*
X7918571Y-16139942D01*
X9137618Y-16520895D02*
X8680475Y-16520895D01*
X8909047Y-16520895D02*
X8909047Y-15720895D01*
X8909047Y-15720895D02*
X8832856Y-15835180D01*
X8832856Y-15835180D02*
X8756666Y-15911371D01*
X8756666Y-15911371D02*
X8680475Y-15949466D01*
X9442380Y-15797085D02*
X9480476Y-15758990D01*
X9480476Y-15758990D02*
X9556666Y-15720895D01*
X9556666Y-15720895D02*
X9747142Y-15720895D01*
X9747142Y-15720895D02*
X9823333Y-15758990D01*
X9823333Y-15758990D02*
X9861428Y-15797085D01*
X9861428Y-15797085D02*
X9899523Y-15873276D01*
X9899523Y-15873276D02*
X9899523Y-15949466D01*
X9899523Y-15949466D02*
X9861428Y-16063752D01*
X9861428Y-16063752D02*
X9404285Y-16520895D01*
X9404285Y-16520895D02*
X9899523Y-16520895D01*
X4553048Y16399105D02*
X4553048Y17199105D01*
X5391143Y16475296D02*
X5353047Y16437200D01*
X5353047Y16437200D02*
X5238762Y16399105D01*
X5238762Y16399105D02*
X5162571Y16399105D01*
X5162571Y16399105D02*
X5048285Y16437200D01*
X5048285Y16437200D02*
X4972095Y16513391D01*
X4972095Y16513391D02*
X4934000Y16589581D01*
X4934000Y16589581D02*
X4895904Y16741962D01*
X4895904Y16741962D02*
X4895904Y16856248D01*
X4895904Y16856248D02*
X4934000Y17008629D01*
X4934000Y17008629D02*
X4972095Y17084820D01*
X4972095Y17084820D02*
X5048285Y17161010D01*
X5048285Y17161010D02*
X5162571Y17199105D01*
X5162571Y17199105D02*
X5238762Y17199105D01*
X5238762Y17199105D02*
X5353047Y17161010D01*
X5353047Y17161010D02*
X5391143Y17122915D01*
X6076857Y16932439D02*
X6076857Y16399105D01*
X5886381Y17237200D02*
X5695904Y16665772D01*
X5695904Y16665772D02*
X6191143Y16665772D01*
X3168667Y1921105D02*
X2902000Y2302058D01*
X2711524Y1921105D02*
X2711524Y2721105D01*
X2711524Y2721105D02*
X3016286Y2721105D01*
X3016286Y2721105D02*
X3092476Y2683010D01*
X3092476Y2683010D02*
X3130571Y2644915D01*
X3130571Y2644915D02*
X3168667Y2568724D01*
X3168667Y2568724D02*
X3168667Y2454439D01*
X3168667Y2454439D02*
X3130571Y2378248D01*
X3130571Y2378248D02*
X3092476Y2340153D01*
X3092476Y2340153D02*
X3016286Y2302058D01*
X3016286Y2302058D02*
X2711524Y2302058D01*
X3930571Y1921105D02*
X3473428Y1921105D01*
X3702000Y1921105D02*
X3702000Y2721105D01*
X3702000Y2721105D02*
X3625809Y2606820D01*
X3625809Y2606820D02*
X3549619Y2530629D01*
X3549619Y2530629D02*
X3473428Y2492534D01*
X9154895Y15108668D02*
X8773942Y14842001D01*
X9154895Y14651525D02*
X8354895Y14651525D01*
X8354895Y14651525D02*
X8354895Y14956287D01*
X8354895Y14956287D02*
X8392990Y15032477D01*
X8392990Y15032477D02*
X8431085Y15070572D01*
X8431085Y15070572D02*
X8507276Y15108668D01*
X8507276Y15108668D02*
X8621561Y15108668D01*
X8621561Y15108668D02*
X8697752Y15070572D01*
X8697752Y15070572D02*
X8735847Y15032477D01*
X8735847Y15032477D02*
X8773942Y14956287D01*
X8773942Y14956287D02*
X8773942Y14651525D01*
X8354895Y15375334D02*
X8354895Y15908668D01*
X8354895Y15908668D02*
X9154895Y15565810D01*
X11550667Y4207105D02*
X11284000Y4588058D01*
X11093524Y4207105D02*
X11093524Y5007105D01*
X11093524Y5007105D02*
X11398286Y5007105D01*
X11398286Y5007105D02*
X11474476Y4969010D01*
X11474476Y4969010D02*
X11512571Y4930915D01*
X11512571Y4930915D02*
X11550667Y4854724D01*
X11550667Y4854724D02*
X11550667Y4740439D01*
X11550667Y4740439D02*
X11512571Y4664248D01*
X11512571Y4664248D02*
X11474476Y4626153D01*
X11474476Y4626153D02*
X11398286Y4588058D01*
X11398286Y4588058D02*
X11093524Y4588058D01*
X12236381Y5007105D02*
X12084000Y5007105D01*
X12084000Y5007105D02*
X12007809Y4969010D01*
X12007809Y4969010D02*
X11969714Y4930915D01*
X11969714Y4930915D02*
X11893524Y4816629D01*
X11893524Y4816629D02*
X11855428Y4664248D01*
X11855428Y4664248D02*
X11855428Y4359486D01*
X11855428Y4359486D02*
X11893524Y4283296D01*
X11893524Y4283296D02*
X11931619Y4245200D01*
X11931619Y4245200D02*
X12007809Y4207105D01*
X12007809Y4207105D02*
X12160190Y4207105D01*
X12160190Y4207105D02*
X12236381Y4245200D01*
X12236381Y4245200D02*
X12274476Y4283296D01*
X12274476Y4283296D02*
X12312571Y4359486D01*
X12312571Y4359486D02*
X12312571Y4549962D01*
X12312571Y4549962D02*
X12274476Y4626153D01*
X12274476Y4626153D02*
X12236381Y4664248D01*
X12236381Y4664248D02*
X12160190Y4702343D01*
X12160190Y4702343D02*
X12007809Y4702343D01*
X12007809Y4702343D02*
X11931619Y4664248D01*
X11931619Y4664248D02*
X11893524Y4626153D01*
X11893524Y4626153D02*
X11855428Y4549962D01*
X11550667Y-1126895D02*
X11284000Y-745942D01*
X11093524Y-1126895D02*
X11093524Y-326895D01*
X11093524Y-326895D02*
X11398286Y-326895D01*
X11398286Y-326895D02*
X11474476Y-364990D01*
X11474476Y-364990D02*
X11512571Y-403085D01*
X11512571Y-403085D02*
X11550667Y-479276D01*
X11550667Y-479276D02*
X11550667Y-593561D01*
X11550667Y-593561D02*
X11512571Y-669752D01*
X11512571Y-669752D02*
X11474476Y-707847D01*
X11474476Y-707847D02*
X11398286Y-745942D01*
X11398286Y-745942D02*
X11093524Y-745942D01*
X12274476Y-326895D02*
X11893524Y-326895D01*
X11893524Y-326895D02*
X11855428Y-707847D01*
X11855428Y-707847D02*
X11893524Y-669752D01*
X11893524Y-669752D02*
X11969714Y-631657D01*
X11969714Y-631657D02*
X12160190Y-631657D01*
X12160190Y-631657D02*
X12236381Y-669752D01*
X12236381Y-669752D02*
X12274476Y-707847D01*
X12274476Y-707847D02*
X12312571Y-784038D01*
X12312571Y-784038D02*
X12312571Y-974514D01*
X12312571Y-974514D02*
X12274476Y-1050704D01*
X12274476Y-1050704D02*
X12236381Y-1088800D01*
X12236381Y-1088800D02*
X12160190Y-1126895D01*
X12160190Y-1126895D02*
X11969714Y-1126895D01*
X11969714Y-1126895D02*
X11893524Y-1088800D01*
X11893524Y-1088800D02*
X11855428Y-1050704D01*
X9010667Y-2396895D02*
X8744000Y-2015942D01*
X8553524Y-2396895D02*
X8553524Y-1596895D01*
X8553524Y-1596895D02*
X8858286Y-1596895D01*
X8858286Y-1596895D02*
X8934476Y-1634990D01*
X8934476Y-1634990D02*
X8972571Y-1673085D01*
X8972571Y-1673085D02*
X9010667Y-1749276D01*
X9010667Y-1749276D02*
X9010667Y-1863561D01*
X9010667Y-1863561D02*
X8972571Y-1939752D01*
X8972571Y-1939752D02*
X8934476Y-1977847D01*
X8934476Y-1977847D02*
X8858286Y-2015942D01*
X8858286Y-2015942D02*
X8553524Y-2015942D01*
X9315428Y-1673085D02*
X9353524Y-1634990D01*
X9353524Y-1634990D02*
X9429714Y-1596895D01*
X9429714Y-1596895D02*
X9620190Y-1596895D01*
X9620190Y-1596895D02*
X9696381Y-1634990D01*
X9696381Y-1634990D02*
X9734476Y-1673085D01*
X9734476Y-1673085D02*
X9772571Y-1749276D01*
X9772571Y-1749276D02*
X9772571Y-1825466D01*
X9772571Y-1825466D02*
X9734476Y-1939752D01*
X9734476Y-1939752D02*
X9277333Y-2396895D01*
X9277333Y-2396895D02*
X9772571Y-2396895D01*
X-526952Y-2396895D02*
X-526952Y-1596895D01*
X311143Y-2320704D02*
X273047Y-2358800D01*
X273047Y-2358800D02*
X158762Y-2396895D01*
X158762Y-2396895D02*
X82571Y-2396895D01*
X82571Y-2396895D02*
X-31715Y-2358800D01*
X-31715Y-2358800D02*
X-107905Y-2282609D01*
X-107905Y-2282609D02*
X-146000Y-2206419D01*
X-146000Y-2206419D02*
X-184096Y-2054038D01*
X-184096Y-2054038D02*
X-184096Y-1939752D01*
X-184096Y-1939752D02*
X-146000Y-1787371D01*
X-146000Y-1787371D02*
X-107905Y-1711180D01*
X-107905Y-1711180D02*
X-31715Y-1634990D01*
X-31715Y-1634990D02*
X82571Y-1596895D01*
X82571Y-1596895D02*
X158762Y-1596895D01*
X158762Y-1596895D02*
X273047Y-1634990D01*
X273047Y-1634990D02*
X311143Y-1673085D01*
X615904Y-1673085D02*
X654000Y-1634990D01*
X654000Y-1634990D02*
X730190Y-1596895D01*
X730190Y-1596895D02*
X920666Y-1596895D01*
X920666Y-1596895D02*
X996857Y-1634990D01*
X996857Y-1634990D02*
X1034952Y-1673085D01*
X1034952Y-1673085D02*
X1073047Y-1749276D01*
X1073047Y-1749276D02*
X1073047Y-1825466D01*
X1073047Y-1825466D02*
X1034952Y-1939752D01*
X1034952Y-1939752D02*
X577809Y-2396895D01*
X577809Y-2396895D02*
X1073047Y-2396895D01*
X9899714Y-8746895D02*
X9633047Y-8365942D01*
X9442571Y-8746895D02*
X9442571Y-7946895D01*
X9442571Y-7946895D02*
X9747333Y-7946895D01*
X9747333Y-7946895D02*
X9823523Y-7984990D01*
X9823523Y-7984990D02*
X9861618Y-8023085D01*
X9861618Y-8023085D02*
X9899714Y-8099276D01*
X9899714Y-8099276D02*
X9899714Y-8213561D01*
X9899714Y-8213561D02*
X9861618Y-8289752D01*
X9861618Y-8289752D02*
X9823523Y-8327847D01*
X9823523Y-8327847D02*
X9747333Y-8365942D01*
X9747333Y-8365942D02*
X9442571Y-8365942D01*
X10661618Y-8746895D02*
X10204475Y-8746895D01*
X10433047Y-8746895D02*
X10433047Y-7946895D01*
X10433047Y-7946895D02*
X10356856Y-8061180D01*
X10356856Y-8061180D02*
X10280666Y-8137371D01*
X10280666Y-8137371D02*
X10204475Y-8175466D01*
X11156857Y-7946895D02*
X11233047Y-7946895D01*
X11233047Y-7946895D02*
X11309238Y-7984990D01*
X11309238Y-7984990D02*
X11347333Y-8023085D01*
X11347333Y-8023085D02*
X11385428Y-8099276D01*
X11385428Y-8099276D02*
X11423523Y-8251657D01*
X11423523Y-8251657D02*
X11423523Y-8442133D01*
X11423523Y-8442133D02*
X11385428Y-8594514D01*
X11385428Y-8594514D02*
X11347333Y-8670704D01*
X11347333Y-8670704D02*
X11309238Y-8708800D01*
X11309238Y-8708800D02*
X11233047Y-8746895D01*
X11233047Y-8746895D02*
X11156857Y-8746895D01*
X11156857Y-8746895D02*
X11080666Y-8708800D01*
X11080666Y-8708800D02*
X11042571Y-8670704D01*
X11042571Y-8670704D02*
X11004476Y-8594514D01*
X11004476Y-8594514D02*
X10966380Y-8442133D01*
X10966380Y-8442133D02*
X10966380Y-8251657D01*
X10966380Y-8251657D02*
X11004476Y-8099276D01*
X11004476Y-8099276D02*
X11042571Y-8023085D01*
X11042571Y-8023085D02*
X11080666Y-7984990D01*
X11080666Y-7984990D02*
X11156857Y-7946895D01*
X4410667Y9507296D02*
X4372571Y9469200D01*
X4372571Y9469200D02*
X4258286Y9431105D01*
X4258286Y9431105D02*
X4182095Y9431105D01*
X4182095Y9431105D02*
X4067809Y9469200D01*
X4067809Y9469200D02*
X3991619Y9545391D01*
X3991619Y9545391D02*
X3953524Y9621581D01*
X3953524Y9621581D02*
X3915428Y9773962D01*
X3915428Y9773962D02*
X3915428Y9888248D01*
X3915428Y9888248D02*
X3953524Y10040629D01*
X3953524Y10040629D02*
X3991619Y10116820D01*
X3991619Y10116820D02*
X4067809Y10193010D01*
X4067809Y10193010D02*
X4182095Y10231105D01*
X4182095Y10231105D02*
X4258286Y10231105D01*
X4258286Y10231105D02*
X4372571Y10193010D01*
X4372571Y10193010D02*
X4410667Y10154915D01*
X4715428Y10154915D02*
X4753524Y10193010D01*
X4753524Y10193010D02*
X4829714Y10231105D01*
X4829714Y10231105D02*
X5020190Y10231105D01*
X5020190Y10231105D02*
X5096381Y10193010D01*
X5096381Y10193010D02*
X5134476Y10154915D01*
X5134476Y10154915D02*
X5172571Y10078724D01*
X5172571Y10078724D02*
X5172571Y10002534D01*
X5172571Y10002534D02*
X5134476Y9888248D01*
X5134476Y9888248D02*
X4677333Y9431105D01*
X4677333Y9431105D02*
X5172571Y9431105D01*
X7105714Y-9178704D02*
X7067618Y-9216800D01*
X7067618Y-9216800D02*
X6953333Y-9254895D01*
X6953333Y-9254895D02*
X6877142Y-9254895D01*
X6877142Y-9254895D02*
X6762856Y-9216800D01*
X6762856Y-9216800D02*
X6686666Y-9140609D01*
X6686666Y-9140609D02*
X6648571Y-9064419D01*
X6648571Y-9064419D02*
X6610475Y-8912038D01*
X6610475Y-8912038D02*
X6610475Y-8797752D01*
X6610475Y-8797752D02*
X6648571Y-8645371D01*
X6648571Y-8645371D02*
X6686666Y-8569180D01*
X6686666Y-8569180D02*
X6762856Y-8492990D01*
X6762856Y-8492990D02*
X6877142Y-8454895D01*
X6877142Y-8454895D02*
X6953333Y-8454895D01*
X6953333Y-8454895D02*
X7067618Y-8492990D01*
X7067618Y-8492990D02*
X7105714Y-8531085D01*
X7867618Y-9254895D02*
X7410475Y-9254895D01*
X7639047Y-9254895D02*
X7639047Y-8454895D01*
X7639047Y-8454895D02*
X7562856Y-8569180D01*
X7562856Y-8569180D02*
X7486666Y-8645371D01*
X7486666Y-8645371D02*
X7410475Y-8683466D01*
X8172380Y-8531085D02*
X8210476Y-8492990D01*
X8210476Y-8492990D02*
X8286666Y-8454895D01*
X8286666Y-8454895D02*
X8477142Y-8454895D01*
X8477142Y-8454895D02*
X8553333Y-8492990D01*
X8553333Y-8492990D02*
X8591428Y-8531085D01*
X8591428Y-8531085D02*
X8629523Y-8607276D01*
X8629523Y-8607276D02*
X8629523Y-8683466D01*
X8629523Y-8683466D02*
X8591428Y-8797752D01*
X8591428Y-8797752D02*
X8134285Y-9254895D01*
X8134285Y-9254895D02*
X8629523Y-9254895D01*
X2521048Y-2142895D02*
X2521048Y-1342895D01*
X3359143Y-2066704D02*
X3321047Y-2104800D01*
X3321047Y-2104800D02*
X3206762Y-2142895D01*
X3206762Y-2142895D02*
X3130571Y-2142895D01*
X3130571Y-2142895D02*
X3016285Y-2104800D01*
X3016285Y-2104800D02*
X2940095Y-2028609D01*
X2940095Y-2028609D02*
X2902000Y-1952419D01*
X2902000Y-1952419D02*
X2863904Y-1800038D01*
X2863904Y-1800038D02*
X2863904Y-1685752D01*
X2863904Y-1685752D02*
X2902000Y-1533371D01*
X2902000Y-1533371D02*
X2940095Y-1457180D01*
X2940095Y-1457180D02*
X3016285Y-1380990D01*
X3016285Y-1380990D02*
X3130571Y-1342895D01*
X3130571Y-1342895D02*
X3206762Y-1342895D01*
X3206762Y-1342895D02*
X3321047Y-1380990D01*
X3321047Y-1380990D02*
X3359143Y-1419085D01*
X3625809Y-1342895D02*
X4159143Y-1342895D01*
X4159143Y-1342895D02*
X3816285Y-2142895D01*
X5835714Y-12556895D02*
X5569047Y-12175942D01*
X5378571Y-12556895D02*
X5378571Y-11756895D01*
X5378571Y-11756895D02*
X5683333Y-11756895D01*
X5683333Y-11756895D02*
X5759523Y-11794990D01*
X5759523Y-11794990D02*
X5797618Y-11833085D01*
X5797618Y-11833085D02*
X5835714Y-11909276D01*
X5835714Y-11909276D02*
X5835714Y-12023561D01*
X5835714Y-12023561D02*
X5797618Y-12099752D01*
X5797618Y-12099752D02*
X5759523Y-12137847D01*
X5759523Y-12137847D02*
X5683333Y-12175942D01*
X5683333Y-12175942D02*
X5378571Y-12175942D01*
X6597618Y-12556895D02*
X6140475Y-12556895D01*
X6369047Y-12556895D02*
X6369047Y-11756895D01*
X6369047Y-11756895D02*
X6292856Y-11871180D01*
X6292856Y-11871180D02*
X6216666Y-11947371D01*
X6216666Y-11947371D02*
X6140475Y-11985466D01*
X7359523Y-12556895D02*
X6902380Y-12556895D01*
X7130952Y-12556895D02*
X7130952Y-11756895D01*
X7130952Y-11756895D02*
X7054761Y-11871180D01*
X7054761Y-11871180D02*
X6978571Y-11947371D01*
X6978571Y-11947371D02*
X6902380Y-11985466D01*
X1390667Y13681296D02*
X1352571Y13643200D01*
X1352571Y13643200D02*
X1238286Y13605105D01*
X1238286Y13605105D02*
X1162095Y13605105D01*
X1162095Y13605105D02*
X1047809Y13643200D01*
X1047809Y13643200D02*
X971619Y13719391D01*
X971619Y13719391D02*
X933524Y13795581D01*
X933524Y13795581D02*
X895428Y13947962D01*
X895428Y13947962D02*
X895428Y14062248D01*
X895428Y14062248D02*
X933524Y14214629D01*
X933524Y14214629D02*
X971619Y14290820D01*
X971619Y14290820D02*
X1047809Y14367010D01*
X1047809Y14367010D02*
X1162095Y14405105D01*
X1162095Y14405105D02*
X1238286Y14405105D01*
X1238286Y14405105D02*
X1352571Y14367010D01*
X1352571Y14367010D02*
X1390667Y14328915D01*
X1657333Y14405105D02*
X2190667Y14405105D01*
X2190667Y14405105D02*
X1847809Y13605105D01*
X1364761Y-18144895D02*
X983809Y-18144895D01*
X983809Y-18144895D02*
X983809Y-17344895D01*
X1631428Y-17725847D02*
X1898094Y-17725847D01*
X2012380Y-18144895D02*
X1631428Y-18144895D01*
X1631428Y-18144895D02*
X1631428Y-17344895D01*
X1631428Y-17344895D02*
X2012380Y-17344895D01*
X2355238Y-18144895D02*
X2355238Y-17344895D01*
X2355238Y-17344895D02*
X2545714Y-17344895D01*
X2545714Y-17344895D02*
X2660000Y-17382990D01*
X2660000Y-17382990D02*
X2736190Y-17459180D01*
X2736190Y-17459180D02*
X2774285Y-17535371D01*
X2774285Y-17535371D02*
X2812381Y-17687752D01*
X2812381Y-17687752D02*
X2812381Y-17802038D01*
X2812381Y-17802038D02*
X2774285Y-17954419D01*
X2774285Y-17954419D02*
X2736190Y-18030609D01*
X2736190Y-18030609D02*
X2660000Y-18106800D01*
X2660000Y-18106800D02*
X2545714Y-18144895D01*
X2545714Y-18144895D02*
X2355238Y-18144895D01*
X3117142Y-17421085D02*
X3155238Y-17382990D01*
X3155238Y-17382990D02*
X3231428Y-17344895D01*
X3231428Y-17344895D02*
X3421904Y-17344895D01*
X3421904Y-17344895D02*
X3498095Y-17382990D01*
X3498095Y-17382990D02*
X3536190Y-17421085D01*
X3536190Y-17421085D02*
X3574285Y-17497276D01*
X3574285Y-17497276D02*
X3574285Y-17573466D01*
X3574285Y-17573466D02*
X3536190Y-17687752D01*
X3536190Y-17687752D02*
X3079047Y-18144895D01*
X3079047Y-18144895D02*
X3574285Y-18144895D01*
X-2622239Y-18144895D02*
X-3003191Y-18144895D01*
X-3003191Y-18144895D02*
X-3003191Y-17344895D01*
X-2355572Y-17725847D02*
X-2088906Y-17725847D01*
X-1974620Y-18144895D02*
X-2355572Y-18144895D01*
X-2355572Y-18144895D02*
X-2355572Y-17344895D01*
X-2355572Y-17344895D02*
X-1974620Y-17344895D01*
X-1631762Y-18144895D02*
X-1631762Y-17344895D01*
X-1631762Y-17344895D02*
X-1441286Y-17344895D01*
X-1441286Y-17344895D02*
X-1327000Y-17382990D01*
X-1327000Y-17382990D02*
X-1250810Y-17459180D01*
X-1250810Y-17459180D02*
X-1212715Y-17535371D01*
X-1212715Y-17535371D02*
X-1174619Y-17687752D01*
X-1174619Y-17687752D02*
X-1174619Y-17802038D01*
X-1174619Y-17802038D02*
X-1212715Y-17954419D01*
X-1212715Y-17954419D02*
X-1250810Y-18030609D01*
X-1250810Y-18030609D02*
X-1327000Y-18106800D01*
X-1327000Y-18106800D02*
X-1441286Y-18144895D01*
X-1441286Y-18144895D02*
X-1631762Y-18144895D01*
X-907953Y-17344895D02*
X-412715Y-17344895D01*
X-412715Y-17344895D02*
X-679381Y-17649657D01*
X-679381Y-17649657D02*
X-565096Y-17649657D01*
X-565096Y-17649657D02*
X-488905Y-17687752D01*
X-488905Y-17687752D02*
X-450810Y-17725847D01*
X-450810Y-17725847D02*
X-412715Y-17802038D01*
X-412715Y-17802038D02*
X-412715Y-17992514D01*
X-412715Y-17992514D02*
X-450810Y-18068704D01*
X-450810Y-18068704D02*
X-488905Y-18106800D01*
X-488905Y-18106800D02*
X-565096Y-18144895D01*
X-565096Y-18144895D02*
X-793667Y-18144895D01*
X-793667Y-18144895D02*
X-869858Y-18106800D01*
X-869858Y-18106800D02*
X-907953Y-18068704D01*
X374667Y-13496704D02*
X336571Y-13534800D01*
X336571Y-13534800D02*
X222286Y-13572895D01*
X222286Y-13572895D02*
X146095Y-13572895D01*
X146095Y-13572895D02*
X31809Y-13534800D01*
X31809Y-13534800D02*
X-44381Y-13458609D01*
X-44381Y-13458609D02*
X-82476Y-13382419D01*
X-82476Y-13382419D02*
X-120572Y-13230038D01*
X-120572Y-13230038D02*
X-120572Y-13115752D01*
X-120572Y-13115752D02*
X-82476Y-12963371D01*
X-82476Y-12963371D02*
X-44381Y-12887180D01*
X-44381Y-12887180D02*
X31809Y-12810990D01*
X31809Y-12810990D02*
X146095Y-12772895D01*
X146095Y-12772895D02*
X222286Y-12772895D01*
X222286Y-12772895D02*
X336571Y-12810990D01*
X336571Y-12810990D02*
X374667Y-12849085D01*
X1060381Y-12772895D02*
X908000Y-12772895D01*
X908000Y-12772895D02*
X831809Y-12810990D01*
X831809Y-12810990D02*
X793714Y-12849085D01*
X793714Y-12849085D02*
X717524Y-12963371D01*
X717524Y-12963371D02*
X679428Y-13115752D01*
X679428Y-13115752D02*
X679428Y-13420514D01*
X679428Y-13420514D02*
X717524Y-13496704D01*
X717524Y-13496704D02*
X755619Y-13534800D01*
X755619Y-13534800D02*
X831809Y-13572895D01*
X831809Y-13572895D02*
X984190Y-13572895D01*
X984190Y-13572895D02*
X1060381Y-13534800D01*
X1060381Y-13534800D02*
X1098476Y-13496704D01*
X1098476Y-13496704D02*
X1136571Y-13420514D01*
X1136571Y-13420514D02*
X1136571Y-13230038D01*
X1136571Y-13230038D02*
X1098476Y-13153847D01*
X1098476Y-13153847D02*
X1060381Y-13115752D01*
X1060381Y-13115752D02*
X984190Y-13077657D01*
X984190Y-13077657D02*
X831809Y-13077657D01*
X831809Y-13077657D02*
X755619Y-13115752D01*
X755619Y-13115752D02*
X717524Y-13153847D01*
X717524Y-13153847D02*
X679428Y-13230038D01*
X1505048Y6747105D02*
X1505048Y7547105D01*
X2343143Y6823296D02*
X2305047Y6785200D01*
X2305047Y6785200D02*
X2190762Y6747105D01*
X2190762Y6747105D02*
X2114571Y6747105D01*
X2114571Y6747105D02*
X2000285Y6785200D01*
X2000285Y6785200D02*
X1924095Y6861391D01*
X1924095Y6861391D02*
X1886000Y6937581D01*
X1886000Y6937581D02*
X1847904Y7089962D01*
X1847904Y7089962D02*
X1847904Y7204248D01*
X1847904Y7204248D02*
X1886000Y7356629D01*
X1886000Y7356629D02*
X1924095Y7432820D01*
X1924095Y7432820D02*
X2000285Y7509010D01*
X2000285Y7509010D02*
X2114571Y7547105D01*
X2114571Y7547105D02*
X2190762Y7547105D01*
X2190762Y7547105D02*
X2305047Y7509010D01*
X2305047Y7509010D02*
X2343143Y7470915D01*
X3066952Y7547105D02*
X2686000Y7547105D01*
X2686000Y7547105D02*
X2647904Y7166153D01*
X2647904Y7166153D02*
X2686000Y7204248D01*
X2686000Y7204248D02*
X2762190Y7242343D01*
X2762190Y7242343D02*
X2952666Y7242343D01*
X2952666Y7242343D02*
X3028857Y7204248D01*
X3028857Y7204248D02*
X3066952Y7166153D01*
X3066952Y7166153D02*
X3105047Y7089962D01*
X3105047Y7089962D02*
X3105047Y6899486D01*
X3105047Y6899486D02*
X3066952Y6823296D01*
X3066952Y6823296D02*
X3028857Y6785200D01*
X3028857Y6785200D02*
X2952666Y6747105D01*
X2952666Y6747105D02*
X2762190Y6747105D01*
X2762190Y6747105D02*
X2686000Y6785200D01*
X2686000Y6785200D02*
X2647904Y6823296D01*
X-5975333Y12589105D02*
X-6242000Y12970058D01*
X-6432476Y12589105D02*
X-6432476Y13389105D01*
X-6432476Y13389105D02*
X-6127714Y13389105D01*
X-6127714Y13389105D02*
X-6051524Y13351010D01*
X-6051524Y13351010D02*
X-6013429Y13312915D01*
X-6013429Y13312915D02*
X-5975333Y13236724D01*
X-5975333Y13236724D02*
X-5975333Y13122439D01*
X-5975333Y13122439D02*
X-6013429Y13046248D01*
X-6013429Y13046248D02*
X-6051524Y13008153D01*
X-6051524Y13008153D02*
X-6127714Y12970058D01*
X-6127714Y12970058D02*
X-6432476Y12970058D01*
X-5518191Y13046248D02*
X-5594381Y13084343D01*
X-5594381Y13084343D02*
X-5632476Y13122439D01*
X-5632476Y13122439D02*
X-5670572Y13198629D01*
X-5670572Y13198629D02*
X-5670572Y13236724D01*
X-5670572Y13236724D02*
X-5632476Y13312915D01*
X-5632476Y13312915D02*
X-5594381Y13351010D01*
X-5594381Y13351010D02*
X-5518191Y13389105D01*
X-5518191Y13389105D02*
X-5365810Y13389105D01*
X-5365810Y13389105D02*
X-5289619Y13351010D01*
X-5289619Y13351010D02*
X-5251524Y13312915D01*
X-5251524Y13312915D02*
X-5213429Y13236724D01*
X-5213429Y13236724D02*
X-5213429Y13198629D01*
X-5213429Y13198629D02*
X-5251524Y13122439D01*
X-5251524Y13122439D02*
X-5289619Y13084343D01*
X-5289619Y13084343D02*
X-5365810Y13046248D01*
X-5365810Y13046248D02*
X-5518191Y13046248D01*
X-5518191Y13046248D02*
X-5594381Y13008153D01*
X-5594381Y13008153D02*
X-5632476Y12970058D01*
X-5632476Y12970058D02*
X-5670572Y12893867D01*
X-5670572Y12893867D02*
X-5670572Y12741486D01*
X-5670572Y12741486D02*
X-5632476Y12665296D01*
X-5632476Y12665296D02*
X-5594381Y12627200D01*
X-5594381Y12627200D02*
X-5518191Y12589105D01*
X-5518191Y12589105D02*
X-5365810Y12589105D01*
X-5365810Y12589105D02*
X-5289619Y12627200D01*
X-5289619Y12627200D02*
X-5251524Y12665296D01*
X-5251524Y12665296D02*
X-5213429Y12741486D01*
X-5213429Y12741486D02*
X-5213429Y12893867D01*
X-5213429Y12893867D02*
X-5251524Y12970058D01*
X-5251524Y12970058D02*
X-5289619Y13008153D01*
X-5289619Y13008153D02*
X-5365810Y13046248D01*
X5396761Y-18144895D02*
X5015809Y-18144895D01*
X5015809Y-18144895D02*
X5015809Y-17344895D01*
X5663428Y-17725847D02*
X5930094Y-17725847D01*
X6044380Y-18144895D02*
X5663428Y-18144895D01*
X5663428Y-18144895D02*
X5663428Y-17344895D01*
X5663428Y-17344895D02*
X6044380Y-17344895D01*
X6387238Y-18144895D02*
X6387238Y-17344895D01*
X6387238Y-17344895D02*
X6577714Y-17344895D01*
X6577714Y-17344895D02*
X6692000Y-17382990D01*
X6692000Y-17382990D02*
X6768190Y-17459180D01*
X6768190Y-17459180D02*
X6806285Y-17535371D01*
X6806285Y-17535371D02*
X6844381Y-17687752D01*
X6844381Y-17687752D02*
X6844381Y-17802038D01*
X6844381Y-17802038D02*
X6806285Y-17954419D01*
X6806285Y-17954419D02*
X6768190Y-18030609D01*
X6768190Y-18030609D02*
X6692000Y-18106800D01*
X6692000Y-18106800D02*
X6577714Y-18144895D01*
X6577714Y-18144895D02*
X6387238Y-18144895D01*
X7606285Y-18144895D02*
X7149142Y-18144895D01*
X7377714Y-18144895D02*
X7377714Y-17344895D01*
X7377714Y-17344895D02*
X7301523Y-17459180D01*
X7301523Y-17459180D02*
X7225333Y-17535371D01*
X7225333Y-17535371D02*
X7149142Y-17573466D01*
X8756667Y5553296D02*
X8718571Y5515200D01*
X8718571Y5515200D02*
X8604286Y5477105D01*
X8604286Y5477105D02*
X8528095Y5477105D01*
X8528095Y5477105D02*
X8413809Y5515200D01*
X8413809Y5515200D02*
X8337619Y5591391D01*
X8337619Y5591391D02*
X8299524Y5667581D01*
X8299524Y5667581D02*
X8261428Y5819962D01*
X8261428Y5819962D02*
X8261428Y5934248D01*
X8261428Y5934248D02*
X8299524Y6086629D01*
X8299524Y6086629D02*
X8337619Y6162820D01*
X8337619Y6162820D02*
X8413809Y6239010D01*
X8413809Y6239010D02*
X8528095Y6277105D01*
X8528095Y6277105D02*
X8604286Y6277105D01*
X8604286Y6277105D02*
X8718571Y6239010D01*
X8718571Y6239010D02*
X8756667Y6200915D01*
X9023333Y6277105D02*
X9518571Y6277105D01*
X9518571Y6277105D02*
X9251905Y5972343D01*
X9251905Y5972343D02*
X9366190Y5972343D01*
X9366190Y5972343D02*
X9442381Y5934248D01*
X9442381Y5934248D02*
X9480476Y5896153D01*
X9480476Y5896153D02*
X9518571Y5819962D01*
X9518571Y5819962D02*
X9518571Y5629486D01*
X9518571Y5629486D02*
X9480476Y5553296D01*
X9480476Y5553296D02*
X9442381Y5515200D01*
X9442381Y5515200D02*
X9366190Y5477105D01*
X9366190Y5477105D02*
X9137619Y5477105D01*
X9137619Y5477105D02*
X9061428Y5515200D01*
X9061428Y5515200D02*
X9023333Y5553296D01*
X5200667Y-7222895D02*
X4934000Y-6841942D01*
X4743524Y-7222895D02*
X4743524Y-6422895D01*
X4743524Y-6422895D02*
X5048286Y-6422895D01*
X5048286Y-6422895D02*
X5124476Y-6460990D01*
X5124476Y-6460990D02*
X5162571Y-6499085D01*
X5162571Y-6499085D02*
X5200667Y-6575276D01*
X5200667Y-6575276D02*
X5200667Y-6689561D01*
X5200667Y-6689561D02*
X5162571Y-6765752D01*
X5162571Y-6765752D02*
X5124476Y-6803847D01*
X5124476Y-6803847D02*
X5048286Y-6841942D01*
X5048286Y-6841942D02*
X4743524Y-6841942D01*
X5581619Y-7222895D02*
X5734000Y-7222895D01*
X5734000Y-7222895D02*
X5810190Y-7184800D01*
X5810190Y-7184800D02*
X5848286Y-7146704D01*
X5848286Y-7146704D02*
X5924476Y-7032419D01*
X5924476Y-7032419D02*
X5962571Y-6880038D01*
X5962571Y-6880038D02*
X5962571Y-6575276D01*
X5962571Y-6575276D02*
X5924476Y-6499085D01*
X5924476Y-6499085D02*
X5886381Y-6460990D01*
X5886381Y-6460990D02*
X5810190Y-6422895D01*
X5810190Y-6422895D02*
X5657809Y-6422895D01*
X5657809Y-6422895D02*
X5581619Y-6460990D01*
X5581619Y-6460990D02*
X5543524Y-6499085D01*
X5543524Y-6499085D02*
X5505428Y-6575276D01*
X5505428Y-6575276D02*
X5505428Y-6765752D01*
X5505428Y-6765752D02*
X5543524Y-6841942D01*
X5543524Y-6841942D02*
X5581619Y-6880038D01*
X5581619Y-6880038D02*
X5657809Y-6918133D01*
X5657809Y-6918133D02*
X5810190Y-6918133D01*
X5810190Y-6918133D02*
X5886381Y-6880038D01*
X5886381Y-6880038D02*
X5924476Y-6841942D01*
X5924476Y-6841942D02*
X5962571Y-6765752D01*
X2521048Y-8238895D02*
X2521048Y-7438895D01*
X3359143Y-8162704D02*
X3321047Y-8200800D01*
X3321047Y-8200800D02*
X3206762Y-8238895D01*
X3206762Y-8238895D02*
X3130571Y-8238895D01*
X3130571Y-8238895D02*
X3016285Y-8200800D01*
X3016285Y-8200800D02*
X2940095Y-8124609D01*
X2940095Y-8124609D02*
X2902000Y-8048419D01*
X2902000Y-8048419D02*
X2863904Y-7896038D01*
X2863904Y-7896038D02*
X2863904Y-7781752D01*
X2863904Y-7781752D02*
X2902000Y-7629371D01*
X2902000Y-7629371D02*
X2940095Y-7553180D01*
X2940095Y-7553180D02*
X3016285Y-7476990D01*
X3016285Y-7476990D02*
X3130571Y-7438895D01*
X3130571Y-7438895D02*
X3206762Y-7438895D01*
X3206762Y-7438895D02*
X3321047Y-7476990D01*
X3321047Y-7476990D02*
X3359143Y-7515085D01*
X4044857Y-7438895D02*
X3892476Y-7438895D01*
X3892476Y-7438895D02*
X3816285Y-7476990D01*
X3816285Y-7476990D02*
X3778190Y-7515085D01*
X3778190Y-7515085D02*
X3702000Y-7629371D01*
X3702000Y-7629371D02*
X3663904Y-7781752D01*
X3663904Y-7781752D02*
X3663904Y-8086514D01*
X3663904Y-8086514D02*
X3702000Y-8162704D01*
X3702000Y-8162704D02*
X3740095Y-8200800D01*
X3740095Y-8200800D02*
X3816285Y-8238895D01*
X3816285Y-8238895D02*
X3968666Y-8238895D01*
X3968666Y-8238895D02*
X4044857Y-8200800D01*
X4044857Y-8200800D02*
X4082952Y-8162704D01*
X4082952Y-8162704D02*
X4121047Y-8086514D01*
X4121047Y-8086514D02*
X4121047Y-7896038D01*
X4121047Y-7896038D02*
X4082952Y-7819847D01*
X4082952Y-7819847D02*
X4044857Y-7781752D01*
X4044857Y-7781752D02*
X3968666Y-7743657D01*
X3968666Y-7743657D02*
X3816285Y-7743657D01*
X3816285Y-7743657D02*
X3740095Y-7781752D01*
X3740095Y-7781752D02*
X3702000Y-7819847D01*
X3702000Y-7819847D02*
X3663904Y-7896038D01*
X-6483333Y2869296D02*
X-6521429Y2831200D01*
X-6521429Y2831200D02*
X-6635714Y2793105D01*
X-6635714Y2793105D02*
X-6711905Y2793105D01*
X-6711905Y2793105D02*
X-6826191Y2831200D01*
X-6826191Y2831200D02*
X-6902381Y2907391D01*
X-6902381Y2907391D02*
X-6940476Y2983581D01*
X-6940476Y2983581D02*
X-6978572Y3135962D01*
X-6978572Y3135962D02*
X-6978572Y3250248D01*
X-6978572Y3250248D02*
X-6940476Y3402629D01*
X-6940476Y3402629D02*
X-6902381Y3478820D01*
X-6902381Y3478820D02*
X-6826191Y3555010D01*
X-6826191Y3555010D02*
X-6711905Y3593105D01*
X-6711905Y3593105D02*
X-6635714Y3593105D01*
X-6635714Y3593105D02*
X-6521429Y3555010D01*
X-6521429Y3555010D02*
X-6483333Y3516915D01*
X-5759524Y3593105D02*
X-6140476Y3593105D01*
X-6140476Y3593105D02*
X-6178572Y3212153D01*
X-6178572Y3212153D02*
X-6140476Y3250248D01*
X-6140476Y3250248D02*
X-6064286Y3288343D01*
X-6064286Y3288343D02*
X-5873810Y3288343D01*
X-5873810Y3288343D02*
X-5797619Y3250248D01*
X-5797619Y3250248D02*
X-5759524Y3212153D01*
X-5759524Y3212153D02*
X-5721429Y3135962D01*
X-5721429Y3135962D02*
X-5721429Y2945486D01*
X-5721429Y2945486D02*
X-5759524Y2869296D01*
X-5759524Y2869296D02*
X-5797619Y2831200D01*
X-5797619Y2831200D02*
X-5873810Y2793105D01*
X-5873810Y2793105D02*
X-6064286Y2793105D01*
X-6064286Y2793105D02*
X-6140476Y2831200D01*
X-6140476Y2831200D02*
X-6178572Y2869296D01*
X1517714Y-12226704D02*
X1479618Y-12264800D01*
X1479618Y-12264800D02*
X1365333Y-12302895D01*
X1365333Y-12302895D02*
X1289142Y-12302895D01*
X1289142Y-12302895D02*
X1174856Y-12264800D01*
X1174856Y-12264800D02*
X1098666Y-12188609D01*
X1098666Y-12188609D02*
X1060571Y-12112419D01*
X1060571Y-12112419D02*
X1022475Y-11960038D01*
X1022475Y-11960038D02*
X1022475Y-11845752D01*
X1022475Y-11845752D02*
X1060571Y-11693371D01*
X1060571Y-11693371D02*
X1098666Y-11617180D01*
X1098666Y-11617180D02*
X1174856Y-11540990D01*
X1174856Y-11540990D02*
X1289142Y-11502895D01*
X1289142Y-11502895D02*
X1365333Y-11502895D01*
X1365333Y-11502895D02*
X1479618Y-11540990D01*
X1479618Y-11540990D02*
X1517714Y-11579085D01*
X2279618Y-12302895D02*
X1822475Y-12302895D01*
X2051047Y-12302895D02*
X2051047Y-11502895D01*
X2051047Y-11502895D02*
X1974856Y-11617180D01*
X1974856Y-11617180D02*
X1898666Y-11693371D01*
X1898666Y-11693371D02*
X1822475Y-11731466D01*
X3041523Y-12302895D02*
X2584380Y-12302895D01*
X2812952Y-12302895D02*
X2812952Y-11502895D01*
X2812952Y-11502895D02*
X2736761Y-11617180D01*
X2736761Y-11617180D02*
X2660571Y-11693371D01*
X2660571Y-11693371D02*
X2584380Y-11731466D01*
X-2009333Y-12480704D02*
X-2047429Y-12518800D01*
X-2047429Y-12518800D02*
X-2161714Y-12556895D01*
X-2161714Y-12556895D02*
X-2237905Y-12556895D01*
X-2237905Y-12556895D02*
X-2352191Y-12518800D01*
X-2352191Y-12518800D02*
X-2428381Y-12442609D01*
X-2428381Y-12442609D02*
X-2466476Y-12366419D01*
X-2466476Y-12366419D02*
X-2504572Y-12214038D01*
X-2504572Y-12214038D02*
X-2504572Y-12099752D01*
X-2504572Y-12099752D02*
X-2466476Y-11947371D01*
X-2466476Y-11947371D02*
X-2428381Y-11871180D01*
X-2428381Y-11871180D02*
X-2352191Y-11794990D01*
X-2352191Y-11794990D02*
X-2237905Y-11756895D01*
X-2237905Y-11756895D02*
X-2161714Y-11756895D01*
X-2161714Y-11756895D02*
X-2047429Y-11794990D01*
X-2047429Y-11794990D02*
X-2009333Y-11833085D01*
X-1628381Y-12556895D02*
X-1476000Y-12556895D01*
X-1476000Y-12556895D02*
X-1399810Y-12518800D01*
X-1399810Y-12518800D02*
X-1361714Y-12480704D01*
X-1361714Y-12480704D02*
X-1285524Y-12366419D01*
X-1285524Y-12366419D02*
X-1247429Y-12214038D01*
X-1247429Y-12214038D02*
X-1247429Y-11909276D01*
X-1247429Y-11909276D02*
X-1285524Y-11833085D01*
X-1285524Y-11833085D02*
X-1323619Y-11794990D01*
X-1323619Y-11794990D02*
X-1399810Y-11756895D01*
X-1399810Y-11756895D02*
X-1552191Y-11756895D01*
X-1552191Y-11756895D02*
X-1628381Y-11794990D01*
X-1628381Y-11794990D02*
X-1666476Y-11833085D01*
X-1666476Y-11833085D02*
X-1704572Y-11909276D01*
X-1704572Y-11909276D02*
X-1704572Y-12099752D01*
X-1704572Y-12099752D02*
X-1666476Y-12175942D01*
X-1666476Y-12175942D02*
X-1628381Y-12214038D01*
X-1628381Y-12214038D02*
X-1552191Y-12252133D01*
X-1552191Y-12252133D02*
X-1399810Y-12252133D01*
X-1399810Y-12252133D02*
X-1323619Y-12214038D01*
X-1323619Y-12214038D02*
X-1285524Y-12175942D01*
X-1285524Y-12175942D02*
X-1247429Y-12099752D01*
X-4844952Y7763105D02*
X-4844952Y8563105D01*
X-4006857Y7839296D02*
X-4044953Y7801200D01*
X-4044953Y7801200D02*
X-4159238Y7763105D01*
X-4159238Y7763105D02*
X-4235429Y7763105D01*
X-4235429Y7763105D02*
X-4349715Y7801200D01*
X-4349715Y7801200D02*
X-4425905Y7877391D01*
X-4425905Y7877391D02*
X-4464000Y7953581D01*
X-4464000Y7953581D02*
X-4502096Y8105962D01*
X-4502096Y8105962D02*
X-4502096Y8220248D01*
X-4502096Y8220248D02*
X-4464000Y8372629D01*
X-4464000Y8372629D02*
X-4425905Y8448820D01*
X-4425905Y8448820D02*
X-4349715Y8525010D01*
X-4349715Y8525010D02*
X-4235429Y8563105D01*
X-4235429Y8563105D02*
X-4159238Y8563105D01*
X-4159238Y8563105D02*
X-4044953Y8525010D01*
X-4044953Y8525010D02*
X-4006857Y8486915D01*
X-3740191Y8563105D02*
X-3244953Y8563105D01*
X-3244953Y8563105D02*
X-3511619Y8258343D01*
X-3511619Y8258343D02*
X-3397334Y8258343D01*
X-3397334Y8258343D02*
X-3321143Y8220248D01*
X-3321143Y8220248D02*
X-3283048Y8182153D01*
X-3283048Y8182153D02*
X-3244953Y8105962D01*
X-3244953Y8105962D02*
X-3244953Y7915486D01*
X-3244953Y7915486D02*
X-3283048Y7839296D01*
X-3283048Y7839296D02*
X-3321143Y7801200D01*
X-3321143Y7801200D02*
X-3397334Y7763105D01*
X-3397334Y7763105D02*
X-3625905Y7763105D01*
X-3625905Y7763105D02*
X-3702096Y7801200D01*
X-3702096Y7801200D02*
X-3740191Y7839296D01*
X13131809Y-12379085D02*
X13055619Y-12340990D01*
X13055619Y-12340990D02*
X12979428Y-12264800D01*
X12979428Y-12264800D02*
X12865142Y-12150514D01*
X12865142Y-12150514D02*
X12788952Y-12112419D01*
X12788952Y-12112419D02*
X12712761Y-12112419D01*
X12750857Y-12302895D02*
X12674666Y-12264800D01*
X12674666Y-12264800D02*
X12598476Y-12188609D01*
X12598476Y-12188609D02*
X12560380Y-12036228D01*
X12560380Y-12036228D02*
X12560380Y-11769561D01*
X12560380Y-11769561D02*
X12598476Y-11617180D01*
X12598476Y-11617180D02*
X12674666Y-11540990D01*
X12674666Y-11540990D02*
X12750857Y-11502895D01*
X12750857Y-11502895D02*
X12903238Y-11502895D01*
X12903238Y-11502895D02*
X12979428Y-11540990D01*
X12979428Y-11540990D02*
X13055619Y-11617180D01*
X13055619Y-11617180D02*
X13093714Y-11769561D01*
X13093714Y-11769561D02*
X13093714Y-12036228D01*
X13093714Y-12036228D02*
X13055619Y-12188609D01*
X13055619Y-12188609D02*
X12979428Y-12264800D01*
X12979428Y-12264800D02*
X12903238Y-12302895D01*
X12903238Y-12302895D02*
X12750857Y-12302895D01*
X13360380Y-11502895D02*
X13855618Y-11502895D01*
X13855618Y-11502895D02*
X13588952Y-11807657D01*
X13588952Y-11807657D02*
X13703237Y-11807657D01*
X13703237Y-11807657D02*
X13779428Y-11845752D01*
X13779428Y-11845752D02*
X13817523Y-11883847D01*
X13817523Y-11883847D02*
X13855618Y-11960038D01*
X13855618Y-11960038D02*
X13855618Y-12150514D01*
X13855618Y-12150514D02*
X13817523Y-12226704D01*
X13817523Y-12226704D02*
X13779428Y-12264800D01*
X13779428Y-12264800D02*
X13703237Y-12302895D01*
X13703237Y-12302895D02*
X13474666Y-12302895D01*
X13474666Y-12302895D02*
X13398475Y-12264800D01*
X13398475Y-12264800D02*
X13360380Y-12226704D01*
X-11879667Y-5174895D02*
X-11879667Y-5746323D01*
X-11879667Y-5746323D02*
X-11917762Y-5860609D01*
X-11917762Y-5860609D02*
X-11993953Y-5936800D01*
X-11993953Y-5936800D02*
X-12108238Y-5974895D01*
X-12108238Y-5974895D02*
X-12184429Y-5974895D01*
X-11498714Y-5974895D02*
X-11498714Y-5174895D01*
X-11498714Y-5174895D02*
X-11193952Y-5174895D01*
X-11193952Y-5174895D02*
X-11117762Y-5212990D01*
X-11117762Y-5212990D02*
X-11079667Y-5251085D01*
X-11079667Y-5251085D02*
X-11041571Y-5327276D01*
X-11041571Y-5327276D02*
X-11041571Y-5441561D01*
X-11041571Y-5441561D02*
X-11079667Y-5517752D01*
X-11079667Y-5517752D02*
X-11117762Y-5555847D01*
X-11117762Y-5555847D02*
X-11193952Y-5593942D01*
X-11193952Y-5593942D02*
X-11498714Y-5593942D01*
X-10584429Y-5517752D02*
X-10660619Y-5479657D01*
X-10660619Y-5479657D02*
X-10698714Y-5441561D01*
X-10698714Y-5441561D02*
X-10736810Y-5365371D01*
X-10736810Y-5365371D02*
X-10736810Y-5327276D01*
X-10736810Y-5327276D02*
X-10698714Y-5251085D01*
X-10698714Y-5251085D02*
X-10660619Y-5212990D01*
X-10660619Y-5212990D02*
X-10584429Y-5174895D01*
X-10584429Y-5174895D02*
X-10432048Y-5174895D01*
X-10432048Y-5174895D02*
X-10355857Y-5212990D01*
X-10355857Y-5212990D02*
X-10317762Y-5251085D01*
X-10317762Y-5251085D02*
X-10279667Y-5327276D01*
X-10279667Y-5327276D02*
X-10279667Y-5365371D01*
X-10279667Y-5365371D02*
X-10317762Y-5441561D01*
X-10317762Y-5441561D02*
X-10355857Y-5479657D01*
X-10355857Y-5479657D02*
X-10432048Y-5517752D01*
X-10432048Y-5517752D02*
X-10584429Y-5517752D01*
X-10584429Y-5517752D02*
X-10660619Y-5555847D01*
X-10660619Y-5555847D02*
X-10698714Y-5593942D01*
X-10698714Y-5593942D02*
X-10736810Y-5670133D01*
X-10736810Y-5670133D02*
X-10736810Y-5822514D01*
X-10736810Y-5822514D02*
X-10698714Y-5898704D01*
X-10698714Y-5898704D02*
X-10660619Y-5936800D01*
X-10660619Y-5936800D02*
X-10584429Y-5974895D01*
X-10584429Y-5974895D02*
X-10432048Y-5974895D01*
X-10432048Y-5974895D02*
X-10355857Y-5936800D01*
X-10355857Y-5936800D02*
X-10317762Y-5898704D01*
X-10317762Y-5898704D02*
X-10279667Y-5822514D01*
X-10279667Y-5822514D02*
X-10279667Y-5670133D01*
X-10279667Y-5670133D02*
X-10317762Y-5593942D01*
X-10317762Y-5593942D02*
X-10355857Y-5555847D01*
X-10355857Y-5555847D02*
X-10432048Y-5517752D01*
D11*
%TO.C,R4*%
X5487641Y-2668000D02*
X5180359Y-2668000D01*
X5487641Y-3428000D02*
X5180359Y-3428000D01*
%TO.C,C4*%
X-869836Y2392000D02*
X-654164Y2392000D01*
X-869836Y1672000D02*
X-654164Y1672000D01*
%TO.C,R3*%
X6194359Y2036000D02*
X6501641Y2036000D01*
X6194359Y1276000D02*
X6501641Y1276000D01*
%TO.C,C10*%
X2180000Y-9675836D02*
X2180000Y-9460164D01*
X2900000Y-9675836D02*
X2900000Y-9460164D01*
%TO.C,C8*%
X6144164Y-12860000D02*
X6359836Y-12860000D01*
X6144164Y-13580000D02*
X6359836Y-13580000D01*
%TO.C,J2*%
X13910000Y10220000D02*
X13910000Y-10220000D01*
X13910000Y10220000D02*
X16510000Y10220000D01*
X13910000Y-10220000D02*
X19110000Y-10220000D01*
X16510000Y10220000D02*
X16510000Y7620000D01*
X16510000Y7620000D02*
X19110000Y7620000D01*
X17780000Y10220000D02*
X19110000Y10220000D01*
X19110000Y10220000D02*
X19110000Y8890000D01*
X19110000Y7620000D02*
X19110000Y-10220000D01*
%TO.C,JP3*%
X-11075641Y-13590000D02*
X-10768359Y-13590000D01*
X-11075641Y-14350000D02*
X-10768359Y-14350000D01*
%TO.C,C1*%
X-10012000Y-12553836D02*
X-10012000Y-12338164D01*
X-9292000Y-12553836D02*
X-9292000Y-12338164D01*
%TO.C,R12*%
X9043641Y-14606000D02*
X8736359Y-14606000D01*
X9043641Y-15366000D02*
X8736359Y-15366000D01*
D12*
%TO.C,IC4*%
X4084000Y16032000D02*
G75*
G02*
X3834000Y16032000I-125000J0D01*
G01*
X3834000Y16032000D02*
G75*
G02*
X4084000Y16032000I125000J0D01*
G01*
D11*
%TO.C,JP1*%
X-7972359Y-12574000D02*
X-8279641Y-12574000D01*
X-7972359Y-13334000D02*
X-8279641Y-13334000D01*
%TO.C,R1*%
X3430000Y915641D02*
X3430000Y608359D01*
X4190000Y915641D02*
X4190000Y608359D01*
%TO.C,R7*%
X7240000Y15395641D02*
X7240000Y15088359D01*
X8000000Y15395641D02*
X8000000Y15088359D01*
%TO.C,R6*%
X11304000Y3201641D02*
X11304000Y2894359D01*
X12064000Y3201641D02*
X12064000Y2894359D01*
%TO.C,R5*%
X11304000Y608359D02*
X11304000Y915641D01*
X12064000Y608359D02*
X12064000Y915641D01*
%TO.C,JP6*%
X-10770359Y-18670000D02*
X-11077641Y-18670000D01*
X-10770359Y-19430000D02*
X-11077641Y-19430000D01*
%TO.C,JP7*%
X-11077641Y-17654000D02*
X-10770359Y-17654000D01*
X-11077641Y-18414000D02*
X-10770359Y-18414000D01*
%TO.C,R2*%
X7494000Y-2185641D02*
X7494000Y-1878359D01*
X8254000Y-2185641D02*
X8254000Y-1878359D01*
D12*
%TO.C,IC2*%
X-1405000Y1487000D02*
G75*
G02*
X-1655000Y1487000I-125000J0D01*
G01*
X-1655000Y1487000D02*
G75*
G02*
X-1405000Y1487000I125000J0D01*
G01*
D11*
%TO.C,R10*%
X10567641Y-9018000D02*
X10260359Y-9018000D01*
X10567641Y-9778000D02*
X10260359Y-9778000D01*
%TO.C,C2*%
X4436164Y8996000D02*
X4651836Y8996000D01*
X4436164Y8276000D02*
X4651836Y8276000D01*
%TO.C,C12*%
X6786000Y-10409836D02*
X6786000Y-10194164D01*
X7506000Y-10409836D02*
X7506000Y-10194164D01*
D13*
%TO.C,IC7*%
X4617000Y-2146000D02*
X4617000Y-1146000D01*
X4842000Y-596000D02*
X6842000Y-596000D01*
X4842000Y-796000D02*
X4842000Y-596000D01*
X6842000Y-596000D02*
X6842000Y-796000D01*
X6842000Y-796000D02*
X4842000Y-796000D01*
D11*
%TO.C,R11*%
X7494000Y-12853641D02*
X7494000Y-12546359D01*
X8254000Y-12853641D02*
X8254000Y-12546359D01*
%TO.C,C7*%
X2688000Y14445836D02*
X2688000Y14230164D01*
X3408000Y14445836D02*
X3408000Y14230164D01*
D13*
%TO.C,LED2*%
X1360000Y-15972000D02*
X1360000Y-15572000D01*
D10*
X1810000Y-14172000D02*
X1810000Y-14172000D01*
X1810000Y-14272000D02*
X1810000Y-14272000D01*
D13*
X3160000Y-15972000D02*
X3160000Y-15572000D01*
D10*
X1810000Y-14172000D02*
G75*
G02*
X1810000Y-14272000I0J-50000D01*
G01*
X1810000Y-14272000D02*
G75*
G02*
X1810000Y-14172000I0J50000D01*
G01*
D13*
%TO.C,LED3*%
X-2627000Y-15972000D02*
X-2627000Y-15572000D01*
D10*
X-2177000Y-14172000D02*
X-2177000Y-14172000D01*
X-2177000Y-14272000D02*
X-2177000Y-14272000D01*
D13*
X-827000Y-15972000D02*
X-827000Y-15572000D01*
D10*
X-2177000Y-14172000D02*
G75*
G02*
X-2177000Y-14272000I0J-50000D01*
G01*
X-2177000Y-14272000D02*
G75*
G02*
X-2177000Y-14172000I0J50000D01*
G01*
D11*
%TO.C,C6*%
X2136164Y-12860000D02*
X2351836Y-12860000D01*
X2136164Y-13580000D02*
X2351836Y-13580000D01*
D13*
%TO.C,IC5*%
X3564000Y6097000D02*
X6464000Y6097000D01*
X3564000Y5547000D02*
X3564000Y6097000D01*
X6464000Y6097000D02*
X6464000Y5547000D01*
X6464000Y5547000D02*
X3564000Y5547000D01*
X6514000Y7697000D02*
X6514000Y6447000D01*
D11*
%TO.C,R8*%
X-7492000Y13107641D02*
X-7492000Y12800359D01*
X-6732000Y13107641D02*
X-6732000Y12800359D01*
%TO.C,JP4*%
X-10770359Y-16638000D02*
X-11077641Y-16638000D01*
X-10770359Y-17398000D02*
X-11077641Y-17398000D01*
D13*
%TO.C,LED1*%
X5392000Y-15960000D02*
X5392000Y-15560000D01*
D10*
X5842000Y-14160000D02*
X5842000Y-14160000D01*
X5842000Y-14260000D02*
X5842000Y-14260000D01*
D13*
X7192000Y-15960000D02*
X7192000Y-15560000D01*
D10*
X5842000Y-14160000D02*
G75*
G02*
X5842000Y-14260000I0J-50000D01*
G01*
X5842000Y-14260000D02*
G75*
G02*
X5842000Y-14160000I0J50000D01*
G01*
D11*
%TO.C,JP2*%
X-10768359Y-14606000D02*
X-11075641Y-14606000D01*
X-10768359Y-15366000D02*
X-11075641Y-15366000D01*
D14*
%TO.C,G\u002A\u002A\u002A*%
G36*
X-5095069Y-5278080D02*
G01*
X-5095069Y-5702926D01*
X-4790051Y-5702926D01*
X-4485033Y-5702926D01*
X-4485033Y-5278080D01*
X-4485033Y-4853234D01*
X-4319815Y-4853234D01*
X-4154597Y-4853234D01*
X-4154597Y-5278080D01*
X-4154597Y-5702926D01*
X-3860473Y-5702926D01*
X-3566349Y-5702926D01*
X-3566349Y-5283527D01*
X-3566349Y-4864127D01*
X-3399315Y-4864127D01*
X-3232282Y-4864127D01*
X-3232282Y-5283332D01*
X-3232282Y-5702538D01*
X-3058893Y-5703873D01*
X-3016913Y-5704202D01*
X-2981451Y-5704546D01*
X-2951765Y-5704991D01*
X-2927113Y-5705621D01*
X-2906751Y-5706521D01*
X-2889936Y-5707777D01*
X-2875925Y-5709474D01*
X-2863976Y-5711697D01*
X-2853346Y-5714530D01*
X-2843290Y-5718060D01*
X-2833068Y-5722372D01*
X-2821935Y-5727549D01*
X-2812398Y-5732121D01*
X-2774103Y-5754442D01*
X-2739434Y-5782582D01*
X-2709310Y-5815621D01*
X-2684654Y-5852638D01*
X-2676859Y-5867661D01*
X-2670450Y-5881147D01*
X-2665154Y-5893002D01*
X-2660856Y-5904088D01*
X-2657442Y-5915267D01*
X-2654799Y-5927400D01*
X-2652812Y-5941348D01*
X-2651369Y-5957974D01*
X-2650354Y-5978139D01*
X-2649655Y-6002704D01*
X-2649158Y-6032531D01*
X-2648748Y-6068482D01*
X-2648616Y-6081475D01*
X-2647202Y-6222183D01*
X-2231665Y-6222183D01*
X-1816127Y-6222183D01*
X-1816127Y-6387401D01*
X-1816127Y-6552619D01*
X-2231896Y-6552619D01*
X-2647664Y-6552619D01*
X-2647664Y-6873977D01*
X-2647664Y-7195335D01*
X-2231896Y-7195335D01*
X-1816127Y-7195335D01*
X-1816127Y-7360553D01*
X-1816127Y-7525771D01*
X-2231896Y-7525771D01*
X-2647664Y-7525771D01*
X-2647664Y-7847129D01*
X-2647664Y-8168487D01*
X-2231896Y-8168487D01*
X-1816127Y-8168487D01*
X-1816127Y-8335521D01*
X-1816127Y-8502554D01*
X-2231672Y-8502554D01*
X-2647216Y-8502554D01*
X-2648615Y-8648709D01*
X-2649005Y-8687473D01*
X-2649438Y-8719812D01*
X-2650023Y-8746567D01*
X-2650866Y-8768573D01*
X-2652076Y-8786671D01*
X-2653762Y-8801697D01*
X-2656030Y-8814491D01*
X-2658990Y-8825890D01*
X-2662748Y-8836733D01*
X-2667413Y-8847857D01*
X-2673094Y-8860101D01*
X-2676859Y-8867970D01*
X-2699180Y-8906265D01*
X-2727320Y-8940935D01*
X-2760359Y-8971058D01*
X-2797376Y-8995715D01*
X-2812398Y-9003510D01*
X-2824778Y-9009429D01*
X-2835674Y-9014408D01*
X-2845836Y-9018534D01*
X-2856011Y-9021893D01*
X-2866948Y-9024572D01*
X-2879396Y-9026657D01*
X-2894103Y-9028234D01*
X-2911817Y-9029390D01*
X-2933286Y-9030210D01*
X-2959259Y-9030783D01*
X-2990485Y-9031193D01*
X-3027712Y-9031528D01*
X-3057078Y-9031758D01*
X-3228650Y-9033096D01*
X-3228650Y-9455931D01*
X-3228650Y-9878766D01*
X-3393868Y-9878766D01*
X-3559086Y-9878766D01*
X-3559086Y-9455735D01*
X-3559086Y-9032705D01*
X-3856842Y-9032705D01*
X-4154597Y-9032705D01*
X-4154597Y-9455735D01*
X-4154597Y-9878766D01*
X-4319815Y-9878766D01*
X-4485033Y-9878766D01*
X-4485033Y-9455735D01*
X-4485033Y-9032705D01*
X-4786420Y-9032705D01*
X-5087807Y-9032705D01*
X-5087807Y-9450289D01*
X-5087807Y-9867873D01*
X-5253025Y-9867873D01*
X-5418243Y-9867873D01*
X-5418243Y-9450496D01*
X-5418243Y-9033118D01*
X-5578922Y-9031756D01*
X-5619421Y-9031402D01*
X-5653442Y-9031021D01*
X-5681768Y-9030520D01*
X-5705183Y-9029803D01*
X-5724469Y-9028776D01*
X-5740411Y-9027344D01*
X-5753791Y-9025413D01*
X-5765394Y-9022888D01*
X-5776003Y-9019674D01*
X-5786401Y-9015677D01*
X-5797372Y-9010802D01*
X-5809699Y-9004954D01*
X-5812708Y-9003510D01*
X-5851003Y-8981188D01*
X-5885673Y-8953048D01*
X-5915796Y-8920010D01*
X-5940452Y-8882993D01*
X-5948247Y-8867970D01*
X-5954529Y-8854773D01*
X-5959744Y-8843169D01*
X-5964000Y-8832326D01*
X-5967402Y-8821413D01*
X-5970057Y-8809601D01*
X-5972071Y-8796058D01*
X-5973550Y-8779953D01*
X-5974600Y-8760456D01*
X-5975327Y-8736736D01*
X-5975838Y-8707962D01*
X-5976237Y-8673303D01*
X-5976492Y-8646893D01*
X-5977885Y-8498923D01*
X-6397063Y-8498923D01*
X-6816241Y-8498923D01*
X-6816241Y-8333705D01*
X-6816241Y-8168487D01*
X-6396842Y-8168487D01*
X-5977442Y-8168487D01*
X-5977442Y-8333705D01*
X-5977442Y-8498923D01*
X-5552596Y-8498923D01*
X-5484974Y-8498907D01*
X-5424308Y-8498857D01*
X-5370294Y-8498769D01*
X-5322626Y-8498640D01*
X-5280999Y-8498468D01*
X-5245107Y-8498249D01*
X-5214645Y-8497980D01*
X-5189307Y-8497658D01*
X-5168789Y-8497279D01*
X-5152785Y-8496841D01*
X-5140989Y-8496341D01*
X-5133096Y-8495775D01*
X-5128801Y-8495140D01*
X-5127750Y-8494566D01*
X-5126631Y-8492095D01*
X-5123310Y-8494648D01*
X-5121313Y-8494646D01*
X-5117242Y-8492274D01*
X-5110756Y-8487210D01*
X-5101510Y-8479133D01*
X-5089160Y-8467722D01*
X-5073365Y-8452654D01*
X-5053780Y-8433607D01*
X-5030063Y-8410260D01*
X-5001869Y-8382292D01*
X-4977156Y-8357665D01*
X-4835441Y-8216243D01*
X-4813654Y-8219941D01*
X-4793980Y-8221798D01*
X-4769914Y-8221825D01*
X-4744054Y-8220168D01*
X-4718997Y-8216970D01*
X-4702903Y-8213793D01*
X-4678791Y-8206202D01*
X-4651922Y-8194629D01*
X-4624620Y-8180282D01*
X-4599204Y-8164370D01*
X-4579766Y-8149630D01*
X-4564027Y-8135844D01*
X-4553652Y-8125702D01*
X-4548132Y-8118571D01*
X-4546961Y-8113817D01*
X-4548976Y-8111193D01*
X-4555238Y-8106703D01*
X-4565816Y-8098672D01*
X-4579379Y-8088121D01*
X-4587970Y-8081341D01*
X-4593250Y-8076845D01*
X-4603344Y-8067957D01*
X-4617698Y-8055177D01*
X-4635761Y-8039005D01*
X-4656980Y-8019943D01*
X-4680802Y-7998490D01*
X-4706674Y-7975148D01*
X-4734045Y-7950417D01*
X-4762360Y-7924798D01*
X-4791069Y-7898792D01*
X-4819617Y-7872898D01*
X-4847453Y-7847618D01*
X-4874024Y-7823453D01*
X-4898777Y-7800902D01*
X-4921159Y-7780467D01*
X-4940618Y-7762649D01*
X-4956602Y-7747947D01*
X-4968558Y-7736863D01*
X-4975932Y-7729897D01*
X-4976308Y-7729532D01*
X-5000978Y-7705514D01*
X-5008331Y-7714592D01*
X-5036210Y-7754249D01*
X-5057982Y-7796564D01*
X-5073195Y-7840572D01*
X-5078658Y-7865459D01*
X-5082687Y-7893944D01*
X-5083917Y-7919350D01*
X-5082399Y-7945280D01*
X-5080046Y-7963560D01*
X-5075917Y-7991324D01*
X-5164443Y-8079906D01*
X-5252969Y-8168487D01*
X-5615206Y-8168487D01*
X-5977442Y-8168487D01*
X-5977442Y-7847129D01*
X-5977442Y-7525771D01*
X-6396842Y-7525771D01*
X-6816241Y-7525771D01*
X-6816241Y-7360553D01*
X-6816241Y-7195335D01*
X-6396842Y-7195335D01*
X-5977442Y-7195335D01*
X-5977442Y-6966967D01*
X-5344688Y-6966967D01*
X-5341604Y-7032634D01*
X-5331827Y-7099916D01*
X-5315428Y-7168608D01*
X-5292482Y-7238507D01*
X-5263061Y-7309407D01*
X-5227238Y-7381104D01*
X-5185085Y-7453393D01*
X-5136675Y-7526070D01*
X-5082082Y-7598930D01*
X-5044451Y-7644946D01*
X-5031747Y-7659992D01*
X-5020364Y-7673480D01*
X-5011293Y-7684235D01*
X-5005526Y-7691082D01*
X-5004376Y-7692450D01*
X-5001509Y-7695097D01*
X-4998072Y-7695481D01*
X-4992810Y-7693011D01*
X-4984470Y-7687096D01*
X-4971798Y-7677147D01*
X-4971696Y-7677065D01*
X-4947931Y-7660359D01*
X-4920088Y-7644356D01*
X-4890951Y-7630485D01*
X-4863303Y-7620171D01*
X-4857228Y-7618392D01*
X-4835171Y-7613973D01*
X-4808535Y-7611154D01*
X-4779842Y-7610002D01*
X-4751611Y-7610588D01*
X-4726364Y-7612981D01*
X-4717189Y-7614554D01*
X-4672455Y-7627186D01*
X-4630891Y-7646087D01*
X-4592988Y-7670776D01*
X-4559238Y-7700771D01*
X-4530132Y-7735592D01*
X-4506161Y-7774757D01*
X-4487817Y-7817785D01*
X-4479106Y-7847750D01*
X-4475851Y-7866861D01*
X-4473801Y-7890525D01*
X-4472987Y-7916283D01*
X-4473441Y-7941675D01*
X-4475197Y-7964242D01*
X-4477392Y-7977851D01*
X-4487326Y-8012309D01*
X-4501668Y-8047223D01*
X-4518921Y-8079015D01*
X-4521258Y-8082668D01*
X-4538915Y-8109715D01*
X-4478386Y-8153114D01*
X-4446443Y-8175834D01*
X-4416614Y-8196692D01*
X-4389405Y-8215355D01*
X-4365323Y-8231492D01*
X-4344872Y-8244770D01*
X-4328560Y-8254857D01*
X-4316891Y-8261421D01*
X-4310372Y-8264131D01*
X-4309360Y-8264086D01*
X-4305080Y-8261377D01*
X-4295878Y-8255367D01*
X-4282873Y-8246794D01*
X-4267181Y-8236391D01*
X-4256270Y-8229131D01*
X-4153281Y-8158281D01*
X-4055035Y-8086199D01*
X-3961737Y-8013096D01*
X-3873593Y-7939188D01*
X-3790807Y-7864686D01*
X-3713586Y-7789805D01*
X-3642134Y-7714757D01*
X-3576657Y-7639755D01*
X-3517359Y-7565013D01*
X-3464447Y-7490744D01*
X-3418126Y-7417161D01*
X-3378600Y-7344477D01*
X-3354175Y-7292155D01*
X-3326508Y-7221462D01*
X-3305316Y-7152160D01*
X-3290593Y-7084467D01*
X-3282336Y-7018606D01*
X-3280537Y-6954797D01*
X-3285192Y-6893260D01*
X-3296296Y-6834215D01*
X-3313842Y-6777884D01*
X-3337825Y-6724487D01*
X-3368240Y-6674244D01*
X-3369490Y-6672447D01*
X-3404824Y-6628135D01*
X-3445267Y-6588757D01*
X-3490326Y-6554631D01*
X-3539504Y-6526071D01*
X-3592307Y-6503393D01*
X-3648241Y-6486915D01*
X-3665903Y-6483160D01*
X-3691150Y-6479467D01*
X-3720738Y-6477051D01*
X-3752202Y-6475963D01*
X-3783077Y-6476253D01*
X-3810895Y-6477972D01*
X-3825977Y-6479850D01*
X-3886474Y-6493094D01*
X-3944504Y-6513123D01*
X-3999931Y-6539841D01*
X-4052623Y-6573157D01*
X-4102444Y-6612976D01*
X-4149261Y-6659206D01*
X-4192939Y-6711753D01*
X-4225184Y-6757742D01*
X-4237067Y-6777244D01*
X-4250603Y-6801511D01*
X-4264768Y-6828558D01*
X-4278538Y-6856399D01*
X-4290887Y-6883047D01*
X-4296402Y-6895764D01*
X-4302678Y-6910580D01*
X-4307864Y-6922670D01*
X-4311350Y-6930623D01*
X-4312510Y-6933064D01*
X-4314094Y-6930576D01*
X-4317274Y-6923128D01*
X-4319728Y-6916724D01*
X-4325663Y-6902213D01*
X-4334329Y-6883012D01*
X-4344903Y-6860767D01*
X-4356563Y-6837122D01*
X-4368488Y-6813722D01*
X-4379854Y-6792211D01*
X-4389839Y-6774234D01*
X-4396458Y-6763226D01*
X-4436264Y-6706531D01*
X-4479426Y-6655536D01*
X-4525657Y-6610468D01*
X-4574666Y-6571553D01*
X-4626165Y-6539021D01*
X-4679864Y-6513098D01*
X-4735474Y-6494011D01*
X-4740798Y-6492574D01*
X-4771126Y-6485229D01*
X-4798347Y-6480273D01*
X-4825352Y-6477343D01*
X-4855036Y-6476079D01*
X-4873728Y-6475964D01*
X-4932187Y-6479626D01*
X-4988472Y-6489998D01*
X-5042163Y-6506744D01*
X-5092836Y-6529527D01*
X-5140072Y-6558008D01*
X-5183447Y-6591850D01*
X-5222541Y-6630717D01*
X-5256932Y-6674271D01*
X-5286198Y-6722175D01*
X-5309917Y-6774092D01*
X-5327668Y-6829683D01*
X-5330484Y-6841296D01*
X-5341006Y-6903120D01*
X-5344688Y-6966967D01*
X-5977442Y-6966967D01*
X-5977442Y-6872161D01*
X-5977442Y-6548988D01*
X-6396842Y-6548988D01*
X-6816241Y-6548988D01*
X-6816241Y-6383770D01*
X-6816241Y-6218552D01*
X-6397075Y-6218552D01*
X-5977909Y-6218552D01*
X-5976489Y-6079660D01*
X-5976078Y-6041780D01*
X-5975613Y-6010293D01*
X-5974978Y-5984329D01*
X-5974057Y-5963017D01*
X-5972734Y-5945488D01*
X-5970893Y-5930872D01*
X-5968419Y-5918300D01*
X-5965196Y-5906901D01*
X-5961108Y-5895806D01*
X-5956038Y-5884145D01*
X-5949871Y-5871048D01*
X-5948247Y-5867661D01*
X-5925926Y-5829365D01*
X-5897786Y-5794696D01*
X-5864747Y-5764572D01*
X-5827731Y-5739916D01*
X-5812708Y-5732121D01*
X-5799846Y-5725988D01*
X-5788531Y-5720867D01*
X-5777968Y-5716663D01*
X-5767360Y-5713276D01*
X-5755911Y-5710610D01*
X-5742824Y-5708565D01*
X-5727305Y-5707046D01*
X-5708555Y-5705954D01*
X-5685780Y-5705190D01*
X-5658182Y-5704659D01*
X-5624966Y-5704261D01*
X-5585335Y-5703899D01*
X-5582553Y-5703875D01*
X-5425505Y-5702504D01*
X-5425505Y-5277869D01*
X-5425505Y-4853234D01*
X-5260287Y-4853234D01*
X-5095069Y-4853234D01*
X-5095069Y-5278080D01*
G37*
D11*
%TO.C,C3*%
X7194000Y5714164D02*
X7194000Y5929836D01*
X7914000Y5714164D02*
X7914000Y5929836D01*
%TO.C,JP5*%
X-11075641Y-15622000D02*
X-10768359Y-15622000D01*
X-11075641Y-16382000D02*
X-10768359Y-16382000D01*
%TO.C,R9*%
X5487641Y-7494000D02*
X5180359Y-7494000D01*
X5487641Y-8254000D02*
X5180359Y-8254000D01*
D12*
%TO.C,IC6*%
X3635000Y-8581000D02*
G75*
G02*
X3385000Y-8581000I-125000J0D01*
G01*
X3385000Y-8581000D02*
G75*
G02*
X3635000Y-8581000I125000J0D01*
G01*
D11*
%TO.C,C5*%
X-6242164Y4678000D02*
X-6457836Y4678000D01*
X-6242164Y3958000D02*
X-6457836Y3958000D01*
%TO.C,J1*%
X-19090000Y10205000D02*
X-19090000Y-10235000D01*
X-19090000Y10205000D02*
X-16490000Y10205000D01*
X-19090000Y-10235000D02*
X-13890000Y-10235000D01*
X-16490000Y10205000D02*
X-16490000Y7605000D01*
X-16490000Y7605000D02*
X-13890000Y7605000D01*
X-15220000Y10205000D02*
X-13890000Y10205000D01*
X-13890000Y10205000D02*
X-13890000Y8875000D01*
X-13890000Y7605000D02*
X-13890000Y-10235000D01*
%TO.C,C11*%
X4182164Y-11466000D02*
X4397836Y-11466000D01*
X4182164Y-12186000D02*
X4397836Y-12186000D01*
%TO.C,C9*%
X-1983836Y-12860000D02*
X-1768164Y-12860000D01*
X-1983836Y-13580000D02*
X-1768164Y-13580000D01*
D13*
%TO.C,IC1*%
X-8888000Y-15432000D02*
X-8888000Y-16632000D01*
D10*
X-8638000Y-18032000D02*
X-8638000Y-18032000D01*
X-8638000Y-18132000D02*
X-8638000Y-18132000D01*
D13*
X-6888000Y-16632000D02*
X-6888000Y-15432000D01*
D10*
X-8638000Y-18032000D02*
G75*
G02*
X-8638000Y-18132000I0J-50000D01*
G01*
X-8638000Y-18132000D02*
G75*
G02*
X-8638000Y-18032000I0J50000D01*
G01*
D13*
%TO.C,IC3*%
X-8317000Y9352000D02*
X-5317000Y9352000D01*
X-8317000Y7052000D02*
X-8317000Y9352000D01*
X-5317000Y9352000D02*
X-5317000Y7052000D01*
X-5317000Y7052000D02*
X-8317000Y7052000D01*
X-5267000Y11127000D02*
X-5267000Y9702000D01*
%TO.C,Q3*%
X8964000Y-12588000D02*
X8964000Y-11538000D01*
X9814000Y-12588000D02*
X8964000Y-12588000D01*
X11014000Y-12588000D02*
X11864000Y-12588000D01*
X11264000Y-10138000D02*
X11264000Y-10138000D01*
X11464000Y-10138000D02*
X11464000Y-10138000D01*
X11864000Y-12588000D02*
X11864000Y-11538000D01*
X11264000Y-10138000D02*
G75*
G02*
X11464000Y-10138000I100000J0D01*
G01*
X11464000Y-10138000D02*
G75*
G02*
X11264000Y-10138000I-100000J0D01*
G01*
D11*
%TO.C,JP8*%
X-12613000Y-2810000D02*
X-9813000Y-2810000D01*
X-12613000Y-4810000D02*
X-12613000Y-2810000D01*
X-9813000Y-2810000D02*
X-9813000Y-4810000D01*
X-9813000Y-4810000D02*
X-12613000Y-4810000D01*
%TD*%
%LPC*%
D15*
%TO.C,R4*%
X5844000Y-3048000D03*
X4824000Y-3048000D03*
%TD*%
D16*
%TO.C,C4*%
X-1242000Y2032000D03*
X-282000Y2032000D03*
%TD*%
D17*
%TO.C,R3*%
X5838000Y1656000D03*
X6858000Y1656000D03*
%TD*%
D18*
%TO.C,C10*%
X2540000Y-10048000D03*
X2540000Y-9088000D03*
%TD*%
D16*
%TO.C,C8*%
X5772000Y-13220000D03*
X6732000Y-13220000D03*
%TD*%
D19*
%TO.C,J2*%
X17780000Y8890000D03*
D20*
X15240000Y8890000D03*
X17780000Y6350000D03*
X15240000Y6350000D03*
X17780000Y3810000D03*
X15240000Y3810000D03*
X17780000Y1270000D03*
X15240000Y1270000D03*
X17780000Y-1270000D03*
X15240000Y-1270000D03*
X17780000Y-3810000D03*
X15240000Y-3810000D03*
X17780000Y-6350000D03*
X15240000Y-6350000D03*
X17780000Y-8890000D03*
X15240000Y-8890000D03*
%TD*%
D21*
%TO.C,H1*%
X-16256000Y16256000D03*
%TD*%
D17*
%TO.C,JP3*%
X-11432000Y-13970000D03*
X-10412000Y-13970000D03*
%TD*%
D18*
%TO.C,C1*%
X-9652000Y-12926000D03*
X-9652000Y-11966000D03*
%TD*%
D15*
%TO.C,R12*%
X9400000Y-14986000D03*
X8380000Y-14986000D03*
%TD*%
D22*
%TO.C,IC4*%
X4334000Y15382000D03*
X4334000Y14732000D03*
X4334000Y14082000D03*
X6334000Y14082000D03*
X6334000Y14732000D03*
X6334000Y15382000D03*
D23*
X5334000Y14732000D03*
%TD*%
D15*
%TO.C,JP1*%
X-7616000Y-12954000D03*
X-8636000Y-12954000D03*
%TD*%
D21*
%TO.C,H2*%
X16256000Y16256000D03*
%TD*%
D24*
%TO.C,R1*%
X3810000Y1272000D03*
X3810000Y252000D03*
%TD*%
%TO.C,R7*%
X7620000Y15752000D03*
X7620000Y14732000D03*
%TD*%
%TO.C,R6*%
X11684000Y3558000D03*
X11684000Y2538000D03*
%TD*%
D25*
%TO.C,R5*%
X11684000Y252000D03*
X11684000Y1272000D03*
%TD*%
D21*
%TO.C,H3*%
X-16256000Y-16256000D03*
%TD*%
D15*
%TO.C,JP6*%
X-10414000Y-19050000D03*
X-11434000Y-19050000D03*
%TD*%
D17*
%TO.C,JP7*%
X-11434000Y-18034000D03*
X-10414000Y-18034000D03*
%TD*%
D25*
%TO.C,R2*%
X7874000Y-2542000D03*
X7874000Y-1522000D03*
%TD*%
D21*
%TO.C,H4*%
X16256000Y-16256000D03*
%TD*%
D26*
%TO.C,IC2*%
X-1130000Y762000D03*
X-1130000Y-38000D03*
X-1130000Y-838000D03*
X1270000Y-838000D03*
X1270000Y-38000D03*
X1270000Y762000D03*
D27*
X70000Y-38000D03*
%TD*%
D15*
%TO.C,R10*%
X10924000Y-9398000D03*
X9904000Y-9398000D03*
%TD*%
D28*
%TO.C,TP2*%
X-762000Y-3810000D03*
%TD*%
D16*
%TO.C,C2*%
X4064000Y8636000D03*
X5024000Y8636000D03*
%TD*%
D18*
%TO.C,C12*%
X7146000Y-10782000D03*
X7146000Y-9822000D03*
%TD*%
D28*
%TO.C,TP3*%
X1270000Y5588000D03*
%TD*%
D29*
%TO.C,IC7*%
X5192000Y-1646000D03*
X5842000Y-1646000D03*
X6492000Y-1646000D03*
X6492000Y254000D03*
X5842000Y254000D03*
X5192000Y254000D03*
%TD*%
D25*
%TO.C,R11*%
X7874000Y-13210000D03*
X7874000Y-12190000D03*
%TD*%
D30*
%TO.C,C7*%
X3048000Y14818000D03*
X3048000Y13858000D03*
%TD*%
D31*
%TO.C,LED2*%
X1810000Y-15022000D03*
X1810000Y-16522000D03*
X2710000Y-16522000D03*
X2710000Y-15022000D03*
%TD*%
%TO.C,LED3*%
X-2177000Y-15022000D03*
X-2177000Y-16522000D03*
X-1277000Y-16522000D03*
X-1277000Y-15022000D03*
%TD*%
D16*
%TO.C,C6*%
X1764000Y-13220000D03*
X2724000Y-13220000D03*
%TD*%
D32*
%TO.C,IC5*%
X5964000Y7072000D03*
X5014000Y7072000D03*
X4064000Y7072000D03*
X4064000Y4572000D03*
X5964000Y4572000D03*
%TD*%
D24*
%TO.C,R8*%
X-7112000Y13464000D03*
X-7112000Y12444000D03*
%TD*%
D15*
%TO.C,JP4*%
X-10414000Y-17018000D03*
X-11434000Y-17018000D03*
%TD*%
D31*
%TO.C,LED1*%
X5842000Y-15010000D03*
X5842000Y-16510000D03*
X6742000Y-16510000D03*
X6742000Y-15010000D03*
%TD*%
D15*
%TO.C,JP2*%
X-10412000Y-14986000D03*
X-11432000Y-14986000D03*
%TD*%
D18*
%TO.C,C3*%
X7554000Y5342000D03*
X7554000Y6302000D03*
%TD*%
D17*
%TO.C,JP5*%
X-11432000Y-16002000D03*
X-10412000Y-16002000D03*
%TD*%
D15*
%TO.C,R9*%
X5844000Y-7874000D03*
X4824000Y-7874000D03*
%TD*%
D33*
%TO.C,IC6*%
X3810000Y-9256000D03*
X3810000Y-9906000D03*
X3810000Y-10556000D03*
X5910000Y-10556000D03*
X5910000Y-9906000D03*
X5910000Y-9256000D03*
D34*
X4860000Y-9906000D03*
%TD*%
D35*
%TO.C,C5*%
X-5870000Y4318000D03*
X-6830000Y4318000D03*
%TD*%
D19*
%TO.C,J1*%
X-15220000Y8875000D03*
D20*
X-17760000Y8875000D03*
X-15220000Y6335000D03*
X-17760000Y6335000D03*
X-15220000Y3795000D03*
X-17760000Y3795000D03*
X-15220000Y1255000D03*
X-17760000Y1255000D03*
X-15220000Y-1285000D03*
X-17760000Y-1285000D03*
X-15220000Y-3825000D03*
X-17760000Y-3825000D03*
X-15220000Y-6365000D03*
X-17760000Y-6365000D03*
X-15220000Y-8905000D03*
X-17760000Y-8905000D03*
%TD*%
D16*
%TO.C,C11*%
X3810000Y-11826000D03*
X4770000Y-11826000D03*
%TD*%
%TO.C,C9*%
X-2356000Y-13220000D03*
X-1396000Y-13220000D03*
%TD*%
D36*
%TO.C,IC1*%
X-8638000Y-17332000D03*
X-8138000Y-17332000D03*
X-7638000Y-17332000D03*
X-7138000Y-17332000D03*
X-7138000Y-14732000D03*
X-7638000Y-14732000D03*
X-8138000Y-14732000D03*
X-8638000Y-14732000D03*
D37*
X-7888000Y-16032000D03*
%TD*%
D38*
%TO.C,IC3*%
X-5842000Y10414000D03*
X-6492000Y10414000D03*
X-7142000Y10414000D03*
X-7792000Y10414000D03*
X-7792000Y5990000D03*
X-7142000Y5990000D03*
X-6492000Y5990000D03*
X-5842000Y5990000D03*
%TD*%
D39*
%TO.C,Q3*%
X11364000Y-10938000D03*
X9464000Y-10938000D03*
X10414000Y-12938000D03*
%TD*%
D40*
%TO.C,JP8*%
X-10488000Y-3810000D03*
D41*
X-11938000Y-3810000D03*
%TD*%
%LPD*%
M02*
