%TF.GenerationSoftware,KiCad,Pcbnew,8.0.7*%
%TF.CreationDate,2024-12-29T21:32:39+01:00*%
%TF.ProjectId,stackflex_feature_air_qual,73746163-6b66-46c6-9578-5f6665617475,1*%
%TF.SameCoordinates,Original*%
%TF.FileFunction,Copper,L1,Top*%
%TF.FilePolarity,Positive*%
%FSLAX46Y46*%
G04 Gerber Fmt 4.6, Leading zero omitted, Abs format (unit mm)*
G04 Created by KiCad (PCBNEW 8.0.7) date 2024-12-29 21:32:39*
%MOMM*%
%LPD*%
G01*
G04 APERTURE LIST*
G04 Aperture macros list*
%AMRoundRect*
0 Rectangle with rounded corners*
0 $1 Rounding radius*
0 $2 $3 $4 $5 $6 $7 $8 $9 X,Y pos of 4 corners*
0 Add a 4 corners polygon primitive as box body*
4,1,4,$2,$3,$4,$5,$6,$7,$8,$9,$2,$3,0*
0 Add four circle primitives for the rounded corners*
1,1,$1+$1,$2,$3*
1,1,$1+$1,$4,$5*
1,1,$1+$1,$6,$7*
1,1,$1+$1,$8,$9*
0 Add four rect primitives between the rounded corners*
20,1,$1+$1,$2,$3,$4,$5,0*
20,1,$1+$1,$4,$5,$6,$7,0*
20,1,$1+$1,$6,$7,$8,$9,0*
20,1,$1+$1,$8,$9,$2,$3,0*%
%AMFreePoly0*
4,1,6,1.000000,0.000000,0.500000,-0.750000,-0.500000,-0.750000,-0.500000,0.750000,0.500000,0.750000,1.000000,0.000000,1.000000,0.000000,$1*%
%AMFreePoly1*
4,1,6,0.500000,-0.750000,-0.650000,-0.750000,-0.150000,0.000000,-0.650000,0.750000,0.500000,0.750000,0.500000,-0.750000,0.500000,-0.750000,$1*%
G04 Aperture macros list end*
%TA.AperFunction,SMDPad,CuDef*%
%ADD10RoundRect,0.135000X0.135000X0.185000X-0.135000X0.185000X-0.135000X-0.185000X0.135000X-0.185000X0*%
%TD*%
%TA.AperFunction,SMDPad,CuDef*%
%ADD11RoundRect,0.140000X-0.140000X-0.170000X0.140000X-0.170000X0.140000X0.170000X-0.140000X0.170000X0*%
%TD*%
%TA.AperFunction,SMDPad,CuDef*%
%ADD12RoundRect,0.135000X-0.135000X-0.185000X0.135000X-0.185000X0.135000X0.185000X-0.135000X0.185000X0*%
%TD*%
%TA.AperFunction,SMDPad,CuDef*%
%ADD13RoundRect,0.140000X0.170000X-0.140000X0.170000X0.140000X-0.170000X0.140000X-0.170000X-0.140000X0*%
%TD*%
%TA.AperFunction,ComponentPad*%
%ADD14R,1.700000X1.700000*%
%TD*%
%TA.AperFunction,ComponentPad*%
%ADD15O,1.700000X1.700000*%
%TD*%
%TA.AperFunction,ComponentPad*%
%ADD16C,5.600000*%
%TD*%
%TA.AperFunction,SMDPad,CuDef*%
%ADD17R,0.750000X0.300000*%
%TD*%
%TA.AperFunction,SMDPad,CuDef*%
%ADD18R,0.750000X1.450000*%
%TD*%
%TA.AperFunction,SMDPad,CuDef*%
%ADD19RoundRect,0.135000X-0.185000X0.135000X-0.185000X-0.135000X0.185000X-0.135000X0.185000X0.135000X0*%
%TD*%
%TA.AperFunction,SMDPad,CuDef*%
%ADD20RoundRect,0.135000X0.185000X-0.135000X0.185000X0.135000X-0.185000X0.135000X-0.185000X-0.135000X0*%
%TD*%
%TA.AperFunction,SMDPad,CuDef*%
%ADD21R,0.800000X0.450000*%
%TD*%
%TA.AperFunction,SMDPad,CuDef*%
%ADD22R,1.250000X1.700000*%
%TD*%
%TA.AperFunction,SMDPad,CuDef*%
%ADD23C,1.000000*%
%TD*%
%TA.AperFunction,SMDPad,CuDef*%
%ADD24R,0.450000X1.000000*%
%TD*%
%TA.AperFunction,SMDPad,CuDef*%
%ADD25RoundRect,0.140000X-0.170000X0.140000X-0.170000X-0.140000X0.170000X-0.140000X0.170000X0.140000X0*%
%TD*%
%TA.AperFunction,SMDPad,CuDef*%
%ADD26R,0.700000X0.600000*%
%TD*%
%TA.AperFunction,SMDPad,CuDef*%
%ADD27R,0.600000X1.250000*%
%TD*%
%TA.AperFunction,SMDPad,CuDef*%
%ADD28R,0.600000X0.350000*%
%TD*%
%TA.AperFunction,SMDPad,CuDef*%
%ADD29R,1.100000X1.700000*%
%TD*%
%TA.AperFunction,SMDPad,CuDef*%
%ADD30RoundRect,0.140000X0.140000X0.170000X-0.140000X0.170000X-0.140000X-0.170000X0.140000X-0.170000X0*%
%TD*%
%TA.AperFunction,SMDPad,CuDef*%
%ADD31R,0.300000X0.600000*%
%TD*%
%TA.AperFunction,SMDPad,CuDef*%
%ADD32R,1.400000X1.200000*%
%TD*%
%TA.AperFunction,SMDPad,CuDef*%
%ADD33R,0.450000X1.425000*%
%TD*%
%TA.AperFunction,SMDPad,CuDef*%
%ADD34R,0.600000X0.700000*%
%TD*%
%TA.AperFunction,SMDPad,CuDef*%
%ADD35FreePoly0,180.000000*%
%TD*%
%TA.AperFunction,SMDPad,CuDef*%
%ADD36FreePoly1,180.000000*%
%TD*%
%TA.AperFunction,ViaPad*%
%ADD37C,0.600000*%
%TD*%
%TA.AperFunction,Conductor*%
%ADD38C,0.200000*%
%TD*%
%TA.AperFunction,Conductor*%
%ADD39C,0.300000*%
%TD*%
%TA.AperFunction,Conductor*%
%ADD40C,0.600000*%
%TD*%
G04 APERTURE END LIST*
D10*
%TO.P,R4,1*%
%TO.N,+1V8*%
X5844000Y-3048000D03*
%TO.P,R4,2*%
%TO.N,SCL1_1-8V*%
X4824000Y-3048000D03*
%TD*%
D11*
%TO.P,C4,1*%
%TO.N,+1V8*%
X-1242000Y2032000D03*
%TO.P,C4,2*%
%TO.N,GND*%
X-282000Y2032000D03*
%TD*%
D12*
%TO.P,R3,1*%
%TO.N,+1V8*%
X5838000Y1656000D03*
%TO.P,R3,2*%
%TO.N,SDA1_1-8V*%
X6858000Y1656000D03*
%TD*%
D13*
%TO.P,C10,1*%
%TO.N,3V3_GPIO*%
X2540000Y-10048000D03*
%TO.P,C10,2*%
%TO.N,GND*%
X2540000Y-9088000D03*
%TD*%
D11*
%TO.P,C8,1*%
%TO.N,+5V*%
X5772000Y-13220000D03*
%TO.P,C8,2*%
%TO.N,GND*%
X6732000Y-13220000D03*
%TD*%
D14*
%TO.P,J2,1,Pin_1*%
%TO.N,3V3_GPIO*%
X17780000Y8890000D03*
D15*
%TO.P,J2,2,Pin_2*%
%TO.N,GND*%
X15240000Y8890000D03*
%TO.P,J2,3,Pin_3*%
%TO.N,IO41*%
X17780000Y6350000D03*
%TO.P,J2,4,Pin_4*%
%TO.N,IO42*%
X15240000Y6350000D03*
%TO.P,J2,5,Pin_5*%
%TO.N,unconnected-(J2-Pin_5-Pad5)*%
X17780000Y3810000D03*
%TO.P,J2,6,Pin_6*%
%TO.N,unconnected-(J2-Pin_6-Pad6)*%
X15240000Y3810000D03*
%TO.P,J2,7,Pin_7*%
%TO.N,IO40_SCL1*%
X17780000Y1270000D03*
%TO.P,J2,8,Pin_8*%
%TO.N,IO39_SDA1*%
X15240000Y1270000D03*
%TO.P,J2,9,Pin_9*%
%TO.N,IO37_CS1*%
X17780000Y-1270000D03*
%TO.P,J2,10,Pin_10*%
%TO.N,IO38_SCLK1*%
X15240000Y-1270000D03*
%TO.P,J2,11,Pin_11*%
%TO.N,IO35_MISO1*%
X17780000Y-3810000D03*
%TO.P,J2,12,Pin_12*%
%TO.N,IO36_MOSI1*%
X15240000Y-3810000D03*
%TO.P,J2,13,Pin_13*%
%TO.N,IO34*%
X17780000Y-6350000D03*
%TO.P,J2,14,Pin_14*%
%TO.N,IO48*%
X15240000Y-6350000D03*
%TO.P,J2,15,Pin_15*%
%TO.N,3V3_GPIO*%
X17780000Y-8890000D03*
%TO.P,J2,16,Pin_16*%
%TO.N,GND*%
X15240000Y-8890000D03*
%TD*%
D16*
%TO.P,H1,1*%
%TO.N,N/C*%
X-16256000Y16256000D03*
%TD*%
D12*
%TO.P,JP3,1,A*%
%TO.N,GND*%
X-11432000Y-13970000D03*
%TO.P,JP3,2,B*%
%TO.N,Net-(IC1-E0)*%
X-10412000Y-13970000D03*
%TD*%
D13*
%TO.P,C1,1*%
%TO.N,3V3_GPIO*%
X-9652000Y-12926000D03*
%TO.P,C1,2*%
%TO.N,GND*%
X-9652000Y-11966000D03*
%TD*%
D10*
%TO.P,R12,1*%
%TO.N,LED_SIG*%
X9400000Y-14986000D03*
%TO.P,R12,2*%
%TO.N,Net-(LED1-DIN)*%
X8380000Y-14986000D03*
%TD*%
D17*
%TO.P,IC4,1,VDD*%
%TO.N,3V3_GPIO*%
X4334000Y15382000D03*
%TO.P,IC4,2,ADDR*%
X4334000Y14732000D03*
%TO.P,IC4,3,GND*%
%TO.N,GND*%
X4334000Y14082000D03*
%TO.P,IC4,4,SCL*%
%TO.N,IO40_SCL1*%
X6334000Y14082000D03*
%TO.P,IC4,5,INT*%
%TO.N,IO42*%
X6334000Y14732000D03*
%TO.P,IC4,6,SDA*%
%TO.N,IO39_SDA1*%
X6334000Y15382000D03*
D18*
%TO.P,IC4,7,EP*%
%TO.N,GND*%
X5334000Y14732000D03*
%TD*%
D10*
%TO.P,JP1,1,A*%
%TO.N,Net-(IC1-~{WC})*%
X-7616000Y-12954000D03*
%TO.P,JP1,2,B*%
%TO.N,3V3_GPIO*%
X-8636000Y-12954000D03*
%TD*%
D16*
%TO.P,H2,1*%
%TO.N,N/C*%
X16256000Y16256000D03*
%TD*%
D19*
%TO.P,R1,1*%
%TO.N,3V3_GPIO*%
X3810000Y1272000D03*
%TO.P,R1,2*%
%TO.N,IO40_SCL1*%
X3810000Y252000D03*
%TD*%
%TO.P,R7,1*%
%TO.N,3V3_GPIO*%
X7620000Y15752000D03*
%TO.P,R7,2*%
%TO.N,IO42*%
X7620000Y14732000D03*
%TD*%
%TO.P,R6,1*%
%TO.N,3V3_GPIO*%
X11684000Y3558000D03*
%TO.P,R6,2*%
%TO.N,IO40_SCL1*%
X11684000Y2538000D03*
%TD*%
D20*
%TO.P,R5,1*%
%TO.N,3V3_GPIO*%
X11684000Y252000D03*
%TO.P,R5,2*%
%TO.N,IO39_SDA1*%
X11684000Y1272000D03*
%TD*%
D16*
%TO.P,H3,1*%
%TO.N,N/C*%
X-16256000Y-16256000D03*
%TD*%
D10*
%TO.P,JP6,1,A*%
%TO.N,Net-(IC1-E2)*%
X-10414000Y-19050000D03*
%TO.P,JP6,2,B*%
%TO.N,3V3_GPIO*%
X-11434000Y-19050000D03*
%TD*%
D12*
%TO.P,JP7,1,A*%
%TO.N,GND*%
X-11434000Y-18034000D03*
%TO.P,JP7,2,B*%
%TO.N,Net-(IC1-E2)*%
X-10414000Y-18034000D03*
%TD*%
D20*
%TO.P,R2,1*%
%TO.N,3V3_GPIO*%
X7874000Y-2542000D03*
%TO.P,R2,2*%
%TO.N,IO39_SDA1*%
X7874000Y-1522000D03*
%TD*%
D16*
%TO.P,H4,1*%
%TO.N,N/C*%
X16256000Y-16256000D03*
%TD*%
D21*
%TO.P,IC2,1,VDD*%
%TO.N,+1V8*%
X-1130000Y762000D03*
%TO.P,IC2,2,VSS*%
%TO.N,GND*%
X-1130000Y-38000D03*
%TO.P,IC2,3,SDA*%
%TO.N,SDA1_1-8V*%
X-1130000Y-838000D03*
%TO.P,IC2,4,R*%
%TO.N,GND*%
X1270000Y-838000D03*
%TO.P,IC2,5,VDDH*%
%TO.N,+1V8*%
X1270000Y-38000D03*
%TO.P,IC2,6,SCL*%
%TO.N,SCL1_1-8V*%
X1270000Y762000D03*
D22*
%TO.P,IC2,7,EP*%
%TO.N,GND*%
X70000Y-38000D03*
%TD*%
D10*
%TO.P,R10,1*%
%TO.N,3V3_GPIO*%
X10924000Y-9398000D03*
%TO.P,R10,2*%
%TO.N,IO34*%
X9904000Y-9398000D03*
%TD*%
D23*
%TO.P,TP2,1,1*%
%TO.N,SDA1_1-8V*%
X-762000Y-3810000D03*
%TD*%
D11*
%TO.P,C2,1*%
%TO.N,3V3_GPIO*%
X4064000Y8636000D03*
%TO.P,C2,2*%
%TO.N,GND*%
X5024000Y8636000D03*
%TD*%
D13*
%TO.P,C12,1*%
%TO.N,Net-(IC6-CP+)*%
X7146000Y-10782000D03*
%TO.P,C12,2*%
%TO.N,Net-(IC6-CP-)*%
X7146000Y-9822000D03*
%TD*%
D23*
%TO.P,TP3,1,1*%
%TO.N,SCL1_1-8V*%
X1270000Y5588000D03*
%TD*%
D24*
%TO.P,IC7,1,S1*%
%TO.N,SCL1_1-8V*%
X5192000Y-1646000D03*
%TO.P,IC7,2,G1*%
%TO.N,+1V8*%
X5842000Y-1646000D03*
%TO.P,IC7,3,D2*%
%TO.N,IO39_SDA1*%
X6492000Y-1646000D03*
%TO.P,IC7,4,S2*%
%TO.N,SDA1_1-8V*%
X6492000Y254000D03*
%TO.P,IC7,5,G2*%
%TO.N,+1V8*%
X5842000Y254000D03*
%TO.P,IC7,6,D1*%
%TO.N,IO40_SCL1*%
X5192000Y254000D03*
%TD*%
D20*
%TO.P,R11,1*%
%TO.N,LED_SIG*%
X7874000Y-13210000D03*
%TO.P,R11,2*%
%TO.N,+5V*%
X7874000Y-12190000D03*
%TD*%
D25*
%TO.P,C7,1*%
%TO.N,3V3_GPIO*%
X3048000Y14818000D03*
%TO.P,C7,2*%
%TO.N,GND*%
X3048000Y13858000D03*
%TD*%
D26*
%TO.P,LED2,1,VDD*%
%TO.N,+5V*%
X1810000Y-15022000D03*
%TO.P,LED2,2,DOUT*%
%TO.N,Net-(LED2-DOUT)*%
X1810000Y-16522000D03*
%TO.P,LED2,3,GND*%
%TO.N,GND*%
X2710000Y-16522000D03*
%TO.P,LED2,4,DIN*%
%TO.N,Net-(LED1-DOUT)*%
X2710000Y-15022000D03*
%TD*%
%TO.P,LED3,1,VDD*%
%TO.N,+5V*%
X-2177000Y-15022000D03*
%TO.P,LED3,2,DOUT*%
%TO.N,unconnected-(LED3-DOUT-Pad2)*%
X-2177000Y-16522000D03*
%TO.P,LED3,3,GND*%
%TO.N,GND*%
X-1277000Y-16522000D03*
%TO.P,LED3,4,DIN*%
%TO.N,Net-(LED2-DOUT)*%
X-1277000Y-15022000D03*
%TD*%
D11*
%TO.P,C6,1*%
%TO.N,+5V*%
X1764000Y-13220000D03*
%TO.P,C6,2*%
%TO.N,GND*%
X2724000Y-13220000D03*
%TD*%
D27*
%TO.P,IC5,1,IN*%
%TO.N,3V3_GPIO*%
X5964000Y7072000D03*
%TO.P,IC5,2,GND*%
%TO.N,GND*%
X5014000Y7072000D03*
%TO.P,IC5,3,EN*%
%TO.N,3V3_GPIO*%
X4064000Y7072000D03*
%TO.P,IC5,4,N/C*%
%TO.N,unconnected-(IC5-N{slash}C-Pad4)*%
X4064000Y4572000D03*
%TO.P,IC5,5,OUT*%
%TO.N,+1V8*%
X5964000Y4572000D03*
%TD*%
D19*
%TO.P,R8,1*%
%TO.N,3V3_GPIO*%
X-7112000Y13464000D03*
%TO.P,R8,2*%
%TO.N,IO41*%
X-7112000Y12444000D03*
%TD*%
D10*
%TO.P,JP4,1,A*%
%TO.N,Net-(IC1-E1)*%
X-10414000Y-17018000D03*
%TO.P,JP4,2,B*%
%TO.N,3V3_GPIO*%
X-11434000Y-17018000D03*
%TD*%
D26*
%TO.P,LED1,1,VDD*%
%TO.N,+5V*%
X5842000Y-15010000D03*
%TO.P,LED1,2,DOUT*%
%TO.N,Net-(LED1-DOUT)*%
X5842000Y-16510000D03*
%TO.P,LED1,3,GND*%
%TO.N,GND*%
X6742000Y-16510000D03*
%TO.P,LED1,4,DIN*%
%TO.N,Net-(LED1-DIN)*%
X6742000Y-15010000D03*
%TD*%
D10*
%TO.P,JP2,1,A*%
%TO.N,Net-(IC1-E0)*%
X-10412000Y-14986000D03*
%TO.P,JP2,2,B*%
%TO.N,3V3_GPIO*%
X-11432000Y-14986000D03*
%TD*%
D13*
%TO.P,C3,1*%
%TO.N,+1V8*%
X7554000Y5342000D03*
%TO.P,C3,2*%
%TO.N,GND*%
X7554000Y6302000D03*
%TD*%
D12*
%TO.P,JP5,1,A*%
%TO.N,GND*%
X-11432000Y-16002000D03*
%TO.P,JP5,2,B*%
%TO.N,Net-(IC1-E1)*%
X-10412000Y-16002000D03*
%TD*%
D10*
%TO.P,R9,1*%
%TO.N,IO48*%
X5844000Y-7874000D03*
%TO.P,R9,2*%
%TO.N,GND*%
X4824000Y-7874000D03*
%TD*%
D28*
%TO.P,IC6,1,GND*%
%TO.N,GND*%
X3810000Y-9256000D03*
%TO.P,IC6,2,VIN*%
%TO.N,3V3_GPIO*%
X3810000Y-9906000D03*
%TO.P,IC6,3,VOUT*%
%TO.N,+5V*%
X3810000Y-10556000D03*
%TO.P,IC6,4,CP+*%
%TO.N,Net-(IC6-CP+)*%
X5910000Y-10556000D03*
%TO.P,IC6,5,CP-*%
%TO.N,Net-(IC6-CP-)*%
X5910000Y-9906000D03*
%TO.P,IC6,6,ENA*%
%TO.N,IO48*%
X5910000Y-9256000D03*
D29*
%TO.P,IC6,7,EP*%
%TO.N,GND*%
X4860000Y-9906000D03*
%TD*%
D30*
%TO.P,C5,1*%
%TO.N,3V3_GPIO*%
X-5870000Y4318000D03*
%TO.P,C5,2*%
%TO.N,GND*%
X-6830000Y4318000D03*
%TD*%
D14*
%TO.P,J1,1,Pin_1*%
%TO.N,GND*%
X-15220000Y8875000D03*
D15*
%TO.P,J1,2,Pin_2*%
%TO.N,3V3_GPIO*%
X-17760000Y8875000D03*
%TO.P,J1,3,Pin_3*%
%TO.N,IO1*%
X-15220000Y6335000D03*
%TO.P,J1,4,Pin_4*%
%TO.N,IO2*%
X-17760000Y6335000D03*
%TO.P,J1,5,Pin_5*%
%TO.N,IO4_MOSI0*%
X-15220000Y3795000D03*
%TO.P,J1,6,Pin_6*%
%TO.N,IO5_MISO0*%
X-17760000Y3795000D03*
%TO.P,J1,7,Pin_7*%
%TO.N,IO6_SCLK0*%
X-15220000Y1255000D03*
%TO.P,J1,8,Pin_8*%
%TO.N,IO7_CS0*%
X-17760000Y1255000D03*
%TO.P,J1,9,Pin_9*%
%TO.N,IO8_SDA0*%
X-15220000Y-1285000D03*
%TO.P,J1,10,Pin_10*%
%TO.N,IO9_SCL0*%
X-17760000Y-1285000D03*
%TO.P,J1,11,Pin_11*%
%TO.N,Net-(J1-Pin_11)*%
X-15220000Y-3825000D03*
%TO.P,J1,12,Pin_12*%
%TO.N,unconnected-(J1-Pin_12-Pad12)*%
X-17760000Y-3825000D03*
%TO.P,J1,13,Pin_13*%
%TO.N,IO11*%
X-15220000Y-6365000D03*
%TO.P,J1,14,Pin_14*%
%TO.N,IO10*%
X-17760000Y-6365000D03*
%TO.P,J1,15,Pin_15*%
%TO.N,GND*%
X-15220000Y-8905000D03*
%TO.P,J1,16,Pin_16*%
%TO.N,3V3_GPIO*%
X-17760000Y-8905000D03*
%TD*%
D11*
%TO.P,C11,1*%
%TO.N,+5V*%
X3810000Y-11826000D03*
%TO.P,C11,2*%
%TO.N,GND*%
X4770000Y-11826000D03*
%TD*%
%TO.P,C9,1*%
%TO.N,+5V*%
X-2356000Y-13220000D03*
%TO.P,C9,2*%
%TO.N,GND*%
X-1396000Y-13220000D03*
%TD*%
D31*
%TO.P,IC1,1,E0*%
%TO.N,Net-(IC1-E0)*%
X-8638000Y-17332000D03*
%TO.P,IC1,2,E1*%
%TO.N,Net-(IC1-E1)*%
X-8138000Y-17332000D03*
%TO.P,IC1,3,E2*%
%TO.N,Net-(IC1-E2)*%
X-7638000Y-17332000D03*
%TO.P,IC1,4,VSS*%
%TO.N,GND*%
X-7138000Y-17332000D03*
%TO.P,IC1,5,SDA*%
%TO.N,IO8_SDA0*%
X-7138000Y-14732000D03*
%TO.P,IC1,6,SCL*%
%TO.N,IO9_SCL0*%
X-7638000Y-14732000D03*
%TO.P,IC1,7,~{WC}*%
%TO.N,Net-(IC1-~{WC})*%
X-8138000Y-14732000D03*
%TO.P,IC1,8,VCC*%
%TO.N,3V3_GPIO*%
X-8638000Y-14732000D03*
D32*
%TO.P,IC1,9,EP*%
%TO.N,GND*%
X-7888000Y-16032000D03*
%TD*%
D33*
%TO.P,IC3,1,SDA*%
%TO.N,IO39_SDA1*%
X-5842000Y10414000D03*
%TO.P,IC3,2,SCL*%
%TO.N,IO40_SCL1*%
X-6492000Y10414000D03*
%TO.P,IC3,3,OS*%
%TO.N,IO41*%
X-7142000Y10414000D03*
%TO.P,IC3,4,GND*%
%TO.N,GND*%
X-7792000Y10414000D03*
%TO.P,IC3,5,A2*%
X-7792000Y5990000D03*
%TO.P,IC3,6,A1*%
X-7142000Y5990000D03*
%TO.P,IC3,7,A0*%
%TO.N,3V3_GPIO*%
X-6492000Y5990000D03*
%TO.P,IC3,8,VCC*%
X-5842000Y5990000D03*
%TD*%
D34*
%TO.P,Q3,1,G*%
%TO.N,3V3_GPIO*%
X11364000Y-10938000D03*
%TO.P,Q3,2,S*%
%TO.N,IO34*%
X9464000Y-10938000D03*
%TO.P,Q3,3,D*%
%TO.N,LED_SIG*%
X10414000Y-12938000D03*
%TD*%
D35*
%TO.P,JP8,1,A*%
%TO.N,+1V8*%
X-10488000Y-3810000D03*
D36*
%TO.P,JP8,2,B*%
%TO.N,Net-(J1-Pin_11)*%
X-11938000Y-3810000D03*
%TD*%
D37*
%TO.N,IO40_SCL1*%
X7112000Y-762000D03*
%TO.N,IO8_SDA0*%
X-6350000Y-13208000D03*
%TO.N,GND*%
X-6350000Y-17018000D03*
X-12192000Y-13970000D03*
X11684000Y6858000D03*
X7366000Y-14224000D03*
X-17780000Y11938000D03*
X4572000Y12700000D03*
X-12192000Y-18034000D03*
X0Y-14224000D03*
X2794000Y5842000D03*
X-11176000Y18034000D03*
X9144000Y11176000D03*
X12700000Y-4826000D03*
X-12192000Y-16002000D03*
X4318000Y-14224000D03*
X12700000Y-9906000D03*
X17780000Y12192000D03*
X670000Y2089687D03*
%TO.N,IO9_SCL0*%
X-7112000Y-13716000D03*
%TO.N,3V3_GPIO*%
X12192000Y-11938000D03*
X6096000Y8636000D03*
X10414000Y4318000D03*
X254000Y16764000D03*
X10414000Y254000D03*
X2540000Y-11176000D03*
X10414000Y-2032000D03*
X4318000Y2032000D03*
%TO.N,IO40_SCL1*%
X7112000Y11430000D03*
%TO.N,IO39_SDA1*%
X6350000Y16114000D03*
X6054429Y10830000D03*
%TO.N,IO40_SCL1*%
X4064000Y-762000D03*
%TO.N,SCL1_1-8V*%
X1270000Y4064000D03*
X1270000Y1524000D03*
X2032000Y-2540000D03*
%TO.N,SDA1_1-8V*%
X7274000Y254000D03*
X2540000Y-1016000D03*
%TD*%
D38*
%TO.N,IO40_SCL1*%
X7112000Y-756529D02*
X7112000Y-762000D01*
X8630529Y762000D02*
X7112000Y-756529D01*
X8636000Y762000D02*
X8630529Y762000D01*
X10412000Y2538000D02*
X8636000Y762000D01*
X11684000Y2538000D02*
X10412000Y2538000D01*
%TO.N,IO39_SDA1*%
X7874000Y-762000D02*
X7874000Y-1522000D01*
X9908000Y1272000D02*
X7874000Y-762000D01*
X11684000Y1272000D02*
X9908000Y1272000D01*
%TO.N,IO8_SDA0*%
X-6350000Y-13208000D02*
X-6350000Y-14211000D01*
X-6871000Y-14732000D02*
X-7138000Y-14732000D01*
X-6350000Y-14211000D02*
X-6871000Y-14732000D01*
%TO.N,GND*%
X5024000Y8636000D02*
X5024000Y7082000D01*
X-11432000Y-16002000D02*
X-12192000Y-16002000D01*
X-12192000Y-13970000D02*
X-11432000Y-13970000D01*
D39*
X-7142000Y5990000D02*
X-7792000Y5990000D01*
D38*
X612313Y2032000D02*
X670000Y2089687D01*
X6732000Y-13590000D02*
X7366000Y-14224000D01*
D39*
X-6350000Y-17018000D02*
X-6664000Y-17332000D01*
X870000Y-838000D02*
X70000Y-38000D01*
X-6664000Y-17332000D02*
X-7138000Y-17332000D01*
D38*
X6732000Y-13220000D02*
X6732000Y-13590000D01*
X3272000Y14082000D02*
X3048000Y13858000D01*
D39*
X1270000Y-838000D02*
X870000Y-838000D01*
D38*
X-282000Y2032000D02*
X612313Y2032000D01*
X4334000Y14082000D02*
X3272000Y14082000D01*
X5024000Y7082000D02*
X5014000Y7072000D01*
X-11434000Y-18034000D02*
X-12192000Y-18034000D01*
D39*
X-1130000Y-38000D02*
X70000Y-38000D01*
D38*
%TO.N,IO9_SCL0*%
X-7638000Y-14732000D02*
X-7638000Y-14242000D01*
X-7620000Y-14714000D02*
X-7638000Y-14732000D01*
X-7638000Y-14242000D02*
X-7112000Y-13716000D01*
D39*
%TO.N,IO6_SCLK0*%
X-14477182Y1255000D02*
X-15220000Y1255000D01*
%TO.N,3V3_GPIO*%
X5964000Y6397000D02*
X5409000Y5842000D01*
D38*
X-17300000Y-12926000D02*
X-17760000Y-12466000D01*
X-7112000Y13464000D02*
X-7112000Y16002000D01*
X11684000Y252000D02*
X10416000Y252000D01*
X-11434000Y-17018000D02*
X-12192000Y-17018000D01*
D39*
X2540000Y-10048000D02*
X2540000Y-11176000D01*
D38*
X-12192000Y-17018000D02*
X-12954000Y-17780000D01*
D39*
X5964000Y7072000D02*
X5964000Y8504000D01*
D40*
X-9871000Y16764000D02*
X-6350000Y16764000D01*
D39*
X2906000Y-10048000D02*
X3048000Y-9906000D01*
D38*
X-8638000Y-14732000D02*
X-8638000Y-12956000D01*
X4064000Y8636000D02*
X4064000Y7072000D01*
D39*
X5964000Y7072000D02*
X5964000Y6397000D01*
D38*
X-8638000Y-12956000D02*
X-8636000Y-12954000D01*
X-6492000Y6746000D02*
X-6492000Y5990000D01*
X-12954000Y-15748000D02*
X-12954000Y-16256000D01*
D40*
X254000Y16764000D02*
X5080000Y16764000D01*
D38*
X-12954000Y-18288000D02*
X-12192000Y-19050000D01*
D39*
X4826000Y16510000D02*
X4334000Y16018000D01*
D38*
X10416000Y252000D02*
X10414000Y254000D01*
D39*
X3048000Y-9906000D02*
X3810000Y-9906000D01*
D38*
X3810000Y1272000D02*
X3810000Y1524000D01*
D39*
X5409000Y5842000D02*
X4572000Y5842000D01*
X4572000Y5842000D02*
X4064000Y6350000D01*
X4064000Y6350000D02*
X4064000Y7072000D01*
D38*
X-7112000Y13464000D02*
X-8126000Y13464000D01*
D40*
X8128000Y16764000D02*
X5080000Y16764000D01*
D38*
X4334000Y14732000D02*
X4334000Y15382000D01*
X11684000Y3558000D02*
X11174000Y3558000D01*
D39*
X11364000Y-11110000D02*
X12192000Y-11938000D01*
D38*
X-12954000Y-14224000D02*
X-12192000Y-14986000D01*
X7874000Y-2542000D02*
X9904000Y-2542000D01*
X3134000Y14732000D02*
X3048000Y14818000D01*
X-8636000Y-12954000D02*
X-9370000Y-12954000D01*
X-8126000Y13464000D02*
X-8636000Y12954000D01*
X-17760000Y-12466000D02*
X-17760000Y-8905000D01*
X-5870000Y5962000D02*
X-5842000Y5990000D01*
X-12192000Y-19050000D02*
X-11434000Y-19050000D01*
X-11432000Y-14986000D02*
X-12192000Y-14986000D01*
X-7112000Y16002000D02*
X-6350000Y16764000D01*
X3810000Y1524000D02*
X4318000Y2032000D01*
D39*
X5080000Y16764000D02*
X4826000Y16510000D01*
D38*
X-8636000Y12954000D02*
X-8636000Y8890000D01*
D39*
X7620000Y16256000D02*
X7620000Y15752000D01*
X8128000Y16764000D02*
X7620000Y16256000D01*
D40*
X-6350000Y16764000D02*
X-5334000Y16764000D01*
D38*
X-5842000Y5990000D02*
X-6492000Y5990000D01*
X-12192000Y-14986000D02*
X-12954000Y-15748000D01*
D39*
X4334000Y16018000D02*
X4334000Y15382000D01*
D38*
X-12954000Y-16256000D02*
X-12192000Y-17018000D01*
X-9370000Y-12954000D02*
X-9398000Y-12926000D01*
X-5870000Y4318000D02*
X-5870000Y5962000D01*
X-12700000Y-12926000D02*
X-12954000Y-13180000D01*
X-12954000Y-13180000D02*
X-12954000Y-14224000D01*
D40*
X-17760000Y8875000D02*
X-9871000Y16764000D01*
D38*
X11174000Y3558000D02*
X10414000Y4318000D01*
D40*
X8128000Y16764000D02*
X9906000Y16764000D01*
D38*
X-9398000Y-12926000D02*
X-17300000Y-12926000D01*
D39*
X2540000Y-10048000D02*
X2906000Y-10048000D01*
X11364000Y-9838000D02*
X10924000Y-9398000D01*
D38*
X4334000Y14732000D02*
X3134000Y14732000D01*
X-8636000Y8890000D02*
X-6492000Y6746000D01*
D40*
X254000Y16764000D02*
X-5334000Y16764000D01*
X9906000Y16764000D02*
X17780000Y8890000D01*
D39*
X11364000Y-10938000D02*
X11364000Y-9838000D01*
D38*
X9904000Y-2542000D02*
X10414000Y-2032000D01*
D39*
X11364000Y-10938000D02*
X11364000Y-11110000D01*
D38*
X-12954000Y-17780000D02*
X-12954000Y-18288000D01*
D39*
X5964000Y8504000D02*
X6096000Y8636000D01*
D38*
%TO.N,IO34*%
X11362001Y-7620000D02*
X16510000Y-7620000D01*
X9464000Y-10938000D02*
X9464000Y-9838000D01*
X9904000Y-9078001D02*
X11362001Y-7620000D01*
X9904000Y-9398000D02*
X9904000Y-9078001D01*
X9464000Y-9838000D02*
X9904000Y-9398000D01*
X16510000Y-7620000D02*
X17780000Y-6350000D01*
%TO.N,IO41*%
X-7142000Y12414000D02*
X-7112000Y12444000D01*
X16510000Y5080000D02*
X17780000Y6350000D01*
X-7142000Y10414000D02*
X-7142000Y9428000D01*
X-7142000Y10414000D02*
X-7142000Y12414000D01*
X-4826000Y9144000D02*
X-3810000Y10160000D01*
X9398000Y10160000D02*
X14478000Y5080000D01*
X14478000Y5080000D02*
X16510000Y5080000D01*
X-3810000Y10160000D02*
X9398000Y10160000D01*
X-7142000Y9428000D02*
X-6858000Y9144000D01*
X-6858000Y9144000D02*
X-4826000Y9144000D01*
%TO.N,IO48*%
X9046000Y-9242000D02*
X11938000Y-6350000D01*
X5910000Y-9256000D02*
X5924000Y-9242000D01*
X5910000Y-7940000D02*
X5844000Y-7874000D01*
X5910000Y-9256000D02*
X5910000Y-7940000D01*
X5924000Y-9242000D02*
X6858000Y-9242000D01*
X11938000Y-6350000D02*
X15240000Y-6350000D01*
X6858000Y-9242000D02*
X9046000Y-9242000D01*
%TO.N,IO40_SCL1*%
X7112000Y11430000D02*
X7112000Y13304000D01*
X-6492000Y11288000D02*
X-6350000Y11430000D01*
X17780000Y1270000D02*
X16510000Y2540000D01*
X7112000Y13304000D02*
X6334000Y14082000D01*
X-6492000Y10414000D02*
X-6492000Y11288000D01*
X16508000Y2538000D02*
X16510000Y2540000D01*
X-6350000Y11430000D02*
X7112000Y11430000D01*
%TO.N,IO39_SDA1*%
X7874000Y-1522000D02*
X6616000Y-1522000D01*
X6616000Y-1522000D02*
X6492000Y-1646000D01*
%TO.N,IO40_SCL1*%
X11684000Y2538000D02*
X16508000Y2538000D01*
%TO.N,IO39_SDA1*%
X-4664000Y10830000D02*
X-5080000Y10414000D01*
X12700000Y1272000D02*
X12702000Y1270000D01*
X6334000Y16098000D02*
X6350000Y16114000D01*
X6334000Y15382000D02*
X6334000Y16098000D01*
X-5080000Y10414000D02*
X-5842000Y10414000D01*
X11684000Y1272000D02*
X12700000Y1272000D01*
X6054429Y10830000D02*
X-4664000Y10830000D01*
%TO.N,IO40_SCL1*%
X3810000Y-508000D02*
X4064000Y-762000D01*
X3812000Y254000D02*
X3810000Y252000D01*
X3810000Y252000D02*
X3810000Y-508000D01*
X5192000Y254000D02*
X3812000Y254000D01*
%TO.N,IO39_SDA1*%
X15240000Y1270000D02*
X12702000Y1270000D01*
%TO.N,IO42*%
X7620000Y13970000D02*
X15240000Y6350000D01*
X6334000Y14732000D02*
X7620000Y14732000D01*
X7620000Y14732000D02*
X7620000Y13970000D01*
D39*
X15128000Y6462000D02*
X15240000Y6350000D01*
D38*
%TO.N,Net-(IC1-E0)*%
X-9144000Y-15748000D02*
X-9144000Y-16826000D01*
X-9906000Y-14986000D02*
X-9144000Y-15748000D01*
X-10412000Y-14986000D02*
X-9906000Y-14986000D01*
X-10412000Y-13970000D02*
X-10412000Y-14986000D01*
X-9144000Y-16826000D02*
X-8638000Y-17332000D01*
%TO.N,Net-(IC1-~{WC})*%
X-8138000Y-13476000D02*
X-7616000Y-12954000D01*
X-8138000Y-14732000D02*
X-8138000Y-13476000D01*
%TO.N,Net-(IC1-E1)*%
X-10412000Y-17016000D02*
X-10414000Y-17018000D01*
X-8890000Y-18034000D02*
X-8382000Y-18034000D01*
X-10414000Y-17018000D02*
X-9906000Y-17018000D01*
X-8138000Y-17790000D02*
X-8138000Y-17332000D01*
X-10412000Y-16002000D02*
X-10412000Y-17016000D01*
X-9906000Y-17018000D02*
X-8890000Y-18034000D01*
X-8382000Y-18034000D02*
X-8138000Y-17790000D01*
%TO.N,Net-(IC1-E2)*%
X-10414000Y-18034000D02*
X-9906000Y-18034000D01*
X-10414000Y-19050000D02*
X-10414000Y-18034000D01*
X-9506000Y-18434000D02*
X-8216314Y-18434000D01*
X-8216314Y-18434000D02*
X-7638000Y-17855686D01*
X-9906000Y-18034000D02*
X-9506000Y-18434000D01*
X-7638000Y-17855686D02*
X-7638000Y-17332000D01*
%TO.N,Net-(LED1-DOUT)*%
X5842000Y-16510000D02*
X5588000Y-16510000D01*
X5588000Y-16510000D02*
X4100000Y-15022000D01*
X4100000Y-15022000D02*
X2710000Y-15022000D01*
D39*
%TO.N,+1V8*%
X5844000Y-1648000D02*
X5842000Y-1646000D01*
X5838000Y4446000D02*
X5964000Y4572000D01*
X-1242000Y2032000D02*
X-1242000Y874000D01*
X2286000Y2794000D02*
X5838000Y2794000D01*
X2286000Y2794000D02*
X2286000Y278000D01*
X-1130000Y762000D02*
X-4064000Y762000D01*
X-1242000Y2032000D02*
X-1242000Y2341999D01*
X7112000Y4572000D02*
X5964000Y4572000D01*
X5838000Y2794000D02*
X5838000Y4446000D01*
X1970000Y-38000D02*
X1270000Y-38000D01*
X-789999Y2794000D02*
X2286000Y2794000D01*
X7554000Y5342000D02*
X7554000Y5014000D01*
X-8636000Y-3810000D02*
X-10488000Y-3810000D01*
X-1242000Y2341999D02*
X-789999Y2794000D01*
X5844000Y-3048000D02*
X5844000Y-1648000D01*
X5842000Y-1646000D02*
X5842000Y254000D01*
X7554000Y5014000D02*
X7112000Y4572000D01*
X-1242000Y874000D02*
X-1130000Y762000D01*
X5838000Y1656000D02*
X5838000Y2794000D01*
X5838000Y1656000D02*
X5838000Y258000D01*
X5838000Y258000D02*
X5842000Y254000D01*
X2286000Y278000D02*
X1970000Y-38000D01*
X-4064000Y762000D02*
X-8636000Y-3810000D01*
D38*
%TO.N,Net-(LED2-DOUT)*%
X1810000Y-16522000D02*
X223000Y-16522000D01*
X223000Y-16522000D02*
X-1277000Y-15022000D01*
%TO.N,SCL1_1-8V*%
X5192000Y-2680000D02*
X4824000Y-3048000D01*
X5192000Y-1646000D02*
X5192000Y-2680000D01*
X4824000Y-3048000D02*
X2540000Y-3048000D01*
X2540000Y-3048000D02*
X2032000Y-2540000D01*
X1270000Y1524000D02*
X1270000Y762000D01*
X1270000Y4064000D02*
X1270000Y5588000D01*
%TO.N,SDA1_1-8V*%
X6492000Y254000D02*
X7274000Y254000D01*
X1778000Y-1778000D02*
X2540000Y-1016000D01*
X-1130000Y-838000D02*
X-1130000Y-1410000D01*
X-762000Y-1778000D02*
X1778000Y-1778000D01*
X-762000Y-1778000D02*
X-762000Y-3810000D01*
X6492000Y254000D02*
X6492000Y1290000D01*
X-1130000Y-1410000D02*
X-762000Y-1778000D01*
X6492000Y1290000D02*
X6858000Y1656000D01*
D39*
%TO.N,Net-(J1-Pin_11)*%
X-11938000Y-3810000D02*
X-15205000Y-3810000D01*
X-15205000Y-3810000D02*
X-15220000Y-3825000D01*
%TO.N,+5V*%
X-1008846Y-11826000D02*
X2848001Y-11826000D01*
X5772000Y-12910001D02*
X5772000Y-13220000D01*
X5842000Y-13290000D02*
X5772000Y-13220000D01*
X1810000Y-13266000D02*
X1764000Y-13220000D01*
X-2177000Y-14079000D02*
X-2356000Y-13900000D01*
X5772000Y-13220000D02*
X4894001Y-13220000D01*
X1764000Y-12910001D02*
X2848001Y-11826000D01*
X-2356000Y-13220000D02*
X-2356000Y-13173154D01*
X4894001Y-13220000D02*
X3810000Y-12135999D01*
X7874000Y-12190000D02*
X6492001Y-12190000D01*
X-2177000Y-15022000D02*
X-2177000Y-14079000D01*
X1810000Y-15022000D02*
X1810000Y-13266000D01*
X2848001Y-11826000D02*
X3810000Y-11826000D01*
X6492001Y-12190000D02*
X5772000Y-12910001D01*
X3810000Y-12135999D02*
X3810000Y-11826000D01*
X-2356000Y-13173154D02*
X-1008846Y-11826000D01*
X3810000Y-10556000D02*
X3810000Y-11826000D01*
X-2356000Y-13900000D02*
X-2356000Y-13220000D01*
X5842000Y-15010000D02*
X5842000Y-13290000D01*
X1764000Y-13220000D02*
X1764000Y-12910001D01*
D38*
%TO.N,Net-(IC6-CP+)*%
X6492000Y-10556000D02*
X5910000Y-10556000D01*
X6718000Y-10782000D02*
X6492000Y-10556000D01*
X7146000Y-10782000D02*
X6718000Y-10782000D01*
%TO.N,Net-(IC6-CP-)*%
X5910000Y-9906000D02*
X7062000Y-9906000D01*
X7062000Y-9906000D02*
X7146000Y-9822000D01*
%TO.N,Net-(LED1-DIN)*%
X6766000Y-14986000D02*
X6742000Y-15010000D01*
X8380000Y-14986000D02*
X6766000Y-14986000D01*
%TO.N,LED_SIG*%
X7874000Y-13210000D02*
X8634000Y-13210000D01*
X10414000Y-13972000D02*
X9400000Y-14986000D01*
X8634000Y-13210000D02*
X8906000Y-12938000D01*
X10414000Y-12938000D02*
X10414000Y-13972000D01*
X8906000Y-12938000D02*
X10414000Y-12938000D01*
%TD*%
%TA.AperFunction,Conductor*%
%TO.N,GND*%
G36*
X1528074Y-12296185D02*
G01*
X1573829Y-12348989D01*
X1583773Y-12418147D01*
X1554748Y-12481703D01*
X1548716Y-12488181D01*
X1403513Y-12633383D01*
X1403506Y-12633392D01*
X1384389Y-12666503D01*
X1350641Y-12704268D01*
X1309001Y-12735001D01*
X1230147Y-12841844D01*
X1186291Y-12967173D01*
X1186289Y-12967185D01*
X1183500Y-12996929D01*
X1183500Y-13443070D01*
X1186289Y-13472814D01*
X1186291Y-13472826D01*
X1230147Y-13598157D01*
X1230148Y-13598158D01*
X1308999Y-13704998D01*
X1309128Y-13705093D01*
X1309235Y-13705234D01*
X1315572Y-13711571D01*
X1314705Y-13712437D01*
X1351382Y-13760738D01*
X1359500Y-13804867D01*
X1359500Y-14357087D01*
X1339815Y-14424126D01*
X1295927Y-14462154D01*
X1296713Y-14463301D01*
X1287236Y-14469792D01*
X1207793Y-14549236D01*
X1162415Y-14652006D01*
X1162415Y-14652008D01*
X1159500Y-14677131D01*
X1159500Y-15366856D01*
X1159502Y-15366882D01*
X1162413Y-15391987D01*
X1162415Y-15391991D01*
X1207793Y-15494764D01*
X1207794Y-15494765D01*
X1287235Y-15574206D01*
X1390009Y-15619585D01*
X1415135Y-15622500D01*
X1953942Y-15622499D01*
X2020980Y-15642183D01*
X2066735Y-15694987D01*
X2076679Y-15764146D01*
X2047654Y-15827702D01*
X2028253Y-15845765D01*
X2002811Y-15864810D01*
X2002804Y-15864817D01*
X1997567Y-15871814D01*
X1941632Y-15913683D01*
X1898303Y-15921500D01*
X1415143Y-15921500D01*
X1415117Y-15921502D01*
X1390012Y-15924413D01*
X1390008Y-15924415D01*
X1287235Y-15969793D01*
X1207794Y-16049234D01*
X1201301Y-16058714D01*
X1199921Y-16057768D01*
X1163436Y-16100963D01*
X1096650Y-16121490D01*
X1095088Y-16121500D01*
X440255Y-16121500D01*
X373216Y-16101815D01*
X352574Y-16085181D01*
X-590182Y-15142425D01*
X-623667Y-15081102D01*
X-626501Y-15054744D01*
X-626501Y-14677143D01*
X-626501Y-14677136D01*
X-626503Y-14677117D01*
X-629414Y-14652012D01*
X-629415Y-14652010D01*
X-629415Y-14652009D01*
X-674794Y-14549235D01*
X-754235Y-14469794D01*
X-771538Y-14462154D01*
X-857008Y-14424415D01*
X-882132Y-14421500D01*
X-1602500Y-14421500D01*
X-1669539Y-14401815D01*
X-1715294Y-14349011D01*
X-1726500Y-14297500D01*
X-1726500Y-14146905D01*
X-1706815Y-14079866D01*
X-1676952Y-14047744D01*
X-1646000Y-14024504D01*
X-1646000Y-14024503D01*
X-1146000Y-14024503D01*
X-999805Y-13982031D01*
X-860626Y-13899721D01*
X-860617Y-13899714D01*
X-746286Y-13785383D01*
X-746279Y-13785374D01*
X-663969Y-13646195D01*
X-663967Y-13646190D01*
X-618856Y-13490918D01*
X-618855Y-13490912D01*
X-617210Y-13470000D01*
X-1146000Y-13470000D01*
X-1146000Y-14024503D01*
X-1646000Y-14024503D01*
X-1646000Y-13344000D01*
X-1626315Y-13276961D01*
X-1573511Y-13231206D01*
X-1522000Y-13220000D01*
X-1396000Y-13220000D01*
X-1396000Y-13094000D01*
X-1376315Y-13026961D01*
X-1323511Y-12981206D01*
X-1272000Y-12970000D01*
X-617210Y-12970000D01*
X-618855Y-12949089D01*
X-663969Y-12793804D01*
X-746279Y-12654625D01*
X-746286Y-12654616D01*
X-860617Y-12540285D01*
X-860625Y-12540279D01*
X-864666Y-12537889D01*
X-912348Y-12486818D01*
X-924849Y-12418076D01*
X-898201Y-12353487D01*
X-889239Y-12343495D01*
X-858559Y-12312815D01*
X-797237Y-12279333D01*
X-770881Y-12276500D01*
X1461035Y-12276500D01*
X1528074Y-12296185D01*
G37*
%TD.AperFunction*%
%TA.AperFunction,Conductor*%
G36*
X3604754Y-12567959D02*
G01*
X3607810Y-12570912D01*
X4617387Y-13580489D01*
X4720114Y-13639799D01*
X4744322Y-13646284D01*
X4744325Y-13646286D01*
X4744326Y-13646286D01*
X4765125Y-13651859D01*
X4834692Y-13670500D01*
X5231140Y-13670500D01*
X5298179Y-13690185D01*
X5311777Y-13701143D01*
X5316999Y-13704997D01*
X5317001Y-13704999D01*
X5341134Y-13722810D01*
X5383384Y-13778455D01*
X5391500Y-13822579D01*
X5391500Y-14345087D01*
X5371815Y-14412126D01*
X5327927Y-14450154D01*
X5328713Y-14451301D01*
X5319236Y-14457792D01*
X5239793Y-14537236D01*
X5194415Y-14640006D01*
X5194415Y-14640008D01*
X5191500Y-14665131D01*
X5191500Y-15247745D01*
X5171815Y-15314784D01*
X5119011Y-15360539D01*
X5049853Y-15370483D01*
X4986297Y-15341458D01*
X4979819Y-15335426D01*
X4345915Y-14701522D01*
X4345913Y-14701520D01*
X4300250Y-14675156D01*
X4254589Y-14648793D01*
X4203657Y-14635146D01*
X4152727Y-14621500D01*
X4152726Y-14621500D01*
X3424912Y-14621500D01*
X3357873Y-14601815D01*
X3319845Y-14557928D01*
X3318699Y-14558714D01*
X3312205Y-14549234D01*
X3232765Y-14469794D01*
X3129992Y-14424415D01*
X3104868Y-14421500D01*
X2384500Y-14421500D01*
X2317461Y-14401815D01*
X2271706Y-14349011D01*
X2260500Y-14297500D01*
X2260500Y-14127630D01*
X2280185Y-14060591D01*
X2332989Y-14014836D01*
X2402147Y-14004892D01*
X2419094Y-14008553D01*
X2474000Y-14024504D01*
X2474000Y-14024503D01*
X2974000Y-14024503D01*
X3120195Y-13982031D01*
X3259374Y-13899721D01*
X3259383Y-13899714D01*
X3373714Y-13785383D01*
X3373721Y-13785374D01*
X3456031Y-13646195D01*
X3456033Y-13646190D01*
X3501144Y-13490918D01*
X3501145Y-13490912D01*
X3502790Y-13470000D01*
X2974000Y-13470000D01*
X2974000Y-14024503D01*
X2474000Y-14024503D01*
X2474000Y-13344000D01*
X2493685Y-13276961D01*
X2546489Y-13231206D01*
X2598000Y-13220000D01*
X2724000Y-13220000D01*
X2724000Y-13094000D01*
X2743685Y-13026961D01*
X2796489Y-12981206D01*
X2848000Y-12970000D01*
X3502790Y-12970000D01*
X3501145Y-12949089D01*
X3456031Y-12793804D01*
X3413397Y-12721714D01*
X3396214Y-12653991D01*
X3418374Y-12587728D01*
X3472840Y-12543964D01*
X3542320Y-12536595D01*
X3604754Y-12567959D01*
G37*
%TD.AperFunction*%
%TA.AperFunction,Conductor*%
G36*
X6925039Y-13239685D02*
G01*
X6970794Y-13292489D01*
X6982000Y-13344000D01*
X6982000Y-14024503D01*
X7128195Y-13982031D01*
X7267374Y-13899721D01*
X7267383Y-13899714D01*
X7387236Y-13779862D01*
X7388759Y-13781385D01*
X7436432Y-13746950D01*
X7506199Y-13743155D01*
X7518733Y-13746813D01*
X7607119Y-13777741D01*
X7614735Y-13778455D01*
X7636543Y-13780500D01*
X8111456Y-13780499D01*
X8140879Y-13777741D01*
X8264794Y-13734381D01*
X8370423Y-13656423D01*
X8370428Y-13656415D01*
X8376997Y-13649849D01*
X8379007Y-13651859D01*
X8422787Y-13618617D01*
X8466914Y-13610500D01*
X8686725Y-13610500D01*
X8686727Y-13610500D01*
X8788588Y-13583207D01*
X8879913Y-13530480D01*
X9035574Y-13374819D01*
X9096897Y-13341334D01*
X9123255Y-13338500D01*
X9727011Y-13338500D01*
X9794050Y-13358185D01*
X9839805Y-13410989D01*
X9840392Y-13412295D01*
X9861794Y-13460765D01*
X9861795Y-13460766D01*
X9941234Y-13540205D01*
X9950714Y-13546699D01*
X9949768Y-13548078D01*
X9992963Y-13584564D01*
X10013490Y-13651350D01*
X10013500Y-13652912D01*
X10013500Y-13754744D01*
X9993815Y-13821783D01*
X9977181Y-13842425D01*
X9490424Y-14329181D01*
X9429101Y-14362666D01*
X9402744Y-14365500D01*
X9212546Y-14365500D01*
X9183125Y-14368258D01*
X9183115Y-14368260D01*
X9059205Y-14411619D01*
X9059204Y-14411619D01*
X8963633Y-14482154D01*
X8898004Y-14506125D01*
X8829834Y-14490809D01*
X8816367Y-14482154D01*
X8720794Y-14411619D01*
X8596880Y-14368258D01*
X8567461Y-14365500D01*
X8192546Y-14365500D01*
X8163125Y-14368258D01*
X8163115Y-14368260D01*
X8039207Y-14411618D01*
X7933577Y-14489577D01*
X7933574Y-14489580D01*
X7899954Y-14535134D01*
X7844306Y-14577384D01*
X7800184Y-14585500D01*
X7442629Y-14585500D01*
X7375590Y-14565815D01*
X7353412Y-14544278D01*
X7352331Y-14545360D01*
X7264765Y-14457794D01*
X7161992Y-14412415D01*
X7136868Y-14409500D01*
X6416500Y-14409500D01*
X6349461Y-14389815D01*
X6303706Y-14337011D01*
X6292500Y-14285500D01*
X6292500Y-14134602D01*
X6312185Y-14067563D01*
X6364989Y-14021808D01*
X6434147Y-14011864D01*
X6451095Y-14015526D01*
X6482000Y-14024504D01*
X6482000Y-13344000D01*
X6501685Y-13276961D01*
X6554489Y-13231206D01*
X6606000Y-13220000D01*
X6858000Y-13220000D01*
X6925039Y-13239685D01*
G37*
%TD.AperFunction*%
%TA.AperFunction,Conductor*%
G36*
X15503351Y19479815D02*
G01*
X15549106Y19427011D01*
X15559050Y19357853D01*
X15530025Y19294297D01*
X15471247Y19256523D01*
X15470640Y19256346D01*
X15230356Y19187121D01*
X15136124Y19148089D01*
X14908625Y19053856D01*
X14603835Y18885405D01*
X14319823Y18683887D01*
X14060161Y18451839D01*
X13828113Y18192177D01*
X13626595Y17908165D01*
X13458144Y17603375D01*
X13324878Y17281641D01*
X13228474Y16947018D01*
X13228472Y16947010D01*
X13170142Y16603701D01*
X13170140Y16603689D01*
X13150615Y16256000D01*
X13170140Y15908312D01*
X13170142Y15908300D01*
X13228472Y15564991D01*
X13228474Y15564983D01*
X13268513Y15426005D01*
X13324879Y15230356D01*
X13403385Y15040827D01*
X13457777Y14909511D01*
X13458145Y14908624D01*
X13626595Y14603836D01*
X13828112Y14319824D01*
X14060161Y14060161D01*
X14319824Y13828112D01*
X14603836Y13626595D01*
X14908624Y13458145D01*
X15230356Y13324879D01*
X15564987Y13228473D01*
X15908307Y13170141D01*
X16256000Y13150615D01*
X16603693Y13170141D01*
X16947013Y13228473D01*
X17281644Y13324879D01*
X17603376Y13458145D01*
X17908164Y13626595D01*
X18192176Y13828112D01*
X18451839Y14060161D01*
X18683888Y14319824D01*
X18885405Y14603836D01*
X19053855Y14908624D01*
X19187121Y15230356D01*
X19256346Y15470642D01*
X19293820Y15529611D01*
X19357227Y15558959D01*
X19426436Y15549369D01*
X19479472Y15503884D01*
X19499498Y15436945D01*
X19499500Y15436313D01*
X19499500Y-15436312D01*
X19479815Y-15503351D01*
X19427011Y-15549106D01*
X19357853Y-15559050D01*
X19294297Y-15530025D01*
X19256523Y-15471247D01*
X19256346Y-15470640D01*
X19232108Y-15386510D01*
X19187121Y-15230356D01*
X19053855Y-14908624D01*
X18885405Y-14603836D01*
X18683888Y-14319824D01*
X18451839Y-14060161D01*
X18192176Y-13828112D01*
X17908164Y-13626595D01*
X17603376Y-13458145D01*
X17603371Y-13458143D01*
X17492972Y-13412414D01*
X17281644Y-13324879D01*
X17015119Y-13248094D01*
X16947017Y-13228474D01*
X16947009Y-13228472D01*
X16603700Y-13170142D01*
X16603688Y-13170140D01*
X16256000Y-13150615D01*
X15908311Y-13170140D01*
X15908299Y-13170142D01*
X15564990Y-13228472D01*
X15564982Y-13228474D01*
X15230359Y-13324878D01*
X15230356Y-13324879D01*
X15164255Y-13352259D01*
X14908625Y-13458144D01*
X14603835Y-13626595D01*
X14444450Y-13739685D01*
X14319824Y-13828112D01*
X14060161Y-14060161D01*
X13828112Y-14319824D01*
X13769936Y-14401815D01*
X13626595Y-14603835D01*
X13458144Y-14908625D01*
X13386702Y-15081102D01*
X13343083Y-15186409D01*
X13324878Y-15230359D01*
X13228474Y-15564982D01*
X13228472Y-15564990D01*
X13170142Y-15908299D01*
X13170140Y-15908311D01*
X13150615Y-16256000D01*
X13170140Y-16603688D01*
X13170142Y-16603700D01*
X13227652Y-16942185D01*
X13228473Y-16947013D01*
X13324879Y-17281644D01*
X13458145Y-17603376D01*
X13626595Y-17908164D01*
X13828112Y-18192176D01*
X14060161Y-18451839D01*
X14319824Y-18683888D01*
X14603836Y-18885405D01*
X14908624Y-19053855D01*
X15230356Y-19187121D01*
X15461319Y-19253660D01*
X15470640Y-19256346D01*
X15529610Y-19293820D01*
X15558958Y-19357227D01*
X15549368Y-19426436D01*
X15503882Y-19479472D01*
X15436944Y-19499498D01*
X15436312Y-19499500D01*
X-9735399Y-19499500D01*
X-9802438Y-19479815D01*
X-9848193Y-19427011D01*
X-9858137Y-19357853D01*
X-9852440Y-19334544D01*
X-9846259Y-19316878D01*
X-9844293Y-19295910D01*
X-9843500Y-19287457D01*
X-9843501Y-18916374D01*
X-9823817Y-18849336D01*
X-9771013Y-18803581D01*
X-9701854Y-18793637D01*
X-9668542Y-18805168D01*
X-9668097Y-18804096D01*
X-9660594Y-18807203D01*
X-9660587Y-18807207D01*
X-9558727Y-18834500D01*
X-9558725Y-18834500D01*
X-8163589Y-18834500D01*
X-8163587Y-18834500D01*
X-8061726Y-18807207D01*
X-7970401Y-18754480D01*
X-7402295Y-18186371D01*
X-7402290Y-18186368D01*
X-7392089Y-18176166D01*
X-7392087Y-18176166D01*
X-7384241Y-18168319D01*
X-7322920Y-18134835D01*
X-7296559Y-18132000D01*
X-7288000Y-18132000D01*
X-7288000Y-18083693D01*
X-7271386Y-18021692D01*
X-7264793Y-18010273D01*
X-7237499Y-17908412D01*
X-7237499Y-17834783D01*
X-7226934Y-17784698D01*
X-7225435Y-17781301D01*
X-7180349Y-17727926D01*
X-7113564Y-17707398D01*
X-7046281Y-17726236D01*
X-6999864Y-17778458D01*
X-6988000Y-17831388D01*
X-6988000Y-18132000D01*
X-6940172Y-18132000D01*
X-6940156Y-18131999D01*
X-6880628Y-18125598D01*
X-6880621Y-18125596D01*
X-6745914Y-18075354D01*
X-6745907Y-18075350D01*
X-6630813Y-17989190D01*
X-6630810Y-17989187D01*
X-6544650Y-17874093D01*
X-6544646Y-17874086D01*
X-6494404Y-17739379D01*
X-6494402Y-17739372D01*
X-6488001Y-17679844D01*
X-6488000Y-17679827D01*
X-6488000Y-17482000D01*
X-7014000Y-17482000D01*
X-7081039Y-17462315D01*
X-7126794Y-17409511D01*
X-7138000Y-17358000D01*
X-7138000Y-17306000D01*
X-7118315Y-17238961D01*
X-7065511Y-17193206D01*
X-7014000Y-17182000D01*
X-6488000Y-17182000D01*
X-6488000Y-16984172D01*
X-6488001Y-16984155D01*
X-6494402Y-16924627D01*
X-6494404Y-16924620D01*
X-6544646Y-16789913D01*
X-6544650Y-16789906D01*
X-6630809Y-16674814D01*
X-6630817Y-16674806D01*
X-6638313Y-16669194D01*
X-6680183Y-16613260D01*
X-6688000Y-16569929D01*
X-6688000Y-16282000D01*
X-7764000Y-16282000D01*
X-7831039Y-16262315D01*
X-7876794Y-16209511D01*
X-7888000Y-16158000D01*
X-7888000Y-15906000D01*
X-7868315Y-15838961D01*
X-7815511Y-15793206D01*
X-7764000Y-15782000D01*
X-6688000Y-15782000D01*
X-6688000Y-15384172D01*
X-6688001Y-15384155D01*
X-6694402Y-15324627D01*
X-6694403Y-15324623D01*
X-6719960Y-15256101D01*
X-6724944Y-15186409D01*
X-6717216Y-15162688D01*
X-6699784Y-15123209D01*
X-6654700Y-15069836D01*
X-6648349Y-15065910D01*
X-6638951Y-15060484D01*
X-6625087Y-15052480D01*
X-6029520Y-14456913D01*
X-5976793Y-14365588D01*
X-5949500Y-14263727D01*
X-5949500Y-14158273D01*
X-5949500Y-13714580D01*
X-5929815Y-13647541D01*
X-5923876Y-13639093D01*
X-5921721Y-13636283D01*
X-5921718Y-13636282D01*
X-5825464Y-13510841D01*
X-5764956Y-13364762D01*
X-5744318Y-13208000D01*
X-5753960Y-13134765D01*
X-5764956Y-13051239D01*
X-5764956Y-13051238D01*
X-5787452Y-12996929D01*
X-2936500Y-12996929D01*
X-2936500Y-13443070D01*
X-2933711Y-13472814D01*
X-2933709Y-13472826D01*
X-2889853Y-13598155D01*
X-2889852Y-13598157D01*
X-2830730Y-13678264D01*
X-2806759Y-13743893D01*
X-2806500Y-13751898D01*
X-2806500Y-13959308D01*
X-2788972Y-14024726D01*
X-2788971Y-14024726D01*
X-2788971Y-14024727D01*
X-2777493Y-14067563D01*
X-2775798Y-14073890D01*
X-2763941Y-14094426D01*
X-2716489Y-14176614D01*
X-2716487Y-14176616D01*
X-2663819Y-14229284D01*
X-2630334Y-14290607D01*
X-2627500Y-14316965D01*
X-2627500Y-14357087D01*
X-2647185Y-14424126D01*
X-2691073Y-14462154D01*
X-2690287Y-14463301D01*
X-2699764Y-14469792D01*
X-2779207Y-14549236D01*
X-2824585Y-14652006D01*
X-2824585Y-14652008D01*
X-2827500Y-14677131D01*
X-2827500Y-15366856D01*
X-2827498Y-15366882D01*
X-2824587Y-15391987D01*
X-2824585Y-15391991D01*
X-2779207Y-15494764D01*
X-2779206Y-15494765D01*
X-2699765Y-15574206D01*
X-2596991Y-15619585D01*
X-2571865Y-15622500D01*
X-2033058Y-15622499D01*
X-1966020Y-15642183D01*
X-1920265Y-15694987D01*
X-1910321Y-15764146D01*
X-1939346Y-15827702D01*
X-1958747Y-15845765D01*
X-1984189Y-15864810D01*
X-1984196Y-15864817D01*
X-1989433Y-15871814D01*
X-2045368Y-15913683D01*
X-2088697Y-15921500D01*
X-2571857Y-15921500D01*
X-2571883Y-15921502D01*
X-2596988Y-15924413D01*
X-2596992Y-15924415D01*
X-2699765Y-15969793D01*
X-2779206Y-16049234D01*
X-2824585Y-16152006D01*
X-2824585Y-16152008D01*
X-2827500Y-16177131D01*
X-2827500Y-16866856D01*
X-2827498Y-16866882D01*
X-2824587Y-16891987D01*
X-2824585Y-16891991D01*
X-2779207Y-16994764D01*
X-2779206Y-16994765D01*
X-2699765Y-17074206D01*
X-2596991Y-17119585D01*
X-2571865Y-17122500D01*
X-2088696Y-17122499D01*
X-2021658Y-17142183D01*
X-1989433Y-17172185D01*
X-1984193Y-17179185D01*
X-1984187Y-17179190D01*
X-1869089Y-17265352D01*
X-1869087Y-17265354D01*
X-1734380Y-17315596D01*
X-1734373Y-17315598D01*
X-1674845Y-17321999D01*
X-1674828Y-17322000D01*
X-1527000Y-17322000D01*
X-1527000Y-16878340D01*
X-1526544Y-16870442D01*
X-1526707Y-16870433D01*
X-1526502Y-16866882D01*
X-1526500Y-16866865D01*
X-1526501Y-16645998D01*
X-1506817Y-16578961D01*
X-1454013Y-16533206D01*
X-1402501Y-16522000D01*
X-1151000Y-16522000D01*
X-1083961Y-16541685D01*
X-1038206Y-16594489D01*
X-1027000Y-16646000D01*
X-1027000Y-17322000D01*
X-879172Y-17322000D01*
X-879156Y-17321999D01*
X-819628Y-17315598D01*
X-819621Y-17315596D01*
X-684914Y-17265354D01*
X-684907Y-17265350D01*
X-569813Y-17179190D01*
X-569810Y-17179187D01*
X-483650Y-17064093D01*
X-483646Y-17064086D01*
X-433404Y-16929379D01*
X-433402Y-16929372D01*
X-427001Y-16869844D01*
X-427000Y-16869827D01*
X-427000Y-16737755D01*
X-407315Y-16670716D01*
X-354511Y-16624961D01*
X-285353Y-16615017D01*
X-221797Y-16644042D01*
X-215319Y-16650074D01*
X-97481Y-16767912D01*
X-97480Y-16767913D01*
X-22913Y-16842480D01*
X68413Y-16895207D01*
X170273Y-16922500D01*
X275727Y-16922500D01*
X1095088Y-16922500D01*
X1162127Y-16942185D01*
X1200154Y-16986071D01*
X1201301Y-16985286D01*
X1207794Y-16994765D01*
X1287235Y-17074206D01*
X1390009Y-17119585D01*
X1415135Y-17122500D01*
X1898304Y-17122499D01*
X1965342Y-17142183D01*
X1997567Y-17172185D01*
X2002807Y-17179185D01*
X2002813Y-17179190D01*
X2117911Y-17265352D01*
X2117913Y-17265354D01*
X2252620Y-17315596D01*
X2252627Y-17315598D01*
X2312155Y-17321999D01*
X2312172Y-17322000D01*
X2460000Y-17322000D01*
X2960000Y-17322000D01*
X3107828Y-17322000D01*
X3107844Y-17321999D01*
X3167372Y-17315598D01*
X3167379Y-17315596D01*
X3302086Y-17265354D01*
X3302093Y-17265350D01*
X3417187Y-17179190D01*
X3417190Y-17179187D01*
X3503350Y-17064093D01*
X3503354Y-17064086D01*
X3553596Y-16929379D01*
X3553598Y-16929372D01*
X3559999Y-16869844D01*
X3560000Y-16869827D01*
X3560000Y-16772000D01*
X2960000Y-16772000D01*
X2960000Y-17322000D01*
X2460000Y-17322000D01*
X2460000Y-16878340D01*
X2460456Y-16870442D01*
X2460293Y-16870433D01*
X2460498Y-16866882D01*
X2460500Y-16866865D01*
X2460499Y-16645998D01*
X2480183Y-16578961D01*
X2532987Y-16533206D01*
X2584499Y-16522000D01*
X2710000Y-16522000D01*
X2710000Y-16396000D01*
X2729685Y-16328961D01*
X2782489Y-16283206D01*
X2834000Y-16272000D01*
X3560000Y-16272000D01*
X3560000Y-16174172D01*
X3559999Y-16174155D01*
X3553598Y-16114627D01*
X3553596Y-16114620D01*
X3503354Y-15979913D01*
X3503350Y-15979906D01*
X3417190Y-15864812D01*
X3417187Y-15864809D01*
X3302093Y-15778649D01*
X3302085Y-15778645D01*
X3283474Y-15771703D01*
X3227541Y-15729830D01*
X3203126Y-15664366D01*
X3217979Y-15596093D01*
X3239123Y-15567847D01*
X3312206Y-15494765D01*
X3312207Y-15494760D01*
X3318699Y-15485286D01*
X3320078Y-15486231D01*
X3356564Y-15443037D01*
X3423350Y-15422510D01*
X3424912Y-15422500D01*
X3882745Y-15422500D01*
X3949784Y-15442185D01*
X3970426Y-15458819D01*
X5155181Y-16643573D01*
X5188666Y-16704896D01*
X5191500Y-16731253D01*
X5191500Y-16854856D01*
X5191502Y-16854881D01*
X5194414Y-16879988D01*
X5194415Y-16879991D01*
X5239793Y-16982764D01*
X5239794Y-16982765D01*
X5319235Y-17062206D01*
X5422009Y-17107585D01*
X5447135Y-17110500D01*
X5930304Y-17110499D01*
X5997342Y-17130183D01*
X6029567Y-17160185D01*
X6034807Y-17167185D01*
X6034813Y-17167190D01*
X6149911Y-17253352D01*
X6149913Y-17253354D01*
X6284620Y-17303596D01*
X6284627Y-17303598D01*
X6344155Y-17309999D01*
X6344172Y-17310000D01*
X6492000Y-17310000D01*
X6992000Y-17310000D01*
X7139828Y-17310000D01*
X7139844Y-17309999D01*
X7199372Y-17303598D01*
X7199379Y-17303596D01*
X7334086Y-17253354D01*
X7334093Y-17253350D01*
X7449187Y-17167190D01*
X7449190Y-17167187D01*
X7535350Y-17052093D01*
X7535354Y-17052086D01*
X7585596Y-16917379D01*
X7585598Y-16917372D01*
X7591999Y-16857844D01*
X7592000Y-16857827D01*
X7592000Y-16760000D01*
X6992000Y-16760000D01*
X6992000Y-17310000D01*
X6492000Y-17310000D01*
X6492000Y-16866340D01*
X6492456Y-16858442D01*
X6492293Y-16858433D01*
X6492498Y-16854881D01*
X6492500Y-16854865D01*
X6492499Y-16633998D01*
X6512183Y-16566961D01*
X6564987Y-16521206D01*
X6616499Y-16510000D01*
X6742000Y-16510000D01*
X6742000Y-16384000D01*
X6761685Y-16316961D01*
X6814489Y-16271206D01*
X6866000Y-16260000D01*
X7592000Y-16260000D01*
X7592000Y-16162172D01*
X7591999Y-16162155D01*
X7585598Y-16102627D01*
X7585596Y-16102620D01*
X7535354Y-15967913D01*
X7535350Y-15967906D01*
X7449190Y-15852812D01*
X7449187Y-15852809D01*
X7334093Y-15766649D01*
X7334085Y-15766645D01*
X7315474Y-15759703D01*
X7259541Y-15717830D01*
X7235126Y-15652366D01*
X7249979Y-15584093D01*
X7271123Y-15555847D01*
X7344206Y-15482765D01*
X7354075Y-15460414D01*
X7399161Y-15407038D01*
X7465947Y-15386510D01*
X7467509Y-15386500D01*
X7800184Y-15386500D01*
X7867223Y-15406185D01*
X7899954Y-15436866D01*
X7916156Y-15458819D01*
X7933577Y-15482423D01*
X8039206Y-15560381D01*
X8078715Y-15574206D01*
X8163119Y-15603741D01*
X8170796Y-15604460D01*
X8192543Y-15606500D01*
X8567456Y-15606499D01*
X8596879Y-15603741D01*
X8720794Y-15560381D01*
X8816367Y-15489844D01*
X8881995Y-15465874D01*
X8950165Y-15481189D01*
X8963629Y-15489842D01*
X9059206Y-15560381D01*
X9098715Y-15574206D01*
X9183119Y-15603741D01*
X9190796Y-15604460D01*
X9212543Y-15606500D01*
X9587456Y-15606499D01*
X9616879Y-15603741D01*
X9740794Y-15560381D01*
X9846423Y-15482423D01*
X9924381Y-15376794D01*
X9956779Y-15284206D01*
X9967741Y-15252881D01*
X9967741Y-15252879D01*
X9969852Y-15230366D01*
X9970500Y-15223457D01*
X9970499Y-15033254D01*
X9990183Y-14966215D01*
X10006814Y-14945577D01*
X10649703Y-14302687D01*
X10649708Y-14302684D01*
X10659911Y-14292480D01*
X10659913Y-14292480D01*
X10734480Y-14217913D01*
X10787207Y-14126587D01*
X10801328Y-14073887D01*
X10814501Y-14024727D01*
X10814501Y-13919273D01*
X10814501Y-13911678D01*
X10814500Y-13911660D01*
X10814500Y-13652912D01*
X10834185Y-13585873D01*
X10878071Y-13547845D01*
X10877286Y-13546699D01*
X10886760Y-13540207D01*
X10886765Y-13540206D01*
X10966206Y-13460765D01*
X11011585Y-13357991D01*
X11014500Y-13332865D01*
X11014499Y-12543136D01*
X11014497Y-12543117D01*
X11011586Y-12518012D01*
X11011585Y-12518010D01*
X11011585Y-12518009D01*
X10966206Y-12415235D01*
X10886765Y-12335794D01*
X10881570Y-12333500D01*
X10783992Y-12290415D01*
X10758865Y-12287500D01*
X10069143Y-12287500D01*
X10069117Y-12287502D01*
X10044012Y-12290413D01*
X10044008Y-12290415D01*
X9941235Y-12335793D01*
X9861795Y-12415233D01*
X9861794Y-12415234D01*
X9861794Y-12415235D01*
X9840443Y-12463588D01*
X9795360Y-12516962D01*
X9728574Y-12537490D01*
X9727011Y-12537500D01*
X8853273Y-12537500D01*
X8751410Y-12564793D01*
X8660081Y-12617523D01*
X8659028Y-12618332D01*
X8657979Y-12618737D01*
X8653049Y-12621584D01*
X8652604Y-12620814D01*
X8593858Y-12643523D01*
X8525414Y-12629482D01*
X8475426Y-12580666D01*
X8459766Y-12512574D01*
X8466504Y-12479001D01*
X8491741Y-12406879D01*
X8494500Y-12377457D01*
X8494499Y-12002544D01*
X8491741Y-11973121D01*
X8448381Y-11849206D01*
X8398218Y-11781238D01*
X8370423Y-11743576D01*
X8298860Y-11690761D01*
X8264794Y-11665619D01*
X8264792Y-11665618D01*
X8140880Y-11622258D01*
X8111461Y-11619500D01*
X7636546Y-11619500D01*
X7607125Y-11622258D01*
X7607115Y-11622260D01*
X7483207Y-11665618D01*
X7483206Y-11665619D01*
X7415930Y-11715270D01*
X7350303Y-11739241D01*
X7342298Y-11739500D01*
X6432692Y-11739500D01*
X6342326Y-11763713D01*
X6342325Y-11763712D01*
X6318117Y-11770199D01*
X6318114Y-11770200D01*
X6215387Y-11829511D01*
X6215384Y-11829513D01*
X5724498Y-12320398D01*
X5663175Y-12353883D01*
X5593483Y-12348899D01*
X5537550Y-12307027D01*
X5513133Y-12241563D01*
X5517741Y-12198121D01*
X5547144Y-12096915D01*
X5547145Y-12096912D01*
X5548790Y-12076000D01*
X4894000Y-12076000D01*
X4826961Y-12056315D01*
X4781206Y-12003511D01*
X4770000Y-11952000D01*
X4770000Y-11826000D01*
X4644000Y-11826000D01*
X4576961Y-11806315D01*
X4531206Y-11753511D01*
X4520000Y-11702000D01*
X4520000Y-11010000D01*
X4539685Y-10942961D01*
X4592489Y-10897206D01*
X4600546Y-10895453D01*
X4610000Y-10886000D01*
X4610000Y-10156000D01*
X4534500Y-10156000D01*
X4467461Y-10136315D01*
X4421706Y-10083511D01*
X4410500Y-10032000D01*
X4410499Y-9780000D01*
X4430183Y-9712961D01*
X4482987Y-9667206D01*
X4534499Y-9656000D01*
X4610000Y-9656000D01*
X4610000Y-8823734D01*
X4576834Y-8762996D01*
X4574000Y-8736638D01*
X4574000Y-8124000D01*
X4054069Y-8124000D01*
X4056832Y-8159122D01*
X4056833Y-8159128D01*
X4101592Y-8313188D01*
X4101593Y-8313191D01*
X4149312Y-8393879D01*
X4166495Y-8461603D01*
X4144335Y-8527865D01*
X4089869Y-8571629D01*
X4042580Y-8581000D01*
X3985000Y-8581000D01*
X3985000Y-9306500D01*
X3965315Y-9373539D01*
X3912511Y-9419294D01*
X3861000Y-9430500D01*
X3465143Y-9430500D01*
X3461561Y-9430708D01*
X3461551Y-9430544D01*
X3453666Y-9431000D01*
X3004000Y-9431000D01*
X2936961Y-9411315D01*
X2891206Y-9358511D01*
X2888618Y-9346618D01*
X2880000Y-9338000D01*
X1735496Y-9338000D01*
X1777968Y-9484195D01*
X1860278Y-9623374D01*
X1860285Y-9623383D01*
X1910839Y-9673936D01*
X1944325Y-9735259D01*
X1940201Y-9802571D01*
X1932289Y-9825180D01*
X1932289Y-9825181D01*
X1929500Y-9854929D01*
X1929500Y-10241070D01*
X1932289Y-10270814D01*
X1932291Y-10270826D01*
X1976147Y-10396157D01*
X1976148Y-10396158D01*
X2060519Y-10510477D01*
X2058907Y-10511666D01*
X2086666Y-10562503D01*
X2089500Y-10588861D01*
X2089500Y-10734580D01*
X2069815Y-10801619D01*
X2063876Y-10810066D01*
X2015464Y-10873157D01*
X1954956Y-11019237D01*
X1954955Y-11019239D01*
X1934318Y-11175998D01*
X1934318Y-11176000D01*
X1941949Y-11233966D01*
X1942127Y-11235314D01*
X1931362Y-11304350D01*
X1884982Y-11356606D01*
X1819188Y-11375500D01*
X-1068155Y-11375500D01*
X-1136902Y-11393920D01*
X-1182734Y-11406201D01*
X-1182739Y-11406204D01*
X-1226151Y-11431267D01*
X-1226150Y-11431268D01*
X-1285457Y-11465508D01*
X-1285463Y-11465513D01*
X-2393130Y-12573181D01*
X-2454453Y-12606666D01*
X-2480811Y-12609500D01*
X-2549070Y-12609500D01*
X-2578815Y-12612289D01*
X-2578827Y-12612291D01*
X-2704156Y-12656147D01*
X-2810999Y-12735001D01*
X-2889853Y-12841844D01*
X-2933709Y-12967173D01*
X-2933711Y-12967185D01*
X-2936500Y-12996929D01*
X-5787452Y-12996929D01*
X-5825464Y-12905159D01*
X-5921718Y-12779718D01*
X-6047159Y-12683464D01*
X-6113106Y-12656148D01*
X-6193238Y-12622956D01*
X-6193240Y-12622955D01*
X-6349999Y-12602318D01*
X-6350001Y-12602318D01*
X-6506761Y-12622955D01*
X-6506763Y-12622956D01*
X-6652840Y-12683463D01*
X-6652841Y-12683464D01*
X-6778282Y-12779718D01*
X-6778283Y-12779719D01*
X-6778284Y-12779720D01*
X-6823126Y-12838159D01*
X-6879554Y-12879361D01*
X-6949300Y-12883516D01*
X-7010220Y-12849303D01*
X-7042972Y-12787586D01*
X-7045501Y-12762672D01*
X-7045501Y-12716545D01*
X-7048259Y-12687125D01*
X-7048259Y-12687121D01*
X-7091619Y-12563206D01*
X-7153768Y-12478997D01*
X-7169577Y-12457576D01*
X-7258230Y-12392148D01*
X-7275206Y-12379619D01*
X-7275208Y-12379618D01*
X-7399120Y-12336258D01*
X-7428539Y-12333500D01*
X-7803454Y-12333500D01*
X-7832875Y-12336258D01*
X-7832885Y-12336260D01*
X-7956795Y-12379619D01*
X-7956796Y-12379619D01*
X-8052367Y-12450154D01*
X-8117996Y-12474125D01*
X-8186166Y-12458809D01*
X-8199633Y-12450154D01*
X-8295206Y-12379619D01*
X-8419120Y-12336258D01*
X-8448539Y-12333500D01*
X-8716480Y-12333500D01*
X-8783519Y-12313815D01*
X-8829274Y-12261011D01*
X-8832963Y-12235355D01*
X-8847496Y-12216000D01*
X-10456504Y-12216000D01*
X-10412663Y-12366906D01*
X-10412863Y-12436775D01*
X-10450806Y-12495445D01*
X-10514444Y-12524288D01*
X-10531740Y-12525500D01*
X-17082745Y-12525500D01*
X-17149784Y-12505815D01*
X-17170426Y-12489181D01*
X-17323181Y-12336426D01*
X-17356666Y-12275103D01*
X-17359500Y-12248745D01*
X-17359500Y-11716000D01*
X-10456504Y-11716000D01*
X-9902000Y-11716000D01*
X-9402000Y-11716000D01*
X-8847496Y-11716000D01*
X-8889969Y-11569804D01*
X-8972279Y-11430625D01*
X-8972286Y-11430616D01*
X-9086617Y-11316285D01*
X-9086626Y-11316278D01*
X-9225805Y-11233968D01*
X-9225810Y-11233966D01*
X-9381082Y-11188855D01*
X-9381088Y-11188854D01*
X-9402000Y-11187209D01*
X-9402000Y-11716000D01*
X-9902000Y-11716000D01*
X-9902000Y-11187210D01*
X-9902001Y-11187209D01*
X-9922913Y-11188854D01*
X-9922919Y-11188855D01*
X-10078191Y-11233966D01*
X-10078196Y-11233968D01*
X-10217375Y-11316278D01*
X-10217384Y-11316285D01*
X-10331715Y-11430616D01*
X-10331722Y-11430625D01*
X-10414032Y-11569804D01*
X-10456504Y-11716000D01*
X-17359500Y-11716000D01*
X-17359500Y-10068604D01*
X-17339815Y-10001565D01*
X-17287011Y-9955810D01*
X-17280330Y-9952991D01*
X-17244981Y-9939298D01*
X-17063698Y-9827052D01*
X-16906128Y-9683407D01*
X-16777634Y-9513255D01*
X-16710675Y-9378781D01*
X-16663175Y-9327548D01*
X-16595512Y-9310126D01*
X-16529172Y-9332051D01*
X-16487295Y-9381651D01*
X-16393601Y-9582578D01*
X-16258106Y-9776082D01*
X-16091083Y-9943105D01*
X-15897579Y-10078600D01*
X-15683493Y-10178429D01*
X-15683484Y-10178433D01*
X-15470000Y-10235634D01*
X-15470000Y-9338012D01*
X-15412993Y-9370925D01*
X-15285826Y-9405000D01*
X-15154174Y-9405000D01*
X-15027007Y-9370925D01*
X-14970000Y-9338012D01*
X-14970000Y-10235633D01*
X-14756517Y-10178433D01*
X-14756508Y-10178429D01*
X-14542422Y-10078600D01*
X-14348918Y-9943105D01*
X-14181895Y-9776082D01*
X-14046400Y-9582578D01*
X-13946571Y-9368492D01*
X-13946568Y-9368486D01*
X-13889364Y-9155000D01*
X-14786988Y-9155000D01*
X-14754075Y-9097993D01*
X-14720000Y-8970826D01*
X-14720000Y-8839174D01*
X-14720315Y-8838000D01*
X1735496Y-8838000D01*
X2290000Y-8838000D01*
X2790000Y-8838000D01*
X3356000Y-8838000D01*
X3423039Y-8857685D01*
X3468794Y-8910489D01*
X3480000Y-8962000D01*
X3480000Y-9081000D01*
X3635000Y-9081000D01*
X3635000Y-8581000D01*
X3462155Y-8581000D01*
X3402627Y-8587401D01*
X3402616Y-8587404D01*
X3366860Y-8600740D01*
X3297168Y-8605724D01*
X3235845Y-8572238D01*
X3225067Y-8558343D01*
X3224499Y-8558785D01*
X3219714Y-8552616D01*
X3105383Y-8438285D01*
X3105374Y-8438278D01*
X2966195Y-8355968D01*
X2966190Y-8355966D01*
X2810918Y-8310855D01*
X2810912Y-8310854D01*
X2790000Y-8309209D01*
X2790000Y-8838000D01*
X2290000Y-8838000D01*
X2290000Y-8309210D01*
X2289999Y-8309209D01*
X2269087Y-8310854D01*
X2269081Y-8310855D01*
X2113809Y-8355966D01*
X2113804Y-8355968D01*
X1974625Y-8438278D01*
X1974616Y-8438285D01*
X1860285Y-8552616D01*
X1860278Y-8552625D01*
X1777968Y-8691804D01*
X1735496Y-8838000D01*
X-14720315Y-8838000D01*
X-14754075Y-8712007D01*
X-14786988Y-8655000D01*
X-13889364Y-8655000D01*
X-13889365Y-8654999D01*
X-13946568Y-8441513D01*
X-13946571Y-8441507D01*
X-14046400Y-8227422D01*
X-14046401Y-8227420D01*
X-14181887Y-8033926D01*
X-14181892Y-8033920D01*
X-14348918Y-7866894D01*
X-14542422Y-7731399D01*
X-14741574Y-7638533D01*
X-14758079Y-7624000D01*
X4054069Y-7624000D01*
X4574000Y-7624000D01*
X4574000Y-7061154D01*
X4573998Y-7061153D01*
X4434811Y-7101591D01*
X4434808Y-7101593D01*
X4296714Y-7183261D01*
X4296705Y-7183268D01*
X4183268Y-7296705D01*
X4183261Y-7296714D01*
X4101593Y-7434808D01*
X4101592Y-7434811D01*
X4056833Y-7588871D01*
X4056832Y-7588877D01*
X4054069Y-7624000D01*
X-14758079Y-7624000D01*
X-14794013Y-7592360D01*
X-14813165Y-7525167D01*
X-14792949Y-7458286D01*
X-14739784Y-7412951D01*
X-14733995Y-7410537D01*
X-14704981Y-7399298D01*
X-14523698Y-7287052D01*
X-14366128Y-7143407D01*
X-14237634Y-6973255D01*
X-14230164Y-6958253D01*
X-14142597Y-6782394D01*
X-14142597Y-6782393D01*
X-14142595Y-6782389D01*
X-14084244Y-6577310D01*
X-14064571Y-6365000D01*
X-14084244Y-6152690D01*
X-14142595Y-5947611D01*
X-14142597Y-5947606D01*
X-14142597Y-5947605D01*
X-14237633Y-5756746D01*
X-14366128Y-5586593D01*
X-14382582Y-5571593D01*
X-14523698Y-5442948D01*
X-14704981Y-5330702D01*
X-14704983Y-5330701D01*
X-14804392Y-5292190D01*
X-14903802Y-5253679D01*
X-15100615Y-5216888D01*
X-15162894Y-5185221D01*
X-15198167Y-5124908D01*
X-15195233Y-5055100D01*
X-15155024Y-4997960D01*
X-15100616Y-4973111D01*
X-14903802Y-4936321D01*
X-14704981Y-4859298D01*
X-14523698Y-4747052D01*
X-14366128Y-4603407D01*
X-14237634Y-4433255D01*
X-14185835Y-4329225D01*
X-14138334Y-4277992D01*
X-14074836Y-4260500D01*
X-12867500Y-4260500D01*
X-12800461Y-4280185D01*
X-12754706Y-4332989D01*
X-12743500Y-4384500D01*
X-12743500Y-4559997D01*
X-12742198Y-4588183D01*
X-12742196Y-4588192D01*
X-12711474Y-4696169D01*
X-12711473Y-4696171D01*
X-12711472Y-4696173D01*
X-12658882Y-4765814D01*
X-12643814Y-4785767D01*
X-12548361Y-4844869D01*
X-12548359Y-4844870D01*
X-12438000Y-4865500D01*
X-12437998Y-4865500D01*
X-11288000Y-4865500D01*
X-11194571Y-4850863D01*
X-11194567Y-4850861D01*
X-11184553Y-4847482D01*
X-11183774Y-4849790D01*
X-11130004Y-4838322D01*
X-11109685Y-4842920D01*
X-11109654Y-4842758D01*
X-11098361Y-4844869D01*
X-11098359Y-4844870D01*
X-10988000Y-4865500D01*
X-10987998Y-4865500D01*
X-9988002Y-4865500D01*
X-9988000Y-4865500D01*
X-9959812Y-4864197D01*
X-9851827Y-4833472D01*
X-9762233Y-4765814D01*
X-9703130Y-4670359D01*
X-9682500Y-4560000D01*
X-9682500Y-4384500D01*
X-9662815Y-4317461D01*
X-9610011Y-4271706D01*
X-9558500Y-4260500D01*
X-8576692Y-4260500D01*
X-8576691Y-4260500D01*
X-8486327Y-4236286D01*
X-8462113Y-4229799D01*
X-8359386Y-4170489D01*
X-3913716Y275181D01*
X-3852393Y308666D01*
X-3826035Y311500D01*
X-2154000Y311500D01*
X-2086961Y291815D01*
X-2041206Y239011D01*
X-2030000Y187500D01*
X-2030000Y187000D01*
X-1254000Y187000D01*
X-1186961Y167315D01*
X-1141206Y114511D01*
X-1130000Y63000D01*
X-1130000Y-139000D01*
X-1149685Y-206039D01*
X-1202489Y-251794D01*
X-1254000Y-263000D01*
X-2030000Y-263000D01*
X-2030000Y-310844D01*
X-2023599Y-370372D01*
X-2023597Y-370379D01*
X-1973355Y-505086D01*
X-1973353Y-505088D01*
X-1887191Y-620186D01*
X-1887189Y-620188D01*
X-1880191Y-625427D01*
X-1838319Y-681359D01*
X-1830500Y-724695D01*
X-1830500Y-1107856D01*
X-1830498Y-1107882D01*
X-1827587Y-1132987D01*
X-1827585Y-1132991D01*
X-1782207Y-1235764D01*
X-1702765Y-1315206D01*
X-1604245Y-1358707D01*
X-1550868Y-1403793D01*
X-1531393Y-1455950D01*
X-1530502Y-1462720D01*
X-1503207Y-1564589D01*
X-1482160Y-1601043D01*
X-1450480Y-1655913D01*
X-1198818Y-1907574D01*
X-1165334Y-1968895D01*
X-1162500Y-1995254D01*
X-1162500Y-3047710D01*
X-1182185Y-3114749D01*
X-1220528Y-3152704D01*
X-1264262Y-3180183D01*
X-1391816Y-3307737D01*
X-1487789Y-3460476D01*
X-1547369Y-3630745D01*
X-1547370Y-3630750D01*
X-1567565Y-3809996D01*
X-1567565Y-3810003D01*
X-1547370Y-3989249D01*
X-1547369Y-3989254D01*
X-1487789Y-4159523D01*
X-1435717Y-4242394D01*
X-1391816Y-4312262D01*
X-1264262Y-4439816D01*
X-1111522Y-4535789D01*
X-961774Y-4588188D01*
X-941255Y-4595368D01*
X-941250Y-4595369D01*
X-762004Y-4615565D01*
X-762000Y-4615565D01*
X-761996Y-4615565D01*
X-582751Y-4595369D01*
X-582748Y-4595368D01*
X-582745Y-4595368D01*
X-412478Y-4535789D01*
X-259738Y-4439816D01*
X-132184Y-4312262D01*
X-36211Y-4159522D01*
X23368Y-3989255D01*
X31053Y-3921048D01*
X43565Y-3810003D01*
X43565Y-3809996D01*
X23369Y-3630750D01*
X23368Y-3630745D01*
X17050Y-3612689D01*
X-36211Y-3460478D01*
X-37593Y-3458279D01*
X-94017Y-3368480D01*
X-132184Y-3307738D01*
X-259738Y-3180184D01*
X-259739Y-3180183D01*
X-303472Y-3152704D01*
X-349763Y-3100370D01*
X-361500Y-3047710D01*
X-361500Y-2302500D01*
X-341815Y-2235461D01*
X-289011Y-2189706D01*
X-237500Y-2178500D01*
X1346182Y-2178500D01*
X1413221Y-2198185D01*
X1458976Y-2250989D01*
X1468920Y-2320147D01*
X1460743Y-2349952D01*
X1446957Y-2383234D01*
X1446955Y-2383239D01*
X1426318Y-2539998D01*
X1426318Y-2540001D01*
X1446955Y-2696760D01*
X1446956Y-2696762D01*
X1484137Y-2786526D01*
X1507464Y-2842841D01*
X1603718Y-2968282D01*
X1729159Y-3064536D01*
X1875238Y-3125044D01*
X2032000Y-3145682D01*
X2032001Y-3145681D01*
X2035513Y-3146144D01*
X2099410Y-3174410D01*
X2107009Y-3181402D01*
X2219519Y-3293912D01*
X2219520Y-3293913D01*
X2294087Y-3368480D01*
X2385413Y-3421207D01*
X2487273Y-3448500D01*
X2592726Y-3448500D01*
X4244184Y-3448500D01*
X4311223Y-3468185D01*
X4343954Y-3498866D01*
X4377577Y-3544423D01*
X4483206Y-3622381D01*
X4524511Y-3636834D01*
X4607119Y-3665741D01*
X4614796Y-3666460D01*
X4636543Y-3668500D01*
X5011456Y-3668499D01*
X5040879Y-3665741D01*
X5164794Y-3622381D01*
X5260367Y-3551844D01*
X5325995Y-3527874D01*
X5394165Y-3543189D01*
X5407629Y-3551842D01*
X5503206Y-3622381D01*
X5544511Y-3636834D01*
X5627119Y-3665741D01*
X5634796Y-3666460D01*
X5656543Y-3668500D01*
X6031456Y-3668499D01*
X6060879Y-3665741D01*
X6184794Y-3622381D01*
X6290423Y-3544423D01*
X6368381Y-3438794D01*
X6392986Y-3368478D01*
X6411741Y-3314881D01*
X6411741Y-3314879D01*
X6414500Y-3285457D01*
X6414499Y-2810544D01*
X6411741Y-2781121D01*
X6409844Y-2775701D01*
X6368381Y-2657206D01*
X6364568Y-2652040D01*
X6358732Y-2644132D01*
X6334761Y-2578505D01*
X6350076Y-2510335D01*
X6399815Y-2461266D01*
X6458502Y-2446499D01*
X6761856Y-2446499D01*
X6761864Y-2446499D01*
X6761879Y-2446497D01*
X6761882Y-2446497D01*
X6786987Y-2443586D01*
X6786988Y-2443585D01*
X6786991Y-2443585D01*
X6889765Y-2398206D01*
X6969206Y-2318765D01*
X7014585Y-2215991D01*
X7017500Y-2190865D01*
X7017500Y-2046500D01*
X7037185Y-1979461D01*
X7089989Y-1933706D01*
X7141500Y-1922500D01*
X7259683Y-1922500D01*
X7326722Y-1942185D01*
X7372477Y-1994989D01*
X7382421Y-2064147D01*
X7359453Y-2120134D01*
X7299618Y-2201207D01*
X7256258Y-2325118D01*
X7256258Y-2325120D01*
X7253500Y-2354538D01*
X7253500Y-2729453D01*
X7256258Y-2758874D01*
X7256260Y-2758884D01*
X7299618Y-2882792D01*
X7299619Y-2882794D01*
X7323540Y-2915206D01*
X7377576Y-2988423D01*
X7430391Y-3027402D01*
X7483206Y-3066381D01*
X7524511Y-3080834D01*
X7607119Y-3109741D01*
X7614796Y-3110460D01*
X7636543Y-3112500D01*
X8111456Y-3112499D01*
X8140879Y-3109741D01*
X8264794Y-3066381D01*
X8370423Y-2988423D01*
X8370428Y-2988415D01*
X8376997Y-2981849D01*
X8379007Y-2983859D01*
X8422787Y-2950617D01*
X8466914Y-2942500D01*
X9956725Y-2942500D01*
X9956727Y-2942500D01*
X10058588Y-2915207D01*
X10149913Y-2862480D01*
X10338992Y-2673399D01*
X10400311Y-2639917D01*
X10410485Y-2638144D01*
X10413997Y-2637681D01*
X10414000Y-2637682D01*
X10570762Y-2617044D01*
X10716841Y-2556536D01*
X10842282Y-2460282D01*
X10938536Y-2334841D01*
X10999044Y-2188762D01*
X11019682Y-2032000D01*
X11017504Y-2015460D01*
X10999044Y-1875239D01*
X10999044Y-1875238D01*
X10938536Y-1729159D01*
X10842282Y-1603718D01*
X10716841Y-1507464D01*
X10570762Y-1446956D01*
X10570760Y-1446955D01*
X10414001Y-1426318D01*
X10413999Y-1426318D01*
X10257239Y-1446955D01*
X10257237Y-1446956D01*
X10111160Y-1507463D01*
X9985718Y-1603718D01*
X9889463Y-1729160D01*
X9828956Y-1875237D01*
X9828955Y-1875239D01*
X9808096Y-2033685D01*
X9779830Y-2097582D01*
X9721505Y-2136053D01*
X9685157Y-2141500D01*
X8488317Y-2141500D01*
X8421278Y-2121815D01*
X8375523Y-2069011D01*
X8365579Y-1999853D01*
X8388547Y-1943866D01*
X8396045Y-1933706D01*
X8448381Y-1862794D01*
X8470061Y-1800836D01*
X8491741Y-1738881D01*
X8491741Y-1738879D01*
X8492652Y-1729159D01*
X8494500Y-1709457D01*
X8494499Y-1334544D01*
X8491741Y-1305121D01*
X8448381Y-1181206D01*
X8370423Y-1075577D01*
X8370420Y-1075575D01*
X8370418Y-1075572D01*
X8346194Y-1057694D01*
X8303944Y-1002046D01*
X8298487Y-932390D01*
X8331555Y-870841D01*
X8331999Y-870393D01*
X9603376Y400984D01*
X9664697Y434467D01*
X9734389Y429483D01*
X9790322Y387611D01*
X9814739Y322147D01*
X9813994Y297116D01*
X9808318Y254002D01*
X9808318Y253999D01*
X9828955Y97240D01*
X9828956Y97238D01*
X9885760Y-39900D01*
X9889464Y-48841D01*
X9985718Y-174282D01*
X10111159Y-270536D01*
X10257238Y-331044D01*
X10335619Y-341363D01*
X10413999Y-351682D01*
X10414000Y-351682D01*
X10414001Y-351682D01*
X10466254Y-344802D01*
X10570762Y-331044D01*
X10716841Y-270536D01*
X10842282Y-174282D01*
X10842283Y-174281D01*
X10842488Y-174124D01*
X10907657Y-148930D01*
X10917974Y-148500D01*
X11091086Y-148500D01*
X11158125Y-168185D01*
X11180083Y-188768D01*
X11181003Y-187849D01*
X11187574Y-194419D01*
X11187577Y-194423D01*
X11293206Y-272381D01*
X11305818Y-276794D01*
X11417119Y-315741D01*
X11424796Y-316460D01*
X11446543Y-318500D01*
X11921456Y-318499D01*
X11950879Y-315741D01*
X12074794Y-272381D01*
X12180423Y-194423D01*
X12258381Y-88794D01*
X12280061Y-26836D01*
X12301741Y35119D01*
X12301741Y35121D01*
X12304355Y63000D01*
X12304500Y64543D01*
X12304499Y439456D01*
X12301741Y468879D01*
X12258381Y592794D01*
X12198547Y673866D01*
X12174576Y739495D01*
X12189891Y807666D01*
X12239632Y856734D01*
X12298317Y871500D01*
X12625957Y871500D01*
X12642145Y870439D01*
X12649270Y869501D01*
X12649273Y869500D01*
X14077407Y869500D01*
X14144446Y849815D01*
X14188407Y800771D01*
X14257632Y661747D01*
X14386127Y491594D01*
X14386128Y491593D01*
X14543698Y347948D01*
X14724981Y235702D01*
X14923802Y158679D01*
X15120613Y121889D01*
X15182893Y90221D01*
X15218166Y29908D01*
X15215232Y-39900D01*
X15175023Y-97040D01*
X15120613Y-121888D01*
X14923802Y-158679D01*
X14923799Y-158679D01*
X14923799Y-158680D01*
X14724982Y-235701D01*
X14724980Y-235702D01*
X14543699Y-347947D01*
X14386127Y-491593D01*
X14257632Y-661746D01*
X14162596Y-852605D01*
X14162596Y-852607D01*
X14104244Y-1057689D01*
X14099596Y-1107856D01*
X14084571Y-1270000D01*
X14104244Y-1482310D01*
X14153639Y-1655914D01*
X14162596Y-1687392D01*
X14162596Y-1687394D01*
X14257632Y-1878253D01*
X14375010Y-2033685D01*
X14386128Y-2048407D01*
X14543698Y-2192052D01*
X14724981Y-2304298D01*
X14923802Y-2381321D01*
X15120613Y-2418111D01*
X15182893Y-2449779D01*
X15218166Y-2510092D01*
X15215232Y-2579900D01*
X15175023Y-2637040D01*
X15120613Y-2661888D01*
X14923802Y-2698679D01*
X14923799Y-2698679D01*
X14923799Y-2698680D01*
X14724982Y-2775701D01*
X14724980Y-2775702D01*
X14543699Y-2887947D01*
X14386127Y-3031593D01*
X14257632Y-3201746D01*
X14162596Y-3392605D01*
X14162596Y-3392607D01*
X14124109Y-3527874D01*
X14104244Y-3597690D01*
X14084571Y-3810000D01*
X14104244Y-4022310D01*
X14146404Y-4170486D01*
X14162596Y-4227392D01*
X14162596Y-4227394D01*
X14257632Y-4418253D01*
X14386127Y-4588406D01*
X14386128Y-4588407D01*
X14543698Y-4732052D01*
X14724981Y-4844298D01*
X14923802Y-4921321D01*
X15120613Y-4958111D01*
X15182893Y-4989779D01*
X15218166Y-5050092D01*
X15215232Y-5119900D01*
X15175023Y-5177040D01*
X15120613Y-5201888D01*
X14923802Y-5238679D01*
X14923799Y-5238679D01*
X14923799Y-5238680D01*
X14724982Y-5315701D01*
X14724980Y-5315702D01*
X14543699Y-5427947D01*
X14386127Y-5571593D01*
X14257632Y-5741746D01*
X14188407Y-5880771D01*
X14140904Y-5932009D01*
X14077407Y-5949500D01*
X11998339Y-5949500D01*
X11998323Y-5949499D01*
X11990727Y-5949499D01*
X11885273Y-5949499D01*
X11817366Y-5967695D01*
X11783412Y-5976793D01*
X11692084Y-6029522D01*
X8916426Y-8805181D01*
X8855103Y-8838666D01*
X8828745Y-8841500D01*
X6437699Y-8841500D01*
X6387598Y-8830928D01*
X6384399Y-8829515D01*
X6331029Y-8784422D01*
X6310510Y-8717633D01*
X6310500Y-8716087D01*
X6310500Y-8384022D01*
X6330185Y-8316983D01*
X6334731Y-8310387D01*
X6335600Y-8309210D01*
X6368381Y-8264794D01*
X6388347Y-8207735D01*
X6411741Y-8140881D01*
X6411741Y-8140879D01*
X6414500Y-8111457D01*
X6414499Y-7636544D01*
X6411741Y-7607121D01*
X6368381Y-7483206D01*
X6322545Y-7421101D01*
X6290423Y-7377576D01*
X6218860Y-7324761D01*
X6184794Y-7299619D01*
X6184792Y-7299618D01*
X6060880Y-7256258D01*
X6031461Y-7253500D01*
X5656546Y-7253500D01*
X5627125Y-7256258D01*
X5627119Y-7256259D01*
X5550403Y-7283103D01*
X5480624Y-7286664D01*
X5421768Y-7253742D01*
X5351294Y-7183268D01*
X5351285Y-7183261D01*
X5213191Y-7101593D01*
X5213188Y-7101591D01*
X5074001Y-7061153D01*
X5074000Y-7061154D01*
X5074000Y-8426265D01*
X5107166Y-8487004D01*
X5110000Y-8513362D01*
X5110000Y-11262000D01*
X5090315Y-11329039D01*
X5037511Y-11374794D01*
X5029453Y-11376546D01*
X5020000Y-11386000D01*
X5020000Y-11576000D01*
X5548790Y-11576000D01*
X5547145Y-11555089D01*
X5502032Y-11399808D01*
X5500043Y-11395211D01*
X5491483Y-11325867D01*
X5521771Y-11262904D01*
X5570511Y-11229780D01*
X5652086Y-11199354D01*
X5652088Y-11199352D01*
X5767190Y-11113188D01*
X5791143Y-11081190D01*
X5847076Y-11039318D01*
X5890408Y-11031499D01*
X6254864Y-11031499D01*
X6254879Y-11031497D01*
X6254882Y-11031497D01*
X6279986Y-11028586D01*
X6279987Y-11028585D01*
X6279991Y-11028585D01*
X6284283Y-11026689D01*
X6353559Y-11017618D01*
X6416745Y-11047440D01*
X6422050Y-11052443D01*
X6472087Y-11102480D01*
X6563412Y-11155207D01*
X6567893Y-11156407D01*
X6627555Y-11192767D01*
X6635571Y-11202543D01*
X6661001Y-11236999D01*
X6767843Y-11315852D01*
X6796464Y-11325867D01*
X6893173Y-11359708D01*
X6893177Y-11359708D01*
X6893181Y-11359710D01*
X6908057Y-11361105D01*
X6922930Y-11362500D01*
X6922934Y-11362500D01*
X7369070Y-11362500D01*
X7382289Y-11361260D01*
X7398819Y-11359710D01*
X7398823Y-11359708D01*
X7398826Y-11359708D01*
X7452286Y-11341001D01*
X7524157Y-11315852D01*
X7630999Y-11236999D01*
X7709852Y-11130157D01*
X7747687Y-11022033D01*
X7753708Y-11004826D01*
X7753708Y-11004823D01*
X7753710Y-11004819D01*
X7756500Y-10975066D01*
X7756500Y-10588934D01*
X7756493Y-10588861D01*
X7754950Y-10572404D01*
X7753710Y-10559181D01*
X7753708Y-10559177D01*
X7753708Y-10559173D01*
X7709852Y-10433844D01*
X7709852Y-10433843D01*
X7666890Y-10375631D01*
X7642920Y-10310005D01*
X7658235Y-10241835D01*
X7666885Y-10228374D01*
X7709852Y-10170157D01*
X7740171Y-10083511D01*
X7753708Y-10044826D01*
X7753708Y-10044823D01*
X7753710Y-10044819D01*
X7756500Y-10015066D01*
X7756500Y-9766500D01*
X7776185Y-9699461D01*
X7828989Y-9653706D01*
X7880500Y-9642500D01*
X8940902Y-9642500D01*
X9007941Y-9662185D01*
X9053696Y-9714989D01*
X9063010Y-9777146D01*
X9063500Y-9777146D01*
X9063500Y-9780414D01*
X9063841Y-9782690D01*
X9063501Y-9785267D01*
X9063500Y-9785273D01*
X9063500Y-9785279D01*
X9063500Y-10223087D01*
X9043815Y-10290126D01*
X8999927Y-10328154D01*
X9000713Y-10329301D01*
X8991236Y-10335792D01*
X8911793Y-10415236D01*
X8866415Y-10518006D01*
X8866415Y-10518008D01*
X8863500Y-10543131D01*
X8863500Y-11332856D01*
X8863502Y-11332882D01*
X8866413Y-11357987D01*
X8866415Y-11357991D01*
X8911793Y-11460764D01*
X8911794Y-11460765D01*
X8991235Y-11540206D01*
X9094009Y-11585585D01*
X9119135Y-11588500D01*
X9808864Y-11588499D01*
X9808879Y-11588497D01*
X9808882Y-11588497D01*
X9833987Y-11585586D01*
X9833988Y-11585585D01*
X9833991Y-11585585D01*
X9936765Y-11540206D01*
X10016206Y-11460765D01*
X10061585Y-11357991D01*
X10064500Y-11332865D01*
X10064499Y-10543136D01*
X10062797Y-10528460D01*
X10061586Y-10518012D01*
X10061585Y-10518010D01*
X10061585Y-10518009D01*
X10016206Y-10415235D01*
X9936765Y-10335794D01*
X9936764Y-10335793D01*
X9936763Y-10335792D01*
X9927287Y-10329301D01*
X9928231Y-10327922D01*
X9885034Y-10291430D01*
X9864510Y-10224642D01*
X9864500Y-10223087D01*
X9864500Y-10142499D01*
X9884185Y-10075460D01*
X9936989Y-10029705D01*
X9988500Y-10018499D01*
X10091454Y-10018499D01*
X10091456Y-10018499D01*
X10120879Y-10015741D01*
X10244794Y-9972381D01*
X10340367Y-9901844D01*
X10405995Y-9877874D01*
X10474165Y-9893189D01*
X10487629Y-9901842D01*
X10583206Y-9972381D01*
X10615445Y-9983662D01*
X10707119Y-10015741D01*
X10720707Y-10017015D01*
X10736543Y-10018500D01*
X10789500Y-10018499D01*
X10856538Y-10038182D01*
X10902293Y-10090986D01*
X10913500Y-10142499D01*
X10913500Y-10262167D01*
X10893815Y-10329206D01*
X10877181Y-10349848D01*
X10811794Y-10415234D01*
X10766415Y-10518006D01*
X10766415Y-10518008D01*
X10763500Y-10543131D01*
X10763500Y-11332856D01*
X10763502Y-11332882D01*
X10766413Y-11357987D01*
X10766415Y-11357991D01*
X10811793Y-11460764D01*
X10811794Y-11460765D01*
X10891235Y-11540206D01*
X10994009Y-11585585D01*
X11019135Y-11588500D01*
X11154033Y-11588499D01*
X11221073Y-11608183D01*
X11241715Y-11624818D01*
X11561317Y-11944421D01*
X11594802Y-12005744D01*
X11596575Y-12015916D01*
X11606955Y-12094761D01*
X11667463Y-12240839D01*
X11667464Y-12240841D01*
X11763718Y-12366282D01*
X11889159Y-12462536D01*
X12035238Y-12523044D01*
X12113619Y-12533363D01*
X12191999Y-12543682D01*
X12192000Y-12543682D01*
X12192001Y-12543682D01*
X12245831Y-12536595D01*
X12348762Y-12523044D01*
X12494841Y-12462536D01*
X12620282Y-12366282D01*
X12716536Y-12240841D01*
X12777044Y-12094762D01*
X12797682Y-11938000D01*
X12777044Y-11781238D01*
X12716536Y-11635159D01*
X12620282Y-11509718D01*
X12494841Y-11413464D01*
X12461873Y-11399808D01*
X12348761Y-11352955D01*
X12269916Y-11342575D01*
X12206019Y-11314308D01*
X12198421Y-11307317D01*
X12000818Y-11109714D01*
X11967333Y-11048391D01*
X11964499Y-11022033D01*
X11964499Y-10543143D01*
X11964499Y-10543136D01*
X11962797Y-10528460D01*
X11961586Y-10518012D01*
X11961585Y-10518010D01*
X11961585Y-10518009D01*
X11916206Y-10415235D01*
X11850819Y-10349848D01*
X11817334Y-10288525D01*
X11814500Y-10262167D01*
X11814500Y-9778693D01*
X11814500Y-9778691D01*
X11793373Y-9699843D01*
X11788915Y-9683205D01*
X11788915Y-9683204D01*
X11783799Y-9664113D01*
X11777790Y-9653706D01*
X11724489Y-9561386D01*
X11530818Y-9367715D01*
X11497333Y-9306392D01*
X11494499Y-9280034D01*
X11494499Y-9160545D01*
X11491741Y-9131125D01*
X11491741Y-9131121D01*
X11448381Y-9007206D01*
X11381220Y-8916206D01*
X11370423Y-8901576D01*
X11285182Y-8838666D01*
X11264794Y-8823619D01*
X11264792Y-8823618D01*
X11140880Y-8780258D01*
X11111461Y-8777500D01*
X11111457Y-8777500D01*
X11070254Y-8777500D01*
X11003215Y-8757815D01*
X10957460Y-8705011D01*
X10947516Y-8635853D01*
X10976541Y-8572297D01*
X10982573Y-8565819D01*
X11154514Y-8393879D01*
X11491574Y-8056819D01*
X11552897Y-8023334D01*
X11579255Y-8020500D01*
X13962583Y-8020500D01*
X14029622Y-8040185D01*
X14075377Y-8092989D01*
X14085321Y-8162147D01*
X14067623Y-8206879D01*
X14069106Y-8207735D01*
X14066399Y-8212422D01*
X13966570Y-8426507D01*
X13966567Y-8426513D01*
X13909364Y-8639999D01*
X13909364Y-8640000D01*
X14806988Y-8640000D01*
X14774075Y-8697007D01*
X14740000Y-8824174D01*
X14740000Y-8955826D01*
X14774075Y-9082993D01*
X14806988Y-9140000D01*
X13909364Y-9140000D01*
X13966567Y-9353486D01*
X13966570Y-9353492D01*
X14066399Y-9567578D01*
X14201894Y-9761082D01*
X14368917Y-9928105D01*
X14562421Y-10063600D01*
X14776507Y-10163429D01*
X14776516Y-10163433D01*
X14990000Y-10220634D01*
X14990000Y-9323012D01*
X15047007Y-9355925D01*
X15174174Y-9390000D01*
X15305826Y-9390000D01*
X15432993Y-9355925D01*
X15490000Y-9323012D01*
X15490000Y-10220633D01*
X15703483Y-10163433D01*
X15703492Y-10163429D01*
X15917578Y-10063600D01*
X16111082Y-9928105D01*
X16278105Y-9761082D01*
X16413600Y-9567578D01*
X16507294Y-9366651D01*
X16553466Y-9314212D01*
X16620660Y-9295060D01*
X16687541Y-9315276D01*
X16730676Y-9363785D01*
X16797632Y-9498253D01*
X16920541Y-9661009D01*
X16926128Y-9668407D01*
X17083698Y-9812052D01*
X17264981Y-9924298D01*
X17463802Y-10001321D01*
X17673390Y-10040500D01*
X17673392Y-10040500D01*
X17886608Y-10040500D01*
X17886610Y-10040500D01*
X18096198Y-10001321D01*
X18295019Y-9924298D01*
X18476302Y-9812052D01*
X18633872Y-9668407D01*
X18762366Y-9498255D01*
X18816270Y-9390000D01*
X18857403Y-9307394D01*
X18857403Y-9307393D01*
X18857405Y-9307389D01*
X18915756Y-9102310D01*
X18935429Y-8890000D01*
X18915756Y-8677690D01*
X18857405Y-8472611D01*
X18857403Y-8472606D01*
X18857403Y-8472605D01*
X18762367Y-8281746D01*
X18633872Y-8111593D01*
X18633722Y-8111456D01*
X18476302Y-7967948D01*
X18295019Y-7855702D01*
X18295017Y-7855701D01*
X18134920Y-7793680D01*
X18096198Y-7778679D01*
X17899385Y-7741888D01*
X17837106Y-7710221D01*
X17801833Y-7649908D01*
X17804767Y-7580100D01*
X17844976Y-7522960D01*
X17899384Y-7498111D01*
X18096198Y-7461321D01*
X18295019Y-7384298D01*
X18476302Y-7272052D01*
X18633872Y-7128407D01*
X18762366Y-6958255D01*
X18795456Y-6891800D01*
X18857403Y-6767394D01*
X18857403Y-6767393D01*
X18857405Y-6767389D01*
X18915756Y-6562310D01*
X18935429Y-6350000D01*
X18915756Y-6137690D01*
X18857405Y-5932611D01*
X18857403Y-5932606D01*
X18857403Y-5932605D01*
X18762367Y-5741746D01*
X18633872Y-5571593D01*
X18476302Y-5427948D01*
X18295019Y-5315702D01*
X18295017Y-5315701D01*
X18134920Y-5253680D01*
X18096198Y-5238679D01*
X17899385Y-5201888D01*
X17837106Y-5170221D01*
X17801833Y-5109908D01*
X17804767Y-5040100D01*
X17844976Y-4982960D01*
X17899384Y-4958111D01*
X18096198Y-4921321D01*
X18295019Y-4844298D01*
X18476302Y-4732052D01*
X18633872Y-4588407D01*
X18762366Y-4418255D01*
X18840918Y-4260500D01*
X18857403Y-4227394D01*
X18857403Y-4227393D01*
X18857405Y-4227389D01*
X18915756Y-4022310D01*
X18935429Y-3810000D01*
X18915756Y-3597690D01*
X18857405Y-3392611D01*
X18857403Y-3392606D01*
X18857403Y-3392605D01*
X18762367Y-3201746D01*
X18633872Y-3031593D01*
X18586516Y-2988422D01*
X18476302Y-2887948D01*
X18295019Y-2775702D01*
X18295017Y-2775701D01*
X18175643Y-2729456D01*
X18096198Y-2698679D01*
X17899385Y-2661888D01*
X17837106Y-2630221D01*
X17801833Y-2569908D01*
X17804767Y-2500100D01*
X17844976Y-2442960D01*
X17899384Y-2418111D01*
X18096198Y-2381321D01*
X18295019Y-2304298D01*
X18476302Y-2192052D01*
X18633872Y-2048407D01*
X18762366Y-1878255D01*
X18770066Y-1862792D01*
X18857403Y-1687394D01*
X18857403Y-1687393D01*
X18857405Y-1687389D01*
X18915756Y-1482310D01*
X18935429Y-1270000D01*
X18915756Y-1057690D01*
X18857405Y-852611D01*
X18857403Y-852606D01*
X18857403Y-852605D01*
X18762367Y-661746D01*
X18633872Y-491593D01*
X18572632Y-435765D01*
X18476302Y-347948D01*
X18295019Y-235702D01*
X18295017Y-235701D01*
X18136474Y-174282D01*
X18096198Y-158679D01*
X17899385Y-121888D01*
X17837106Y-90221D01*
X17801833Y-29908D01*
X17804767Y39900D01*
X17844976Y97040D01*
X17899384Y121889D01*
X18096198Y158679D01*
X18295019Y235702D01*
X18476302Y347948D01*
X18633872Y491593D01*
X18762366Y661745D01*
X18764338Y665706D01*
X18857403Y852606D01*
X18857403Y852607D01*
X18857405Y852611D01*
X18915756Y1057690D01*
X18935429Y1270000D01*
X18915756Y1482310D01*
X18857405Y1687389D01*
X18857403Y1687394D01*
X18857403Y1687395D01*
X18762367Y1878254D01*
X18633872Y2048407D01*
X18586516Y2091578D01*
X18476302Y2192052D01*
X18295019Y2304298D01*
X18295017Y2304299D01*
X18134920Y2366320D01*
X18096198Y2381321D01*
X17899385Y2418112D01*
X17837106Y2449779D01*
X17801833Y2510092D01*
X17804767Y2579900D01*
X17844976Y2637040D01*
X17899384Y2661889D01*
X18096198Y2698679D01*
X18295019Y2775702D01*
X18476302Y2887948D01*
X18633872Y3031593D01*
X18762366Y3201745D01*
X18813893Y3305226D01*
X18857403Y3392606D01*
X18857403Y3392607D01*
X18857405Y3392611D01*
X18915756Y3597690D01*
X18935429Y3810000D01*
X18915756Y4022310D01*
X18857405Y4227389D01*
X18857403Y4227394D01*
X18857403Y4227395D01*
X18762367Y4418254D01*
X18633872Y4588407D01*
X18624873Y4596611D01*
X18476302Y4732052D01*
X18295019Y4844298D01*
X18295017Y4844299D01*
X18166095Y4894243D01*
X18096198Y4921321D01*
X17899385Y4958112D01*
X17837106Y4989779D01*
X17801833Y5050092D01*
X17804767Y5119900D01*
X17844976Y5177040D01*
X17899384Y5201889D01*
X18096198Y5238679D01*
X18295019Y5315702D01*
X18476302Y5427948D01*
X18633872Y5571593D01*
X18762366Y5741745D01*
X18762367Y5741747D01*
X18857403Y5932606D01*
X18857403Y5932607D01*
X18857405Y5932611D01*
X18915756Y6137690D01*
X18935429Y6350000D01*
X18915756Y6562310D01*
X18857405Y6767389D01*
X18857403Y6767394D01*
X18857403Y6767395D01*
X18762367Y6958254D01*
X18633872Y7128407D01*
X18614737Y7145851D01*
X18476302Y7272052D01*
X18295019Y7384298D01*
X18295017Y7384299D01*
X18195608Y7422810D01*
X18096198Y7461321D01*
X17923456Y7493613D01*
X17861176Y7525281D01*
X17825903Y7585593D01*
X17828837Y7655401D01*
X17869046Y7712541D01*
X17933764Y7738872D01*
X17946233Y7739501D01*
X18674864Y7739501D01*
X18674879Y7739503D01*
X18674882Y7739503D01*
X18699987Y7742414D01*
X18699988Y7742415D01*
X18699991Y7742415D01*
X18802765Y7787794D01*
X18882206Y7867235D01*
X18927585Y7970009D01*
X18930500Y7995135D01*
X18930499Y9784864D01*
X18929086Y9797052D01*
X18927586Y9809988D01*
X18927585Y9809990D01*
X18927585Y9809991D01*
X18882206Y9912765D01*
X18802765Y9992206D01*
X18699992Y10037585D01*
X18674868Y10040500D01*
X18674865Y10040500D01*
X17530098Y10040500D01*
X17463059Y10060185D01*
X17442417Y10076819D01*
X10393590Y17125645D01*
X10393588Y17125648D01*
X10274717Y17244519D01*
X10274716Y17244520D01*
X10187904Y17294640D01*
X10187904Y17294641D01*
X10187900Y17294642D01*
X10137785Y17323577D01*
X9985057Y17364501D01*
X9826943Y17364501D01*
X9819347Y17364501D01*
X9819331Y17364500D01*
X301487Y17364500D01*
X285302Y17365561D01*
X254000Y17369682D01*
X222697Y17365561D01*
X206513Y17364500D01*
X-9784330Y17364500D01*
X-9784346Y17364501D01*
X-9791942Y17364501D01*
X-9950057Y17364501D01*
X-10102785Y17323577D01*
X-10102787Y17323577D01*
X-10102787Y17323576D01*
X-10239719Y17244518D01*
X-17443175Y10041062D01*
X-17504498Y10007577D01*
X-17553640Y10006854D01*
X-17589200Y10013501D01*
X-17653390Y10025500D01*
X-17866610Y10025500D01*
X-18076198Y9986321D01*
X-18076201Y9986321D01*
X-18076201Y9986320D01*
X-18275018Y9909299D01*
X-18275020Y9909298D01*
X-18456301Y9797053D01*
X-18613873Y9653407D01*
X-18742368Y9483254D01*
X-18837404Y9292395D01*
X-18837404Y9292393D01*
X-18895756Y9087311D01*
X-18909513Y8938840D01*
X-18915429Y8875000D01*
X-18895756Y8662690D01*
X-18842325Y8474901D01*
X-18837404Y8457608D01*
X-18837404Y8457606D01*
X-18742368Y8266747D01*
X-18624585Y8110779D01*
X-18613872Y8096593D01*
X-18456302Y7952948D01*
X-18275019Y7840702D01*
X-18076198Y7763679D01*
X-17879387Y7726889D01*
X-17817107Y7695221D01*
X-17781834Y7634908D01*
X-17784768Y7565100D01*
X-17824977Y7507960D01*
X-17879387Y7483112D01*
X-18076198Y7446321D01*
X-18076201Y7446321D01*
X-18076201Y7446320D01*
X-18275018Y7369299D01*
X-18275020Y7369298D01*
X-18456301Y7257053D01*
X-18613873Y7113407D01*
X-18742368Y6943254D01*
X-18837404Y6752395D01*
X-18837404Y6752393D01*
X-18895756Y6547311D01*
X-18909208Y6402132D01*
X-18915429Y6335000D01*
X-18895756Y6122690D01*
X-18841672Y5932606D01*
X-18837404Y5917608D01*
X-18837404Y5917606D01*
X-18742368Y5726747D01*
X-18613873Y5556594D01*
X-18613872Y5556593D01*
X-18456302Y5412948D01*
X-18275019Y5300702D01*
X-18076198Y5223679D01*
X-17879387Y5186889D01*
X-17817107Y5155221D01*
X-17781834Y5094908D01*
X-17784768Y5025100D01*
X-17824977Y4967960D01*
X-17879387Y4943112D01*
X-18076198Y4906321D01*
X-18076201Y4906321D01*
X-18076201Y4906320D01*
X-18275018Y4829299D01*
X-18275020Y4829298D01*
X-18456301Y4717053D01*
X-18613873Y4573407D01*
X-18742368Y4403254D01*
X-18837404Y4212395D01*
X-18837404Y4212393D01*
X-18895756Y4007311D01*
X-18914678Y3803100D01*
X-18915429Y3795000D01*
X-18895756Y3582690D01*
X-18841672Y3392606D01*
X-18837404Y3377608D01*
X-18837404Y3377606D01*
X-18742368Y3186747D01*
X-18625200Y3031593D01*
X-18613872Y3016593D01*
X-18456302Y2872948D01*
X-18275019Y2760702D01*
X-18076198Y2683679D01*
X-17879387Y2646889D01*
X-17817107Y2615221D01*
X-17781834Y2554908D01*
X-17784768Y2485100D01*
X-17824977Y2427960D01*
X-17879387Y2403112D01*
X-18076198Y2366321D01*
X-18076201Y2366321D01*
X-18076201Y2366320D01*
X-18275018Y2289299D01*
X-18275020Y2289298D01*
X-18456301Y2177053D01*
X-18613873Y2033407D01*
X-18742368Y1863254D01*
X-18837404Y1672395D01*
X-18837404Y1672393D01*
X-18895756Y1467311D01*
X-18912417Y1287500D01*
X-18915429Y1255000D01*
X-18895756Y1042690D01*
X-18841672Y852606D01*
X-18837404Y837608D01*
X-18837404Y837606D01*
X-18742368Y646747D01*
X-18625200Y491593D01*
X-18613872Y476593D01*
X-18456302Y332948D01*
X-18275019Y220702D01*
X-18076198Y143679D01*
X-17879387Y106889D01*
X-17817107Y75221D01*
X-17781834Y14908D01*
X-17784768Y-54900D01*
X-17824977Y-112040D01*
X-17879387Y-136888D01*
X-18076198Y-173679D01*
X-18076201Y-173679D01*
X-18076201Y-173680D01*
X-18275018Y-250701D01*
X-18275020Y-250702D01*
X-18456301Y-362947D01*
X-18613873Y-506593D01*
X-18742368Y-676746D01*
X-18837404Y-867605D01*
X-18837404Y-867607D01*
X-18889504Y-1050718D01*
X-18895756Y-1072690D01*
X-18915429Y-1285000D01*
X-18895756Y-1497310D01*
X-18841672Y-1687394D01*
X-18837404Y-1702392D01*
X-18837404Y-1702394D01*
X-18742368Y-1893253D01*
X-18625200Y-2048407D01*
X-18613872Y-2063407D01*
X-18456302Y-2207052D01*
X-18275019Y-2319298D01*
X-18076198Y-2396321D01*
X-17879387Y-2433111D01*
X-17817107Y-2464779D01*
X-17781834Y-2525092D01*
X-17784768Y-2594900D01*
X-17824977Y-2652040D01*
X-17879387Y-2676888D01*
X-18076198Y-2713679D01*
X-18076201Y-2713679D01*
X-18076201Y-2713680D01*
X-18275018Y-2790701D01*
X-18275020Y-2790702D01*
X-18456301Y-2902947D01*
X-18613873Y-3046593D01*
X-18742368Y-3216746D01*
X-18837404Y-3407605D01*
X-18837404Y-3407607D01*
X-18895756Y-3612689D01*
X-18900927Y-3668500D01*
X-18915429Y-3825000D01*
X-18895756Y-4037310D01*
X-18840988Y-4229798D01*
X-18837404Y-4242392D01*
X-18837404Y-4242394D01*
X-18742368Y-4433253D01*
X-18625200Y-4588407D01*
X-18613872Y-4603407D01*
X-18456302Y-4747052D01*
X-18275019Y-4859298D01*
X-18076198Y-4936321D01*
X-17879387Y-4973111D01*
X-17817107Y-5004779D01*
X-17781834Y-5065092D01*
X-17784768Y-5134900D01*
X-17824977Y-5192040D01*
X-17879387Y-5216888D01*
X-18076198Y-5253679D01*
X-18076201Y-5253679D01*
X-18076201Y-5253680D01*
X-18275018Y-5330701D01*
X-18275020Y-5330702D01*
X-18456301Y-5442947D01*
X-18613873Y-5586593D01*
X-18742368Y-5756746D01*
X-18837404Y-5947605D01*
X-18837404Y-5947607D01*
X-18837942Y-5949500D01*
X-18895756Y-6152690D01*
X-18915429Y-6365000D01*
X-18895756Y-6577310D01*
X-18841672Y-6767394D01*
X-18837404Y-6782392D01*
X-18837404Y-6782394D01*
X-18742368Y-6973253D01*
X-18625200Y-7128407D01*
X-18613872Y-7143407D01*
X-18456302Y-7287052D01*
X-18275019Y-7399298D01*
X-18076198Y-7476321D01*
X-17879387Y-7513111D01*
X-17817107Y-7544779D01*
X-17781834Y-7605092D01*
X-17784768Y-7674900D01*
X-17824977Y-7732040D01*
X-17879387Y-7756888D01*
X-18076198Y-7793679D01*
X-18076201Y-7793679D01*
X-18076201Y-7793680D01*
X-18275018Y-7870701D01*
X-18275020Y-7870702D01*
X-18456301Y-7982947D01*
X-18613873Y-8126593D01*
X-18742368Y-8296746D01*
X-18837404Y-8487605D01*
X-18837404Y-8487607D01*
X-18895756Y-8692689D01*
X-18909329Y-8839174D01*
X-18915429Y-8905000D01*
X-18895756Y-9117310D01*
X-18839732Y-9314212D01*
X-18837404Y-9322392D01*
X-18837404Y-9322394D01*
X-18742368Y-9513253D01*
X-18614025Y-9683205D01*
X-18613872Y-9683407D01*
X-18456302Y-9827052D01*
X-18275019Y-9939298D01*
X-18239705Y-9952978D01*
X-18184306Y-9995548D01*
X-18160714Y-10061314D01*
X-18160500Y-10068604D01*
X-18160500Y-12413273D01*
X-18160500Y-12518727D01*
X-18154725Y-12540279D01*
X-18133207Y-12620589D01*
X-18113922Y-12653991D01*
X-18080480Y-12711913D01*
X-18080478Y-12711915D01*
X-17544299Y-13248094D01*
X-17510814Y-13309417D01*
X-17515798Y-13379109D01*
X-17557670Y-13435042D01*
X-17584522Y-13450334D01*
X-17603374Y-13458143D01*
X-17908165Y-13626595D01*
X-18067550Y-13739685D01*
X-18192176Y-13828112D01*
X-18451839Y-14060161D01*
X-18683888Y-14319824D01*
X-18742064Y-14401815D01*
X-18885405Y-14603835D01*
X-19053856Y-14908625D01*
X-19125298Y-15081102D01*
X-19168917Y-15186409D01*
X-19187122Y-15230359D01*
X-19256346Y-15470640D01*
X-19293820Y-15529610D01*
X-19357227Y-15558958D01*
X-19426436Y-15549368D01*
X-19479472Y-15503882D01*
X-19499498Y-15436944D01*
X-19499500Y-15436312D01*
X-19499500Y15436313D01*
X-19479815Y15503352D01*
X-19427011Y15549107D01*
X-19357853Y15559051D01*
X-19294297Y15530026D01*
X-19256523Y15471248D01*
X-19256368Y15470714D01*
X-19187121Y15230356D01*
X-19108615Y15040827D01*
X-19054223Y14909511D01*
X-19053855Y14908624D01*
X-18885405Y14603836D01*
X-18683888Y14319824D01*
X-18451839Y14060161D01*
X-18192176Y13828112D01*
X-17908164Y13626595D01*
X-17603376Y13458145D01*
X-17281644Y13324879D01*
X-16947013Y13228473D01*
X-16603693Y13170141D01*
X-16256000Y13150615D01*
X-15908307Y13170141D01*
X-15564987Y13228473D01*
X-15230356Y13324879D01*
X-14908624Y13458145D01*
X-14603836Y13626595D01*
X-14319824Y13828112D01*
X-14060161Y14060161D01*
X-13828112Y14319824D01*
X-13626595Y14603836D01*
X-13458145Y14908624D01*
X-13324879Y15230356D01*
X-13228473Y15564987D01*
X-13170141Y15908307D01*
X-13150615Y16256000D01*
X-13170141Y16603693D01*
X-13228473Y16947013D01*
X-13324879Y17281644D01*
X-13458145Y17603376D01*
X-13626595Y17908164D01*
X-13828112Y18192176D01*
X-14060161Y18451839D01*
X-14319824Y18683888D01*
X-14603836Y18885405D01*
X-14908624Y19053855D01*
X-15230356Y19187121D01*
X-15470640Y19256346D01*
X-15529610Y19293820D01*
X-15558958Y19357227D01*
X-15549368Y19426436D01*
X-15503882Y19479472D01*
X-15436944Y19499498D01*
X-15436312Y19499500D01*
X-65892Y19499500D01*
X15436312Y19499500D01*
X15503351Y19479815D01*
G37*
%TD.AperFunction*%
%TA.AperFunction,Conductor*%
G36*
X-12254262Y-17749167D02*
G01*
X-12206541Y-17781177D01*
X-12203931Y-17784000D01*
X-11558000Y-17784000D01*
X-11490961Y-17803685D01*
X-11445206Y-17856489D01*
X-11434000Y-17908000D01*
X-11434000Y-18160000D01*
X-11453685Y-18227039D01*
X-11506489Y-18272794D01*
X-11558000Y-18284000D01*
X-12203932Y-18284000D01*
X-12206542Y-18286823D01*
X-12266504Y-18322689D01*
X-12336337Y-18320443D01*
X-12385274Y-18290333D01*
X-12517184Y-18158423D01*
X-12550666Y-18097103D01*
X-12553500Y-18070745D01*
X-12553500Y-17997253D01*
X-12533815Y-17930214D01*
X-12517186Y-17909577D01*
X-12385275Y-17777666D01*
X-12323954Y-17744183D01*
X-12254262Y-17749167D01*
G37*
%TD.AperFunction*%
%TA.AperFunction,Conductor*%
G36*
X-12253223Y-15716128D02*
G01*
X-12205502Y-15748137D01*
X-12201931Y-15752000D01*
X-11556000Y-15752000D01*
X-11488961Y-15771685D01*
X-11443206Y-15824489D01*
X-11432000Y-15876000D01*
X-11432000Y-16128000D01*
X-11451685Y-16195039D01*
X-11504489Y-16240794D01*
X-11556000Y-16252000D01*
X-12201931Y-16252000D01*
X-12205501Y-16255862D01*
X-12265463Y-16291727D01*
X-12335297Y-16289482D01*
X-12384237Y-16259370D01*
X-12517181Y-16126426D01*
X-12550666Y-16065103D01*
X-12553500Y-16038745D01*
X-12553500Y-15965253D01*
X-12533815Y-15898214D01*
X-12517186Y-15877577D01*
X-12384236Y-15744627D01*
X-12322915Y-15711144D01*
X-12253223Y-15716128D01*
G37*
%TD.AperFunction*%
%TA.AperFunction,Conductor*%
G36*
X-12183935Y-13346185D02*
G01*
X-12138180Y-13398989D01*
X-12128236Y-13468147D01*
X-12144242Y-13513621D01*
X-12154407Y-13530808D01*
X-12154408Y-13530811D01*
X-12199167Y-13684871D01*
X-12199168Y-13684877D01*
X-12201931Y-13720000D01*
X-11556000Y-13720000D01*
X-11488961Y-13739685D01*
X-11443206Y-13792489D01*
X-11432000Y-13844000D01*
X-11432000Y-14096000D01*
X-11451685Y-14163039D01*
X-11504489Y-14208794D01*
X-11556000Y-14220000D01*
X-12201931Y-14220000D01*
X-12205501Y-14223862D01*
X-12265463Y-14259727D01*
X-12335297Y-14257482D01*
X-12384237Y-14227370D01*
X-12517181Y-14094426D01*
X-12550666Y-14033103D01*
X-12553500Y-14006745D01*
X-12553500Y-13450500D01*
X-12533815Y-13383461D01*
X-12481011Y-13337706D01*
X-12429500Y-13326500D01*
X-12250974Y-13326500D01*
X-12183935Y-13346185D01*
G37*
%TD.AperFunction*%
%TA.AperFunction,Conductor*%
G36*
X-7569461Y16143815D02*
G01*
X-7523706Y16091011D01*
X-7512500Y16039500D01*
X-7512500Y14043817D01*
X-7532185Y13976778D01*
X-7562865Y13944048D01*
X-7608425Y13910423D01*
X-7614994Y13903853D01*
X-7617004Y13905863D01*
X-7660787Y13872617D01*
X-7704914Y13864500D01*
X-8178727Y13864500D01*
X-8280590Y13837207D01*
X-8371913Y13784480D01*
X-8371916Y13784478D01*
X-8956478Y13199916D01*
X-8956482Y13199910D01*
X-9009207Y13108590D01*
X-9009784Y13106438D01*
X-9017078Y13079211D01*
X-9036500Y13006727D01*
X-9036500Y8837274D01*
X-9009207Y8735411D01*
X-8987312Y8697489D01*
X-8956480Y8644087D01*
X-8956478Y8644085D01*
X-7603319Y7290926D01*
X-7569834Y7229603D01*
X-7567000Y7203245D01*
X-7567000Y4726821D01*
X-7578623Y4687238D01*
X-7578582Y4687226D01*
X-7607145Y4588916D01*
X-7607146Y4588913D01*
X-7608791Y4568001D01*
X-7608790Y4568000D01*
X-6954000Y4568000D01*
X-6886961Y4548315D01*
X-6841206Y4495511D01*
X-6830000Y4444000D01*
X-6830000Y4318000D01*
X-6704000Y4318000D01*
X-6636961Y4298315D01*
X-6591206Y4245511D01*
X-6580000Y4194000D01*
X-6580000Y3513497D01*
X-6433805Y3555969D01*
X-6294628Y3638278D01*
X-6294620Y3638284D01*
X-6244064Y3688840D01*
X-6182741Y3722326D01*
X-6115431Y3718203D01*
X-6092819Y3710290D01*
X-6092811Y3710290D01*
X-6092810Y3710289D01*
X-6063070Y3707500D01*
X-6063066Y3707500D01*
X-5676930Y3707500D01*
X-5663711Y3708740D01*
X-5647181Y3710290D01*
X-5647177Y3710292D01*
X-5647174Y3710292D01*
X-5582403Y3732957D01*
X-5521843Y3754148D01*
X-5415001Y3833001D01*
X-5336148Y3939843D01*
X-5297741Y4049602D01*
X-5292292Y4065174D01*
X-5292292Y4065177D01*
X-5292290Y4065181D01*
X-5289500Y4094934D01*
X-5289500Y4541066D01*
X-5290180Y4548315D01*
X-5292290Y4570815D01*
X-5292290Y4570819D01*
X-5292292Y4570823D01*
X-5292292Y4570827D01*
X-5325322Y4665218D01*
X-5336148Y4696157D01*
X-5415001Y4802999D01*
X-5419136Y4806051D01*
X-5461385Y4861699D01*
X-5469500Y4905819D01*
X-5469500Y4948667D01*
X-5449815Y5015706D01*
X-5433181Y5036348D01*
X-5406490Y5063039D01*
X-5364794Y5104735D01*
X-5319415Y5207509D01*
X-5316500Y5232635D01*
X-5316501Y6747364D01*
X-5316503Y6747383D01*
X-5319414Y6772488D01*
X-5319415Y6772490D01*
X-5319415Y6772491D01*
X-5364794Y6875265D01*
X-5444235Y6954706D01*
X-5452273Y6958255D01*
X-5547008Y7000085D01*
X-5572135Y7003000D01*
X-6111857Y7003000D01*
X-6111873Y7002999D01*
X-6115694Y7002555D01*
X-6184554Y7014388D01*
X-6217656Y7038049D01*
X-8170663Y8991056D01*
X-8204148Y9052379D01*
X-8199164Y9122071D01*
X-8157292Y9178004D01*
X-8091828Y9202421D01*
X-8069723Y9202026D01*
X-8064837Y9201501D01*
X-8064828Y9201500D01*
X-8017000Y9201500D01*
X-8017000Y11626500D01*
X-8064845Y11626500D01*
X-8098244Y11622908D01*
X-8167004Y11635313D01*
X-8218141Y11682923D01*
X-8235500Y11746197D01*
X-8235500Y12736745D01*
X-8215815Y12803784D01*
X-8199181Y12824426D01*
X-7996426Y13027181D01*
X-7935103Y13060666D01*
X-7908745Y13063500D01*
X-7726317Y13063500D01*
X-7659278Y13043815D01*
X-7613523Y12991011D01*
X-7603579Y12921853D01*
X-7626547Y12865866D01*
X-7686382Y12784793D01*
X-7729742Y12660882D01*
X-7729742Y12660880D01*
X-7732500Y12631462D01*
X-7732500Y12256547D01*
X-7729742Y12227126D01*
X-7729740Y12227116D01*
X-7686382Y12103208D01*
X-7608426Y11997580D01*
X-7608424Y11997578D01*
X-7608423Y11997577D01*
X-7592867Y11986097D01*
X-7550617Y11930453D01*
X-7542500Y11886327D01*
X-7542500Y11702362D01*
X-7562185Y11635323D01*
X-7567000Y11629348D01*
X-7567000Y11402833D01*
X-7586685Y11335794D01*
X-7603319Y11315152D01*
X-7619206Y11299266D01*
X-7664585Y11196494D01*
X-7664585Y11196492D01*
X-7664585Y11196491D01*
X-7667500Y11171365D01*
X-7667500Y10426666D01*
X-7667499Y10414000D01*
X-7667499Y9656644D01*
X-7667498Y9656618D01*
X-7664587Y9631513D01*
X-7664585Y9631509D01*
X-7619207Y9528736D01*
X-7603319Y9512848D01*
X-7569834Y9451525D01*
X-7567000Y9425167D01*
X-7567000Y9201500D01*
X-7533255Y9201500D01*
X-7466216Y9181815D01*
X-7445574Y9165181D01*
X-7178482Y8898089D01*
X-7178480Y8898087D01*
X-7103913Y8823520D01*
X-7029596Y8780613D01*
X-7012587Y8770793D01*
X-6910727Y8743499D01*
X-6910725Y8743499D01*
X-6797677Y8743499D01*
X-6797661Y8743500D01*
X-4773275Y8743500D01*
X-4773273Y8743500D01*
X-4671412Y8770793D01*
X-4580087Y8823520D01*
X-3680426Y9723181D01*
X-3619103Y9756666D01*
X-3592745Y9759500D01*
X9180745Y9759500D01*
X9247784Y9739815D01*
X9268426Y9723181D01*
X14232087Y4759520D01*
X14307838Y4715785D01*
X14356054Y4665218D01*
X14369277Y4596611D01*
X14344792Y4533671D01*
X14257633Y4418254D01*
X14162596Y4227395D01*
X14162596Y4227393D01*
X14104244Y4022311D01*
X14090781Y3877013D01*
X14084571Y3810000D01*
X14104244Y3597690D01*
X14143899Y3458318D01*
X14162596Y3392608D01*
X14162596Y3392606D01*
X14257632Y3201747D01*
X14306356Y3137227D01*
X14331048Y3071866D01*
X14316483Y3003531D01*
X14267286Y2953919D01*
X14207402Y2938500D01*
X12298317Y2938500D01*
X12231278Y2958185D01*
X12185523Y3010989D01*
X12175579Y3080147D01*
X12198547Y3136134D01*
X12212092Y3154487D01*
X12258381Y3217206D01*
X12280061Y3279164D01*
X12301741Y3341119D01*
X12301741Y3341121D01*
X12304308Y3368500D01*
X12304500Y3370543D01*
X12304499Y3745456D01*
X12301741Y3774879D01*
X12258381Y3898794D01*
X12219402Y3951609D01*
X12180423Y4004424D01*
X12108860Y4057239D01*
X12074794Y4082381D01*
X12074792Y4082382D01*
X11950880Y4125742D01*
X11921461Y4128500D01*
X11446546Y4128500D01*
X11417125Y4125742D01*
X11417115Y4125740D01*
X11309564Y4088105D01*
X11239785Y4084543D01*
X11180928Y4117465D01*
X11055402Y4242991D01*
X11021917Y4304314D01*
X11020144Y4314487D01*
X11019681Y4318002D01*
X10999044Y4474762D01*
X10938536Y4620841D01*
X10842282Y4746282D01*
X10716841Y4842536D01*
X10712587Y4844298D01*
X10570762Y4903044D01*
X10570760Y4903045D01*
X10414001Y4923682D01*
X10413999Y4923682D01*
X10257239Y4903045D01*
X10257237Y4903044D01*
X10111160Y4842537D01*
X9985718Y4746282D01*
X9889463Y4620840D01*
X9828956Y4474763D01*
X9828955Y4474761D01*
X9808318Y4318002D01*
X9808318Y4318000D01*
X9828955Y4161240D01*
X9828956Y4161238D01*
X9886501Y4022311D01*
X9889464Y4015159D01*
X9985718Y3889718D01*
X10111159Y3793464D01*
X10257238Y3732956D01*
X10414000Y3712318D01*
X10414001Y3712319D01*
X10417513Y3711856D01*
X10481410Y3683590D01*
X10489009Y3676598D01*
X10853519Y3312088D01*
X10853520Y3312087D01*
X10928087Y3237520D01*
X11019413Y3184793D01*
X11028813Y3182275D01*
X11088472Y3145910D01*
X11119002Y3083064D01*
X11110708Y3013688D01*
X11066223Y2959810D01*
X10999671Y2938535D01*
X10996719Y2938500D01*
X10359273Y2938500D01*
X10257410Y2911207D01*
X10166087Y2858480D01*
X10166084Y2858478D01*
X8409102Y1101497D01*
X8390955Y1087571D01*
X8391065Y1087428D01*
X8384611Y1082476D01*
X7924758Y622624D01*
X7863435Y589139D01*
X7793743Y594123D01*
X7738702Y634819D01*
X7702282Y682282D01*
X7576841Y778536D01*
X7534324Y796147D01*
X7430762Y839044D01*
X7430760Y839045D01*
X7265942Y860743D01*
X7266141Y862258D01*
X7207872Y879367D01*
X7162117Y932171D01*
X7152173Y1001329D01*
X7181198Y1064885D01*
X7201278Y1083452D01*
X7303576Y1158952D01*
X7304423Y1159577D01*
X7382381Y1265206D01*
X7412419Y1351049D01*
X7425741Y1389119D01*
X7425741Y1389121D01*
X7427962Y1412807D01*
X7428500Y1418543D01*
X7428499Y1893456D01*
X7425741Y1922879D01*
X7382381Y2046794D01*
X7329965Y2117815D01*
X7304423Y2152424D01*
X7206032Y2225039D01*
X7198794Y2230381D01*
X7198792Y2230382D01*
X7074880Y2273742D01*
X7045461Y2276500D01*
X6670546Y2276500D01*
X6641125Y2273742D01*
X6641115Y2273740D01*
X6517207Y2230382D01*
X6486133Y2207448D01*
X6420504Y2183478D01*
X6352334Y2198794D01*
X6303266Y2248534D01*
X6288500Y2307219D01*
X6288500Y3548531D01*
X6308185Y3615570D01*
X6360989Y3661325D01*
X6362285Y3661909D01*
X6436765Y3694794D01*
X6516206Y3774235D01*
X6561585Y3877009D01*
X6564500Y3902135D01*
X6564500Y3997500D01*
X6584185Y4064539D01*
X6636989Y4110294D01*
X6688500Y4121500D01*
X7171308Y4121500D01*
X7171309Y4121500D01*
X7261673Y4145714D01*
X7285887Y4152201D01*
X7388614Y4211511D01*
X7914489Y4737386D01*
X7959622Y4815561D01*
X7993373Y4853329D01*
X8038999Y4887001D01*
X8039001Y4887005D01*
X8039004Y4887007D01*
X8109820Y4982960D01*
X8117852Y4993843D01*
X8132396Y5035407D01*
X8161708Y5119174D01*
X8161708Y5119177D01*
X8161710Y5119181D01*
X8164500Y5148934D01*
X8164500Y5535066D01*
X8162819Y5552989D01*
X8161711Y5564810D01*
X8161710Y5564811D01*
X8161710Y5564819D01*
X8153797Y5587431D01*
X8150237Y5657206D01*
X8183160Y5716064D01*
X8233716Y5766620D01*
X8233722Y5766628D01*
X8316031Y5905805D01*
X8358504Y6052000D01*
X6749496Y6052000D01*
X6791968Y5905805D01*
X6874278Y5766626D01*
X6874285Y5766617D01*
X6924839Y5716064D01*
X6958325Y5654741D01*
X6954201Y5587429D01*
X6946289Y5564820D01*
X6946289Y5564819D01*
X6943500Y5535071D01*
X6943500Y5146500D01*
X6923815Y5079461D01*
X6871011Y5033706D01*
X6819500Y5022500D01*
X6688499Y5022500D01*
X6621460Y5042185D01*
X6575705Y5094989D01*
X6564499Y5146500D01*
X6564499Y5241857D01*
X6564499Y5241864D01*
X6564497Y5241883D01*
X6561586Y5266988D01*
X6561585Y5266990D01*
X6561585Y5266991D01*
X6516206Y5369765D01*
X6436765Y5449206D01*
X6365891Y5480500D01*
X6333992Y5494585D01*
X6308868Y5497500D01*
X6308865Y5497500D01*
X6000965Y5497500D01*
X5933926Y5517185D01*
X5888171Y5569989D01*
X5878227Y5639147D01*
X5907252Y5702703D01*
X5913284Y5709181D01*
X6324488Y6120385D01*
X6329438Y6126835D01*
X6330900Y6125713D01*
X6374045Y6166855D01*
X6380785Y6170077D01*
X6390321Y6174288D01*
X6436765Y6194794D01*
X6516206Y6274235D01*
X6561585Y6377009D01*
X6564500Y6402135D01*
X6564500Y6428000D01*
X6584185Y6495039D01*
X6636989Y6540794D01*
X6688500Y6552000D01*
X7304000Y6552000D01*
X7804000Y6552000D01*
X8358504Y6552000D01*
X8316031Y6698196D01*
X8233721Y6837375D01*
X8233714Y6837384D01*
X8119383Y6951715D01*
X8119374Y6951722D01*
X7980195Y7034032D01*
X7980190Y7034034D01*
X7824918Y7079145D01*
X7824912Y7079146D01*
X7804000Y7080791D01*
X7804000Y6552000D01*
X7304000Y6552000D01*
X7304000Y7080790D01*
X7303999Y7080791D01*
X7283087Y7079146D01*
X7283081Y7079145D01*
X7127809Y7034034D01*
X7127804Y7034032D01*
X6988625Y6951722D01*
X6988616Y6951715D01*
X6874285Y6837384D01*
X6874281Y6837378D01*
X6795231Y6703713D01*
X6744161Y6656030D01*
X6675419Y6643527D01*
X6610830Y6670173D01*
X6570900Y6727509D01*
X6564499Y6766831D01*
X6564499Y7741864D01*
X6562702Y7757362D01*
X6561586Y7766988D01*
X6561585Y7766990D01*
X6561585Y7766991D01*
X6516206Y7869765D01*
X6450819Y7935152D01*
X6417334Y7996475D01*
X6414500Y8022833D01*
X6414500Y8062330D01*
X6434185Y8129369D01*
X6463014Y8160706D01*
X6524282Y8207718D01*
X6620536Y8333159D01*
X6681044Y8479238D01*
X6701682Y8636000D01*
X6701155Y8640000D01*
X6681044Y8792761D01*
X6681044Y8792762D01*
X6620536Y8938841D01*
X6524282Y9064282D01*
X6398841Y9160536D01*
X6395900Y9161754D01*
X6252762Y9221044D01*
X6252760Y9221045D01*
X6096001Y9241682D01*
X6095999Y9241682D01*
X5939239Y9221045D01*
X5939234Y9221043D01*
X5814128Y9169223D01*
X5744658Y9161754D01*
X5682179Y9193030D01*
X5678995Y9196103D01*
X5559383Y9315715D01*
X5559374Y9315722D01*
X5420193Y9398033D01*
X5420190Y9398035D01*
X5274001Y9440507D01*
X5274000Y9440506D01*
X5274000Y7757362D01*
X5264000Y7723307D01*
X5264000Y7196000D01*
X5244315Y7128961D01*
X5191511Y7083206D01*
X5140000Y7072000D01*
X4888000Y7072000D01*
X4820961Y7091685D01*
X4775206Y7144489D01*
X4764000Y7196000D01*
X4764000Y8265638D01*
X4774000Y8299694D01*
X4774000Y9440506D01*
X4773998Y9440507D01*
X4627809Y9398035D01*
X4627806Y9398033D01*
X4488625Y9315722D01*
X4488619Y9315717D01*
X4438060Y9265159D01*
X4376736Y9231675D01*
X4309426Y9235800D01*
X4286822Y9243710D01*
X4286814Y9243711D01*
X4257070Y9246500D01*
X4257066Y9246500D01*
X3870934Y9246500D01*
X3870930Y9246500D01*
X3841185Y9243711D01*
X3841173Y9243709D01*
X3715844Y9199853D01*
X3609001Y9120999D01*
X3530147Y9014156D01*
X3486291Y8888827D01*
X3486289Y8888815D01*
X3483500Y8859071D01*
X3483500Y8412930D01*
X3486289Y8383186D01*
X3486291Y8383174D01*
X3530147Y8257845D01*
X3530148Y8257843D01*
X3609001Y8151001D01*
X3609002Y8151000D01*
X3615572Y8144430D01*
X3612916Y8141775D01*
X3644222Y8100536D01*
X3649675Y8030879D01*
X3616603Y7969332D01*
X3598412Y7954123D01*
X3591236Y7949208D01*
X3511793Y7869764D01*
X3466415Y7766994D01*
X3466415Y7766992D01*
X3463500Y7741869D01*
X3463500Y6402144D01*
X3463502Y6402118D01*
X3466413Y6377013D01*
X3466415Y6377009D01*
X3511793Y6274236D01*
X3511794Y6274235D01*
X3591235Y6194794D01*
X3591236Y6194794D01*
X3591237Y6194793D01*
X3610796Y6186157D01*
X3664172Y6141072D01*
X3668094Y6134730D01*
X3703511Y6073386D01*
X3703513Y6073384D01*
X4067716Y5709181D01*
X4101201Y5647858D01*
X4096217Y5578166D01*
X4054345Y5522233D01*
X3988881Y5497816D01*
X3980035Y5497500D01*
X3719143Y5497500D01*
X3719117Y5497498D01*
X3694012Y5494587D01*
X3694008Y5494585D01*
X3591235Y5449207D01*
X3511794Y5369766D01*
X3466415Y5266994D01*
X3466415Y5266992D01*
X3463500Y5241869D01*
X3463500Y3902144D01*
X3463502Y3902118D01*
X3466413Y3877013D01*
X3466415Y3877009D01*
X3511793Y3774236D01*
X3511794Y3774235D01*
X3591235Y3694794D01*
X3694009Y3649415D01*
X3719135Y3646500D01*
X4408864Y3646501D01*
X4408879Y3646503D01*
X4408882Y3646503D01*
X4433987Y3649414D01*
X4433988Y3649415D01*
X4433991Y3649415D01*
X4536765Y3694794D01*
X4616206Y3774235D01*
X4661585Y3877009D01*
X4664500Y3902135D01*
X4664499Y5241864D01*
X4663183Y5253214D01*
X4675013Y5322075D01*
X4722194Y5373609D01*
X4786357Y5391500D01*
X5241642Y5391500D01*
X5308681Y5371815D01*
X5354436Y5319011D01*
X5364816Y5253210D01*
X5363500Y5241871D01*
X5363500Y3902144D01*
X5363502Y3902118D01*
X5366413Y3877013D01*
X5366414Y3877012D01*
X5366414Y3877010D01*
X5366415Y3877009D01*
X5376934Y3853185D01*
X5387500Y3803100D01*
X5387500Y3368500D01*
X5367815Y3301461D01*
X5315011Y3255706D01*
X5263500Y3244500D01*
X1484125Y3244500D01*
X1417086Y3264185D01*
X1371331Y3316989D01*
X1361387Y3386147D01*
X1390412Y3449703D01*
X1436672Y3483061D01*
X1572841Y3539464D01*
X1698282Y3635718D01*
X1794536Y3761159D01*
X1855044Y3907238D01*
X1873456Y4047090D01*
X1875682Y4063999D01*
X1875682Y4064002D01*
X1856262Y4211511D01*
X1855044Y4220762D01*
X1794536Y4366841D01*
X1794535Y4366842D01*
X1794535Y4366843D01*
X1696124Y4495095D01*
X1670930Y4560264D01*
X1670500Y4570581D01*
X1670500Y4825711D01*
X1690185Y4892750D01*
X1728529Y4930705D01*
X1752075Y4945500D01*
X1772262Y4958184D01*
X1899816Y5085738D01*
X1995789Y5238478D01*
X2055368Y5408745D01*
X2065368Y5497499D01*
X2075565Y5587997D01*
X2075565Y5588004D01*
X2055369Y5767250D01*
X2055368Y5767255D01*
X2002756Y5917611D01*
X1995789Y5937522D01*
X1899816Y6090262D01*
X1772262Y6217816D01*
X1740361Y6237861D01*
X1619523Y6313789D01*
X1449254Y6373369D01*
X1449249Y6373370D01*
X1270004Y6393565D01*
X1269996Y6393565D01*
X1090750Y6373370D01*
X1090745Y6373369D01*
X920476Y6313789D01*
X767737Y6217816D01*
X640184Y6090263D01*
X544211Y5937524D01*
X484631Y5767255D01*
X484630Y5767250D01*
X464435Y5588004D01*
X464435Y5587997D01*
X484630Y5408751D01*
X484631Y5408746D01*
X544211Y5238477D01*
X619167Y5119186D01*
X640184Y5085738D01*
X767738Y4958184D01*
X787925Y4945500D01*
X811471Y4930705D01*
X857763Y4878371D01*
X869500Y4825711D01*
X869500Y4570581D01*
X849815Y4503542D01*
X843876Y4495095D01*
X745464Y4366843D01*
X684956Y4220763D01*
X684955Y4220761D01*
X664318Y4064002D01*
X664318Y4063999D01*
X684955Y3907240D01*
X684956Y3907238D01*
X739782Y3774875D01*
X745464Y3761159D01*
X841718Y3635718D01*
X967159Y3539464D01*
X1103328Y3483061D01*
X1157731Y3439220D01*
X1179796Y3372926D01*
X1162517Y3305226D01*
X1111380Y3257616D01*
X1055875Y3244500D01*
X-849308Y3244500D01*
X-939674Y3220287D01*
X-939675Y3220288D01*
X-963883Y3213801D01*
X-963886Y3213800D01*
X-1066613Y3154489D01*
X-1066616Y3154487D01*
X-1602487Y2618617D01*
X-1602494Y2618608D01*
X-1621611Y2585497D01*
X-1655359Y2547732D01*
X-1696999Y2516999D01*
X-1775853Y2410156D01*
X-1819709Y2284827D01*
X-1819711Y2284815D01*
X-1822500Y2255071D01*
X-1822500Y1808930D01*
X-1819711Y1779186D01*
X-1819709Y1779174D01*
X-1782052Y1671561D01*
X-1775852Y1653843D01*
X-1738858Y1603718D01*
X-1716730Y1573736D01*
X-1692759Y1508107D01*
X-1692500Y1500102D01*
X-1692500Y1336500D01*
X-1712185Y1269461D01*
X-1764989Y1223706D01*
X-1816500Y1212500D01*
X-4123309Y1212500D01*
X-4237886Y1181799D01*
X-4276050Y1159765D01*
X-4340614Y1122489D01*
X-4340617Y1122487D01*
X-8786284Y-3323181D01*
X-8847607Y-3356666D01*
X-8873965Y-3359500D01*
X-9558500Y-3359500D01*
X-9625539Y-3339815D01*
X-9671294Y-3287011D01*
X-9682500Y-3235500D01*
X-9682500Y-3060002D01*
X-9683803Y-3031816D01*
X-9683803Y-3031812D01*
X-9714528Y-2923827D01*
X-9782186Y-2834233D01*
X-9782187Y-2834232D01*
X-9877640Y-2775130D01*
X-9877639Y-2775130D01*
X-9939748Y-2763520D01*
X-9988000Y-2754500D01*
X-10988000Y-2754500D01*
X-10988008Y-2754500D01*
X-11061683Y-2763518D01*
X-11061690Y-2763520D01*
X-11081111Y-2772389D01*
X-11150270Y-2782329D01*
X-11177404Y-2775221D01*
X-11177635Y-2775131D01*
X-11204724Y-2770067D01*
X-11288000Y-2754500D01*
X-12438000Y-2754500D01*
X-12440870Y-2754632D01*
X-12466184Y-2755802D01*
X-12466193Y-2755804D01*
X-12574170Y-2786526D01*
X-12574175Y-2786529D01*
X-12663768Y-2854186D01*
X-12722870Y-2949639D01*
X-12726355Y-2968282D01*
X-12741202Y-3047710D01*
X-12743500Y-3060002D01*
X-12743500Y-3235500D01*
X-12763185Y-3302539D01*
X-12815989Y-3348294D01*
X-12867500Y-3359500D01*
X-14089774Y-3359500D01*
X-14156813Y-3339815D01*
X-14200774Y-3290771D01*
X-14237634Y-3216745D01*
X-14366128Y-3046593D01*
X-14523698Y-2902948D01*
X-14704981Y-2790702D01*
X-14704983Y-2790701D01*
X-14863077Y-2729456D01*
X-14903802Y-2713679D01*
X-15100615Y-2676888D01*
X-15162894Y-2645221D01*
X-15198167Y-2584908D01*
X-15195233Y-2515100D01*
X-15155024Y-2457960D01*
X-15100616Y-2433111D01*
X-14903802Y-2396321D01*
X-14704981Y-2319298D01*
X-14523698Y-2207052D01*
X-14366128Y-2063407D01*
X-14237634Y-1893255D01*
X-14222465Y-1862792D01*
X-14142597Y-1702394D01*
X-14142597Y-1702393D01*
X-14142595Y-1702389D01*
X-14084244Y-1497310D01*
X-14064571Y-1285000D01*
X-14084244Y-1072690D01*
X-14142595Y-867611D01*
X-14142597Y-867606D01*
X-14142597Y-867605D01*
X-14237633Y-676746D01*
X-14366128Y-506593D01*
X-14385975Y-488500D01*
X-14523698Y-362948D01*
X-14704981Y-250702D01*
X-14704983Y-250701D01*
X-14804392Y-212190D01*
X-14903802Y-173679D01*
X-15100615Y-136888D01*
X-15162894Y-105221D01*
X-15198167Y-44908D01*
X-15195233Y24900D01*
X-15155024Y82040D01*
X-15100616Y106889D01*
X-14903802Y143679D01*
X-14704981Y220702D01*
X-14523698Y332948D01*
X-14366128Y476593D01*
X-14237634Y646745D01*
X-14142595Y837611D01*
X-14092990Y1011956D01*
X-14081115Y1040012D01*
X-14057383Y1081114D01*
X-14026682Y1195691D01*
X-14026682Y1314309D01*
X-14057383Y1428886D01*
X-14081113Y1469986D01*
X-14092990Y1498043D01*
X-14142595Y1672389D01*
X-14150067Y1687395D01*
X-14237633Y1863254D01*
X-14366128Y2033407D01*
X-14429938Y2091578D01*
X-14523698Y2177052D01*
X-14704981Y2289298D01*
X-14704983Y2289299D01*
X-14837870Y2340779D01*
X-14903802Y2366321D01*
X-15100615Y2403112D01*
X-15162894Y2434779D01*
X-15198167Y2495092D01*
X-15195233Y2564900D01*
X-15155024Y2622040D01*
X-15100616Y2646889D01*
X-14903802Y2683679D01*
X-14704981Y2760702D01*
X-14523698Y2872948D01*
X-14366128Y3016593D01*
X-14237634Y3186745D01*
X-14178638Y3305226D01*
X-14142597Y3377606D01*
X-14142597Y3377607D01*
X-14142595Y3377611D01*
X-14084244Y3582690D01*
X-14064571Y3795000D01*
X-14084244Y4007310D01*
X-14101512Y4068000D01*
X-7608790Y4068000D01*
X-7607146Y4047090D01*
X-7562032Y3891805D01*
X-7479722Y3752626D01*
X-7479715Y3752617D01*
X-7365384Y3638286D01*
X-7365375Y3638279D01*
X-7226196Y3555969D01*
X-7080000Y3513496D01*
X-7080000Y4068000D01*
X-7608790Y4068000D01*
X-14101512Y4068000D01*
X-14142595Y4212389D01*
X-14142597Y4212394D01*
X-14142597Y4212395D01*
X-14237633Y4403254D01*
X-14366128Y4573407D01*
X-14383137Y4588913D01*
X-14523698Y4717052D01*
X-14704981Y4829298D01*
X-14704983Y4829299D01*
X-14853936Y4887003D01*
X-14903802Y4906321D01*
X-15100615Y4943112D01*
X-15162894Y4974779D01*
X-15198167Y5035092D01*
X-15195233Y5104900D01*
X-15155024Y5162040D01*
X-15100616Y5186889D01*
X-14903802Y5223679D01*
X-14888373Y5229656D01*
X-8517000Y5229656D01*
X-8510599Y5170128D01*
X-8510597Y5170121D01*
X-8460355Y5035414D01*
X-8460351Y5035407D01*
X-8374191Y4920313D01*
X-8374188Y4920310D01*
X-8259094Y4834150D01*
X-8259087Y4834146D01*
X-8124380Y4783904D01*
X-8124373Y4783902D01*
X-8064845Y4777501D01*
X-8064828Y4777500D01*
X-8017000Y4777500D01*
X-8017000Y5765000D01*
X-8517000Y5765000D01*
X-8517000Y5229656D01*
X-14888373Y5229656D01*
X-14704981Y5300702D01*
X-14523698Y5412948D01*
X-14366128Y5556593D01*
X-14237634Y5726745D01*
X-14202652Y5796999D01*
X-14142597Y5917606D01*
X-14142597Y5917607D01*
X-14142595Y5917611D01*
X-14084244Y6122690D01*
X-14064571Y6335000D01*
X-14084244Y6547310D01*
X-14142013Y6750345D01*
X-8517000Y6750345D01*
X-8517000Y6215000D01*
X-8017000Y6215000D01*
X-8017000Y7202500D01*
X-8064845Y7202500D01*
X-8124373Y7196099D01*
X-8124380Y7196097D01*
X-8259087Y7145855D01*
X-8259094Y7145851D01*
X-8374188Y7059691D01*
X-8374191Y7059688D01*
X-8460351Y6944594D01*
X-8460355Y6944587D01*
X-8510597Y6809880D01*
X-8510599Y6809873D01*
X-8517000Y6750345D01*
X-14142013Y6750345D01*
X-14142595Y6752389D01*
X-14142597Y6752394D01*
X-14142597Y6752395D01*
X-14237633Y6943254D01*
X-14366128Y7113407D01*
X-14456834Y7196097D01*
X-14523698Y7257052D01*
X-14523701Y7257054D01*
X-14523702Y7257055D01*
X-14585911Y7295573D01*
X-14632547Y7347601D01*
X-14643651Y7416582D01*
X-14615698Y7480617D01*
X-14557563Y7519373D01*
X-14520634Y7525000D01*
X-14322172Y7525000D01*
X-14322156Y7525001D01*
X-14262628Y7531402D01*
X-14262621Y7531404D01*
X-14127914Y7581646D01*
X-14127907Y7581650D01*
X-14012813Y7667810D01*
X-14012810Y7667813D01*
X-13926650Y7782907D01*
X-13926646Y7782914D01*
X-13876404Y7917621D01*
X-13876402Y7917628D01*
X-13870001Y7977156D01*
X-13870000Y7977173D01*
X-13870000Y8625000D01*
X-14786988Y8625000D01*
X-14754075Y8682007D01*
X-14720000Y8809174D01*
X-14720000Y8940826D01*
X-14754075Y9067993D01*
X-14786988Y9125000D01*
X-13870000Y9125000D01*
X-13870000Y9772828D01*
X-13870001Y9772845D01*
X-13876402Y9832373D01*
X-13876404Y9832380D01*
X-13926646Y9967087D01*
X-13926650Y9967094D01*
X-14012810Y10082188D01*
X-14012813Y10082191D01*
X-14127907Y10168351D01*
X-14127914Y10168355D01*
X-14262621Y10218597D01*
X-14262628Y10218599D01*
X-14322156Y10225000D01*
X-14970000Y10225000D01*
X-14970000Y9308012D01*
X-15027007Y9340925D01*
X-15154174Y9375000D01*
X-15285826Y9375000D01*
X-15412993Y9340925D01*
X-15470000Y9308012D01*
X-15470000Y10264404D01*
X-15450315Y10331443D01*
X-15433681Y10352085D01*
X-14883507Y10902258D01*
X-9658583Y16127181D01*
X-9597260Y16160666D01*
X-9570902Y16163500D01*
X-7636500Y16163500D01*
X-7569461Y16143815D01*
G37*
%TD.AperFunction*%
%TA.AperFunction,Conductor*%
G36*
X512539Y192315D02*
G01*
X558294Y139511D01*
X569500Y88000D01*
X569501Y-164000D01*
X549817Y-231039D01*
X497013Y-276794D01*
X445501Y-288000D01*
X194000Y-288000D01*
X126961Y-268315D01*
X81206Y-215511D01*
X70000Y-164000D01*
X70000Y88000D01*
X89685Y155039D01*
X142489Y200794D01*
X194000Y212000D01*
X445500Y212000D01*
X512539Y192315D01*
G37*
%TD.AperFunction*%
%TA.AperFunction,Conductor*%
G36*
X1122914Y2323815D02*
G01*
X1168669Y2271011D01*
X1178613Y2201853D01*
X1149588Y2138297D01*
X1103328Y2104940D01*
X1077515Y2094248D01*
X967160Y2048537D01*
X841718Y1952282D01*
X745464Y1826841D01*
X729817Y1789066D01*
X685975Y1734663D01*
X619680Y1712599D01*
X551981Y1729879D01*
X524200Y1752349D01*
X496791Y1782000D01*
X-158000Y1782000D01*
X-225039Y1801685D01*
X-270794Y1854489D01*
X-282000Y1906000D01*
X-282000Y2158000D01*
X-262315Y2225039D01*
X-209511Y2270794D01*
X-158000Y2282000D01*
X496790Y2282000D01*
X516826Y2303674D01*
X576788Y2339539D01*
X607880Y2343500D01*
X1055875Y2343500D01*
X1122914Y2323815D01*
G37*
%TD.AperFunction*%
%TA.AperFunction,Conductor*%
G36*
X7717703Y13305458D02*
G01*
X7724181Y13299426D01*
X14131805Y6891802D01*
X14165290Y6830479D01*
X14163390Y6770187D01*
X14104244Y6562313D01*
X14084571Y6350001D01*
X14084571Y6344267D01*
X14083419Y6344267D01*
X14071145Y6281535D01*
X14022787Y6231104D01*
X13954841Y6214823D01*
X13888879Y6237861D01*
X13873409Y6250984D01*
X9643915Y10480478D01*
X9643913Y10480480D01*
X9598250Y10506844D01*
X9552589Y10533207D01*
X9501657Y10546854D01*
X9450727Y10560500D01*
X9450726Y10560500D01*
X6766025Y10560500D01*
X6698986Y10580185D01*
X6653231Y10632989D01*
X6643086Y10700685D01*
X6656147Y10799894D01*
X6684412Y10863786D01*
X6742736Y10902258D01*
X6812601Y10903090D01*
X6826528Y10898270D01*
X6955238Y10844956D01*
X7033619Y10834637D01*
X7111999Y10824318D01*
X7112000Y10824318D01*
X7112001Y10824318D01*
X7164254Y10831198D01*
X7268762Y10844956D01*
X7414841Y10905464D01*
X7540282Y11001718D01*
X7636536Y11127159D01*
X7697044Y11273238D01*
X7717682Y11430000D01*
X7697044Y11586762D01*
X7636536Y11732841D01*
X7636535Y11732842D01*
X7636535Y11732843D01*
X7538124Y11861095D01*
X7512930Y11926264D01*
X7512500Y11936581D01*
X7512500Y13211745D01*
X7532185Y13278784D01*
X7584989Y13324539D01*
X7654147Y13334483D01*
X7717703Y13305458D01*
G37*
%TD.AperFunction*%
%TA.AperFunction,Conductor*%
G36*
X9672942Y16143815D02*
G01*
X9693583Y16127182D01*
X15453681Y10367083D01*
X15487166Y10305761D01*
X15490000Y10279403D01*
X15490000Y9323012D01*
X15432993Y9355925D01*
X15305826Y9390000D01*
X15174174Y9390000D01*
X15047007Y9355925D01*
X14990000Y9323012D01*
X14990000Y10220636D01*
X14989999Y10220636D01*
X14776513Y10163433D01*
X14776507Y10163430D01*
X14562422Y10063601D01*
X14562420Y10063600D01*
X14368926Y9928114D01*
X14368920Y9928109D01*
X14201891Y9761080D01*
X14201886Y9761074D01*
X14066400Y9567580D01*
X14066399Y9567578D01*
X13966570Y9353493D01*
X13966567Y9353487D01*
X13909364Y9140001D01*
X13909364Y9140000D01*
X14806988Y9140000D01*
X14774075Y9082993D01*
X14740000Y8955826D01*
X14740000Y8824174D01*
X14774075Y8697007D01*
X14806988Y8640000D01*
X13909364Y8640000D01*
X13933426Y8550197D01*
X13931763Y8480347D01*
X13892600Y8422485D01*
X13828372Y8394981D01*
X13759470Y8406568D01*
X13725970Y8430423D01*
X8076996Y14079397D01*
X8043511Y14140720D01*
X8048495Y14210412D01*
X8090367Y14266345D01*
X8090679Y14266578D01*
X8116423Y14285577D01*
X8194381Y14391206D01*
X8216061Y14453164D01*
X8237741Y14515119D01*
X8237741Y14515121D01*
X8239805Y14537136D01*
X8240500Y14544543D01*
X8240499Y14919456D01*
X8237741Y14948879D01*
X8194381Y15072794D01*
X8123844Y15168368D01*
X8099874Y15233995D01*
X8115189Y15302165D01*
X8123845Y15315634D01*
X8131669Y15326235D01*
X8194381Y15411206D01*
X8216061Y15473164D01*
X8237741Y15535119D01*
X8237741Y15535121D01*
X8240500Y15564543D01*
X8240499Y15939456D01*
X8237741Y15968879D01*
X8227359Y15998547D01*
X8223799Y16068324D01*
X8258528Y16128952D01*
X8320521Y16161179D01*
X8344402Y16163500D01*
X9605903Y16163500D01*
X9672942Y16143815D01*
G37*
%TD.AperFunction*%
%TA.AperFunction,Conductor*%
G36*
X222697Y16162440D02*
G01*
X254000Y16158318D01*
X285302Y16162440D01*
X301487Y16163500D01*
X3759500Y16163500D01*
X3826539Y16143815D01*
X3872294Y16091011D01*
X3883500Y16039500D01*
X3883500Y15907951D01*
X3863815Y15840912D01*
X3811011Y15795157D01*
X3809586Y15794517D01*
X3786240Y15784210D01*
X3786232Y15784204D01*
X3706794Y15704766D01*
X3661415Y15601994D01*
X3661415Y15601992D01*
X3658500Y15576869D01*
X3658500Y15426005D01*
X3638815Y15358966D01*
X3586011Y15313211D01*
X3516853Y15303267D01*
X3460867Y15326235D01*
X3426157Y15351852D01*
X3426155Y15351853D01*
X3300826Y15395709D01*
X3300814Y15395711D01*
X3271070Y15398500D01*
X3271066Y15398500D01*
X2824934Y15398500D01*
X2824930Y15398500D01*
X2795185Y15395711D01*
X2795173Y15395709D01*
X2669844Y15351853D01*
X2563001Y15272999D01*
X2484147Y15166156D01*
X2440291Y15040827D01*
X2440289Y15040815D01*
X2437500Y15011071D01*
X2437500Y14624930D01*
X2440289Y14595186D01*
X2440290Y14595178D01*
X2448200Y14572574D01*
X2451761Y14502795D01*
X2418841Y14443940D01*
X2368283Y14393381D01*
X2368278Y14393375D01*
X2285968Y14254196D01*
X2243496Y14108000D01*
X2924000Y14108000D01*
X2991039Y14088315D01*
X3036794Y14035511D01*
X3048000Y13984000D01*
X3048000Y13858000D01*
X3174000Y13858000D01*
X3241039Y13838315D01*
X3286794Y13785511D01*
X3298000Y13734000D01*
X3298000Y13079211D01*
X3318910Y13080855D01*
X3474195Y13125969D01*
X3613374Y13208279D01*
X3613383Y13208286D01*
X3727714Y13322617D01*
X3727718Y13322623D01*
X3758874Y13375304D01*
X3809943Y13422988D01*
X3878685Y13435492D01*
X3878863Y13435473D01*
X3911155Y13432001D01*
X3911172Y13432000D01*
X4184000Y13432000D01*
X4184000Y14157501D01*
X4203685Y14224540D01*
X4256489Y14270295D01*
X4307997Y14281501D01*
X4360001Y14281501D01*
X4427039Y14261816D01*
X4472794Y14209012D01*
X4484000Y14157501D01*
X4484000Y13432000D01*
X4756828Y13432000D01*
X4756844Y13432001D01*
X4816372Y13438402D01*
X4816376Y13438403D01*
X4951091Y13488649D01*
X4956925Y13491834D01*
X5016349Y13507000D01*
X5084000Y13507000D01*
X5084000Y14482000D01*
X5047681Y14518319D01*
X5050020Y14520659D01*
X5020706Y14554489D01*
X5009500Y14606000D01*
X5009499Y14858000D01*
X5029183Y14925039D01*
X5081987Y14970794D01*
X5133499Y14982000D01*
X5210000Y14982000D01*
X5277039Y14962315D01*
X5322794Y14909511D01*
X5334000Y14858000D01*
X5334000Y14732000D01*
X5460000Y14732000D01*
X5527039Y14712315D01*
X5572794Y14659511D01*
X5584000Y14608000D01*
X5584000Y13507000D01*
X5756828Y13507000D01*
X5756844Y13507001D01*
X5816372Y13513402D01*
X5816376Y13513403D01*
X5951091Y13563649D01*
X6008689Y13606767D01*
X6074153Y13631185D01*
X6082988Y13631501D01*
X6166744Y13631501D01*
X6233783Y13611816D01*
X6254425Y13595182D01*
X6675181Y13174426D01*
X6708666Y13113103D01*
X6711500Y13086745D01*
X6711500Y11954500D01*
X6691815Y11887461D01*
X6639011Y11841706D01*
X6587500Y11830500D01*
X-6402729Y11830500D01*
X-6479454Y11809942D01*
X-6549304Y11811605D01*
X-6607166Y11850769D01*
X-6634669Y11914997D01*
X-6623082Y11983899D01*
X-6611316Y12003351D01*
X-6537619Y12103206D01*
X-6515939Y12165164D01*
X-6494259Y12227119D01*
X-6494259Y12227121D01*
X-6494259Y12227126D01*
X-6491500Y12256543D01*
X-6491501Y12631456D01*
X-6494259Y12660879D01*
X-6537619Y12784794D01*
X-6608156Y12880368D01*
X-6632126Y12945995D01*
X-6616811Y13014165D01*
X-6608155Y13027634D01*
X-6537619Y13123206D01*
X-6507848Y13208286D01*
X-6494259Y13247119D01*
X-6494259Y13247121D01*
X-6491500Y13276543D01*
X-6491501Y13608000D01*
X2243496Y13608000D01*
X2285968Y13461805D01*
X2368278Y13322626D01*
X2368285Y13322617D01*
X2482616Y13208286D01*
X2482625Y13208279D01*
X2621804Y13125969D01*
X2777089Y13080855D01*
X2798000Y13079211D01*
X2798000Y13608000D01*
X2243496Y13608000D01*
X-6491501Y13608000D01*
X-6491501Y13651456D01*
X-6494259Y13680879D01*
X-6537619Y13804794D01*
X-6615577Y13910423D01*
X-6615580Y13910425D01*
X-6615582Y13910428D01*
X-6661135Y13944048D01*
X-6703385Y13999696D01*
X-6711500Y14043817D01*
X-6711500Y15784746D01*
X-6691815Y15851785D01*
X-6675181Y15872427D01*
X-6420427Y16127181D01*
X-6359104Y16160666D01*
X-6332746Y16163500D01*
X-5413057Y16163500D01*
X174943Y16163500D01*
X206513Y16163500D01*
X222697Y16162440D01*
G37*
%TD.AperFunction*%
%TD*%
M02*
