M48
; DRILL file {KiCad 8.0.7} date 2024-12-29T21:32:39+0100
; FORMAT={-:-/ absolute / inch / decimal}
; #@! TF.CreationDate,2024-12-29T21:32:39+01:00
; #@! TF.GenerationSoftware,Kicad,Pcbnew,8.0.7
; #@! TF.FileFunction,Plated,1,2,PTH
FMAT,2
INCH
; #@! TA.AperFunction,Plated,PTH,ViaDrill
T1C0.0118
; #@! TA.AperFunction,Plated,PTH,ComponentDrill
T2C0.0394
; #@! TA.AperFunction,Plated,PTH,ComponentDrill
T3C0.1260
%
G90
G05
T1
X-0.7Y0.47
X-0.48Y-0.55
X-0.48Y-0.63
X-0.48Y-0.71
X-0.44Y0.71
X-0.28Y-0.54
X-0.25Y-0.52
X-0.25Y-0.67
X0.0Y-0.56
X0.01Y0.66
X0.0264Y0.0823
X0.05Y0.16
X0.05Y0.06
X0.08Y-0.1
X0.1Y-0.04
X0.1Y-0.44
X0.11Y0.23
X0.16Y-0.03
X0.17Y0.08
X0.17Y-0.56
X0.18Y0.5
X0.2384Y0.4264
X0.24Y0.34
X0.25Y0.6344
X0.28Y0.45
X0.28Y-0.03
X0.2864Y0.01
X0.29Y-0.56
X0.36Y0.44
X0.41Y0.17
X0.41Y0.01
X0.41Y-0.08
X0.46Y0.27
X0.48Y-0.47
X0.5Y-0.19
X0.5Y-0.39
X0.7Y0.48
T2
X-0.6992Y0.3494
X-0.6992Y0.2494
X-0.6992Y0.1494
X-0.6992Y0.0494
X-0.6992Y-0.0506
X-0.6992Y-0.1506
X-0.6992Y-0.2506
X-0.6992Y-0.3506
X-0.5992Y0.3494
X-0.5992Y0.2494
X-0.5992Y0.1494
X-0.5992Y0.0494
X-0.5992Y-0.0506
X-0.5992Y-0.1506
X-0.5992Y-0.2506
X-0.5992Y-0.3506
X0.6Y0.35
X0.6Y0.25
X0.6Y0.15
X0.6Y0.05
X0.6Y-0.05
X0.6Y-0.15
X0.6Y-0.25
X0.6Y-0.35
X0.7Y0.35
X0.7Y0.25
X0.7Y0.15
X0.7Y0.05
X0.7Y-0.05
X0.7Y-0.15
X0.7Y-0.25
X0.7Y-0.35
T3
X-0.64Y0.64
X-0.64Y-0.64
X0.64Y0.64
X0.64Y-0.64
M30
