%TF.GenerationSoftware,KiCad,Pcbnew,8.0.7*%
%TF.CreationDate,2024-12-29T21:09:01+01:00*%
%TF.ProjectId,stackflex_core,73746163-6b66-46c6-9578-5f636f72652e,2025.1.1*%
%TF.SameCoordinates,Original*%
%TF.FileFunction,Paste,Top*%
%TF.FilePolarity,Positive*%
%FSLAX46Y46*%
G04 Gerber Fmt 4.6, Leading zero omitted, Abs format (unit mm)*
G04 Created by KiCad (PCBNEW 8.0.7) date 2024-12-29 21:09:01*
%MOMM*%
%LPD*%
G01*
G04 APERTURE LIST*
G04 Aperture macros list*
%AMRoundRect*
0 Rectangle with rounded corners*
0 $1 Rounding radius*
0 $2 $3 $4 $5 $6 $7 $8 $9 X,Y pos of 4 corners*
0 Add a 4 corners polygon primitive as box body*
4,1,4,$2,$3,$4,$5,$6,$7,$8,$9,$2,$3,0*
0 Add four circle primitives for the rounded corners*
1,1,$1+$1,$2,$3*
1,1,$1+$1,$4,$5*
1,1,$1+$1,$6,$7*
1,1,$1+$1,$8,$9*
0 Add four rect primitives between the rounded corners*
20,1,$1+$1,$2,$3,$4,$5,0*
20,1,$1+$1,$4,$5,$6,$7,0*
20,1,$1+$1,$6,$7,$8,$9,0*
20,1,$1+$1,$8,$9,$2,$3,0*%
G04 Aperture macros list end*
%ADD10R,0.800000X0.400000*%
%ADD11R,0.400000X0.800000*%
%ADD12R,1.200000X1.200000*%
%ADD13R,0.800000X0.800000*%
%ADD14RoundRect,0.135000X-0.135000X-0.185000X0.135000X-0.185000X0.135000X0.185000X-0.135000X0.185000X0*%
%ADD15RoundRect,0.135000X0.135000X0.185000X-0.135000X0.185000X-0.135000X-0.185000X0.135000X-0.185000X0*%
%ADD16RoundRect,0.140000X0.170000X-0.140000X0.170000X0.140000X-0.170000X0.140000X-0.170000X-0.140000X0*%
%ADD17RoundRect,0.135000X-0.185000X0.135000X-0.185000X-0.135000X0.185000X-0.135000X0.185000X0.135000X0*%
%ADD18RoundRect,0.140000X0.140000X0.170000X-0.140000X0.170000X-0.140000X-0.170000X0.140000X-0.170000X0*%
%ADD19R,0.600000X1.150000*%
%ADD20R,0.950000X1.400000*%
%ADD21R,1.150000X0.750000*%
%ADD22RoundRect,0.140000X-0.140000X-0.170000X0.140000X-0.170000X0.140000X0.170000X-0.140000X0.170000X0*%
%ADD23RoundRect,0.140000X-0.170000X0.140000X-0.170000X-0.140000X0.170000X-0.140000X0.170000X0.140000X0*%
%ADD24R,0.700000X0.650000*%
%ADD25RoundRect,0.135000X0.185000X-0.135000X0.185000X0.135000X-0.185000X0.135000X-0.185000X-0.135000X0*%
%ADD26R,1.050000X0.550000*%
%ADD27R,0.300000X0.750000*%
%ADD28R,1.300000X0.900000*%
%ADD29RoundRect,0.150000X-0.150000X-0.425000X0.150000X-0.425000X0.150000X0.425000X-0.150000X0.425000X0*%
%ADD30RoundRect,0.075000X-0.075000X-0.500000X0.075000X-0.500000X0.075000X0.500000X-0.075000X0.500000X0*%
%ADD31O,1.000000X2.100000*%
%ADD32O,1.000000X1.800000*%
%ADD33R,0.300000X1.400000*%
%ADD34R,1.200000X0.750000*%
%ADD35RoundRect,0.250000X0.450000X-0.262500X0.450000X0.262500X-0.450000X0.262500X-0.450000X-0.262500X0*%
%ADD36RoundRect,0.225000X0.250000X-0.225000X0.250000X0.225000X-0.250000X0.225000X-0.250000X-0.225000X0*%
G04 APERTURE END LIST*
D10*
%TO.C,IC1*%
X-7000000Y12412000D03*
X-7000000Y11562000D03*
X-7000000Y10712000D03*
X-7000000Y9862000D03*
X-7000000Y9012000D03*
X-7000000Y8162000D03*
X-7000000Y7312000D03*
X-7000000Y6462000D03*
X-7000000Y5612000D03*
X-7000000Y4762000D03*
X-7000000Y3912000D03*
X-7000000Y3062000D03*
X-7000000Y2212000D03*
X-7000000Y1362000D03*
X-7000000Y512000D03*
D11*
X-5950000Y-538000D03*
X-5100000Y-538000D03*
X-4250000Y-538000D03*
X-3400000Y-538000D03*
X-2550000Y-538000D03*
X-1700000Y-538000D03*
X-850000Y-538000D03*
X0Y-538000D03*
X850000Y-538000D03*
X1700000Y-538000D03*
X2550000Y-538000D03*
X3400000Y-538000D03*
X4250000Y-538000D03*
X5100000Y-538000D03*
X5950000Y-538000D03*
D10*
X7000000Y512000D03*
X7000000Y1362000D03*
X7000000Y2212000D03*
X7000000Y3062000D03*
X7000000Y3912000D03*
X7000000Y4762000D03*
X7000000Y5612000D03*
X7000000Y6462000D03*
X7000000Y7312000D03*
X7000000Y8162000D03*
X7000000Y9012000D03*
X7000000Y9862000D03*
X7000000Y10712000D03*
X7000000Y11562000D03*
X7000000Y12412000D03*
D11*
X5950000Y13462000D03*
X5100000Y13462000D03*
X4250000Y13462000D03*
X3400000Y13462000D03*
X2550000Y13462000D03*
X1700000Y13462000D03*
X850000Y13462000D03*
X0Y13462000D03*
X-850000Y13462000D03*
X-1700000Y13462000D03*
X-2550000Y13462000D03*
X-3400000Y13462000D03*
X-4250000Y13462000D03*
X-5100000Y13462000D03*
X-5950000Y13462000D03*
D12*
X0Y6462000D03*
D13*
X-7000000Y13462000D03*
X-7000000Y-538000D03*
X7000000Y-538000D03*
X7000000Y13462000D03*
D12*
X-1650000Y8112000D03*
X-1650000Y6462000D03*
X-1650000Y4812000D03*
X0Y4812000D03*
X1650000Y4812000D03*
X1650000Y6462000D03*
X1650000Y8112000D03*
X0Y8112000D03*
%TD*%
D14*
%TO.C,R15*%
X-15496000Y11938000D03*
X-14476000Y11938000D03*
%TD*%
D15*
%TO.C,R17*%
X5844000Y-4064000D03*
X4824000Y-4064000D03*
%TD*%
%TO.C,R10*%
X10670000Y4318000D03*
X9650000Y4318000D03*
%TD*%
D16*
%TO.C,C5*%
X-9398000Y10696000D03*
X-9398000Y11656000D03*
%TD*%
D17*
%TO.C,R7*%
X1778000Y-10158000D03*
X1778000Y-11178000D03*
%TD*%
D18*
%TO.C,C11*%
X-7620000Y-11684000D03*
X-8580000Y-11684000D03*
%TD*%
D16*
%TO.C,C10*%
X-2032000Y-11120000D03*
X-2032000Y-10160000D03*
%TD*%
D18*
%TO.C,C3*%
X-11966000Y-11430000D03*
X-12926000Y-11430000D03*
%TD*%
D19*
%TO.C,Q1*%
X7422000Y-7704000D03*
X9342000Y-7704000D03*
X8382000Y-5504000D03*
%TD*%
D20*
%TO.C,S2*%
X7069000Y-15240000D03*
X11219000Y-15240000D03*
D21*
X7569000Y-16765000D03*
X10719000Y-16765000D03*
X10719000Y-13715000D03*
X7569000Y-13715000D03*
%TD*%
D22*
%TO.C,C1*%
X3330000Y-9906000D03*
X4290000Y-9906000D03*
%TD*%
D23*
%TO.C,C2*%
X1778000Y-6350000D03*
X1778000Y-7310000D03*
%TD*%
D17*
%TO.C,R12*%
X-9652000Y3306000D03*
X-9652000Y2286000D03*
%TD*%
D24*
%TO.C,D1*%
X-18330000Y11938000D03*
X-17230000Y11938000D03*
%TD*%
D25*
%TO.C,R11*%
X-9652000Y0D03*
X-9652000Y1020000D03*
%TD*%
%TO.C,R9*%
X5588000Y-11178000D03*
X5588000Y-10158000D03*
%TD*%
D22*
%TO.C,C6*%
X9426000Y13208000D03*
X10386000Y13208000D03*
%TD*%
D26*
%TO.C,IC5*%
X-6126000Y-9464000D03*
X-6126000Y-10414000D03*
X-6126000Y-11364000D03*
X-3526000Y-11364000D03*
X-3526000Y-9464000D03*
%TD*%
D27*
%TO.C,IC4*%
X10934000Y-7350000D03*
X11434000Y-7350000D03*
X11934000Y-7350000D03*
X12434000Y-7350000D03*
X12434000Y-5350000D03*
X11934000Y-5350000D03*
X11434000Y-5350000D03*
X10934000Y-5350000D03*
D28*
X11684000Y-6350000D03*
%TD*%
D19*
%TO.C,IC2*%
X3368000Y-8412000D03*
X4318000Y-8412000D03*
X5268000Y-8412000D03*
X5268000Y-5812000D03*
X3368000Y-5812000D03*
%TD*%
D15*
%TO.C,R18*%
X3812000Y-4064000D03*
X2792000Y-4064000D03*
%TD*%
D22*
%TO.C,C9*%
X12192000Y-11430000D03*
X13152000Y-11430000D03*
%TD*%
D15*
%TO.C,R13*%
X10670000Y3048000D03*
X9650000Y3048000D03*
%TD*%
D29*
%TO.C,J1*%
X-3202000Y-13279000D03*
X-2402000Y-13279000D03*
D30*
X-1252000Y-13279000D03*
X-252000Y-13279000D03*
X248000Y-13279000D03*
X1248000Y-13279000D03*
D29*
X2398000Y-13279000D03*
X3198000Y-13279000D03*
X3198000Y-13279000D03*
X2398000Y-13279000D03*
D30*
X1748000Y-13279000D03*
X748000Y-13279000D03*
X-752000Y-13279000D03*
X-1752000Y-13279000D03*
D29*
X-2402000Y-13279000D03*
X-3202000Y-13279000D03*
D31*
X-4322000Y-13854000D03*
D32*
X-4322000Y-18034000D03*
D31*
X4318000Y-13854000D03*
D32*
X4318000Y-18034000D03*
%TD*%
D33*
%TO.C,IC3*%
X-7890000Y-3982000D03*
X-8390000Y-3982000D03*
X-8890000Y-3982000D03*
X-9390000Y-3982000D03*
X-9890000Y-3982000D03*
X-9890000Y-8382000D03*
X-9390000Y-8382000D03*
X-8890000Y-8382000D03*
X-8390000Y-8382000D03*
X-7890000Y-8382000D03*
%TD*%
D20*
%TO.C,S1*%
X-7069000Y-15240000D03*
X-11219000Y-15240000D03*
D21*
X-7569000Y-13715000D03*
X-10719000Y-13715000D03*
X-10719000Y-16765000D03*
X-7569000Y-16765000D03*
%TD*%
D15*
%TO.C,R16*%
X15496000Y11430000D03*
X14476000Y11430000D03*
%TD*%
D14*
%TO.C,R2*%
X-3304000Y-8128000D03*
X-2284000Y-8128000D03*
%TD*%
D34*
%TO.C,D3*%
X10590000Y-10414000D03*
X7190000Y-10414000D03*
%TD*%
D24*
%TO.C,D2*%
X18288000Y11938000D03*
X17188000Y11938000D03*
%TD*%
D35*
%TO.C,R8*%
X-5588000Y-7413000D03*
X-5588000Y-5588000D03*
%TD*%
D17*
%TO.C,R6*%
X-762000Y-10158000D03*
X-762000Y-11178000D03*
%TD*%
D24*
%TO.C,D4*%
X-7832000Y-10160000D03*
X-8932000Y-10160000D03*
%TD*%
D15*
%TO.C,R14*%
X15494000Y12446000D03*
X14474000Y12446000D03*
%TD*%
D36*
%TO.C,C4*%
X-10922000Y10642000D03*
X-10922000Y12192000D03*
%TD*%
D25*
%TO.C,R1*%
X-10668000Y-11432000D03*
X-10668000Y-10412000D03*
%TD*%
D15*
%TO.C,R5*%
X10416000Y11938000D03*
X9396000Y11938000D03*
%TD*%
D23*
%TO.C,C8*%
X12192000Y-8636000D03*
X12192000Y-9596000D03*
%TD*%
D16*
%TO.C,C7*%
X-11430000Y-8354000D03*
X-11430000Y-7394000D03*
%TD*%
M02*
