%TF.GenerationSoftware,KiCad,Pcbnew,8.0.7*%
%TF.CreationDate,2024-12-29T21:09:01+01:00*%
%TF.ProjectId,stackflex_core,73746163-6b66-46c6-9578-5f636f72652e,2025.1.1*%
%TF.SameCoordinates,Original*%
%TF.FileFunction,Soldermask,Bot*%
%TF.FilePolarity,Negative*%
%FSLAX46Y46*%
G04 Gerber Fmt 4.6, Leading zero omitted, Abs format (unit mm)*
G04 Created by KiCad (PCBNEW 8.0.7) date 2024-12-29 21:09:01*
%MOMM*%
%LPD*%
G01*
G04 APERTURE LIST*
G04 Aperture macros list*
%AMRoundRect*
0 Rectangle with rounded corners*
0 $1 Rounding radius*
0 $2 $3 $4 $5 $6 $7 $8 $9 X,Y pos of 4 corners*
0 Add a 4 corners polygon primitive as box body*
4,1,4,$2,$3,$4,$5,$6,$7,$8,$9,$2,$3,0*
0 Add four circle primitives for the rounded corners*
1,1,$1+$1,$2,$3*
1,1,$1+$1,$4,$5*
1,1,$1+$1,$6,$7*
1,1,$1+$1,$8,$9*
0 Add four rect primitives between the rounded corners*
20,1,$1+$1,$2,$3,$4,$5,0*
20,1,$1+$1,$4,$5,$6,$7,0*
20,1,$1+$1,$6,$7,$8,$9,0*
20,1,$1+$1,$8,$9,$2,$3,0*%
%AMFreePoly0*
4,1,6,1.000000,0.000000,0.500000,-0.750000,-0.500000,-0.750000,-0.500000,0.750000,0.500000,0.750000,1.000000,0.000000,1.000000,0.000000,$1*%
%AMFreePoly1*
4,1,6,0.500000,-0.750000,-0.650000,-0.750000,-0.150000,0.000000,-0.650000,0.750000,0.500000,0.750000,0.500000,-0.750000,0.500000,-0.750000,$1*%
G04 Aperture macros list end*
%ADD10R,1.700000X1.700000*%
%ADD11O,1.700000X1.700000*%
%ADD12C,5.600000*%
%ADD13C,0.650000*%
%ADD14O,1.000000X2.100000*%
%ADD15O,1.000000X1.800000*%
%ADD16C,1.000000*%
%ADD17FreePoly0,0.000000*%
%ADD18FreePoly1,0.000000*%
%ADD19RoundRect,0.250000X-0.250000X-1.500000X0.250000X-1.500000X0.250000X1.500000X-0.250000X1.500000X0*%
%ADD20RoundRect,0.250001X-0.499999X-1.449999X0.499999X-1.449999X0.499999X1.449999X-0.499999X1.449999X0*%
G04 APERTURE END LIST*
D10*
%TO.C,J2*%
X-15220000Y8875000D03*
D11*
X-17760000Y8875000D03*
X-15220000Y6335000D03*
X-17760000Y6335000D03*
X-15220000Y3795000D03*
X-17760000Y3795000D03*
X-15220000Y1255000D03*
X-17760000Y1255000D03*
X-15220000Y-1285000D03*
X-17760000Y-1285000D03*
X-15220000Y-3825000D03*
X-17760000Y-3825000D03*
X-15220000Y-6365000D03*
X-17760000Y-6365000D03*
X-15220000Y-8905000D03*
X-17760000Y-8905000D03*
%TD*%
D12*
%TO.C,H3*%
X-16256000Y-16256000D03*
%TD*%
%TO.C,H1*%
X-16256000Y16256000D03*
%TD*%
D13*
%TO.C,J1*%
X-2892000Y-14354000D03*
X2888000Y-14354000D03*
D14*
X-4322000Y-13854000D03*
D15*
X-4322000Y-18034000D03*
D14*
X4318000Y-13854000D03*
D15*
X4318000Y-18034000D03*
%TD*%
D12*
%TO.C,H2*%
X16256000Y16256000D03*
%TD*%
D10*
%TO.C,J3*%
X17780000Y8890000D03*
D11*
X15240000Y8890000D03*
X17780000Y6350000D03*
X15240000Y6350000D03*
X17780000Y3810000D03*
X15240000Y3810000D03*
X17780000Y1270000D03*
X15240000Y1270000D03*
X17780000Y-1270000D03*
X15240000Y-1270000D03*
X17780000Y-3810000D03*
X15240000Y-3810000D03*
X17780000Y-6350000D03*
X15240000Y-6350000D03*
X17780000Y-8890000D03*
X15240000Y-8890000D03*
%TD*%
D12*
%TO.C,H4*%
X16256000Y-16256000D03*
%TD*%
D16*
%TO.C,S5*%
X4572000Y3556000D03*
%TD*%
%TO.C,S4*%
X4572000Y5588000D03*
%TD*%
D17*
%TO.C,JP1*%
X-9832000Y-13716000D03*
D18*
X-8382000Y-13716000D03*
%TD*%
D16*
%TO.C,S03*%
X-5080000Y6350000D03*
%TD*%
%TO.C,S46*%
X4064000Y12192000D03*
%TD*%
D19*
%TO.C,J4*%
X-1016000Y-10668000D03*
X984000Y-10668000D03*
D20*
X-3366000Y-4918000D03*
X3334000Y-4918000D03*
%TD*%
D16*
%TO.C,S45*%
X4572000Y7620000D03*
%TD*%
M02*
