%TF.GenerationSoftware,KiCad,Pcbnew,8.0.7*%
%TF.CreationDate,2024-12-29T21:09:01+01:00*%
%TF.ProjectId,stackflex_core,73746163-6b66-46c6-9578-5f636f72652e,2025.1.1*%
%TF.SameCoordinates,Original*%
%TF.FileFunction,Copper,L1,Top*%
%TF.FilePolarity,Positive*%
%FSLAX46Y46*%
G04 Gerber Fmt 4.6, Leading zero omitted, Abs format (unit mm)*
G04 Created by KiCad (PCBNEW 8.0.7) date 2024-12-29 21:09:01*
%MOMM*%
%LPD*%
G01*
G04 APERTURE LIST*
G04 Aperture macros list*
%AMRoundRect*
0 Rectangle with rounded corners*
0 $1 Rounding radius*
0 $2 $3 $4 $5 $6 $7 $8 $9 X,Y pos of 4 corners*
0 Add a 4 corners polygon primitive as box body*
4,1,4,$2,$3,$4,$5,$6,$7,$8,$9,$2,$3,0*
0 Add four circle primitives for the rounded corners*
1,1,$1+$1,$2,$3*
1,1,$1+$1,$4,$5*
1,1,$1+$1,$6,$7*
1,1,$1+$1,$8,$9*
0 Add four rect primitives between the rounded corners*
20,1,$1+$1,$2,$3,$4,$5,0*
20,1,$1+$1,$4,$5,$6,$7,0*
20,1,$1+$1,$6,$7,$8,$9,0*
20,1,$1+$1,$8,$9,$2,$3,0*%
G04 Aperture macros list end*
%TA.AperFunction,SMDPad,CuDef*%
%ADD10R,0.800000X0.400000*%
%TD*%
%TA.AperFunction,SMDPad,CuDef*%
%ADD11R,0.400000X0.800000*%
%TD*%
%TA.AperFunction,SMDPad,CuDef*%
%ADD12R,1.200000X1.200000*%
%TD*%
%TA.AperFunction,SMDPad,CuDef*%
%ADD13R,0.800000X0.800000*%
%TD*%
%TA.AperFunction,SMDPad,CuDef*%
%ADD14RoundRect,0.135000X-0.135000X-0.185000X0.135000X-0.185000X0.135000X0.185000X-0.135000X0.185000X0*%
%TD*%
%TA.AperFunction,SMDPad,CuDef*%
%ADD15RoundRect,0.135000X0.135000X0.185000X-0.135000X0.185000X-0.135000X-0.185000X0.135000X-0.185000X0*%
%TD*%
%TA.AperFunction,SMDPad,CuDef*%
%ADD16RoundRect,0.140000X0.170000X-0.140000X0.170000X0.140000X-0.170000X0.140000X-0.170000X-0.140000X0*%
%TD*%
%TA.AperFunction,ComponentPad*%
%ADD17R,1.700000X1.700000*%
%TD*%
%TA.AperFunction,ComponentPad*%
%ADD18O,1.700000X1.700000*%
%TD*%
%TA.AperFunction,ComponentPad*%
%ADD19C,5.600000*%
%TD*%
%TA.AperFunction,SMDPad,CuDef*%
%ADD20RoundRect,0.135000X-0.185000X0.135000X-0.185000X-0.135000X0.185000X-0.135000X0.185000X0.135000X0*%
%TD*%
%TA.AperFunction,SMDPad,CuDef*%
%ADD21RoundRect,0.140000X0.140000X0.170000X-0.140000X0.170000X-0.140000X-0.170000X0.140000X-0.170000X0*%
%TD*%
%TA.AperFunction,SMDPad,CuDef*%
%ADD22R,0.600000X1.150000*%
%TD*%
%TA.AperFunction,SMDPad,CuDef*%
%ADD23R,0.950000X1.400000*%
%TD*%
%TA.AperFunction,SMDPad,CuDef*%
%ADD24R,1.150000X0.750000*%
%TD*%
%TA.AperFunction,SMDPad,CuDef*%
%ADD25RoundRect,0.140000X-0.140000X-0.170000X0.140000X-0.170000X0.140000X0.170000X-0.140000X0.170000X0*%
%TD*%
%TA.AperFunction,SMDPad,CuDef*%
%ADD26RoundRect,0.140000X-0.170000X0.140000X-0.170000X-0.140000X0.170000X-0.140000X0.170000X0.140000X0*%
%TD*%
%TA.AperFunction,SMDPad,CuDef*%
%ADD27R,0.700000X0.650000*%
%TD*%
%TA.AperFunction,SMDPad,CuDef*%
%ADD28RoundRect,0.135000X0.185000X-0.135000X0.185000X0.135000X-0.185000X0.135000X-0.185000X-0.135000X0*%
%TD*%
%TA.AperFunction,SMDPad,CuDef*%
%ADD29R,1.050000X0.550000*%
%TD*%
%TA.AperFunction,SMDPad,CuDef*%
%ADD30R,0.300000X0.750000*%
%TD*%
%TA.AperFunction,SMDPad,CuDef*%
%ADD31R,1.300000X0.900000*%
%TD*%
%TA.AperFunction,SMDPad,CuDef*%
%ADD32RoundRect,0.150000X-0.150000X-0.425000X0.150000X-0.425000X0.150000X0.425000X-0.150000X0.425000X0*%
%TD*%
%TA.AperFunction,SMDPad,CuDef*%
%ADD33RoundRect,0.075000X-0.075000X-0.500000X0.075000X-0.500000X0.075000X0.500000X-0.075000X0.500000X0*%
%TD*%
%TA.AperFunction,ComponentPad*%
%ADD34O,1.000000X2.100000*%
%TD*%
%TA.AperFunction,ComponentPad*%
%ADD35O,1.000000X1.800000*%
%TD*%
%TA.AperFunction,SMDPad,CuDef*%
%ADD36R,0.300000X1.400000*%
%TD*%
%TA.AperFunction,SMDPad,CuDef*%
%ADD37R,1.200000X0.750000*%
%TD*%
%TA.AperFunction,SMDPad,CuDef*%
%ADD38RoundRect,0.250000X0.450000X-0.262500X0.450000X0.262500X-0.450000X0.262500X-0.450000X-0.262500X0*%
%TD*%
%TA.AperFunction,SMDPad,CuDef*%
%ADD39RoundRect,0.225000X0.250000X-0.225000X0.250000X0.225000X-0.250000X0.225000X-0.250000X-0.225000X0*%
%TD*%
%TA.AperFunction,ViaPad*%
%ADD40C,0.600000*%
%TD*%
%TA.AperFunction,ViaPad*%
%ADD41C,0.700000*%
%TD*%
%TA.AperFunction,Conductor*%
%ADD42C,0.200000*%
%TD*%
%TA.AperFunction,Conductor*%
%ADD43C,0.400000*%
%TD*%
%TA.AperFunction,Conductor*%
%ADD44C,0.250000*%
%TD*%
%TA.AperFunction,Conductor*%
%ADD45C,0.300000*%
%TD*%
G04 APERTURE END LIST*
D10*
%TO.P,IC1,1,GND_1*%
%TO.N,GND*%
X-7000000Y12412000D03*
%TO.P,IC1,2,GND_2*%
X-7000000Y11562000D03*
%TO.P,IC1,3,3V3*%
%TO.N,+3V3*%
X-7000000Y10712000D03*
%TO.P,IC1,4,IO0*%
%TO.N,IO0*%
X-7000000Y9862000D03*
%TO.P,IC1,5,IO1*%
%TO.N,IO1*%
X-7000000Y9012000D03*
%TO.P,IC1,6,IO2*%
%TO.N,IO2*%
X-7000000Y8162000D03*
%TO.P,IC1,7,IO3*%
%TO.N,IO3_S*%
X-7000000Y7312000D03*
%TO.P,IC1,8,IO4*%
%TO.N,IO4_MOSI0*%
X-7000000Y6462000D03*
%TO.P,IC1,9,IO5*%
%TO.N,IO5_MISO0*%
X-7000000Y5612000D03*
%TO.P,IC1,10,IO6*%
%TO.N,IO6_SCLK0*%
X-7000000Y4762000D03*
%TO.P,IC1,11,IO7*%
%TO.N,IO7_CS0*%
X-7000000Y3912000D03*
%TO.P,IC1,12,IO8*%
%TO.N,IO8_SDA0*%
X-7000000Y3062000D03*
%TO.P,IC1,13,IO9*%
%TO.N,IO9_SCL0*%
X-7000000Y2212000D03*
%TO.P,IC1,14,IO10*%
%TO.N,IO10*%
X-7000000Y1362000D03*
%TO.P,IC1,15,IO11*%
%TO.N,IO11*%
X-7000000Y512000D03*
D11*
%TO.P,IC1,16,IO12*%
%TO.N,IO12*%
X-5950000Y-538000D03*
%TO.P,IC1,17,IO13*%
%TO.N,unconnected-(IC1-IO13-Pad17)*%
X-5100000Y-538000D03*
%TO.P,IC1,18,IO14*%
%TO.N,unconnected-(IC1-IO14-Pad18)*%
X-4250000Y-538000D03*
%TO.P,IC1,19,IO15*%
%TO.N,unconnected-(IC1-IO15-Pad19)*%
X-3400000Y-538000D03*
%TO.P,IC1,20,IO16*%
%TO.N,unconnected-(IC1-IO16-Pad20)*%
X-2550000Y-538000D03*
%TO.P,IC1,21,IO17*%
%TO.N,unconnected-(IC1-IO17-Pad21)*%
X-1700000Y-538000D03*
%TO.P,IC1,22,IO18*%
%TO.N,unconnected-(IC1-IO18-Pad22)*%
X-850000Y-538000D03*
%TO.P,IC1,23,IO19*%
%TO.N,USB_D-*%
X0Y-538000D03*
%TO.P,IC1,24,IO20*%
%TO.N,USB_D+*%
X850000Y-538000D03*
%TO.P,IC1,25,IO21*%
%TO.N,unconnected-(IC1-IO21-Pad25)*%
X1700000Y-538000D03*
%TO.P,IC1,26,IO26*%
%TO.N,IO26_BALARM*%
X2550000Y-538000D03*
%TO.P,IC1,27,IO47*%
%TO.N,IO47_CALARM*%
X3400000Y-538000D03*
%TO.P,IC1,28,IO33*%
%TO.N,IO33*%
X4250000Y-538000D03*
%TO.P,IC1,29,IO34*%
%TO.N,IO34*%
X5100000Y-538000D03*
%TO.P,IC1,30,IO48*%
%TO.N,IO48*%
X5950000Y-538000D03*
D10*
%TO.P,IC1,31,IO35*%
%TO.N,IO35_MISO1*%
X7000000Y512000D03*
%TO.P,IC1,32,IO36*%
%TO.N,IO36_MOSI1*%
X7000000Y1362000D03*
%TO.P,IC1,33,IO37*%
%TO.N,IO37_CS1*%
X7000000Y2212000D03*
%TO.P,IC1,34,IO38*%
%TO.N,IO38_SCLK1*%
X7000000Y3062000D03*
%TO.P,IC1,35,IO39*%
%TO.N,IO39_SDA1*%
X7000000Y3912000D03*
%TO.P,IC1,36,IO40*%
%TO.N,IO40_SCL1*%
X7000000Y4762000D03*
%TO.P,IC1,37,IO41*%
%TO.N,IO41*%
X7000000Y5612000D03*
%TO.P,IC1,38,IO42*%
%TO.N,IO42*%
X7000000Y6462000D03*
%TO.P,IC1,39,TXD0*%
%TO.N,TXD0*%
X7000000Y7312000D03*
%TO.P,IC1,40,RXD0*%
%TO.N,RXD0*%
X7000000Y8162000D03*
%TO.P,IC1,41,IO45*%
%TO.N,I045_S*%
X7000000Y9012000D03*
%TO.P,IC1,42,GND_3*%
%TO.N,GND*%
X7000000Y9862000D03*
%TO.P,IC1,43,GND_4*%
X7000000Y10712000D03*
%TO.P,IC1,44,IO46*%
%TO.N,I046_S*%
X7000000Y11562000D03*
%TO.P,IC1,45,EN*%
%TO.N,EN*%
X7000000Y12412000D03*
D11*
%TO.P,IC1,46,GND_5*%
%TO.N,GND*%
X5950000Y13462000D03*
%TO.P,IC1,47,GND_6*%
X5100000Y13462000D03*
%TO.P,IC1,48,GND_7*%
X4250000Y13462000D03*
%TO.P,IC1,49,GND_8*%
X3400000Y13462000D03*
%TO.P,IC1,50,GND_9*%
X2550000Y13462000D03*
%TO.P,IC1,51,GND_10*%
X1700000Y13462000D03*
%TO.P,IC1,52,GND_11*%
X850000Y13462000D03*
%TO.P,IC1,53,GND_12*%
X0Y13462000D03*
%TO.P,IC1,54,GND_13*%
X-850000Y13462000D03*
%TO.P,IC1,55,GND_14*%
X-1700000Y13462000D03*
%TO.P,IC1,56,GND_15*%
X-2550000Y13462000D03*
%TO.P,IC1,57,GND_16*%
X-3400000Y13462000D03*
%TO.P,IC1,58,GND_17*%
X-4250000Y13462000D03*
%TO.P,IC1,59,GND_18*%
X-5100000Y13462000D03*
%TO.P,IC1,60,GND_19*%
X-5950000Y13462000D03*
D12*
%TO.P,IC1,61,GND_20*%
X0Y6462000D03*
D13*
%TO.P,IC1,62,GND_21*%
X-7000000Y13462000D03*
%TO.P,IC1,63,GND_22*%
X-7000000Y-538000D03*
%TO.P,IC1,64,GND_23*%
X7000000Y-538000D03*
%TO.P,IC1,65,GND_24*%
X7000000Y13462000D03*
D12*
%TO.P,IC1,66,GND_25*%
X-1650000Y8112000D03*
%TO.P,IC1,67,GND_26*%
X-1650000Y6462000D03*
%TO.P,IC1,68,GND_27*%
X-1650000Y4812000D03*
%TO.P,IC1,69,GND_28*%
X0Y4812000D03*
%TO.P,IC1,70,GND_29*%
X1650000Y4812000D03*
%TO.P,IC1,71,GND_30*%
X1650000Y6462000D03*
%TO.P,IC1,72,GND_31*%
X1650000Y8112000D03*
%TO.P,IC1,73,GND_32*%
X0Y8112000D03*
%TD*%
D14*
%TO.P,R15,1*%
%TO.N,Net-(D1-A)*%
X-15496000Y11938000D03*
%TO.P,R15,2*%
%TO.N,IO12*%
X-14476000Y11938000D03*
%TD*%
D15*
%TO.P,R17,1*%
%TO.N,+3V3*%
X5844000Y-4064000D03*
%TO.P,R17,2*%
%TO.N,IO47_CALARM*%
X4824000Y-4064000D03*
%TD*%
%TO.P,R10,1*%
%TO.N,+3V3*%
X10670000Y4318000D03*
%TO.P,R10,2*%
%TO.N,IO40_SCL1*%
X9650000Y4318000D03*
%TD*%
D16*
%TO.P,C5,1*%
%TO.N,+3V3*%
X-9398000Y10696000D03*
%TO.P,C5,2*%
%TO.N,GND*%
X-9398000Y11656000D03*
%TD*%
D17*
%TO.P,J2,1,Pin_1*%
%TO.N,GND*%
X-15220000Y8875000D03*
D18*
%TO.P,J2,2,Pin_2*%
%TO.N,3V3_GPIO*%
X-17760000Y8875000D03*
%TO.P,J2,3,Pin_3*%
%TO.N,IO1*%
X-15220000Y6335000D03*
%TO.P,J2,4,Pin_4*%
%TO.N,IO2*%
X-17760000Y6335000D03*
%TO.P,J2,5,Pin_5*%
%TO.N,IO4_MOSI0*%
X-15220000Y3795000D03*
%TO.P,J2,6,Pin_6*%
%TO.N,IO5_MISO0*%
X-17760000Y3795000D03*
%TO.P,J2,7,Pin_7*%
%TO.N,IO6_SCLK0*%
X-15220000Y1255000D03*
%TO.P,J2,8,Pin_8*%
%TO.N,IO7_CS0*%
X-17760000Y1255000D03*
%TO.P,J2,9,Pin_9*%
%TO.N,IO8_SDA0*%
X-15220000Y-1285000D03*
%TO.P,J2,10,Pin_10*%
%TO.N,IO9_SCL0*%
X-17760000Y-1285000D03*
%TO.P,J2,11,Pin_11*%
%TO.N,unconnected-(J2-Pin_11-Pad11)*%
X-15220000Y-3825000D03*
%TO.P,J2,12,Pin_12*%
%TO.N,unconnected-(J2-Pin_12-Pad12)*%
X-17760000Y-3825000D03*
%TO.P,J2,13,Pin_13*%
%TO.N,IO11*%
X-15220000Y-6365000D03*
%TO.P,J2,14,Pin_14*%
%TO.N,IO10*%
X-17760000Y-6365000D03*
%TO.P,J2,15,Pin_15*%
%TO.N,GND*%
X-15220000Y-8905000D03*
%TO.P,J2,16,Pin_16*%
%TO.N,3V3_GPIO*%
X-17760000Y-8905000D03*
%TD*%
D19*
%TO.P,H3,1*%
%TO.N,N/C*%
X-16256000Y-16256000D03*
%TD*%
D20*
%TO.P,R7,1*%
%TO.N,GND*%
X1778000Y-10158000D03*
%TO.P,R7,2*%
%TO.N,Net-(J1-CC2)*%
X1778000Y-11178000D03*
%TD*%
D21*
%TO.P,C11,1*%
%TO.N,+BATT*%
X-7620000Y-11684000D03*
%TO.P,C11,2*%
%TO.N,GND*%
X-8580000Y-11684000D03*
%TD*%
D16*
%TO.P,C10,1*%
%TO.N,VBUS*%
X-2032000Y-11120000D03*
%TO.P,C10,2*%
%TO.N,GND*%
X-2032000Y-10160000D03*
%TD*%
D21*
%TO.P,C3,1*%
%TO.N,EN*%
X-11966000Y-11430000D03*
%TO.P,C3,2*%
%TO.N,GND*%
X-12926000Y-11430000D03*
%TD*%
D22*
%TO.P,Q1,1,G*%
%TO.N,VBUS*%
X7422000Y-7704000D03*
%TO.P,Q1,2,S*%
%TO.N,VCC*%
X9342000Y-7704000D03*
%TO.P,Q1,3,D*%
%TO.N,+BATT*%
X8382000Y-5504000D03*
%TD*%
D23*
%TO.P,S2,1,COM*%
%TO.N,GND*%
X7069000Y-15240000D03*
%TO.P,S2,2,N.O.*%
%TO.N,IO0*%
X11219000Y-15240000D03*
D24*
%TO.P,S2,G1,GND_1*%
%TO.N,GND*%
X7569000Y-16765000D03*
%TO.P,S2,G2,GND_2*%
X10719000Y-16765000D03*
%TO.P,S2,G3,GND_3*%
X10719000Y-13715000D03*
%TO.P,S2,G4,GND_4*%
X7569000Y-13715000D03*
%TD*%
D25*
%TO.P,C1,1*%
%TO.N,VCC*%
X3330000Y-9906000D03*
%TO.P,C1,2*%
%TO.N,GND*%
X4290000Y-9906000D03*
%TD*%
D26*
%TO.P,C2,1*%
%TO.N,+3V3*%
X1778000Y-6350000D03*
%TO.P,C2,2*%
%TO.N,GND*%
X1778000Y-7310000D03*
%TD*%
D20*
%TO.P,R12,1*%
%TO.N,+3V3*%
X-9652000Y3306000D03*
%TO.P,R12,2*%
%TO.N,IO8_SDA0*%
X-9652000Y2286000D03*
%TD*%
D27*
%TO.P,D1,1,K*%
%TO.N,GND*%
X-18330000Y11938000D03*
%TO.P,D1,2,A*%
%TO.N,Net-(D1-A)*%
X-17230000Y11938000D03*
%TD*%
D19*
%TO.P,H1,1*%
%TO.N,N/C*%
X-16256000Y16256000D03*
%TD*%
D28*
%TO.P,R11,1*%
%TO.N,+3V3*%
X-9652000Y0D03*
%TO.P,R11,2*%
%TO.N,IO9_SCL0*%
X-9652000Y1020000D03*
%TD*%
%TO.P,R9,1*%
%TO.N,VBUS*%
X5588000Y-11178000D03*
%TO.P,R9,2*%
%TO.N,GND*%
X5588000Y-10158000D03*
%TD*%
D25*
%TO.P,C6,1*%
%TO.N,EN*%
X9426000Y13208000D03*
%TO.P,C6,2*%
%TO.N,GND*%
X10386000Y13208000D03*
%TD*%
D29*
%TO.P,IC5,1,~{CHRG}*%
%TO.N,Net-(D4-K)*%
X-6126000Y-9464000D03*
%TO.P,IC5,2,GND*%
%TO.N,GND*%
X-6126000Y-10414000D03*
%TO.P,IC5,3,BAT*%
%TO.N,+BATT*%
X-6126000Y-11364000D03*
%TO.P,IC5,4,VCC*%
%TO.N,VBUS*%
X-3526000Y-11364000D03*
%TO.P,IC5,5,PROG*%
%TO.N,Net-(IC5-PROG)*%
X-3526000Y-9464000D03*
%TD*%
D30*
%TO.P,IC4,1,CTG*%
%TO.N,GND*%
X10934000Y-7350000D03*
%TO.P,IC4,2,CELL*%
%TO.N,+BATT*%
X11434000Y-7350000D03*
%TO.P,IC4,3,VDD*%
X11934000Y-7350000D03*
%TO.P,IC4,4,GND*%
%TO.N,GND*%
X12434000Y-7350000D03*
%TO.P,IC4,5,~{ALRT}*%
%TO.N,IO26_BALARM*%
X12434000Y-5350000D03*
%TO.P,IC4,6,QSTRT*%
%TO.N,GND*%
X11934000Y-5350000D03*
%TO.P,IC4,7,SCL*%
%TO.N,IO9_SCL0*%
X11434000Y-5350000D03*
%TO.P,IC4,8,SDA*%
%TO.N,IO8_SDA0*%
X10934000Y-5350000D03*
D31*
%TO.P,IC4,9,EP*%
%TO.N,GND*%
X11684000Y-6350000D03*
%TD*%
D22*
%TO.P,IC2,1,VIN*%
%TO.N,VCC*%
X3368000Y-8412000D03*
%TO.P,IC2,2,GND*%
%TO.N,GND*%
X4318000Y-8412000D03*
%TO.P,IC2,3,EN*%
%TO.N,VCC*%
X5268000Y-8412000D03*
%TO.P,IC2,4,NC*%
%TO.N,unconnected-(IC2-NC-Pad4)*%
X5268000Y-5812000D03*
%TO.P,IC2,5,VOUT*%
%TO.N,+3V3*%
X3368000Y-5812000D03*
%TD*%
D15*
%TO.P,R18,1*%
%TO.N,+3V3*%
X3812000Y-4064000D03*
%TO.P,R18,2*%
%TO.N,IO26_BALARM*%
X2792000Y-4064000D03*
%TD*%
D25*
%TO.P,C9,1*%
%TO.N,IO0*%
X12192000Y-11430000D03*
%TO.P,C9,2*%
%TO.N,GND*%
X13152000Y-11430000D03*
%TD*%
D15*
%TO.P,R13,1*%
%TO.N,+3V3*%
X10670000Y3048000D03*
%TO.P,R13,2*%
%TO.N,IO39_SDA1*%
X9650000Y3048000D03*
%TD*%
D32*
%TO.P,J1,A1,GND*%
%TO.N,GND*%
X-3202000Y-13279000D03*
%TO.P,J1,A4,VBUS*%
%TO.N,VBUS*%
X-2402000Y-13279000D03*
D33*
%TO.P,J1,A5,CC1*%
%TO.N,Net-(J1-CC1)*%
X-1252000Y-13279000D03*
%TO.P,J1,A6,D+*%
%TO.N,USB_D+*%
X-252000Y-13279000D03*
%TO.P,J1,A7,D-*%
%TO.N,USB_D-*%
X248000Y-13279000D03*
%TO.P,J1,A8,SBU1*%
%TO.N,unconnected-(J1-SBU1-PadA8)*%
X1248000Y-13279000D03*
D32*
%TO.P,J1,A9,VBUS*%
%TO.N,VBUS*%
X2398000Y-13279000D03*
%TO.P,J1,A12,GND*%
%TO.N,GND*%
X3198000Y-13279000D03*
%TO.P,J1,B1,GND*%
X3198000Y-13279000D03*
%TO.P,J1,B4,VBUS*%
%TO.N,VBUS*%
X2398000Y-13279000D03*
D33*
%TO.P,J1,B5,CC2*%
%TO.N,Net-(J1-CC2)*%
X1748000Y-13279000D03*
%TO.P,J1,B6,D+*%
%TO.N,USB_D+*%
X748000Y-13279000D03*
%TO.P,J1,B7,D-*%
%TO.N,USB_D-*%
X-752000Y-13279000D03*
%TO.P,J1,B8,SBU2*%
%TO.N,unconnected-(J1-SBU2-PadB8)*%
X-1752000Y-13279000D03*
D32*
%TO.P,J1,B9,VBUS*%
%TO.N,VBUS*%
X-2402000Y-13279000D03*
%TO.P,J1,B12,GND*%
%TO.N,GND*%
X-3202000Y-13279000D03*
D34*
%TO.P,J1,S1,SHIELD*%
X-4322000Y-13854000D03*
D35*
X-4322000Y-18034000D03*
D34*
X4318000Y-13854000D03*
D35*
X4318000Y-18034000D03*
%TD*%
D36*
%TO.P,IC3,1,A1*%
%TO.N,GND*%
X-7890000Y-3982000D03*
%TO.P,IC3,2,A0*%
X-8390000Y-3982000D03*
%TO.P,IC3,3,ALERT*%
%TO.N,IO47_CALARM*%
X-8890000Y-3982000D03*
%TO.P,IC3,4,SDA*%
%TO.N,IO8_SDA0*%
X-9390000Y-3982000D03*
%TO.P,IC3,5,SCL*%
%TO.N,IO9_SCL0*%
X-9890000Y-3982000D03*
%TO.P,IC3,6,VS*%
%TO.N,+3V3*%
X-9890000Y-8382000D03*
%TO.P,IC3,7,GND*%
%TO.N,GND*%
X-9390000Y-8382000D03*
%TO.P,IC3,8,VBUS*%
%TO.N,3V3_GPIO*%
X-8890000Y-8382000D03*
%TO.P,IC3,9,IN-*%
X-8390000Y-8382000D03*
%TO.P,IC3,10,IN+*%
%TO.N,+3V3*%
X-7890000Y-8382000D03*
%TD*%
D19*
%TO.P,H2,1*%
%TO.N,N/C*%
X16256000Y16256000D03*
%TD*%
D23*
%TO.P,S1,1,COM*%
%TO.N,GND*%
X-7069000Y-15240000D03*
%TO.P,S1,2,N.O.*%
%TO.N,EN*%
X-11219000Y-15240000D03*
D24*
%TO.P,S1,G1,GND_1*%
%TO.N,GND*%
X-7569000Y-13715000D03*
%TO.P,S1,G2,GND_2*%
X-10719000Y-13715000D03*
%TO.P,S1,G3,GND_3*%
X-10719000Y-16765000D03*
%TO.P,S1,G4,GND_4*%
X-7569000Y-16765000D03*
%TD*%
D15*
%TO.P,R16,1*%
%TO.N,Net-(D2-A)*%
X15496000Y11430000D03*
%TO.P,R16,2*%
%TO.N,IO33*%
X14476000Y11430000D03*
%TD*%
D14*
%TO.P,R2,1*%
%TO.N,Net-(IC5-PROG)*%
X-3304000Y-8128000D03*
%TO.P,R2,2*%
%TO.N,GND*%
X-2284000Y-8128000D03*
%TD*%
D37*
%TO.P,D3,1,K*%
%TO.N,VCC*%
X10590000Y-10414000D03*
%TO.P,D3,2,A*%
%TO.N,VBUS*%
X7190000Y-10414000D03*
%TD*%
D27*
%TO.P,D2,1,K*%
%TO.N,GND*%
X18288000Y11938000D03*
%TO.P,D2,2,A*%
%TO.N,Net-(D2-A)*%
X17188000Y11938000D03*
%TD*%
D38*
%TO.P,R8,1*%
%TO.N,+3V3*%
X-5588000Y-7413000D03*
%TO.P,R8,2*%
%TO.N,3V3_GPIO*%
X-5588000Y-5588000D03*
%TD*%
D20*
%TO.P,R6,1*%
%TO.N,GND*%
X-762000Y-10158000D03*
%TO.P,R6,2*%
%TO.N,Net-(J1-CC1)*%
X-762000Y-11178000D03*
%TD*%
D27*
%TO.P,D4,1,K*%
%TO.N,Net-(D4-K)*%
X-7832000Y-10160000D03*
%TO.P,D4,2,A*%
%TO.N,Net-(D4-A)*%
X-8932000Y-10160000D03*
%TD*%
D17*
%TO.P,J3,1,Pin_1*%
%TO.N,3V3_GPIO*%
X17780000Y8890000D03*
D18*
%TO.P,J3,2,Pin_2*%
%TO.N,GND*%
X15240000Y8890000D03*
%TO.P,J3,3,Pin_3*%
%TO.N,IO41*%
X17780000Y6350000D03*
%TO.P,J3,4,Pin_4*%
%TO.N,IO42*%
X15240000Y6350000D03*
%TO.P,J3,5,Pin_5*%
%TO.N,unconnected-(J3-Pin_5-Pad5)*%
X17780000Y3810000D03*
%TO.P,J3,6,Pin_6*%
%TO.N,unconnected-(J3-Pin_6-Pad6)*%
X15240000Y3810000D03*
%TO.P,J3,7,Pin_7*%
%TO.N,IO40_SCL1*%
X17780000Y1270000D03*
%TO.P,J3,8,Pin_8*%
%TO.N,IO39_SDA1*%
X15240000Y1270000D03*
%TO.P,J3,9,Pin_9*%
%TO.N,IO37_CS1*%
X17780000Y-1270000D03*
%TO.P,J3,10,Pin_10*%
%TO.N,IO38_SCLK1*%
X15240000Y-1270000D03*
%TO.P,J3,11,Pin_11*%
%TO.N,IO35_MISO1*%
X17780000Y-3810000D03*
%TO.P,J3,12,Pin_12*%
%TO.N,IO36_MOSI1*%
X15240000Y-3810000D03*
%TO.P,J3,13,Pin_13*%
%TO.N,IO34*%
X17780000Y-6350000D03*
%TO.P,J3,14,Pin_14*%
%TO.N,IO48*%
X15240000Y-6350000D03*
%TO.P,J3,15,Pin_15*%
%TO.N,3V3_GPIO*%
X17780000Y-8890000D03*
%TO.P,J3,16,Pin_16*%
%TO.N,GND*%
X15240000Y-8890000D03*
%TD*%
D15*
%TO.P,R14,1*%
%TO.N,Net-(D2-A)*%
X15494000Y12446000D03*
%TO.P,R14,2*%
%TO.N,IO33*%
X14474000Y12446000D03*
%TD*%
D19*
%TO.P,H4,1*%
%TO.N,N/C*%
X16256000Y-16256000D03*
%TD*%
D39*
%TO.P,C4,1*%
%TO.N,+3V3*%
X-10922000Y10642000D03*
%TO.P,C4,2*%
%TO.N,GND*%
X-10922000Y12192000D03*
%TD*%
D28*
%TO.P,R1,1*%
%TO.N,Net-(JP1-A)*%
X-10668000Y-11432000D03*
%TO.P,R1,2*%
%TO.N,Net-(D4-A)*%
X-10668000Y-10412000D03*
%TD*%
D15*
%TO.P,R5,1*%
%TO.N,+3V3*%
X10416000Y11938000D03*
%TO.P,R5,2*%
%TO.N,EN*%
X9396000Y11938000D03*
%TD*%
D26*
%TO.P,C8,1*%
%TO.N,+BATT*%
X12192000Y-8636000D03*
%TO.P,C8,2*%
%TO.N,GND*%
X12192000Y-9596000D03*
%TD*%
D16*
%TO.P,C7,1*%
%TO.N,+3V3*%
X-11430000Y-8354000D03*
%TO.P,C7,2*%
%TO.N,GND*%
X-11430000Y-7394000D03*
%TD*%
D40*
%TO.N,RXD0*%
X5314464Y6877536D03*
%TO.N,TXD0*%
X5334000Y4826000D03*
D41*
%TO.N,GND*%
X-10414000Y7366000D03*
X-4826000Y-8890000D03*
X13462000Y-6096000D03*
X-7620000Y-5334000D03*
X2032000Y-8420000D03*
X9144000Y-17272000D03*
D40*
X3048000Y4826000D03*
D41*
X-9144000Y-17272000D03*
X-5588000Y762000D03*
D40*
X-9390000Y-7112000D03*
X0Y9652000D03*
D41*
X12954000Y2286000D03*
X13208000Y0D03*
X-18034000Y-12192000D03*
X9652000Y-2540000D03*
D40*
X-7000000Y-538000D03*
D41*
X12192000Y13208000D03*
X9144000Y-12954000D03*
X2540000Y12192000D03*
X-12700000Y508000D03*
X-5334000Y12192000D03*
X-5334000Y-2032000D03*
D40*
X3048000Y8128000D03*
X0Y6604000D03*
D41*
X-10160000Y13462000D03*
X-5842000Y4826000D03*
D40*
X-3048000Y4826000D03*
D41*
X-9652000Y-11430000D03*
D40*
X5334000Y2794000D03*
X0Y3302000D03*
D41*
X7112000Y-4318000D03*
D40*
X-3048000Y8128000D03*
%TO.N,VBUS*%
X-6858000Y-12700000D03*
%TO.N,EN*%
X-6604000Y-4318000D03*
X-4064000Y-2032000D03*
X-4064000Y9652000D03*
X-11938000Y-10160000D03*
%TO.N,IO0*%
X4049999Y-1921238D03*
X1016000Y2540000D03*
D41*
%TO.N,VCC*%
X9182000Y-6604000D03*
X5080000Y-7366000D03*
%TO.N,3V3_GPIO*%
X-8636000Y-6350000D03*
%TO.N,+BATT*%
X7158417Y-5727252D03*
X-4318000Y-10414000D03*
X13208000Y-8636000D03*
D40*
%TO.N,IO33*%
X5588000Y9398000D03*
X9398000Y9652000D03*
%TO.N,IO9_SCL0*%
X-10922000Y-4826000D03*
X3556000Y1016000D03*
X7112000Y-1524000D03*
X-13267346Y-2535000D03*
%TO.N,IO12*%
X-13208000Y11938000D03*
X-6604000Y-2032000D03*
%TO.N,IO8_SDA0*%
X6588581Y-2193729D03*
X-13223000Y-1285000D03*
X2286000Y1778000D03*
X-8553661Y-2203661D03*
%TO.N,IO26_BALARM*%
X1506000Y-2032000D03*
X10409747Y-3301091D03*
%TO.N,IO47_CALARM*%
X2286000Y-2540000D03*
X-5768000Y-2868000D03*
D41*
%TO.N,+3V3*%
X11938000Y3048000D03*
X-10414000Y-1016000D03*
X1778000Y-5334000D03*
X-4318000Y-7620000D03*
X9652000Y10668000D03*
X-8382000Y10712000D03*
X-10922000Y2286000D03*
X-12954000Y9906000D03*
D40*
%TO.N,IO48*%
X5842000Y508000D03*
%TO.N,IO34*%
X5080000Y1270000D03*
%TO.N,I046_S*%
X5588000Y11684000D03*
%TO.N,I045_S*%
X5588000Y8128000D03*
%TO.N,IO3_S*%
X-5842000Y7112000D03*
%TO.N,Net-(JP1-A)*%
X-10668000Y-12446000D03*
%TD*%
D42*
%TO.N,RXD0*%
X7000000Y8162000D02*
X6598928Y8162000D01*
X6598928Y8162000D02*
X5314464Y6877536D01*
%TO.N,TXD0*%
X5334000Y5977833D02*
X5334000Y4826000D01*
X7000000Y7312000D02*
X6668167Y7312000D01*
X6668167Y7312000D02*
X5334000Y5977833D01*
%TO.N,GND*%
X11934000Y-5350000D02*
X11934000Y-6100000D01*
X-7890000Y-3982000D02*
X-8390000Y-3982000D01*
D43*
X5336000Y-9906000D02*
X5588000Y-10158000D01*
D42*
X10934000Y-6625000D02*
X11209000Y-6350000D01*
X11209000Y-6350000D02*
X11684000Y-6350000D01*
D43*
X-5376000Y-10414000D02*
X-5151000Y-10189000D01*
D42*
X11934000Y-6100000D02*
X11684000Y-6350000D01*
D44*
X-3202000Y-13279000D02*
X-3747000Y-13279000D01*
D43*
X-5151000Y-10189000D02*
X-5151000Y-9215000D01*
D44*
X3198000Y-13279000D02*
X3743000Y-13279000D01*
D43*
X4290000Y-8440000D02*
X4318000Y-8412000D01*
X-6126000Y-10414000D02*
X-5376000Y-10414000D01*
D44*
X-3747000Y-13279000D02*
X-4322000Y-13854000D01*
D43*
X-5151000Y-9215000D02*
X-4826000Y-8890000D01*
D44*
X3743000Y-13279000D02*
X4318000Y-13854000D01*
D42*
X-9390000Y-7112000D02*
X-9390000Y-8382000D01*
D43*
X4290000Y-9906000D02*
X5336000Y-9906000D01*
D42*
X10934000Y-7350000D02*
X10934000Y-6625000D01*
D43*
X4290000Y-9906000D02*
X4290000Y-8440000D01*
D42*
%TO.N,USB_D+*%
X650000Y-11542000D02*
X650000Y-1338001D01*
X650000Y-1338001D02*
X850000Y-1138001D01*
X850000Y-1138001D02*
X850000Y-538000D01*
X-252000Y-12444000D02*
X-252000Y-13279000D01*
X508000Y-11684000D02*
X-252000Y-12444000D01*
X748000Y-11640000D02*
X650000Y-11542000D01*
X508000Y-11684000D02*
X650000Y-11542000D01*
X748000Y-13279000D02*
X748000Y-11640000D01*
%TO.N,USB_D-*%
X-508000Y-14224000D02*
X-752000Y-13980000D01*
X200000Y-1338001D02*
X0Y-1138001D01*
X-18880Y-14224000D02*
X-508000Y-14224000D01*
X-752000Y-13980000D02*
X-752000Y-13279000D01*
X248000Y-13957120D02*
X-18880Y-14224000D01*
X-752000Y-13279000D02*
X-752000Y-12298000D01*
X-752000Y-12298000D02*
X200000Y-11346000D01*
X248000Y-13279000D02*
X248000Y-13957120D01*
X200000Y-11346000D02*
X200000Y-1338001D01*
X0Y-1138001D02*
X0Y-538000D01*
D45*
%TO.N,VBUS*%
X-2402000Y-11690000D02*
X-2728000Y-11364000D01*
D44*
X-2484000Y-11120000D02*
X-2728000Y-11364000D01*
D43*
X3871316Y-11178000D02*
X2398000Y-12651316D01*
X2398000Y-12651316D02*
X2398000Y-13279000D01*
X7190000Y-10414000D02*
X6426000Y-11178000D01*
D45*
X-5588000Y-12700000D02*
X-6858000Y-12700000D01*
X-2402000Y-13279000D02*
X-2402000Y-13889406D01*
X-3526000Y-11364000D02*
X-4252000Y-11364000D01*
D43*
X7422000Y-10182000D02*
X7190000Y-10414000D01*
D45*
X-4252000Y-11364000D02*
X-5588000Y-12700000D01*
X-2402000Y-13279000D02*
X-2402000Y-11690000D01*
X-2402000Y-13889406D02*
X-1559406Y-14732000D01*
X2398000Y-13877830D02*
X2398000Y-13279000D01*
X-1559406Y-14732000D02*
X1543830Y-14732000D01*
X1543830Y-14732000D02*
X2398000Y-13877830D01*
D44*
X-2032000Y-11120000D02*
X-2484000Y-11120000D01*
D43*
X6426000Y-11178000D02*
X5588000Y-11178000D01*
X5588000Y-11178000D02*
X3871316Y-11178000D01*
D45*
X-2728000Y-11364000D02*
X-3526000Y-11364000D01*
D43*
X7422000Y-7704000D02*
X7422000Y-10182000D01*
D42*
%TO.N,Net-(D4-A)*%
X-9906000Y-10414000D02*
X-9908000Y-10412000D01*
X-9652000Y-10160000D02*
X-9906000Y-10414000D01*
X-8932000Y-10160000D02*
X-9652000Y-10160000D01*
X-9908000Y-10412000D02*
X-10668000Y-10412000D01*
%TO.N,EN*%
X-4064000Y-2083239D02*
X-6298761Y-4318000D01*
X3810000Y11430000D02*
X4792000Y12412000D01*
X-6298761Y-4318000D02*
X-6604000Y-4318000D01*
D44*
X-11966000Y-10188000D02*
X-11938000Y-10160000D01*
D42*
X-2286000Y11430000D02*
X3810000Y11430000D01*
X8922000Y12412000D02*
X9396000Y11938000D01*
X4792000Y12412000D02*
X7000000Y12412000D01*
D44*
X-11966000Y-14493000D02*
X-11966000Y-11430000D01*
X-11219000Y-15240000D02*
X-11966000Y-14493000D01*
D42*
X9426000Y13208000D02*
X9426000Y11968000D01*
X7000000Y12412000D02*
X8922000Y12412000D01*
X9426000Y11968000D02*
X9396000Y11938000D01*
D44*
X-11966000Y-11430000D02*
X-11966000Y-10188000D01*
D42*
X-4064000Y-2032000D02*
X-4064000Y-2083239D01*
X-4064000Y9652000D02*
X-2286000Y11430000D01*
%TO.N,IO0*%
X-5080000Y3556000D02*
X-5080000Y8542000D01*
X-4064000Y2540000D02*
X-5080000Y3556000D01*
X4049999Y-1921238D02*
X5430761Y-3302000D01*
X12194000Y-11684000D02*
X12192000Y-11686000D01*
X10160000Y-5801000D02*
X10160000Y-8128000D01*
X11532000Y-9500000D02*
X11532000Y-9942846D01*
X7661000Y-3302000D02*
X10160000Y-5801000D01*
X12192000Y-10602846D02*
X12192000Y-11686000D01*
X5430761Y-3302000D02*
X7661000Y-3302000D01*
X-6400000Y9862000D02*
X-7000000Y9862000D01*
X1016000Y2540000D02*
X-4064000Y2540000D01*
X-5080000Y8542000D02*
X-6400000Y9862000D01*
X11219000Y-15240000D02*
X12192000Y-14267000D01*
X12192000Y-14267000D02*
X12192000Y-11686000D01*
X11532000Y-9942846D02*
X12192000Y-10602846D01*
X10160000Y-8128000D02*
X11532000Y-9500000D01*
%TO.N,Net-(J1-CC1)*%
X-762000Y-11671604D02*
X-762000Y-11178000D01*
X-1252000Y-13279000D02*
X-1252000Y-12161604D01*
X-1252000Y-12161604D02*
X-762000Y-11671604D01*
%TO.N,Net-(J1-CC2)*%
X1748000Y-11208000D02*
X1778000Y-11178000D01*
X1748000Y-13279000D02*
X1748000Y-11208000D01*
D43*
%TO.N,VCC*%
X9342000Y-9166000D02*
X10590000Y-10414000D01*
X4826000Y-7112000D02*
X5080000Y-7366000D01*
X3368000Y-7554000D02*
X3810000Y-7112000D01*
X9342000Y-7704000D02*
X9342000Y-6764000D01*
X3810000Y-7112000D02*
X4826000Y-7112000D01*
X9342000Y-6764000D02*
X9182000Y-6604000D01*
X3368000Y-8412000D02*
X3368000Y-7554000D01*
X3330000Y-9906000D02*
X3330000Y-8450000D01*
X3330000Y-8450000D02*
X3368000Y-8412000D01*
X9342000Y-7704000D02*
X9342000Y-9166000D01*
X5268000Y-7554000D02*
X5268000Y-8412000D01*
X5080000Y-7366000D02*
X5268000Y-7554000D01*
D45*
%TO.N,3V3_GPIO*%
X17780000Y-8890000D02*
X19030000Y-7640000D01*
D43*
X-19060000Y-7605000D02*
X-19060000Y7575000D01*
D42*
X-8390000Y-7104000D02*
X-8390000Y-8382000D01*
D43*
X-13970000Y-10668000D02*
X-15997000Y-10668000D01*
D45*
X19030000Y7640000D02*
X17780000Y8890000D01*
D43*
X-19060000Y7575000D02*
X-17760000Y8875000D01*
X-8636000Y-6350000D02*
X-12192000Y-6350000D01*
X-6742629Y-5588000D02*
X-5588000Y-5588000D01*
D45*
X19030000Y-7640000D02*
X19030000Y7640000D01*
D43*
X-15997000Y-10668000D02*
X-17760000Y-8905000D01*
X-8636000Y-6350000D02*
X-7504629Y-6350000D01*
D42*
X-8636000Y-6350000D02*
X-8636000Y-6858000D01*
D43*
X-12954000Y-9652000D02*
X-13970000Y-10668000D01*
X-12192000Y-6350000D02*
X-12954000Y-7112000D01*
D42*
X-8890000Y-8382000D02*
X-8390000Y-8382000D01*
D43*
X-17760000Y-8905000D02*
X-19060000Y-7605000D01*
X-17760000Y-8905000D02*
X-17780000Y-8925000D01*
X-7504629Y-6350000D02*
X-6742629Y-5588000D01*
X-12954000Y-7112000D02*
X-12954000Y-9652000D01*
D42*
X-8636000Y-6858000D02*
X-8390000Y-7104000D01*
%TO.N,+BATT*%
X11934000Y-7350000D02*
X11434000Y-7350000D01*
D43*
X8158748Y-5727252D02*
X8382000Y-5504000D01*
D42*
X-7620000Y-11684000D02*
X-7366000Y-11684000D01*
X-7046000Y-11364000D02*
X-6126000Y-11364000D01*
D43*
X-6126000Y-11364000D02*
X-5268000Y-11364000D01*
X7158417Y-5727252D02*
X8158748Y-5727252D01*
D42*
X-7366000Y-11684000D02*
X-7046000Y-11364000D01*
X11934000Y-8378000D02*
X12192000Y-8636000D01*
D43*
X-5268000Y-11364000D02*
X-4318000Y-10414000D01*
X13208000Y-8636000D02*
X12192000Y-8636000D01*
D42*
X11934000Y-7350000D02*
X11934000Y-8378000D01*
D44*
%TO.N,Net-(D2-A)*%
X16002000Y11938000D02*
X15494000Y12446000D01*
X15496000Y11432000D02*
X16002000Y11938000D01*
X17188000Y11938000D02*
X16002000Y11938000D01*
X15496000Y11430000D02*
X15496000Y11432000D01*
D45*
%TO.N,IO6_SCLK0*%
X-10970182Y4762000D02*
X-14477182Y1255000D01*
X-7000000Y4762000D02*
X-10970182Y4762000D01*
X-14477182Y1255000D02*
X-15220000Y1255000D01*
%TO.N,IO10*%
X-10160000Y-2032000D02*
X-10668000Y-2032000D01*
X-8636000Y-508000D02*
X-10160000Y-2032000D01*
X-8636000Y426000D02*
X-8636000Y-508000D01*
X-7000000Y1362000D02*
X-7700000Y1362000D01*
X-7700000Y1362000D02*
X-8636000Y426000D01*
X-13711000Y-5075000D02*
X-16470000Y-5075000D01*
X-16470000Y-5075000D02*
X-17760000Y-6365000D01*
X-10668000Y-2032000D02*
X-13711000Y-5075000D01*
D44*
%TO.N,IO33*%
X14476000Y11432000D02*
X13970000Y11938000D01*
X14474000Y12442000D02*
X14474000Y12446000D01*
D42*
X9398000Y9652000D02*
X9652000Y9652000D01*
X5588000Y9398000D02*
X4250000Y8060000D01*
X4250000Y8060000D02*
X4250000Y-538000D01*
X9652000Y9652000D02*
X11938000Y11938000D01*
D44*
X13970000Y11938000D02*
X14474000Y12442000D01*
X14476000Y11430000D02*
X14476000Y11432000D01*
X13970000Y11938000D02*
X11938000Y11938000D01*
D42*
%TO.N,IO9_SCL0*%
X10414000Y-4318000D02*
X10922000Y-4318000D01*
D45*
X-17760000Y-1285000D02*
X-16510000Y-2535000D01*
X-8460000Y2212000D02*
X-9652000Y1020000D01*
X-16510000Y-2535000D02*
X-13267346Y-2535000D01*
D42*
X7620000Y-1524000D02*
X10414000Y-4318000D01*
X7112000Y-1524000D02*
X7620000Y-1524000D01*
X-4572000Y1016000D02*
X-5768000Y2212000D01*
X-9890000Y-3982000D02*
X-10078000Y-3982000D01*
D45*
X-13267346Y-2535000D02*
X-9712346Y1020000D01*
X-7000000Y2212000D02*
X-8460000Y2212000D01*
D42*
X-5768000Y2212000D02*
X-7000000Y2212000D01*
X11434000Y-4830000D02*
X11434000Y-5350000D01*
X-10078000Y-3982000D02*
X-10922000Y-4826000D01*
X3556000Y1016000D02*
X-4572000Y1016000D01*
X10922000Y-4318000D02*
X11434000Y-4830000D01*
D45*
X-9712346Y1020000D02*
X-9652000Y1020000D01*
%TO.N,IO5_MISO0*%
X-13965000Y2545000D02*
X-10898000Y5612000D01*
X-10898000Y5612000D02*
X-7000000Y5612000D01*
X-16510000Y2545000D02*
X-13965000Y2545000D01*
X-17760000Y3795000D02*
X-16510000Y2545000D01*
D42*
%TO.N,IO12*%
X-5950000Y-538000D02*
X-5950000Y-1378000D01*
X-5950000Y-1378000D02*
X-6604000Y-2032000D01*
X-13208000Y11938000D02*
X-14476000Y11938000D01*
D45*
%TO.N,IO2*%
X-14702233Y5085000D02*
X-11625233Y8162000D01*
X-16510000Y5085000D02*
X-14702233Y5085000D01*
X-11625233Y8162000D02*
X-7000000Y8162000D01*
X-17760000Y6335000D02*
X-16510000Y5085000D01*
%TO.N,IO11*%
X-13715183Y-6365000D02*
X-7800000Y-449817D01*
X-7800000Y74000D02*
X-7362000Y512000D01*
X-7362000Y512000D02*
X-7000000Y512000D01*
X-7800000Y-449817D02*
X-7800000Y74000D01*
X-15220000Y-6365000D02*
X-13715183Y-6365000D01*
%TO.N,IO7_CS0*%
X-14473000Y5000D02*
X-16510000Y5000D01*
X-7764000Y3976000D02*
X-10502000Y3976000D01*
X-7700000Y3912000D02*
X-7764000Y3976000D01*
X-16510000Y5000D02*
X-17760000Y1255000D01*
X-10502000Y3976000D02*
X-14473000Y5000D01*
X-7000000Y3912000D02*
X-7700000Y3912000D01*
%TO.N,IO1*%
X-12543000Y9012000D02*
X-15220000Y6335000D01*
X-7000000Y9012000D02*
X-12543000Y9012000D01*
D42*
%TO.N,IO8_SDA0*%
X-8553661Y-2203661D02*
X-8807661Y-2203661D01*
D45*
X-13223000Y-1285000D02*
X-9652000Y2286000D01*
X-8815654Y3062000D02*
X-9591654Y2286000D01*
D42*
X2228000Y1720000D02*
X-4260000Y1720000D01*
D45*
X-9591654Y2286000D02*
X-9652000Y2286000D01*
D42*
X10428000Y-5350000D02*
X10934000Y-5350000D01*
X-9390000Y-2786000D02*
X-9390000Y-3982000D01*
X-4260000Y1720000D02*
X-5602000Y3062000D01*
X7271729Y-2193729D02*
X10428000Y-5350000D01*
X6588581Y-2193729D02*
X7271729Y-2193729D01*
X-5602000Y3062000D02*
X-7000000Y3062000D01*
X2286000Y1778000D02*
X2228000Y1720000D01*
D45*
X-7000000Y3062000D02*
X-8815654Y3062000D01*
D42*
X-8807661Y-2203661D02*
X-9390000Y-2786000D01*
D45*
X-15220000Y-1285000D02*
X-13223000Y-1285000D01*
%TO.N,IO35_MISO1*%
X16490000Y-5100000D02*
X17780000Y-3810000D01*
X7366000Y508000D02*
X7874000Y508000D01*
X7000000Y512000D02*
X7362000Y512000D01*
X13482000Y-5100000D02*
X16490000Y-5100000D01*
X7362000Y512000D02*
X7366000Y508000D01*
X7874000Y508000D02*
X13482000Y-5100000D01*
%TO.N,IO36_MOSI1*%
X8036000Y1362000D02*
X13208000Y-3810000D01*
X13208000Y-3810000D02*
X15240000Y-3810000D01*
X7000000Y1362000D02*
X8036000Y1362000D01*
%TO.N,IO4_MOSI0*%
X-14239000Y3795000D02*
X-15220000Y3795000D01*
X-7000000Y6462000D02*
X-11572000Y6462000D01*
X-11572000Y6462000D02*
X-14239000Y3795000D01*
D42*
%TO.N,IO26_BALARM*%
X1506000Y-2032000D02*
X2550000Y-988000D01*
X1506000Y-2778000D02*
X2792000Y-4064000D01*
X1506000Y-2032000D02*
X1506000Y-2778000D01*
X2550000Y-988000D02*
X2550000Y-538000D01*
X12434000Y-4814000D02*
X12434000Y-5350000D01*
X10921091Y-3301091D02*
X12434000Y-4814000D01*
X10409747Y-3301091D02*
X10921091Y-3301091D01*
%TO.N,IO47_CALARM*%
X4064000Y-3302000D02*
X4064000Y-3304000D01*
X3400000Y-2638000D02*
X3400000Y-538000D01*
X4064000Y-3304000D02*
X4824000Y-4064000D01*
X3510000Y-2748000D02*
X3400000Y-2638000D01*
X3510000Y-2748000D02*
X4064000Y-3302000D01*
X-8695661Y-2853661D02*
X-5782339Y-2853661D01*
X-5782339Y-2853661D02*
X-5768000Y-2868000D01*
X3302000Y-2540000D02*
X3400000Y-2638000D01*
X-8890000Y-3048000D02*
X-8695661Y-2853661D01*
X2286000Y-2540000D02*
X3302000Y-2540000D01*
X-8890000Y-3982000D02*
X-8890000Y-3048000D01*
D43*
%TO.N,+3V3*%
X10670000Y4318000D02*
X10670000Y3048000D01*
X3368000Y-5812000D02*
X2316000Y-5812000D01*
X-9652000Y3306000D02*
X-9902000Y3306000D01*
D42*
X-9856000Y-9432000D02*
X-8040000Y-9432000D01*
X-6921000Y-7413000D02*
X-7890000Y-8382000D01*
X-9890000Y-8382000D02*
X-9890000Y-9398000D01*
X3368000Y-5812000D02*
X3368000Y-5268000D01*
D43*
X2316000Y-5812000D02*
X1778000Y-6350000D01*
D42*
X-11402000Y-8382000D02*
X-11430000Y-8354000D01*
D43*
X-8382000Y10712000D02*
X-9382000Y10712000D01*
X-9398000Y10696000D02*
X-10668000Y10696000D01*
D42*
X-6921000Y-7413000D02*
X-5588000Y-7413000D01*
X3810000Y-4826000D02*
X5082000Y-4826000D01*
D43*
X11938000Y3048000D02*
X10670000Y3048000D01*
D42*
X-9890000Y-9398000D02*
X-9856000Y-9432000D01*
X3810000Y-4826000D02*
X3810000Y-4066000D01*
X3368000Y-5268000D02*
X3810000Y-4826000D01*
X5082000Y-4826000D02*
X5844000Y-4064000D01*
D43*
X-9652000Y-254000D02*
X-10414000Y-1016000D01*
D44*
X-10922000Y10642000D02*
X-10922000Y10696000D01*
D43*
X-10668000Y10696000D02*
X-10922000Y10696000D01*
X-5381000Y-7620000D02*
X-5588000Y-7413000D01*
D42*
X-9890000Y-8382000D02*
X-11402000Y-8382000D01*
D43*
X10416000Y11432000D02*
X10416000Y11938000D01*
X-4318000Y-7620000D02*
X-5381000Y-7620000D01*
D42*
X3810000Y-4066000D02*
X3812000Y-4064000D01*
D43*
X-9902000Y3306000D02*
X-10922000Y2286000D01*
X-7000000Y10712000D02*
X-8382000Y10712000D01*
X-9652000Y0D02*
X-9652000Y-254000D01*
D42*
X-8040000Y-9432000D02*
X-7890000Y-9282000D01*
D43*
X-12164000Y10696000D02*
X-12954000Y9906000D01*
X9652000Y10668000D02*
X10416000Y11432000D01*
D42*
X-7890000Y-9282000D02*
X-7890000Y-8382000D01*
D43*
X1778000Y-5334000D02*
X1778000Y-6350000D01*
X-10922000Y10696000D02*
X-12164000Y10696000D01*
X-9382000Y10712000D02*
X-9398000Y10696000D01*
D45*
%TO.N,IO42*%
X7000000Y6462000D02*
X15128000Y6462000D01*
X15128000Y6462000D02*
X15240000Y6350000D01*
%TO.N,IO48*%
X5950000Y400000D02*
X5950000Y-538000D01*
X5842000Y508000D02*
X5950000Y400000D01*
%TO.N,IO34*%
X5080000Y-518000D02*
X5100000Y-538000D01*
X5080000Y1270000D02*
X5080000Y-518000D01*
%TO.N,IO39_SDA1*%
X8786000Y3912000D02*
X9650000Y3048000D01*
X9650000Y2728001D02*
X11108001Y1270000D01*
X11108001Y1270000D02*
X15240000Y1270000D01*
X9650000Y3048000D02*
X9650000Y2728001D01*
X7000000Y3912000D02*
X8786000Y3912000D01*
%TO.N,IO40_SCL1*%
X10033654Y4762000D02*
X10309654Y5038000D01*
X7000000Y4762000D02*
X9652000Y4762000D01*
X14224000Y2540000D02*
X16510000Y2540000D01*
X11726000Y5038000D02*
X14224000Y2540000D01*
X9650000Y4760000D02*
X9652000Y4762000D01*
X9652000Y4762000D02*
X10033654Y4762000D01*
X9650000Y4318000D02*
X9650000Y4760000D01*
X10309654Y5038000D02*
X11726000Y5038000D01*
X16510000Y2540000D02*
X17780000Y1270000D01*
%TO.N,IO37_CS1*%
X16530000Y-2520000D02*
X17780000Y-1270000D01*
X7000000Y2212000D02*
X8202000Y2212000D01*
X12934000Y-2520000D02*
X16530000Y-2520000D01*
X8202000Y2212000D02*
X12934000Y-2520000D01*
%TO.N,IO41*%
X13184000Y5612000D02*
X13696000Y5100000D01*
X16530000Y5100000D02*
X17780000Y6350000D01*
X7000000Y5612000D02*
X13184000Y5612000D01*
X13696000Y5100000D02*
X16530000Y5100000D01*
D42*
%TO.N,I046_S*%
X7000000Y11562000D02*
X5710000Y11562000D01*
X5710000Y11562000D02*
X5588000Y11684000D01*
%TO.N,I045_S*%
X6472000Y9012000D02*
X5588000Y8128000D01*
X7000000Y9012000D02*
X6472000Y9012000D01*
%TO.N,IO3_S*%
X-6042000Y7312000D02*
X-5842000Y7112000D01*
X-7000000Y7312000D02*
X-6042000Y7312000D01*
D45*
%TO.N,IO38_SCLK1*%
X12700000Y-1270000D02*
X15240000Y-1270000D01*
X7000000Y3062000D02*
X8368000Y3062000D01*
X8368000Y3062000D02*
X12700000Y-1270000D01*
D42*
%TO.N,Net-(D1-A)*%
X-15496000Y11938000D02*
X-17230000Y11938000D01*
D44*
%TO.N,Net-(IC5-PROG)*%
X-3304000Y-9242000D02*
X-3526000Y-9464000D01*
X-3304000Y-8128000D02*
X-3304000Y-9242000D01*
D42*
%TO.N,Net-(D4-K)*%
X-7832000Y-10160000D02*
X-7832000Y-9864000D01*
X-7832000Y-9864000D02*
X-7432000Y-9464000D01*
X-7432000Y-9464000D02*
X-6126000Y-9464000D01*
D45*
%TO.N,Net-(JP1-A)*%
X-10668000Y-11938000D02*
X-10668000Y-11432000D01*
X-10668000Y-11938000D02*
X-10668000Y-12446000D01*
%TD*%
%TA.AperFunction,Conductor*%
%TO.N,GND*%
G36*
X7512290Y-3721407D02*
G01*
X7524103Y-3731496D01*
X8252103Y-4459496D01*
X8279880Y-4514013D01*
X8270309Y-4574445D01*
X8227044Y-4617710D01*
X8182100Y-4628500D01*
X8037140Y-4628500D01*
X8037135Y-4628501D01*
X8012009Y-4631414D01*
X7909235Y-4676794D01*
X7829794Y-4756235D01*
X7784414Y-4859011D01*
X7781500Y-4884130D01*
X7781500Y-5127752D01*
X7762593Y-5185943D01*
X7713093Y-5221907D01*
X7682500Y-5226752D01*
X7611980Y-5226752D01*
X7553789Y-5207845D01*
X7546330Y-5201854D01*
X7530658Y-5187970D01*
X7530657Y-5187969D01*
X7460719Y-5151262D01*
X7390781Y-5114555D01*
X7237404Y-5076752D01*
X7237402Y-5076752D01*
X7079432Y-5076752D01*
X7079429Y-5076752D01*
X6926052Y-5114555D01*
X6786175Y-5187970D01*
X6667932Y-5292723D01*
X6578197Y-5422728D01*
X6522180Y-5570434D01*
X6522179Y-5570435D01*
X6503139Y-5727250D01*
X6503139Y-5727253D01*
X6522179Y-5884068D01*
X6522180Y-5884070D01*
X6563269Y-5992413D01*
X6578197Y-6031775D01*
X6667932Y-6161780D01*
X6667933Y-6161781D01*
X6667934Y-6161782D01*
X6786177Y-6266535D01*
X6926052Y-6339948D01*
X7079432Y-6377752D01*
X7079435Y-6377752D01*
X7237399Y-6377752D01*
X7237402Y-6377752D01*
X7390782Y-6339948D01*
X7530657Y-6266535D01*
X7546330Y-6252650D01*
X7602424Y-6228214D01*
X7611980Y-6227752D01*
X7764774Y-6227752D01*
X7822965Y-6246659D01*
X7834771Y-6256742D01*
X7909235Y-6331206D01*
X8012009Y-6376585D01*
X8037135Y-6379500D01*
X8442233Y-6379499D01*
X8500424Y-6398406D01*
X8536388Y-6447906D01*
X8540511Y-6490432D01*
X8526722Y-6603998D01*
X8526722Y-6604001D01*
X8545762Y-6760816D01*
X8545763Y-6760818D01*
X8572537Y-6831415D01*
X8601780Y-6908523D01*
X8691517Y-7038530D01*
X8691517Y-7038531D01*
X8708148Y-7053264D01*
X8739167Y-7106003D01*
X8741500Y-7127367D01*
X8741500Y-8323860D01*
X8741501Y-8323863D01*
X8744414Y-8348990D01*
X8751685Y-8365456D01*
X8789794Y-8451765D01*
X8812505Y-8474476D01*
X8840281Y-8528991D01*
X8841500Y-8544478D01*
X8841500Y-9100108D01*
X8841500Y-9231892D01*
X8861116Y-9305099D01*
X8875609Y-9359190D01*
X8941496Y-9473309D01*
X8941497Y-9473310D01*
X8941498Y-9473311D01*
X8941500Y-9473314D01*
X9305779Y-9837593D01*
X9660504Y-10192318D01*
X9688281Y-10246835D01*
X9689500Y-10262322D01*
X9689500Y-10833860D01*
X9689501Y-10833863D01*
X9692414Y-10858990D01*
X9699293Y-10874569D01*
X9737794Y-10961765D01*
X9817235Y-11041206D01*
X9920009Y-11086585D01*
X9945135Y-11089500D01*
X11234864Y-11089499D01*
X11259991Y-11086585D01*
X11362765Y-11041206D01*
X11442206Y-10961765D01*
X11487585Y-10858991D01*
X11490500Y-10833865D01*
X11490499Y-10706744D01*
X11509406Y-10648556D01*
X11558906Y-10612592D01*
X11620091Y-10612591D01*
X11659503Y-10636742D01*
X11762504Y-10739743D01*
X11790281Y-10794260D01*
X11791500Y-10809747D01*
X11791500Y-10854801D01*
X11772593Y-10912992D01*
X11751290Y-10934455D01*
X11737003Y-10944999D01*
X11736996Y-10945006D01*
X11658148Y-11051841D01*
X11614291Y-11177176D01*
X11614289Y-11177185D01*
X11611500Y-11206923D01*
X11611500Y-11653076D01*
X11614289Y-11682814D01*
X11614291Y-11682823D01*
X11658148Y-11808158D01*
X11736998Y-11914996D01*
X11736998Y-11914997D01*
X11737944Y-11915695D01*
X11751287Y-11925543D01*
X11786880Y-11975309D01*
X11791500Y-12005198D01*
X11791500Y-13032807D01*
X11772593Y-13090998D01*
X11723093Y-13126962D01*
X11661907Y-13126962D01*
X11622496Y-13102811D01*
X11532043Y-13012358D01*
X11419151Y-12954836D01*
X11419147Y-12954835D01*
X11325484Y-12940000D01*
X10919001Y-12940000D01*
X10919000Y-12940001D01*
X10919000Y-13616000D01*
X10900093Y-13674191D01*
X10850593Y-13710155D01*
X10820000Y-13715000D01*
X10719001Y-13715000D01*
X10719000Y-13715001D01*
X10719000Y-13816000D01*
X10700093Y-13874191D01*
X10650593Y-13910155D01*
X10620000Y-13915000D01*
X9744002Y-13915000D01*
X9744001Y-13915001D01*
X9744001Y-14121485D01*
X9758833Y-14215141D01*
X9758836Y-14215151D01*
X9816358Y-14328043D01*
X9905956Y-14417641D01*
X10018848Y-14475163D01*
X10018852Y-14475164D01*
X10112515Y-14489999D01*
X10344500Y-14489999D01*
X10402690Y-14508906D01*
X10438654Y-14558406D01*
X10443500Y-14588999D01*
X10443500Y-15891000D01*
X10424593Y-15949191D01*
X10375093Y-15985155D01*
X10344500Y-15990000D01*
X10112517Y-15990000D01*
X10112514Y-15990001D01*
X10018858Y-16004833D01*
X10018848Y-16004836D01*
X9905956Y-16062358D01*
X9816358Y-16151956D01*
X9758836Y-16264848D01*
X9758835Y-16264852D01*
X9744000Y-16358515D01*
X9744000Y-16564999D01*
X9744001Y-16565000D01*
X11693998Y-16565000D01*
X11693999Y-16564999D01*
X11693999Y-16358517D01*
X11692419Y-16348545D01*
X11701987Y-16288112D01*
X11745250Y-16244845D01*
X11763527Y-16237789D01*
X11763988Y-16237585D01*
X11763991Y-16237585D01*
X11866765Y-16192206D01*
X11946206Y-16112765D01*
X11991585Y-16009991D01*
X11994500Y-15984865D01*
X11994499Y-15071899D01*
X12013406Y-15013709D01*
X12023488Y-15001903D01*
X12512480Y-14512913D01*
X12512483Y-14512908D01*
X12565205Y-14421592D01*
X12565205Y-14421590D01*
X12565207Y-14421588D01*
X12592500Y-14319727D01*
X12592500Y-14214273D01*
X12592500Y-12158700D01*
X12611407Y-12100509D01*
X12660907Y-12064545D01*
X12722093Y-12064545D01*
X12740018Y-12072404D01*
X12744853Y-12075122D01*
X12882939Y-12129577D01*
X12882945Y-12129578D01*
X12952000Y-12137870D01*
X12952000Y-11630001D01*
X13352000Y-11630001D01*
X13352000Y-12137870D01*
X13421052Y-12129578D01*
X13559150Y-12075119D01*
X13677424Y-11985430D01*
X13677430Y-11985424D01*
X13767121Y-11867148D01*
X13821578Y-11729056D01*
X13831999Y-11642281D01*
X13832000Y-11642275D01*
X13832000Y-11630001D01*
X13831999Y-11630000D01*
X13352001Y-11630000D01*
X13352000Y-11630001D01*
X12952000Y-11630001D01*
X12952000Y-11229999D01*
X13352000Y-11229999D01*
X13352001Y-11230000D01*
X13831998Y-11230000D01*
X13831999Y-11229999D01*
X13831999Y-11217727D01*
X13831998Y-11217717D01*
X13821578Y-11130945D01*
X13821577Y-11130939D01*
X13767121Y-10992851D01*
X13677430Y-10874575D01*
X13677424Y-10874569D01*
X13559148Y-10784878D01*
X13421057Y-10730421D01*
X13352000Y-10722128D01*
X13352000Y-11229999D01*
X12952000Y-11229999D01*
X12952000Y-10722129D01*
X12882945Y-10730421D01*
X12882939Y-10730422D01*
X12744847Y-10784879D01*
X12740012Y-10787598D01*
X12680022Y-10799631D01*
X12624416Y-10774105D01*
X12594433Y-10720769D01*
X12592500Y-10701299D01*
X12592500Y-10550122D01*
X12592500Y-10550119D01*
X12589655Y-10539500D01*
X12565207Y-10448258D01*
X12522969Y-10375101D01*
X12510248Y-10315255D01*
X12535134Y-10259359D01*
X12572388Y-10233504D01*
X12629150Y-10211120D01*
X12747424Y-10121430D01*
X12747430Y-10121424D01*
X12837121Y-10003148D01*
X12891578Y-9865057D01*
X12899872Y-9796000D01*
X12291000Y-9796000D01*
X12232809Y-9777093D01*
X12196845Y-9727593D01*
X12192000Y-9697000D01*
X12192000Y-9495000D01*
X12210907Y-9436809D01*
X12260407Y-9400845D01*
X12291000Y-9396000D01*
X12899870Y-9396000D01*
X12896407Y-9367161D01*
X12908242Y-9307131D01*
X12953101Y-9265522D01*
X13013849Y-9258226D01*
X13018365Y-9259227D01*
X13129015Y-9286500D01*
X13129018Y-9286500D01*
X13286982Y-9286500D01*
X13286985Y-9286500D01*
X13440365Y-9248696D01*
X13580240Y-9175283D01*
X13698483Y-9070530D01*
X13788220Y-8940523D01*
X13844237Y-8792818D01*
X13847873Y-8762867D01*
X13873656Y-8707381D01*
X13927129Y-8677646D01*
X13987869Y-8685020D01*
X13994670Y-8690000D01*
X14778120Y-8690000D01*
X14774075Y-8697007D01*
X14740000Y-8824174D01*
X14740000Y-8955826D01*
X14774075Y-9082993D01*
X14778120Y-9090000D01*
X14002722Y-9090000D01*
X14004286Y-9107881D01*
X14060897Y-9319157D01*
X14153332Y-9517386D01*
X14278783Y-9696549D01*
X14433450Y-9851216D01*
X14612613Y-9976667D01*
X14810842Y-10069102D01*
X15022118Y-10125713D01*
X15039999Y-10127277D01*
X15040000Y-10127277D01*
X15040000Y-9351879D01*
X15047007Y-9355925D01*
X15174174Y-9390000D01*
X15305826Y-9390000D01*
X15432993Y-9355925D01*
X15440000Y-9351879D01*
X15440000Y-10127277D01*
X15457881Y-10125713D01*
X15669157Y-10069102D01*
X15867386Y-9976667D01*
X16046549Y-9851216D01*
X16201216Y-9696549D01*
X16326667Y-9517386D01*
X16419103Y-9319155D01*
X16465455Y-9146164D01*
X16498779Y-9094849D01*
X16555900Y-9072922D01*
X16615001Y-9088757D01*
X16653506Y-9136307D01*
X16656303Y-9144693D01*
X16660660Y-9160007D01*
X16702595Y-9307389D01*
X16797634Y-9498255D01*
X16926128Y-9668407D01*
X16942577Y-9683402D01*
X17083692Y-9812047D01*
X17083699Y-9812053D01*
X17137211Y-9845186D01*
X17264981Y-9924298D01*
X17463802Y-10001321D01*
X17673390Y-10040500D01*
X17886610Y-10040500D01*
X18096198Y-10001321D01*
X18295019Y-9924298D01*
X18476302Y-9812052D01*
X18633872Y-9668407D01*
X18762366Y-9498255D01*
X18857405Y-9307389D01*
X18915756Y-9102310D01*
X18935429Y-8890000D01*
X18915756Y-8677690D01*
X18868250Y-8510727D01*
X18870511Y-8449588D01*
X18893468Y-8413634D01*
X19330497Y-7976606D01*
X19385013Y-7948829D01*
X19445445Y-7958400D01*
X19488710Y-8001665D01*
X19499500Y-8046610D01*
X19499500Y-15662417D01*
X19480593Y-15720608D01*
X19431093Y-15756572D01*
X19369907Y-15756572D01*
X19320407Y-15720608D01*
X19302899Y-15679000D01*
X19283527Y-15564988D01*
X19247519Y-15440000D01*
X19187121Y-15230356D01*
X19053855Y-14908624D01*
X19053853Y-14908619D01*
X18899115Y-14628642D01*
X18885405Y-14603836D01*
X18683888Y-14319824D01*
X18451839Y-14060161D01*
X18192176Y-13828112D01*
X17908164Y-13626595D01*
X17885375Y-13614000D01*
X17603379Y-13458146D01*
X17603380Y-13458146D01*
X17281642Y-13324878D01*
X16947011Y-13228472D01*
X16603703Y-13170142D01*
X16603683Y-13170139D01*
X16256005Y-13150615D01*
X16255995Y-13150615D01*
X15908316Y-13170139D01*
X15908296Y-13170142D01*
X15564988Y-13228472D01*
X15230357Y-13324878D01*
X14908619Y-13458146D01*
X14603840Y-13626592D01*
X14486069Y-13710155D01*
X14319824Y-13828112D01*
X14228018Y-13910155D01*
X14060168Y-14060154D01*
X14060154Y-14060168D01*
X13975557Y-14154833D01*
X13828112Y-14319824D01*
X13828110Y-14319827D01*
X13626592Y-14603840D01*
X13458146Y-14908619D01*
X13324878Y-15230357D01*
X13228472Y-15564988D01*
X13170142Y-15908296D01*
X13170139Y-15908316D01*
X13150615Y-16255995D01*
X13150615Y-16256004D01*
X13170139Y-16603683D01*
X13170142Y-16603703D01*
X13228472Y-16947011D01*
X13324878Y-17281642D01*
X13458146Y-17603380D01*
X13626592Y-17908159D01*
X13626595Y-17908164D01*
X13828112Y-18192176D01*
X14060161Y-18451839D01*
X14319824Y-18683888D01*
X14603836Y-18885405D01*
X14603840Y-18885407D01*
X14908620Y-19053853D01*
X14908619Y-19053853D01*
X14908624Y-19053855D01*
X15230356Y-19187121D01*
X15564987Y-19283527D01*
X15600227Y-19289514D01*
X15679001Y-19302899D01*
X15733203Y-19331286D01*
X15760367Y-19386111D01*
X15750118Y-19446432D01*
X15706371Y-19489208D01*
X15662418Y-19499500D01*
X4579784Y-19499500D01*
X4521593Y-19480593D01*
X4485629Y-19431093D01*
X4485629Y-19369907D01*
X4521593Y-19320407D01*
X4560470Y-19303402D01*
X4580519Y-19299413D01*
X4580521Y-19299413D01*
X4744308Y-19231570D01*
X4891715Y-19133076D01*
X5017076Y-19007715D01*
X5115570Y-18860308D01*
X5183413Y-18696521D01*
X5183413Y-18696519D01*
X5217999Y-18522644D01*
X5218000Y-18522641D01*
X5218000Y-18234001D01*
X5217999Y-18234000D01*
X4618000Y-18234000D01*
X4618000Y-17834000D01*
X5217999Y-17834000D01*
X5218000Y-17833999D01*
X5218000Y-17545358D01*
X5217999Y-17545355D01*
X5183413Y-17371480D01*
X5183413Y-17371478D01*
X5115570Y-17207691D01*
X5017076Y-17060284D01*
X4921793Y-16965001D01*
X6594001Y-16965001D01*
X6594001Y-17171485D01*
X6608833Y-17265141D01*
X6608836Y-17265151D01*
X6666358Y-17378043D01*
X6755956Y-17467641D01*
X6868848Y-17525163D01*
X6868852Y-17525164D01*
X6962515Y-17539999D01*
X7368998Y-17539999D01*
X7369000Y-17539998D01*
X7369000Y-16965001D01*
X7769000Y-16965001D01*
X7769000Y-17539998D01*
X7769001Y-17539999D01*
X8175483Y-17539999D01*
X8175485Y-17539998D01*
X8269141Y-17525166D01*
X8269151Y-17525163D01*
X8382043Y-17467641D01*
X8471641Y-17378043D01*
X8529163Y-17265151D01*
X8529164Y-17265147D01*
X8544000Y-17171484D01*
X8544000Y-16965001D01*
X9744001Y-16965001D01*
X9744001Y-17171485D01*
X9758833Y-17265141D01*
X9758836Y-17265151D01*
X9816358Y-17378043D01*
X9905956Y-17467641D01*
X10018848Y-17525163D01*
X10018852Y-17525164D01*
X10112515Y-17539999D01*
X10518998Y-17539999D01*
X10519000Y-17539998D01*
X10519000Y-16965001D01*
X10919000Y-16965001D01*
X10919000Y-17539998D01*
X10919001Y-17539999D01*
X11325483Y-17539999D01*
X11325485Y-17539998D01*
X11419141Y-17525166D01*
X11419151Y-17525163D01*
X11532043Y-17467641D01*
X11621641Y-17378043D01*
X11679163Y-17265151D01*
X11679164Y-17265147D01*
X11694000Y-17171484D01*
X11694000Y-16965001D01*
X11693999Y-16965000D01*
X10919001Y-16965000D01*
X10919000Y-16965001D01*
X10519000Y-16965001D01*
X10518999Y-16965000D01*
X9744002Y-16965000D01*
X9744001Y-16965001D01*
X8544000Y-16965001D01*
X8543999Y-16965000D01*
X7769001Y-16965000D01*
X7769000Y-16965001D01*
X7369000Y-16965001D01*
X7368999Y-16965000D01*
X6594002Y-16965000D01*
X6594001Y-16965001D01*
X4921793Y-16965001D01*
X4891715Y-16934923D01*
X4744308Y-16836429D01*
X4580520Y-16768586D01*
X4518000Y-16756149D01*
X4518000Y-17409735D01*
X4502205Y-17393940D01*
X4433796Y-17354444D01*
X4357496Y-17334000D01*
X4278504Y-17334000D01*
X4202204Y-17354444D01*
X4133795Y-17393940D01*
X4118000Y-17409735D01*
X4118000Y-16756149D01*
X4055480Y-16768586D01*
X4055478Y-16768586D01*
X3891691Y-16836429D01*
X3744284Y-16934923D01*
X3618923Y-17060284D01*
X3520429Y-17207691D01*
X3452586Y-17371478D01*
X3452586Y-17371480D01*
X3418000Y-17545355D01*
X3418000Y-17833999D01*
X3418001Y-17834000D01*
X4018000Y-17834000D01*
X4018000Y-18234000D01*
X3418001Y-18234000D01*
X3418000Y-18234001D01*
X3418000Y-18522644D01*
X3452586Y-18696519D01*
X3452586Y-18696521D01*
X3520429Y-18860308D01*
X3618923Y-19007715D01*
X3744284Y-19133076D01*
X3891691Y-19231570D01*
X4055479Y-19299413D01*
X4075530Y-19303402D01*
X4128914Y-19333299D01*
X4154530Y-19388864D01*
X4142593Y-19448873D01*
X4097663Y-19490406D01*
X4056216Y-19499500D01*
X-4060216Y-19499500D01*
X-4118407Y-19480593D01*
X-4154371Y-19431093D01*
X-4154371Y-19369907D01*
X-4118407Y-19320407D01*
X-4079530Y-19303402D01*
X-4059481Y-19299413D01*
X-4059479Y-19299413D01*
X-3895692Y-19231570D01*
X-3748285Y-19133076D01*
X-3622924Y-19007715D01*
X-3524430Y-18860308D01*
X-3456587Y-18696521D01*
X-3456587Y-18696519D01*
X-3422001Y-18522644D01*
X-3422000Y-18522641D01*
X-3422000Y-18234001D01*
X-3422001Y-18234000D01*
X-4022000Y-18234000D01*
X-4022000Y-17834000D01*
X-3422001Y-17834000D01*
X-3422000Y-17833999D01*
X-3422000Y-17545358D01*
X-3422001Y-17545355D01*
X-3456587Y-17371480D01*
X-3456587Y-17371478D01*
X-3524430Y-17207691D01*
X-3622924Y-17060284D01*
X-3748285Y-16934923D01*
X-3895692Y-16836429D01*
X-4059480Y-16768586D01*
X-4122000Y-16756149D01*
X-4122000Y-17409735D01*
X-4137795Y-17393940D01*
X-4206204Y-17354444D01*
X-4282504Y-17334000D01*
X-4361496Y-17334000D01*
X-4437796Y-17354444D01*
X-4506205Y-17393940D01*
X-4522000Y-17409735D01*
X-4522000Y-16756149D01*
X-4584520Y-16768586D01*
X-4584522Y-16768586D01*
X-4748309Y-16836429D01*
X-4895716Y-16934923D01*
X-5021077Y-17060284D01*
X-5119571Y-17207691D01*
X-5187414Y-17371478D01*
X-5187414Y-17371480D01*
X-5222000Y-17545355D01*
X-5222000Y-17833999D01*
X-5221999Y-17834000D01*
X-4622000Y-17834000D01*
X-4622000Y-18234000D01*
X-5221999Y-18234000D01*
X-5222000Y-18234001D01*
X-5222000Y-18522644D01*
X-5187414Y-18696519D01*
X-5187414Y-18696521D01*
X-5119571Y-18860308D01*
X-5021077Y-19007715D01*
X-4895716Y-19133076D01*
X-4748309Y-19231570D01*
X-4584521Y-19299413D01*
X-4564470Y-19303402D01*
X-4511086Y-19333299D01*
X-4485470Y-19388864D01*
X-4497407Y-19448873D01*
X-4542337Y-19490406D01*
X-4583784Y-19499500D01*
X-15662418Y-19499500D01*
X-15720609Y-19480593D01*
X-15756573Y-19431093D01*
X-15756573Y-19369907D01*
X-15720609Y-19320407D01*
X-15679001Y-19302899D01*
X-15618828Y-19292674D01*
X-15564987Y-19283527D01*
X-15230356Y-19187121D01*
X-14908624Y-19053855D01*
X-14603836Y-18885405D01*
X-14319824Y-18683888D01*
X-14060161Y-18451839D01*
X-13828112Y-18192176D01*
X-13626595Y-17908164D01*
X-13458145Y-17603376D01*
X-13324879Y-17281644D01*
X-13233655Y-16965001D01*
X-11693999Y-16965001D01*
X-11693999Y-17171485D01*
X-11679167Y-17265141D01*
X-11679164Y-17265151D01*
X-11621642Y-17378043D01*
X-11532044Y-17467641D01*
X-11419152Y-17525163D01*
X-11419148Y-17525164D01*
X-11325485Y-17539999D01*
X-10919002Y-17539999D01*
X-10919000Y-17539998D01*
X-10919000Y-16965001D01*
X-10519000Y-16965001D01*
X-10519000Y-17539998D01*
X-10518999Y-17539999D01*
X-10112517Y-17539999D01*
X-10112515Y-17539998D01*
X-10018859Y-17525166D01*
X-10018849Y-17525163D01*
X-9905957Y-17467641D01*
X-9816359Y-17378043D01*
X-9758837Y-17265151D01*
X-9758836Y-17265147D01*
X-9744000Y-17171484D01*
X-9744000Y-16965001D01*
X-8543999Y-16965001D01*
X-8543999Y-17171485D01*
X-8529167Y-17265141D01*
X-8529164Y-17265151D01*
X-8471642Y-17378043D01*
X-8382044Y-17467641D01*
X-8269152Y-17525163D01*
X-8269148Y-17525164D01*
X-8175485Y-17539999D01*
X-7769002Y-17539999D01*
X-7769000Y-17539998D01*
X-7769000Y-16965001D01*
X-7369000Y-16965001D01*
X-7369000Y-17539998D01*
X-7368999Y-17539999D01*
X-6962517Y-17539999D01*
X-6962515Y-17539998D01*
X-6868859Y-17525166D01*
X-6868849Y-17525163D01*
X-6755957Y-17467641D01*
X-6666359Y-17378043D01*
X-6608837Y-17265151D01*
X-6608836Y-17265147D01*
X-6594000Y-17171484D01*
X-6594000Y-16965001D01*
X-6594001Y-16965000D01*
X-7368999Y-16965000D01*
X-7369000Y-16965001D01*
X-7769000Y-16965001D01*
X-7769001Y-16965000D01*
X-8543998Y-16965000D01*
X-8543999Y-16965001D01*
X-9744000Y-16965001D01*
X-9744001Y-16965000D01*
X-10518999Y-16965000D01*
X-10519000Y-16965001D01*
X-10919000Y-16965001D01*
X-10919001Y-16965000D01*
X-11693998Y-16965000D01*
X-11693999Y-16965001D01*
X-13233655Y-16965001D01*
X-13228473Y-16947013D01*
X-13170141Y-16603693D01*
X-13160360Y-16429540D01*
X-13150615Y-16256004D01*
X-13150615Y-16255995D01*
X-13170140Y-15908316D01*
X-13170143Y-15908296D01*
X-13195922Y-15756572D01*
X-13228473Y-15564987D01*
X-13324879Y-15230356D01*
X-13458145Y-14908624D01*
X-13458147Y-14908619D01*
X-13612885Y-14628642D01*
X-13626595Y-14603836D01*
X-13828112Y-14319824D01*
X-14060161Y-14060161D01*
X-14319824Y-13828112D01*
X-14603836Y-13626595D01*
X-14626625Y-13614000D01*
X-14908621Y-13458146D01*
X-14908620Y-13458146D01*
X-15230358Y-13324878D01*
X-15564989Y-13228472D01*
X-15908297Y-13170142D01*
X-15908317Y-13170139D01*
X-16255995Y-13150615D01*
X-16256005Y-13150615D01*
X-16603684Y-13170139D01*
X-16603704Y-13170142D01*
X-16947012Y-13228472D01*
X-17281643Y-13324878D01*
X-17603381Y-13458146D01*
X-17908160Y-13626592D01*
X-18025931Y-13710155D01*
X-18192176Y-13828112D01*
X-18283982Y-13910155D01*
X-18451832Y-14060154D01*
X-18451846Y-14060168D01*
X-18536443Y-14154833D01*
X-18683888Y-14319824D01*
X-18683890Y-14319827D01*
X-18885408Y-14603840D01*
X-19053854Y-14908619D01*
X-19187122Y-15230357D01*
X-19283528Y-15564988D01*
X-19302899Y-15679000D01*
X-19331286Y-15733202D01*
X-19386111Y-15760366D01*
X-19446432Y-15750117D01*
X-19489208Y-15706369D01*
X-19499500Y-15662417D01*
X-19499500Y-11630001D01*
X-13605999Y-11630001D01*
X-13605999Y-11642282D01*
X-13595579Y-11729054D01*
X-13595578Y-11729060D01*
X-13541122Y-11867148D01*
X-13451431Y-11985424D01*
X-13451425Y-11985430D01*
X-13333149Y-12075121D01*
X-13195061Y-12129577D01*
X-13195055Y-12129578D01*
X-13126000Y-12137870D01*
X-13126000Y-11630001D01*
X-13126001Y-11630000D01*
X-13605998Y-11630000D01*
X-13605999Y-11630001D01*
X-19499500Y-11630001D01*
X-19499500Y-8112321D01*
X-19480593Y-8054130D01*
X-19431093Y-8018166D01*
X-19369907Y-8018166D01*
X-19330496Y-8042318D01*
X-18889132Y-8483683D01*
X-18861355Y-8538199D01*
X-18863915Y-8580778D01*
X-18895756Y-8692688D01*
X-18915429Y-8905000D01*
X-18895756Y-9117311D01*
X-18881289Y-9168157D01*
X-18837405Y-9322389D01*
X-18742366Y-9513255D01*
X-18613872Y-9683407D01*
X-18565274Y-9727710D01*
X-18456308Y-9827047D01*
X-18456301Y-9827053D01*
X-18379321Y-9874717D01*
X-18275019Y-9939298D01*
X-18076198Y-10016321D01*
X-17866610Y-10055500D01*
X-17653390Y-10055500D01*
X-17443802Y-10016321D01*
X-17441040Y-10015250D01*
X-17439795Y-10015181D01*
X-17439396Y-10015068D01*
X-17439371Y-10015157D01*
X-17379953Y-10011849D01*
X-17335259Y-10037555D01*
X-16397500Y-10975314D01*
X-16397501Y-10975314D01*
X-16304315Y-11068499D01*
X-16304310Y-11068503D01*
X-16190190Y-11134390D01*
X-16190192Y-11134390D01*
X-16190188Y-11134391D01*
X-16190186Y-11134392D01*
X-16062892Y-11168500D01*
X-16062890Y-11168500D01*
X-13904110Y-11168500D01*
X-13904108Y-11168500D01*
X-13776814Y-11134392D01*
X-13753915Y-11121170D01*
X-13694067Y-11108448D01*
X-13638171Y-11133333D01*
X-13607577Y-11186320D01*
X-13606296Y-11214734D01*
X-13605823Y-11214763D01*
X-13606000Y-11217724D01*
X-13606000Y-11229999D01*
X-13605999Y-11230000D01*
X-13126001Y-11230000D01*
X-13126000Y-11229999D01*
X-13126000Y-10722130D01*
X-13148229Y-10702411D01*
X-13179213Y-10649650D01*
X-13173268Y-10588755D01*
X-13152540Y-10558353D01*
X-12710121Y-10115934D01*
X-12655608Y-10088160D01*
X-12595176Y-10097731D01*
X-12551911Y-10140996D01*
X-12541968Y-10173019D01*
X-12523045Y-10316758D01*
X-12523043Y-10316766D01*
X-12462539Y-10462836D01*
X-12462537Y-10462838D01*
X-12462536Y-10462841D01*
X-12411957Y-10528756D01*
X-12391534Y-10586430D01*
X-12391500Y-10589022D01*
X-12391500Y-10689639D01*
X-12410407Y-10747830D01*
X-12459907Y-10783794D01*
X-12521093Y-10783794D01*
X-12526819Y-10781736D01*
X-12656943Y-10730421D01*
X-12726000Y-10722128D01*
X-12726000Y-12137870D01*
X-12656948Y-12129578D01*
X-12656942Y-12129577D01*
X-12526819Y-12078263D01*
X-12465749Y-12074504D01*
X-12414133Y-12107359D01*
X-12391687Y-12164278D01*
X-12391500Y-12170360D01*
X-12391500Y-14436982D01*
X-12391500Y-14549018D01*
X-12375641Y-14608205D01*
X-12362502Y-14657241D01*
X-12306487Y-14754260D01*
X-12306485Y-14754263D01*
X-12023495Y-15037253D01*
X-11995719Y-15091768D01*
X-11994500Y-15107255D01*
X-11994500Y-15984860D01*
X-11994499Y-15984863D01*
X-11991586Y-16009990D01*
X-11968463Y-16062358D01*
X-11946206Y-16112765D01*
X-11866765Y-16192206D01*
X-11763991Y-16237585D01*
X-11763989Y-16237585D01*
X-11757179Y-16240592D01*
X-11757707Y-16241785D01*
X-11713027Y-16271043D01*
X-11691318Y-16328247D01*
X-11692420Y-16348538D01*
X-11694000Y-16358514D01*
X-11694000Y-16564999D01*
X-11693999Y-16565000D01*
X-9744002Y-16565000D01*
X-9744001Y-16564999D01*
X-9744001Y-16358516D01*
X-9744002Y-16358515D01*
X-8544000Y-16358515D01*
X-8544000Y-16564999D01*
X-8543999Y-16565000D01*
X-6594002Y-16565000D01*
X-6594001Y-16564999D01*
X-6594001Y-16429540D01*
X-6575094Y-16371349D01*
X-6525594Y-16335385D01*
X-6510486Y-16331759D01*
X-6468859Y-16325166D01*
X-6468849Y-16325163D01*
X-6355957Y-16267641D01*
X-6266359Y-16178043D01*
X-6208837Y-16065151D01*
X-6208836Y-16065147D01*
X-6194000Y-15971484D01*
X-6194000Y-15440001D01*
X6194001Y-15440001D01*
X6194001Y-15971485D01*
X6208833Y-16065141D01*
X6208836Y-16065151D01*
X6266358Y-16178043D01*
X6355956Y-16267641D01*
X6468848Y-16325163D01*
X6468852Y-16325164D01*
X6510487Y-16331759D01*
X6565003Y-16359536D01*
X6592781Y-16414053D01*
X6594000Y-16429540D01*
X6594000Y-16564999D01*
X6594001Y-16565000D01*
X8543998Y-16565000D01*
X8543999Y-16564999D01*
X8543999Y-16358516D01*
X8543998Y-16358514D01*
X8529166Y-16264858D01*
X8529163Y-16264848D01*
X8471641Y-16151956D01*
X8382043Y-16062358D01*
X8269151Y-16004836D01*
X8269147Y-16004835D01*
X8175484Y-15990000D01*
X8043000Y-15990000D01*
X7984809Y-15971093D01*
X7948845Y-15921593D01*
X7944000Y-15891000D01*
X7944000Y-15440001D01*
X7943999Y-15440000D01*
X6194002Y-15440000D01*
X6194001Y-15440001D01*
X-6194000Y-15440001D01*
X-6194001Y-15440000D01*
X-7943998Y-15440000D01*
X-7943999Y-15440001D01*
X-7943999Y-15891000D01*
X-7962906Y-15949191D01*
X-8012406Y-15985155D01*
X-8042998Y-15990000D01*
X-8175483Y-15990000D01*
X-8175486Y-15990001D01*
X-8269142Y-16004833D01*
X-8269152Y-16004836D01*
X-8382044Y-16062358D01*
X-8471642Y-16151956D01*
X-8529164Y-16264848D01*
X-8529165Y-16264852D01*
X-8544000Y-16358515D01*
X-9744002Y-16358515D01*
X-9744002Y-16358514D01*
X-9758834Y-16264858D01*
X-9758837Y-16264848D01*
X-9816359Y-16151956D01*
X-9905957Y-16062358D01*
X-10018849Y-16004836D01*
X-10018853Y-16004835D01*
X-10112516Y-15990000D01*
X-10344500Y-15990000D01*
X-10402691Y-15971093D01*
X-10438655Y-15921593D01*
X-10443500Y-15891000D01*
X-10443501Y-14588999D01*
X-10424594Y-14530808D01*
X-10375094Y-14494844D01*
X-10344501Y-14489999D01*
X-10112517Y-14489999D01*
X-10112515Y-14489998D01*
X-10018859Y-14475166D01*
X-10018849Y-14475163D01*
X-9905957Y-14417641D01*
X-9816359Y-14328043D01*
X-9758837Y-14215151D01*
X-9758836Y-14215147D01*
X-9744000Y-14121484D01*
X-9744000Y-13915001D01*
X-8543999Y-13915001D01*
X-8543999Y-14121485D01*
X-8529167Y-14215141D01*
X-8529164Y-14215151D01*
X-8471642Y-14328043D01*
X-8382044Y-14417641D01*
X-8269152Y-14475163D01*
X-8269148Y-14475164D01*
X-8175485Y-14489999D01*
X-8043001Y-14489999D01*
X-7984810Y-14508906D01*
X-7948846Y-14558406D01*
X-7944000Y-14588999D01*
X-7944000Y-15039999D01*
X-7943999Y-15040000D01*
X-6194002Y-15040000D01*
X-6194001Y-15039999D01*
X-6194001Y-14508516D01*
X-6194002Y-14508514D01*
X-6208834Y-14414858D01*
X-6208837Y-14414848D01*
X-6266359Y-14301956D01*
X-6355957Y-14212358D01*
X-6468849Y-14154836D01*
X-6468852Y-14154835D01*
X-6510489Y-14148240D01*
X-6565005Y-14120461D01*
X-6592781Y-14065944D01*
X-6594000Y-14050459D01*
X-6594000Y-13915001D01*
X-6594001Y-13915000D01*
X-8543998Y-13915000D01*
X-8543999Y-13915001D01*
X-9744000Y-13915001D01*
X-9744001Y-13915000D01*
X-10620000Y-13915000D01*
X-10678191Y-13896093D01*
X-10714155Y-13846593D01*
X-10719000Y-13816000D01*
X-10719000Y-13614000D01*
X-10700093Y-13555809D01*
X-10650593Y-13519845D01*
X-10620000Y-13515000D01*
X-9744002Y-13515000D01*
X-9744001Y-13514999D01*
X-9744001Y-13308516D01*
X-9744002Y-13308515D01*
X-8544000Y-13308515D01*
X-8544000Y-13514999D01*
X-8543999Y-13515000D01*
X-7769001Y-13515000D01*
X-7769000Y-13514999D01*
X-7769000Y-12940001D01*
X-7769001Y-12940000D01*
X-8175483Y-12940000D01*
X-8175486Y-12940001D01*
X-8269142Y-12954833D01*
X-8269152Y-12954836D01*
X-8382044Y-13012358D01*
X-8471642Y-13101956D01*
X-8529164Y-13214848D01*
X-8529165Y-13214852D01*
X-8544000Y-13308515D01*
X-9744002Y-13308515D01*
X-9744002Y-13308514D01*
X-9758834Y-13214858D01*
X-9758837Y-13214848D01*
X-9816359Y-13101956D01*
X-9905957Y-13012358D01*
X-10018849Y-12954836D01*
X-10018853Y-12954835D01*
X-10106543Y-12940946D01*
X-10161060Y-12913168D01*
X-10188837Y-12858652D01*
X-10179265Y-12798220D01*
X-10169606Y-12782908D01*
X-10143464Y-12748841D01*
X-10082956Y-12602762D01*
X-10062318Y-12446000D01*
X-10082956Y-12289238D01*
X-10100099Y-12247852D01*
X-10143463Y-12143161D01*
X-10143463Y-12143160D01*
X-10197042Y-12073334D01*
X-10217466Y-12015658D01*
X-10217500Y-12013067D01*
X-10217500Y-11962293D01*
X-10198593Y-11904102D01*
X-10178641Y-11884001D01*
X-9259999Y-11884001D01*
X-9259999Y-11896282D01*
X-9249579Y-11983054D01*
X-9249578Y-11983060D01*
X-9195122Y-12121148D01*
X-9105431Y-12239424D01*
X-9105425Y-12239430D01*
X-8987149Y-12329121D01*
X-8849061Y-12383577D01*
X-8849055Y-12383578D01*
X-8780000Y-12391870D01*
X-8780000Y-11884001D01*
X-8780001Y-11884000D01*
X-9259998Y-11884000D01*
X-9259999Y-11884001D01*
X-10178641Y-11884001D01*
X-10177287Y-11882637D01*
X-10171577Y-11878423D01*
X-10093619Y-11772794D01*
X-10050259Y-11648879D01*
X-10047500Y-11619457D01*
X-10047501Y-11244544D01*
X-10050259Y-11215121D01*
X-10093619Y-11091206D01*
X-10094878Y-11089500D01*
X-10175111Y-10980787D01*
X-10194453Y-10922739D01*
X-10175982Y-10864409D01*
X-10175110Y-10863209D01*
X-10171579Y-10858423D01*
X-10171577Y-10858423D01*
X-10167361Y-10852709D01*
X-10117592Y-10817118D01*
X-10087707Y-10812500D01*
X-9979225Y-10812500D01*
X-9965252Y-10814339D01*
X-9965161Y-10813653D01*
X-9958728Y-10814500D01*
X-9958727Y-10814500D01*
X-9853275Y-10814500D01*
X-9853273Y-10814500D01*
X-9751412Y-10787207D01*
X-9751410Y-10787205D01*
X-9751408Y-10787205D01*
X-9719425Y-10768739D01*
X-9660087Y-10734480D01*
X-9628793Y-10703185D01*
X-9574277Y-10675408D01*
X-9513845Y-10684979D01*
X-9488789Y-10703182D01*
X-9454765Y-10737206D01*
X-9351991Y-10782585D01*
X-9326865Y-10785500D01*
X-8847301Y-10785499D01*
X-8789111Y-10804406D01*
X-8753147Y-10853906D01*
X-8753147Y-10915091D01*
X-8789111Y-10964592D01*
X-8835497Y-10982793D01*
X-8849055Y-10984421D01*
X-8849061Y-10984422D01*
X-8987149Y-11038878D01*
X-9105425Y-11128569D01*
X-9105431Y-11128575D01*
X-9195122Y-11246851D01*
X-9249579Y-11384943D01*
X-9260000Y-11471718D01*
X-9260000Y-11483999D01*
X-9259999Y-11484000D01*
X-8679000Y-11484000D01*
X-8620809Y-11502907D01*
X-8584845Y-11552407D01*
X-8580000Y-11583000D01*
X-8580000Y-11683999D01*
X-8579999Y-11684000D01*
X-8479000Y-11684000D01*
X-8420809Y-11702907D01*
X-8384845Y-11752407D01*
X-8380000Y-11783000D01*
X-8380000Y-12391870D01*
X-8310948Y-12383578D01*
X-8172852Y-12329120D01*
X-8075912Y-12255609D01*
X-8018120Y-12235514D01*
X-7975258Y-12245681D01*
X-7975160Y-12245402D01*
X-7972474Y-12246341D01*
X-7969822Y-12246971D01*
X-7968163Y-12247847D01*
X-7968157Y-12247852D01*
X-7842819Y-12291710D01*
X-7815381Y-12294282D01*
X-7813077Y-12294499D01*
X-7813072Y-12294500D01*
X-7488177Y-12294500D01*
X-7429986Y-12313407D01*
X-7394022Y-12362907D01*
X-7394022Y-12424093D01*
X-7396711Y-12431379D01*
X-7427830Y-12506508D01*
X-7443043Y-12543236D01*
X-7443045Y-12543241D01*
X-7463682Y-12699999D01*
X-7463682Y-12700000D01*
X-7443045Y-12856758D01*
X-7443043Y-12856766D01*
X-7382538Y-13002838D01*
X-7382266Y-13003309D01*
X-7382126Y-13003833D01*
X-7380053Y-13008837D01*
X-7380712Y-13009109D01*
X-7369000Y-13052813D01*
X-7369000Y-13514999D01*
X-7368999Y-13515000D01*
X-6594002Y-13515000D01*
X-6594001Y-13514999D01*
X-6594001Y-13304631D01*
X-6592258Y-13304631D01*
X-6579556Y-13251573D01*
X-6555378Y-13224703D01*
X-6555162Y-13224537D01*
X-6555159Y-13224536D01*
X-6485335Y-13170957D01*
X-6427659Y-13150534D01*
X-6425068Y-13150500D01*
X-5528691Y-13150500D01*
X-5438331Y-13126287D01*
X-5438328Y-13126287D01*
X-5425097Y-13122741D01*
X-5414113Y-13119799D01*
X-5364826Y-13091342D01*
X-5304978Y-13078621D01*
X-5249083Y-13103507D01*
X-5218490Y-13156495D01*
X-5218228Y-13196392D01*
X-5222000Y-13215353D01*
X-5222000Y-13653999D01*
X-5221999Y-13654000D01*
X-4622000Y-13654000D01*
X-4622000Y-14054000D01*
X-5221999Y-14054000D01*
X-5222000Y-14054001D01*
X-5222000Y-14492644D01*
X-5187414Y-14666519D01*
X-5187414Y-14666521D01*
X-5119571Y-14830308D01*
X-5021077Y-14977715D01*
X-4895716Y-15103076D01*
X-4748309Y-15201570D01*
X-4584527Y-15269411D01*
X-4584516Y-15269414D01*
X-4522000Y-15281848D01*
X-4522000Y-14628265D01*
X-4506205Y-14644060D01*
X-4437796Y-14683556D01*
X-4361496Y-14704000D01*
X-4282504Y-14704000D01*
X-4206204Y-14683556D01*
X-4137795Y-14644060D01*
X-4122000Y-14628265D01*
X-4122000Y-15281847D01*
X-4059485Y-15269414D01*
X-4059474Y-15269411D01*
X-3895692Y-15201570D01*
X-3748285Y-15103076D01*
X-3622924Y-14977715D01*
X-3524432Y-14830313D01*
X-3474059Y-14708698D01*
X-3434322Y-14662172D01*
X-3374828Y-14647888D01*
X-3318300Y-14671302D01*
X-3312590Y-14676579D01*
X-3312507Y-14676662D01*
X-3312505Y-14676665D01*
X-3214665Y-14774505D01*
X-3094836Y-14843688D01*
X-2961183Y-14879500D01*
X-2961181Y-14879500D01*
X-2822819Y-14879500D01*
X-2822817Y-14879500D01*
X-2689164Y-14843688D01*
X-2569335Y-14774505D01*
X-2471495Y-14676665D01*
X-2455606Y-14649144D01*
X-2410138Y-14608205D01*
X-2349288Y-14601809D01*
X-2299868Y-14628642D01*
X-1836021Y-15092488D01*
X-1836016Y-15092492D01*
X-1733299Y-15151796D01*
X-1733297Y-15151797D01*
X-1733293Y-15151799D01*
X-1709084Y-15158284D01*
X-1709081Y-15158287D01*
X-1709080Y-15158286D01*
X-1618718Y-15182499D01*
X-1618716Y-15182500D01*
X-1618715Y-15182500D01*
X1603139Y-15182500D01*
X1693499Y-15158287D01*
X1693502Y-15158287D01*
X1706733Y-15154741D01*
X1717717Y-15151799D01*
X1820444Y-15092489D01*
X2291631Y-14621301D01*
X2346146Y-14593526D01*
X2406578Y-14603097D01*
X2447369Y-14641806D01*
X2451408Y-14648802D01*
X2467495Y-14676665D01*
X2565335Y-14774505D01*
X2685164Y-14843688D01*
X2818817Y-14879500D01*
X2818819Y-14879500D01*
X2957181Y-14879500D01*
X2957183Y-14879500D01*
X3090836Y-14843688D01*
X3210665Y-14774505D01*
X3308505Y-14676665D01*
X3308506Y-14676662D01*
X3308589Y-14676580D01*
X3363106Y-14648802D01*
X3423538Y-14658373D01*
X3466802Y-14701638D01*
X3470057Y-14708698D01*
X3520429Y-14830309D01*
X3618923Y-14977715D01*
X3744284Y-15103076D01*
X3891691Y-15201570D01*
X4055473Y-15269411D01*
X4055484Y-15269414D01*
X4118000Y-15281848D01*
X4118000Y-14628265D01*
X4133795Y-14644060D01*
X4202204Y-14683556D01*
X4278504Y-14704000D01*
X4357496Y-14704000D01*
X4433796Y-14683556D01*
X4502205Y-14644060D01*
X4518000Y-14628265D01*
X4518000Y-15281847D01*
X4580515Y-15269414D01*
X4580526Y-15269411D01*
X4744308Y-15201570D01*
X4891715Y-15103076D01*
X5017076Y-14977715D01*
X5115570Y-14830308D01*
X5183413Y-14666521D01*
X5183413Y-14666519D01*
X5214842Y-14508515D01*
X6194000Y-14508515D01*
X6194000Y-15039999D01*
X6194001Y-15040000D01*
X7943998Y-15040000D01*
X7943999Y-15039999D01*
X7943999Y-14588999D01*
X7962906Y-14530808D01*
X8012406Y-14494844D01*
X8042999Y-14489999D01*
X8175483Y-14489999D01*
X8175485Y-14489998D01*
X8269141Y-14475166D01*
X8269151Y-14475163D01*
X8382043Y-14417641D01*
X8471641Y-14328043D01*
X8529163Y-14215151D01*
X8529164Y-14215147D01*
X8544000Y-14121484D01*
X8544000Y-13915001D01*
X8543999Y-13915000D01*
X6594002Y-13915000D01*
X6594001Y-13915001D01*
X6594001Y-14050459D01*
X6575094Y-14108650D01*
X6525594Y-14144614D01*
X6510488Y-14148240D01*
X6468857Y-14154833D01*
X6468848Y-14154836D01*
X6355956Y-14212358D01*
X6266358Y-14301956D01*
X6208836Y-14414848D01*
X6208835Y-14414852D01*
X6194000Y-14508515D01*
X5214842Y-14508515D01*
X5217999Y-14492644D01*
X5218000Y-14492641D01*
X5218000Y-14054001D01*
X5217999Y-14054000D01*
X4618000Y-14054000D01*
X4618000Y-13654000D01*
X5217999Y-13654000D01*
X5218000Y-13653999D01*
X5218000Y-13308515D01*
X6594000Y-13308515D01*
X6594000Y-13514999D01*
X6594001Y-13515000D01*
X7368999Y-13515000D01*
X7369000Y-13514999D01*
X7369000Y-12940001D01*
X7769000Y-12940001D01*
X7769000Y-13514999D01*
X7769001Y-13515000D01*
X8543998Y-13515000D01*
X8543999Y-13514999D01*
X8543999Y-13308516D01*
X8543998Y-13308515D01*
X9744000Y-13308515D01*
X9744000Y-13514999D01*
X9744001Y-13515000D01*
X10518999Y-13515000D01*
X10519000Y-13514999D01*
X10519000Y-12940001D01*
X10518999Y-12940000D01*
X10112517Y-12940000D01*
X10112514Y-12940001D01*
X10018858Y-12954833D01*
X10018848Y-12954836D01*
X9905956Y-13012358D01*
X9816358Y-13101956D01*
X9758836Y-13214848D01*
X9758835Y-13214852D01*
X9744000Y-13308515D01*
X8543998Y-13308515D01*
X8543998Y-13308514D01*
X8529166Y-13214858D01*
X8529163Y-13214848D01*
X8471641Y-13101956D01*
X8382043Y-13012358D01*
X8269151Y-12954836D01*
X8269147Y-12954835D01*
X8175484Y-12940000D01*
X7769001Y-12940000D01*
X7769000Y-12940001D01*
X7369000Y-12940001D01*
X7368999Y-12940000D01*
X6962517Y-12940000D01*
X6962514Y-12940001D01*
X6868858Y-12954833D01*
X6868848Y-12954836D01*
X6755956Y-13012358D01*
X6666358Y-13101956D01*
X6608836Y-13214848D01*
X6608835Y-13214852D01*
X6594000Y-13308515D01*
X5218000Y-13308515D01*
X5218000Y-13215358D01*
X5217999Y-13215355D01*
X5183413Y-13041480D01*
X5183413Y-13041478D01*
X5115570Y-12877691D01*
X5017076Y-12730284D01*
X4891715Y-12604923D01*
X4744308Y-12506429D01*
X4580520Y-12438586D01*
X4518000Y-12426149D01*
X4518000Y-13079735D01*
X4502205Y-13063940D01*
X4433796Y-13024444D01*
X4357496Y-13004000D01*
X4278504Y-13004000D01*
X4202204Y-13024444D01*
X4133795Y-13063940D01*
X4118000Y-13079735D01*
X4118000Y-12426149D01*
X4055480Y-12438586D01*
X4055478Y-12438586D01*
X3891689Y-12506429D01*
X3891687Y-12506430D01*
X3891563Y-12506514D01*
X3891497Y-12506532D01*
X3887401Y-12508722D01*
X3886920Y-12507822D01*
X3832673Y-12523116D01*
X3775272Y-12501933D01*
X3757686Y-12484012D01*
X3740567Y-12461438D01*
X3620094Y-12370079D01*
X3593370Y-12359540D01*
X3546174Y-12320602D01*
X3530878Y-12261360D01*
X3553325Y-12204441D01*
X3559662Y-12197466D01*
X4049634Y-11707496D01*
X4104150Y-11679719D01*
X4119637Y-11678500D01*
X5132271Y-11678500D01*
X5190462Y-11697407D01*
X5191059Y-11697845D01*
X5197204Y-11702380D01*
X5197205Y-11702380D01*
X5197206Y-11702381D01*
X5321121Y-11745741D01*
X5350543Y-11748500D01*
X5825456Y-11748499D01*
X5825457Y-11748499D01*
X5831340Y-11747947D01*
X5854879Y-11745741D01*
X5978794Y-11702381D01*
X5981344Y-11700499D01*
X5984941Y-11697845D01*
X6042989Y-11678503D01*
X6043729Y-11678500D01*
X6491890Y-11678500D01*
X6491892Y-11678500D01*
X6619186Y-11644392D01*
X6619188Y-11644390D01*
X6619190Y-11644390D01*
X6733309Y-11578503D01*
X6733309Y-11578502D01*
X6733314Y-11578500D01*
X7193317Y-11118495D01*
X7247834Y-11090718D01*
X7263321Y-11089499D01*
X7834861Y-11089499D01*
X7834864Y-11089499D01*
X7859991Y-11086585D01*
X7962765Y-11041206D01*
X8042206Y-10961765D01*
X8087585Y-10858991D01*
X8090500Y-10833865D01*
X8090499Y-9994136D01*
X8087585Y-9969009D01*
X8042206Y-9866235D01*
X7962765Y-9786794D01*
X7962763Y-9786793D01*
X7956278Y-9780308D01*
X7957866Y-9778719D01*
X7928228Y-9740215D01*
X7922500Y-9707028D01*
X7922500Y-8544478D01*
X7941407Y-8486287D01*
X7951490Y-8474480D01*
X7974206Y-8451765D01*
X8019585Y-8348991D01*
X8022500Y-8323865D01*
X8022499Y-7084136D01*
X8019585Y-7059009D01*
X7974206Y-6956235D01*
X7894765Y-6876794D01*
X7791991Y-6831415D01*
X7791990Y-6831414D01*
X7791988Y-6831414D01*
X7766868Y-6828500D01*
X7077139Y-6828500D01*
X7077136Y-6828501D01*
X7052009Y-6831414D01*
X6949235Y-6876794D01*
X6869794Y-6956235D01*
X6824414Y-7059011D01*
X6821501Y-7084121D01*
X6821500Y-7084132D01*
X6821500Y-8323860D01*
X6821501Y-8323863D01*
X6824414Y-8348990D01*
X6831685Y-8365456D01*
X6869794Y-8451765D01*
X6892505Y-8474476D01*
X6920281Y-8528991D01*
X6921500Y-8544478D01*
X6921500Y-9639500D01*
X6902593Y-9697691D01*
X6853093Y-9733655D01*
X6822500Y-9738500D01*
X6545140Y-9738500D01*
X6545135Y-9738501D01*
X6520009Y-9741414D01*
X6417233Y-9786795D01*
X6407573Y-9796455D01*
X6353056Y-9824231D01*
X6292624Y-9814657D01*
X6249361Y-9771391D01*
X6245475Y-9762770D01*
X6243721Y-9758324D01*
X6154861Y-9641144D01*
X6154855Y-9641138D01*
X6037676Y-9552279D01*
X5900858Y-9498325D01*
X5814886Y-9488000D01*
X5788001Y-9488000D01*
X5788000Y-9488001D01*
X5788000Y-10059000D01*
X5769093Y-10117191D01*
X5719593Y-10153155D01*
X5689000Y-10158000D01*
X5487000Y-10158000D01*
X5428809Y-10139093D01*
X5392845Y-10089593D01*
X5388000Y-10059000D01*
X5388000Y-9488001D01*
X5387999Y-9488000D01*
X5361113Y-9488000D01*
X5275141Y-9498325D01*
X5138323Y-9552279D01*
X5088153Y-9590323D01*
X5030361Y-9610417D01*
X4971796Y-9592705D01*
X4936237Y-9547756D01*
X4905120Y-9468850D01*
X4888034Y-9446318D01*
X4867939Y-9388527D01*
X4885650Y-9329961D01*
X4934403Y-9292991D01*
X4966912Y-9287499D01*
X5612864Y-9287499D01*
X5637991Y-9284585D01*
X5740765Y-9239206D01*
X5820206Y-9159765D01*
X5865585Y-9056991D01*
X5868500Y-9031865D01*
X5868499Y-7792136D01*
X5865585Y-7767009D01*
X5820206Y-7664235D01*
X5820204Y-7664233D01*
X5820205Y-7664233D01*
X5797495Y-7641523D01*
X5769719Y-7587006D01*
X5768500Y-7571521D01*
X5768500Y-7488108D01*
X5752076Y-7426813D01*
X5736668Y-7369310D01*
X5734017Y-7355620D01*
X5729066Y-7314845D01*
X5716237Y-7209182D01*
X5660220Y-7061477D01*
X5599320Y-6973248D01*
X5570484Y-6931471D01*
X5490489Y-6860602D01*
X5459470Y-6807862D01*
X5465376Y-6746962D01*
X5505949Y-6701164D01*
X5556138Y-6687499D01*
X5612861Y-6687499D01*
X5612864Y-6687499D01*
X5637991Y-6684585D01*
X5740765Y-6639206D01*
X5820206Y-6559765D01*
X5865585Y-6456991D01*
X5868500Y-6431865D01*
X5868499Y-5192136D01*
X5865585Y-5167009D01*
X5820206Y-5064235D01*
X5740765Y-4984794D01*
X5735570Y-4982500D01*
X5698736Y-4966236D01*
X5653141Y-4925435D01*
X5640236Y-4865626D01*
X5664950Y-4809655D01*
X5668696Y-4805695D01*
X5760896Y-4713494D01*
X5815413Y-4685718D01*
X5830899Y-4684499D01*
X6031457Y-4684499D01*
X6037340Y-4683947D01*
X6060879Y-4681741D01*
X6184794Y-4638381D01*
X6290423Y-4560423D01*
X6368381Y-4454794D01*
X6411741Y-4330879D01*
X6414500Y-4301457D01*
X6414499Y-3826544D01*
X6413853Y-3819653D01*
X6413018Y-3810737D01*
X6426413Y-3751036D01*
X6472342Y-3710611D01*
X6511586Y-3702500D01*
X7454099Y-3702500D01*
X7512290Y-3721407D01*
G37*
%TD.AperFunction*%
%TA.AperFunction,Conductor*%
G36*
X-4128519Y-11936857D02*
G01*
X-4128387Y-11935727D01*
X-4120992Y-11936584D01*
X-4120991Y-11936585D01*
X-4095865Y-11939500D01*
X-2956136Y-11939499D01*
X-2953278Y-11939499D01*
X-2953278Y-11940596D01*
X-2898039Y-11955072D01*
X-2859272Y-12002409D01*
X-2852500Y-12038396D01*
X-2852500Y-12211186D01*
X-2871407Y-12269377D01*
X-2920907Y-12305341D01*
X-2963304Y-12309480D01*
X-3002000Y-12304832D01*
X-3002000Y-12789766D01*
X-3002432Y-12799008D01*
X-3002500Y-12799733D01*
X-3002500Y-13758275D01*
X-3002468Y-13758963D01*
X-3002500Y-13759079D01*
X-3002500Y-13760581D01*
X-3002912Y-13760581D01*
X-3018649Y-13817970D01*
X-3066423Y-13856197D01*
X-3075734Y-13859193D01*
X-3094840Y-13864313D01*
X-3214663Y-13933493D01*
X-3214665Y-13933494D01*
X-3214665Y-13933495D01*
X-3232999Y-13951828D01*
X-3287513Y-13979604D01*
X-3347945Y-13970033D01*
X-3391210Y-13926768D01*
X-3402000Y-13881823D01*
X-3402000Y-13479001D01*
X-3402001Y-13479000D01*
X-3908000Y-13479000D01*
X-3966191Y-13460093D01*
X-4002155Y-13410593D01*
X-4007000Y-13380000D01*
X-4007000Y-13178000D01*
X-3988093Y-13119809D01*
X-3938593Y-13083845D01*
X-3908000Y-13079000D01*
X-3402001Y-13079000D01*
X-3402000Y-13078999D01*
X-3402000Y-12304833D01*
X-3483444Y-12314614D01*
X-3624096Y-12370080D01*
X-3744565Y-12461435D01*
X-3744572Y-12461442D01*
X-3761690Y-12484015D01*
X-3811917Y-12518956D01*
X-3873090Y-12517700D01*
X-3891344Y-12508613D01*
X-3891401Y-12508722D01*
X-3895139Y-12506724D01*
X-3895573Y-12506508D01*
X-3895692Y-12506429D01*
X-4059480Y-12438586D01*
X-4122000Y-12426149D01*
X-4122000Y-13079735D01*
X-4137795Y-13063940D01*
X-4206204Y-13024444D01*
X-4282504Y-13004000D01*
X-4361496Y-13004000D01*
X-4437796Y-13024444D01*
X-4506205Y-13063940D01*
X-4522000Y-13079735D01*
X-4522000Y-12426150D01*
X-4522723Y-12425557D01*
X-4555711Y-12374026D01*
X-4552110Y-12312946D01*
X-4529926Y-12279027D01*
X-4213856Y-11962957D01*
X-4159341Y-11935182D01*
X-4128519Y-11936857D01*
G37*
%TD.AperFunction*%
%TA.AperFunction,Conductor*%
G36*
X3157191Y-13097907D02*
G01*
X3193155Y-13147407D01*
X3198000Y-13178000D01*
X3198000Y-13278999D01*
X3198001Y-13279000D01*
X3299000Y-13279000D01*
X3357191Y-13297907D01*
X3393155Y-13347407D01*
X3398000Y-13378000D01*
X3398000Y-13881823D01*
X3379093Y-13940014D01*
X3329593Y-13975978D01*
X3268407Y-13975978D01*
X3228998Y-13951828D01*
X3210665Y-13933495D01*
X3210662Y-13933493D01*
X3090839Y-13864313D01*
X3090838Y-13864312D01*
X3071734Y-13859193D01*
X3020420Y-13825867D01*
X2998495Y-13768745D01*
X2998469Y-13758930D01*
X2998500Y-13758268D01*
X2998500Y-13178000D01*
X3017407Y-13119809D01*
X3066907Y-13083845D01*
X3097500Y-13079000D01*
X3099000Y-13079000D01*
X3157191Y-13097907D01*
G37*
%TD.AperFunction*%
%TA.AperFunction,Conductor*%
G36*
X2726692Y-6331407D02*
G01*
X2762656Y-6380907D01*
X2767501Y-6411500D01*
X2767501Y-6431863D01*
X2770414Y-6456990D01*
X2795756Y-6514385D01*
X2815794Y-6559765D01*
X2895235Y-6639206D01*
X2998009Y-6684585D01*
X3023135Y-6687500D01*
X3287679Y-6687499D01*
X3345868Y-6706406D01*
X3381832Y-6755906D01*
X3381833Y-6817091D01*
X3357682Y-6856502D01*
X3060686Y-7153499D01*
X2967500Y-7246685D01*
X2967496Y-7246690D01*
X2901609Y-7360809D01*
X2883649Y-7427837D01*
X2867975Y-7486338D01*
X2867500Y-7488109D01*
X2867500Y-7571521D01*
X2848593Y-7629712D01*
X2838505Y-7641523D01*
X2815795Y-7664233D01*
X2815794Y-7664234D01*
X2815794Y-7664235D01*
X2800307Y-7699309D01*
X2770414Y-7767011D01*
X2767500Y-7792130D01*
X2767500Y-9031860D01*
X2767501Y-9031863D01*
X2770414Y-9056990D01*
X2784441Y-9088757D01*
X2812361Y-9151991D01*
X2819500Y-9168157D01*
X2816779Y-9169358D01*
X2829500Y-9210429D01*
X2829500Y-9450075D01*
X2810593Y-9508266D01*
X2810157Y-9508861D01*
X2796148Y-9527842D01*
X2796146Y-9527846D01*
X2752291Y-9653176D01*
X2752289Y-9653185D01*
X2749500Y-9682923D01*
X2749500Y-10129076D01*
X2752289Y-10158814D01*
X2752291Y-10158823D01*
X2796148Y-10284158D01*
X2874997Y-10390995D01*
X2875004Y-10391002D01*
X2981841Y-10469851D01*
X2981842Y-10469851D01*
X2981843Y-10469852D01*
X3107181Y-10513710D01*
X3134619Y-10516282D01*
X3136923Y-10516499D01*
X3136928Y-10516500D01*
X3136934Y-10516500D01*
X3523072Y-10516500D01*
X3523075Y-10516499D01*
X3552819Y-10513710D01*
X3678157Y-10469852D01*
X3678165Y-10469846D01*
X3679822Y-10468971D01*
X3681519Y-10468675D01*
X3685160Y-10467402D01*
X3685371Y-10468006D01*
X3740103Y-10458490D01*
X3785912Y-10477610D01*
X3824664Y-10506997D01*
X3859606Y-10557223D01*
X3858352Y-10618396D01*
X3821381Y-10667148D01*
X3790468Y-10681506D01*
X3678130Y-10711607D01*
X3678126Y-10711609D01*
X3564006Y-10777496D01*
X3564000Y-10777500D01*
X3564001Y-10777501D01*
X2317504Y-12023998D01*
X2262987Y-12051775D01*
X2202555Y-12042204D01*
X2159290Y-11998939D01*
X2148500Y-11953994D01*
X2148500Y-11767336D01*
X2167407Y-11709145D01*
X2188712Y-11687681D01*
X2274419Y-11624426D01*
X2274419Y-11624425D01*
X2274423Y-11624423D01*
X2310898Y-11575002D01*
X2352380Y-11518795D01*
X2352379Y-11518795D01*
X2352381Y-11518794D01*
X2395741Y-11394879D01*
X2398500Y-11365457D01*
X2398499Y-10990544D01*
X2398033Y-10985577D01*
X2395964Y-10963500D01*
X2395741Y-10961121D01*
X2352381Y-10837206D01*
X2352077Y-10836794D01*
X2330840Y-10808018D01*
X2311498Y-10749970D01*
X2329969Y-10691640D01*
X2340491Y-10679226D01*
X2344861Y-10674855D01*
X2433720Y-10557676D01*
X2487674Y-10420858D01*
X2495224Y-10358000D01*
X1877000Y-10358000D01*
X1818809Y-10339093D01*
X1782845Y-10289593D01*
X1778000Y-10259000D01*
X1778000Y-10158001D01*
X1777999Y-10158000D01*
X1677000Y-10158000D01*
X1618809Y-10139093D01*
X1582845Y-10089593D01*
X1578000Y-10059000D01*
X1578000Y-9488001D01*
X1978000Y-9488001D01*
X1978000Y-9957999D01*
X1978001Y-9958000D01*
X2495223Y-9958000D01*
X2487674Y-9895141D01*
X2433720Y-9758323D01*
X2344861Y-9641144D01*
X2344855Y-9641138D01*
X2227676Y-9552279D01*
X2090858Y-9498325D01*
X2004886Y-9488000D01*
X1978001Y-9488000D01*
X1978000Y-9488001D01*
X1578000Y-9488001D01*
X1577999Y-9488000D01*
X1551113Y-9488000D01*
X1465141Y-9498325D01*
X1328322Y-9552279D01*
X1209319Y-9642522D01*
X1151528Y-9662617D01*
X1092962Y-9644906D01*
X1055992Y-9596153D01*
X1050500Y-9563638D01*
X1050500Y-7902363D01*
X1069407Y-7844172D01*
X1118907Y-7808208D01*
X1180093Y-7808208D01*
X1219504Y-7832359D01*
X1222575Y-7835430D01*
X1340851Y-7925121D01*
X1478943Y-7979578D01*
X1565721Y-7989998D01*
X1578000Y-7989998D01*
X1578000Y-7510001D01*
X1978000Y-7510001D01*
X1978000Y-7989998D01*
X1978001Y-7989999D01*
X1990273Y-7989999D01*
X1990282Y-7989998D01*
X2077054Y-7979578D01*
X2077060Y-7979577D01*
X2215148Y-7925121D01*
X2333424Y-7835430D01*
X2333430Y-7835424D01*
X2423121Y-7717148D01*
X2477578Y-7579057D01*
X2485872Y-7510000D01*
X1978001Y-7510000D01*
X1978000Y-7510001D01*
X1578000Y-7510001D01*
X1578000Y-7409000D01*
X1596907Y-7350809D01*
X1646407Y-7314845D01*
X1677000Y-7310000D01*
X1777999Y-7310000D01*
X1778000Y-7309999D01*
X1778000Y-7209000D01*
X1796907Y-7150809D01*
X1846407Y-7114845D01*
X1877000Y-7110000D01*
X2485870Y-7110000D01*
X2477578Y-7040945D01*
X2477577Y-7040939D01*
X2423122Y-6902853D01*
X2349609Y-6805912D01*
X2329514Y-6748120D01*
X2339681Y-6705257D01*
X2339402Y-6705160D01*
X2340341Y-6702473D01*
X2340971Y-6699822D01*
X2341846Y-6698165D01*
X2341852Y-6698157D01*
X2385710Y-6572819D01*
X2386696Y-6562311D01*
X2388499Y-6543076D01*
X2388500Y-6543071D01*
X2388500Y-6488322D01*
X2407407Y-6430131D01*
X2417496Y-6418318D01*
X2494318Y-6341496D01*
X2548835Y-6313719D01*
X2564322Y-6312500D01*
X2668501Y-6312500D01*
X2726692Y-6331407D01*
G37*
%TD.AperFunction*%
%TA.AperFunction,Conductor*%
G36*
X-1232052Y-1188526D02*
G01*
X-1231157Y-1186500D01*
X-1222767Y-1190204D01*
X-1222765Y-1190206D01*
X-1119991Y-1235585D01*
X-1094865Y-1238500D01*
X-605136Y-1238499D01*
X-580009Y-1235585D01*
X-514450Y-1206637D01*
X-453583Y-1200429D01*
X-400689Y-1231184D01*
X-378837Y-1271577D01*
X-375240Y-1285000D01*
X-373206Y-1292593D01*
X-320481Y-1383914D01*
X-229497Y-1474896D01*
X-201719Y-1529412D01*
X-200500Y-1544900D01*
X-200500Y-9450915D01*
X-219407Y-9509106D01*
X-268907Y-9545070D01*
X-330093Y-9545070D01*
X-335818Y-9543013D01*
X-449140Y-9498325D01*
X-535114Y-9488000D01*
X-561999Y-9488000D01*
X-562000Y-9488001D01*
X-562000Y-10059000D01*
X-580907Y-10117191D01*
X-630407Y-10153155D01*
X-661000Y-10158000D01*
X-761999Y-10158000D01*
X-762000Y-10158001D01*
X-762000Y-10259000D01*
X-780907Y-10317191D01*
X-830407Y-10353155D01*
X-861000Y-10358000D01*
X-1242987Y-10358000D01*
X-1244520Y-10358781D01*
X-1260007Y-10360000D01*
X-2739871Y-10360000D01*
X-2731579Y-10429054D01*
X-2731578Y-10429060D01*
X-2677122Y-10567148D01*
X-2653687Y-10598052D01*
X-2633592Y-10655843D01*
X-2651303Y-10714409D01*
X-2683070Y-10743607D01*
X-2745265Y-10779516D01*
X-2762463Y-10796713D01*
X-2816980Y-10824488D01*
X-2872450Y-10817271D01*
X-2901587Y-10804406D01*
X-2931009Y-10791415D01*
X-2931011Y-10791414D01*
X-2931012Y-10791414D01*
X-2956131Y-10788500D01*
X-2956135Y-10788500D01*
X-3620893Y-10788500D01*
X-3679084Y-10769593D01*
X-3715048Y-10720093D01*
X-3715048Y-10658907D01*
X-3713459Y-10654394D01*
X-3698140Y-10614000D01*
X-3681763Y-10570818D01*
X-3662722Y-10414000D01*
X-3669522Y-10358000D01*
X-3681763Y-10257183D01*
X-3681763Y-10257182D01*
X-3713461Y-10173603D01*
X-3716416Y-10112491D01*
X-3682885Y-10061311D01*
X-3625676Y-10039615D01*
X-3620893Y-10039499D01*
X-2956139Y-10039499D01*
X-2956136Y-10039499D01*
X-2931009Y-10036585D01*
X-2828235Y-9991206D01*
X-2826024Y-9988994D01*
X-2822057Y-9986973D01*
X-2820666Y-9986021D01*
X-2820543Y-9986201D01*
X-2771509Y-9961219D01*
X-2756022Y-9960000D01*
X-2232001Y-9960000D01*
X-2232000Y-9959999D01*
X-2232000Y-9480001D01*
X-1832000Y-9480001D01*
X-1832000Y-9959999D01*
X-1831999Y-9960000D01*
X-1561013Y-9960000D01*
X-1559480Y-9959219D01*
X-1543993Y-9958000D01*
X-962001Y-9958000D01*
X-962000Y-9957999D01*
X-962000Y-9488001D01*
X-962001Y-9488000D01*
X-988887Y-9488000D01*
X-1074859Y-9498325D01*
X-1211677Y-9552279D01*
X-1328863Y-9641143D01*
X-1329757Y-9642038D01*
X-1330625Y-9642479D01*
X-1334255Y-9645233D01*
X-1334750Y-9644581D01*
X-1384276Y-9669811D01*
X-1444707Y-9660234D01*
X-1470817Y-9638393D01*
X-1471784Y-9639361D01*
X-1476576Y-9634569D01*
X-1594852Y-9544878D01*
X-1732944Y-9490421D01*
X-1819719Y-9480000D01*
X-1831999Y-9480000D01*
X-1832000Y-9480001D01*
X-2232000Y-9480001D01*
X-2232000Y-9480000D01*
X-2232001Y-9479999D01*
X-2244271Y-9480000D01*
X-2331054Y-9490421D01*
X-2331061Y-9490422D01*
X-2469149Y-9544878D01*
X-2541682Y-9599881D01*
X-2599474Y-9619976D01*
X-2658039Y-9602264D01*
X-2695009Y-9553511D01*
X-2700501Y-9521000D01*
X-2700501Y-9144136D01*
X-2703415Y-9119009D01*
X-2748794Y-9016235D01*
X-2828235Y-8936794D01*
X-2828237Y-8936793D01*
X-2828239Y-8936791D01*
X-2835453Y-8931849D01*
X-2872772Y-8883363D01*
X-2878500Y-8850177D01*
X-2878500Y-8835302D01*
X-2859593Y-8777111D01*
X-2810093Y-8741147D01*
X-2748907Y-8741147D01*
X-2719680Y-8756418D01*
X-2683674Y-8783722D01*
X-2546859Y-8837674D01*
X-2484000Y-8845222D01*
X-2484000Y-8328001D01*
X-2084000Y-8328001D01*
X-2084000Y-8845222D01*
X-2021142Y-8837674D01*
X-1884325Y-8783721D01*
X-1767145Y-8694861D01*
X-1767139Y-8694855D01*
X-1678280Y-8577676D01*
X-1624326Y-8440858D01*
X-1614001Y-8354886D01*
X-1614000Y-8354882D01*
X-1614000Y-8328001D01*
X-1614001Y-8328000D01*
X-2083999Y-8328000D01*
X-2084000Y-8328001D01*
X-2484000Y-8328001D01*
X-2484000Y-7927999D01*
X-2084000Y-7927999D01*
X-2083999Y-7928000D01*
X-1614001Y-7928000D01*
X-1614000Y-7927999D01*
X-1614000Y-7901117D01*
X-1614001Y-7901113D01*
X-1624326Y-7815141D01*
X-1678280Y-7678323D01*
X-1767139Y-7561144D01*
X-1767145Y-7561138D01*
X-1884324Y-7472279D01*
X-2021142Y-7418325D01*
X-2084000Y-7410776D01*
X-2084000Y-7927999D01*
X-2484000Y-7927999D01*
X-2484000Y-7410776D01*
X-2546859Y-7418325D01*
X-2683677Y-7472279D01*
X-2800862Y-7561142D01*
X-2805231Y-7565512D01*
X-2859749Y-7593287D01*
X-2920181Y-7583712D01*
X-2934020Y-7575159D01*
X-2963205Y-7553619D01*
X-3087117Y-7510260D01*
X-3087126Y-7510258D01*
X-3116535Y-7507500D01*
X-3491458Y-7507500D01*
X-3520876Y-7510258D01*
X-3520880Y-7510259D01*
X-3556098Y-7522582D01*
X-3617268Y-7523954D01*
X-3667562Y-7489109D01*
X-3681361Y-7464243D01*
X-3687142Y-7449000D01*
X-3737780Y-7315477D01*
X-3785263Y-7246686D01*
X-3827516Y-7185471D01*
X-3835979Y-7177973D01*
X-3945760Y-7080717D01*
X-4026138Y-7038531D01*
X-4085636Y-7007303D01*
X-4239013Y-6969500D01*
X-4239015Y-6969500D01*
X-4396985Y-6969500D01*
X-4495891Y-6993877D01*
X-4514037Y-6998350D01*
X-4575061Y-6993917D01*
X-4621826Y-6954461D01*
X-4629825Y-6938545D01*
X-4653638Y-6878160D01*
X-4653639Y-6878159D01*
X-4653639Y-6878158D01*
X-4745078Y-6757578D01*
X-4865658Y-6666139D01*
X-4865659Y-6666138D01*
X-4865661Y-6666137D01*
X-5006435Y-6610623D01*
X-5094894Y-6600000D01*
X-5094898Y-6600000D01*
X-6081102Y-6600000D01*
X-6081107Y-6600000D01*
X-6169566Y-6610623D01*
X-6310340Y-6666137D01*
X-6310344Y-6666140D01*
X-6430919Y-6757575D01*
X-6430925Y-6757581D01*
X-6522360Y-6878156D01*
X-6522363Y-6878160D01*
X-6550621Y-6949819D01*
X-6589558Y-6997016D01*
X-6642718Y-7012500D01*
X-6868273Y-7012500D01*
X-6973727Y-7012500D01*
X-7036071Y-7029204D01*
X-7075593Y-7039794D01*
X-7166909Y-7092516D01*
X-7166914Y-7092520D01*
X-7475547Y-7401152D01*
X-7530063Y-7428929D01*
X-7585537Y-7421713D01*
X-7670009Y-7384415D01*
X-7670010Y-7384414D01*
X-7670012Y-7384414D01*
X-7695131Y-7381500D01*
X-7695135Y-7381500D01*
X-7890500Y-7381500D01*
X-7948691Y-7362593D01*
X-7984655Y-7313093D01*
X-7989500Y-7282500D01*
X-7989500Y-7164714D01*
X-7989499Y-7164701D01*
X-7989499Y-7051275D01*
X-7989499Y-7051273D01*
X-8009904Y-6975122D01*
X-8006702Y-6914022D01*
X-7968197Y-6866472D01*
X-7914277Y-6850500D01*
X-7438739Y-6850500D01*
X-7438737Y-6850500D01*
X-7311443Y-6816392D01*
X-7311441Y-6816390D01*
X-7311439Y-6816390D01*
X-7197320Y-6750503D01*
X-7197320Y-6750502D01*
X-7197315Y-6750500D01*
X-6623041Y-6176224D01*
X-6568526Y-6148449D01*
X-6508094Y-6158020D01*
X-6474157Y-6186408D01*
X-6430922Y-6243422D01*
X-6310342Y-6334861D01*
X-6310341Y-6334861D01*
X-6310340Y-6334862D01*
X-6239953Y-6362619D01*
X-6169564Y-6390377D01*
X-6081102Y-6401000D01*
X-6081100Y-6401000D01*
X-5094900Y-6401000D01*
X-5094898Y-6401000D01*
X-5006436Y-6390377D01*
X-4865658Y-6334861D01*
X-4745078Y-6243422D01*
X-4653639Y-6122842D01*
X-4598123Y-5982064D01*
X-4587500Y-5893602D01*
X-4587500Y-5282398D01*
X-4598123Y-5193936D01*
X-4640096Y-5087500D01*
X-4653638Y-5053160D01*
X-4653639Y-5053159D01*
X-4653639Y-5053158D01*
X-4745078Y-4932578D01*
X-4865658Y-4841139D01*
X-4865659Y-4841138D01*
X-4865661Y-4841137D01*
X-5006435Y-4785623D01*
X-5094894Y-4775000D01*
X-5094898Y-4775000D01*
X-5950361Y-4775000D01*
X-6008552Y-4756093D01*
X-6044516Y-4706593D01*
X-6044516Y-4645407D01*
X-6020367Y-4605998D01*
X-4074000Y-2659630D01*
X-4019485Y-2631855D01*
X-4016953Y-2631487D01*
X-3907238Y-2617044D01*
X-3761159Y-2556536D01*
X-3635718Y-2460282D01*
X-3539464Y-2334841D01*
X-3478956Y-2188762D01*
X-3458318Y-2032000D01*
X-3478956Y-1875238D01*
X-3489790Y-1849082D01*
X-3539463Y-1729161D01*
X-3539463Y-1729160D01*
X-3635714Y-1603723D01*
X-3635715Y-1603722D01*
X-3635718Y-1603718D01*
X-3635723Y-1603714D01*
X-3635724Y-1603713D01*
X-3732556Y-1529412D01*
X-3761159Y-1507464D01*
X-3761160Y-1507463D01*
X-3761162Y-1507462D01*
X-3907234Y-1446957D01*
X-3907241Y-1446955D01*
X-4002112Y-1434465D01*
X-4057337Y-1408124D01*
X-4068208Y-1388101D01*
X-4089633Y-1417592D01*
X-4134901Y-1435652D01*
X-4220760Y-1446955D01*
X-4220767Y-1446957D01*
X-4366839Y-1507462D01*
X-4366840Y-1507462D01*
X-4492277Y-1603713D01*
X-4492287Y-1603723D01*
X-4588538Y-1729160D01*
X-4588538Y-1729161D01*
X-4649043Y-1875233D01*
X-4649045Y-1875241D01*
X-4669682Y-2031999D01*
X-4669682Y-2032004D01*
X-4665524Y-2063594D01*
X-4676675Y-2123754D01*
X-4693673Y-2146517D01*
X-5106699Y-2559543D01*
X-5161216Y-2587320D01*
X-5221648Y-2577749D01*
X-5255245Y-2549806D01*
X-5339714Y-2439723D01*
X-5339715Y-2439722D01*
X-5339718Y-2439718D01*
X-5339723Y-2439714D01*
X-5339724Y-2439713D01*
X-5415823Y-2381321D01*
X-5465159Y-2343464D01*
X-5465160Y-2343463D01*
X-5465162Y-2343462D01*
X-5611234Y-2282957D01*
X-5611242Y-2282955D01*
X-5767999Y-2262318D01*
X-5768001Y-2262318D01*
X-5905322Y-2280396D01*
X-5965483Y-2269246D01*
X-6007600Y-2224863D01*
X-6016397Y-2169321D01*
X-6013394Y-2146517D01*
X-5998971Y-2036962D01*
X-5997471Y-2025567D01*
X-5995745Y-2025794D01*
X-5979411Y-1975525D01*
X-5969328Y-1963719D01*
X-5704090Y-1698481D01*
X-5704087Y-1698480D01*
X-5629520Y-1623913D01*
X-5576793Y-1532587D01*
X-5573618Y-1520738D01*
X-5549499Y-1430727D01*
X-5549499Y-1325273D01*
X-5549499Y-1319211D01*
X-5549500Y-1319193D01*
X-5549500Y-1308257D01*
X-5530593Y-1250066D01*
X-5481093Y-1214102D01*
X-5419907Y-1214102D01*
X-5410524Y-1217688D01*
X-5369991Y-1235585D01*
X-5344865Y-1238500D01*
X-4855136Y-1238499D01*
X-4830009Y-1235585D01*
X-4727235Y-1190206D01*
X-4727234Y-1190204D01*
X-4718843Y-1186500D01*
X-4717795Y-1188875D01*
X-4672261Y-1175462D01*
X-4632052Y-1188526D01*
X-4631157Y-1186500D01*
X-4622767Y-1190204D01*
X-4622765Y-1190206D01*
X-4519991Y-1235585D01*
X-4494865Y-1238500D01*
X-4147824Y-1238499D01*
X-4089633Y-1257406D01*
X-4069894Y-1284574D01*
X-4036427Y-1249309D01*
X-4000593Y-1237972D01*
X-3980009Y-1235585D01*
X-3877235Y-1190206D01*
X-3877234Y-1190204D01*
X-3868843Y-1186500D01*
X-3867795Y-1188875D01*
X-3822261Y-1175462D01*
X-3782052Y-1188526D01*
X-3781157Y-1186500D01*
X-3772767Y-1190204D01*
X-3772765Y-1190206D01*
X-3669991Y-1235585D01*
X-3644865Y-1238500D01*
X-3155136Y-1238499D01*
X-3130009Y-1235585D01*
X-3027235Y-1190206D01*
X-3027234Y-1190204D01*
X-3018843Y-1186500D01*
X-3017795Y-1188875D01*
X-2972261Y-1175462D01*
X-2932052Y-1188526D01*
X-2931157Y-1186500D01*
X-2922767Y-1190204D01*
X-2922765Y-1190206D01*
X-2819991Y-1235585D01*
X-2794865Y-1238500D01*
X-2305136Y-1238499D01*
X-2280009Y-1235585D01*
X-2177235Y-1190206D01*
X-2177234Y-1190204D01*
X-2168843Y-1186500D01*
X-2167795Y-1188875D01*
X-2122261Y-1175462D01*
X-2082052Y-1188526D01*
X-2081157Y-1186500D01*
X-2072767Y-1190204D01*
X-2072765Y-1190206D01*
X-1969991Y-1235585D01*
X-1944865Y-1238500D01*
X-1455136Y-1238499D01*
X-1430009Y-1235585D01*
X-1327235Y-1190206D01*
X-1327234Y-1190204D01*
X-1318843Y-1186500D01*
X-1317795Y-1188875D01*
X-1272261Y-1175462D01*
X-1232052Y-1188526D01*
G37*
%TD.AperFunction*%
%TA.AperFunction,Conductor*%
G36*
X-6584527Y-7832407D02*
G01*
X-6550621Y-7876181D01*
X-6522363Y-7947839D01*
X-6522362Y-7947841D01*
X-6522361Y-7947842D01*
X-6430922Y-8068422D01*
X-6310342Y-8159861D01*
X-6310341Y-8159861D01*
X-6310340Y-8159862D01*
X-6239953Y-8187619D01*
X-6169564Y-8215377D01*
X-6081102Y-8226000D01*
X-6081100Y-8226000D01*
X-5094900Y-8226000D01*
X-5094898Y-8226000D01*
X-5006436Y-8215377D01*
X-4865658Y-8159861D01*
X-4840278Y-8140615D01*
X-4782487Y-8120521D01*
X-4780460Y-8120500D01*
X-4771563Y-8120500D01*
X-4713372Y-8139407D01*
X-4705913Y-8145398D01*
X-4690240Y-8159283D01*
X-4550365Y-8232696D01*
X-4396985Y-8270500D01*
X-4396982Y-8270500D01*
X-4239018Y-8270500D01*
X-4239015Y-8270500D01*
X-4085635Y-8232696D01*
X-4019507Y-8197988D01*
X-3959197Y-8187687D01*
X-3904349Y-8214802D01*
X-3875913Y-8268979D01*
X-3874500Y-8285647D01*
X-3874500Y-8365457D01*
X-3871742Y-8394875D01*
X-3871741Y-8394880D01*
X-3828382Y-8518793D01*
X-3823933Y-8524821D01*
X-3750423Y-8624423D01*
X-3750422Y-8624424D01*
X-3748845Y-8626560D01*
X-3729503Y-8684608D01*
X-3729500Y-8685349D01*
X-3729500Y-8789500D01*
X-3748407Y-8847691D01*
X-3797907Y-8883655D01*
X-3828500Y-8888500D01*
X-4095860Y-8888500D01*
X-4095865Y-8888501D01*
X-4120991Y-8891414D01*
X-4223765Y-8936794D01*
X-4303206Y-9016235D01*
X-4348586Y-9119011D01*
X-4351500Y-9144130D01*
X-4351500Y-9674727D01*
X-4370407Y-9732918D01*
X-4419907Y-9768882D01*
X-4426808Y-9770850D01*
X-4550364Y-9801303D01*
X-4690242Y-9874718D01*
X-4808485Y-9979471D01*
X-4898220Y-10109476D01*
X-4954237Y-10257182D01*
X-4954237Y-10257183D01*
X-4961900Y-10320288D01*
X-4987684Y-10375775D01*
X-4990174Y-10378357D01*
X-5196819Y-10585003D01*
X-5251336Y-10612781D01*
X-5266823Y-10614000D01*
X-6027000Y-10614000D01*
X-6085191Y-10595093D01*
X-6121155Y-10545593D01*
X-6126000Y-10515000D01*
X-6126000Y-10313000D01*
X-6107093Y-10254809D01*
X-6057593Y-10218845D01*
X-6027000Y-10214000D01*
X-5201002Y-10214000D01*
X-5201001Y-10213999D01*
X-5201001Y-10107516D01*
X-5201002Y-10107514D01*
X-5215834Y-10013858D01*
X-5215837Y-10013848D01*
X-5273359Y-9900956D01*
X-5276061Y-9898254D01*
X-5277797Y-9894846D01*
X-5277940Y-9894650D01*
X-5277909Y-9894627D01*
X-5303838Y-9843737D01*
X-5302344Y-9816610D01*
X-5304273Y-9816387D01*
X-5300840Y-9786794D01*
X-5300500Y-9783865D01*
X-5300501Y-9144136D01*
X-5303415Y-9119009D01*
X-5348794Y-9016235D01*
X-5428235Y-8936794D01*
X-5531009Y-8891415D01*
X-5531010Y-8891414D01*
X-5531012Y-8891414D01*
X-5556132Y-8888500D01*
X-6695861Y-8888500D01*
X-6695864Y-8888501D01*
X-6720991Y-8891414D01*
X-6812246Y-8931708D01*
X-6818569Y-8934500D01*
X-6823767Y-8936795D01*
X-6903209Y-9016236D01*
X-6906094Y-9020449D01*
X-6954578Y-9057771D01*
X-6987768Y-9063500D01*
X-7340500Y-9063500D01*
X-7398691Y-9044593D01*
X-7434655Y-8995093D01*
X-7439500Y-8964500D01*
X-7439501Y-8538900D01*
X-7420594Y-8480709D01*
X-7410504Y-8468896D01*
X-6784102Y-7842496D01*
X-6729586Y-7814719D01*
X-6714099Y-7813500D01*
X-6642718Y-7813500D01*
X-6584527Y-7832407D01*
G37*
%TD.AperFunction*%
%TA.AperFunction,Conductor*%
G36*
X-13475667Y-6786788D02*
G01*
X-13428117Y-6825293D01*
X-13412282Y-6884394D01*
X-13419678Y-6917088D01*
X-13420390Y-6918805D01*
X-13434979Y-6973255D01*
X-13453116Y-7040945D01*
X-13454500Y-7046109D01*
X-13454500Y-9403678D01*
X-13473407Y-9461869D01*
X-13483496Y-9473682D01*
X-14148318Y-10138504D01*
X-14202835Y-10166281D01*
X-14218322Y-10167500D01*
X-14529740Y-10167500D01*
X-14587931Y-10148593D01*
X-14623895Y-10099093D01*
X-14623895Y-10037907D01*
X-14587931Y-9988407D01*
X-14586524Y-9987404D01*
X-14413451Y-9866216D01*
X-14258784Y-9711549D01*
X-14133333Y-9532386D01*
X-14040898Y-9334157D01*
X-13984287Y-9122881D01*
X-13982723Y-9105000D01*
X-14758120Y-9105000D01*
X-14754075Y-9097993D01*
X-14720000Y-8970826D01*
X-14720000Y-8839174D01*
X-14754075Y-8712007D01*
X-14758120Y-8705000D01*
X-13982723Y-8705000D01*
X-13982723Y-8704999D01*
X-13984287Y-8687118D01*
X-14040898Y-8475842D01*
X-14133333Y-8277614D01*
X-14258784Y-8098450D01*
X-14413451Y-7943783D01*
X-14592614Y-7818332D01*
X-14790844Y-7725897D01*
X-14964824Y-7679279D01*
X-15016138Y-7645955D01*
X-15038065Y-7588833D01*
X-15022229Y-7529733D01*
X-14974679Y-7491228D01*
X-14957408Y-7486341D01*
X-14903802Y-7476321D01*
X-14704981Y-7399298D01*
X-14523698Y-7287052D01*
X-14366128Y-7143407D01*
X-14237634Y-6973255D01*
X-14186405Y-6870371D01*
X-14143543Y-6826710D01*
X-14097784Y-6815500D01*
X-13655874Y-6815500D01*
X-13565514Y-6791287D01*
X-13565513Y-6791287D01*
X-13560530Y-6789951D01*
X-13541296Y-6784799D01*
X-13541294Y-6784797D01*
X-13536768Y-6783585D01*
X-13475667Y-6786788D01*
G37*
%TD.AperFunction*%
%TA.AperFunction,Conductor*%
G36*
X-9070412Y-6869407D02*
G01*
X-9034448Y-6918907D01*
X-9032982Y-6923857D01*
X-9014210Y-6993917D01*
X-9009206Y-7012592D01*
X-8956481Y-7103913D01*
X-8847897Y-7212496D01*
X-8820119Y-7267013D01*
X-8829690Y-7327445D01*
X-8872955Y-7370709D01*
X-8917900Y-7381500D01*
X-8933807Y-7381500D01*
X-8991998Y-7362593D01*
X-8999837Y-7355898D01*
X-9001956Y-7354359D01*
X-9114849Y-7296836D01*
X-9114853Y-7296835D01*
X-9208516Y-7282000D01*
X-9239999Y-7282000D01*
X-9240000Y-7282001D01*
X-9240000Y-7416021D01*
X-9258907Y-7474212D01*
X-9268995Y-7486023D01*
X-9292206Y-7509233D01*
X-9292207Y-7509235D01*
X-9299436Y-7525609D01*
X-9340237Y-7571204D01*
X-9400046Y-7584109D01*
X-9456017Y-7559395D01*
X-9480564Y-7525609D01*
X-9487794Y-7509235D01*
X-9487795Y-7509233D01*
X-9511005Y-7486023D01*
X-9538781Y-7431506D01*
X-9540000Y-7416021D01*
X-9540000Y-7282000D01*
X-9571483Y-7282000D01*
X-9571488Y-7282001D01*
X-9665142Y-7296833D01*
X-9665150Y-7296835D01*
X-9778045Y-7354358D01*
X-9784346Y-7358937D01*
X-9785553Y-7357276D01*
X-9830720Y-7380283D01*
X-9846194Y-7381500D01*
X-10084860Y-7381500D01*
X-10084865Y-7381501D01*
X-10109991Y-7384414D01*
X-10212765Y-7429794D01*
X-10292206Y-7509235D01*
X-10337586Y-7612011D01*
X-10340500Y-7637130D01*
X-10340500Y-7882500D01*
X-10359407Y-7940691D01*
X-10408907Y-7976655D01*
X-10439500Y-7981500D01*
X-10722323Y-7981500D01*
X-10780514Y-7962593D01*
X-10816478Y-7913093D01*
X-10816478Y-7851907D01*
X-10801207Y-7822680D01*
X-10784878Y-7801146D01*
X-10730422Y-7663057D01*
X-10722128Y-7594000D01*
X-12137871Y-7594000D01*
X-12129579Y-7663054D01*
X-12129578Y-7663060D01*
X-12075122Y-7801148D01*
X-12001610Y-7898088D01*
X-11981515Y-7955879D01*
X-11991679Y-7998744D01*
X-11991402Y-7998841D01*
X-11992332Y-8001498D01*
X-11992963Y-8004160D01*
X-11993852Y-8005841D01*
X-12037709Y-8131176D01*
X-12037711Y-8131185D01*
X-12040500Y-8160923D01*
X-12040500Y-8547076D01*
X-12037711Y-8576814D01*
X-12037709Y-8576823D01*
X-11993852Y-8702158D01*
X-11915003Y-8808995D01*
X-11914996Y-8809002D01*
X-11808159Y-8887851D01*
X-11808158Y-8887851D01*
X-11808157Y-8887852D01*
X-11682819Y-8931710D01*
X-11655381Y-8934282D01*
X-11653077Y-8934499D01*
X-11653072Y-8934500D01*
X-11653066Y-8934500D01*
X-11206928Y-8934500D01*
X-11206925Y-8934499D01*
X-11177181Y-8931710D01*
X-11051843Y-8887852D01*
X-11029511Y-8871369D01*
X-10939031Y-8804594D01*
X-10937643Y-8806474D01*
X-10892981Y-8783719D01*
X-10877494Y-8782500D01*
X-10439499Y-8782500D01*
X-10381308Y-8801407D01*
X-10345344Y-8850907D01*
X-10340499Y-8881500D01*
X-10340499Y-9126863D01*
X-10337586Y-9151990D01*
X-10327301Y-9175283D01*
X-10298935Y-9239526D01*
X-10290500Y-9279512D01*
X-10290500Y-9345273D01*
X-10290500Y-9450727D01*
X-10269837Y-9527843D01*
X-10263206Y-9552592D01*
X-10210484Y-9643908D01*
X-10210482Y-9643910D01*
X-10210480Y-9643913D01*
X-10101913Y-9752480D01*
X-10101911Y-9752481D01*
X-10101909Y-9752483D01*
X-10029136Y-9794499D01*
X-9988195Y-9839968D01*
X-9981799Y-9900819D01*
X-10008632Y-9950239D01*
X-10027770Y-9969377D01*
X-10082287Y-9997154D01*
X-10142719Y-9987583D01*
X-10167781Y-9969373D01*
X-10171580Y-9965574D01*
X-10277205Y-9887619D01*
X-10401117Y-9844260D01*
X-10401126Y-9844258D01*
X-10430535Y-9841500D01*
X-10905458Y-9841500D01*
X-10934876Y-9844258D01*
X-10934881Y-9844259D01*
X-11058796Y-9887619D01*
X-11164419Y-9965572D01*
X-11164425Y-9965578D01*
X-11191115Y-10001742D01*
X-11240883Y-10037334D01*
X-11302067Y-10036876D01*
X-11351296Y-10000542D01*
X-11362234Y-9980839D01*
X-11385654Y-9924298D01*
X-11413464Y-9857159D01*
X-11509718Y-9731718D01*
X-11509723Y-9731714D01*
X-11509724Y-9731713D01*
X-11595503Y-9665893D01*
X-11635159Y-9635464D01*
X-11635160Y-9635463D01*
X-11635162Y-9635462D01*
X-11781234Y-9574957D01*
X-11781242Y-9574955D01*
X-11937999Y-9554318D01*
X-11938001Y-9554318D01*
X-12094759Y-9574955D01*
X-12094767Y-9574957D01*
X-12240839Y-9635462D01*
X-12240840Y-9635462D01*
X-12294233Y-9676433D01*
X-12351909Y-9696857D01*
X-12410574Y-9679479D01*
X-12447822Y-9630938D01*
X-12453500Y-9597891D01*
X-12453500Y-7360322D01*
X-12434593Y-7302131D01*
X-12424504Y-7290319D01*
X-12301653Y-7167467D01*
X-12247136Y-7139689D01*
X-12186704Y-7149260D01*
X-12157589Y-7171773D01*
X-12137872Y-7194000D01*
X-10722130Y-7194000D01*
X-10730422Y-7124946D01*
X-10785286Y-6985819D01*
X-10789044Y-6924749D01*
X-10756189Y-6873133D01*
X-10699269Y-6850687D01*
X-10693188Y-6850500D01*
X-9128603Y-6850500D01*
X-9070412Y-6869407D01*
G37*
%TD.AperFunction*%
%TA.AperFunction,Conductor*%
G36*
X4477191Y-8430907D02*
G01*
X4513155Y-8480407D01*
X4518000Y-8511000D01*
X4518000Y-9422993D01*
X4499093Y-9481184D01*
X4490000Y-9491830D01*
X4490000Y-9807000D01*
X4471093Y-9865191D01*
X4421593Y-9901155D01*
X4391000Y-9906000D01*
X4189000Y-9906000D01*
X4130809Y-9887093D01*
X4094845Y-9837593D01*
X4090000Y-9807000D01*
X4090000Y-9160007D01*
X4108907Y-9101816D01*
X4118000Y-9091169D01*
X4118000Y-8511000D01*
X4136907Y-8452809D01*
X4186407Y-8416845D01*
X4217000Y-8412000D01*
X4419000Y-8412000D01*
X4477191Y-8430907D01*
G37*
%TD.AperFunction*%
%TA.AperFunction,Conductor*%
G36*
X10942692Y-7368907D02*
G01*
X10978656Y-7418407D01*
X10983501Y-7449000D01*
X10983501Y-7769863D01*
X10986414Y-7794990D01*
X11007390Y-7842496D01*
X11031794Y-7897765D01*
X11055005Y-7920976D01*
X11082781Y-7975491D01*
X11084000Y-7990978D01*
X11084000Y-8124998D01*
X11084001Y-8124999D01*
X11115483Y-8124999D01*
X11115485Y-8124998D01*
X11209141Y-8110166D01*
X11209148Y-8110164D01*
X11322046Y-8052640D01*
X11328347Y-8048062D01*
X11329554Y-8049723D01*
X11374707Y-8026718D01*
X11390187Y-8025499D01*
X11434501Y-8025499D01*
X11492691Y-8044406D01*
X11528655Y-8093906D01*
X11533500Y-8124499D01*
X11533500Y-8325273D01*
X11533500Y-8430727D01*
X11554937Y-8510731D01*
X11560794Y-8532591D01*
X11568235Y-8545478D01*
X11581500Y-8594980D01*
X11581500Y-8744099D01*
X11562593Y-8802290D01*
X11513093Y-8838254D01*
X11451907Y-8838254D01*
X11412496Y-8814103D01*
X10812996Y-8214603D01*
X10785219Y-8160086D01*
X10784000Y-8144599D01*
X10784000Y-7449000D01*
X10802907Y-7390809D01*
X10852407Y-7354845D01*
X10883000Y-7350000D01*
X10884501Y-7350000D01*
X10942692Y-7368907D01*
G37*
%TD.AperFunction*%
%TA.AperFunction,Conductor*%
G36*
X13053500Y-5308604D02*
G01*
X13205386Y-5460490D01*
X13308113Y-5519799D01*
X13329390Y-5525500D01*
X13422691Y-5550500D01*
X14203237Y-5550500D01*
X14261428Y-5569407D01*
X14297392Y-5618907D01*
X14297392Y-5680093D01*
X14282241Y-5709161D01*
X14257635Y-5741743D01*
X14257630Y-5741752D01*
X14162596Y-5932608D01*
X14162595Y-5932611D01*
X14156446Y-5954222D01*
X14104244Y-6137688D01*
X14084571Y-6350000D01*
X14104244Y-6562311D01*
X14118240Y-6611500D01*
X14162595Y-6767389D01*
X14257634Y-6958255D01*
X14386128Y-7128407D01*
X14433698Y-7171773D01*
X14543692Y-7272047D01*
X14543699Y-7272053D01*
X14647389Y-7336255D01*
X14724981Y-7384298D01*
X14923802Y-7461321D01*
X14977391Y-7471338D01*
X15031116Y-7500615D01*
X15057373Y-7555880D01*
X15046130Y-7616024D01*
X15001684Y-7658073D01*
X14984823Y-7664279D01*
X14810843Y-7710897D01*
X14612614Y-7803332D01*
X14433450Y-7928783D01*
X14278783Y-8083450D01*
X14153332Y-8262614D01*
X14060895Y-8460846D01*
X14042560Y-8529273D01*
X14009236Y-8580587D01*
X13952115Y-8602513D01*
X13893014Y-8586677D01*
X13854509Y-8539127D01*
X13848657Y-8515585D01*
X13844237Y-8479182D01*
X13788220Y-8331477D01*
X13743351Y-8266473D01*
X13698484Y-8201471D01*
X13651770Y-8160086D01*
X13580240Y-8096717D01*
X13499098Y-8054130D01*
X13440364Y-8023303D01*
X13286987Y-7985500D01*
X13286985Y-7985500D01*
X13129015Y-7985500D01*
X13129009Y-7985500D01*
X13077510Y-7998194D01*
X13016486Y-7993762D01*
X12969721Y-7954307D01*
X12955079Y-7894899D01*
X12965610Y-7857124D01*
X12969164Y-7850148D01*
X12969164Y-7850147D01*
X12984000Y-7756484D01*
X12984000Y-7500001D01*
X12983999Y-7500000D01*
X12533000Y-7500000D01*
X12474809Y-7481093D01*
X12438845Y-7431593D01*
X12434000Y-7401000D01*
X12434000Y-7299000D01*
X12452907Y-7240809D01*
X12502407Y-7204845D01*
X12533000Y-7200000D01*
X12983998Y-7200000D01*
X12983999Y-7199999D01*
X12983999Y-6943516D01*
X12983998Y-6943514D01*
X12969166Y-6849858D01*
X12969163Y-6849848D01*
X12911641Y-6736956D01*
X12822043Y-6647358D01*
X12788053Y-6630039D01*
X12744789Y-6586774D01*
X12736580Y-6552582D01*
X12733998Y-6550000D01*
X11783000Y-6550000D01*
X11724809Y-6531093D01*
X11688845Y-6481593D01*
X11684000Y-6451000D01*
X11684000Y-6249000D01*
X11702907Y-6190809D01*
X11752407Y-6154845D01*
X11783000Y-6150000D01*
X12733998Y-6150000D01*
X12733999Y-6149999D01*
X12733999Y-6040979D01*
X12752906Y-5982788D01*
X12762989Y-5970981D01*
X12836206Y-5897765D01*
X12881585Y-5794991D01*
X12884500Y-5769865D01*
X12884499Y-5378608D01*
X12903406Y-5320419D01*
X12952906Y-5284455D01*
X13014091Y-5284455D01*
X13053500Y-5308604D01*
G37*
%TD.AperFunction*%
%TA.AperFunction,Conductor*%
G36*
X-6219233Y-3273068D02*
G01*
X-6198884Y-3292891D01*
X-6196282Y-3296282D01*
X-6122156Y-3353161D01*
X-6086194Y-3380755D01*
X-6051538Y-3431179D01*
X-6053139Y-3492344D01*
X-6076457Y-3529301D01*
X-6282287Y-3735131D01*
X-6336804Y-3762908D01*
X-6390176Y-3756591D01*
X-6447233Y-3732957D01*
X-6447242Y-3732955D01*
X-6603999Y-3712318D01*
X-6604001Y-3712318D01*
X-6760759Y-3732955D01*
X-6760767Y-3732957D01*
X-6906839Y-3793462D01*
X-6906840Y-3793462D01*
X-7032277Y-3889713D01*
X-7032287Y-3889723D01*
X-7128537Y-4015160D01*
X-7167995Y-4110420D01*
X-7207732Y-4156946D01*
X-7267227Y-4171229D01*
X-7323755Y-4147814D01*
X-7329463Y-4142538D01*
X-7340001Y-4132000D01*
X-7739999Y-4132000D01*
X-7740000Y-4132001D01*
X-7740000Y-5081998D01*
X-7739999Y-5081999D01*
X-7708517Y-5081999D01*
X-7708515Y-5081998D01*
X-7614859Y-5067166D01*
X-7614849Y-5067163D01*
X-7501957Y-5009641D01*
X-7412359Y-4920043D01*
X-7354837Y-4807151D01*
X-7354836Y-4807147D01*
X-7340000Y-4713484D01*
X-7340000Y-4608028D01*
X-7321093Y-4549837D01*
X-7271593Y-4513873D01*
X-7210407Y-4513873D01*
X-7160907Y-4549837D01*
X-7149536Y-4570143D01*
X-7128538Y-4620838D01*
X-7128538Y-4620839D01*
X-7043201Y-4732052D01*
X-7032282Y-4746282D01*
X-6906841Y-4842536D01*
X-6906840Y-4842536D01*
X-6906839Y-4842537D01*
X-6775267Y-4897036D01*
X-6728741Y-4936772D01*
X-6714457Y-4996267D01*
X-6737872Y-5052795D01*
X-6790041Y-5084765D01*
X-6802147Y-5086197D01*
X-6802087Y-5086653D01*
X-6808519Y-5087499D01*
X-6935820Y-5121609D01*
X-7049939Y-5187496D01*
X-7682947Y-5820504D01*
X-7737464Y-5848281D01*
X-7752951Y-5849500D01*
X-8182437Y-5849500D01*
X-8240628Y-5830593D01*
X-8248087Y-5824602D01*
X-8263759Y-5810718D01*
X-8263760Y-5810717D01*
X-8366582Y-5756751D01*
X-8403636Y-5737303D01*
X-8557013Y-5699500D01*
X-8557015Y-5699500D01*
X-8714985Y-5699500D01*
X-8714988Y-5699500D01*
X-8868365Y-5737303D01*
X-9008242Y-5810718D01*
X-9023913Y-5824602D01*
X-9080007Y-5849038D01*
X-9089563Y-5849500D01*
X-12126107Y-5849500D01*
X-12257892Y-5849500D01*
X-12287207Y-5857354D01*
X-12317222Y-5865397D01*
X-12378323Y-5862194D01*
X-12425873Y-5823688D01*
X-12441708Y-5764588D01*
X-12419781Y-5707467D01*
X-12412862Y-5699780D01*
X-11667108Y-4954026D01*
X-11612593Y-4926251D01*
X-11552161Y-4935822D01*
X-11508896Y-4979087D01*
X-11505642Y-4986147D01*
X-11446538Y-5128838D01*
X-11446538Y-5128839D01*
X-11350745Y-5253679D01*
X-11350282Y-5254282D01*
X-11224841Y-5350536D01*
X-11224840Y-5350536D01*
X-11224839Y-5350537D01*
X-11146324Y-5383059D01*
X-11078762Y-5411044D01*
X-10961191Y-5426522D01*
X-10922001Y-5431682D01*
X-10922000Y-5431682D01*
X-10921999Y-5431682D01*
X-10890648Y-5427554D01*
X-10765238Y-5411044D01*
X-10619159Y-5350536D01*
X-10493718Y-5254282D01*
X-10397464Y-5128841D01*
X-10339522Y-4988956D01*
X-10299787Y-4942432D01*
X-10240292Y-4928148D01*
X-10208075Y-4936277D01*
X-10109991Y-4979585D01*
X-10084865Y-4982500D01*
X-9695136Y-4982499D01*
X-9670009Y-4979585D01*
X-9670001Y-4979581D01*
X-9665995Y-4978492D01*
X-9614013Y-4978491D01*
X-9609992Y-4979585D01*
X-9605522Y-4980103D01*
X-9584865Y-4982500D01*
X-9195136Y-4982499D01*
X-9170009Y-4979585D01*
X-9170001Y-4979581D01*
X-9165995Y-4978492D01*
X-9114013Y-4978491D01*
X-9109992Y-4979585D01*
X-9105522Y-4980103D01*
X-9084865Y-4982500D01*
X-8846193Y-4982499D01*
X-8788004Y-5001406D01*
X-8780165Y-5008100D01*
X-8778045Y-5009640D01*
X-8665152Y-5067163D01*
X-8665148Y-5067164D01*
X-8571484Y-5081999D01*
X-8540001Y-5081999D01*
X-8540000Y-5081998D01*
X-8540000Y-4947978D01*
X-8521093Y-4889787D01*
X-8511010Y-4877980D01*
X-8487794Y-4854765D01*
X-8442415Y-4751991D01*
X-8439500Y-4726865D01*
X-8439501Y-4080998D01*
X-8420594Y-4022809D01*
X-8371094Y-3986845D01*
X-8340501Y-3982000D01*
X-8339000Y-3982000D01*
X-8280809Y-4000907D01*
X-8244845Y-4050407D01*
X-8240000Y-4081000D01*
X-8240000Y-5081998D01*
X-8239999Y-5081999D01*
X-8208517Y-5081999D01*
X-8155489Y-5073600D01*
X-8124514Y-5073600D01*
X-8071484Y-5081999D01*
X-8040001Y-5081999D01*
X-8040000Y-5081998D01*
X-8040000Y-4081000D01*
X-8021093Y-4022809D01*
X-7971593Y-3986845D01*
X-7941000Y-3982000D01*
X-7890001Y-3982000D01*
X-7890000Y-3981999D01*
X-7890000Y-3931000D01*
X-7871093Y-3872809D01*
X-7821593Y-3836845D01*
X-7791000Y-3832000D01*
X-7340002Y-3832000D01*
X-7340001Y-3831999D01*
X-7340001Y-3353161D01*
X-7321094Y-3294970D01*
X-7271594Y-3259006D01*
X-7241001Y-3254161D01*
X-6277424Y-3254161D01*
X-6219233Y-3273068D01*
G37*
%TD.AperFunction*%
%TA.AperFunction,Conductor*%
G36*
X7969002Y-224105D02*
G01*
X9132997Y-1388101D01*
X10295746Y-2550850D01*
X10323523Y-2605367D01*
X10313952Y-2665799D01*
X10270687Y-2709064D01*
X10258977Y-2713559D01*
X10258979Y-2713564D01*
X10106908Y-2776553D01*
X10106907Y-2776553D01*
X9981470Y-2872804D01*
X9981460Y-2872814D01*
X9885209Y-2998251D01*
X9885208Y-2998254D01*
X9876135Y-3020158D01*
X9836398Y-3066683D01*
X9776903Y-3080966D01*
X9720375Y-3057550D01*
X9714668Y-3052275D01*
X8797048Y-2134655D01*
X7865913Y-1203520D01*
X7865910Y-1203518D01*
X7828942Y-1182174D01*
X7788002Y-1136704D01*
X7781607Y-1075854D01*
X7784288Y-1065848D01*
X7785164Y-1063150D01*
X7800000Y-969484D01*
X7800000Y-738001D01*
X7799999Y-738000D01*
X7099000Y-738000D01*
X7040809Y-719093D01*
X7004845Y-669593D01*
X7000000Y-639000D01*
X7000000Y-437000D01*
X7018907Y-378809D01*
X7068407Y-342845D01*
X7099000Y-338000D01*
X7799998Y-338000D01*
X7799999Y-337999D01*
X7799999Y-294110D01*
X7818906Y-235919D01*
X7868406Y-199955D01*
X7929592Y-199955D01*
X7969002Y-224105D01*
G37*
%TD.AperFunction*%
%TA.AperFunction,Conductor*%
G36*
X-6840809Y-556907D02*
G01*
X-6804845Y-606407D01*
X-6800000Y-637000D01*
X-6800000Y-1353623D01*
X-6788454Y-1376284D01*
X-6798025Y-1436716D01*
X-6841290Y-1479981D01*
X-6848349Y-1483235D01*
X-6906840Y-1507463D01*
X-7032277Y-1603713D01*
X-7032287Y-1603723D01*
X-7128538Y-1729160D01*
X-7128538Y-1729161D01*
X-7189043Y-1875233D01*
X-7189045Y-1875241D01*
X-7209682Y-2031999D01*
X-7209682Y-2032000D01*
X-7191604Y-2169321D01*
X-7189044Y-2188762D01*
X-7136226Y-2316275D01*
X-7131425Y-2377272D01*
X-7163395Y-2429441D01*
X-7219922Y-2452856D01*
X-7227690Y-2453161D01*
X-7867938Y-2453161D01*
X-7926129Y-2434254D01*
X-7962093Y-2384754D01*
X-7966091Y-2341239D01*
X-7947979Y-2203661D01*
X-7947979Y-2203660D01*
X-7958915Y-2120593D01*
X-7968617Y-2046899D01*
X-7971266Y-2040503D01*
X-8029124Y-1900822D01*
X-8029124Y-1900821D01*
X-8125375Y-1775384D01*
X-8125376Y-1775383D01*
X-8125379Y-1775379D01*
X-8125384Y-1775375D01*
X-8125385Y-1775374D01*
X-8196899Y-1720500D01*
X-8241261Y-1686460D01*
X-8275916Y-1636037D01*
X-8274315Y-1574873D01*
X-8250999Y-1537918D01*
X-7877556Y-1164475D01*
X-7823042Y-1136700D01*
X-7762610Y-1146271D01*
X-7733635Y-1171019D01*
X-7733150Y-1170535D01*
X-7638044Y-1265641D01*
X-7525152Y-1323163D01*
X-7525148Y-1323164D01*
X-7431485Y-1337999D01*
X-7200002Y-1337999D01*
X-7200000Y-1337998D01*
X-7200000Y-637000D01*
X-7181093Y-578809D01*
X-7131593Y-542845D01*
X-7101000Y-538000D01*
X-6899000Y-538000D01*
X-6840809Y-556907D01*
G37*
%TD.AperFunction*%
%TA.AperFunction,Conductor*%
G36*
X16340580Y2070593D02*
G01*
X16352393Y2060504D01*
X16666532Y1746365D01*
X16694309Y1691848D01*
X16691749Y1649271D01*
X16677279Y1598414D01*
X16644244Y1482312D01*
X16624571Y1270000D01*
X16644244Y1057689D01*
X16659692Y1003397D01*
X16702595Y852611D01*
X16797634Y661745D01*
X16926128Y491593D01*
X16933913Y484496D01*
X17083692Y347953D01*
X17083699Y347947D01*
X17145496Y309684D01*
X17264981Y235702D01*
X17463802Y158679D01*
X17673390Y119500D01*
X17886610Y119500D01*
X18096198Y158679D01*
X18295019Y235702D01*
X18428383Y318279D01*
X18487811Y332837D01*
X18544447Y309684D01*
X18576657Y257663D01*
X18579500Y234107D01*
X18579500Y-234106D01*
X18560593Y-292297D01*
X18511093Y-328261D01*
X18449907Y-328261D01*
X18428383Y-318278D01*
X18295019Y-235702D01*
X18096198Y-158679D01*
X18096197Y-158678D01*
X18096195Y-158678D01*
X17886610Y-119500D01*
X17673390Y-119500D01*
X17463804Y-158678D01*
X17264980Y-235702D01*
X17264975Y-235705D01*
X17083699Y-347946D01*
X17083692Y-347952D01*
X16926135Y-491586D01*
X16926131Y-491589D01*
X16926128Y-491593D01*
X16926125Y-491597D01*
X16797635Y-661743D01*
X16797630Y-661752D01*
X16702596Y-852608D01*
X16644244Y-1057688D01*
X16624571Y-1270000D01*
X16644244Y-1482311D01*
X16691748Y-1649268D01*
X16689487Y-1710412D01*
X16666531Y-1746364D01*
X16372394Y-2040503D01*
X16317877Y-2068281D01*
X16302390Y-2069500D01*
X16276763Y-2069500D01*
X16218572Y-2050593D01*
X16182608Y-2001093D01*
X16182608Y-1939907D01*
X16197759Y-1910839D01*
X16199469Y-1908575D01*
X16222366Y-1878255D01*
X16317405Y-1687389D01*
X16375756Y-1482310D01*
X16395429Y-1270000D01*
X16375756Y-1057690D01*
X16317405Y-852611D01*
X16222366Y-661745D01*
X16093872Y-491593D01*
X16032699Y-435826D01*
X15936307Y-347952D01*
X15936300Y-347946D01*
X15755024Y-235705D01*
X15755019Y-235702D01*
X15725086Y-224106D01*
X15556198Y-158679D01*
X15556197Y-158678D01*
X15556195Y-158678D01*
X15346610Y-119500D01*
X15133390Y-119500D01*
X14923804Y-158678D01*
X14724980Y-235702D01*
X14724975Y-235705D01*
X14543699Y-347946D01*
X14543692Y-347952D01*
X14386135Y-491586D01*
X14386131Y-491589D01*
X14386128Y-491593D01*
X14386125Y-491597D01*
X14257635Y-661743D01*
X14257630Y-661751D01*
X14206405Y-764628D01*
X14163543Y-808290D01*
X14117784Y-819500D01*
X12927611Y-819500D01*
X12869420Y-800593D01*
X12857607Y-790504D01*
X11416607Y650496D01*
X11388830Y705013D01*
X11398401Y765445D01*
X11441666Y808710D01*
X11486611Y819500D01*
X14117784Y819500D01*
X14175975Y800593D01*
X14206405Y764628D01*
X14257630Y661752D01*
X14257632Y661748D01*
X14257634Y661745D01*
X14386128Y491593D01*
X14393913Y484496D01*
X14543692Y347953D01*
X14543699Y347947D01*
X14605496Y309684D01*
X14724981Y235702D01*
X14923802Y158679D01*
X15133390Y119500D01*
X15346610Y119500D01*
X15556198Y158679D01*
X15755019Y235702D01*
X15936302Y347948D01*
X16093872Y491593D01*
X16222366Y661745D01*
X16317405Y852611D01*
X16375756Y1057690D01*
X16395429Y1270000D01*
X16375756Y1482310D01*
X16317405Y1687389D01*
X16222366Y1878255D01*
X16182655Y1930840D01*
X16162676Y1988670D01*
X16180504Y2047200D01*
X16229331Y2084073D01*
X16261659Y2089500D01*
X16282389Y2089500D01*
X16340580Y2070593D01*
G37*
%TD.AperFunction*%
%TA.AperFunction,Conductor*%
G36*
X-11593763Y2150393D02*
G01*
X-11550498Y2107128D01*
X-11546146Y2097299D01*
X-11517244Y2021093D01*
X-11502220Y1981477D01*
X-11412485Y1851472D01*
X-11412484Y1851471D01*
X-11412483Y1851470D01*
X-11294240Y1746717D01*
X-11154365Y1673304D01*
X-11126686Y1666482D01*
X-11122175Y1665370D01*
X-11070199Y1633087D01*
X-11047126Y1576419D01*
X-11061768Y1517011D01*
X-11075862Y1499243D01*
X-13235423Y-660318D01*
X-13289940Y-688095D01*
X-13292504Y-688467D01*
X-13379763Y-699956D01*
X-13525839Y-760462D01*
X-13531268Y-764628D01*
X-13595666Y-814042D01*
X-13653341Y-834466D01*
X-13655932Y-834500D01*
X-14097784Y-834500D01*
X-14155975Y-815593D01*
X-14186405Y-779628D01*
X-14207133Y-738001D01*
X-14237634Y-676745D01*
X-14302592Y-590727D01*
X-14326550Y-559002D01*
X-14346529Y-501170D01*
X-14328700Y-442640D01*
X-14297051Y-413608D01*
X-14196386Y-355489D01*
X-11708710Y2132189D01*
X-11654195Y2159964D01*
X-11593763Y2150393D01*
G37*
%TD.AperFunction*%
%TA.AperFunction,Conductor*%
G36*
X-5916710Y1792593D02*
G01*
X-5904897Y1782504D01*
X-4892480Y770087D01*
X-4892481Y770087D01*
X-4827406Y705013D01*
X-4817913Y695520D01*
X-4726587Y642793D01*
X-4624727Y615500D01*
X3058929Y615500D01*
X3117120Y596593D01*
X3125687Y589277D01*
X3127716Y587720D01*
X3127718Y587718D01*
X3253159Y491464D01*
X3253160Y491464D01*
X3253161Y491463D01*
X3395182Y432636D01*
X3399238Y430956D01*
X3516809Y415478D01*
X3555999Y410318D01*
X3556000Y410318D01*
X3556001Y410318D01*
X3587352Y414446D01*
X3712762Y430956D01*
X3712769Y430960D01*
X3719030Y432636D01*
X3719354Y431426D01*
X3773610Y435696D01*
X3825779Y403727D01*
X3849195Y347200D01*
X3849500Y339431D01*
X3849500Y232258D01*
X3830593Y174067D01*
X3781093Y138103D01*
X3719907Y138103D01*
X3710513Y141693D01*
X3669991Y159585D01*
X3669988Y159586D01*
X3644868Y162500D01*
X3155139Y162500D01*
X3155136Y162499D01*
X3130009Y159586D01*
X3059766Y128570D01*
X3027235Y114206D01*
X3027234Y114206D01*
X3018843Y110500D01*
X3017794Y112874D01*
X2972243Y99463D01*
X2932050Y112523D01*
X2931157Y110500D01*
X2922766Y114205D01*
X2922765Y114206D01*
X2819991Y159585D01*
X2819990Y159586D01*
X2819988Y159586D01*
X2794868Y162500D01*
X2305139Y162500D01*
X2305136Y162499D01*
X2280009Y159586D01*
X2209766Y128570D01*
X2177235Y114206D01*
X2177234Y114206D01*
X2168843Y110500D01*
X2167794Y112874D01*
X2122243Y99463D01*
X2082050Y112523D01*
X2081157Y110500D01*
X2072766Y114205D01*
X2072765Y114206D01*
X1969991Y159585D01*
X1969990Y159586D01*
X1969988Y159586D01*
X1944868Y162500D01*
X1455139Y162500D01*
X1455136Y162499D01*
X1430009Y159586D01*
X1359766Y128570D01*
X1327235Y114206D01*
X1327234Y114206D01*
X1318843Y110500D01*
X1317794Y112874D01*
X1272243Y99463D01*
X1232050Y112523D01*
X1231157Y110500D01*
X1222766Y114205D01*
X1222765Y114206D01*
X1119991Y159585D01*
X1119990Y159586D01*
X1119988Y159586D01*
X1094868Y162500D01*
X605139Y162500D01*
X605136Y162499D01*
X580009Y159586D01*
X509766Y128570D01*
X477235Y114206D01*
X477234Y114206D01*
X468843Y110500D01*
X467794Y112874D01*
X422243Y99463D01*
X382050Y112523D01*
X381157Y110500D01*
X372766Y114205D01*
X372765Y114206D01*
X269991Y159585D01*
X269990Y159586D01*
X269988Y159586D01*
X244868Y162500D01*
X-244861Y162500D01*
X-244864Y162499D01*
X-269991Y159586D01*
X-340234Y128570D01*
X-372765Y114206D01*
X-372766Y114206D01*
X-381157Y110500D01*
X-382206Y112874D01*
X-427757Y99463D01*
X-467950Y112523D01*
X-468843Y110500D01*
X-477234Y114205D01*
X-477235Y114206D01*
X-580009Y159585D01*
X-580010Y159586D01*
X-580012Y159586D01*
X-605132Y162500D01*
X-1094861Y162500D01*
X-1094864Y162499D01*
X-1119991Y159586D01*
X-1190234Y128570D01*
X-1222765Y114206D01*
X-1222766Y114206D01*
X-1231157Y110500D01*
X-1232206Y112874D01*
X-1277757Y99463D01*
X-1317950Y112523D01*
X-1318843Y110500D01*
X-1327234Y114205D01*
X-1327235Y114206D01*
X-1430009Y159585D01*
X-1430010Y159586D01*
X-1430012Y159586D01*
X-1455132Y162500D01*
X-1944861Y162500D01*
X-1944864Y162499D01*
X-1969991Y159586D01*
X-2040234Y128570D01*
X-2072765Y114206D01*
X-2072766Y114206D01*
X-2081157Y110500D01*
X-2082206Y112874D01*
X-2127757Y99463D01*
X-2167950Y112523D01*
X-2168843Y110500D01*
X-2177234Y114205D01*
X-2177235Y114206D01*
X-2280009Y159585D01*
X-2280010Y159586D01*
X-2280012Y159586D01*
X-2305132Y162500D01*
X-2794861Y162500D01*
X-2794864Y162499D01*
X-2819991Y159586D01*
X-2890234Y128570D01*
X-2922765Y114206D01*
X-2922766Y114206D01*
X-2931157Y110500D01*
X-2932206Y112874D01*
X-2977757Y99463D01*
X-3017950Y112523D01*
X-3018843Y110500D01*
X-3027234Y114205D01*
X-3027235Y114206D01*
X-3130009Y159585D01*
X-3130010Y159586D01*
X-3130012Y159586D01*
X-3155132Y162500D01*
X-3644861Y162500D01*
X-3644864Y162499D01*
X-3669991Y159586D01*
X-3740234Y128570D01*
X-3772765Y114206D01*
X-3772766Y114206D01*
X-3781157Y110500D01*
X-3782206Y112874D01*
X-3827757Y99463D01*
X-3867950Y112523D01*
X-3868843Y110500D01*
X-3877234Y114205D01*
X-3877235Y114206D01*
X-3980009Y159585D01*
X-3980010Y159586D01*
X-3980012Y159586D01*
X-4005132Y162500D01*
X-4494861Y162500D01*
X-4494864Y162499D01*
X-4519991Y159586D01*
X-4590234Y128570D01*
X-4622765Y114206D01*
X-4622766Y114206D01*
X-4631157Y110500D01*
X-4632206Y112874D01*
X-4677757Y99463D01*
X-4717950Y112523D01*
X-4718843Y110500D01*
X-4727234Y114205D01*
X-4727235Y114206D01*
X-4830009Y159585D01*
X-4830010Y159586D01*
X-4830012Y159586D01*
X-4855132Y162500D01*
X-5344861Y162500D01*
X-5344864Y162499D01*
X-5369991Y159586D01*
X-5440234Y128570D01*
X-5472765Y114206D01*
X-5472766Y114206D01*
X-5481157Y110500D01*
X-5482206Y112874D01*
X-5527757Y99463D01*
X-5567950Y112523D01*
X-5568843Y110500D01*
X-5577234Y114205D01*
X-5577235Y114206D01*
X-5680009Y159585D01*
X-5680010Y159586D01*
X-5680012Y159586D01*
X-5705132Y162500D01*
X-6194869Y162500D01*
X-6194973Y162493D01*
X-6194996Y162500D01*
X-6197722Y162499D01*
X-6197722Y163215D01*
X-6254156Y178020D01*
X-6292909Y225368D01*
X-6299064Y264276D01*
X-6299500Y264276D01*
X-6299501Y267033D01*
X-6299505Y267064D01*
X-6299503Y267111D01*
X-6299500Y267135D01*
X-6299501Y756864D01*
X-6302415Y781991D01*
X-6347794Y884765D01*
X-6347795Y884766D01*
X-6351500Y893157D01*
X-6349125Y894206D01*
X-6362538Y939739D01*
X-6349474Y979949D01*
X-6351500Y980843D01*
X-6347796Y989234D01*
X-6347794Y989235D01*
X-6302415Y1092009D01*
X-6299500Y1117135D01*
X-6299501Y1606864D01*
X-6302415Y1631991D01*
X-6320308Y1672513D01*
X-6326515Y1733381D01*
X-6295759Y1786275D01*
X-6239787Y1810989D01*
X-6229742Y1811500D01*
X-5974901Y1811500D01*
X-5916710Y1792593D01*
G37*
%TD.AperFunction*%
%TA.AperFunction,Conductor*%
G36*
X6257633Y6238332D02*
G01*
X6300898Y6195067D01*
X6303252Y6190111D01*
X6351499Y6080844D01*
X6349125Y6079797D01*
X6362537Y6034243D01*
X6349477Y5994051D01*
X6351500Y5993157D01*
X6347794Y5984766D01*
X6347794Y5984765D01*
X6342374Y5972489D01*
X6302414Y5881989D01*
X6299500Y5856870D01*
X6299500Y5367140D01*
X6299501Y5367137D01*
X6302414Y5342010D01*
X6314735Y5314107D01*
X6345469Y5244500D01*
X6351500Y5230843D01*
X6349126Y5229795D01*
X6362537Y5184243D01*
X6349477Y5144051D01*
X6351500Y5143157D01*
X6347794Y5134766D01*
X6347794Y5134765D01*
X6340567Y5118397D01*
X6302414Y5031989D01*
X6299500Y5006870D01*
X6299500Y4517140D01*
X6299501Y4517137D01*
X6302414Y4492010D01*
X6310747Y4473139D01*
X6344050Y4397714D01*
X6351500Y4380843D01*
X6349126Y4379795D01*
X6362537Y4334243D01*
X6349477Y4294051D01*
X6351500Y4293157D01*
X6347794Y4284766D01*
X6347794Y4284765D01*
X6322460Y4227389D01*
X6302414Y4181989D01*
X6299500Y4156870D01*
X6299500Y3667140D01*
X6299501Y3667137D01*
X6302414Y3642010D01*
X6317110Y3608727D01*
X6345749Y3543866D01*
X6351500Y3530843D01*
X6349126Y3529795D01*
X6362537Y3484243D01*
X6349477Y3444051D01*
X6351500Y3443157D01*
X6347794Y3434766D01*
X6347794Y3434765D01*
X6322558Y3377611D01*
X6302414Y3331989D01*
X6299500Y3306870D01*
X6299500Y2817140D01*
X6299501Y2817137D01*
X6302414Y2792010D01*
X6323844Y2743477D01*
X6344468Y2696767D01*
X6351500Y2680843D01*
X6349126Y2679795D01*
X6362537Y2634243D01*
X6349477Y2594051D01*
X6351500Y2593157D01*
X6347794Y2584766D01*
X6347794Y2584765D01*
X6314217Y2508719D01*
X6302414Y2481989D01*
X6299500Y2456870D01*
X6299500Y1967140D01*
X6299500Y1967138D01*
X6299501Y1967136D01*
X6299838Y1964223D01*
X6302414Y1942010D01*
X6305616Y1934759D01*
X6340813Y1855045D01*
X6351500Y1830843D01*
X6349126Y1829795D01*
X6362537Y1784243D01*
X6349477Y1744051D01*
X6351500Y1743157D01*
X6347794Y1734766D01*
X6347794Y1734765D01*
X6317153Y1665370D01*
X6302414Y1631989D01*
X6299500Y1606870D01*
X6299500Y1114613D01*
X6280593Y1056422D01*
X6231093Y1020458D01*
X6169907Y1020458D01*
X6151079Y1030374D01*
X6150456Y1029294D01*
X6144838Y1032538D01*
X5998766Y1093043D01*
X5998758Y1093045D01*
X5842001Y1113682D01*
X5841998Y1113682D01*
X5789896Y1106823D01*
X5729736Y1117973D01*
X5687619Y1162356D01*
X5678822Y1217897D01*
X5685682Y1270000D01*
X5665044Y1426762D01*
X5657787Y1444282D01*
X5604537Y1572839D01*
X5604537Y1572840D01*
X5508286Y1698277D01*
X5508285Y1698278D01*
X5508282Y1698282D01*
X5508277Y1698286D01*
X5508276Y1698287D01*
X5385373Y1792593D01*
X5382841Y1794536D01*
X5382840Y1794537D01*
X5382838Y1794538D01*
X5236766Y1855043D01*
X5236758Y1855045D01*
X5080001Y1875682D01*
X5079999Y1875682D01*
X4923241Y1855045D01*
X4923232Y1855043D01*
X4787385Y1798773D01*
X4726388Y1793973D01*
X4674219Y1825942D01*
X4650805Y1882470D01*
X4650500Y1890237D01*
X4650500Y4438681D01*
X4669407Y4496872D01*
X4718907Y4532836D01*
X4780093Y4532836D01*
X4828041Y4498949D01*
X4833366Y4492009D01*
X4901474Y4403248D01*
X4905718Y4397718D01*
X5031159Y4301464D01*
X5031160Y4301464D01*
X5031161Y4301463D01*
X5141877Y4255603D01*
X5177238Y4240956D01*
X5294809Y4225478D01*
X5333999Y4220318D01*
X5334000Y4220318D01*
X5334001Y4220318D01*
X5365352Y4224446D01*
X5490762Y4240956D01*
X5636841Y4301464D01*
X5762282Y4397718D01*
X5858536Y4523159D01*
X5919044Y4669238D01*
X5939682Y4826000D01*
X5937273Y4844295D01*
X5934522Y4865191D01*
X5919044Y4982762D01*
X5906933Y5012001D01*
X5858537Y5128839D01*
X5858537Y5128840D01*
X5758332Y5259430D01*
X5759713Y5260491D01*
X5735719Y5307584D01*
X5734500Y5323071D01*
X5734500Y5770933D01*
X5753407Y5829124D01*
X5763496Y5840936D01*
X5934060Y6011500D01*
X6142684Y6220126D01*
X6197201Y6247903D01*
X6257633Y6238332D01*
G37*
%TD.AperFunction*%
%TA.AperFunction,Conductor*%
G36*
X-18330548Y13951093D02*
G01*
X-18322771Y13944818D01*
X-18192188Y13828122D01*
X-18192180Y13828115D01*
X-18192177Y13828113D01*
X-18192176Y13828112D01*
X-17908164Y13626595D01*
X-17908160Y13626593D01*
X-17603380Y13458147D01*
X-17603381Y13458147D01*
X-17603376Y13458145D01*
X-17281644Y13324879D01*
X-16947013Y13228473D01*
X-16603693Y13170141D01*
X-16603690Y13170141D01*
X-16603684Y13170140D01*
X-16256005Y13150615D01*
X-16256000Y13150615D01*
X-16255995Y13150615D01*
X-15908317Y13170140D01*
X-15908313Y13170141D01*
X-15908307Y13170141D01*
X-15564987Y13228473D01*
X-15230356Y13324879D01*
X-14908624Y13458145D01*
X-14903785Y13460819D01*
X-14820117Y13507061D01*
X-14603836Y13626595D01*
X-14319824Y13828112D01*
X-14271832Y13871000D01*
X-14189229Y13944818D01*
X-14133241Y13969496D01*
X-14123261Y13970000D01*
X-7899000Y13970000D01*
X-7840809Y13951093D01*
X-7804845Y13901593D01*
X-7800000Y13871000D01*
X-7800000Y13662001D01*
X-7799999Y13662000D01*
X7799998Y13662000D01*
X7799999Y13662001D01*
X7799999Y13871000D01*
X7818906Y13929191D01*
X7868406Y13965155D01*
X7898999Y13970000D01*
X9061445Y13970000D01*
X9119636Y13951093D01*
X9155600Y13901593D01*
X9155600Y13840407D01*
X9119636Y13790907D01*
X9094144Y13777556D01*
X9077840Y13771852D01*
X8971004Y13693003D01*
X8970997Y13692996D01*
X8892148Y13586159D01*
X8848291Y13460824D01*
X8848289Y13460815D01*
X8845500Y13431077D01*
X8845500Y12984924D01*
X8848289Y12955186D01*
X8848290Y12955181D01*
X8852133Y12944199D01*
X8853507Y12883029D01*
X8818663Y12832734D01*
X8760912Y12812525D01*
X8758689Y12812500D01*
X7881022Y12812500D01*
X7822831Y12831407D01*
X7786867Y12880907D01*
X7786866Y12928695D01*
X7783946Y12929157D01*
X7800000Y13030516D01*
X7800000Y13261999D01*
X7799999Y13262000D01*
X4450001Y13262000D01*
X4450000Y13261999D01*
X4450000Y12677401D01*
X4431093Y12619210D01*
X4421004Y12607397D01*
X3673103Y11859496D01*
X3618586Y11831719D01*
X3603099Y11830500D01*
X-2227194Y11830500D01*
X-2227210Y11830501D01*
X-2233273Y11830501D01*
X-2338727Y11830501D01*
X-2426939Y11806864D01*
X-2426940Y11806865D01*
X-2440588Y11803207D01*
X-2440591Y11803206D01*
X-2531913Y11750481D01*
X-2606481Y11675914D01*
X-2606480Y11675913D01*
X-2606482Y11675911D01*
X-3995716Y10286678D01*
X-4050233Y10258901D01*
X-4061445Y10258019D01*
X-4220759Y10237045D01*
X-4220767Y10237043D01*
X-4366839Y10176538D01*
X-4366840Y10176538D01*
X-4492277Y10080287D01*
X-4492287Y10080277D01*
X-4588538Y9954840D01*
X-4588538Y9954839D01*
X-4649043Y9808767D01*
X-4649045Y9808759D01*
X-4669682Y9652001D01*
X-4669682Y9652000D01*
X-4649045Y9495242D01*
X-4649043Y9495234D01*
X-4588538Y9349162D01*
X-4588538Y9349161D01*
X-4516211Y9254903D01*
X-4492282Y9223718D01*
X-4366841Y9127464D01*
X-4366840Y9127464D01*
X-4366839Y9127463D01*
X-4240182Y9075000D01*
X-4220762Y9066956D01*
X-4103191Y9051478D01*
X-4064001Y9046318D01*
X-4064000Y9046318D01*
X-4063999Y9046318D01*
X-4032648Y9050446D01*
X-3907238Y9066956D01*
X-3761159Y9127464D01*
X-3635718Y9223718D01*
X-3539464Y9349159D01*
X-3478956Y9495238D01*
X-3458318Y9652000D01*
X-3458318Y9652001D01*
X-3457471Y9658433D01*
X-3455744Y9658206D01*
X-3439411Y9708473D01*
X-3429322Y9720286D01*
X-3056123Y10093485D01*
X6200000Y10093485D01*
X6200000Y10062001D01*
X6200001Y10062000D01*
X6799999Y10062000D01*
X6800000Y10062001D01*
X6800000Y10511999D01*
X7200000Y10511999D01*
X7200000Y10062001D01*
X7200001Y10062000D01*
X7799998Y10062000D01*
X7799999Y10062001D01*
X7799999Y10093484D01*
X7799998Y10093486D01*
X7785166Y10187144D01*
X7785166Y10187146D01*
X7757188Y10242053D01*
X7747616Y10302485D01*
X7757188Y10331947D01*
X7785164Y10386852D01*
X7785164Y10386853D01*
X7800000Y10480516D01*
X7800000Y10511999D01*
X7799999Y10512000D01*
X7200001Y10512000D01*
X7200000Y10511999D01*
X6800000Y10511999D01*
X6799999Y10512000D01*
X6200002Y10512000D01*
X6200001Y10511999D01*
X6200001Y10480515D01*
X6214833Y10386858D01*
X6214835Y10386852D01*
X6242811Y10331945D01*
X6252382Y10271513D01*
X6242811Y10242057D01*
X6214836Y10187153D01*
X6214835Y10187148D01*
X6200000Y10093485D01*
X-3056123Y10093485D01*
X-2149104Y11000504D01*
X-2094587Y11028281D01*
X-2079100Y11029500D01*
X3862725Y11029500D01*
X3862727Y11029500D01*
X3964588Y11056793D01*
X3964590Y11056795D01*
X3964592Y11056795D01*
X4055908Y11109517D01*
X4055908Y11109518D01*
X4055913Y11109520D01*
X4829452Y11883061D01*
X4883967Y11910836D01*
X4944399Y11901265D01*
X4987664Y11858000D01*
X4997607Y11800133D01*
X4982318Y11684001D01*
X4982318Y11684000D01*
X5002955Y11527242D01*
X5002957Y11527234D01*
X5063462Y11381162D01*
X5063462Y11381161D01*
X5159713Y11255724D01*
X5159718Y11255718D01*
X5159722Y11255715D01*
X5159723Y11255714D01*
X5177494Y11242078D01*
X5285159Y11159464D01*
X5285160Y11159464D01*
X5285161Y11159463D01*
X5431233Y11098958D01*
X5431238Y11098956D01*
X5539030Y11084765D01*
X5587999Y11078318D01*
X5588000Y11078318D01*
X5588001Y11078318D01*
X5636970Y11084765D01*
X5744762Y11098956D01*
X5877563Y11153965D01*
X5915448Y11161500D01*
X6118978Y11161500D01*
X6177169Y11142593D01*
X6213133Y11093093D01*
X6213133Y11045306D01*
X6216054Y11044843D01*
X6200000Y10943485D01*
X6200000Y10912001D01*
X6200001Y10912000D01*
X7799998Y10912000D01*
X7799999Y10912001D01*
X7799999Y10943484D01*
X7799998Y10943486D01*
X7785166Y11037142D01*
X7785163Y11037152D01*
X7727641Y11150044D01*
X7711260Y11166425D01*
X7683483Y11220942D01*
X7690700Y11276417D01*
X7697585Y11292009D01*
X7700500Y11317135D01*
X7700499Y11806864D01*
X7697585Y11831991D01*
X7679692Y11872513D01*
X7673485Y11933381D01*
X7704241Y11986275D01*
X7760213Y12010989D01*
X7770258Y12011500D01*
X8715099Y12011500D01*
X8773290Y11992593D01*
X8785103Y11982504D01*
X8796504Y11971103D01*
X8824281Y11916586D01*
X8825500Y11901099D01*
X8825500Y11700543D01*
X8828258Y11671125D01*
X8828259Y11671120D01*
X8871619Y11547205D01*
X8949572Y11441582D01*
X8949581Y11441573D01*
X9055204Y11363620D01*
X9055205Y11363620D01*
X9055206Y11363619D01*
X9153101Y11329364D01*
X9183485Y11318732D01*
X9232165Y11281667D01*
X9249762Y11223067D01*
X9229554Y11165315D01*
X9216437Y11151186D01*
X9161516Y11102530D01*
X9071780Y10972524D01*
X9015763Y10824818D01*
X9015762Y10824817D01*
X8996722Y10668002D01*
X8996722Y10667999D01*
X9015762Y10511184D01*
X9015763Y10511182D01*
X9041997Y10442009D01*
X9071780Y10363477D01*
X9110756Y10307011D01*
X9128251Y10248381D01*
X9107943Y10190664D01*
X9089548Y10172231D01*
X8969719Y10080283D01*
X8969713Y10080277D01*
X8873462Y9954840D01*
X8873462Y9954839D01*
X8812957Y9808767D01*
X8812955Y9808759D01*
X8792318Y9652001D01*
X8792318Y9652000D01*
X8812955Y9495242D01*
X8812957Y9495234D01*
X8873462Y9349162D01*
X8873462Y9349161D01*
X8945789Y9254903D01*
X8969718Y9223718D01*
X9095159Y9127464D01*
X9095160Y9127464D01*
X9095161Y9127463D01*
X9221818Y9075000D01*
X9241238Y9066956D01*
X9358809Y9051478D01*
X9397999Y9046318D01*
X9398000Y9046318D01*
X9398001Y9046318D01*
X9429352Y9050446D01*
X9554762Y9066956D01*
X9700841Y9127464D01*
X9826282Y9223718D01*
X9922536Y9349159D01*
X9922540Y9349171D01*
X9925557Y9354393D01*
X9941288Y9374897D01*
X12049897Y11483504D01*
X12104414Y11511281D01*
X12119901Y11512500D01*
X13752744Y11512500D01*
X13810935Y11493593D01*
X13822748Y11483504D01*
X13876504Y11429748D01*
X13904281Y11375231D01*
X13905500Y11359745D01*
X13905500Y11192543D01*
X13908258Y11163125D01*
X13908259Y11163120D01*
X13951619Y11039205D01*
X14029572Y10933582D01*
X14029581Y10933573D01*
X14135204Y10855620D01*
X14135205Y10855620D01*
X14135206Y10855619D01*
X14259121Y10812259D01*
X14288543Y10809500D01*
X14663456Y10809501D01*
X14663457Y10809501D01*
X14669340Y10810053D01*
X14692879Y10812259D01*
X14816794Y10855619D01*
X14857184Y10885429D01*
X14927212Y10937111D01*
X14985259Y10956453D01*
X15043590Y10937982D01*
X15044788Y10937111D01*
X15155204Y10855620D01*
X15155205Y10855620D01*
X15155206Y10855619D01*
X15279121Y10812259D01*
X15308543Y10809500D01*
X15683456Y10809501D01*
X15683457Y10809501D01*
X15689340Y10810053D01*
X15712879Y10812259D01*
X15836794Y10855619D01*
X15885186Y10891335D01*
X15942418Y10933573D01*
X15942419Y10933575D01*
X15942423Y10933577D01*
X15945032Y10937111D01*
X15989662Y10997583D01*
X16020381Y11039206D01*
X16063741Y11163121D01*
X16066500Y11192543D01*
X16066499Y11359745D01*
X16085406Y11417935D01*
X16095496Y11429749D01*
X16149252Y11483504D01*
X16203769Y11511281D01*
X16219255Y11512500D01*
X16489378Y11512500D01*
X16547569Y11493593D01*
X16579942Y11453488D01*
X16585794Y11440235D01*
X16665235Y11360794D01*
X16768009Y11315415D01*
X16793135Y11312500D01*
X17582864Y11312501D01*
X17607991Y11315415D01*
X17607991Y11315416D01*
X17615390Y11316273D01*
X17615787Y11312849D01*
X17662196Y11310684D01*
X17697254Y11288061D01*
X17699956Y11285359D01*
X17812848Y11227837D01*
X17812852Y11227836D01*
X17906515Y11213001D01*
X18088000Y11213001D01*
X18088000Y11737999D01*
X18488000Y11737999D01*
X18488000Y11213002D01*
X18488001Y11213001D01*
X18669483Y11213001D01*
X18669485Y11213002D01*
X18763141Y11227834D01*
X18763151Y11227837D01*
X18876043Y11285359D01*
X18965641Y11374957D01*
X19023163Y11487849D01*
X19023164Y11487853D01*
X19038000Y11581516D01*
X19038000Y11737999D01*
X19037999Y11738000D01*
X18488001Y11738000D01*
X18488000Y11737999D01*
X18088000Y11737999D01*
X18088000Y12662999D01*
X18488000Y12662999D01*
X18488000Y12138001D01*
X18488001Y12138000D01*
X19037998Y12138000D01*
X19037999Y12138001D01*
X19037999Y12294484D01*
X19037998Y12294486D01*
X19023166Y12388142D01*
X19023163Y12388152D01*
X18965641Y12501044D01*
X18876043Y12590642D01*
X18763151Y12648164D01*
X18763147Y12648165D01*
X18669484Y12663000D01*
X18488001Y12663000D01*
X18488000Y12662999D01*
X18088000Y12662999D01*
X18087999Y12663000D01*
X17906517Y12663000D01*
X17906514Y12662999D01*
X17812858Y12648167D01*
X17812848Y12648164D01*
X17699955Y12590641D01*
X17699951Y12590638D01*
X17697249Y12587936D01*
X17693845Y12586203D01*
X17693650Y12586060D01*
X17693627Y12586092D01*
X17642731Y12560162D01*
X17615607Y12561630D01*
X17615387Y12559727D01*
X17582868Y12563500D01*
X16793139Y12563500D01*
X16793136Y12563499D01*
X16768009Y12560586D01*
X16665235Y12515206D01*
X16585793Y12435764D01*
X16579943Y12422513D01*
X16539143Y12376917D01*
X16489378Y12363500D01*
X16219256Y12363500D01*
X16161065Y12382407D01*
X16149252Y12392496D01*
X16093495Y12448253D01*
X16065718Y12502770D01*
X16064499Y12518257D01*
X16064499Y12683458D01*
X16061741Y12712876D01*
X16061741Y12712879D01*
X16018381Y12836794D01*
X16004000Y12856280D01*
X15940427Y12942419D01*
X15940419Y12942427D01*
X15876187Y12989832D01*
X15840594Y13039599D01*
X15841052Y13100783D01*
X15877385Y13150012D01*
X15935715Y13168484D01*
X15940526Y13168331D01*
X16255995Y13150615D01*
X16256000Y13150615D01*
X16256005Y13150615D01*
X16603683Y13170140D01*
X16603687Y13170141D01*
X16603693Y13170141D01*
X16947013Y13228473D01*
X17281644Y13324879D01*
X17603376Y13458145D01*
X17608215Y13460819D01*
X17691883Y13507061D01*
X17908164Y13626595D01*
X18192176Y13828112D01*
X18240168Y13871000D01*
X18322771Y13944818D01*
X18378759Y13969496D01*
X18388739Y13970000D01*
X19400500Y13970000D01*
X19458691Y13951093D01*
X19494655Y13901593D01*
X19499500Y13871000D01*
X19499500Y8046611D01*
X19480593Y7988420D01*
X19431093Y7952456D01*
X19369907Y7952456D01*
X19330496Y7976607D01*
X18959495Y8347608D01*
X18931718Y8402125D01*
X18930499Y8417612D01*
X18930499Y9784861D01*
X18930499Y9784864D01*
X18927585Y9809991D01*
X18882206Y9912765D01*
X18802765Y9992206D01*
X18699991Y10037585D01*
X18699990Y10037586D01*
X18699988Y10037586D01*
X18674868Y10040500D01*
X16885139Y10040500D01*
X16885136Y10040499D01*
X16860009Y10037586D01*
X16757235Y9992206D01*
X16677794Y9912765D01*
X16632414Y9809989D01*
X16629500Y9784870D01*
X16629500Y9285924D01*
X16610593Y9227733D01*
X16561093Y9191769D01*
X16499907Y9191769D01*
X16450407Y9227733D01*
X16434873Y9260301D01*
X16419102Y9319158D01*
X16326667Y9517386D01*
X16201216Y9696550D01*
X16046549Y9851217D01*
X15867386Y9976668D01*
X15669157Y10069103D01*
X15457887Y10125712D01*
X15440000Y10127278D01*
X15440000Y9351880D01*
X15432993Y9355925D01*
X15305826Y9390000D01*
X15174174Y9390000D01*
X15047007Y9355925D01*
X15040000Y9351880D01*
X15040000Y10127278D01*
X15022112Y10125712D01*
X14810843Y10069103D01*
X14612614Y9976668D01*
X14433450Y9851217D01*
X14278783Y9696550D01*
X14153332Y9517386D01*
X14060897Y9319158D01*
X14004286Y9107882D01*
X14002722Y9090001D01*
X14002723Y9090000D01*
X14778120Y9090000D01*
X14774075Y9082993D01*
X14740000Y8955826D01*
X14740000Y8824174D01*
X14774075Y8697007D01*
X14778120Y8690000D01*
X14002722Y8690000D01*
X14004286Y8672119D01*
X14060897Y8460843D01*
X14153332Y8262614D01*
X14278783Y8083451D01*
X14433450Y7928784D01*
X14612613Y7803333D01*
X14810842Y7710898D01*
X14984823Y7664280D01*
X15036137Y7630956D01*
X15058064Y7573835D01*
X15042229Y7514734D01*
X14994679Y7476229D01*
X14977392Y7471339D01*
X14923803Y7461322D01*
X14724980Y7384298D01*
X14724975Y7384295D01*
X14543699Y7272054D01*
X14543692Y7272048D01*
X14386135Y7128414D01*
X14386131Y7128411D01*
X14386128Y7128407D01*
X14257634Y6958255D01*
X14257632Y6958253D01*
X14254876Y6954602D01*
X14253717Y6955477D01*
X14211618Y6919860D01*
X14174161Y6912500D01*
X7791883Y6912500D01*
X7733692Y6931407D01*
X7697728Y6980907D01*
X7696355Y7037490D01*
X7697581Y7042001D01*
X7697585Y7042009D01*
X7700500Y7067135D01*
X7700499Y7556864D01*
X7697585Y7581991D01*
X7652206Y7684765D01*
X7652205Y7684766D01*
X7648500Y7693157D01*
X7650875Y7694206D01*
X7637462Y7739739D01*
X7650526Y7779949D01*
X7648500Y7780843D01*
X7652204Y7789234D01*
X7652206Y7789235D01*
X7697585Y7892009D01*
X7700500Y7917135D01*
X7700499Y8406864D01*
X7697585Y8431991D01*
X7652206Y8534765D01*
X7652205Y8534766D01*
X7648500Y8543157D01*
X7650875Y8544206D01*
X7637462Y8589739D01*
X7650526Y8629949D01*
X7648500Y8630843D01*
X7652204Y8639234D01*
X7652206Y8639235D01*
X7697585Y8742009D01*
X7700500Y8767135D01*
X7700499Y9256864D01*
X7697585Y9281991D01*
X7697584Y9281994D01*
X7690701Y9297583D01*
X7684492Y9358453D01*
X7711263Y9407577D01*
X7727639Y9423953D01*
X7785164Y9536851D01*
X7785164Y9536853D01*
X7800000Y9630516D01*
X7800000Y9661999D01*
X7799999Y9662000D01*
X6191161Y9662000D01*
X6132970Y9680907D01*
X6112619Y9700733D01*
X6016286Y9826277D01*
X6016285Y9826278D01*
X6016282Y9826282D01*
X6016277Y9826286D01*
X6016276Y9826287D01*
X5918072Y9901641D01*
X5890841Y9922536D01*
X5890840Y9922537D01*
X5890838Y9922538D01*
X5744766Y9983043D01*
X5744758Y9983045D01*
X5588001Y10003682D01*
X5587999Y10003682D01*
X5431241Y9983045D01*
X5431233Y9983043D01*
X5285161Y9922538D01*
X5285160Y9922538D01*
X5159723Y9826287D01*
X5159713Y9826277D01*
X5063462Y9700840D01*
X5063462Y9700839D01*
X5002957Y9554767D01*
X5002955Y9554759D01*
X4981471Y9391567D01*
X4979742Y9391795D01*
X4963411Y9341529D01*
X4953322Y9329716D01*
X3929517Y8305910D01*
X3929516Y8305909D01*
X3876793Y8214589D01*
X3876792Y8214589D01*
X3876793Y8214588D01*
X3849500Y8112727D01*
X3849500Y1692569D01*
X3830593Y1634378D01*
X3781093Y1598414D01*
X3719907Y1598414D01*
X3712825Y1601027D01*
X3712761Y1601045D01*
X3556001Y1621682D01*
X3555999Y1621682D01*
X3399241Y1601045D01*
X3399233Y1601043D01*
X3253161Y1540538D01*
X3253160Y1540538D01*
X3122570Y1440332D01*
X3121509Y1441714D01*
X3074416Y1417719D01*
X3058929Y1416500D01*
X2934403Y1416500D01*
X2876212Y1435407D01*
X2840248Y1484907D01*
X2840248Y1546093D01*
X2842939Y1553385D01*
X2871042Y1621233D01*
X2871042Y1621234D01*
X2871044Y1621238D01*
X2891682Y1778000D01*
X2871044Y1934762D01*
X2848715Y1988670D01*
X2810537Y2080839D01*
X2810537Y2080840D01*
X2714286Y2206277D01*
X2714285Y2206278D01*
X2714282Y2206282D01*
X2714277Y2206286D01*
X2714276Y2206287D01*
X2588838Y2302538D01*
X2442766Y2363043D01*
X2442758Y2363045D01*
X2286001Y2383682D01*
X2285999Y2383682D01*
X2129241Y2363045D01*
X2129233Y2363043D01*
X1983161Y2302538D01*
X1983160Y2302538D01*
X1857723Y2206287D01*
X1857713Y2206277D01*
X1835289Y2177052D01*
X1821651Y2159278D01*
X1821616Y2159233D01*
X1771192Y2124577D01*
X1743074Y2120500D01*
X1640378Y2120500D01*
X1582187Y2139407D01*
X1546223Y2188907D01*
X1546223Y2250093D01*
X1548914Y2257386D01*
X1601044Y2383238D01*
X1621682Y2540000D01*
X1601044Y2696762D01*
X1574559Y2760703D01*
X1540537Y2842839D01*
X1540537Y2842840D01*
X1444286Y2968277D01*
X1444285Y2968278D01*
X1444282Y2968282D01*
X1444277Y2968286D01*
X1444276Y2968287D01*
X1340391Y3048000D01*
X1318841Y3064536D01*
X1318840Y3064537D01*
X1318838Y3064538D01*
X1172766Y3125043D01*
X1172758Y3125045D01*
X1016001Y3145682D01*
X1015999Y3145682D01*
X859241Y3125045D01*
X859233Y3125043D01*
X713161Y3064538D01*
X713160Y3064538D01*
X582570Y2964332D01*
X581509Y2965714D01*
X534416Y2941719D01*
X518929Y2940500D01*
X-3857099Y2940500D01*
X-3915290Y2959407D01*
X-3927103Y2969496D01*
X-4650504Y3692897D01*
X-4678281Y3747414D01*
X-4679500Y3762901D01*
X-4679500Y4611999D01*
X-2649999Y4611999D01*
X-2649999Y4180515D01*
X-2635167Y4086859D01*
X-2635164Y4086849D01*
X-2577642Y3973957D01*
X-2488044Y3884359D01*
X-2375152Y3826837D01*
X-2375148Y3826836D01*
X-2281485Y3812001D01*
X-1850002Y3812001D01*
X-1850000Y3812002D01*
X-1850000Y4611999D01*
X-1450000Y4611999D01*
X-1450000Y3812002D01*
X-1449999Y3812001D01*
X-1018517Y3812001D01*
X-1018515Y3812002D01*
X-924857Y3826834D01*
X-924855Y3826834D01*
X-869947Y3854812D01*
X-809515Y3864384D01*
X-780053Y3854812D01*
X-725148Y3826836D01*
X-631485Y3812001D01*
X-200002Y3812001D01*
X-200000Y3812002D01*
X-200000Y4611999D01*
X200000Y4611999D01*
X200000Y3812002D01*
X200001Y3812001D01*
X631483Y3812001D01*
X631485Y3812002D01*
X725143Y3826834D01*
X725145Y3826834D01*
X780053Y3854812D01*
X840485Y3864384D01*
X869947Y3854812D01*
X924852Y3826836D01*
X1018515Y3812001D01*
X1449998Y3812001D01*
X1450000Y3812002D01*
X1450000Y4611999D01*
X1850000Y4611999D01*
X1850000Y3812002D01*
X1850001Y3812001D01*
X2281483Y3812001D01*
X2281485Y3812002D01*
X2375141Y3826834D01*
X2375151Y3826837D01*
X2488043Y3884359D01*
X2577641Y3973957D01*
X2635163Y4086849D01*
X2635164Y4086853D01*
X2650000Y4180516D01*
X2650000Y4611999D01*
X2649999Y4612000D01*
X1850001Y4612000D01*
X1850000Y4611999D01*
X1450000Y4611999D01*
X1449999Y4612000D01*
X200001Y4612000D01*
X200000Y4611999D01*
X-200000Y4611999D01*
X-200001Y4612000D01*
X-1449999Y4612000D01*
X-1450000Y4611999D01*
X-1850000Y4611999D01*
X-1850001Y4612000D01*
X-2649998Y4612000D01*
X-2649999Y4611999D01*
X-4679500Y4611999D01*
X-4679500Y5443485D01*
X-2650000Y5443485D01*
X-2650000Y5012001D01*
X-2649999Y5012000D01*
X-1850001Y5012000D01*
X-1850000Y5012001D01*
X-1850000Y6261999D01*
X-1450000Y6261999D01*
X-1450000Y5012001D01*
X-1449999Y5012000D01*
X-200001Y5012000D01*
X-200000Y5012001D01*
X-200000Y6261999D01*
X200000Y6261999D01*
X200000Y5012001D01*
X200001Y5012000D01*
X1449999Y5012000D01*
X1450000Y5012001D01*
X1450000Y6261999D01*
X1850000Y6261999D01*
X1850000Y5012001D01*
X1850001Y5012000D01*
X2649998Y5012000D01*
X2649999Y5012001D01*
X2649999Y5443484D01*
X2649998Y5443486D01*
X2635166Y5537144D01*
X2635166Y5537146D01*
X2607188Y5592053D01*
X2597616Y5652485D01*
X2607188Y5681947D01*
X2635164Y5736852D01*
X2635164Y5736853D01*
X2650000Y5830516D01*
X2650000Y6261999D01*
X2649999Y6262000D01*
X1850001Y6262000D01*
X1850000Y6261999D01*
X1450000Y6261999D01*
X1449999Y6262000D01*
X200001Y6262000D01*
X200000Y6261999D01*
X-200000Y6261999D01*
X-200001Y6262000D01*
X-1449999Y6262000D01*
X-1450000Y6261999D01*
X-1850000Y6261999D01*
X-1850001Y6262000D01*
X-2649998Y6262000D01*
X-2649999Y6261999D01*
X-2649999Y5830515D01*
X-2635167Y5736858D01*
X-2635165Y5736852D01*
X-2607189Y5681945D01*
X-2597618Y5621513D01*
X-2607189Y5592057D01*
X-2635164Y5537153D01*
X-2635165Y5537148D01*
X-2650000Y5443485D01*
X-4679500Y5443485D01*
X-4679500Y7093485D01*
X-2650000Y7093485D01*
X-2650000Y6662001D01*
X-2649999Y6662000D01*
X-1850001Y6662000D01*
X-1850000Y6662001D01*
X-1850000Y7911999D01*
X-1450000Y7911999D01*
X-1450000Y6662001D01*
X-1449999Y6662000D01*
X-200001Y6662000D01*
X-200000Y6662001D01*
X-200000Y7911999D01*
X200000Y7911999D01*
X200000Y6662001D01*
X200001Y6662000D01*
X1449999Y6662000D01*
X1450000Y6662001D01*
X1450000Y7911999D01*
X1850000Y7911999D01*
X1850000Y6662001D01*
X1850001Y6662000D01*
X2649998Y6662000D01*
X2649999Y6662001D01*
X2649999Y7093484D01*
X2649998Y7093486D01*
X2635166Y7187144D01*
X2635166Y7187146D01*
X2607188Y7242053D01*
X2597616Y7302485D01*
X2607188Y7331947D01*
X2635164Y7386852D01*
X2635164Y7386853D01*
X2650000Y7480516D01*
X2650000Y7911999D01*
X2649999Y7912000D01*
X1850001Y7912000D01*
X1850000Y7911999D01*
X1450000Y7911999D01*
X1449999Y7912000D01*
X200001Y7912000D01*
X200000Y7911999D01*
X-200000Y7911999D01*
X-200001Y7912000D01*
X-1449999Y7912000D01*
X-1450000Y7911999D01*
X-1850000Y7911999D01*
X-1850001Y7912000D01*
X-2649998Y7912000D01*
X-2649999Y7911999D01*
X-2649999Y7480515D01*
X-2635167Y7386858D01*
X-2635165Y7386852D01*
X-2607189Y7331945D01*
X-2597618Y7271513D01*
X-2607189Y7242057D01*
X-2635164Y7187153D01*
X-2635165Y7187148D01*
X-2650000Y7093485D01*
X-4679500Y7093485D01*
X-4679500Y8594727D01*
X-4694990Y8652536D01*
X-4694990Y8652538D01*
X-4706791Y8696583D01*
X-4706795Y8696591D01*
X-4733869Y8743485D01*
X-2650000Y8743485D01*
X-2650000Y8312001D01*
X-2649999Y8312000D01*
X-1850001Y8312000D01*
X-1850000Y8312001D01*
X-1850000Y9111999D01*
X-1450000Y9111999D01*
X-1450000Y8312001D01*
X-1449999Y8312000D01*
X-200001Y8312000D01*
X-200000Y8312001D01*
X-200000Y9111999D01*
X200000Y9111999D01*
X200000Y8312001D01*
X200001Y8312000D01*
X1449999Y8312000D01*
X1450000Y8312001D01*
X1450000Y9111999D01*
X1850000Y9111999D01*
X1850000Y8312001D01*
X1850001Y8312000D01*
X2649998Y8312000D01*
X2649999Y8312001D01*
X2649999Y8743484D01*
X2649998Y8743486D01*
X2635166Y8837142D01*
X2635163Y8837152D01*
X2577641Y8950044D01*
X2488043Y9039642D01*
X2375151Y9097164D01*
X2375147Y9097165D01*
X2281484Y9112000D01*
X1850001Y9112000D01*
X1850000Y9111999D01*
X1450000Y9111999D01*
X1449999Y9112000D01*
X1018516Y9112000D01*
X1018514Y9111999D01*
X924857Y9097167D01*
X924851Y9097165D01*
X869944Y9069189D01*
X809512Y9059618D01*
X780056Y9069189D01*
X725152Y9097164D01*
X725147Y9097165D01*
X631484Y9112000D01*
X200001Y9112000D01*
X200000Y9111999D01*
X-200000Y9111999D01*
X-200001Y9112000D01*
X-631484Y9112000D01*
X-631486Y9111999D01*
X-725143Y9097167D01*
X-725149Y9097165D01*
X-780056Y9069189D01*
X-840488Y9059618D01*
X-869944Y9069189D01*
X-924848Y9097164D01*
X-924853Y9097165D01*
X-1018516Y9112000D01*
X-1449999Y9112000D01*
X-1450000Y9111999D01*
X-1850000Y9111999D01*
X-1850001Y9112000D01*
X-2281484Y9112000D01*
X-2281486Y9111999D01*
X-2375142Y9097167D01*
X-2375152Y9097164D01*
X-2488044Y9039642D01*
X-2577642Y8950044D01*
X-2635164Y8837152D01*
X-2635165Y8837148D01*
X-2650000Y8743485D01*
X-4733869Y8743485D01*
X-4759517Y8787909D01*
X-4759519Y8787911D01*
X-4759520Y8787913D01*
X-6154087Y10182480D01*
X-6154090Y10182482D01*
X-6154092Y10182484D01*
X-6245407Y10235205D01*
X-6245410Y10235206D01*
X-6245412Y10235207D01*
X-6266424Y10240837D01*
X-6317736Y10274161D01*
X-6339662Y10331282D01*
X-6331363Y10376449D01*
X-6302415Y10442009D01*
X-6299500Y10467135D01*
X-6299501Y10956864D01*
X-6302415Y10981991D01*
X-6302416Y10981994D01*
X-6309299Y10997583D01*
X-6315508Y11058453D01*
X-6288737Y11107577D01*
X-6272361Y11123953D01*
X-6214836Y11236851D01*
X-6214836Y11236853D01*
X-6200000Y11330516D01*
X-6200000Y11361999D01*
X-6200001Y11362000D01*
X-7799998Y11362000D01*
X-7799999Y11361999D01*
X-7799999Y11330521D01*
X-7799439Y11326984D01*
X-7809013Y11266552D01*
X-7852279Y11223289D01*
X-7897221Y11212500D01*
X-7928437Y11212500D01*
X-7986628Y11231407D01*
X-7994087Y11237398D01*
X-8009759Y11251282D01*
X-8009760Y11251283D01*
X-8087360Y11292011D01*
X-8149636Y11324697D01*
X-8303013Y11362500D01*
X-8303015Y11362500D01*
X-8460985Y11362500D01*
X-8538321Y11343439D01*
X-8569627Y11335723D01*
X-8630652Y11340156D01*
X-8677416Y11379612D01*
X-8692058Y11439019D01*
X-8691612Y11443653D01*
X-8690129Y11456000D01*
X-9299000Y11456000D01*
X-9357191Y11474907D01*
X-9393155Y11524407D01*
X-9398000Y11555000D01*
X-9398000Y11655999D01*
X-9398001Y11656000D01*
X-9499000Y11656000D01*
X-9557191Y11674907D01*
X-9593155Y11724407D01*
X-9598000Y11755000D01*
X-9598000Y11793485D01*
X-7800000Y11793485D01*
X-7800000Y11762001D01*
X-7799999Y11762000D01*
X-7200001Y11762000D01*
X-7200000Y11762001D01*
X-7200000Y12211999D01*
X-6800000Y12211999D01*
X-6800000Y11762001D01*
X-6799999Y11762000D01*
X-6200002Y11762000D01*
X-6200001Y11762001D01*
X-6200001Y11793484D01*
X-6200002Y11793486D01*
X-6214834Y11887144D01*
X-6214834Y11887146D01*
X-6242812Y11942053D01*
X-6252384Y12002485D01*
X-6242812Y12031947D01*
X-6214836Y12086852D01*
X-6214836Y12086853D01*
X-6200000Y12180516D01*
X-6200000Y12211999D01*
X-6200001Y12212000D01*
X-6799999Y12212000D01*
X-6800000Y12211999D01*
X-7200000Y12211999D01*
X-7200001Y12212000D01*
X-7799998Y12212000D01*
X-7799999Y12211999D01*
X-7799999Y12180515D01*
X-7785167Y12086858D01*
X-7785165Y12086852D01*
X-7757189Y12031945D01*
X-7747618Y11971513D01*
X-7757189Y11942057D01*
X-7785164Y11887153D01*
X-7785165Y11887148D01*
X-7800000Y11793485D01*
X-9598000Y11793485D01*
X-9598000Y12335999D01*
X-9198000Y12335999D01*
X-9198000Y11856001D01*
X-9197999Y11856000D01*
X-8690130Y11856000D01*
X-8698422Y11925055D01*
X-8698423Y11925061D01*
X-8752879Y12063149D01*
X-8842570Y12181425D01*
X-8842576Y12181431D01*
X-8960852Y12271122D01*
X-9098944Y12325579D01*
X-9185719Y12336000D01*
X-9197999Y12336000D01*
X-9198000Y12335999D01*
X-9598000Y12335999D01*
X-9598000Y12336000D01*
X-9598001Y12336001D01*
X-9610271Y12336000D01*
X-9697054Y12325579D01*
X-9697061Y12325578D01*
X-9835151Y12271122D01*
X-9888182Y12230907D01*
X-9945973Y12210812D01*
X-10004539Y12228524D01*
X-10041508Y12277277D01*
X-10047000Y12309791D01*
X-10047000Y12480106D01*
X-10049789Y12515547D01*
X-10049791Y12515553D01*
X-10086959Y12643485D01*
X-7800000Y12643485D01*
X-7800000Y12612001D01*
X-7799999Y12612000D01*
X-7200001Y12612000D01*
X-7200000Y12612001D01*
X-7200000Y13261999D01*
X-6800000Y13261999D01*
X-6800000Y12612001D01*
X-6799999Y12612000D01*
X-6200002Y12612000D01*
X-6178997Y12633005D01*
X-6178993Y12633008D01*
X-6150000Y12662002D01*
X-6150000Y13261999D01*
X-5750000Y13261999D01*
X-5750000Y12662002D01*
X-5749999Y12662001D01*
X-5718517Y12662001D01*
X-5718515Y12662002D01*
X-5624857Y12676834D01*
X-5624855Y12676834D01*
X-5569947Y12704812D01*
X-5509515Y12714384D01*
X-5480053Y12704812D01*
X-5425148Y12676836D01*
X-5331484Y12662001D01*
X-5300001Y12662001D01*
X-5300000Y12662002D01*
X-5300000Y13261999D01*
X-4900000Y13261999D01*
X-4900000Y12662002D01*
X-4899999Y12662001D01*
X-4868517Y12662001D01*
X-4868515Y12662002D01*
X-4774857Y12676834D01*
X-4774855Y12676834D01*
X-4719947Y12704812D01*
X-4659515Y12714384D01*
X-4630053Y12704812D01*
X-4575148Y12676836D01*
X-4481484Y12662001D01*
X-4450001Y12662001D01*
X-4450000Y12662002D01*
X-4450000Y13261999D01*
X-4050000Y13261999D01*
X-4050000Y12662002D01*
X-4049999Y12662001D01*
X-4018517Y12662001D01*
X-4018515Y12662002D01*
X-3924857Y12676834D01*
X-3924855Y12676834D01*
X-3869947Y12704812D01*
X-3809515Y12714384D01*
X-3780053Y12704812D01*
X-3725148Y12676836D01*
X-3631484Y12662001D01*
X-3600001Y12662001D01*
X-3600000Y12662002D01*
X-3600000Y13261999D01*
X-3200000Y13261999D01*
X-3200000Y12662002D01*
X-3199999Y12662001D01*
X-3168517Y12662001D01*
X-3168515Y12662002D01*
X-3074857Y12676834D01*
X-3074855Y12676834D01*
X-3019947Y12704812D01*
X-2959515Y12714384D01*
X-2930053Y12704812D01*
X-2875148Y12676836D01*
X-2781484Y12662001D01*
X-2750001Y12662001D01*
X-2750000Y12662002D01*
X-2750000Y13261999D01*
X-2350000Y13261999D01*
X-2350000Y12662002D01*
X-2349999Y12662001D01*
X-2318517Y12662001D01*
X-2318515Y12662002D01*
X-2224857Y12676834D01*
X-2224855Y12676834D01*
X-2169947Y12704812D01*
X-2109515Y12714384D01*
X-2080053Y12704812D01*
X-2025148Y12676836D01*
X-1931484Y12662001D01*
X-1900001Y12662001D01*
X-1900000Y12662002D01*
X-1900000Y13261999D01*
X-1500000Y13261999D01*
X-1500000Y12662002D01*
X-1499999Y12662001D01*
X-1468517Y12662001D01*
X-1468515Y12662002D01*
X-1374857Y12676834D01*
X-1374855Y12676834D01*
X-1319947Y12704812D01*
X-1259515Y12714384D01*
X-1230053Y12704812D01*
X-1175148Y12676836D01*
X-1081484Y12662001D01*
X-1050001Y12662001D01*
X-1050000Y12662002D01*
X-1050000Y13261999D01*
X-650000Y13261999D01*
X-650000Y12662002D01*
X-649999Y12662001D01*
X-618517Y12662001D01*
X-618515Y12662002D01*
X-524857Y12676834D01*
X-524855Y12676834D01*
X-469947Y12704812D01*
X-409515Y12714384D01*
X-380053Y12704812D01*
X-325148Y12676836D01*
X-231484Y12662001D01*
X-200001Y12662001D01*
X-200000Y12662002D01*
X-200000Y13261999D01*
X200000Y13261999D01*
X200000Y12662002D01*
X200001Y12662001D01*
X231483Y12662001D01*
X231485Y12662002D01*
X325143Y12676834D01*
X325145Y12676834D01*
X380053Y12704812D01*
X440485Y12714384D01*
X469947Y12704812D01*
X524852Y12676836D01*
X618516Y12662001D01*
X649999Y12662001D01*
X650000Y12662002D01*
X650000Y13261999D01*
X1050000Y13261999D01*
X1050000Y12662002D01*
X1050001Y12662001D01*
X1081483Y12662001D01*
X1081485Y12662002D01*
X1175143Y12676834D01*
X1175145Y12676834D01*
X1230053Y12704812D01*
X1290485Y12714384D01*
X1319947Y12704812D01*
X1374852Y12676836D01*
X1468516Y12662001D01*
X1499999Y12662001D01*
X1500000Y12662002D01*
X1500000Y13261999D01*
X1900000Y13261999D01*
X1900000Y12662002D01*
X1900001Y12662001D01*
X1931483Y12662001D01*
X1931485Y12662002D01*
X2025143Y12676834D01*
X2025145Y12676834D01*
X2080053Y12704812D01*
X2140485Y12714384D01*
X2169947Y12704812D01*
X2224852Y12676836D01*
X2318516Y12662001D01*
X2349999Y12662001D01*
X2350000Y12662002D01*
X2350000Y13261999D01*
X2750000Y13261999D01*
X2750000Y12662002D01*
X2750001Y12662001D01*
X2781483Y12662001D01*
X2781485Y12662002D01*
X2875143Y12676834D01*
X2875145Y12676834D01*
X2930053Y12704812D01*
X2990485Y12714384D01*
X3019947Y12704812D01*
X3074852Y12676836D01*
X3168516Y12662001D01*
X3199999Y12662001D01*
X3200000Y12662002D01*
X3200000Y13261999D01*
X3600000Y13261999D01*
X3600000Y12662002D01*
X3600001Y12662001D01*
X3631483Y12662001D01*
X3631485Y12662002D01*
X3725143Y12676834D01*
X3725145Y12676834D01*
X3780053Y12704812D01*
X3840485Y12714384D01*
X3869947Y12704812D01*
X3924852Y12676836D01*
X4018516Y12662001D01*
X4049999Y12662001D01*
X4050000Y12662002D01*
X4050000Y13261999D01*
X4049999Y13262000D01*
X3600001Y13262000D01*
X3600000Y13261999D01*
X3200000Y13261999D01*
X3199999Y13262000D01*
X2750001Y13262000D01*
X2750000Y13261999D01*
X2350000Y13261999D01*
X2349999Y13262000D01*
X1900001Y13262000D01*
X1900000Y13261999D01*
X1500000Y13261999D01*
X1499999Y13262000D01*
X1050001Y13262000D01*
X1050000Y13261999D01*
X650000Y13261999D01*
X649999Y13262000D01*
X200001Y13262000D01*
X200000Y13261999D01*
X-200000Y13261999D01*
X-200001Y13262000D01*
X-649999Y13262000D01*
X-650000Y13261999D01*
X-1050000Y13261999D01*
X-1050001Y13262000D01*
X-1499999Y13262000D01*
X-1500000Y13261999D01*
X-1900000Y13261999D01*
X-1900001Y13262000D01*
X-2349999Y13262000D01*
X-2350000Y13261999D01*
X-2750000Y13261999D01*
X-2750001Y13262000D01*
X-3199999Y13262000D01*
X-3200000Y13261999D01*
X-3600000Y13261999D01*
X-3600001Y13262000D01*
X-4049999Y13262000D01*
X-4050000Y13261999D01*
X-4450000Y13261999D01*
X-4450001Y13262000D01*
X-4899999Y13262000D01*
X-4900000Y13261999D01*
X-5300000Y13261999D01*
X-5300001Y13262000D01*
X-5749999Y13262000D01*
X-5750000Y13261999D01*
X-6150000Y13261999D01*
X-6150001Y13262000D01*
X-6799999Y13262000D01*
X-6800000Y13261999D01*
X-7200000Y13261999D01*
X-7200001Y13262000D01*
X-7799998Y13262000D01*
X-7799999Y13261999D01*
X-7799999Y13030515D01*
X-7785167Y12936858D01*
X-7785165Y12936852D01*
X-7757189Y12881945D01*
X-7747618Y12821513D01*
X-7757189Y12792057D01*
X-7785164Y12737153D01*
X-7785165Y12737148D01*
X-7800000Y12643485D01*
X-10086959Y12643485D01*
X-10093846Y12667190D01*
X-10174228Y12803110D01*
X-10285891Y12914773D01*
X-10421811Y12995155D01*
X-10573448Y13039210D01*
X-10573454Y13039212D01*
X-10608894Y13042000D01*
X-10721999Y13042000D01*
X-10722000Y13041999D01*
X-10722000Y12291000D01*
X-10740907Y12232809D01*
X-10790407Y12196845D01*
X-10821000Y12192000D01*
X-10921999Y12192000D01*
X-10922000Y12191999D01*
X-10922000Y12091000D01*
X-10940907Y12032809D01*
X-10990407Y11996845D01*
X-11021000Y11992000D01*
X-11796999Y11992000D01*
X-11797000Y11991999D01*
X-11797000Y11903895D01*
X-11794212Y11868454D01*
X-11794210Y11868448D01*
X-11750155Y11716811D01*
X-11669773Y11580891D01*
X-11558110Y11469228D01*
X-11510492Y11441067D01*
X-11470029Y11395171D01*
X-11464271Y11334257D01*
X-11495417Y11281592D01*
X-11501067Y11276970D01*
X-11547073Y11242083D01*
X-11547082Y11242074D01*
X-11551930Y11235680D01*
X-11602156Y11200738D01*
X-11630813Y11196500D01*
X-12098107Y11196500D01*
X-12229892Y11196500D01*
X-12307800Y11175625D01*
X-12357191Y11162391D01*
X-12471310Y11096504D01*
X-12471315Y11096500D01*
X-12984713Y10583103D01*
X-13031024Y10556984D01*
X-13186364Y10518697D01*
X-13326242Y10445282D01*
X-13444485Y10340529D01*
X-13534220Y10210524D01*
X-13590237Y10062818D01*
X-13590238Y10062817D01*
X-13609278Y9906002D01*
X-13609278Y9905999D01*
X-13590238Y9749184D01*
X-13590237Y9749182D01*
X-13555734Y9658206D01*
X-13534220Y9601477D01*
X-13444485Y9471472D01*
X-13444484Y9471471D01*
X-13444483Y9471470D01*
X-13326240Y9366717D01*
X-13194518Y9297583D01*
X-13186365Y9293304D01*
X-13126095Y9278449D01*
X-13074120Y9246166D01*
X-13051047Y9189497D01*
X-13065689Y9130090D01*
X-13079783Y9112322D01*
X-13800997Y8391109D01*
X-13855514Y8363332D01*
X-13915946Y8372903D01*
X-13959211Y8416168D01*
X-13970001Y8461113D01*
X-13970001Y8675000D01*
X-14758120Y8675000D01*
X-14754075Y8682007D01*
X-14720000Y8809174D01*
X-14720000Y8940826D01*
X-14754075Y9067993D01*
X-14758120Y9075000D01*
X-13970002Y9075000D01*
X-13970001Y9075001D01*
X-13970001Y9756484D01*
X-13970002Y9756486D01*
X-13984834Y9850142D01*
X-13984837Y9850152D01*
X-14042359Y9963044D01*
X-14131957Y10052642D01*
X-14244849Y10110164D01*
X-14244853Y10110165D01*
X-14338516Y10125000D01*
X-15019999Y10125000D01*
X-15020000Y10124999D01*
X-15020000Y9336880D01*
X-15027007Y9340925D01*
X-15154174Y9375000D01*
X-15285826Y9375000D01*
X-15412993Y9340925D01*
X-15420000Y9336880D01*
X-15420000Y10124999D01*
X-15420001Y10125000D01*
X-16101484Y10125000D01*
X-16101486Y10124999D01*
X-16195142Y10110167D01*
X-16195152Y10110164D01*
X-16308044Y10052642D01*
X-16397642Y9963044D01*
X-16455164Y9850152D01*
X-16455165Y9850148D01*
X-16470000Y9756485D01*
X-16470000Y9254903D01*
X-16488907Y9196712D01*
X-16538407Y9160748D01*
X-16599593Y9160748D01*
X-16649093Y9196712D01*
X-16664220Y9227807D01*
X-16682595Y9292389D01*
X-16777634Y9483255D01*
X-16906128Y9653407D01*
X-17011187Y9749182D01*
X-17063693Y9797048D01*
X-17063700Y9797054D01*
X-17244976Y9909295D01*
X-17244981Y9909298D01*
X-17279158Y9922538D01*
X-17443802Y9986321D01*
X-17443803Y9986322D01*
X-17443805Y9986322D01*
X-17653390Y10025500D01*
X-17866610Y10025500D01*
X-18076196Y9986322D01*
X-18275020Y9909298D01*
X-18275025Y9909295D01*
X-18456301Y9797054D01*
X-18456308Y9797048D01*
X-18613865Y9653414D01*
X-18613869Y9653411D01*
X-18613872Y9653407D01*
X-18613875Y9653403D01*
X-18742365Y9483257D01*
X-18742370Y9483248D01*
X-18837404Y9292392D01*
X-18837405Y9292389D01*
X-18846535Y9260301D01*
X-18895756Y9087312D01*
X-18915429Y8875000D01*
X-18895756Y8662689D01*
X-18863915Y8550780D01*
X-18866176Y8489637D01*
X-18889132Y8453685D01*
X-19330496Y8012320D01*
X-19385013Y7984542D01*
X-19445445Y7994113D01*
X-19488710Y8037378D01*
X-19499500Y8082323D01*
X-19499500Y11737999D01*
X-19079999Y11737999D01*
X-19079999Y11581515D01*
X-19065167Y11487859D01*
X-19065164Y11487849D01*
X-19007642Y11374957D01*
X-18918044Y11285359D01*
X-18805152Y11227837D01*
X-18805148Y11227836D01*
X-18711485Y11213001D01*
X-18530000Y11213001D01*
X-18530000Y11737999D01*
X-18530001Y11738000D01*
X-19079998Y11738000D01*
X-19079999Y11737999D01*
X-19499500Y11737999D01*
X-19499500Y12294485D01*
X-19080000Y12294485D01*
X-19080000Y12138001D01*
X-19079999Y12138000D01*
X-18530001Y12138000D01*
X-18530000Y12138001D01*
X-18530000Y12662999D01*
X-18130000Y12662999D01*
X-18130000Y11213002D01*
X-18129999Y11213001D01*
X-17948517Y11213001D01*
X-17948515Y11213002D01*
X-17854859Y11227834D01*
X-17854852Y11227836D01*
X-17741956Y11285360D01*
X-17739259Y11288056D01*
X-17735858Y11289790D01*
X-17735653Y11289938D01*
X-17735630Y11289906D01*
X-17684744Y11315837D01*
X-17657611Y11314351D01*
X-17657387Y11316273D01*
X-17649992Y11315416D01*
X-17649991Y11315415D01*
X-17624865Y11312500D01*
X-16835136Y11312501D01*
X-16810009Y11315415D01*
X-16707235Y11360794D01*
X-16627794Y11440235D01*
X-16610903Y11478489D01*
X-16570102Y11524084D01*
X-16520339Y11537500D01*
X-16063195Y11537500D01*
X-16005004Y11518593D01*
X-15983540Y11497288D01*
X-15942427Y11441582D01*
X-15942422Y11441576D01*
X-15942421Y11441575D01*
X-15836796Y11363620D01*
X-15836795Y11363620D01*
X-15836794Y11363619D01*
X-15712879Y11320259D01*
X-15683457Y11317500D01*
X-15308544Y11317501D01*
X-15308543Y11317501D01*
X-15302660Y11318053D01*
X-15279121Y11320259D01*
X-15155206Y11363619D01*
X-15087670Y11413463D01*
X-15044788Y11445111D01*
X-14986741Y11464453D01*
X-14928410Y11445982D01*
X-14927212Y11445111D01*
X-14816796Y11363620D01*
X-14816795Y11363620D01*
X-14816794Y11363619D01*
X-14692879Y11320259D01*
X-14663457Y11317500D01*
X-14288544Y11317501D01*
X-14288543Y11317501D01*
X-14282660Y11318053D01*
X-14259121Y11320259D01*
X-14135206Y11363619D01*
X-14029577Y11441577D01*
X-13988460Y11497288D01*
X-13938692Y11532881D01*
X-13908805Y11537500D01*
X-13705071Y11537500D01*
X-13646880Y11518593D01*
X-13638319Y11511281D01*
X-13636282Y11509718D01*
X-13510841Y11413464D01*
X-13364762Y11352956D01*
X-13247191Y11337478D01*
X-13208001Y11332318D01*
X-13208000Y11332318D01*
X-13207999Y11332318D01*
X-13176648Y11336446D01*
X-13051238Y11352956D01*
X-12905159Y11413464D01*
X-12779718Y11509718D01*
X-12683464Y11635159D01*
X-12622956Y11781238D01*
X-12602318Y11938000D01*
X-12602852Y11942053D01*
X-12608177Y11982504D01*
X-12622956Y12094762D01*
X-12640866Y12138001D01*
X-12683463Y12240839D01*
X-12683463Y12240840D01*
X-12779714Y12366277D01*
X-12779715Y12366278D01*
X-12779718Y12366282D01*
X-12779723Y12366286D01*
X-12779724Y12366287D01*
X-12905162Y12462538D01*
X-12947575Y12480106D01*
X-11797000Y12480106D01*
X-11797000Y12392001D01*
X-11796999Y12392000D01*
X-11122001Y12392000D01*
X-11122000Y12392001D01*
X-11122000Y13041999D01*
X-11122001Y13042000D01*
X-11235106Y13042000D01*
X-11270547Y13039212D01*
X-11270553Y13039210D01*
X-11422190Y12995155D01*
X-11558110Y12914773D01*
X-11669773Y12803110D01*
X-11750155Y12667190D01*
X-11794210Y12515553D01*
X-11794212Y12515547D01*
X-11797000Y12480106D01*
X-12947575Y12480106D01*
X-13051234Y12523043D01*
X-13051242Y12523045D01*
X-13207999Y12543682D01*
X-13208001Y12543682D01*
X-13364759Y12523045D01*
X-13364767Y12523043D01*
X-13510839Y12462538D01*
X-13510840Y12462538D01*
X-13641430Y12362332D01*
X-13642491Y12363714D01*
X-13689584Y12339719D01*
X-13705071Y12338500D01*
X-13908805Y12338500D01*
X-13966996Y12357407D01*
X-13988460Y12378712D01*
X-13998634Y12392497D01*
X-14029577Y12434423D01*
X-14029579Y12434424D01*
X-14029579Y12434425D01*
X-14029580Y12434426D01*
X-14135205Y12512381D01*
X-14259117Y12555740D01*
X-14259126Y12555742D01*
X-14288535Y12558500D01*
X-14663458Y12558500D01*
X-14692876Y12555742D01*
X-14692881Y12555741D01*
X-14816796Y12512381D01*
X-14927212Y12430890D01*
X-14985260Y12411548D01*
X-15043590Y12430019D01*
X-15044788Y12430890D01*
X-15155205Y12512381D01*
X-15279117Y12555740D01*
X-15279126Y12555742D01*
X-15308535Y12558500D01*
X-15683458Y12558500D01*
X-15712876Y12555742D01*
X-15712881Y12555741D01*
X-15836796Y12512381D01*
X-15942421Y12434426D01*
X-15942422Y12434425D01*
X-15983540Y12378712D01*
X-16033308Y12343119D01*
X-16063195Y12338500D01*
X-16520339Y12338500D01*
X-16578530Y12357407D01*
X-16610903Y12397511D01*
X-16625257Y12430019D01*
X-16627794Y12435765D01*
X-16707235Y12515206D01*
X-16810009Y12560585D01*
X-16810010Y12560586D01*
X-16810012Y12560586D01*
X-16835132Y12563500D01*
X-17624861Y12563500D01*
X-17624864Y12563499D01*
X-17657389Y12559727D01*
X-17657781Y12563102D01*
X-17704489Y12565427D01*
X-17739255Y12587940D01*
X-17741957Y12590642D01*
X-17854849Y12648164D01*
X-17854853Y12648165D01*
X-17948516Y12663000D01*
X-18129999Y12663000D01*
X-18130000Y12662999D01*
X-18530000Y12662999D01*
X-18530001Y12663000D01*
X-18711483Y12663000D01*
X-18711486Y12662999D01*
X-18805142Y12648167D01*
X-18805152Y12648164D01*
X-18918044Y12590642D01*
X-19007642Y12501044D01*
X-19065164Y12388152D01*
X-19065165Y12388148D01*
X-19080000Y12294485D01*
X-19499500Y12294485D01*
X-19499500Y13871000D01*
X-19480593Y13929191D01*
X-19431093Y13965155D01*
X-19400500Y13970000D01*
X-18388739Y13970000D01*
X-18330548Y13951093D01*
G37*
%TD.AperFunction*%
%TA.AperFunction,Conductor*%
G36*
X12672081Y3451873D02*
G01*
X12687826Y3439071D01*
X13947386Y2179511D01*
X13982440Y2159273D01*
X14050114Y2120201D01*
X14164691Y2089500D01*
X14218341Y2089500D01*
X14276532Y2070593D01*
X14312496Y2021093D01*
X14312496Y1959907D01*
X14297345Y1930842D01*
X14267541Y1891376D01*
X14257636Y1878258D01*
X14257630Y1878249D01*
X14233504Y1829795D01*
X14207714Y1778000D01*
X14206405Y1775372D01*
X14163543Y1731710D01*
X14117784Y1720500D01*
X11335613Y1720500D01*
X11277422Y1739407D01*
X11265609Y1749496D01*
X10756608Y2258497D01*
X10728831Y2313014D01*
X10738402Y2373446D01*
X10781667Y2416711D01*
X10826612Y2427501D01*
X10857457Y2427501D01*
X10863340Y2428053D01*
X10886879Y2430259D01*
X11010794Y2473619D01*
X11058353Y2508719D01*
X11084688Y2528155D01*
X11142735Y2547497D01*
X11143476Y2547500D01*
X11484437Y2547500D01*
X11542628Y2528593D01*
X11550087Y2522602D01*
X11565760Y2508717D01*
X11705635Y2435304D01*
X11859015Y2397500D01*
X11859018Y2397500D01*
X12016982Y2397500D01*
X12016985Y2397500D01*
X12170365Y2435304D01*
X12310240Y2508717D01*
X12428483Y2613470D01*
X12518220Y2743477D01*
X12574237Y2891182D01*
X12593278Y3048000D01*
X12574237Y3204818D01*
X12525260Y3333958D01*
X12522305Y3395070D01*
X12555836Y3446250D01*
X12613045Y3467946D01*
X12672081Y3451873D01*
G37*
%TD.AperFunction*%
%TA.AperFunction,Conductor*%
G36*
X-6151075Y6589635D02*
G01*
X-6150456Y6590706D01*
X-6144839Y6587463D01*
X-6066616Y6555062D01*
X-5998762Y6526956D01*
X-5881191Y6511478D01*
X-5842001Y6506318D01*
X-5842000Y6506318D01*
X-5841999Y6506318D01*
X-5810648Y6510446D01*
X-5685238Y6526956D01*
X-5617384Y6555063D01*
X-5556390Y6559863D01*
X-5504220Y6527894D01*
X-5480805Y6471366D01*
X-5480500Y6463598D01*
X-5480500Y3561500D01*
X-5499407Y3503309D01*
X-5548907Y3467345D01*
X-5579500Y3462500D01*
X-6229742Y3462500D01*
X-6287933Y3481407D01*
X-6323897Y3530907D01*
X-6323897Y3592093D01*
X-6320307Y3601487D01*
X-6309441Y3626097D01*
X-6302415Y3642009D01*
X-6299500Y3667135D01*
X-6299501Y4156864D01*
X-6302415Y4181991D01*
X-6347794Y4284765D01*
X-6347795Y4284766D01*
X-6351500Y4293157D01*
X-6349125Y4294206D01*
X-6362538Y4339739D01*
X-6349474Y4379949D01*
X-6351500Y4380843D01*
X-6347796Y4389234D01*
X-6347794Y4389235D01*
X-6302415Y4492009D01*
X-6299500Y4517135D01*
X-6299501Y5006864D01*
X-6302415Y5031991D01*
X-6347794Y5134765D01*
X-6347795Y5134766D01*
X-6351500Y5143157D01*
X-6349125Y5144206D01*
X-6362538Y5189739D01*
X-6349474Y5229949D01*
X-6351500Y5230843D01*
X-6347796Y5239234D01*
X-6347794Y5239235D01*
X-6302415Y5342009D01*
X-6299500Y5367135D01*
X-6299501Y5856864D01*
X-6302415Y5881991D01*
X-6347794Y5984765D01*
X-6347795Y5984766D01*
X-6351500Y5993157D01*
X-6349125Y5994206D01*
X-6362538Y6039739D01*
X-6349474Y6079949D01*
X-6351500Y6080843D01*
X-6347796Y6089234D01*
X-6347794Y6089235D01*
X-6302415Y6192009D01*
X-6299500Y6217135D01*
X-6299501Y6505389D01*
X-6280594Y6563577D01*
X-6231094Y6599541D01*
X-6169909Y6599542D01*
X-6151075Y6589635D01*
G37*
%TD.AperFunction*%
%TA.AperFunction,Conductor*%
G36*
X-7733692Y7692593D02*
G01*
X-7697728Y7643093D01*
X-7696355Y7586510D01*
X-7697586Y7581987D01*
X-7700500Y7556870D01*
X-7700500Y7067140D01*
X-7700499Y7067137D01*
X-7697585Y7042008D01*
X-7696356Y7037491D01*
X-7699323Y6976378D01*
X-7737644Y6928680D01*
X-7791883Y6912500D01*
X-11631309Y6912500D01*
X-11734440Y6884866D01*
X-11745886Y6881799D01*
X-11848614Y6822490D01*
X-14170189Y4500916D01*
X-14224706Y4473139D01*
X-14285138Y4482710D01*
X-14319195Y4511259D01*
X-14347447Y4548670D01*
X-14366121Y4573399D01*
X-14366125Y4573403D01*
X-14366128Y4573407D01*
X-14399672Y4603987D01*
X-14429938Y4657162D01*
X-14423167Y4717972D01*
X-14402985Y4747146D01*
X-11467626Y7682504D01*
X-11413109Y7710281D01*
X-11397622Y7711500D01*
X-7791883Y7711500D01*
X-7733692Y7692593D01*
G37*
%TD.AperFunction*%
%TA.AperFunction,Conductor*%
G36*
X14181452Y13951093D02*
G01*
X14189229Y13944818D01*
X14319812Y13828122D01*
X14319820Y13828115D01*
X14319823Y13828113D01*
X14319824Y13828112D01*
X14603836Y13626595D01*
X14603840Y13626593D01*
X14908620Y13458147D01*
X14908619Y13458147D01*
X14908624Y13458145D01*
X15230356Y13324879D01*
X15453366Y13260631D01*
X15504048Y13226353D01*
X15524903Y13168832D01*
X15507965Y13110038D01*
X15459703Y13072428D01*
X15425960Y13066500D01*
X15306542Y13066500D01*
X15277124Y13063742D01*
X15277119Y13063741D01*
X15153204Y13020381D01*
X15042788Y12938890D01*
X14984740Y12919548D01*
X14926410Y12938019D01*
X14925212Y12938890D01*
X14814795Y13020381D01*
X14690883Y13063740D01*
X14690874Y13063742D01*
X14661465Y13066500D01*
X14286542Y13066500D01*
X14257124Y13063742D01*
X14257119Y13063741D01*
X14133204Y13020381D01*
X14027581Y12942428D01*
X14027572Y12942419D01*
X13949619Y12836796D01*
X13906260Y12712884D01*
X13906258Y12712875D01*
X13903500Y12683468D01*
X13903500Y12514256D01*
X13884593Y12456065D01*
X13874504Y12444253D01*
X13822749Y12392497D01*
X13768233Y12364719D01*
X13752745Y12363500D01*
X11881982Y12363500D01*
X11825180Y12348280D01*
X11773758Y12334502D01*
X11676739Y12278487D01*
X11597513Y12199261D01*
X11555737Y12126903D01*
X11540005Y12106400D01*
X11155503Y11721898D01*
X11100986Y11694121D01*
X11040554Y11703692D01*
X10997289Y11746957D01*
X10986499Y11791899D01*
X10986499Y12175456D01*
X10985939Y12181425D01*
X10984494Y12196845D01*
X10983741Y12204879D01*
X10940381Y12328794D01*
X10940380Y12328796D01*
X10862427Y12434419D01*
X10862418Y12434428D01*
X10847941Y12445113D01*
X10812350Y12494881D01*
X10812810Y12556065D01*
X10846913Y12603650D01*
X10911424Y12652570D01*
X10911430Y12652576D01*
X11001121Y12770852D01*
X11055578Y12908944D01*
X11065999Y12995719D01*
X11066000Y12995725D01*
X11066000Y13007999D01*
X11065999Y13008000D01*
X10485000Y13008000D01*
X10426809Y13026907D01*
X10390845Y13076407D01*
X10386000Y13107000D01*
X10386000Y13309000D01*
X10404907Y13367191D01*
X10454407Y13403155D01*
X10485000Y13408000D01*
X11065998Y13408000D01*
X11065999Y13408001D01*
X11065999Y13420273D01*
X11065998Y13420283D01*
X11055578Y13507055D01*
X11055577Y13507061D01*
X11001121Y13645149D01*
X10911430Y13763425D01*
X10911424Y13763431D01*
X10873597Y13792116D01*
X10838654Y13842343D01*
X10839908Y13903515D01*
X10876878Y13952268D01*
X10933416Y13970000D01*
X14123261Y13970000D01*
X14181452Y13951093D01*
G37*
%TD.AperFunction*%
%TD*%
M02*
