%TF.GenerationSoftware,KiCad,Pcbnew,8.0.7*%
%TF.CreationDate,2024-12-17T10:58:39+01:00*%
%TF.ProjectId,stackflex_core,73746163-6b66-46c6-9578-5f636f72652e,2025.1.0*%
%TF.SameCoordinates,Original*%
%TF.FileFunction,Legend,Top*%
%TF.FilePolarity,Positive*%
%FSLAX46Y46*%
G04 Gerber Fmt 4.6, Leading zero omitted, Abs format (unit mm)*
G04 Created by KiCad (PCBNEW 8.0.7) date 2024-12-17 10:58:39*
%MOMM*%
%LPD*%
G01*
G04 APERTURE LIST*
G04 Aperture macros list*
%AMRoundRect*
0 Rectangle with rounded corners*
0 $1 Rounding radius*
0 $2 $3 $4 $5 $6 $7 $8 $9 X,Y pos of 4 corners*
0 Add a 4 corners polygon primitive as box body*
4,1,4,$2,$3,$4,$5,$6,$7,$8,$9,$2,$3,0*
0 Add four circle primitives for the rounded corners*
1,1,$1+$1,$2,$3*
1,1,$1+$1,$4,$5*
1,1,$1+$1,$6,$7*
1,1,$1+$1,$8,$9*
0 Add four rect primitives between the rounded corners*
20,1,$1+$1,$2,$3,$4,$5,0*
20,1,$1+$1,$4,$5,$6,$7,0*
20,1,$1+$1,$6,$7,$8,$9,0*
20,1,$1+$1,$8,$9,$2,$3,0*%
G04 Aperture macros list end*
%ADD10C,0.200000*%
%ADD11C,0.100000*%
%ADD12C,0.120000*%
%ADD13C,0.250000*%
%ADD14C,0.152400*%
%ADD15C,0.000000*%
%ADD16R,0.800000X0.400000*%
%ADD17R,0.400000X0.800000*%
%ADD18R,1.200000X1.200000*%
%ADD19R,0.800000X0.800000*%
%ADD20RoundRect,0.135000X-0.135000X-0.185000X0.135000X-0.185000X0.135000X0.185000X-0.135000X0.185000X0*%
%ADD21RoundRect,0.135000X0.135000X0.185000X-0.135000X0.185000X-0.135000X-0.185000X0.135000X-0.185000X0*%
%ADD22RoundRect,0.140000X0.170000X-0.140000X0.170000X0.140000X-0.170000X0.140000X-0.170000X-0.140000X0*%
%ADD23R,1.700000X1.700000*%
%ADD24O,1.700000X1.700000*%
%ADD25C,5.600000*%
%ADD26RoundRect,0.135000X-0.185000X0.135000X-0.185000X-0.135000X0.185000X-0.135000X0.185000X0.135000X0*%
%ADD27R,0.600000X1.150000*%
%ADD28R,0.950000X1.400000*%
%ADD29R,1.150000X0.750000*%
%ADD30RoundRect,0.140000X-0.140000X-0.170000X0.140000X-0.170000X0.140000X0.170000X-0.140000X0.170000X0*%
%ADD31RoundRect,0.140000X-0.170000X0.140000X-0.170000X-0.140000X0.170000X-0.140000X0.170000X0.140000X0*%
%ADD32R,0.700000X0.650000*%
%ADD33RoundRect,0.135000X0.185000X-0.135000X0.185000X0.135000X-0.185000X0.135000X-0.185000X-0.135000X0*%
%ADD34R,0.300000X0.750000*%
%ADD35R,1.300000X0.900000*%
%ADD36R,1.397000X1.016000*%
%ADD37C,0.650000*%
%ADD38RoundRect,0.150000X-0.150000X-0.425000X0.150000X-0.425000X0.150000X0.425000X-0.150000X0.425000X0*%
%ADD39RoundRect,0.075000X-0.075000X-0.500000X0.075000X-0.500000X0.075000X0.500000X-0.075000X0.500000X0*%
%ADD40O,1.000000X2.100000*%
%ADD41O,1.000000X1.800000*%
%ADD42R,0.300000X1.400000*%
%ADD43R,1.200000X0.750000*%
%ADD44RoundRect,0.225000X0.250000X-0.225000X0.250000X0.225000X-0.250000X0.225000X-0.250000X-0.225000X0*%
G04 APERTURE END LIST*
D10*
G36*
X8733483Y-17932138D02*
G01*
X8816710Y-18015365D01*
X8864149Y-18205120D01*
X8864149Y-18580500D01*
X8816710Y-18770256D01*
X8733483Y-18853482D01*
X8654828Y-18892810D01*
X8473470Y-18892810D01*
X8394814Y-18853482D01*
X8311587Y-18770255D01*
X8264149Y-18580500D01*
X8264149Y-18205120D01*
X8311587Y-18015365D01*
X8394814Y-17932138D01*
X8473470Y-17892810D01*
X8654827Y-17892810D01*
X8733483Y-17932138D01*
G37*
G36*
X9990626Y-17932138D02*
G01*
X10073853Y-18015365D01*
X10121292Y-18205120D01*
X10121292Y-18580500D01*
X10073853Y-18770256D01*
X9990626Y-18853482D01*
X9911971Y-18892810D01*
X9730613Y-18892810D01*
X9651957Y-18853482D01*
X9568730Y-18770255D01*
X9521292Y-18580500D01*
X9521292Y-18205120D01*
X9568730Y-18015365D01*
X9651957Y-17932138D01*
X9730613Y-17892810D01*
X9911970Y-17892810D01*
X9990626Y-17932138D01*
G37*
G36*
X7533483Y-17932138D02*
G01*
X7567677Y-17966331D01*
X7607006Y-18044989D01*
X7607006Y-18169202D01*
X7567677Y-18247860D01*
X7533483Y-18282053D01*
X7454827Y-18321382D01*
X7121292Y-18321382D01*
X7121292Y-17892810D01*
X7454827Y-17892810D01*
X7533483Y-17932138D01*
G37*
G36*
X11481276Y-21272361D02*
G01*
X6787959Y-21272361D01*
X6787959Y-21019519D01*
X8466071Y-21019519D01*
X8466071Y-21058537D01*
X8481003Y-21094585D01*
X8508593Y-21122175D01*
X8544641Y-21137107D01*
X8564150Y-21139028D01*
X9478435Y-21139028D01*
X9497944Y-21137107D01*
X9533992Y-21122175D01*
X9561582Y-21094585D01*
X9576514Y-21058537D01*
X9576514Y-21019519D01*
X9561582Y-20983471D01*
X9533992Y-20955881D01*
X9497944Y-20940949D01*
X9478435Y-20939028D01*
X8564150Y-20939028D01*
X8544641Y-20940949D01*
X8508593Y-20955881D01*
X8481003Y-20983471D01*
X8466071Y-21019519D01*
X6787959Y-21019519D01*
X6787959Y-17792810D01*
X6921292Y-17792810D01*
X6921292Y-18992810D01*
X6923213Y-19012319D01*
X6938145Y-19048367D01*
X6965735Y-19075957D01*
X7001783Y-19090889D01*
X7040801Y-19090889D01*
X7076849Y-19075957D01*
X7104439Y-19048367D01*
X7119371Y-19012319D01*
X7121292Y-18992810D01*
X7121292Y-18521382D01*
X7254941Y-18521382D01*
X7625083Y-19050156D01*
X7637844Y-19065037D01*
X7670749Y-19086006D01*
X7709174Y-19092787D01*
X7747268Y-19084347D01*
X7779233Y-19061972D01*
X7800202Y-19029067D01*
X7806983Y-18990642D01*
X7798543Y-18952548D01*
X7788929Y-18935464D01*
X7497740Y-18519481D01*
X7497944Y-18519461D01*
X7501264Y-18518085D01*
X7504848Y-18517831D01*
X7523157Y-18510825D01*
X7637442Y-18453681D01*
X7645838Y-18448396D01*
X7648277Y-18447386D01*
X7651020Y-18445134D01*
X7654032Y-18443239D01*
X7655764Y-18441241D01*
X7663431Y-18434950D01*
X7720573Y-18377807D01*
X7726865Y-18370140D01*
X7728863Y-18368408D01*
X7730756Y-18365399D01*
X7733010Y-18362654D01*
X7734020Y-18360213D01*
X7739306Y-18351817D01*
X7796449Y-18237531D01*
X7803455Y-18219223D01*
X7803709Y-18215639D01*
X7805085Y-18212319D01*
X7807006Y-18192810D01*
X8064149Y-18192810D01*
X8064149Y-18592810D01*
X8064484Y-18596212D01*
X8064267Y-18597671D01*
X8065346Y-18604968D01*
X8066070Y-18612319D01*
X8066634Y-18613682D01*
X8067135Y-18617064D01*
X8124278Y-18845636D01*
X8130873Y-18864097D01*
X8135300Y-18870072D01*
X8138145Y-18876939D01*
X8150581Y-18892093D01*
X8264867Y-19006379D01*
X8272537Y-19012673D01*
X8274267Y-19014668D01*
X8277274Y-19016561D01*
X8280021Y-19018815D01*
X8282460Y-19019825D01*
X8290857Y-19025111D01*
X8405142Y-19082253D01*
X8423450Y-19089259D01*
X8427033Y-19089513D01*
X8430354Y-19090889D01*
X8449863Y-19092810D01*
X8678435Y-19092810D01*
X8697944Y-19090889D01*
X8701264Y-19089513D01*
X8704848Y-19089259D01*
X8723156Y-19082253D01*
X8837441Y-19025111D01*
X8845837Y-19019825D01*
X8848277Y-19018815D01*
X8851023Y-19016561D01*
X8854031Y-19014668D01*
X8855761Y-19012673D01*
X8863431Y-19006379D01*
X8977717Y-18892093D01*
X8990153Y-18876939D01*
X8992998Y-18870070D01*
X8997425Y-18864096D01*
X9004020Y-18845636D01*
X9061163Y-18617063D01*
X9061662Y-18613683D01*
X9062228Y-18612319D01*
X9062951Y-18604967D01*
X9064031Y-18597671D01*
X9063813Y-18596212D01*
X9064149Y-18592810D01*
X9064149Y-18192810D01*
X9321292Y-18192810D01*
X9321292Y-18592810D01*
X9321627Y-18596212D01*
X9321410Y-18597671D01*
X9322489Y-18604968D01*
X9323213Y-18612319D01*
X9323777Y-18613682D01*
X9324278Y-18617064D01*
X9381421Y-18845636D01*
X9388016Y-18864097D01*
X9392443Y-18870072D01*
X9395288Y-18876939D01*
X9407724Y-18892093D01*
X9522010Y-19006379D01*
X9529680Y-19012673D01*
X9531410Y-19014668D01*
X9534417Y-19016561D01*
X9537164Y-19018815D01*
X9539603Y-19019825D01*
X9548000Y-19025111D01*
X9662285Y-19082253D01*
X9680593Y-19089259D01*
X9684176Y-19089513D01*
X9687497Y-19090889D01*
X9707006Y-19092810D01*
X9935578Y-19092810D01*
X9955087Y-19090889D01*
X9958407Y-19089513D01*
X9961991Y-19089259D01*
X9980299Y-19082253D01*
X10094584Y-19025111D01*
X10102980Y-19019825D01*
X10105420Y-19018815D01*
X10108166Y-19016561D01*
X10111174Y-19014668D01*
X10112904Y-19012673D01*
X10120574Y-19006379D01*
X10234860Y-18892093D01*
X10247296Y-18876939D01*
X10250141Y-18870070D01*
X10254568Y-18864096D01*
X10261163Y-18845636D01*
X10318306Y-18617063D01*
X10318805Y-18613683D01*
X10319371Y-18612319D01*
X10320094Y-18604967D01*
X10321174Y-18597671D01*
X10320956Y-18596212D01*
X10321292Y-18592810D01*
X10321292Y-18192810D01*
X10320956Y-18189407D01*
X10321174Y-18187949D01*
X10320094Y-18180652D01*
X10319371Y-18173301D01*
X10318805Y-18171936D01*
X10318306Y-18168557D01*
X10261163Y-17939985D01*
X10254568Y-17921525D01*
X10250141Y-17915550D01*
X10247296Y-17908682D01*
X10234860Y-17893528D01*
X10120574Y-17779242D01*
X10113335Y-17773301D01*
X10466070Y-17773301D01*
X10466070Y-17812319D01*
X10481002Y-17848367D01*
X10508592Y-17875957D01*
X10544640Y-17890889D01*
X10564149Y-17892810D01*
X10807006Y-17892810D01*
X10807006Y-18992810D01*
X10808927Y-19012319D01*
X10823859Y-19048367D01*
X10851449Y-19075957D01*
X10887497Y-19090889D01*
X10926515Y-19090889D01*
X10962563Y-19075957D01*
X10990153Y-19048367D01*
X11005085Y-19012319D01*
X11007006Y-18992810D01*
X11007006Y-17892810D01*
X11249864Y-17892810D01*
X11269373Y-17890889D01*
X11305421Y-17875957D01*
X11333011Y-17848367D01*
X11347943Y-17812319D01*
X11347943Y-17773301D01*
X11333011Y-17737253D01*
X11305421Y-17709663D01*
X11269373Y-17694731D01*
X11249864Y-17692810D01*
X10564149Y-17692810D01*
X10544640Y-17694731D01*
X10508592Y-17709663D01*
X10481002Y-17737253D01*
X10466070Y-17773301D01*
X10113335Y-17773301D01*
X10112907Y-17772950D01*
X10111175Y-17770953D01*
X10108163Y-17769057D01*
X10105420Y-17766806D01*
X10102981Y-17765795D01*
X10094585Y-17760511D01*
X9980300Y-17703367D01*
X9961991Y-17696361D01*
X9958407Y-17696106D01*
X9955087Y-17694731D01*
X9935578Y-17692810D01*
X9707006Y-17692810D01*
X9687497Y-17694731D01*
X9684176Y-17696106D01*
X9680593Y-17696361D01*
X9662285Y-17703367D01*
X9547999Y-17760510D01*
X9539600Y-17765796D01*
X9537164Y-17766806D01*
X9534420Y-17769057D01*
X9531409Y-17770953D01*
X9529676Y-17772950D01*
X9522010Y-17779242D01*
X9407724Y-17893528D01*
X9395288Y-17908682D01*
X9392443Y-17915548D01*
X9388016Y-17921524D01*
X9381421Y-17939985D01*
X9324278Y-18168556D01*
X9323777Y-18171937D01*
X9323213Y-18173301D01*
X9322489Y-18180651D01*
X9321410Y-18187949D01*
X9321627Y-18189407D01*
X9321292Y-18192810D01*
X9064149Y-18192810D01*
X9063813Y-18189407D01*
X9064031Y-18187949D01*
X9062951Y-18180652D01*
X9062228Y-18173301D01*
X9061662Y-18171936D01*
X9061163Y-18168557D01*
X9004020Y-17939985D01*
X8997425Y-17921525D01*
X8992998Y-17915550D01*
X8990153Y-17908682D01*
X8977717Y-17893528D01*
X8863431Y-17779242D01*
X8855764Y-17772950D01*
X8854032Y-17770953D01*
X8851020Y-17769057D01*
X8848277Y-17766806D01*
X8845838Y-17765795D01*
X8837442Y-17760511D01*
X8723157Y-17703367D01*
X8704848Y-17696361D01*
X8701264Y-17696106D01*
X8697944Y-17694731D01*
X8678435Y-17692810D01*
X8449863Y-17692810D01*
X8430354Y-17694731D01*
X8427033Y-17696106D01*
X8423450Y-17696361D01*
X8405142Y-17703367D01*
X8290856Y-17760510D01*
X8282457Y-17765796D01*
X8280021Y-17766806D01*
X8277277Y-17769057D01*
X8274266Y-17770953D01*
X8272533Y-17772950D01*
X8264867Y-17779242D01*
X8150581Y-17893528D01*
X8138145Y-17908682D01*
X8135300Y-17915548D01*
X8130873Y-17921524D01*
X8124278Y-17939985D01*
X8067135Y-18168556D01*
X8066634Y-18171937D01*
X8066070Y-18173301D01*
X8065346Y-18180651D01*
X8064267Y-18187949D01*
X8064484Y-18189407D01*
X8064149Y-18192810D01*
X7807006Y-18192810D01*
X7807006Y-18021382D01*
X7805085Y-18001873D01*
X7803709Y-17998552D01*
X7803455Y-17994969D01*
X7796449Y-17976661D01*
X7739306Y-17862375D01*
X7734020Y-17853978D01*
X7733010Y-17851538D01*
X7730756Y-17848792D01*
X7728863Y-17845784D01*
X7726865Y-17844051D01*
X7720573Y-17836385D01*
X7663431Y-17779242D01*
X7655764Y-17772950D01*
X7654032Y-17770953D01*
X7651020Y-17769057D01*
X7648277Y-17766806D01*
X7645838Y-17765795D01*
X7637442Y-17760511D01*
X7523157Y-17703367D01*
X7504848Y-17696361D01*
X7501264Y-17696106D01*
X7497944Y-17694731D01*
X7478435Y-17692810D01*
X7021292Y-17692810D01*
X7001783Y-17694731D01*
X6965735Y-17709663D01*
X6938145Y-17737253D01*
X6923213Y-17773301D01*
X6921292Y-17792810D01*
X6787959Y-17792810D01*
X6787959Y-16984227D01*
X7780356Y-16984227D01*
X7780356Y-17023245D01*
X7787863Y-17041368D01*
X7795288Y-17059294D01*
X7807725Y-17074447D01*
X7864868Y-17131590D01*
X7880016Y-17144021D01*
X7880020Y-17144025D01*
X7880021Y-17144025D01*
X7880022Y-17144026D01*
X7901138Y-17152772D01*
X7916069Y-17158957D01*
X7916070Y-17158957D01*
X7955086Y-17158957D01*
X7955088Y-17158957D01*
X7976203Y-17150210D01*
X7991135Y-17144026D01*
X8006288Y-17131589D01*
X8063431Y-17074447D01*
X8075868Y-17059294D01*
X8090800Y-17023246D01*
X8090800Y-16984228D01*
X8075869Y-16948179D01*
X8075868Y-16948178D01*
X8063431Y-16933025D01*
X8006289Y-16875882D01*
X7991135Y-16863446D01*
X7955087Y-16848514D01*
X7916069Y-16848514D01*
X7890578Y-16859072D01*
X7880020Y-16863446D01*
X7864867Y-16875883D01*
X7807724Y-16933025D01*
X7795292Y-16948173D01*
X7795287Y-16948179D01*
X7787864Y-16966102D01*
X7780356Y-16984227D01*
X6787959Y-16984227D01*
X6787959Y-16715181D01*
X11481276Y-16715181D01*
X11481276Y-21272361D01*
G37*
G36*
X-11262517Y-17932138D02*
G01*
X-11228323Y-17966331D01*
X-11188994Y-18044989D01*
X-11188994Y-18169202D01*
X-11228323Y-18247860D01*
X-11262517Y-18282053D01*
X-11341173Y-18321382D01*
X-11674708Y-18321382D01*
X-11674708Y-17892810D01*
X-11341173Y-17892810D01*
X-11262517Y-17932138D01*
G37*
G36*
X-6514725Y-21272361D02*
G01*
X-12008041Y-21272361D01*
X-12008041Y-21019519D01*
X-10329929Y-21019519D01*
X-10329929Y-21058537D01*
X-10314997Y-21094585D01*
X-10287407Y-21122175D01*
X-10251359Y-21137107D01*
X-10231850Y-21139028D01*
X-9317565Y-21139028D01*
X-9298056Y-21137107D01*
X-9262008Y-21122175D01*
X-9234418Y-21094585D01*
X-9219486Y-21058537D01*
X-9219486Y-21019519D01*
X-9234418Y-20983471D01*
X-9262008Y-20955881D01*
X-9298056Y-20940949D01*
X-9317565Y-20939028D01*
X-10231850Y-20939028D01*
X-10251359Y-20940949D01*
X-10287407Y-20955881D01*
X-10314997Y-20983471D01*
X-10329929Y-21019519D01*
X-12008041Y-21019519D01*
X-12008041Y-17792810D01*
X-11874708Y-17792810D01*
X-11874708Y-18992810D01*
X-11872787Y-19012319D01*
X-11857855Y-19048367D01*
X-11830265Y-19075957D01*
X-11794217Y-19090889D01*
X-11755199Y-19090889D01*
X-11719151Y-19075957D01*
X-11691561Y-19048367D01*
X-11676629Y-19012319D01*
X-11674708Y-18992810D01*
X-11674708Y-18521382D01*
X-11541059Y-18521382D01*
X-11170917Y-19050156D01*
X-11158156Y-19065037D01*
X-11125251Y-19086006D01*
X-11086826Y-19092787D01*
X-11048732Y-19084347D01*
X-11016767Y-19061972D01*
X-10995798Y-19029067D01*
X-10989017Y-18990642D01*
X-10997457Y-18952548D01*
X-11007071Y-18935464D01*
X-11298260Y-18519481D01*
X-11298056Y-18519461D01*
X-11294736Y-18518085D01*
X-11291152Y-18517831D01*
X-11272843Y-18510825D01*
X-11158558Y-18453681D01*
X-11150162Y-18448396D01*
X-11147723Y-18447386D01*
X-11144980Y-18445134D01*
X-11141968Y-18443239D01*
X-11140236Y-18441241D01*
X-11132569Y-18434950D01*
X-11075427Y-18377807D01*
X-11069135Y-18370140D01*
X-11067137Y-18368408D01*
X-11065244Y-18365399D01*
X-11062990Y-18362654D01*
X-11061980Y-18360213D01*
X-11056694Y-18351817D01*
X-10999551Y-18237531D01*
X-10992545Y-18219223D01*
X-10992291Y-18215639D01*
X-10990915Y-18212319D01*
X-10988994Y-18192810D01*
X-10988994Y-18021382D01*
X-10990915Y-18001873D01*
X-10992291Y-17998552D01*
X-10992545Y-17994969D01*
X-10999551Y-17976661D01*
X-11056694Y-17862375D01*
X-11061980Y-17853978D01*
X-11062990Y-17851538D01*
X-11065244Y-17848792D01*
X-11067137Y-17845784D01*
X-11069135Y-17844051D01*
X-11075427Y-17836385D01*
X-11119001Y-17792810D01*
X-10674708Y-17792810D01*
X-10674708Y-18992810D01*
X-10672787Y-19012319D01*
X-10657855Y-19048367D01*
X-10630265Y-19075957D01*
X-10594217Y-19090889D01*
X-10574708Y-19092810D01*
X-10003280Y-19092810D01*
X-9983771Y-19090889D01*
X-9947723Y-19075957D01*
X-9920133Y-19048367D01*
X-9905201Y-19012319D01*
X-9905201Y-18973301D01*
X-9920133Y-18937253D01*
X-9947723Y-18909663D01*
X-9983771Y-18894731D01*
X-10003280Y-18892810D01*
X-10474708Y-18892810D01*
X-10474708Y-18464239D01*
X-10174708Y-18464239D01*
X-10155199Y-18462318D01*
X-10119151Y-18447386D01*
X-10091561Y-18419796D01*
X-10076629Y-18383748D01*
X-10076629Y-18344730D01*
X-10091561Y-18308682D01*
X-10119151Y-18281092D01*
X-10155199Y-18266160D01*
X-10174708Y-18264239D01*
X-10474708Y-18264239D01*
X-10474708Y-18021382D01*
X-9646137Y-18021382D01*
X-9646137Y-18135668D01*
X-9644216Y-18155177D01*
X-9642841Y-18158497D01*
X-9642586Y-18162081D01*
X-9635580Y-18180390D01*
X-9578436Y-18294675D01*
X-9573152Y-18303071D01*
X-9572141Y-18305510D01*
X-9569890Y-18308253D01*
X-9567994Y-18311265D01*
X-9565997Y-18312997D01*
X-9559705Y-18320664D01*
X-9502562Y-18377806D01*
X-9494896Y-18384098D01*
X-9493163Y-18386096D01*
X-9490154Y-18387990D01*
X-9487409Y-18390243D01*
X-9484971Y-18391253D01*
X-9476573Y-18396539D01*
X-9362287Y-18453682D01*
X-9360861Y-18454227D01*
X-9360280Y-18454658D01*
X-9352098Y-18457581D01*
X-9343979Y-18460688D01*
X-9343259Y-18460739D01*
X-9341820Y-18461253D01*
X-9123899Y-18515733D01*
X-9033944Y-18560710D01*
X-8999753Y-18594901D01*
X-8960423Y-18673559D01*
X-8960423Y-18740631D01*
X-8999753Y-18819290D01*
X-9033944Y-18853481D01*
X-9112601Y-18892810D01*
X-9358481Y-18892810D01*
X-9514515Y-18840800D01*
X-9533630Y-18836453D01*
X-9572550Y-18839219D01*
X-9607449Y-18856669D01*
X-9633014Y-18886145D01*
X-9645352Y-18923161D01*
X-9642586Y-18962081D01*
X-9625136Y-18996980D01*
X-9595660Y-19022545D01*
X-9577759Y-19030536D01*
X-9406330Y-19087679D01*
X-9396658Y-19089878D01*
X-9394217Y-19090889D01*
X-9390680Y-19091237D01*
X-9387215Y-19092025D01*
X-9384582Y-19091837D01*
X-9374708Y-19092810D01*
X-9088994Y-19092810D01*
X-9069485Y-19090889D01*
X-9066165Y-19089513D01*
X-9062582Y-19089259D01*
X-9044273Y-19082253D01*
X-8929987Y-19025111D01*
X-8921592Y-19019826D01*
X-8919150Y-19018815D01*
X-8916403Y-19016559D01*
X-8913397Y-19014668D01*
X-8911667Y-19012672D01*
X-8903997Y-19006378D01*
X-8846854Y-18949235D01*
X-8840563Y-18941568D01*
X-8838566Y-18939837D01*
X-8836672Y-18936826D01*
X-8834418Y-18934081D01*
X-8833408Y-18931642D01*
X-8828123Y-18923246D01*
X-8770980Y-18808960D01*
X-8763974Y-18790652D01*
X-8763720Y-18787068D01*
X-8762344Y-18783748D01*
X-8760423Y-18764239D01*
X-8760423Y-18649953D01*
X-8762344Y-18630444D01*
X-8763720Y-18627123D01*
X-8763974Y-18623540D01*
X-8770980Y-18605232D01*
X-8828123Y-18490946D01*
X-8833409Y-18482549D01*
X-8834418Y-18480112D01*
X-8836671Y-18477367D01*
X-8838566Y-18474356D01*
X-8840563Y-18472624D01*
X-8846854Y-18464958D01*
X-8903997Y-18407815D01*
X-8911664Y-18401522D01*
X-8913396Y-18399525D01*
X-8916406Y-18397630D01*
X-8919150Y-18395378D01*
X-8921589Y-18394367D01*
X-8929986Y-18389082D01*
X-9044273Y-18331939D01*
X-9045698Y-18331393D01*
X-9046279Y-18330963D01*
X-9054471Y-18328036D01*
X-9062581Y-18324933D01*
X-9063302Y-18324881D01*
X-9064740Y-18324368D01*
X-9282664Y-18269887D01*
X-9372617Y-18224909D01*
X-9406809Y-18190716D01*
X-9446137Y-18112060D01*
X-9446137Y-18044989D01*
X-9406809Y-17966332D01*
X-9372617Y-17932139D01*
X-9293959Y-17892810D01*
X-9048078Y-17892810D01*
X-8892046Y-17944821D01*
X-8872931Y-17949168D01*
X-8834011Y-17946402D01*
X-8799112Y-17928952D01*
X-8773547Y-17899476D01*
X-8761208Y-17862461D01*
X-8763974Y-17823541D01*
X-8779340Y-17792810D01*
X-8446137Y-17792810D01*
X-8446137Y-18992810D01*
X-8444216Y-19012319D01*
X-8429284Y-19048367D01*
X-8401694Y-19075957D01*
X-8365646Y-19090889D01*
X-8346137Y-19092810D01*
X-7774709Y-19092810D01*
X-7755200Y-19090889D01*
X-7719152Y-19075957D01*
X-7691562Y-19048367D01*
X-7676630Y-19012319D01*
X-7676630Y-18973301D01*
X-7691562Y-18937253D01*
X-7719152Y-18909663D01*
X-7755200Y-18894731D01*
X-7774709Y-18892810D01*
X-8246137Y-18892810D01*
X-8246137Y-18464239D01*
X-7946137Y-18464239D01*
X-7926628Y-18462318D01*
X-7890580Y-18447386D01*
X-7862990Y-18419796D01*
X-7848058Y-18383748D01*
X-7848058Y-18344730D01*
X-7862990Y-18308682D01*
X-7890580Y-18281092D01*
X-7926628Y-18266160D01*
X-7946137Y-18264239D01*
X-8246137Y-18264239D01*
X-8246137Y-17892810D01*
X-7774709Y-17892810D01*
X-7755200Y-17890889D01*
X-7719152Y-17875957D01*
X-7691562Y-17848367D01*
X-7676630Y-17812319D01*
X-7676630Y-17773301D01*
X-7529931Y-17773301D01*
X-7529931Y-17812319D01*
X-7514999Y-17848367D01*
X-7487409Y-17875957D01*
X-7451361Y-17890889D01*
X-7431852Y-17892810D01*
X-7188995Y-17892810D01*
X-7188995Y-18992810D01*
X-7187074Y-19012319D01*
X-7172142Y-19048367D01*
X-7144552Y-19075957D01*
X-7108504Y-19090889D01*
X-7069486Y-19090889D01*
X-7033438Y-19075957D01*
X-7005848Y-19048367D01*
X-6990916Y-19012319D01*
X-6988995Y-18992810D01*
X-6988995Y-17892810D01*
X-6746137Y-17892810D01*
X-6726628Y-17890889D01*
X-6690580Y-17875957D01*
X-6662990Y-17848367D01*
X-6648058Y-17812319D01*
X-6648058Y-17773301D01*
X-6662990Y-17737253D01*
X-6690580Y-17709663D01*
X-6726628Y-17694731D01*
X-6746137Y-17692810D01*
X-7431852Y-17692810D01*
X-7451361Y-17694731D01*
X-7487409Y-17709663D01*
X-7514999Y-17737253D01*
X-7529931Y-17773301D01*
X-7676630Y-17773301D01*
X-7691562Y-17737253D01*
X-7719152Y-17709663D01*
X-7755200Y-17694731D01*
X-7774709Y-17692810D01*
X-8346137Y-17692810D01*
X-8365646Y-17694731D01*
X-8401694Y-17709663D01*
X-8429284Y-17737253D01*
X-8444216Y-17773301D01*
X-8446137Y-17792810D01*
X-8779340Y-17792810D01*
X-8781424Y-17788642D01*
X-8810900Y-17763076D01*
X-8828800Y-17755085D01*
X-9000228Y-17697942D01*
X-9009901Y-17695742D01*
X-9012342Y-17694731D01*
X-9015880Y-17694382D01*
X-9019343Y-17693595D01*
X-9021978Y-17693782D01*
X-9031851Y-17692810D01*
X-9317566Y-17692810D01*
X-9337075Y-17694731D01*
X-9340396Y-17696106D01*
X-9343979Y-17696361D01*
X-9362287Y-17703367D01*
X-9476573Y-17760510D01*
X-9484971Y-17765795D01*
X-9487409Y-17766806D01*
X-9490154Y-17769058D01*
X-9493163Y-17770953D01*
X-9494896Y-17772950D01*
X-9502562Y-17779243D01*
X-9559705Y-17836385D01*
X-9565997Y-17844051D01*
X-9567994Y-17845784D01*
X-9569890Y-17848795D01*
X-9572141Y-17851539D01*
X-9573151Y-17853975D01*
X-9578437Y-17862374D01*
X-9635580Y-17976661D01*
X-9642586Y-17994969D01*
X-9642841Y-17998552D01*
X-9644216Y-18001873D01*
X-9646137Y-18021382D01*
X-10474708Y-18021382D01*
X-10474708Y-17892810D01*
X-10003280Y-17892810D01*
X-9983771Y-17890889D01*
X-9947723Y-17875957D01*
X-9920133Y-17848367D01*
X-9905201Y-17812319D01*
X-9905201Y-17773301D01*
X-9920133Y-17737253D01*
X-9947723Y-17709663D01*
X-9983771Y-17694731D01*
X-10003280Y-17692810D01*
X-10574708Y-17692810D01*
X-10594217Y-17694731D01*
X-10630265Y-17709663D01*
X-10657855Y-17737253D01*
X-10672787Y-17773301D01*
X-10674708Y-17792810D01*
X-11119001Y-17792810D01*
X-11132569Y-17779242D01*
X-11140236Y-17772950D01*
X-11141968Y-17770953D01*
X-11144980Y-17769057D01*
X-11147723Y-17766806D01*
X-11150162Y-17765795D01*
X-11158558Y-17760511D01*
X-11272843Y-17703367D01*
X-11291152Y-17696361D01*
X-11294736Y-17696106D01*
X-11298056Y-17694731D01*
X-11317565Y-17692810D01*
X-11774708Y-17692810D01*
X-11794217Y-17694731D01*
X-11830265Y-17709663D01*
X-11857855Y-17737253D01*
X-11872787Y-17773301D01*
X-11874708Y-17792810D01*
X-12008041Y-17792810D01*
X-12008041Y-16984227D01*
X-11015644Y-16984227D01*
X-11015644Y-17023245D01*
X-11008137Y-17041368D01*
X-11000712Y-17059294D01*
X-10988275Y-17074447D01*
X-10931132Y-17131590D01*
X-10915984Y-17144021D01*
X-10915980Y-17144025D01*
X-10915979Y-17144025D01*
X-10915978Y-17144026D01*
X-10894862Y-17152772D01*
X-10879931Y-17158957D01*
X-10879930Y-17158957D01*
X-10840914Y-17158957D01*
X-10840912Y-17158957D01*
X-10819797Y-17150210D01*
X-10804865Y-17144026D01*
X-10789712Y-17131589D01*
X-10732569Y-17074447D01*
X-10720132Y-17059294D01*
X-10705200Y-17023246D01*
X-10705200Y-16984228D01*
X-10720131Y-16948179D01*
X-10720132Y-16948178D01*
X-10732569Y-16933025D01*
X-10789711Y-16875882D01*
X-10804865Y-16863446D01*
X-10840913Y-16848514D01*
X-10879931Y-16848514D01*
X-10905422Y-16859072D01*
X-10915980Y-16863446D01*
X-10931133Y-16875883D01*
X-10988276Y-16933025D01*
X-11000708Y-16948173D01*
X-11000713Y-16948179D01*
X-11008136Y-16966102D01*
X-11015644Y-16984227D01*
X-12008041Y-16984227D01*
X-12008041Y-16715181D01*
X-6514725Y-16715181D01*
X-6514725Y-21272361D01*
G37*
D11*
X-780952Y10303105D02*
X-780952Y11103105D01*
X57143Y10379296D02*
X19047Y10341200D01*
X19047Y10341200D02*
X-95238Y10303105D01*
X-95238Y10303105D02*
X-171429Y10303105D01*
X-171429Y10303105D02*
X-285715Y10341200D01*
X-285715Y10341200D02*
X-361905Y10417391D01*
X-361905Y10417391D02*
X-400000Y10493581D01*
X-400000Y10493581D02*
X-438096Y10645962D01*
X-438096Y10645962D02*
X-438096Y10760248D01*
X-438096Y10760248D02*
X-400000Y10912629D01*
X-400000Y10912629D02*
X-361905Y10988820D01*
X-361905Y10988820D02*
X-285715Y11065010D01*
X-285715Y11065010D02*
X-171429Y11103105D01*
X-171429Y11103105D02*
X-95238Y11103105D01*
X-95238Y11103105D02*
X19047Y11065010D01*
X19047Y11065010D02*
X57143Y11026915D01*
X819047Y10303105D02*
X361904Y10303105D01*
X590476Y10303105D02*
X590476Y11103105D01*
X590476Y11103105D02*
X514285Y10988820D01*
X514285Y10988820D02*
X438095Y10912629D01*
X438095Y10912629D02*
X361904Y10874534D01*
X-13214286Y11573105D02*
X-13480953Y11954058D01*
X-13671429Y11573105D02*
X-13671429Y12373105D01*
X-13671429Y12373105D02*
X-13366667Y12373105D01*
X-13366667Y12373105D02*
X-13290477Y12335010D01*
X-13290477Y12335010D02*
X-13252382Y12296915D01*
X-13252382Y12296915D02*
X-13214286Y12220724D01*
X-13214286Y12220724D02*
X-13214286Y12106439D01*
X-13214286Y12106439D02*
X-13252382Y12030248D01*
X-13252382Y12030248D02*
X-13290477Y11992153D01*
X-13290477Y11992153D02*
X-13366667Y11954058D01*
X-13366667Y11954058D02*
X-13671429Y11954058D01*
X-12452382Y11573105D02*
X-12909525Y11573105D01*
X-12680953Y11573105D02*
X-12680953Y12373105D01*
X-12680953Y12373105D02*
X-12757144Y12258820D01*
X-12757144Y12258820D02*
X-12833334Y12182629D01*
X-12833334Y12182629D02*
X-12909525Y12144534D01*
X-11728572Y12373105D02*
X-12109524Y12373105D01*
X-12109524Y12373105D02*
X-12147620Y11992153D01*
X-12147620Y11992153D02*
X-12109524Y12030248D01*
X-12109524Y12030248D02*
X-12033334Y12068343D01*
X-12033334Y12068343D02*
X-11842858Y12068343D01*
X-11842858Y12068343D02*
X-11766667Y12030248D01*
X-11766667Y12030248D02*
X-11728572Y11992153D01*
X-11728572Y11992153D02*
X-11690477Y11915962D01*
X-11690477Y11915962D02*
X-11690477Y11725486D01*
X-11690477Y11725486D02*
X-11728572Y11649296D01*
X-11728572Y11649296D02*
X-11766667Y11611200D01*
X-11766667Y11611200D02*
X-11842858Y11573105D01*
X-11842858Y11573105D02*
X-12033334Y11573105D01*
X-12033334Y11573105D02*
X-12109524Y11611200D01*
X-12109524Y11611200D02*
X-12147620Y11649296D01*
X5327714Y-3412895D02*
X5061047Y-3031942D01*
X4870571Y-3412895D02*
X4870571Y-2612895D01*
X4870571Y-2612895D02*
X5175333Y-2612895D01*
X5175333Y-2612895D02*
X5251523Y-2650990D01*
X5251523Y-2650990D02*
X5289618Y-2689085D01*
X5289618Y-2689085D02*
X5327714Y-2765276D01*
X5327714Y-2765276D02*
X5327714Y-2879561D01*
X5327714Y-2879561D02*
X5289618Y-2955752D01*
X5289618Y-2955752D02*
X5251523Y-2993847D01*
X5251523Y-2993847D02*
X5175333Y-3031942D01*
X5175333Y-3031942D02*
X4870571Y-3031942D01*
X6089618Y-3412895D02*
X5632475Y-3412895D01*
X5861047Y-3412895D02*
X5861047Y-2612895D01*
X5861047Y-2612895D02*
X5784856Y-2727180D01*
X5784856Y-2727180D02*
X5708666Y-2803371D01*
X5708666Y-2803371D02*
X5632475Y-2841466D01*
X6356285Y-2612895D02*
X6889619Y-2612895D01*
X6889619Y-2612895D02*
X6546761Y-3412895D01*
X11931714Y3953105D02*
X11665047Y4334058D01*
X11474571Y3953105D02*
X11474571Y4753105D01*
X11474571Y4753105D02*
X11779333Y4753105D01*
X11779333Y4753105D02*
X11855523Y4715010D01*
X11855523Y4715010D02*
X11893618Y4676915D01*
X11893618Y4676915D02*
X11931714Y4600724D01*
X11931714Y4600724D02*
X11931714Y4486439D01*
X11931714Y4486439D02*
X11893618Y4410248D01*
X11893618Y4410248D02*
X11855523Y4372153D01*
X11855523Y4372153D02*
X11779333Y4334058D01*
X11779333Y4334058D02*
X11474571Y4334058D01*
X12693618Y3953105D02*
X12236475Y3953105D01*
X12465047Y3953105D02*
X12465047Y4753105D01*
X12465047Y4753105D02*
X12388856Y4638820D01*
X12388856Y4638820D02*
X12312666Y4562629D01*
X12312666Y4562629D02*
X12236475Y4524534D01*
X13188857Y4753105D02*
X13265047Y4753105D01*
X13265047Y4753105D02*
X13341238Y4715010D01*
X13341238Y4715010D02*
X13379333Y4676915D01*
X13379333Y4676915D02*
X13417428Y4600724D01*
X13417428Y4600724D02*
X13455523Y4448343D01*
X13455523Y4448343D02*
X13455523Y4257867D01*
X13455523Y4257867D02*
X13417428Y4105486D01*
X13417428Y4105486D02*
X13379333Y4029296D01*
X13379333Y4029296D02*
X13341238Y3991200D01*
X13341238Y3991200D02*
X13265047Y3953105D01*
X13265047Y3953105D02*
X13188857Y3953105D01*
X13188857Y3953105D02*
X13112666Y3991200D01*
X13112666Y3991200D02*
X13074571Y4029296D01*
X13074571Y4029296D02*
X13036476Y4105486D01*
X13036476Y4105486D02*
X12998380Y4257867D01*
X12998380Y4257867D02*
X12998380Y4448343D01*
X12998380Y4448343D02*
X13036476Y4600724D01*
X13036476Y4600724D02*
X13074571Y4676915D01*
X13074571Y4676915D02*
X13112666Y4715010D01*
X13112666Y4715010D02*
X13188857Y4753105D01*
X-9109296Y9010668D02*
X-9071200Y8972572D01*
X-9071200Y8972572D02*
X-9033105Y8858287D01*
X-9033105Y8858287D02*
X-9033105Y8782096D01*
X-9033105Y8782096D02*
X-9071200Y8667810D01*
X-9071200Y8667810D02*
X-9147391Y8591620D01*
X-9147391Y8591620D02*
X-9223581Y8553525D01*
X-9223581Y8553525D02*
X-9375962Y8515429D01*
X-9375962Y8515429D02*
X-9490248Y8515429D01*
X-9490248Y8515429D02*
X-9642629Y8553525D01*
X-9642629Y8553525D02*
X-9718820Y8591620D01*
X-9718820Y8591620D02*
X-9795010Y8667810D01*
X-9795010Y8667810D02*
X-9833105Y8782096D01*
X-9833105Y8782096D02*
X-9833105Y8858287D01*
X-9833105Y8858287D02*
X-9795010Y8972572D01*
X-9795010Y8972572D02*
X-9756915Y9010668D01*
X-9833105Y9734477D02*
X-9833105Y9353525D01*
X-9833105Y9353525D02*
X-9452153Y9315429D01*
X-9452153Y9315429D02*
X-9490248Y9353525D01*
X-9490248Y9353525D02*
X-9528343Y9429715D01*
X-9528343Y9429715D02*
X-9528343Y9620191D01*
X-9528343Y9620191D02*
X-9490248Y9696382D01*
X-9490248Y9696382D02*
X-9452153Y9734477D01*
X-9452153Y9734477D02*
X-9375962Y9772572D01*
X-9375962Y9772572D02*
X-9185486Y9772572D01*
X-9185486Y9772572D02*
X-9109296Y9734477D01*
X-9109296Y9734477D02*
X-9071200Y9696382D01*
X-9071200Y9696382D02*
X-9033105Y9620191D01*
X-9033105Y9620191D02*
X-9033105Y9429715D01*
X-9033105Y9429715D02*
X-9071200Y9353525D01*
X-9071200Y9353525D02*
X-9109296Y9315429D01*
X2142895Y-9023332D02*
X1761942Y-9289999D01*
X2142895Y-9480475D02*
X1342895Y-9480475D01*
X1342895Y-9480475D02*
X1342895Y-9175713D01*
X1342895Y-9175713D02*
X1380990Y-9099523D01*
X1380990Y-9099523D02*
X1419085Y-9061428D01*
X1419085Y-9061428D02*
X1495276Y-9023332D01*
X1495276Y-9023332D02*
X1609561Y-9023332D01*
X1609561Y-9023332D02*
X1685752Y-9061428D01*
X1685752Y-9061428D02*
X1723847Y-9099523D01*
X1723847Y-9099523D02*
X1761942Y-9175713D01*
X1761942Y-9175713D02*
X1761942Y-9480475D01*
X1342895Y-8756666D02*
X1342895Y-8223332D01*
X1342895Y-8223332D02*
X2142895Y-8566190D01*
X-9023333Y-11718704D02*
X-9061429Y-11756800D01*
X-9061429Y-11756800D02*
X-9175714Y-11794895D01*
X-9175714Y-11794895D02*
X-9251905Y-11794895D01*
X-9251905Y-11794895D02*
X-9366191Y-11756800D01*
X-9366191Y-11756800D02*
X-9442381Y-11680609D01*
X-9442381Y-11680609D02*
X-9480476Y-11604419D01*
X-9480476Y-11604419D02*
X-9518572Y-11452038D01*
X-9518572Y-11452038D02*
X-9518572Y-11337752D01*
X-9518572Y-11337752D02*
X-9480476Y-11185371D01*
X-9480476Y-11185371D02*
X-9442381Y-11109180D01*
X-9442381Y-11109180D02*
X-9366191Y-11032990D01*
X-9366191Y-11032990D02*
X-9251905Y-10994895D01*
X-9251905Y-10994895D02*
X-9175714Y-10994895D01*
X-9175714Y-10994895D02*
X-9061429Y-11032990D01*
X-9061429Y-11032990D02*
X-9023333Y-11071085D01*
X-8756667Y-10994895D02*
X-8261429Y-10994895D01*
X-8261429Y-10994895D02*
X-8528095Y-11299657D01*
X-8528095Y-11299657D02*
X-8413810Y-11299657D01*
X-8413810Y-11299657D02*
X-8337619Y-11337752D01*
X-8337619Y-11337752D02*
X-8299524Y-11375847D01*
X-8299524Y-11375847D02*
X-8261429Y-11452038D01*
X-8261429Y-11452038D02*
X-8261429Y-11642514D01*
X-8261429Y-11642514D02*
X-8299524Y-11718704D01*
X-8299524Y-11718704D02*
X-8337619Y-11756800D01*
X-8337619Y-11756800D02*
X-8413810Y-11794895D01*
X-8413810Y-11794895D02*
X-8642381Y-11794895D01*
X-8642381Y-11794895D02*
X-8718572Y-11756800D01*
X-8718572Y-11756800D02*
X-8756667Y-11718704D01*
X8305809Y-4505085D02*
X8229619Y-4466990D01*
X8229619Y-4466990D02*
X8153428Y-4390800D01*
X8153428Y-4390800D02*
X8039142Y-4276514D01*
X8039142Y-4276514D02*
X7962952Y-4238419D01*
X7962952Y-4238419D02*
X7886761Y-4238419D01*
X7924857Y-4428895D02*
X7848666Y-4390800D01*
X7848666Y-4390800D02*
X7772476Y-4314609D01*
X7772476Y-4314609D02*
X7734380Y-4162228D01*
X7734380Y-4162228D02*
X7734380Y-3895561D01*
X7734380Y-3895561D02*
X7772476Y-3743180D01*
X7772476Y-3743180D02*
X7848666Y-3666990D01*
X7848666Y-3666990D02*
X7924857Y-3628895D01*
X7924857Y-3628895D02*
X8077238Y-3628895D01*
X8077238Y-3628895D02*
X8153428Y-3666990D01*
X8153428Y-3666990D02*
X8229619Y-3743180D01*
X8229619Y-3743180D02*
X8267714Y-3895561D01*
X8267714Y-3895561D02*
X8267714Y-4162228D01*
X8267714Y-4162228D02*
X8229619Y-4314609D01*
X8229619Y-4314609D02*
X8153428Y-4390800D01*
X8153428Y-4390800D02*
X8077238Y-4428895D01*
X8077238Y-4428895D02*
X7924857Y-4428895D01*
X9029618Y-4428895D02*
X8572475Y-4428895D01*
X8801047Y-4428895D02*
X8801047Y-3628895D01*
X8801047Y-3628895D02*
X8724856Y-3743180D01*
X8724856Y-3743180D02*
X8648666Y-3819371D01*
X8648666Y-3819371D02*
X8572475Y-3857466D01*
X8534475Y-13026800D02*
X8648761Y-13064895D01*
X8648761Y-13064895D02*
X8839237Y-13064895D01*
X8839237Y-13064895D02*
X8915428Y-13026800D01*
X8915428Y-13026800D02*
X8953523Y-12988704D01*
X8953523Y-12988704D02*
X8991618Y-12912514D01*
X8991618Y-12912514D02*
X8991618Y-12836323D01*
X8991618Y-12836323D02*
X8953523Y-12760133D01*
X8953523Y-12760133D02*
X8915428Y-12722038D01*
X8915428Y-12722038D02*
X8839237Y-12683942D01*
X8839237Y-12683942D02*
X8686856Y-12645847D01*
X8686856Y-12645847D02*
X8610666Y-12607752D01*
X8610666Y-12607752D02*
X8572571Y-12569657D01*
X8572571Y-12569657D02*
X8534475Y-12493466D01*
X8534475Y-12493466D02*
X8534475Y-12417276D01*
X8534475Y-12417276D02*
X8572571Y-12341085D01*
X8572571Y-12341085D02*
X8610666Y-12302990D01*
X8610666Y-12302990D02*
X8686856Y-12264895D01*
X8686856Y-12264895D02*
X8877333Y-12264895D01*
X8877333Y-12264895D02*
X8991618Y-12302990D01*
X9296380Y-12341085D02*
X9334476Y-12302990D01*
X9334476Y-12302990D02*
X9410666Y-12264895D01*
X9410666Y-12264895D02*
X9601142Y-12264895D01*
X9601142Y-12264895D02*
X9677333Y-12302990D01*
X9677333Y-12302990D02*
X9715428Y-12341085D01*
X9715428Y-12341085D02*
X9753523Y-12417276D01*
X9753523Y-12417276D02*
X9753523Y-12493466D01*
X9753523Y-12493466D02*
X9715428Y-12607752D01*
X9715428Y-12607752D02*
X9258285Y-13064895D01*
X9258285Y-13064895D02*
X9753523Y-13064895D01*
X3676667Y-11464704D02*
X3638571Y-11502800D01*
X3638571Y-11502800D02*
X3524286Y-11540895D01*
X3524286Y-11540895D02*
X3448095Y-11540895D01*
X3448095Y-11540895D02*
X3333809Y-11502800D01*
X3333809Y-11502800D02*
X3257619Y-11426609D01*
X3257619Y-11426609D02*
X3219524Y-11350419D01*
X3219524Y-11350419D02*
X3181428Y-11198038D01*
X3181428Y-11198038D02*
X3181428Y-11083752D01*
X3181428Y-11083752D02*
X3219524Y-10931371D01*
X3219524Y-10931371D02*
X3257619Y-10855180D01*
X3257619Y-10855180D02*
X3333809Y-10778990D01*
X3333809Y-10778990D02*
X3448095Y-10740895D01*
X3448095Y-10740895D02*
X3524286Y-10740895D01*
X3524286Y-10740895D02*
X3638571Y-10778990D01*
X3638571Y-10778990D02*
X3676667Y-10817085D01*
X4438571Y-11540895D02*
X3981428Y-11540895D01*
X4210000Y-11540895D02*
X4210000Y-10740895D01*
X4210000Y-10740895D02*
X4133809Y-10855180D01*
X4133809Y-10855180D02*
X4057619Y-10931371D01*
X4057619Y-10931371D02*
X3981428Y-10969466D01*
X2066704Y-5213332D02*
X2104800Y-5251428D01*
X2104800Y-5251428D02*
X2142895Y-5365713D01*
X2142895Y-5365713D02*
X2142895Y-5441904D01*
X2142895Y-5441904D02*
X2104800Y-5556190D01*
X2104800Y-5556190D02*
X2028609Y-5632380D01*
X2028609Y-5632380D02*
X1952419Y-5670475D01*
X1952419Y-5670475D02*
X1800038Y-5708571D01*
X1800038Y-5708571D02*
X1685752Y-5708571D01*
X1685752Y-5708571D02*
X1533371Y-5670475D01*
X1533371Y-5670475D02*
X1457180Y-5632380D01*
X1457180Y-5632380D02*
X1380990Y-5556190D01*
X1380990Y-5556190D02*
X1342895Y-5441904D01*
X1342895Y-5441904D02*
X1342895Y-5365713D01*
X1342895Y-5365713D02*
X1380990Y-5251428D01*
X1380990Y-5251428D02*
X1419085Y-5213332D01*
X1419085Y-4908571D02*
X1380990Y-4870475D01*
X1380990Y-4870475D02*
X1342895Y-4794285D01*
X1342895Y-4794285D02*
X1342895Y-4603809D01*
X1342895Y-4603809D02*
X1380990Y-4527618D01*
X1380990Y-4527618D02*
X1419085Y-4489523D01*
X1419085Y-4489523D02*
X1495276Y-4451428D01*
X1495276Y-4451428D02*
X1571466Y-4451428D01*
X1571466Y-4451428D02*
X1685752Y-4489523D01*
X1685752Y-4489523D02*
X2142895Y-4946666D01*
X2142895Y-4946666D02*
X2142895Y-4451428D01*
X-10303105Y3295715D02*
X-10684058Y3029048D01*
X-10303105Y2838572D02*
X-11103105Y2838572D01*
X-11103105Y2838572D02*
X-11103105Y3143334D01*
X-11103105Y3143334D02*
X-11065010Y3219524D01*
X-11065010Y3219524D02*
X-11026915Y3257619D01*
X-11026915Y3257619D02*
X-10950724Y3295715D01*
X-10950724Y3295715D02*
X-10836439Y3295715D01*
X-10836439Y3295715D02*
X-10760248Y3257619D01*
X-10760248Y3257619D02*
X-10722153Y3219524D01*
X-10722153Y3219524D02*
X-10684058Y3143334D01*
X-10684058Y3143334D02*
X-10684058Y2838572D01*
X-10303105Y4057619D02*
X-10303105Y3600476D01*
X-10303105Y3829048D02*
X-11103105Y3829048D01*
X-11103105Y3829048D02*
X-10988820Y3752857D01*
X-10988820Y3752857D02*
X-10912629Y3676667D01*
X-10912629Y3676667D02*
X-10874534Y3600476D01*
X-11026915Y4362381D02*
X-11065010Y4400477D01*
X-11065010Y4400477D02*
X-11103105Y4476667D01*
X-11103105Y4476667D02*
X-11103105Y4667143D01*
X-11103105Y4667143D02*
X-11065010Y4743334D01*
X-11065010Y4743334D02*
X-11026915Y4781429D01*
X-11026915Y4781429D02*
X-10950724Y4819524D01*
X-10950724Y4819524D02*
X-10874534Y4819524D01*
X-10874534Y4819524D02*
X-10760248Y4781429D01*
X-10760248Y4781429D02*
X-10303105Y4324286D01*
X-10303105Y4324286D02*
X-10303105Y4819524D01*
X-19640476Y13097105D02*
X-19640476Y13897105D01*
X-19640476Y13897105D02*
X-19450000Y13897105D01*
X-19450000Y13897105D02*
X-19335714Y13859010D01*
X-19335714Y13859010D02*
X-19259524Y13782820D01*
X-19259524Y13782820D02*
X-19221429Y13706629D01*
X-19221429Y13706629D02*
X-19183333Y13554248D01*
X-19183333Y13554248D02*
X-19183333Y13439962D01*
X-19183333Y13439962D02*
X-19221429Y13287581D01*
X-19221429Y13287581D02*
X-19259524Y13211391D01*
X-19259524Y13211391D02*
X-19335714Y13135200D01*
X-19335714Y13135200D02*
X-19450000Y13097105D01*
X-19450000Y13097105D02*
X-19640476Y13097105D01*
X-18421429Y13097105D02*
X-18878572Y13097105D01*
X-18650000Y13097105D02*
X-18650000Y13897105D01*
X-18650000Y13897105D02*
X-18726191Y13782820D01*
X-18726191Y13782820D02*
X-18802381Y13706629D01*
X-18802381Y13706629D02*
X-18878572Y13668534D01*
X-10303105Y-6285D02*
X-10684058Y-272952D01*
X-10303105Y-463428D02*
X-11103105Y-463428D01*
X-11103105Y-463428D02*
X-11103105Y-158666D01*
X-11103105Y-158666D02*
X-11065010Y-82476D01*
X-11065010Y-82476D02*
X-11026915Y-44381D01*
X-11026915Y-44381D02*
X-10950724Y-6285D01*
X-10950724Y-6285D02*
X-10836439Y-6285D01*
X-10836439Y-6285D02*
X-10760248Y-44381D01*
X-10760248Y-44381D02*
X-10722153Y-82476D01*
X-10722153Y-82476D02*
X-10684058Y-158666D01*
X-10684058Y-158666D02*
X-10684058Y-463428D01*
X-10303105Y755619D02*
X-10303105Y298476D01*
X-10303105Y527048D02*
X-11103105Y527048D01*
X-11103105Y527048D02*
X-10988820Y450857D01*
X-10988820Y450857D02*
X-10912629Y374667D01*
X-10912629Y374667D02*
X-10874534Y298476D01*
X-10303105Y1517524D02*
X-10303105Y1060381D01*
X-10303105Y1288953D02*
X-11103105Y1288953D01*
X-11103105Y1288953D02*
X-10988820Y1212762D01*
X-10988820Y1212762D02*
X-10912629Y1136572D01*
X-10912629Y1136572D02*
X-10874534Y1060381D01*
X5454667Y-12810895D02*
X5188000Y-12429942D01*
X4997524Y-12810895D02*
X4997524Y-12010895D01*
X4997524Y-12010895D02*
X5302286Y-12010895D01*
X5302286Y-12010895D02*
X5378476Y-12048990D01*
X5378476Y-12048990D02*
X5416571Y-12087085D01*
X5416571Y-12087085D02*
X5454667Y-12163276D01*
X5454667Y-12163276D02*
X5454667Y-12277561D01*
X5454667Y-12277561D02*
X5416571Y-12353752D01*
X5416571Y-12353752D02*
X5378476Y-12391847D01*
X5378476Y-12391847D02*
X5302286Y-12429942D01*
X5302286Y-12429942D02*
X4997524Y-12429942D01*
X5835619Y-12810895D02*
X5988000Y-12810895D01*
X5988000Y-12810895D02*
X6064190Y-12772800D01*
X6064190Y-12772800D02*
X6102286Y-12734704D01*
X6102286Y-12734704D02*
X6178476Y-12620419D01*
X6178476Y-12620419D02*
X6216571Y-12468038D01*
X6216571Y-12468038D02*
X6216571Y-12163276D01*
X6216571Y-12163276D02*
X6178476Y-12087085D01*
X6178476Y-12087085D02*
X6140381Y-12048990D01*
X6140381Y-12048990D02*
X6064190Y-12010895D01*
X6064190Y-12010895D02*
X5911809Y-12010895D01*
X5911809Y-12010895D02*
X5835619Y-12048990D01*
X5835619Y-12048990D02*
X5797524Y-12087085D01*
X5797524Y-12087085D02*
X5759428Y-12163276D01*
X5759428Y-12163276D02*
X5759428Y-12353752D01*
X5759428Y-12353752D02*
X5797524Y-12429942D01*
X5797524Y-12429942D02*
X5835619Y-12468038D01*
X5835619Y-12468038D02*
X5911809Y-12506133D01*
X5911809Y-12506133D02*
X6064190Y-12506133D01*
X6064190Y-12506133D02*
X6140381Y-12468038D01*
X6140381Y-12468038D02*
X6178476Y-12429942D01*
X6178476Y-12429942D02*
X6216571Y-12353752D01*
X-5213333Y-11794895D02*
X-5480000Y-11413942D01*
X-5670476Y-11794895D02*
X-5670476Y-10994895D01*
X-5670476Y-10994895D02*
X-5365714Y-10994895D01*
X-5365714Y-10994895D02*
X-5289524Y-11032990D01*
X-5289524Y-11032990D02*
X-5251429Y-11071085D01*
X-5251429Y-11071085D02*
X-5213333Y-11147276D01*
X-5213333Y-11147276D02*
X-5213333Y-11261561D01*
X-5213333Y-11261561D02*
X-5251429Y-11337752D01*
X-5251429Y-11337752D02*
X-5289524Y-11375847D01*
X-5289524Y-11375847D02*
X-5365714Y-11413942D01*
X-5365714Y-11413942D02*
X-5670476Y-11413942D01*
X-4946667Y-10994895D02*
X-4451429Y-10994895D01*
X-4451429Y-10994895D02*
X-4718095Y-11299657D01*
X-4718095Y-11299657D02*
X-4603810Y-11299657D01*
X-4603810Y-11299657D02*
X-4527619Y-11337752D01*
X-4527619Y-11337752D02*
X-4489524Y-11375847D01*
X-4489524Y-11375847D02*
X-4451429Y-11452038D01*
X-4451429Y-11452038D02*
X-4451429Y-11642514D01*
X-4451429Y-11642514D02*
X-4489524Y-11718704D01*
X-4489524Y-11718704D02*
X-4527619Y-11756800D01*
X-4527619Y-11756800D02*
X-4603810Y-11794895D01*
X-4603810Y-11794895D02*
X-4832381Y-11794895D01*
X-4832381Y-11794895D02*
X-4908572Y-11756800D01*
X-4908572Y-11756800D02*
X-4946667Y-11718704D01*
X9772667Y14079296D02*
X9734571Y14041200D01*
X9734571Y14041200D02*
X9620286Y14003105D01*
X9620286Y14003105D02*
X9544095Y14003105D01*
X9544095Y14003105D02*
X9429809Y14041200D01*
X9429809Y14041200D02*
X9353619Y14117391D01*
X9353619Y14117391D02*
X9315524Y14193581D01*
X9315524Y14193581D02*
X9277428Y14345962D01*
X9277428Y14345962D02*
X9277428Y14460248D01*
X9277428Y14460248D02*
X9315524Y14612629D01*
X9315524Y14612629D02*
X9353619Y14688820D01*
X9353619Y14688820D02*
X9429809Y14765010D01*
X9429809Y14765010D02*
X9544095Y14803105D01*
X9544095Y14803105D02*
X9620286Y14803105D01*
X9620286Y14803105D02*
X9734571Y14765010D01*
X9734571Y14765010D02*
X9772667Y14726915D01*
X10458381Y14803105D02*
X10306000Y14803105D01*
X10306000Y14803105D02*
X10229809Y14765010D01*
X10229809Y14765010D02*
X10191714Y14726915D01*
X10191714Y14726915D02*
X10115524Y14612629D01*
X10115524Y14612629D02*
X10077428Y14460248D01*
X10077428Y14460248D02*
X10077428Y14155486D01*
X10077428Y14155486D02*
X10115524Y14079296D01*
X10115524Y14079296D02*
X10153619Y14041200D01*
X10153619Y14041200D02*
X10229809Y14003105D01*
X10229809Y14003105D02*
X10382190Y14003105D01*
X10382190Y14003105D02*
X10458381Y14041200D01*
X10458381Y14041200D02*
X10496476Y14079296D01*
X10496476Y14079296D02*
X10534571Y14155486D01*
X10534571Y14155486D02*
X10534571Y14345962D01*
X10534571Y14345962D02*
X10496476Y14422153D01*
X10496476Y14422153D02*
X10458381Y14460248D01*
X10458381Y14460248D02*
X10382190Y14498343D01*
X10382190Y14498343D02*
X10229809Y14498343D01*
X10229809Y14498343D02*
X10153619Y14460248D01*
X10153619Y14460248D02*
X10115524Y14422153D01*
X10115524Y14422153D02*
X10077428Y14345962D01*
X10903048Y-4428895D02*
X10903048Y-3628895D01*
X11741143Y-4352704D02*
X11703047Y-4390800D01*
X11703047Y-4390800D02*
X11588762Y-4428895D01*
X11588762Y-4428895D02*
X11512571Y-4428895D01*
X11512571Y-4428895D02*
X11398285Y-4390800D01*
X11398285Y-4390800D02*
X11322095Y-4314609D01*
X11322095Y-4314609D02*
X11284000Y-4238419D01*
X11284000Y-4238419D02*
X11245904Y-4086038D01*
X11245904Y-4086038D02*
X11245904Y-3971752D01*
X11245904Y-3971752D02*
X11284000Y-3819371D01*
X11284000Y-3819371D02*
X11322095Y-3743180D01*
X11322095Y-3743180D02*
X11398285Y-3666990D01*
X11398285Y-3666990D02*
X11512571Y-3628895D01*
X11512571Y-3628895D02*
X11588762Y-3628895D01*
X11588762Y-3628895D02*
X11703047Y-3666990D01*
X11703047Y-3666990D02*
X11741143Y-3705085D01*
X12426857Y-3895561D02*
X12426857Y-4428895D01*
X12236381Y-3590800D02*
X12045904Y-4162228D01*
X12045904Y-4162228D02*
X12541143Y-4162228D01*
X6077048Y-9254895D02*
X6077048Y-8454895D01*
X6915143Y-9178704D02*
X6877047Y-9216800D01*
X6877047Y-9216800D02*
X6762762Y-9254895D01*
X6762762Y-9254895D02*
X6686571Y-9254895D01*
X6686571Y-9254895D02*
X6572285Y-9216800D01*
X6572285Y-9216800D02*
X6496095Y-9140609D01*
X6496095Y-9140609D02*
X6458000Y-9064419D01*
X6458000Y-9064419D02*
X6419904Y-8912038D01*
X6419904Y-8912038D02*
X6419904Y-8797752D01*
X6419904Y-8797752D02*
X6458000Y-8645371D01*
X6458000Y-8645371D02*
X6496095Y-8569180D01*
X6496095Y-8569180D02*
X6572285Y-8492990D01*
X6572285Y-8492990D02*
X6686571Y-8454895D01*
X6686571Y-8454895D02*
X6762762Y-8454895D01*
X6762762Y-8454895D02*
X6877047Y-8492990D01*
X6877047Y-8492990D02*
X6915143Y-8531085D01*
X7219904Y-8531085D02*
X7258000Y-8492990D01*
X7258000Y-8492990D02*
X7334190Y-8454895D01*
X7334190Y-8454895D02*
X7524666Y-8454895D01*
X7524666Y-8454895D02*
X7600857Y-8492990D01*
X7600857Y-8492990D02*
X7638952Y-8531085D01*
X7638952Y-8531085D02*
X7677047Y-8607276D01*
X7677047Y-8607276D02*
X7677047Y-8683466D01*
X7677047Y-8683466D02*
X7638952Y-8797752D01*
X7638952Y-8797752D02*
X7181809Y-9254895D01*
X7181809Y-9254895D02*
X7677047Y-9254895D01*
X-5223105Y-4451332D02*
X-5604058Y-4717999D01*
X-5223105Y-4908475D02*
X-6023105Y-4908475D01*
X-6023105Y-4908475D02*
X-6023105Y-4603713D01*
X-6023105Y-4603713D02*
X-5985010Y-4527523D01*
X-5985010Y-4527523D02*
X-5946915Y-4489428D01*
X-5946915Y-4489428D02*
X-5870724Y-4451332D01*
X-5870724Y-4451332D02*
X-5756439Y-4451332D01*
X-5756439Y-4451332D02*
X-5680248Y-4489428D01*
X-5680248Y-4489428D02*
X-5642153Y-4527523D01*
X-5642153Y-4527523D02*
X-5604058Y-4603713D01*
X-5604058Y-4603713D02*
X-5604058Y-4908475D01*
X-5680248Y-3994190D02*
X-5718343Y-4070380D01*
X-5718343Y-4070380D02*
X-5756439Y-4108475D01*
X-5756439Y-4108475D02*
X-5832629Y-4146571D01*
X-5832629Y-4146571D02*
X-5870724Y-4146571D01*
X-5870724Y-4146571D02*
X-5946915Y-4108475D01*
X-5946915Y-4108475D02*
X-5985010Y-4070380D01*
X-5985010Y-4070380D02*
X-6023105Y-3994190D01*
X-6023105Y-3994190D02*
X-6023105Y-3841809D01*
X-6023105Y-3841809D02*
X-5985010Y-3765618D01*
X-5985010Y-3765618D02*
X-5946915Y-3727523D01*
X-5946915Y-3727523D02*
X-5870724Y-3689428D01*
X-5870724Y-3689428D02*
X-5832629Y-3689428D01*
X-5832629Y-3689428D02*
X-5756439Y-3727523D01*
X-5756439Y-3727523D02*
X-5718343Y-3765618D01*
X-5718343Y-3765618D02*
X-5680248Y-3841809D01*
X-5680248Y-3841809D02*
X-5680248Y-3994190D01*
X-5680248Y-3994190D02*
X-5642153Y-4070380D01*
X-5642153Y-4070380D02*
X-5604058Y-4108475D01*
X-5604058Y-4108475D02*
X-5527867Y-4146571D01*
X-5527867Y-4146571D02*
X-5375486Y-4146571D01*
X-5375486Y-4146571D02*
X-5299296Y-4108475D01*
X-5299296Y-4108475D02*
X-5261200Y-4070380D01*
X-5261200Y-4070380D02*
X-5223105Y-3994190D01*
X-5223105Y-3994190D02*
X-5223105Y-3841809D01*
X-5223105Y-3841809D02*
X-5261200Y-3765618D01*
X-5261200Y-3765618D02*
X-5299296Y-3727523D01*
X-5299296Y-3727523D02*
X-5375486Y-3689428D01*
X-5375486Y-3689428D02*
X-5527867Y-3689428D01*
X-5527867Y-3689428D02*
X-5604058Y-3727523D01*
X-5604058Y-3727523D02*
X-5642153Y-3765618D01*
X-5642153Y-3765618D02*
X-5680248Y-3841809D01*
X2279714Y-3412895D02*
X2013047Y-3031942D01*
X1822571Y-3412895D02*
X1822571Y-2612895D01*
X1822571Y-2612895D02*
X2127333Y-2612895D01*
X2127333Y-2612895D02*
X2203523Y-2650990D01*
X2203523Y-2650990D02*
X2241618Y-2689085D01*
X2241618Y-2689085D02*
X2279714Y-2765276D01*
X2279714Y-2765276D02*
X2279714Y-2879561D01*
X2279714Y-2879561D02*
X2241618Y-2955752D01*
X2241618Y-2955752D02*
X2203523Y-2993847D01*
X2203523Y-2993847D02*
X2127333Y-3031942D01*
X2127333Y-3031942D02*
X1822571Y-3031942D01*
X3041618Y-3412895D02*
X2584475Y-3412895D01*
X2813047Y-3412895D02*
X2813047Y-2612895D01*
X2813047Y-2612895D02*
X2736856Y-2727180D01*
X2736856Y-2727180D02*
X2660666Y-2803371D01*
X2660666Y-2803371D02*
X2584475Y-2841466D01*
X3498761Y-2955752D02*
X3422571Y-2917657D01*
X3422571Y-2917657D02*
X3384476Y-2879561D01*
X3384476Y-2879561D02*
X3346380Y-2803371D01*
X3346380Y-2803371D02*
X3346380Y-2765276D01*
X3346380Y-2765276D02*
X3384476Y-2689085D01*
X3384476Y-2689085D02*
X3422571Y-2650990D01*
X3422571Y-2650990D02*
X3498761Y-2612895D01*
X3498761Y-2612895D02*
X3651142Y-2612895D01*
X3651142Y-2612895D02*
X3727333Y-2650990D01*
X3727333Y-2650990D02*
X3765428Y-2689085D01*
X3765428Y-2689085D02*
X3803523Y-2765276D01*
X3803523Y-2765276D02*
X3803523Y-2803371D01*
X3803523Y-2803371D02*
X3765428Y-2879561D01*
X3765428Y-2879561D02*
X3727333Y-2917657D01*
X3727333Y-2917657D02*
X3651142Y-2955752D01*
X3651142Y-2955752D02*
X3498761Y-2955752D01*
X3498761Y-2955752D02*
X3422571Y-2993847D01*
X3422571Y-2993847D02*
X3384476Y-3031942D01*
X3384476Y-3031942D02*
X3346380Y-3108133D01*
X3346380Y-3108133D02*
X3346380Y-3260514D01*
X3346380Y-3260514D02*
X3384476Y-3336704D01*
X3384476Y-3336704D02*
X3422571Y-3374800D01*
X3422571Y-3374800D02*
X3498761Y-3412895D01*
X3498761Y-3412895D02*
X3651142Y-3412895D01*
X3651142Y-3412895D02*
X3727333Y-3374800D01*
X3727333Y-3374800D02*
X3765428Y-3336704D01*
X3765428Y-3336704D02*
X3803523Y-3260514D01*
X3803523Y-3260514D02*
X3803523Y-3108133D01*
X3803523Y-3108133D02*
X3765428Y-3031942D01*
X3765428Y-3031942D02*
X3727333Y-2993847D01*
X3727333Y-2993847D02*
X3651142Y-2955752D01*
X12556895Y-13087332D02*
X12175942Y-13353999D01*
X12556895Y-13544475D02*
X11756895Y-13544475D01*
X11756895Y-13544475D02*
X11756895Y-13239713D01*
X11756895Y-13239713D02*
X11794990Y-13163523D01*
X11794990Y-13163523D02*
X11833085Y-13125428D01*
X11833085Y-13125428D02*
X11909276Y-13087332D01*
X11909276Y-13087332D02*
X12023561Y-13087332D01*
X12023561Y-13087332D02*
X12099752Y-13125428D01*
X12099752Y-13125428D02*
X12137847Y-13163523D01*
X12137847Y-13163523D02*
X12175942Y-13239713D01*
X12175942Y-13239713D02*
X12175942Y-13544475D01*
X12023561Y-12401618D02*
X12556895Y-12401618D01*
X11718800Y-12592094D02*
X12290228Y-12782571D01*
X12290228Y-12782571D02*
X12290228Y-12287332D01*
X15614667Y-11972704D02*
X15576571Y-12010800D01*
X15576571Y-12010800D02*
X15462286Y-12048895D01*
X15462286Y-12048895D02*
X15386095Y-12048895D01*
X15386095Y-12048895D02*
X15271809Y-12010800D01*
X15271809Y-12010800D02*
X15195619Y-11934609D01*
X15195619Y-11934609D02*
X15157524Y-11858419D01*
X15157524Y-11858419D02*
X15119428Y-11706038D01*
X15119428Y-11706038D02*
X15119428Y-11591752D01*
X15119428Y-11591752D02*
X15157524Y-11439371D01*
X15157524Y-11439371D02*
X15195619Y-11363180D01*
X15195619Y-11363180D02*
X15271809Y-11286990D01*
X15271809Y-11286990D02*
X15386095Y-11248895D01*
X15386095Y-11248895D02*
X15462286Y-11248895D01*
X15462286Y-11248895D02*
X15576571Y-11286990D01*
X15576571Y-11286990D02*
X15614667Y-11325085D01*
X15995619Y-12048895D02*
X16148000Y-12048895D01*
X16148000Y-12048895D02*
X16224190Y-12010800D01*
X16224190Y-12010800D02*
X16262286Y-11972704D01*
X16262286Y-11972704D02*
X16338476Y-11858419D01*
X16338476Y-11858419D02*
X16376571Y-11706038D01*
X16376571Y-11706038D02*
X16376571Y-11401276D01*
X16376571Y-11401276D02*
X16338476Y-11325085D01*
X16338476Y-11325085D02*
X16300381Y-11286990D01*
X16300381Y-11286990D02*
X16224190Y-11248895D01*
X16224190Y-11248895D02*
X16071809Y-11248895D01*
X16071809Y-11248895D02*
X15995619Y-11286990D01*
X15995619Y-11286990D02*
X15957524Y-11325085D01*
X15957524Y-11325085D02*
X15919428Y-11401276D01*
X15919428Y-11401276D02*
X15919428Y-11591752D01*
X15919428Y-11591752D02*
X15957524Y-11667942D01*
X15957524Y-11667942D02*
X15995619Y-11706038D01*
X15995619Y-11706038D02*
X16071809Y-11744133D01*
X16071809Y-11744133D02*
X16224190Y-11744133D01*
X16224190Y-11744133D02*
X16300381Y-11706038D01*
X16300381Y-11706038D02*
X16338476Y-11667942D01*
X16338476Y-11667942D02*
X16376571Y-11591752D01*
X11931714Y2683105D02*
X11665047Y3064058D01*
X11474571Y2683105D02*
X11474571Y3483105D01*
X11474571Y3483105D02*
X11779333Y3483105D01*
X11779333Y3483105D02*
X11855523Y3445010D01*
X11855523Y3445010D02*
X11893618Y3406915D01*
X11893618Y3406915D02*
X11931714Y3330724D01*
X11931714Y3330724D02*
X11931714Y3216439D01*
X11931714Y3216439D02*
X11893618Y3140248D01*
X11893618Y3140248D02*
X11855523Y3102153D01*
X11855523Y3102153D02*
X11779333Y3064058D01*
X11779333Y3064058D02*
X11474571Y3064058D01*
X12693618Y2683105D02*
X12236475Y2683105D01*
X12465047Y2683105D02*
X12465047Y3483105D01*
X12465047Y3483105D02*
X12388856Y3368820D01*
X12388856Y3368820D02*
X12312666Y3292629D01*
X12312666Y3292629D02*
X12236475Y3254534D01*
X12960285Y3483105D02*
X13455523Y3483105D01*
X13455523Y3483105D02*
X13188857Y3178343D01*
X13188857Y3178343D02*
X13303142Y3178343D01*
X13303142Y3178343D02*
X13379333Y3140248D01*
X13379333Y3140248D02*
X13417428Y3102153D01*
X13417428Y3102153D02*
X13455523Y3025962D01*
X13455523Y3025962D02*
X13455523Y2835486D01*
X13455523Y2835486D02*
X13417428Y2759296D01*
X13417428Y2759296D02*
X13379333Y2721200D01*
X13379333Y2721200D02*
X13303142Y2683105D01*
X13303142Y2683105D02*
X13074571Y2683105D01*
X13074571Y2683105D02*
X12998380Y2721200D01*
X12998380Y2721200D02*
X12960285Y2759296D01*
X-268667Y-16582895D02*
X-268667Y-17154323D01*
X-268667Y-17154323D02*
X-306762Y-17268609D01*
X-306762Y-17268609D02*
X-382953Y-17344800D01*
X-382953Y-17344800D02*
X-497238Y-17382895D01*
X-497238Y-17382895D02*
X-573429Y-17382895D01*
X531333Y-17382895D02*
X74190Y-17382895D01*
X302762Y-17382895D02*
X302762Y-16582895D01*
X302762Y-16582895D02*
X226571Y-16697180D01*
X226571Y-16697180D02*
X150381Y-16773371D01*
X150381Y-16773371D02*
X74190Y-16811466D01*
X-12464952Y-6546895D02*
X-12464952Y-5746895D01*
X-11626857Y-6470704D02*
X-11664953Y-6508800D01*
X-11664953Y-6508800D02*
X-11779238Y-6546895D01*
X-11779238Y-6546895D02*
X-11855429Y-6546895D01*
X-11855429Y-6546895D02*
X-11969715Y-6508800D01*
X-11969715Y-6508800D02*
X-12045905Y-6432609D01*
X-12045905Y-6432609D02*
X-12084000Y-6356419D01*
X-12084000Y-6356419D02*
X-12122096Y-6204038D01*
X-12122096Y-6204038D02*
X-12122096Y-6089752D01*
X-12122096Y-6089752D02*
X-12084000Y-5937371D01*
X-12084000Y-5937371D02*
X-12045905Y-5861180D01*
X-12045905Y-5861180D02*
X-11969715Y-5784990D01*
X-11969715Y-5784990D02*
X-11855429Y-5746895D01*
X-11855429Y-5746895D02*
X-11779238Y-5746895D01*
X-11779238Y-5746895D02*
X-11664953Y-5784990D01*
X-11664953Y-5784990D02*
X-11626857Y-5823085D01*
X-11360191Y-5746895D02*
X-10864953Y-5746895D01*
X-10864953Y-5746895D02*
X-11131619Y-6051657D01*
X-11131619Y-6051657D02*
X-11017334Y-6051657D01*
X-11017334Y-6051657D02*
X-10941143Y-6089752D01*
X-10941143Y-6089752D02*
X-10903048Y-6127847D01*
X-10903048Y-6127847D02*
X-10864953Y-6204038D01*
X-10864953Y-6204038D02*
X-10864953Y-6394514D01*
X-10864953Y-6394514D02*
X-10903048Y-6470704D01*
X-10903048Y-6470704D02*
X-10941143Y-6508800D01*
X-10941143Y-6508800D02*
X-11017334Y-6546895D01*
X-11017334Y-6546895D02*
X-11245905Y-6546895D01*
X-11245905Y-6546895D02*
X-11322096Y-6508800D01*
X-11322096Y-6508800D02*
X-11360191Y-6470704D01*
X-9753525Y-13026800D02*
X-9639239Y-13064895D01*
X-9639239Y-13064895D02*
X-9448763Y-13064895D01*
X-9448763Y-13064895D02*
X-9372572Y-13026800D01*
X-9372572Y-13026800D02*
X-9334477Y-12988704D01*
X-9334477Y-12988704D02*
X-9296382Y-12912514D01*
X-9296382Y-12912514D02*
X-9296382Y-12836323D01*
X-9296382Y-12836323D02*
X-9334477Y-12760133D01*
X-9334477Y-12760133D02*
X-9372572Y-12722038D01*
X-9372572Y-12722038D02*
X-9448763Y-12683942D01*
X-9448763Y-12683942D02*
X-9601144Y-12645847D01*
X-9601144Y-12645847D02*
X-9677334Y-12607752D01*
X-9677334Y-12607752D02*
X-9715429Y-12569657D01*
X-9715429Y-12569657D02*
X-9753525Y-12493466D01*
X-9753525Y-12493466D02*
X-9753525Y-12417276D01*
X-9753525Y-12417276D02*
X-9715429Y-12341085D01*
X-9715429Y-12341085D02*
X-9677334Y-12302990D01*
X-9677334Y-12302990D02*
X-9601144Y-12264895D01*
X-9601144Y-12264895D02*
X-9410667Y-12264895D01*
X-9410667Y-12264895D02*
X-9296382Y-12302990D01*
X-8534477Y-13064895D02*
X-8991620Y-13064895D01*
X-8763048Y-13064895D02*
X-8763048Y-12264895D01*
X-8763048Y-12264895D02*
X-8839239Y-12379180D01*
X-8839239Y-12379180D02*
X-8915429Y-12455371D01*
X-8915429Y-12455371D02*
X-8991620Y-12493466D01*
X12185714Y11065105D02*
X11919047Y11446058D01*
X11728571Y11065105D02*
X11728571Y11865105D01*
X11728571Y11865105D02*
X12033333Y11865105D01*
X12033333Y11865105D02*
X12109523Y11827010D01*
X12109523Y11827010D02*
X12147618Y11788915D01*
X12147618Y11788915D02*
X12185714Y11712724D01*
X12185714Y11712724D02*
X12185714Y11598439D01*
X12185714Y11598439D02*
X12147618Y11522248D01*
X12147618Y11522248D02*
X12109523Y11484153D01*
X12109523Y11484153D02*
X12033333Y11446058D01*
X12033333Y11446058D02*
X11728571Y11446058D01*
X12947618Y11065105D02*
X12490475Y11065105D01*
X12719047Y11065105D02*
X12719047Y11865105D01*
X12719047Y11865105D02*
X12642856Y11750820D01*
X12642856Y11750820D02*
X12566666Y11674629D01*
X12566666Y11674629D02*
X12490475Y11636534D01*
X13633333Y11865105D02*
X13480952Y11865105D01*
X13480952Y11865105D02*
X13404761Y11827010D01*
X13404761Y11827010D02*
X13366666Y11788915D01*
X13366666Y11788915D02*
X13290476Y11674629D01*
X13290476Y11674629D02*
X13252380Y11522248D01*
X13252380Y11522248D02*
X13252380Y11217486D01*
X13252380Y11217486D02*
X13290476Y11141296D01*
X13290476Y11141296D02*
X13328571Y11103200D01*
X13328571Y11103200D02*
X13404761Y11065105D01*
X13404761Y11065105D02*
X13557142Y11065105D01*
X13557142Y11065105D02*
X13633333Y11103200D01*
X13633333Y11103200D02*
X13671428Y11141296D01*
X13671428Y11141296D02*
X13709523Y11217486D01*
X13709523Y11217486D02*
X13709523Y11407962D01*
X13709523Y11407962D02*
X13671428Y11484153D01*
X13671428Y11484153D02*
X13633333Y11522248D01*
X13633333Y11522248D02*
X13557142Y11560343D01*
X13557142Y11560343D02*
X13404761Y11560343D01*
X13404761Y11560343D02*
X13328571Y11522248D01*
X13328571Y11522248D02*
X13290476Y11484153D01*
X13290476Y11484153D02*
X13252380Y11407962D01*
X872895Y-9023332D02*
X491942Y-9289999D01*
X872895Y-9480475D02*
X72895Y-9480475D01*
X72895Y-9480475D02*
X72895Y-9175713D01*
X72895Y-9175713D02*
X110990Y-9099523D01*
X110990Y-9099523D02*
X149085Y-9061428D01*
X149085Y-9061428D02*
X225276Y-9023332D01*
X225276Y-9023332D02*
X339561Y-9023332D01*
X339561Y-9023332D02*
X415752Y-9061428D01*
X415752Y-9061428D02*
X453847Y-9099523D01*
X453847Y-9099523D02*
X491942Y-9175713D01*
X491942Y-9175713D02*
X491942Y-9480475D01*
X149085Y-8718571D02*
X110990Y-8680475D01*
X110990Y-8680475D02*
X72895Y-8604285D01*
X72895Y-8604285D02*
X72895Y-8413809D01*
X72895Y-8413809D02*
X110990Y-8337618D01*
X110990Y-8337618D02*
X149085Y-8299523D01*
X149085Y-8299523D02*
X225276Y-8261428D01*
X225276Y-8261428D02*
X301466Y-8261428D01*
X301466Y-8261428D02*
X415752Y-8299523D01*
X415752Y-8299523D02*
X872895Y-8756666D01*
X872895Y-8756666D02*
X872895Y-8261428D01*
X8045524Y-9254895D02*
X8045524Y-8454895D01*
X8045524Y-8454895D02*
X8236000Y-8454895D01*
X8236000Y-8454895D02*
X8350286Y-8492990D01*
X8350286Y-8492990D02*
X8426476Y-8569180D01*
X8426476Y-8569180D02*
X8464571Y-8645371D01*
X8464571Y-8645371D02*
X8502667Y-8797752D01*
X8502667Y-8797752D02*
X8502667Y-8912038D01*
X8502667Y-8912038D02*
X8464571Y-9064419D01*
X8464571Y-9064419D02*
X8426476Y-9140609D01*
X8426476Y-9140609D02*
X8350286Y-9216800D01*
X8350286Y-9216800D02*
X8236000Y-9254895D01*
X8236000Y-9254895D02*
X8045524Y-9254895D01*
X8769333Y-8454895D02*
X9264571Y-8454895D01*
X9264571Y-8454895D02*
X8997905Y-8759657D01*
X8997905Y-8759657D02*
X9112190Y-8759657D01*
X9112190Y-8759657D02*
X9188381Y-8797752D01*
X9188381Y-8797752D02*
X9226476Y-8835847D01*
X9226476Y-8835847D02*
X9264571Y-8912038D01*
X9264571Y-8912038D02*
X9264571Y-9102514D01*
X9264571Y-9102514D02*
X9226476Y-9178704D01*
X9226476Y-9178704D02*
X9188381Y-9216800D01*
X9188381Y-9216800D02*
X9112190Y-9254895D01*
X9112190Y-9254895D02*
X8883619Y-9254895D01*
X8883619Y-9254895D02*
X8807428Y-9216800D01*
X8807428Y-9216800D02*
X8769333Y-9178704D01*
X18459524Y13097105D02*
X18459524Y13897105D01*
X18459524Y13897105D02*
X18650000Y13897105D01*
X18650000Y13897105D02*
X18764286Y13859010D01*
X18764286Y13859010D02*
X18840476Y13782820D01*
X18840476Y13782820D02*
X18878571Y13706629D01*
X18878571Y13706629D02*
X18916667Y13554248D01*
X18916667Y13554248D02*
X18916667Y13439962D01*
X18916667Y13439962D02*
X18878571Y13287581D01*
X18878571Y13287581D02*
X18840476Y13211391D01*
X18840476Y13211391D02*
X18764286Y13135200D01*
X18764286Y13135200D02*
X18650000Y13097105D01*
X18650000Y13097105D02*
X18459524Y13097105D01*
X19221428Y13820915D02*
X19259524Y13859010D01*
X19259524Y13859010D02*
X19335714Y13897105D01*
X19335714Y13897105D02*
X19526190Y13897105D01*
X19526190Y13897105D02*
X19602381Y13859010D01*
X19602381Y13859010D02*
X19640476Y13820915D01*
X19640476Y13820915D02*
X19678571Y13744724D01*
X19678571Y13744724D02*
X19678571Y13668534D01*
X19678571Y13668534D02*
X19640476Y13554248D01*
X19640476Y13554248D02*
X19183333Y13097105D01*
X19183333Y13097105D02*
X19678571Y13097105D01*
X-1667105Y-9023332D02*
X-2048058Y-9289999D01*
X-1667105Y-9480475D02*
X-2467105Y-9480475D01*
X-2467105Y-9480475D02*
X-2467105Y-9175713D01*
X-2467105Y-9175713D02*
X-2429010Y-9099523D01*
X-2429010Y-9099523D02*
X-2390915Y-9061428D01*
X-2390915Y-9061428D02*
X-2314724Y-9023332D01*
X-2314724Y-9023332D02*
X-2200439Y-9023332D01*
X-2200439Y-9023332D02*
X-2124248Y-9061428D01*
X-2124248Y-9061428D02*
X-2086153Y-9099523D01*
X-2086153Y-9099523D02*
X-2048058Y-9175713D01*
X-2048058Y-9175713D02*
X-2048058Y-9480475D01*
X-2467105Y-8337618D02*
X-2467105Y-8489999D01*
X-2467105Y-8489999D02*
X-2429010Y-8566190D01*
X-2429010Y-8566190D02*
X-2390915Y-8604285D01*
X-2390915Y-8604285D02*
X-2276629Y-8680475D01*
X-2276629Y-8680475D02*
X-2124248Y-8718571D01*
X-2124248Y-8718571D02*
X-1819486Y-8718571D01*
X-1819486Y-8718571D02*
X-1743296Y-8680475D01*
X-1743296Y-8680475D02*
X-1705200Y-8642380D01*
X-1705200Y-8642380D02*
X-1667105Y-8566190D01*
X-1667105Y-8566190D02*
X-1667105Y-8413809D01*
X-1667105Y-8413809D02*
X-1705200Y-8337618D01*
X-1705200Y-8337618D02*
X-1743296Y-8299523D01*
X-1743296Y-8299523D02*
X-1819486Y-8261428D01*
X-1819486Y-8261428D02*
X-2009962Y-8261428D01*
X-2009962Y-8261428D02*
X-2086153Y-8299523D01*
X-2086153Y-8299523D02*
X-2124248Y-8337618D01*
X-2124248Y-8337618D02*
X-2162343Y-8413809D01*
X-2162343Y-8413809D02*
X-2162343Y-8566190D01*
X-2162343Y-8566190D02*
X-2124248Y-8642380D01*
X-2124248Y-8642380D02*
X-2086153Y-8680475D01*
X-2086153Y-8680475D02*
X-2009962Y-8718571D01*
X12185714Y12081105D02*
X11919047Y12462058D01*
X11728571Y12081105D02*
X11728571Y12881105D01*
X11728571Y12881105D02*
X12033333Y12881105D01*
X12033333Y12881105D02*
X12109523Y12843010D01*
X12109523Y12843010D02*
X12147618Y12804915D01*
X12147618Y12804915D02*
X12185714Y12728724D01*
X12185714Y12728724D02*
X12185714Y12614439D01*
X12185714Y12614439D02*
X12147618Y12538248D01*
X12147618Y12538248D02*
X12109523Y12500153D01*
X12109523Y12500153D02*
X12033333Y12462058D01*
X12033333Y12462058D02*
X11728571Y12462058D01*
X12947618Y12081105D02*
X12490475Y12081105D01*
X12719047Y12081105D02*
X12719047Y12881105D01*
X12719047Y12881105D02*
X12642856Y12766820D01*
X12642856Y12766820D02*
X12566666Y12690629D01*
X12566666Y12690629D02*
X12490475Y12652534D01*
X13633333Y12614439D02*
X13633333Y12081105D01*
X13442857Y12919200D02*
X13252380Y12347772D01*
X13252380Y12347772D02*
X13747619Y12347772D01*
X-10633296Y9010668D02*
X-10595200Y8972572D01*
X-10595200Y8972572D02*
X-10557105Y8858287D01*
X-10557105Y8858287D02*
X-10557105Y8782096D01*
X-10557105Y8782096D02*
X-10595200Y8667810D01*
X-10595200Y8667810D02*
X-10671391Y8591620D01*
X-10671391Y8591620D02*
X-10747581Y8553525D01*
X-10747581Y8553525D02*
X-10899962Y8515429D01*
X-10899962Y8515429D02*
X-11014248Y8515429D01*
X-11014248Y8515429D02*
X-11166629Y8553525D01*
X-11166629Y8553525D02*
X-11242820Y8591620D01*
X-11242820Y8591620D02*
X-11319010Y8667810D01*
X-11319010Y8667810D02*
X-11357105Y8782096D01*
X-11357105Y8782096D02*
X-11357105Y8858287D01*
X-11357105Y8858287D02*
X-11319010Y8972572D01*
X-11319010Y8972572D02*
X-11280915Y9010668D01*
X-11090439Y9696382D02*
X-10557105Y9696382D01*
X-11395200Y9505906D02*
X-10823772Y9315429D01*
X-10823772Y9315429D02*
X-10823772Y9810668D01*
X-397105Y-9023332D02*
X-778058Y-9289999D01*
X-397105Y-9480475D02*
X-1197105Y-9480475D01*
X-1197105Y-9480475D02*
X-1197105Y-9175713D01*
X-1197105Y-9175713D02*
X-1159010Y-9099523D01*
X-1159010Y-9099523D02*
X-1120915Y-9061428D01*
X-1120915Y-9061428D02*
X-1044724Y-9023332D01*
X-1044724Y-9023332D02*
X-930439Y-9023332D01*
X-930439Y-9023332D02*
X-854248Y-9061428D01*
X-854248Y-9061428D02*
X-816153Y-9099523D01*
X-816153Y-9099523D02*
X-778058Y-9175713D01*
X-778058Y-9175713D02*
X-778058Y-9480475D01*
X-397105Y-8261428D02*
X-397105Y-8718571D01*
X-397105Y-8489999D02*
X-1197105Y-8489999D01*
X-1197105Y-8489999D02*
X-1082820Y-8566190D01*
X-1082820Y-8566190D02*
X-1006629Y-8642380D01*
X-1006629Y-8642380D02*
X-968534Y-8718571D01*
X10534667Y10303105D02*
X10268000Y10684058D01*
X10077524Y10303105D02*
X10077524Y11103105D01*
X10077524Y11103105D02*
X10382286Y11103105D01*
X10382286Y11103105D02*
X10458476Y11065010D01*
X10458476Y11065010D02*
X10496571Y11026915D01*
X10496571Y11026915D02*
X10534667Y10950724D01*
X10534667Y10950724D02*
X10534667Y10836439D01*
X10534667Y10836439D02*
X10496571Y10760248D01*
X10496571Y10760248D02*
X10458476Y10722153D01*
X10458476Y10722153D02*
X10382286Y10684058D01*
X10382286Y10684058D02*
X10077524Y10684058D01*
X11258476Y11103105D02*
X10877524Y11103105D01*
X10877524Y11103105D02*
X10839428Y10722153D01*
X10839428Y10722153D02*
X10877524Y10760248D01*
X10877524Y10760248D02*
X10953714Y10798343D01*
X10953714Y10798343D02*
X11144190Y10798343D01*
X11144190Y10798343D02*
X11220381Y10760248D01*
X11220381Y10760248D02*
X11258476Y10722153D01*
X11258476Y10722153D02*
X11296571Y10645962D01*
X11296571Y10645962D02*
X11296571Y10455486D01*
X11296571Y10455486D02*
X11258476Y10379296D01*
X11258476Y10379296D02*
X11220381Y10341200D01*
X11220381Y10341200D02*
X11144190Y10303105D01*
X11144190Y10303105D02*
X10953714Y10303105D01*
X10953714Y10303105D02*
X10877524Y10341200D01*
X10877524Y10341200D02*
X10839428Y10379296D01*
X10534667Y-8924704D02*
X10496571Y-8962800D01*
X10496571Y-8962800D02*
X10382286Y-9000895D01*
X10382286Y-9000895D02*
X10306095Y-9000895D01*
X10306095Y-9000895D02*
X10191809Y-8962800D01*
X10191809Y-8962800D02*
X10115619Y-8886609D01*
X10115619Y-8886609D02*
X10077524Y-8810419D01*
X10077524Y-8810419D02*
X10039428Y-8658038D01*
X10039428Y-8658038D02*
X10039428Y-8543752D01*
X10039428Y-8543752D02*
X10077524Y-8391371D01*
X10077524Y-8391371D02*
X10115619Y-8315180D01*
X10115619Y-8315180D02*
X10191809Y-8238990D01*
X10191809Y-8238990D02*
X10306095Y-8200895D01*
X10306095Y-8200895D02*
X10382286Y-8200895D01*
X10382286Y-8200895D02*
X10496571Y-8238990D01*
X10496571Y-8238990D02*
X10534667Y-8277085D01*
X10991809Y-8543752D02*
X10915619Y-8505657D01*
X10915619Y-8505657D02*
X10877524Y-8467561D01*
X10877524Y-8467561D02*
X10839428Y-8391371D01*
X10839428Y-8391371D02*
X10839428Y-8353276D01*
X10839428Y-8353276D02*
X10877524Y-8277085D01*
X10877524Y-8277085D02*
X10915619Y-8238990D01*
X10915619Y-8238990D02*
X10991809Y-8200895D01*
X10991809Y-8200895D02*
X11144190Y-8200895D01*
X11144190Y-8200895D02*
X11220381Y-8238990D01*
X11220381Y-8238990D02*
X11258476Y-8277085D01*
X11258476Y-8277085D02*
X11296571Y-8353276D01*
X11296571Y-8353276D02*
X11296571Y-8391371D01*
X11296571Y-8391371D02*
X11258476Y-8467561D01*
X11258476Y-8467561D02*
X11220381Y-8505657D01*
X11220381Y-8505657D02*
X11144190Y-8543752D01*
X11144190Y-8543752D02*
X10991809Y-8543752D01*
X10991809Y-8543752D02*
X10915619Y-8581847D01*
X10915619Y-8581847D02*
X10877524Y-8619942D01*
X10877524Y-8619942D02*
X10839428Y-8696133D01*
X10839428Y-8696133D02*
X10839428Y-8848514D01*
X10839428Y-8848514D02*
X10877524Y-8924704D01*
X10877524Y-8924704D02*
X10915619Y-8962800D01*
X10915619Y-8962800D02*
X10991809Y-9000895D01*
X10991809Y-9000895D02*
X11144190Y-9000895D01*
X11144190Y-9000895D02*
X11220381Y-8962800D01*
X11220381Y-8962800D02*
X11258476Y-8924704D01*
X11258476Y-8924704D02*
X11296571Y-8848514D01*
X11296571Y-8848514D02*
X11296571Y-8696133D01*
X11296571Y-8696133D02*
X11258476Y-8619942D01*
X11258476Y-8619942D02*
X11220381Y-8581847D01*
X11220381Y-8581847D02*
X11144190Y-8543752D01*
X-11309333Y-10448704D02*
X-11347429Y-10486800D01*
X-11347429Y-10486800D02*
X-11461714Y-10524895D01*
X-11461714Y-10524895D02*
X-11537905Y-10524895D01*
X-11537905Y-10524895D02*
X-11652191Y-10486800D01*
X-11652191Y-10486800D02*
X-11728381Y-10410609D01*
X-11728381Y-10410609D02*
X-11766476Y-10334419D01*
X-11766476Y-10334419D02*
X-11804572Y-10182038D01*
X-11804572Y-10182038D02*
X-11804572Y-10067752D01*
X-11804572Y-10067752D02*
X-11766476Y-9915371D01*
X-11766476Y-9915371D02*
X-11728381Y-9839180D01*
X-11728381Y-9839180D02*
X-11652191Y-9762990D01*
X-11652191Y-9762990D02*
X-11537905Y-9724895D01*
X-11537905Y-9724895D02*
X-11461714Y-9724895D01*
X-11461714Y-9724895D02*
X-11347429Y-9762990D01*
X-11347429Y-9762990D02*
X-11309333Y-9801085D01*
X-11042667Y-9724895D02*
X-10509333Y-9724895D01*
X-10509333Y-9724895D02*
X-10852191Y-10524895D01*
%TO.C,IC1*%
X-8300000Y12412000D02*
X-8300000Y12412000D01*
X-8200000Y12412000D02*
X-8200000Y12412000D01*
D10*
X-7700000Y19262000D02*
X7700000Y19262000D01*
X-7700000Y-1238000D02*
X-7700000Y19262000D01*
X7700000Y19262000D02*
X7700000Y-1238000D01*
X7700000Y-1238000D02*
X-7700000Y-1238000D01*
D11*
X-8300000Y12412000D02*
G75*
G02*
X-8200000Y12412000I50000J0D01*
G01*
X-8200000Y12412000D02*
G75*
G02*
X-8300000Y12412000I-50000J0D01*
G01*
D12*
%TO.C,R15*%
X-15139641Y12318000D02*
X-14832359Y12318000D01*
X-15139641Y11558000D02*
X-14832359Y11558000D01*
%TO.C,R17*%
X5487641Y-3684000D02*
X5180359Y-3684000D01*
X5487641Y-4444000D02*
X5180359Y-4444000D01*
%TO.C,R10*%
X10313641Y4698000D02*
X10006359Y4698000D01*
X10313641Y3938000D02*
X10006359Y3938000D01*
%TO.C,C5*%
X-9758000Y11068164D02*
X-9758000Y11283836D01*
X-9038000Y11068164D02*
X-9038000Y11283836D01*
%TO.C,J2*%
X-19090000Y10205000D02*
X-19090000Y-10235000D01*
X-19090000Y10205000D02*
X-16490000Y10205000D01*
X-19090000Y-10235000D02*
X-13890000Y-10235000D01*
X-16490000Y10205000D02*
X-16490000Y7605000D01*
X-16490000Y7605000D02*
X-13890000Y7605000D01*
X-15220000Y10205000D02*
X-13890000Y10205000D01*
X-13890000Y10205000D02*
X-13890000Y8875000D01*
X-13890000Y7605000D02*
X-13890000Y-10235000D01*
%TO.C,R7*%
X1398000Y-10514359D02*
X1398000Y-10821641D01*
X2158000Y-10514359D02*
X2158000Y-10821641D01*
%TO.C,C3*%
X-7980000Y-10747836D02*
X-7980000Y-10532164D01*
X-7260000Y-10747836D02*
X-7260000Y-10532164D01*
D10*
%TO.C,Q1*%
X6872000Y-8279000D02*
X6872000Y-7129000D01*
X6932000Y-6429000D02*
X9832000Y-6429000D01*
X6932000Y-6779000D02*
X6932000Y-6429000D01*
X9832000Y-6429000D02*
X9832000Y-6779000D01*
X9832000Y-6779000D02*
X6932000Y-6779000D01*
%TO.C,S2*%
X6144000Y-15140000D02*
X6144000Y-15140000D01*
X6144000Y-15340000D02*
X6144000Y-15340000D01*
X6144000Y-15140000D02*
G75*
G02*
X6144000Y-15340000I0J-100000D01*
G01*
X6144000Y-15340000D02*
G75*
G02*
X6144000Y-15140000I0J100000D01*
G01*
D12*
%TO.C,C1*%
X3702164Y-9546000D02*
X3917836Y-9546000D01*
X3702164Y-10266000D02*
X3917836Y-10266000D01*
%TO.C,C2*%
X1418000Y-6722164D02*
X1418000Y-6937836D01*
X2138000Y-6722164D02*
X2138000Y-6937836D01*
%TO.C,R12*%
X-10032000Y2949641D02*
X-10032000Y2642359D01*
X-9272000Y2949641D02*
X-9272000Y2642359D01*
D10*
%TO.C,D1*%
X-19005000Y12638000D02*
X-19005000Y11238000D01*
X-19005000Y11238000D02*
X-17230000Y11238000D01*
X-17230000Y12638000D02*
X-19005000Y12638000D01*
D12*
%TO.C,R11*%
X-10032000Y356359D02*
X-10032000Y663641D01*
X-9272000Y356359D02*
X-9272000Y663641D01*
%TO.C,R9*%
X5208000Y-10821641D02*
X5208000Y-10514359D01*
X5968000Y-10821641D02*
X5968000Y-10514359D01*
%TO.C,R3*%
X-6730000Y-10514359D02*
X-6730000Y-10821641D01*
X-5970000Y-10514359D02*
X-5970000Y-10821641D01*
%TO.C,C6*%
X9798164Y13568000D02*
X10013836Y13568000D01*
X9798164Y12848000D02*
X10013836Y12848000D01*
D13*
%TO.C,IC4*%
X10409000Y-7725000D02*
G75*
G02*
X10159000Y-7725000I-125000J0D01*
G01*
X10159000Y-7725000D02*
G75*
G02*
X10409000Y-7725000I125000J0D01*
G01*
D10*
%TO.C,IC2*%
X2818000Y-6737000D02*
X5818000Y-6737000D01*
X2818000Y-7487000D02*
X2818000Y-6737000D01*
X2818000Y-8987000D02*
X2818000Y-7837000D01*
X5818000Y-6737000D02*
X5818000Y-7487000D01*
X5818000Y-7487000D02*
X2818000Y-7487000D01*
D14*
%TO.C,R8*%
X-6299200Y-6502400D02*
X-6299200Y-6705600D01*
X-4876800Y-6705600D02*
X-4876800Y-6502400D01*
D12*
%TO.C,R18*%
X3455641Y-3684000D02*
X3148359Y-3684000D01*
X3455641Y-4444000D02*
X3148359Y-4444000D01*
%TO.C,R4*%
X11812000Y-11022359D02*
X11812000Y-11329641D01*
X12572000Y-11022359D02*
X12572000Y-11329641D01*
%TO.C,C9*%
X13890164Y-11324000D02*
X14105836Y-11324000D01*
X13890164Y-12044000D02*
X14105836Y-12044000D01*
%TO.C,R13*%
X10313641Y3428000D02*
X10006359Y3428000D01*
X10313641Y2668000D02*
X10006359Y2668000D01*
%TO.C,J1*%
X-4672000Y-16859000D02*
X-4672000Y-15159000D01*
X4668000Y-16859000D02*
X4668000Y-15159000D01*
D10*
%TO.C,IC3*%
X-10390000Y-5032000D02*
X-7390000Y-5032000D01*
X-10390000Y-7332000D02*
X-10390000Y-5032000D01*
X-7390000Y-3282000D02*
X-7390000Y-4682000D01*
X-7390000Y-5032000D02*
X-7390000Y-7332000D01*
X-7390000Y-7332000D02*
X-10390000Y-7332000D01*
%TO.C,S1*%
X-12144000Y-15140000D02*
X-12144000Y-15140000D01*
X-12144000Y-15340000D02*
X-12144000Y-15340000D01*
X-12144000Y-15140000D02*
G75*
G02*
X-12144000Y-15340000I0J-100000D01*
G01*
X-12144000Y-15340000D02*
G75*
G02*
X-12144000Y-15140000I0J100000D01*
G01*
D12*
%TO.C,R16*%
X15139641Y11810000D02*
X14832359Y11810000D01*
X15139641Y11050000D02*
X14832359Y11050000D01*
%TO.C,R2*%
X128000Y-10821641D02*
X128000Y-10514359D01*
X888000Y-10821641D02*
X888000Y-10514359D01*
D10*
%TO.C,D3*%
X10240000Y-9639000D02*
X7540000Y-9639000D01*
X11190000Y-11189000D02*
X7540000Y-11189000D01*
%TO.C,D2*%
X17188000Y11238000D02*
X18963000Y11238000D01*
X18963000Y12638000D02*
X17188000Y12638000D01*
X18963000Y11238000D02*
X18963000Y12638000D01*
D12*
%TO.C,R6*%
X-2412000Y-10514359D02*
X-2412000Y-10821641D01*
X-1652000Y-10514359D02*
X-1652000Y-10821641D01*
%TO.C,J3*%
X13910000Y10220000D02*
X13910000Y-10220000D01*
X13910000Y10220000D02*
X16510000Y10220000D01*
X13910000Y-10220000D02*
X19110000Y-10220000D01*
X16510000Y10220000D02*
X16510000Y7620000D01*
X16510000Y7620000D02*
X19110000Y7620000D01*
X17780000Y10220000D02*
X19110000Y10220000D01*
X19110000Y10220000D02*
X19110000Y8890000D01*
X19110000Y7620000D02*
X19110000Y-10220000D01*
%TO.C,R14*%
X15137641Y12826000D02*
X14830359Y12826000D01*
X15137641Y12066000D02*
X14830359Y12066000D01*
D15*
%TO.C,G\u002A\u002A\u002A*%
G36*
X-2555069Y-2484080D02*
G01*
X-2555069Y-2908926D01*
X-2250051Y-2908926D01*
X-1945033Y-2908926D01*
X-1945033Y-2484080D01*
X-1945033Y-2059234D01*
X-1779815Y-2059234D01*
X-1614597Y-2059234D01*
X-1614597Y-2484080D01*
X-1614597Y-2908926D01*
X-1320473Y-2908926D01*
X-1026349Y-2908926D01*
X-1026349Y-2489527D01*
X-1026349Y-2070127D01*
X-859315Y-2070127D01*
X-692282Y-2070127D01*
X-692282Y-2489332D01*
X-692282Y-2908538D01*
X-518893Y-2909873D01*
X-476913Y-2910202D01*
X-441451Y-2910546D01*
X-411765Y-2910991D01*
X-387113Y-2911621D01*
X-366751Y-2912521D01*
X-349936Y-2913777D01*
X-335925Y-2915474D01*
X-323976Y-2917697D01*
X-313346Y-2920530D01*
X-303290Y-2924060D01*
X-293068Y-2928372D01*
X-281935Y-2933549D01*
X-272398Y-2938121D01*
X-234103Y-2960442D01*
X-199434Y-2988582D01*
X-169310Y-3021621D01*
X-144654Y-3058638D01*
X-136859Y-3073661D01*
X-130450Y-3087147D01*
X-125154Y-3099002D01*
X-120856Y-3110088D01*
X-117442Y-3121267D01*
X-114799Y-3133400D01*
X-112812Y-3147348D01*
X-111369Y-3163974D01*
X-110354Y-3184139D01*
X-109655Y-3208704D01*
X-109158Y-3238531D01*
X-108748Y-3274482D01*
X-108616Y-3287475D01*
X-107202Y-3428183D01*
X308335Y-3428183D01*
X723873Y-3428183D01*
X723873Y-3593401D01*
X723873Y-3758619D01*
X308104Y-3758619D01*
X-107664Y-3758619D01*
X-107664Y-4079977D01*
X-107664Y-4401335D01*
X308104Y-4401335D01*
X723873Y-4401335D01*
X723873Y-4566553D01*
X723873Y-4731771D01*
X308104Y-4731771D01*
X-107664Y-4731771D01*
X-107664Y-5053129D01*
X-107664Y-5374487D01*
X308104Y-5374487D01*
X723873Y-5374487D01*
X723873Y-5541521D01*
X723873Y-5708554D01*
X308328Y-5708554D01*
X-107216Y-5708554D01*
X-108615Y-5854709D01*
X-109005Y-5893473D01*
X-109438Y-5925812D01*
X-110023Y-5952567D01*
X-110866Y-5974573D01*
X-112076Y-5992671D01*
X-113762Y-6007697D01*
X-116030Y-6020491D01*
X-118990Y-6031890D01*
X-122748Y-6042733D01*
X-127413Y-6053857D01*
X-133094Y-6066101D01*
X-136859Y-6073970D01*
X-159180Y-6112265D01*
X-187320Y-6146935D01*
X-220359Y-6177058D01*
X-257376Y-6201715D01*
X-272398Y-6209510D01*
X-284778Y-6215429D01*
X-295674Y-6220408D01*
X-305836Y-6224534D01*
X-316011Y-6227893D01*
X-326948Y-6230572D01*
X-339396Y-6232657D01*
X-354103Y-6234234D01*
X-371817Y-6235390D01*
X-393286Y-6236210D01*
X-419259Y-6236783D01*
X-450485Y-6237193D01*
X-487712Y-6237528D01*
X-517078Y-6237758D01*
X-688650Y-6239096D01*
X-688650Y-6661931D01*
X-688650Y-7084766D01*
X-853868Y-7084766D01*
X-1019086Y-7084766D01*
X-1019086Y-6661735D01*
X-1019086Y-6238705D01*
X-1316842Y-6238705D01*
X-1614597Y-6238705D01*
X-1614597Y-6661735D01*
X-1614597Y-7084766D01*
X-1779815Y-7084766D01*
X-1945033Y-7084766D01*
X-1945033Y-6661735D01*
X-1945033Y-6238705D01*
X-2246420Y-6238705D01*
X-2547807Y-6238705D01*
X-2547807Y-6656289D01*
X-2547807Y-7073873D01*
X-2713025Y-7073873D01*
X-2878243Y-7073873D01*
X-2878243Y-6656496D01*
X-2878243Y-6239118D01*
X-3038922Y-6237756D01*
X-3079421Y-6237402D01*
X-3113442Y-6237021D01*
X-3141768Y-6236520D01*
X-3165183Y-6235803D01*
X-3184469Y-6234776D01*
X-3200411Y-6233344D01*
X-3213791Y-6231413D01*
X-3225394Y-6228888D01*
X-3236003Y-6225674D01*
X-3246401Y-6221677D01*
X-3257372Y-6216802D01*
X-3269699Y-6210954D01*
X-3272708Y-6209510D01*
X-3311003Y-6187188D01*
X-3345673Y-6159048D01*
X-3375796Y-6126010D01*
X-3400452Y-6088993D01*
X-3408247Y-6073970D01*
X-3414529Y-6060773D01*
X-3419744Y-6049169D01*
X-3424000Y-6038326D01*
X-3427402Y-6027413D01*
X-3430057Y-6015601D01*
X-3432071Y-6002058D01*
X-3433550Y-5985953D01*
X-3434600Y-5966456D01*
X-3435327Y-5942736D01*
X-3435838Y-5913962D01*
X-3436237Y-5879303D01*
X-3436492Y-5852893D01*
X-3437885Y-5704923D01*
X-3857063Y-5704923D01*
X-4276241Y-5704923D01*
X-4276241Y-5539705D01*
X-4276241Y-5374487D01*
X-3856842Y-5374487D01*
X-3437442Y-5374487D01*
X-3437442Y-5539705D01*
X-3437442Y-5704923D01*
X-3012596Y-5704923D01*
X-2944974Y-5704907D01*
X-2884308Y-5704857D01*
X-2830294Y-5704769D01*
X-2782626Y-5704640D01*
X-2740999Y-5704468D01*
X-2705107Y-5704249D01*
X-2674645Y-5703980D01*
X-2649307Y-5703658D01*
X-2628789Y-5703279D01*
X-2612785Y-5702841D01*
X-2600989Y-5702341D01*
X-2593096Y-5701775D01*
X-2588801Y-5701140D01*
X-2587750Y-5700566D01*
X-2586631Y-5698095D01*
X-2583310Y-5700648D01*
X-2581313Y-5700646D01*
X-2577242Y-5698274D01*
X-2570756Y-5693210D01*
X-2561510Y-5685133D01*
X-2549160Y-5673722D01*
X-2533365Y-5658654D01*
X-2513780Y-5639607D01*
X-2490063Y-5616260D01*
X-2461869Y-5588292D01*
X-2437156Y-5563665D01*
X-2295441Y-5422243D01*
X-2273654Y-5425941D01*
X-2253980Y-5427798D01*
X-2229914Y-5427825D01*
X-2204054Y-5426168D01*
X-2178997Y-5422970D01*
X-2162903Y-5419793D01*
X-2138791Y-5412202D01*
X-2111922Y-5400629D01*
X-2084620Y-5386282D01*
X-2059204Y-5370370D01*
X-2039766Y-5355630D01*
X-2024027Y-5341844D01*
X-2013652Y-5331702D01*
X-2008132Y-5324571D01*
X-2006961Y-5319817D01*
X-2008976Y-5317193D01*
X-2015238Y-5312703D01*
X-2025816Y-5304672D01*
X-2039379Y-5294121D01*
X-2047970Y-5287341D01*
X-2053250Y-5282845D01*
X-2063344Y-5273957D01*
X-2077698Y-5261177D01*
X-2095761Y-5245005D01*
X-2116980Y-5225943D01*
X-2140802Y-5204490D01*
X-2166674Y-5181148D01*
X-2194045Y-5156417D01*
X-2222360Y-5130798D01*
X-2251069Y-5104792D01*
X-2279617Y-5078898D01*
X-2307453Y-5053618D01*
X-2334024Y-5029453D01*
X-2358777Y-5006902D01*
X-2381159Y-4986467D01*
X-2400618Y-4968649D01*
X-2416602Y-4953947D01*
X-2428558Y-4942863D01*
X-2435932Y-4935897D01*
X-2436308Y-4935532D01*
X-2460978Y-4911514D01*
X-2468331Y-4920592D01*
X-2496210Y-4960249D01*
X-2517982Y-5002564D01*
X-2533195Y-5046572D01*
X-2538658Y-5071459D01*
X-2542687Y-5099944D01*
X-2543917Y-5125350D01*
X-2542399Y-5151280D01*
X-2540046Y-5169560D01*
X-2535917Y-5197324D01*
X-2624443Y-5285906D01*
X-2712969Y-5374487D01*
X-3075206Y-5374487D01*
X-3437442Y-5374487D01*
X-3437442Y-5053129D01*
X-3437442Y-4731771D01*
X-3856842Y-4731771D01*
X-4276241Y-4731771D01*
X-4276241Y-4566553D01*
X-4276241Y-4401335D01*
X-3856842Y-4401335D01*
X-3437442Y-4401335D01*
X-3437442Y-4172967D01*
X-2804688Y-4172967D01*
X-2801604Y-4238634D01*
X-2791827Y-4305916D01*
X-2775428Y-4374608D01*
X-2752482Y-4444507D01*
X-2723061Y-4515407D01*
X-2687238Y-4587104D01*
X-2645085Y-4659393D01*
X-2596675Y-4732070D01*
X-2542082Y-4804930D01*
X-2504451Y-4850946D01*
X-2491747Y-4865992D01*
X-2480364Y-4879480D01*
X-2471293Y-4890235D01*
X-2465526Y-4897082D01*
X-2464376Y-4898450D01*
X-2461509Y-4901097D01*
X-2458072Y-4901481D01*
X-2452810Y-4899011D01*
X-2444470Y-4893096D01*
X-2431798Y-4883147D01*
X-2431696Y-4883065D01*
X-2407931Y-4866359D01*
X-2380088Y-4850356D01*
X-2350951Y-4836485D01*
X-2323303Y-4826171D01*
X-2317228Y-4824392D01*
X-2295171Y-4819973D01*
X-2268535Y-4817154D01*
X-2239842Y-4816002D01*
X-2211611Y-4816588D01*
X-2186364Y-4818981D01*
X-2177189Y-4820554D01*
X-2132455Y-4833186D01*
X-2090891Y-4852087D01*
X-2052988Y-4876776D01*
X-2019238Y-4906771D01*
X-1990132Y-4941592D01*
X-1966161Y-4980757D01*
X-1947817Y-5023785D01*
X-1939106Y-5053750D01*
X-1935851Y-5072861D01*
X-1933801Y-5096525D01*
X-1932987Y-5122283D01*
X-1933441Y-5147675D01*
X-1935197Y-5170242D01*
X-1937392Y-5183851D01*
X-1947326Y-5218309D01*
X-1961668Y-5253223D01*
X-1978921Y-5285015D01*
X-1981258Y-5288668D01*
X-1998915Y-5315715D01*
X-1938386Y-5359114D01*
X-1906443Y-5381834D01*
X-1876614Y-5402692D01*
X-1849405Y-5421355D01*
X-1825323Y-5437492D01*
X-1804872Y-5450770D01*
X-1788560Y-5460857D01*
X-1776891Y-5467421D01*
X-1770372Y-5470131D01*
X-1769360Y-5470086D01*
X-1765080Y-5467377D01*
X-1755878Y-5461367D01*
X-1742873Y-5452794D01*
X-1727181Y-5442391D01*
X-1716270Y-5435131D01*
X-1613281Y-5364281D01*
X-1515035Y-5292199D01*
X-1421737Y-5219096D01*
X-1333593Y-5145188D01*
X-1250807Y-5070686D01*
X-1173586Y-4995805D01*
X-1102134Y-4920757D01*
X-1036657Y-4845755D01*
X-977359Y-4771013D01*
X-924447Y-4696744D01*
X-878126Y-4623161D01*
X-838600Y-4550477D01*
X-814175Y-4498155D01*
X-786508Y-4427462D01*
X-765316Y-4358160D01*
X-750593Y-4290467D01*
X-742336Y-4224606D01*
X-740537Y-4160797D01*
X-745192Y-4099260D01*
X-756296Y-4040215D01*
X-773842Y-3983884D01*
X-797825Y-3930487D01*
X-828240Y-3880244D01*
X-829490Y-3878447D01*
X-864824Y-3834135D01*
X-905267Y-3794757D01*
X-950326Y-3760631D01*
X-999504Y-3732071D01*
X-1052307Y-3709393D01*
X-1108241Y-3692915D01*
X-1125903Y-3689160D01*
X-1151150Y-3685467D01*
X-1180738Y-3683051D01*
X-1212202Y-3681963D01*
X-1243077Y-3682253D01*
X-1270895Y-3683972D01*
X-1285977Y-3685850D01*
X-1346474Y-3699094D01*
X-1404504Y-3719123D01*
X-1459931Y-3745841D01*
X-1512623Y-3779157D01*
X-1562444Y-3818976D01*
X-1609261Y-3865206D01*
X-1652939Y-3917753D01*
X-1685184Y-3963742D01*
X-1697067Y-3983244D01*
X-1710603Y-4007511D01*
X-1724768Y-4034558D01*
X-1738538Y-4062399D01*
X-1750887Y-4089047D01*
X-1756402Y-4101764D01*
X-1762678Y-4116580D01*
X-1767864Y-4128670D01*
X-1771350Y-4136623D01*
X-1772510Y-4139064D01*
X-1774094Y-4136576D01*
X-1777274Y-4129128D01*
X-1779728Y-4122724D01*
X-1785663Y-4108213D01*
X-1794329Y-4089012D01*
X-1804903Y-4066767D01*
X-1816563Y-4043122D01*
X-1828488Y-4019722D01*
X-1839854Y-3998211D01*
X-1849839Y-3980234D01*
X-1856458Y-3969226D01*
X-1896264Y-3912531D01*
X-1939426Y-3861536D01*
X-1985657Y-3816468D01*
X-2034666Y-3777553D01*
X-2086165Y-3745021D01*
X-2139864Y-3719098D01*
X-2195474Y-3700011D01*
X-2200798Y-3698574D01*
X-2231126Y-3691229D01*
X-2258347Y-3686273D01*
X-2285352Y-3683343D01*
X-2315036Y-3682079D01*
X-2333728Y-3681964D01*
X-2392187Y-3685626D01*
X-2448472Y-3695998D01*
X-2502163Y-3712744D01*
X-2552836Y-3735527D01*
X-2600072Y-3764008D01*
X-2643447Y-3797850D01*
X-2682541Y-3836717D01*
X-2716932Y-3880271D01*
X-2746198Y-3928175D01*
X-2769917Y-3980092D01*
X-2787668Y-4035683D01*
X-2790484Y-4047296D01*
X-2801006Y-4109120D01*
X-2804688Y-4172967D01*
X-3437442Y-4172967D01*
X-3437442Y-4078161D01*
X-3437442Y-3754988D01*
X-3856842Y-3754988D01*
X-4276241Y-3754988D01*
X-4276241Y-3589770D01*
X-4276241Y-3424552D01*
X-3857075Y-3424552D01*
X-3437909Y-3424552D01*
X-3436489Y-3285660D01*
X-3436078Y-3247780D01*
X-3435613Y-3216293D01*
X-3434978Y-3190329D01*
X-3434057Y-3169017D01*
X-3432734Y-3151488D01*
X-3430893Y-3136872D01*
X-3428419Y-3124300D01*
X-3425196Y-3112901D01*
X-3421108Y-3101806D01*
X-3416038Y-3090145D01*
X-3409871Y-3077048D01*
X-3408247Y-3073661D01*
X-3385926Y-3035365D01*
X-3357786Y-3000696D01*
X-3324747Y-2970572D01*
X-3287731Y-2945916D01*
X-3272708Y-2938121D01*
X-3259846Y-2931988D01*
X-3248531Y-2926867D01*
X-3237968Y-2922663D01*
X-3227360Y-2919276D01*
X-3215911Y-2916610D01*
X-3202824Y-2914565D01*
X-3187305Y-2913046D01*
X-3168555Y-2911954D01*
X-3145780Y-2911190D01*
X-3118182Y-2910659D01*
X-3084966Y-2910261D01*
X-3045335Y-2909899D01*
X-3042553Y-2909875D01*
X-2885505Y-2908504D01*
X-2885505Y-2483869D01*
X-2885505Y-2059234D01*
X-2720287Y-2059234D01*
X-2555069Y-2059234D01*
X-2555069Y-2484080D01*
G37*
D12*
%TO.C,C4*%
X-11432000Y11276420D02*
X-11432000Y11557580D01*
X-10412000Y11276420D02*
X-10412000Y11557580D01*
%TO.C,R1*%
X-1142000Y-10823641D02*
X-1142000Y-10516359D01*
X-382000Y-10823641D02*
X-382000Y-10516359D01*
%TO.C,R5*%
X10059641Y12318000D02*
X9752359Y12318000D01*
X10059641Y11558000D02*
X9752359Y11558000D01*
%TO.C,C8*%
X11832000Y-9008164D02*
X11832000Y-9223836D01*
X12552000Y-9008164D02*
X12552000Y-9223836D01*
%TO.C,C7*%
X-9505836Y-9800000D02*
X-9290164Y-9800000D01*
X-9505836Y-10520000D02*
X-9290164Y-10520000D01*
%TD*%
%LPC*%
D16*
%TO.C,IC1*%
X-7000000Y12412000D03*
X-7000000Y11562000D03*
X-7000000Y10712000D03*
X-7000000Y9862000D03*
X-7000000Y9012000D03*
X-7000000Y8162000D03*
X-7000000Y7312000D03*
X-7000000Y6462000D03*
X-7000000Y5612000D03*
X-7000000Y4762000D03*
X-7000000Y3912000D03*
X-7000000Y3062000D03*
X-7000000Y2212000D03*
X-7000000Y1362000D03*
X-7000000Y512000D03*
D17*
X-5950000Y-538000D03*
X-5100000Y-538000D03*
X-4250000Y-538000D03*
X-3400000Y-538000D03*
X-2550000Y-538000D03*
X-1700000Y-538000D03*
X-850000Y-538000D03*
X0Y-538000D03*
X850000Y-538000D03*
X1700000Y-538000D03*
X2550000Y-538000D03*
X3400000Y-538000D03*
X4250000Y-538000D03*
X5100000Y-538000D03*
X5950000Y-538000D03*
D16*
X7000000Y512000D03*
X7000000Y1362000D03*
X7000000Y2212000D03*
X7000000Y3062000D03*
X7000000Y3912000D03*
X7000000Y4762000D03*
X7000000Y5612000D03*
X7000000Y6462000D03*
X7000000Y7312000D03*
X7000000Y8162000D03*
X7000000Y9012000D03*
X7000000Y9862000D03*
X7000000Y10712000D03*
X7000000Y11562000D03*
X7000000Y12412000D03*
D17*
X5950000Y13462000D03*
X5100000Y13462000D03*
X4250000Y13462000D03*
X3400000Y13462000D03*
X2550000Y13462000D03*
X1700000Y13462000D03*
X850000Y13462000D03*
X0Y13462000D03*
X-850000Y13462000D03*
X-1700000Y13462000D03*
X-2550000Y13462000D03*
X-3400000Y13462000D03*
X-4250000Y13462000D03*
X-5100000Y13462000D03*
X-5950000Y13462000D03*
D18*
X0Y6462000D03*
D19*
X-7000000Y13462000D03*
X-7000000Y-538000D03*
X7000000Y-538000D03*
X7000000Y13462000D03*
D18*
X-1650000Y8112000D03*
X-1650000Y6462000D03*
X-1650000Y4812000D03*
X0Y4812000D03*
X1650000Y4812000D03*
X1650000Y6462000D03*
X1650000Y8112000D03*
X0Y8112000D03*
%TD*%
D20*
%TO.C,R15*%
X-15496000Y11938000D03*
X-14476000Y11938000D03*
%TD*%
D21*
%TO.C,R17*%
X5844000Y-4064000D03*
X4824000Y-4064000D03*
%TD*%
%TO.C,R10*%
X10670000Y4318000D03*
X9650000Y4318000D03*
%TD*%
D22*
%TO.C,C5*%
X-9398000Y10696000D03*
X-9398000Y11656000D03*
%TD*%
D23*
%TO.C,J2*%
X-15220000Y8875000D03*
D24*
X-17760000Y8875000D03*
X-15220000Y6335000D03*
X-17760000Y6335000D03*
X-15220000Y3795000D03*
X-17760000Y3795000D03*
X-15220000Y1255000D03*
X-17760000Y1255000D03*
X-15220000Y-1285000D03*
X-17760000Y-1285000D03*
X-15220000Y-3825000D03*
X-17760000Y-3825000D03*
X-15220000Y-6365000D03*
X-17760000Y-6365000D03*
X-15220000Y-8905000D03*
X-17760000Y-8905000D03*
%TD*%
D25*
%TO.C,H3*%
X-16256000Y-16256000D03*
%TD*%
D26*
%TO.C,R7*%
X1778000Y-10158000D03*
X1778000Y-11178000D03*
%TD*%
D22*
%TO.C,C3*%
X-7620000Y-11120000D03*
X-7620000Y-10160000D03*
%TD*%
D27*
%TO.C,Q1*%
X7422000Y-7704000D03*
X9342000Y-7704000D03*
X8382000Y-5504000D03*
%TD*%
D28*
%TO.C,S2*%
X7069000Y-15240000D03*
X11219000Y-15240000D03*
D29*
X7569000Y-16765000D03*
X10719000Y-16765000D03*
X10719000Y-13715000D03*
X7569000Y-13715000D03*
%TD*%
D30*
%TO.C,C1*%
X3330000Y-9906000D03*
X4290000Y-9906000D03*
%TD*%
D31*
%TO.C,C2*%
X1778000Y-6350000D03*
X1778000Y-7310000D03*
%TD*%
D26*
%TO.C,R12*%
X-9652000Y3306000D03*
X-9652000Y2286000D03*
%TD*%
D32*
%TO.C,D1*%
X-18330000Y11938000D03*
X-17230000Y11938000D03*
%TD*%
D25*
%TO.C,H1*%
X-16256000Y16256000D03*
%TD*%
D33*
%TO.C,R11*%
X-9652000Y0D03*
X-9652000Y1020000D03*
%TD*%
%TO.C,R9*%
X5588000Y-11178000D03*
X5588000Y-10158000D03*
%TD*%
D26*
%TO.C,R3*%
X-6350000Y-10158000D03*
X-6350000Y-11178000D03*
%TD*%
D30*
%TO.C,C6*%
X9426000Y13208000D03*
X10386000Y13208000D03*
%TD*%
D34*
%TO.C,IC4*%
X10934000Y-7350000D03*
X11434000Y-7350000D03*
X11934000Y-7350000D03*
X12434000Y-7350000D03*
X12434000Y-5350000D03*
X11934000Y-5350000D03*
X11434000Y-5350000D03*
X10934000Y-5350000D03*
D35*
X11684000Y-6350000D03*
%TD*%
D27*
%TO.C,IC2*%
X3368000Y-8412000D03*
X4318000Y-8412000D03*
X5268000Y-8412000D03*
X5268000Y-5812000D03*
X3368000Y-5812000D03*
%TD*%
D36*
%TO.C,R8*%
X-5588000Y-7543800D03*
X-5588000Y-5664200D03*
%TD*%
D21*
%TO.C,R18*%
X3812000Y-4064000D03*
X2792000Y-4064000D03*
%TD*%
D26*
%TO.C,R4*%
X12192000Y-10666000D03*
X12192000Y-11686000D03*
%TD*%
D30*
%TO.C,C9*%
X13518000Y-11684000D03*
X14478000Y-11684000D03*
%TD*%
D21*
%TO.C,R13*%
X10670000Y3048000D03*
X9650000Y3048000D03*
%TD*%
D37*
%TO.C,J1*%
X-2892000Y-14354000D03*
X2888000Y-14354000D03*
D38*
X-3202000Y-13279000D03*
X-2402000Y-13279000D03*
D39*
X-1252000Y-13279000D03*
X-252000Y-13279000D03*
X248000Y-13279000D03*
X1248000Y-13279000D03*
D38*
X2398000Y-13279000D03*
X3198000Y-13279000D03*
X3198000Y-13279000D03*
X2398000Y-13279000D03*
D39*
X1748000Y-13279000D03*
X748000Y-13279000D03*
X-752000Y-13279000D03*
X-1752000Y-13279000D03*
D38*
X-2402000Y-13279000D03*
X-3202000Y-13279000D03*
D40*
X-4322000Y-13854000D03*
D41*
X-4322000Y-18034000D03*
D40*
X4318000Y-13854000D03*
D41*
X4318000Y-18034000D03*
%TD*%
D42*
%TO.C,IC3*%
X-7890000Y-3982000D03*
X-8390000Y-3982000D03*
X-8890000Y-3982000D03*
X-9390000Y-3982000D03*
X-9890000Y-3982000D03*
X-9890000Y-8382000D03*
X-9390000Y-8382000D03*
X-8890000Y-8382000D03*
X-8390000Y-8382000D03*
X-7890000Y-8382000D03*
%TD*%
D25*
%TO.C,H2*%
X16256000Y16256000D03*
%TD*%
D28*
%TO.C,S1*%
X-11219000Y-15240000D03*
X-7069000Y-15240000D03*
D29*
X-10719000Y-16765000D03*
X-7569000Y-16765000D03*
X-7569000Y-13715000D03*
X-10719000Y-13715000D03*
%TD*%
D21*
%TO.C,R16*%
X15496000Y11430000D03*
X14476000Y11430000D03*
%TD*%
D33*
%TO.C,R2*%
X508000Y-11178000D03*
X508000Y-10158000D03*
%TD*%
D43*
%TO.C,D3*%
X10590000Y-10414000D03*
X7190000Y-10414000D03*
%TD*%
D32*
%TO.C,D2*%
X18288000Y11938000D03*
X17188000Y11938000D03*
%TD*%
D26*
%TO.C,R6*%
X-2032000Y-10158000D03*
X-2032000Y-11178000D03*
%TD*%
D23*
%TO.C,J3*%
X17780000Y8890000D03*
D24*
X15240000Y8890000D03*
X17780000Y6350000D03*
X15240000Y6350000D03*
X17780000Y3810000D03*
X15240000Y3810000D03*
X17780000Y1270000D03*
X15240000Y1270000D03*
X17780000Y-1270000D03*
X15240000Y-1270000D03*
X17780000Y-3810000D03*
X15240000Y-3810000D03*
X17780000Y-6350000D03*
X15240000Y-6350000D03*
X17780000Y-8890000D03*
X15240000Y-8890000D03*
%TD*%
D21*
%TO.C,R14*%
X15494000Y12446000D03*
X14474000Y12446000D03*
%TD*%
D25*
%TO.C,H4*%
X16256000Y-16256000D03*
%TD*%
D44*
%TO.C,C4*%
X-10922000Y10642000D03*
X-10922000Y12192000D03*
%TD*%
D33*
%TO.C,R1*%
X-762000Y-11180000D03*
X-762000Y-10160000D03*
%TD*%
D21*
%TO.C,R5*%
X10416000Y11938000D03*
X9396000Y11938000D03*
%TD*%
D31*
%TO.C,C8*%
X12192000Y-8636000D03*
X12192000Y-9596000D03*
%TD*%
D30*
%TO.C,C7*%
X-9878000Y-10160000D03*
X-8918000Y-10160000D03*
%TD*%
%LPD*%
M02*
