M48
; DRILL file {KiCad 8.0.7} date 2024-12-29T21:09:01+0100
; FORMAT={-:-/ absolute / inch / decimal}
; #@! TF.CreationDate,2024-12-29T21:09:01+01:00
; #@! TF.GenerationSoftware,Kicad,Pcbnew,8.0.7
; #@! TF.FileFunction,Plated,1,2,PTH
FMAT,2
INCH
; #@! TA.AperFunction,Plated,PTH,ViaDrill
T1C0.0118
; #@! TA.AperFunction,Plated,PTH,ViaDrill
T2C0.0157
; #@! TA.AperFunction,Plated,PTH,ComponentDrill
T3C0.0236
; #@! TA.AperFunction,Plated,PTH,ComponentDrill
T4C0.0394
; #@! TA.AperFunction,Plated,PTH,ComponentDrill
T5C0.1260
%
G90
G05
T1
X-0.5223Y-0.0998
X-0.5206Y-0.0506
X-0.52Y0.47
X-0.47Y-0.4
X-0.43Y-0.19
X-0.42Y-0.49
X-0.3697Y-0.28
X-0.3368Y-0.0868
X-0.2756Y-0.0212
X-0.27Y-0.5
X-0.26Y-0.08
X-0.26Y-0.17
X-0.23Y0.28
X-0.2271Y-0.1129
X-0.16Y0.38
X-0.16Y-0.08
X-0.12Y0.32
X-0.12Y0.19
X0.0Y0.38
X0.0Y0.26
X0.0Y0.13
X0.04Y0.1
X0.0593Y-0.08
X0.09Y0.07
X0.09Y-0.1
X0.12Y0.32
X0.12Y0.19
X0.14Y0.04
X0.1594Y-0.0756
X0.2Y0.05
X0.2092Y0.2708
X0.21Y0.19
X0.21Y0.11
X0.22Y0.46
X0.22Y0.37
X0.22Y0.32
X0.23Y0.02
X0.2594Y-0.0864
X0.28Y-0.06
X0.37Y0.38
X0.4098Y-0.13
T2
X-0.71Y-0.48
X-0.51Y0.39
X-0.5Y0.02
X-0.43Y0.09
X-0.41Y0.29
X-0.41Y-0.04
X-0.4Y0.53
X-0.38Y-0.45
X-0.36Y-0.68
X-0.34Y-0.25
X-0.33Y0.4217
X-0.3Y-0.21
X-0.23Y0.19
X-0.22Y0.03
X-0.21Y0.48
X-0.21Y-0.08
X-0.19Y-0.35
X-0.17Y-0.3
X-0.17Y-0.41
X0.07Y-0.21
X0.08Y-0.3315
X0.1Y0.48
X0.2Y-0.29
X0.28Y-0.17
X0.2818Y-0.2255
X0.36Y-0.51
X0.36Y-0.68
X0.3615Y-0.26
X0.38Y0.42
X0.38Y-0.1
X0.47Y0.12
X0.48Y0.52
X0.51Y0.09
X0.52Y0.0
X0.52Y-0.34
X0.53Y-0.24
T4
X-0.6992Y0.3494
X-0.6992Y0.2494
X-0.6992Y0.1494
X-0.6992Y0.0494
X-0.6992Y-0.0506
X-0.6992Y-0.1506
X-0.6992Y-0.2506
X-0.6992Y-0.3506
X-0.5992Y0.3494
X-0.5992Y0.2494
X-0.5992Y0.1494
X-0.5992Y0.0494
X-0.5992Y-0.0506
X-0.5992Y-0.1506
X-0.5992Y-0.2506
X-0.5992Y-0.3506
X0.6Y0.35
X0.6Y0.25
X0.6Y0.15
X0.6Y0.05
X0.6Y-0.05
X0.6Y-0.15
X0.6Y-0.25
X0.6Y-0.35
X0.7Y0.35
X0.7Y0.25
X0.7Y0.15
X0.7Y0.05
X0.7Y-0.05
X0.7Y-0.15
X0.7Y-0.25
X0.7Y-0.35
T5
X-0.64Y0.64
X-0.64Y-0.64
X0.64Y0.64
X0.64Y-0.64
T3
G00X-0.1702Y-0.5238
M15
G01X-0.1702Y-0.5671
M16
G05
G00X-0.1702Y-0.6943
M15
G01X-0.1702Y-0.7257
M16
G05
G00X0.17Y-0.5238
M15
G01X0.17Y-0.5671
M16
G05
G00X0.17Y-0.6943
M15
G01X0.17Y-0.7257
M16
G05
M30
