%TF.GenerationSoftware,KiCad,Pcbnew,8.0.7*%
%TF.CreationDate,2024-12-29T21:09:01+01:00*%
%TF.ProjectId,stackflex_core,73746163-6b66-46c6-9578-5f636f72652e,2025.1.1*%
%TF.SameCoordinates,Original*%
%TF.FileFunction,Copper,L2,Bot*%
%TF.FilePolarity,Positive*%
%FSLAX46Y46*%
G04 Gerber Fmt 4.6, Leading zero omitted, Abs format (unit mm)*
G04 Created by KiCad (PCBNEW 8.0.7) date 2024-12-29 21:09:01*
%MOMM*%
%LPD*%
G01*
G04 APERTURE LIST*
G04 Aperture macros list*
%AMRoundRect*
0 Rectangle with rounded corners*
0 $1 Rounding radius*
0 $2 $3 $4 $5 $6 $7 $8 $9 X,Y pos of 4 corners*
0 Add a 4 corners polygon primitive as box body*
4,1,4,$2,$3,$4,$5,$6,$7,$8,$9,$2,$3,0*
0 Add four circle primitives for the rounded corners*
1,1,$1+$1,$2,$3*
1,1,$1+$1,$4,$5*
1,1,$1+$1,$6,$7*
1,1,$1+$1,$8,$9*
0 Add four rect primitives between the rounded corners*
20,1,$1+$1,$2,$3,$4,$5,0*
20,1,$1+$1,$4,$5,$6,$7,0*
20,1,$1+$1,$6,$7,$8,$9,0*
20,1,$1+$1,$8,$9,$2,$3,0*%
%AMFreePoly0*
4,1,6,1.000000,0.000000,0.500000,-0.750000,-0.500000,-0.750000,-0.500000,0.750000,0.500000,0.750000,1.000000,0.000000,1.000000,0.000000,$1*%
%AMFreePoly1*
4,1,6,0.500000,-0.750000,-0.650000,-0.750000,-0.150000,0.000000,-0.650000,0.750000,0.500000,0.750000,0.500000,-0.750000,0.500000,-0.750000,$1*%
G04 Aperture macros list end*
%TA.AperFunction,ComponentPad*%
%ADD10R,1.700000X1.700000*%
%TD*%
%TA.AperFunction,ComponentPad*%
%ADD11O,1.700000X1.700000*%
%TD*%
%TA.AperFunction,ComponentPad*%
%ADD12C,5.600000*%
%TD*%
%TA.AperFunction,ComponentPad*%
%ADD13O,1.000000X2.100000*%
%TD*%
%TA.AperFunction,ComponentPad*%
%ADD14O,1.000000X1.800000*%
%TD*%
%TA.AperFunction,SMDPad,CuDef*%
%ADD15C,1.000000*%
%TD*%
%TA.AperFunction,SMDPad,CuDef*%
%ADD16FreePoly0,0.000000*%
%TD*%
%TA.AperFunction,SMDPad,CuDef*%
%ADD17FreePoly1,0.000000*%
%TD*%
%TA.AperFunction,SMDPad,CuDef*%
%ADD18RoundRect,0.250000X-0.250000X-1.500000X0.250000X-1.500000X0.250000X1.500000X-0.250000X1.500000X0*%
%TD*%
%TA.AperFunction,SMDPad,CuDef*%
%ADD19RoundRect,0.250001X-0.499999X-1.449999X0.499999X-1.449999X0.499999X1.449999X-0.499999X1.449999X0*%
%TD*%
%TA.AperFunction,ViaPad*%
%ADD20C,0.600000*%
%TD*%
%TA.AperFunction,ViaPad*%
%ADD21C,0.700000*%
%TD*%
%TA.AperFunction,Conductor*%
%ADD22C,0.200000*%
%TD*%
%TA.AperFunction,Conductor*%
%ADD23C,0.300000*%
%TD*%
%TA.AperFunction,Conductor*%
%ADD24C,0.250000*%
%TD*%
%TA.AperFunction,Conductor*%
%ADD25C,0.400000*%
%TD*%
G04 APERTURE END LIST*
D10*
%TO.P,J2,1,Pin_1*%
%TO.N,GND*%
X-15220000Y8875000D03*
D11*
%TO.P,J2,2,Pin_2*%
%TO.N,3V3_GPIO*%
X-17760000Y8875000D03*
%TO.P,J2,3,Pin_3*%
%TO.N,IO1*%
X-15220000Y6335000D03*
%TO.P,J2,4,Pin_4*%
%TO.N,IO2*%
X-17760000Y6335000D03*
%TO.P,J2,5,Pin_5*%
%TO.N,IO4_MOSI0*%
X-15220000Y3795000D03*
%TO.P,J2,6,Pin_6*%
%TO.N,IO5_MISO0*%
X-17760000Y3795000D03*
%TO.P,J2,7,Pin_7*%
%TO.N,IO6_SCLK0*%
X-15220000Y1255000D03*
%TO.P,J2,8,Pin_8*%
%TO.N,IO7_CS0*%
X-17760000Y1255000D03*
%TO.P,J2,9,Pin_9*%
%TO.N,IO8_SDA0*%
X-15220000Y-1285000D03*
%TO.P,J2,10,Pin_10*%
%TO.N,IO9_SCL0*%
X-17760000Y-1285000D03*
%TO.P,J2,11,Pin_11*%
%TO.N,unconnected-(J2-Pin_11-Pad11)*%
X-15220000Y-3825000D03*
%TO.P,J2,12,Pin_12*%
%TO.N,unconnected-(J2-Pin_12-Pad12)*%
X-17760000Y-3825000D03*
%TO.P,J2,13,Pin_13*%
%TO.N,IO11*%
X-15220000Y-6365000D03*
%TO.P,J2,14,Pin_14*%
%TO.N,IO10*%
X-17760000Y-6365000D03*
%TO.P,J2,15,Pin_15*%
%TO.N,GND*%
X-15220000Y-8905000D03*
%TO.P,J2,16,Pin_16*%
%TO.N,3V3_GPIO*%
X-17760000Y-8905000D03*
%TD*%
D12*
%TO.P,H3,1*%
%TO.N,N/C*%
X-16256000Y-16256000D03*
%TD*%
%TO.P,H1,1*%
%TO.N,N/C*%
X-16256000Y16256000D03*
%TD*%
D13*
%TO.P,J1,S1,SHIELD*%
%TO.N,GND*%
X-4322000Y-13854000D03*
D14*
X-4322000Y-18034000D03*
D13*
X4318000Y-13854000D03*
D14*
X4318000Y-18034000D03*
%TD*%
D12*
%TO.P,H2,1*%
%TO.N,N/C*%
X16256000Y16256000D03*
%TD*%
D10*
%TO.P,J3,1,Pin_1*%
%TO.N,3V3_GPIO*%
X17780000Y8890000D03*
D11*
%TO.P,J3,2,Pin_2*%
%TO.N,GND*%
X15240000Y8890000D03*
%TO.P,J3,3,Pin_3*%
%TO.N,IO41*%
X17780000Y6350000D03*
%TO.P,J3,4,Pin_4*%
%TO.N,IO42*%
X15240000Y6350000D03*
%TO.P,J3,5,Pin_5*%
%TO.N,unconnected-(J3-Pin_5-Pad5)*%
X17780000Y3810000D03*
%TO.P,J3,6,Pin_6*%
%TO.N,unconnected-(J3-Pin_6-Pad6)*%
X15240000Y3810000D03*
%TO.P,J3,7,Pin_7*%
%TO.N,IO40_SCL1*%
X17780000Y1270000D03*
%TO.P,J3,8,Pin_8*%
%TO.N,IO39_SDA1*%
X15240000Y1270000D03*
%TO.P,J3,9,Pin_9*%
%TO.N,IO37_CS1*%
X17780000Y-1270000D03*
%TO.P,J3,10,Pin_10*%
%TO.N,IO38_SCLK1*%
X15240000Y-1270000D03*
%TO.P,J3,11,Pin_11*%
%TO.N,IO35_MISO1*%
X17780000Y-3810000D03*
%TO.P,J3,12,Pin_12*%
%TO.N,IO36_MOSI1*%
X15240000Y-3810000D03*
%TO.P,J3,13,Pin_13*%
%TO.N,IO34*%
X17780000Y-6350000D03*
%TO.P,J3,14,Pin_14*%
%TO.N,IO48*%
X15240000Y-6350000D03*
%TO.P,J3,15,Pin_15*%
%TO.N,3V3_GPIO*%
X17780000Y-8890000D03*
%TO.P,J3,16,Pin_16*%
%TO.N,GND*%
X15240000Y-8890000D03*
%TD*%
D12*
%TO.P,H4,1*%
%TO.N,N/C*%
X16256000Y-16256000D03*
%TD*%
D15*
%TO.P,S5,1,Pin_1*%
%TO.N,TXD0*%
X4572000Y3556000D03*
%TD*%
%TO.P,S4,1,Pin_1*%
%TO.N,RXD0*%
X4572000Y5588000D03*
%TD*%
D16*
%TO.P,JP1,1,A*%
%TO.N,Net-(JP1-A)*%
X-9832000Y-13716000D03*
D17*
%TO.P,JP1,2,B*%
%TO.N,VBUS*%
X-8382000Y-13716000D03*
%TD*%
D15*
%TO.P,S03,1,Pin_1*%
%TO.N,IO3_S*%
X-5080000Y6350000D03*
%TD*%
%TO.P,S46,1,Pin_1*%
%TO.N,I046_S*%
X4064000Y12192000D03*
%TD*%
D18*
%TO.P,J4,1,Pin_1*%
%TO.N,+BATT*%
X-1016000Y-10668000D03*
%TO.P,J4,2,Pin_2*%
%TO.N,GND*%
X984000Y-10668000D03*
D19*
%TO.P,J4,MP*%
%TO.N,N/C*%
X-3366000Y-4918000D03*
X3334000Y-4918000D03*
%TD*%
D15*
%TO.P,S45,1,Pin_1*%
%TO.N,I045_S*%
X4572000Y7620000D03*
%TD*%
D20*
%TO.N,RXD0*%
X5314464Y6877536D03*
%TO.N,TXD0*%
X5334000Y4826000D03*
D21*
%TO.N,GND*%
X-10414000Y7366000D03*
X-4826000Y-8890000D03*
X13462000Y-6096000D03*
X-7620000Y-5334000D03*
X2032000Y-8420000D03*
X9144000Y-17272000D03*
D20*
X3048000Y4826000D03*
D21*
X-9144000Y-17272000D03*
X-5588000Y762000D03*
D20*
X-9390000Y-7112000D03*
X0Y9652000D03*
D21*
X12954000Y2286000D03*
X13208000Y0D03*
X-18034000Y-12192000D03*
X9652000Y-2540000D03*
D20*
X-7000000Y-538000D03*
D21*
X12192000Y13208000D03*
X9144000Y-12954000D03*
X2540000Y12192000D03*
X-12700000Y508000D03*
X-5334000Y12192000D03*
X-5334000Y-2032000D03*
D20*
X3048000Y8128000D03*
X0Y6604000D03*
D21*
X-10160000Y13462000D03*
X-5842000Y4826000D03*
D20*
X-3048000Y4826000D03*
D21*
X-9652000Y-11430000D03*
D20*
X5334000Y2794000D03*
X0Y3302000D03*
D21*
X7112000Y-4318000D03*
D20*
X-3048000Y8128000D03*
%TO.N,VBUS*%
X-6858000Y-12700000D03*
%TO.N,EN*%
X-6604000Y-4318000D03*
X-4064000Y-2032000D03*
X-4064000Y9652000D03*
X-11938000Y-10160000D03*
%TO.N,IO0*%
X4049999Y-1921238D03*
X1016000Y2540000D03*
D21*
%TO.N,VCC*%
X9182000Y-6604000D03*
X5080000Y-7366000D03*
%TO.N,3V3_GPIO*%
X-8636000Y-6350000D03*
%TO.N,+BATT*%
X7158417Y-5727252D03*
X-4318000Y-10414000D03*
X13208000Y-8636000D03*
D20*
%TO.N,IO33*%
X5588000Y9398000D03*
X9398000Y9652000D03*
%TO.N,IO9_SCL0*%
X-10922000Y-4826000D03*
X3556000Y1016000D03*
X7112000Y-1524000D03*
X-13267346Y-2535000D03*
%TO.N,IO12*%
X-13208000Y11938000D03*
X-6604000Y-2032000D03*
%TO.N,IO8_SDA0*%
X6588581Y-2193729D03*
X-13223000Y-1285000D03*
X2286000Y1778000D03*
X-8553661Y-2203661D03*
%TO.N,IO26_BALARM*%
X1506000Y-2032000D03*
X10409747Y-3301091D03*
%TO.N,IO47_CALARM*%
X2286000Y-2540000D03*
X-5768000Y-2868000D03*
D21*
%TO.N,+3V3*%
X11938000Y3048000D03*
X-10414000Y-1016000D03*
X1778000Y-5334000D03*
X-4318000Y-7620000D03*
X9652000Y10668000D03*
X-8382000Y10712000D03*
X-10922000Y2286000D03*
X-12954000Y9906000D03*
D20*
%TO.N,IO48*%
X5842000Y508000D03*
%TO.N,IO34*%
X5080000Y1270000D03*
%TO.N,I046_S*%
X5588000Y11684000D03*
%TO.N,I045_S*%
X5588000Y8128000D03*
%TO.N,IO3_S*%
X-5842000Y7112000D03*
%TO.N,Net-(JP1-A)*%
X-10668000Y-12446000D03*
%TD*%
D22*
%TO.N,RXD0*%
X4572000Y5588000D02*
X4572000Y6135072D01*
X4572000Y6135072D02*
X5314464Y6877536D01*
%TO.N,TXD0*%
X5334000Y4826000D02*
X5334000Y4318000D01*
X5334000Y4318000D02*
X4572000Y3556000D01*
D23*
%TO.N,VBUS*%
X-7366000Y-13208000D02*
X-7366000Y-13716000D01*
X-6858000Y-12700000D02*
X-7366000Y-13208000D01*
X-7366000Y-13716000D02*
X-8382000Y-13716000D01*
D24*
%TO.N,EN*%
X-11938000Y-10160000D02*
X-11938000Y-6858000D01*
D22*
X-4064000Y-2032000D02*
X-4064000Y9652000D01*
D24*
X-11938000Y-6858000D02*
X-9398000Y-4318000D01*
X-9398000Y-4318000D02*
X-6604000Y-4318000D01*
D22*
%TO.N,IO0*%
X4049999Y-1921238D02*
X4023237Y-1921238D01*
X4023237Y-1921238D02*
X1016000Y1085999D01*
X1016000Y1085999D02*
X1016000Y2540000D01*
D25*
%TO.N,VCC*%
X6858000Y-6604000D02*
X6096000Y-7366000D01*
X6096000Y-7366000D02*
X5080000Y-7366000D01*
X9182000Y-6604000D02*
X6858000Y-6604000D01*
%TO.N,3V3_GPIO*%
X-6096000Y-8890000D02*
X-6096000Y-14732000D01*
X-4826000Y-16002000D02*
X10668000Y-16002000D01*
X10668000Y-16002000D02*
X17780000Y-8890000D01*
X-6096000Y-14732000D02*
X-4826000Y-16002000D01*
X-8636000Y-6350000D02*
X-6096000Y-8890000D01*
%TO.N,+BATT*%
X7158417Y-5727252D02*
X11315252Y-5727252D01*
X-1016000Y-10668000D02*
X-1016000Y-9144000D01*
X5471626Y-5727252D02*
X7158417Y-5727252D01*
X3578878Y-7620000D02*
X5471626Y-5727252D01*
X11315252Y-5727252D02*
X13208000Y-7620000D01*
X-4318000Y-10414000D02*
X-1270000Y-10414000D01*
X-1270000Y-10414000D02*
X-1016000Y-10668000D01*
X508000Y-7620000D02*
X3578878Y-7620000D01*
X-1016000Y-9144000D02*
X508000Y-7620000D01*
X13208000Y-7620000D02*
X13208000Y-8636000D01*
D22*
%TO.N,IO33*%
X5842000Y9652000D02*
X9398000Y9652000D01*
X5588000Y9398000D02*
X5842000Y9652000D01*
%TO.N,IO9_SCL0*%
X3556000Y508000D02*
X3556000Y1016000D01*
X-13213000Y-2535000D02*
X-13267346Y-2535000D01*
X5588000Y-1524000D02*
X3556000Y508000D01*
X7112000Y-1524000D02*
X5588000Y-1524000D01*
X-10922000Y-4826000D02*
X-13213000Y-2535000D01*
%TO.N,IO12*%
X-9906000Y1270000D02*
X-9906000Y2286000D01*
X-11684000Y10414000D02*
X-13208000Y11938000D01*
X-9906000Y2286000D02*
X-9906000Y3302000D01*
X-11176000Y4572000D02*
X-11684000Y5080000D01*
X-6604000Y-2032000D02*
X-9906000Y1270000D01*
X-11684000Y5334000D02*
X-11684000Y10414000D01*
X-9906000Y3302000D02*
X-11176000Y4572000D01*
X-11684000Y5080000D02*
X-11684000Y5334000D01*
%TO.N,IO8_SDA0*%
X2286000Y762000D02*
X2286000Y1778000D01*
X-8553661Y-2203661D02*
X-12304339Y-2203661D01*
X6588581Y-2193729D02*
X5241729Y-2193729D01*
X5241729Y-2193729D02*
X2286000Y762000D01*
X-12304339Y-2203661D02*
X-13223000Y-1285000D01*
%TO.N,IO26_BALARM*%
X3792694Y-2571238D02*
X4522547Y-3301091D01*
X2987522Y-1778000D02*
X3780760Y-2571238D01*
X3780760Y-2571238D02*
X3792694Y-2571238D01*
X1760000Y-1778000D02*
X2987522Y-1778000D01*
X1506000Y-2032000D02*
X1760000Y-1778000D01*
X4522547Y-3301091D02*
X10409747Y-3301091D01*
%TO.N,IO47_CALARM*%
X1958000Y-2868000D02*
X2286000Y-2540000D01*
X-5768000Y-2868000D02*
X1958000Y-2868000D01*
D25*
%TO.N,+3V3*%
X9608000Y10712000D02*
X9652000Y10668000D01*
X-5588000Y-7620000D02*
X-5588000Y-4108661D01*
X-12954000Y4318000D02*
X-12954000Y9906000D01*
X-10922000Y2286000D02*
X-12954000Y4318000D01*
X1524000Y-5334000D02*
X-762000Y-7620000D01*
X-10922000Y-508000D02*
X-10922000Y2286000D01*
X-5588000Y-4108661D02*
X-8680661Y-1016000D01*
X-8382000Y10712000D02*
X9608000Y10712000D01*
X-10414000Y-1016000D02*
X-10922000Y-508000D01*
X9652000Y10668000D02*
X11938000Y8382000D01*
X-8680661Y-1016000D02*
X-10414000Y-1016000D01*
X1778000Y-5334000D02*
X1524000Y-5334000D01*
X11938000Y8382000D02*
X11938000Y3048000D01*
X-762000Y-7620000D02*
X-5588000Y-7620000D01*
D23*
%TO.N,IO48*%
X15240000Y-5605834D02*
X15240000Y-6350000D01*
X9126166Y508000D02*
X15240000Y-5605834D01*
X5842000Y508000D02*
X9126166Y508000D01*
%TO.N,IO34*%
X15728000Y-2520000D02*
X13188000Y-2520000D01*
X13188000Y-2520000D02*
X9652000Y1016000D01*
X9652000Y1016000D02*
X9398000Y1270000D01*
X9398000Y1270000D02*
X5080000Y1270000D01*
X17780000Y-6350000D02*
X16490000Y-5060000D01*
X16490000Y-5060000D02*
X16490000Y-3282000D01*
X16490000Y-3282000D02*
X15728000Y-2520000D01*
D22*
%TO.N,I046_S*%
X4064000Y12192000D02*
X5080000Y12192000D01*
X5080000Y12192000D02*
X5588000Y11684000D01*
%TO.N,I045_S*%
X4572000Y7620000D02*
X5080000Y7620000D01*
X5080000Y7620000D02*
X5588000Y8128000D01*
%TO.N,IO3_S*%
X-5080000Y6350000D02*
X-5842000Y7112000D01*
D23*
%TO.N,Net-(JP1-A)*%
X-10668000Y-12446000D02*
X-10668000Y-13716000D01*
X-10668000Y-13716000D02*
X-9832000Y-13716000D01*
%TD*%
%TA.AperFunction,Conductor*%
%TO.N,GND*%
G36*
X-18330548Y13951093D02*
G01*
X-18322771Y13944818D01*
X-18192188Y13828122D01*
X-18192180Y13828115D01*
X-18192177Y13828113D01*
X-18192176Y13828112D01*
X-17908164Y13626595D01*
X-17908160Y13626593D01*
X-17603380Y13458147D01*
X-17603381Y13458147D01*
X-17603376Y13458145D01*
X-17281644Y13324879D01*
X-16947013Y13228473D01*
X-16603693Y13170141D01*
X-16603690Y13170141D01*
X-16603684Y13170140D01*
X-16256005Y13150615D01*
X-16256000Y13150615D01*
X-16255995Y13150615D01*
X-15908317Y13170140D01*
X-15908313Y13170141D01*
X-15908307Y13170141D01*
X-15564987Y13228473D01*
X-15230356Y13324879D01*
X-14908624Y13458145D01*
X-14603836Y13626595D01*
X-14319824Y13828112D01*
X-14271832Y13871000D01*
X-14189229Y13944818D01*
X-14133241Y13969496D01*
X-14123261Y13970000D01*
X14123261Y13970000D01*
X14181452Y13951093D01*
X14189229Y13944818D01*
X14319812Y13828122D01*
X14319820Y13828115D01*
X14319823Y13828113D01*
X14319824Y13828112D01*
X14603836Y13626595D01*
X14603840Y13626593D01*
X14908620Y13458147D01*
X14908619Y13458147D01*
X14908624Y13458145D01*
X15230356Y13324879D01*
X15564987Y13228473D01*
X15908307Y13170141D01*
X15908310Y13170141D01*
X15908316Y13170140D01*
X16255995Y13150615D01*
X16256000Y13150615D01*
X16256005Y13150615D01*
X16603683Y13170140D01*
X16603687Y13170141D01*
X16603693Y13170141D01*
X16947013Y13228473D01*
X17281644Y13324879D01*
X17603376Y13458145D01*
X17908164Y13626595D01*
X18192176Y13828112D01*
X18240168Y13871000D01*
X18322771Y13944818D01*
X18378759Y13969496D01*
X18388739Y13970000D01*
X19400500Y13970000D01*
X19458691Y13951093D01*
X19494655Y13901593D01*
X19499500Y13871000D01*
X19499500Y-15662417D01*
X19480593Y-15720608D01*
X19431093Y-15756572D01*
X19369907Y-15756572D01*
X19320407Y-15720608D01*
X19302899Y-15679000D01*
X19283527Y-15564988D01*
X19265237Y-15501500D01*
X19187121Y-15230356D01*
X19053855Y-14908624D01*
X19053853Y-14908619D01*
X18885407Y-14603840D01*
X18885405Y-14603836D01*
X18683888Y-14319824D01*
X18451839Y-14060161D01*
X18192176Y-13828112D01*
X17908164Y-13626595D01*
X17908159Y-13626592D01*
X17603379Y-13458146D01*
X17603380Y-13458146D01*
X17281642Y-13324878D01*
X16947011Y-13228472D01*
X16603703Y-13170142D01*
X16603683Y-13170139D01*
X16256005Y-13150615D01*
X16255995Y-13150615D01*
X15908316Y-13170139D01*
X15908296Y-13170142D01*
X15564988Y-13228472D01*
X15230357Y-13324878D01*
X14908619Y-13458146D01*
X14603840Y-13626592D01*
X14445581Y-13738882D01*
X14319824Y-13828112D01*
X14201900Y-13933495D01*
X14060168Y-14060154D01*
X14060154Y-14060168D01*
X13978836Y-14151164D01*
X13828112Y-14319824D01*
X13828110Y-14319827D01*
X13626592Y-14603840D01*
X13458146Y-14908619D01*
X13324878Y-15230357D01*
X13228472Y-15564988D01*
X13170142Y-15908296D01*
X13170139Y-15908316D01*
X13150615Y-16255995D01*
X13150615Y-16256004D01*
X13170139Y-16603683D01*
X13170142Y-16603703D01*
X13228472Y-16947011D01*
X13324878Y-17281642D01*
X13458146Y-17603380D01*
X13626592Y-17908159D01*
X13626595Y-17908164D01*
X13828112Y-18192176D01*
X14060161Y-18451839D01*
X14319824Y-18683888D01*
X14603836Y-18885405D01*
X14603840Y-18885407D01*
X14908620Y-19053853D01*
X14908619Y-19053853D01*
X14908624Y-19053855D01*
X15230356Y-19187121D01*
X15564987Y-19283527D01*
X15600227Y-19289514D01*
X15679001Y-19302899D01*
X15733203Y-19331286D01*
X15760367Y-19386111D01*
X15750118Y-19446432D01*
X15706371Y-19489208D01*
X15662418Y-19499500D01*
X4579784Y-19499500D01*
X4521593Y-19480593D01*
X4485629Y-19431093D01*
X4485629Y-19369907D01*
X4521593Y-19320407D01*
X4560470Y-19303402D01*
X4580519Y-19299413D01*
X4580521Y-19299413D01*
X4744308Y-19231570D01*
X4891715Y-19133076D01*
X5017076Y-19007715D01*
X5115570Y-18860308D01*
X5183413Y-18696521D01*
X5183413Y-18696519D01*
X5217999Y-18522644D01*
X5218000Y-18522641D01*
X5218000Y-18234001D01*
X5217999Y-18234000D01*
X4618000Y-18234000D01*
X4618000Y-17834000D01*
X5217999Y-17834000D01*
X5218000Y-17833999D01*
X5218000Y-17545358D01*
X5217999Y-17545355D01*
X5183413Y-17371480D01*
X5183413Y-17371478D01*
X5115570Y-17207691D01*
X5017076Y-17060284D01*
X4891715Y-16934923D01*
X4744308Y-16836429D01*
X4580520Y-16768586D01*
X4518000Y-16756149D01*
X4518000Y-17409735D01*
X4502205Y-17393940D01*
X4433796Y-17354444D01*
X4357496Y-17334000D01*
X4278504Y-17334000D01*
X4202204Y-17354444D01*
X4133795Y-17393940D01*
X4118000Y-17409735D01*
X4118000Y-16756149D01*
X4055480Y-16768586D01*
X4055478Y-16768586D01*
X3891691Y-16836429D01*
X3744284Y-16934923D01*
X3618923Y-17060284D01*
X3520429Y-17207691D01*
X3452586Y-17371478D01*
X3452586Y-17371480D01*
X3418000Y-17545355D01*
X3418000Y-17833999D01*
X3418001Y-17834000D01*
X4018000Y-17834000D01*
X4018000Y-18234000D01*
X3418001Y-18234000D01*
X3418000Y-18234001D01*
X3418000Y-18522644D01*
X3452586Y-18696519D01*
X3452586Y-18696521D01*
X3520429Y-18860308D01*
X3618923Y-19007715D01*
X3744284Y-19133076D01*
X3891691Y-19231570D01*
X4055479Y-19299413D01*
X4075530Y-19303402D01*
X4128914Y-19333299D01*
X4154530Y-19388864D01*
X4142593Y-19448873D01*
X4097663Y-19490406D01*
X4056216Y-19499500D01*
X-4060216Y-19499500D01*
X-4118407Y-19480593D01*
X-4154371Y-19431093D01*
X-4154371Y-19369907D01*
X-4118407Y-19320407D01*
X-4079530Y-19303402D01*
X-4059481Y-19299413D01*
X-4059479Y-19299413D01*
X-3895692Y-19231570D01*
X-3748285Y-19133076D01*
X-3622924Y-19007715D01*
X-3524430Y-18860308D01*
X-3456587Y-18696521D01*
X-3456587Y-18696519D01*
X-3422001Y-18522644D01*
X-3422000Y-18522641D01*
X-3422000Y-18234001D01*
X-3422001Y-18234000D01*
X-4022000Y-18234000D01*
X-4022000Y-17834000D01*
X-3422001Y-17834000D01*
X-3422000Y-17833999D01*
X-3422000Y-17545358D01*
X-3422001Y-17545355D01*
X-3456587Y-17371480D01*
X-3456587Y-17371478D01*
X-3524430Y-17207691D01*
X-3622924Y-17060284D01*
X-3748285Y-16934923D01*
X-3895692Y-16836429D01*
X-4059480Y-16768586D01*
X-4122000Y-16756149D01*
X-4122000Y-17409735D01*
X-4137795Y-17393940D01*
X-4206204Y-17354444D01*
X-4282504Y-17334000D01*
X-4361496Y-17334000D01*
X-4437796Y-17354444D01*
X-4506205Y-17393940D01*
X-4522000Y-17409735D01*
X-4522000Y-16756149D01*
X-4584520Y-16768586D01*
X-4584522Y-16768586D01*
X-4748309Y-16836429D01*
X-4895716Y-16934923D01*
X-5021077Y-17060284D01*
X-5119571Y-17207691D01*
X-5187414Y-17371478D01*
X-5187414Y-17371480D01*
X-5222000Y-17545355D01*
X-5222000Y-17833999D01*
X-5221999Y-17834000D01*
X-4622000Y-17834000D01*
X-4622000Y-18234000D01*
X-5221999Y-18234000D01*
X-5222000Y-18234001D01*
X-5222000Y-18522644D01*
X-5187414Y-18696519D01*
X-5187414Y-18696521D01*
X-5119571Y-18860308D01*
X-5021077Y-19007715D01*
X-4895716Y-19133076D01*
X-4748309Y-19231570D01*
X-4584521Y-19299413D01*
X-4564470Y-19303402D01*
X-4511086Y-19333299D01*
X-4485470Y-19388864D01*
X-4497407Y-19448873D01*
X-4542337Y-19490406D01*
X-4583784Y-19499500D01*
X-15662418Y-19499500D01*
X-15720609Y-19480593D01*
X-15756573Y-19431093D01*
X-15756573Y-19369907D01*
X-15720609Y-19320407D01*
X-15679001Y-19302899D01*
X-15618828Y-19292674D01*
X-15564987Y-19283527D01*
X-15230356Y-19187121D01*
X-14908624Y-19053855D01*
X-14603836Y-18885405D01*
X-14319824Y-18683888D01*
X-14060161Y-18451839D01*
X-13828112Y-18192176D01*
X-13626595Y-17908164D01*
X-13458145Y-17603376D01*
X-13324879Y-17281644D01*
X-13228473Y-16947013D01*
X-13170141Y-16603693D01*
X-13162542Y-16468392D01*
X-13150615Y-16256004D01*
X-13150615Y-16255995D01*
X-13170140Y-15908316D01*
X-13170143Y-15908296D01*
X-13195922Y-15756572D01*
X-13228473Y-15564987D01*
X-13324879Y-15230356D01*
X-13458145Y-14908624D01*
X-13458147Y-14908619D01*
X-13626593Y-14603840D01*
X-13626595Y-14603836D01*
X-13828112Y-14319824D01*
X-14060161Y-14060161D01*
X-14319824Y-13828112D01*
X-14603836Y-13626595D01*
X-14603841Y-13626592D01*
X-14908621Y-13458146D01*
X-14908620Y-13458146D01*
X-15230358Y-13324878D01*
X-15564989Y-13228472D01*
X-15908297Y-13170142D01*
X-15908317Y-13170139D01*
X-16255995Y-13150615D01*
X-16256005Y-13150615D01*
X-16603684Y-13170139D01*
X-16603704Y-13170142D01*
X-16947012Y-13228472D01*
X-17281643Y-13324878D01*
X-17603381Y-13458146D01*
X-17908160Y-13626592D01*
X-18066419Y-13738882D01*
X-18192176Y-13828112D01*
X-18310100Y-13933495D01*
X-18451832Y-14060154D01*
X-18451846Y-14060168D01*
X-18533164Y-14151164D01*
X-18683888Y-14319824D01*
X-18683890Y-14319827D01*
X-18885408Y-14603840D01*
X-19053854Y-14908619D01*
X-19187122Y-15230357D01*
X-19283528Y-15564988D01*
X-19302899Y-15679000D01*
X-19331286Y-15733202D01*
X-19386111Y-15760366D01*
X-19446432Y-15750117D01*
X-19489208Y-15706369D01*
X-19499500Y-15662417D01*
X-19499500Y-8905000D01*
X-18915429Y-8905000D01*
X-18895756Y-9117311D01*
X-18885677Y-9152735D01*
X-18837405Y-9322389D01*
X-18742366Y-9513255D01*
X-18613872Y-9683407D01*
X-18583002Y-9711549D01*
X-18456308Y-9827047D01*
X-18456301Y-9827053D01*
X-18393050Y-9866216D01*
X-18275019Y-9939298D01*
X-18076198Y-10016321D01*
X-17866610Y-10055500D01*
X-17653390Y-10055500D01*
X-17443802Y-10016321D01*
X-17244981Y-9939298D01*
X-17063698Y-9827052D01*
X-16906128Y-9683407D01*
X-16777634Y-9513255D01*
X-16682595Y-9322389D01*
X-16636303Y-9159690D01*
X-16602193Y-9108898D01*
X-16544741Y-9087854D01*
X-16485891Y-9104598D01*
X-16448123Y-9152735D01*
X-16445456Y-9161163D01*
X-16399103Y-9334157D01*
X-16306668Y-9532386D01*
X-16181217Y-9711549D01*
X-16026550Y-9866216D01*
X-15847387Y-9991667D01*
X-15649158Y-10084102D01*
X-15437882Y-10140713D01*
X-15420001Y-10142277D01*
X-15420000Y-10142277D01*
X-15420000Y-9366879D01*
X-15412993Y-9370925D01*
X-15285826Y-9405000D01*
X-15154174Y-9405000D01*
X-15027007Y-9370925D01*
X-15020000Y-9366879D01*
X-15020000Y-10142277D01*
X-15002119Y-10140713D01*
X-14790843Y-10084102D01*
X-14592614Y-9991667D01*
X-14413451Y-9866216D01*
X-14258784Y-9711549D01*
X-14133333Y-9532386D01*
X-14040898Y-9334157D01*
X-13984287Y-9122881D01*
X-13982723Y-9105000D01*
X-14758120Y-9105000D01*
X-14754075Y-9097993D01*
X-14720000Y-8970826D01*
X-14720000Y-8839174D01*
X-14754075Y-8712007D01*
X-14758120Y-8705000D01*
X-13982723Y-8705000D01*
X-13982723Y-8704999D01*
X-13984287Y-8687118D01*
X-14040898Y-8475842D01*
X-14133333Y-8277614D01*
X-14258784Y-8098450D01*
X-14413451Y-7943783D01*
X-14592614Y-7818332D01*
X-14790844Y-7725897D01*
X-14964824Y-7679279D01*
X-15016138Y-7645955D01*
X-15038065Y-7588833D01*
X-15022229Y-7529733D01*
X-14974679Y-7491228D01*
X-14957408Y-7486341D01*
X-14903802Y-7476321D01*
X-14704981Y-7399298D01*
X-14523698Y-7287052D01*
X-14366128Y-7143407D01*
X-14237634Y-6973255D01*
X-14142595Y-6782389D01*
X-14084244Y-6577310D01*
X-14064571Y-6365000D01*
X-14084244Y-6152690D01*
X-14142595Y-5947611D01*
X-14237634Y-5756745D01*
X-14366128Y-5586593D01*
X-14478065Y-5484548D01*
X-14523693Y-5442952D01*
X-14523700Y-5442946D01*
X-14704976Y-5330705D01*
X-14704981Y-5330702D01*
X-14888779Y-5259499D01*
X-14903802Y-5253679D01*
X-14903803Y-5253678D01*
X-14903805Y-5253678D01*
X-15113390Y-5214500D01*
X-15326610Y-5214500D01*
X-15536196Y-5253678D01*
X-15735020Y-5330702D01*
X-15735025Y-5330705D01*
X-15916301Y-5442946D01*
X-15916308Y-5442952D01*
X-16073865Y-5586586D01*
X-16073869Y-5586589D01*
X-16073872Y-5586593D01*
X-16073875Y-5586597D01*
X-16202365Y-5756743D01*
X-16202370Y-5756752D01*
X-16297404Y-5947608D01*
X-16297405Y-5947611D01*
X-16302952Y-5967108D01*
X-16355756Y-6152688D01*
X-16375429Y-6365000D01*
X-16355756Y-6577311D01*
X-16348162Y-6604000D01*
X-16303543Y-6760818D01*
X-16297404Y-6782391D01*
X-16220217Y-6937406D01*
X-16202366Y-6973255D01*
X-16073872Y-7143407D01*
X-16073865Y-7143413D01*
X-15916308Y-7287047D01*
X-15916301Y-7287053D01*
X-15812611Y-7351255D01*
X-15735019Y-7399298D01*
X-15536198Y-7476321D01*
X-15482609Y-7486338D01*
X-15428884Y-7515615D01*
X-15402627Y-7570880D01*
X-15413870Y-7631024D01*
X-15458316Y-7673073D01*
X-15475177Y-7679279D01*
X-15649157Y-7725897D01*
X-15847386Y-7818332D01*
X-16026550Y-7943783D01*
X-16181217Y-8098450D01*
X-16306668Y-8277614D01*
X-16399103Y-8475843D01*
X-16445456Y-8648836D01*
X-16478780Y-8700150D01*
X-16535902Y-8722077D01*
X-16595002Y-8706241D01*
X-16633507Y-8658692D01*
X-16636301Y-8650314D01*
X-16682595Y-8487611D01*
X-16777634Y-8296745D01*
X-16906128Y-8126593D01*
X-17022502Y-8020503D01*
X-17063693Y-7982952D01*
X-17063700Y-7982946D01*
X-17244976Y-7870705D01*
X-17244981Y-7870702D01*
X-17283701Y-7855702D01*
X-17443802Y-7793679D01*
X-17443803Y-7793678D01*
X-17443805Y-7793678D01*
X-17653390Y-7754500D01*
X-17866610Y-7754500D01*
X-18076196Y-7793678D01*
X-18275020Y-7870702D01*
X-18275025Y-7870705D01*
X-18456301Y-7982946D01*
X-18456308Y-7982952D01*
X-18613865Y-8126586D01*
X-18613869Y-8126589D01*
X-18613872Y-8126593D01*
X-18613875Y-8126597D01*
X-18742365Y-8296743D01*
X-18742370Y-8296752D01*
X-18833209Y-8479184D01*
X-18837405Y-8487611D01*
X-18845363Y-8515581D01*
X-18895756Y-8692688D01*
X-18915429Y-8905000D01*
X-19499500Y-8905000D01*
X-19499500Y-6365000D01*
X-18915429Y-6365000D01*
X-18895756Y-6577311D01*
X-18888162Y-6604000D01*
X-18843543Y-6760818D01*
X-18837404Y-6782391D01*
X-18760217Y-6937406D01*
X-18742366Y-6973255D01*
X-18613872Y-7143407D01*
X-18613865Y-7143413D01*
X-18456308Y-7287047D01*
X-18456301Y-7287053D01*
X-18352611Y-7351255D01*
X-18275019Y-7399298D01*
X-18076198Y-7476321D01*
X-17866610Y-7515500D01*
X-17653390Y-7515500D01*
X-17443802Y-7476321D01*
X-17244981Y-7399298D01*
X-17063698Y-7287052D01*
X-16906128Y-7143407D01*
X-16777634Y-6973255D01*
X-16682595Y-6782389D01*
X-16624244Y-6577310D01*
X-16604571Y-6365000D01*
X-16624244Y-6152690D01*
X-16682595Y-5947611D01*
X-16777634Y-5756745D01*
X-16906128Y-5586593D01*
X-17018065Y-5484548D01*
X-17063693Y-5442952D01*
X-17063700Y-5442946D01*
X-17244976Y-5330705D01*
X-17244981Y-5330702D01*
X-17428779Y-5259499D01*
X-17443802Y-5253679D01*
X-17443803Y-5253678D01*
X-17443805Y-5253678D01*
X-17653390Y-5214500D01*
X-17866610Y-5214500D01*
X-18076196Y-5253678D01*
X-18275020Y-5330702D01*
X-18275025Y-5330705D01*
X-18456301Y-5442946D01*
X-18456308Y-5442952D01*
X-18613865Y-5586586D01*
X-18613869Y-5586589D01*
X-18613872Y-5586593D01*
X-18613875Y-5586597D01*
X-18742365Y-5756743D01*
X-18742370Y-5756752D01*
X-18837404Y-5947608D01*
X-18837405Y-5947611D01*
X-18842952Y-5967108D01*
X-18895756Y-6152688D01*
X-18915429Y-6365000D01*
X-19499500Y-6365000D01*
X-19499500Y-3825000D01*
X-18915429Y-3825000D01*
X-18895756Y-4037310D01*
X-18837405Y-4242389D01*
X-18742366Y-4433255D01*
X-18613872Y-4603407D01*
X-18613865Y-4603413D01*
X-18456308Y-4747047D01*
X-18456301Y-4747053D01*
X-18415209Y-4772496D01*
X-18275019Y-4859298D01*
X-18076198Y-4936321D01*
X-17866610Y-4975500D01*
X-17653390Y-4975500D01*
X-17443802Y-4936321D01*
X-17244981Y-4859298D01*
X-17063698Y-4747052D01*
X-16906128Y-4603407D01*
X-16777634Y-4433255D01*
X-16682595Y-4242389D01*
X-16624244Y-4037310D01*
X-16604571Y-3825000D01*
X-16375429Y-3825000D01*
X-16355756Y-4037310D01*
X-16297405Y-4242389D01*
X-16202366Y-4433255D01*
X-16073872Y-4603407D01*
X-16073865Y-4603413D01*
X-15916308Y-4747047D01*
X-15916301Y-4747053D01*
X-15875209Y-4772496D01*
X-15735019Y-4859298D01*
X-15536198Y-4936321D01*
X-15326610Y-4975500D01*
X-15113390Y-4975500D01*
X-14903802Y-4936321D01*
X-14704981Y-4859298D01*
X-14523698Y-4747052D01*
X-14366128Y-4603407D01*
X-14237634Y-4433255D01*
X-14142595Y-4242389D01*
X-14084244Y-4037310D01*
X-14064571Y-3825000D01*
X-14084244Y-3612690D01*
X-14142595Y-3407611D01*
X-14237634Y-3216745D01*
X-14366128Y-3046593D01*
X-14519571Y-2906710D01*
X-14523693Y-2902952D01*
X-14523700Y-2902946D01*
X-14704976Y-2790705D01*
X-14704981Y-2790702D01*
X-14866324Y-2728198D01*
X-14903802Y-2713679D01*
X-14903803Y-2713678D01*
X-14903805Y-2713678D01*
X-15113390Y-2674500D01*
X-15326610Y-2674500D01*
X-15536196Y-2713678D01*
X-15735020Y-2790702D01*
X-15735025Y-2790705D01*
X-15916301Y-2902946D01*
X-15916308Y-2902952D01*
X-16073865Y-3046586D01*
X-16073869Y-3046589D01*
X-16073872Y-3046593D01*
X-16073875Y-3046597D01*
X-16202365Y-3216743D01*
X-16202370Y-3216752D01*
X-16289936Y-3392611D01*
X-16297405Y-3407611D01*
X-16302325Y-3424902D01*
X-16355756Y-3612688D01*
X-16366568Y-3729373D01*
X-16375429Y-3825000D01*
X-16604571Y-3825000D01*
X-16624244Y-3612690D01*
X-16682595Y-3407611D01*
X-16777634Y-3216745D01*
X-16906128Y-3046593D01*
X-17059571Y-2906710D01*
X-17063693Y-2902952D01*
X-17063700Y-2902946D01*
X-17244976Y-2790705D01*
X-17244981Y-2790702D01*
X-17406324Y-2728198D01*
X-17443802Y-2713679D01*
X-17443803Y-2713678D01*
X-17443805Y-2713678D01*
X-17653390Y-2674500D01*
X-17866610Y-2674500D01*
X-18076196Y-2713678D01*
X-18275020Y-2790702D01*
X-18275025Y-2790705D01*
X-18456301Y-2902946D01*
X-18456308Y-2902952D01*
X-18613865Y-3046586D01*
X-18613869Y-3046589D01*
X-18613872Y-3046593D01*
X-18613875Y-3046597D01*
X-18742365Y-3216743D01*
X-18742370Y-3216752D01*
X-18829936Y-3392611D01*
X-18837405Y-3407611D01*
X-18842325Y-3424902D01*
X-18895756Y-3612688D01*
X-18906568Y-3729373D01*
X-18915429Y-3825000D01*
X-19499500Y-3825000D01*
X-19499500Y-2534999D01*
X-13873028Y-2534999D01*
X-13873028Y-2535000D01*
X-13852391Y-2691758D01*
X-13852389Y-2691766D01*
X-13791884Y-2837838D01*
X-13791884Y-2837839D01*
X-13738032Y-2908020D01*
X-13695628Y-2963282D01*
X-13570187Y-3059536D01*
X-13424108Y-3120044D01*
X-13267346Y-3140682D01*
X-13233010Y-3136161D01*
X-13172850Y-3147310D01*
X-13150083Y-3164310D01*
X-11556678Y-4757715D01*
X-11528901Y-4812232D01*
X-11528019Y-4823445D01*
X-11507045Y-4982758D01*
X-11507043Y-4982766D01*
X-11446538Y-5128838D01*
X-11446538Y-5128839D01*
X-11350745Y-5253679D01*
X-11350282Y-5254282D01*
X-11350278Y-5254285D01*
X-11350277Y-5254286D01*
X-11224843Y-5350535D01*
X-11219220Y-5353781D01*
X-11219946Y-5355037D01*
X-11179043Y-5389973D01*
X-11164761Y-5449468D01*
X-11188178Y-5505995D01*
X-11193452Y-5511702D01*
X-12199263Y-6517515D01*
X-12199264Y-6517514D01*
X-12278486Y-6596737D01*
X-12334502Y-6693758D01*
X-12334503Y-6693763D01*
X-12358250Y-6782391D01*
X-12363500Y-6801983D01*
X-12363500Y-9694486D01*
X-12382407Y-9752677D01*
X-12383958Y-9754753D01*
X-12462538Y-9857160D01*
X-12462538Y-9857161D01*
X-12523043Y-10003233D01*
X-12523045Y-10003241D01*
X-12543682Y-10159999D01*
X-12543682Y-10160000D01*
X-12523045Y-10316758D01*
X-12523043Y-10316766D01*
X-12462538Y-10462838D01*
X-12462538Y-10462839D01*
X-12379683Y-10570818D01*
X-12366282Y-10588282D01*
X-12240841Y-10684536D01*
X-12240840Y-10684536D01*
X-12240839Y-10684537D01*
X-12094767Y-10745042D01*
X-12094762Y-10745044D01*
X-11977191Y-10760522D01*
X-11938001Y-10765682D01*
X-11938000Y-10765682D01*
X-11937999Y-10765682D01*
X-11906648Y-10761554D01*
X-11781238Y-10745044D01*
X-11635159Y-10684536D01*
X-11509718Y-10588282D01*
X-11413464Y-10462841D01*
X-11352956Y-10316762D01*
X-11332318Y-10160000D01*
X-11352956Y-10003238D01*
X-11353750Y-10001321D01*
X-11413463Y-9857161D01*
X-11413463Y-9857160D01*
X-11492042Y-9754753D01*
X-11512466Y-9697077D01*
X-11512500Y-9694486D01*
X-11512500Y-7075256D01*
X-11493593Y-7017065D01*
X-11483504Y-7005252D01*
X-9250748Y-4772496D01*
X-9196231Y-4744719D01*
X-9180744Y-4743500D01*
X-7069514Y-4743500D01*
X-7011323Y-4762407D01*
X-7009247Y-4763958D01*
X-6964205Y-4798519D01*
X-6906841Y-4842536D01*
X-6906840Y-4842536D01*
X-6906839Y-4842537D01*
X-6762334Y-4902393D01*
X-6760762Y-4903044D01*
X-6643191Y-4918522D01*
X-6604001Y-4923682D01*
X-6604000Y-4923682D01*
X-6603999Y-4923682D01*
X-6572648Y-4919554D01*
X-6447238Y-4903044D01*
X-6301159Y-4842536D01*
X-6247764Y-4801564D01*
X-6190092Y-4781142D01*
X-6131426Y-4798519D01*
X-6094179Y-4847060D01*
X-6088500Y-4880108D01*
X-6088500Y-7554108D01*
X-6088500Y-7685892D01*
X-6063638Y-7778678D01*
X-6054391Y-7813190D01*
X-5988504Y-7927309D01*
X-5988502Y-7927311D01*
X-5988500Y-7927314D01*
X-5895314Y-8020500D01*
X-5895312Y-8020501D01*
X-5895310Y-8020503D01*
X-5781190Y-8086390D01*
X-5781192Y-8086390D01*
X-5781188Y-8086391D01*
X-5781186Y-8086392D01*
X-5653892Y-8120500D01*
X-4771563Y-8120500D01*
X-4713372Y-8139407D01*
X-4705913Y-8145398D01*
X-4690240Y-8159283D01*
X-4550365Y-8232696D01*
X-4396985Y-8270500D01*
X-4396982Y-8270500D01*
X-4239018Y-8270500D01*
X-4239015Y-8270500D01*
X-4085635Y-8232696D01*
X-3945760Y-8159283D01*
X-3930087Y-8145398D01*
X-3873993Y-8120962D01*
X-3864437Y-8120500D01*
X-939322Y-8120500D01*
X-881131Y-8139407D01*
X-845167Y-8188907D01*
X-845167Y-8250093D01*
X-869318Y-8289504D01*
X-1168318Y-8588504D01*
X-1222835Y-8616281D01*
X-1238322Y-8617500D01*
X-1309107Y-8617500D01*
X-1397566Y-8628123D01*
X-1538340Y-8683637D01*
X-1538344Y-8683640D01*
X-1658919Y-8775075D01*
X-1658925Y-8775081D01*
X-1750360Y-8895656D01*
X-1750363Y-8895660D01*
X-1805877Y-9036434D01*
X-1816500Y-9124893D01*
X-1816500Y-9814500D01*
X-1835407Y-9872691D01*
X-1884907Y-9908655D01*
X-1915500Y-9913500D01*
X-3864437Y-9913500D01*
X-3922628Y-9894593D01*
X-3930087Y-9888602D01*
X-3945759Y-9874718D01*
X-3945760Y-9874717D01*
X-4060492Y-9814500D01*
X-4085636Y-9801303D01*
X-4239013Y-9763500D01*
X-4239015Y-9763500D01*
X-4396985Y-9763500D01*
X-4396988Y-9763500D01*
X-4550365Y-9801303D01*
X-4690242Y-9874718D01*
X-4808485Y-9979471D01*
X-4898220Y-10109476D01*
X-4954237Y-10257182D01*
X-4954238Y-10257183D01*
X-4973278Y-10413998D01*
X-4973278Y-10414001D01*
X-4954238Y-10570816D01*
X-4954237Y-10570818D01*
X-4911109Y-10684537D01*
X-4898220Y-10718523D01*
X-4808485Y-10848528D01*
X-4808484Y-10848529D01*
X-4808483Y-10848530D01*
X-4690240Y-10953283D01*
X-4550365Y-11026696D01*
X-4396985Y-11064500D01*
X-4396982Y-11064500D01*
X-4239018Y-11064500D01*
X-4239015Y-11064500D01*
X-4085635Y-11026696D01*
X-3945760Y-10953283D01*
X-3930087Y-10939398D01*
X-3873993Y-10914962D01*
X-3864437Y-10914500D01*
X-1915500Y-10914500D01*
X-1857309Y-10933407D01*
X-1821345Y-10982907D01*
X-1816500Y-11013500D01*
X-1816500Y-12211106D01*
X-1805877Y-12299565D01*
X-1750363Y-12440339D01*
X-1750362Y-12440341D01*
X-1750361Y-12440342D01*
X-1658922Y-12560922D01*
X-1538342Y-12652361D01*
X-1538341Y-12652361D01*
X-1538340Y-12652362D01*
X-1517703Y-12660500D01*
X-1397564Y-12707877D01*
X-1309102Y-12718500D01*
X-1309100Y-12718500D01*
X-722900Y-12718500D01*
X-722898Y-12718500D01*
X-634436Y-12707877D01*
X-493658Y-12652361D01*
X-373078Y-12560922D01*
X-281639Y-12440342D01*
X-226123Y-12299564D01*
X-215500Y-12211102D01*
X-215500Y-10868001D01*
X84000Y-10868001D01*
X84000Y-12233636D01*
X86899Y-12270489D01*
X132719Y-12428200D01*
X132719Y-12428201D01*
X216314Y-12569552D01*
X332447Y-12685685D01*
X473799Y-12769280D01*
X631510Y-12815100D01*
X668363Y-12818000D01*
X783999Y-12818000D01*
X784000Y-12817999D01*
X784000Y-10868001D01*
X1184000Y-10868001D01*
X1184000Y-12817999D01*
X1184001Y-12818000D01*
X1299637Y-12818000D01*
X1336489Y-12815100D01*
X1494200Y-12769280D01*
X1494201Y-12769280D01*
X1635552Y-12685685D01*
X1751685Y-12569552D01*
X1835280Y-12428201D01*
X1835280Y-12428200D01*
X1881100Y-12270489D01*
X1884000Y-12233636D01*
X1884000Y-10868001D01*
X1883999Y-10868000D01*
X1184001Y-10868000D01*
X1184000Y-10868001D01*
X784000Y-10868001D01*
X783999Y-10868000D01*
X84001Y-10868000D01*
X84000Y-10868001D01*
X-215500Y-10868001D01*
X-215500Y-9124898D01*
X-215501Y-9124885D01*
X-217651Y-9106986D01*
X-205819Y-9046955D01*
X-189366Y-9025178D01*
X-56100Y-8891912D01*
X-1585Y-8864137D01*
X58847Y-8873708D01*
X102112Y-8916973D01*
X111683Y-8977405D01*
X108971Y-8989537D01*
X86900Y-9065508D01*
X84000Y-9102363D01*
X84000Y-10467999D01*
X84001Y-10468000D01*
X783999Y-10468000D01*
X784000Y-10467999D01*
X784000Y-8518001D01*
X1184000Y-8518001D01*
X1184000Y-10467999D01*
X1184001Y-10468000D01*
X1883999Y-10468000D01*
X1884000Y-10467999D01*
X1884000Y-9102363D01*
X1881100Y-9065510D01*
X1835280Y-8907799D01*
X1835280Y-8907798D01*
X1751685Y-8766447D01*
X1635552Y-8650314D01*
X1494200Y-8566719D01*
X1336489Y-8520899D01*
X1299637Y-8518000D01*
X1184001Y-8518000D01*
X1184000Y-8518001D01*
X784000Y-8518001D01*
X783999Y-8518000D01*
X668363Y-8518000D01*
X631508Y-8520900D01*
X555538Y-8542971D01*
X494383Y-8541049D01*
X446038Y-8503548D01*
X428968Y-8444792D01*
X449694Y-8387224D01*
X457916Y-8377898D01*
X686319Y-8149496D01*
X740835Y-8121719D01*
X756322Y-8120500D01*
X3644768Y-8120500D01*
X3644770Y-8120500D01*
X3772064Y-8086392D01*
X3772066Y-8086390D01*
X3772068Y-8086390D01*
X3886187Y-8020503D01*
X3886187Y-8020502D01*
X3886192Y-8020500D01*
X4319022Y-7587668D01*
X4373539Y-7559891D01*
X4433971Y-7569462D01*
X4477236Y-7612727D01*
X4481588Y-7622555D01*
X4497412Y-7664279D01*
X4499780Y-7670523D01*
X4589515Y-7800528D01*
X4589516Y-7800529D01*
X4589517Y-7800530D01*
X4707760Y-7905283D01*
X4847635Y-7978696D01*
X5001015Y-8016500D01*
X5001018Y-8016500D01*
X5158982Y-8016500D01*
X5158985Y-8016500D01*
X5312365Y-7978696D01*
X5452240Y-7905283D01*
X5467913Y-7891398D01*
X5524007Y-7866962D01*
X5533563Y-7866500D01*
X6161890Y-7866500D01*
X6161892Y-7866500D01*
X6289186Y-7832392D01*
X6289188Y-7832390D01*
X6289190Y-7832390D01*
X6403309Y-7766503D01*
X6403309Y-7766502D01*
X6403314Y-7766500D01*
X7036318Y-7133496D01*
X7090835Y-7105719D01*
X7106322Y-7104500D01*
X8728437Y-7104500D01*
X8786628Y-7123407D01*
X8794087Y-7129398D01*
X8809760Y-7143283D01*
X8949635Y-7216696D01*
X9103015Y-7254500D01*
X9103018Y-7254500D01*
X9260982Y-7254500D01*
X9260985Y-7254500D01*
X9414365Y-7216696D01*
X9554240Y-7143283D01*
X9672483Y-7038530D01*
X9762220Y-6908523D01*
X9818237Y-6760818D01*
X9837278Y-6604000D01*
X9834037Y-6577311D01*
X9818237Y-6447183D01*
X9818234Y-6447174D01*
X9785878Y-6361858D01*
X9782921Y-6300744D01*
X9816451Y-6249565D01*
X9873661Y-6227868D01*
X9878444Y-6227752D01*
X11066930Y-6227752D01*
X11125121Y-6246659D01*
X11136934Y-6256748D01*
X12678504Y-7798318D01*
X12706281Y-7852835D01*
X12707500Y-7868322D01*
X12707500Y-8185132D01*
X12689976Y-8241370D01*
X12627780Y-8331476D01*
X12571763Y-8479182D01*
X12571762Y-8479183D01*
X12552722Y-8635998D01*
X12552722Y-8636001D01*
X12571762Y-8792816D01*
X12571763Y-8792818D01*
X12615790Y-8908907D01*
X12627780Y-8940523D01*
X12717515Y-9070528D01*
X12717516Y-9070529D01*
X12717517Y-9070530D01*
X12835760Y-9175283D01*
X12975635Y-9248696D01*
X13129015Y-9286500D01*
X13129018Y-9286500D01*
X13286982Y-9286500D01*
X13286985Y-9286500D01*
X13440365Y-9248696D01*
X13580240Y-9175283D01*
X13698483Y-9070530D01*
X13788220Y-8940523D01*
X13844237Y-8792818D01*
X13847873Y-8762867D01*
X13873656Y-8707381D01*
X13927129Y-8677646D01*
X13987869Y-8685020D01*
X13994670Y-8690000D01*
X14778120Y-8690000D01*
X14774075Y-8697007D01*
X14740000Y-8824174D01*
X14740000Y-8955826D01*
X14774075Y-9082993D01*
X14778120Y-9090000D01*
X14002722Y-9090000D01*
X14004286Y-9107881D01*
X14060897Y-9319157D01*
X14153332Y-9517386D01*
X14278783Y-9696549D01*
X14433450Y-9851216D01*
X14612613Y-9976667D01*
X14810842Y-10069102D01*
X15022118Y-10125713D01*
X15039999Y-10127277D01*
X15040000Y-10127277D01*
X15040000Y-9351879D01*
X15047007Y-9355925D01*
X15174174Y-9390000D01*
X15305826Y-9390000D01*
X15432993Y-9355925D01*
X15440000Y-9351879D01*
X15440000Y-10127277D01*
X15457881Y-10125713D01*
X15618159Y-10082767D01*
X15679260Y-10085970D01*
X15726810Y-10124475D01*
X15742646Y-10183575D01*
X15720719Y-10240697D01*
X15713786Y-10248398D01*
X10489682Y-15472504D01*
X10435165Y-15500281D01*
X10419678Y-15501500D01*
X-4577679Y-15501500D01*
X-4635870Y-15482593D01*
X-4647683Y-15472504D01*
X-4687239Y-15432948D01*
X-4715016Y-15378431D01*
X-4705445Y-15317999D01*
X-4662180Y-15274734D01*
X-4601748Y-15265163D01*
X-4588492Y-15268208D01*
X-4584515Y-15269414D01*
X-4522000Y-15281848D01*
X-4522000Y-14628265D01*
X-4506205Y-14644060D01*
X-4437796Y-14683556D01*
X-4361496Y-14704000D01*
X-4282504Y-14704000D01*
X-4206204Y-14683556D01*
X-4137795Y-14644060D01*
X-4122000Y-14628265D01*
X-4122000Y-15281847D01*
X-4059485Y-15269414D01*
X-4059474Y-15269411D01*
X-3895692Y-15201570D01*
X-3748285Y-15103076D01*
X-3622924Y-14977715D01*
X-3524432Y-14830313D01*
X-3474059Y-14708698D01*
X-3434322Y-14662172D01*
X-3374828Y-14647888D01*
X-3318300Y-14671302D01*
X-3312590Y-14676579D01*
X-3312507Y-14676662D01*
X-3312505Y-14676665D01*
X-3214665Y-14774505D01*
X-3094836Y-14843688D01*
X-2961183Y-14879500D01*
X-2961181Y-14879500D01*
X-2822819Y-14879500D01*
X-2822817Y-14879500D01*
X-2689164Y-14843688D01*
X-2569335Y-14774505D01*
X-2471495Y-14676665D01*
X-2402312Y-14556836D01*
X-2366500Y-14423183D01*
X-2366500Y-14284817D01*
X2362500Y-14284817D01*
X2362500Y-14423183D01*
X2398312Y-14556836D01*
X2467495Y-14676665D01*
X2565335Y-14774505D01*
X2685164Y-14843688D01*
X2818817Y-14879500D01*
X2818819Y-14879500D01*
X2957181Y-14879500D01*
X2957183Y-14879500D01*
X3090836Y-14843688D01*
X3210665Y-14774505D01*
X3308505Y-14676665D01*
X3308506Y-14676662D01*
X3308589Y-14676580D01*
X3363106Y-14648802D01*
X3423538Y-14658373D01*
X3466802Y-14701638D01*
X3470057Y-14708698D01*
X3520429Y-14830309D01*
X3618923Y-14977715D01*
X3744284Y-15103076D01*
X3891691Y-15201570D01*
X4055473Y-15269411D01*
X4055484Y-15269414D01*
X4118000Y-15281848D01*
X4118000Y-14628265D01*
X4133795Y-14644060D01*
X4202204Y-14683556D01*
X4278504Y-14704000D01*
X4357496Y-14704000D01*
X4433796Y-14683556D01*
X4502205Y-14644060D01*
X4518000Y-14628265D01*
X4518000Y-15281847D01*
X4580515Y-15269414D01*
X4580526Y-15269411D01*
X4744308Y-15201570D01*
X4891715Y-15103076D01*
X5017076Y-14977715D01*
X5115570Y-14830308D01*
X5183413Y-14666521D01*
X5183413Y-14666519D01*
X5217999Y-14492644D01*
X5218000Y-14492641D01*
X5218000Y-14054001D01*
X5217999Y-14054000D01*
X4618000Y-14054000D01*
X4618000Y-13654000D01*
X5217999Y-13654000D01*
X5218000Y-13653999D01*
X5218000Y-13215358D01*
X5217999Y-13215355D01*
X5183413Y-13041480D01*
X5183413Y-13041478D01*
X5115570Y-12877691D01*
X5017076Y-12730284D01*
X4891715Y-12604923D01*
X4744308Y-12506429D01*
X4580520Y-12438586D01*
X4518000Y-12426149D01*
X4518000Y-13079735D01*
X4502205Y-13063940D01*
X4433796Y-13024444D01*
X4357496Y-13004000D01*
X4278504Y-13004000D01*
X4202204Y-13024444D01*
X4133795Y-13063940D01*
X4118000Y-13079735D01*
X4118000Y-12426149D01*
X4055480Y-12438586D01*
X4055478Y-12438586D01*
X3891691Y-12506429D01*
X3744284Y-12604923D01*
X3618923Y-12730284D01*
X3520429Y-12877691D01*
X3452586Y-13041478D01*
X3452586Y-13041480D01*
X3418000Y-13215355D01*
X3418000Y-13653999D01*
X3418001Y-13654000D01*
X4018000Y-13654000D01*
X4018000Y-14054000D01*
X3392406Y-14054000D01*
X3390072Y-14055189D01*
X3382565Y-14054000D01*
X3376993Y-14054000D01*
X3376993Y-14053117D01*
X3329640Y-14045618D01*
X3304584Y-14027414D01*
X3210665Y-13933495D01*
X3090836Y-13864312D01*
X2957183Y-13828500D01*
X2818817Y-13828500D01*
X2685164Y-13864312D01*
X2565335Y-13933495D01*
X2467495Y-14031335D01*
X2398312Y-14151164D01*
X2362500Y-14284817D01*
X-2366500Y-14284817D01*
X-2402312Y-14151164D01*
X-2471495Y-14031335D01*
X-2569335Y-13933495D01*
X-2689164Y-13864312D01*
X-2822817Y-13828500D01*
X-2961183Y-13828500D01*
X-3094836Y-13864312D01*
X-3214665Y-13933495D01*
X-3308584Y-14027413D01*
X-3363098Y-14055189D01*
X-3380993Y-14052354D01*
X-3380993Y-14054000D01*
X-4022000Y-14054000D01*
X-4022000Y-13654000D01*
X-3422001Y-13654000D01*
X-3422000Y-13653999D01*
X-3422000Y-13215358D01*
X-3422001Y-13215355D01*
X-3456587Y-13041480D01*
X-3456587Y-13041478D01*
X-3524430Y-12877691D01*
X-3622924Y-12730284D01*
X-3748285Y-12604923D01*
X-3895692Y-12506429D01*
X-4059480Y-12438586D01*
X-4122000Y-12426149D01*
X-4122000Y-13079735D01*
X-4137795Y-13063940D01*
X-4206204Y-13024444D01*
X-4282504Y-13004000D01*
X-4361496Y-13004000D01*
X-4437796Y-13024444D01*
X-4506205Y-13063940D01*
X-4522000Y-13079735D01*
X-4522000Y-12426149D01*
X-4584520Y-12438586D01*
X-4584522Y-12438586D01*
X-4748309Y-12506429D01*
X-4895716Y-12604923D01*
X-5021077Y-12730284D01*
X-5119571Y-12877691D01*
X-5187414Y-13041478D01*
X-5187414Y-13041480D01*
X-5222000Y-13215355D01*
X-5222000Y-13653999D01*
X-5221999Y-13654000D01*
X-4622000Y-13654000D01*
X-4622000Y-14054000D01*
X-5221999Y-14054000D01*
X-5222000Y-14054001D01*
X-5222000Y-14492644D01*
X-5187414Y-14666519D01*
X-5186209Y-14670491D01*
X-5187408Y-14731664D01*
X-5224334Y-14780450D01*
X-5282884Y-14798214D01*
X-5340694Y-14778170D01*
X-5350949Y-14769237D01*
X-5566504Y-14553682D01*
X-5594281Y-14499165D01*
X-5595500Y-14483678D01*
X-5595500Y-8824109D01*
X-5603884Y-8792818D01*
X-5629608Y-8696814D01*
X-5629610Y-8696811D01*
X-5629610Y-8696809D01*
X-5695497Y-8582690D01*
X-5695501Y-8582685D01*
X-5788686Y-8489499D01*
X-5788686Y-8489500D01*
X-7963827Y-6314359D01*
X-7991604Y-6259842D01*
X-7992101Y-6256288D01*
X-7999763Y-6193184D01*
X-7999763Y-6193182D01*
X-8055780Y-6045477D01*
X-8105855Y-5972930D01*
X-8145516Y-5915471D01*
X-8167197Y-5896263D01*
X-8263760Y-5810717D01*
X-8333698Y-5774010D01*
X-8403636Y-5737303D01*
X-8557013Y-5699500D01*
X-8557015Y-5699500D01*
X-8714985Y-5699500D01*
X-8714988Y-5699500D01*
X-8868365Y-5737303D01*
X-9008242Y-5810718D01*
X-9126485Y-5915471D01*
X-9216220Y-6045476D01*
X-9272237Y-6193182D01*
X-9272238Y-6193183D01*
X-9291278Y-6349998D01*
X-9291278Y-6350001D01*
X-9272238Y-6506816D01*
X-9272237Y-6506818D01*
X-9235381Y-6604000D01*
X-9216220Y-6654523D01*
X-9126485Y-6784528D01*
X-9126484Y-6784529D01*
X-9126483Y-6784530D01*
X-9008240Y-6889283D01*
X-8868365Y-6962696D01*
X-8714985Y-7000500D01*
X-8714984Y-7000500D01*
X-8713024Y-7000983D01*
X-8666712Y-7027102D01*
X-6625496Y-9068318D01*
X-6597719Y-9122835D01*
X-6596500Y-9138322D01*
X-6596500Y-12015857D01*
X-6615407Y-12074048D01*
X-6664907Y-12110012D01*
X-6708422Y-12114010D01*
X-6857999Y-12094318D01*
X-6858001Y-12094318D01*
X-7014759Y-12114955D01*
X-7014767Y-12114957D01*
X-7160839Y-12175462D01*
X-7160840Y-12175462D01*
X-7286277Y-12271713D01*
X-7286287Y-12271723D01*
X-7382538Y-12397160D01*
X-7382538Y-12397161D01*
X-7443044Y-12543237D01*
X-7454533Y-12630496D01*
X-7480875Y-12685721D01*
X-7482682Y-12687577D01*
X-7535664Y-12740559D01*
X-7590181Y-12768336D01*
X-7650613Y-12758765D01*
X-7672360Y-12743720D01*
X-7676185Y-12740234D01*
X-7676186Y-12740233D01*
X-7728443Y-12707877D01*
X-7771642Y-12681129D01*
X-7882000Y-12660500D01*
X-9032000Y-12660500D01*
X-9032007Y-12660500D01*
X-9125428Y-12675136D01*
X-9125431Y-12675137D01*
X-9131842Y-12678603D01*
X-9192024Y-12689640D01*
X-9214677Y-12683827D01*
X-9221642Y-12681129D01*
X-9332000Y-12660500D01*
X-9977670Y-12660500D01*
X-10035861Y-12641593D01*
X-10071825Y-12592093D01*
X-10075823Y-12548578D01*
X-10075119Y-12543237D01*
X-10062318Y-12446000D01*
X-10082956Y-12289238D01*
X-10130083Y-12175464D01*
X-10143463Y-12143161D01*
X-10143463Y-12143160D01*
X-10239714Y-12017723D01*
X-10239715Y-12017722D01*
X-10239718Y-12017718D01*
X-10239723Y-12017714D01*
X-10239724Y-12017713D01*
X-10365162Y-11921462D01*
X-10511234Y-11860957D01*
X-10511242Y-11860955D01*
X-10667999Y-11840318D01*
X-10668001Y-11840318D01*
X-10824759Y-11860955D01*
X-10824767Y-11860957D01*
X-10970839Y-11921462D01*
X-10970840Y-11921462D01*
X-11096277Y-12017713D01*
X-11096287Y-12017723D01*
X-11192538Y-12143160D01*
X-11192538Y-12143161D01*
X-11253043Y-12289233D01*
X-11253045Y-12289241D01*
X-11273682Y-12445999D01*
X-11273682Y-12446000D01*
X-11253045Y-12602758D01*
X-11253043Y-12602766D01*
X-11192538Y-12748838D01*
X-11192537Y-12748840D01*
X-11192536Y-12748841D01*
X-11138958Y-12818665D01*
X-11118534Y-12876340D01*
X-11118500Y-12878932D01*
X-11118500Y-13656691D01*
X-11118500Y-13775309D01*
X-11104352Y-13828110D01*
X-11087798Y-13889890D01*
X-11028493Y-13992608D01*
X-11028491Y-13992610D01*
X-11028489Y-13992613D01*
X-10944613Y-14076489D01*
X-10944611Y-14076490D01*
X-10944609Y-14076492D01*
X-10841890Y-14135797D01*
X-10841889Y-14135797D01*
X-10841886Y-14135799D01*
X-10727309Y-14166500D01*
X-10727306Y-14166500D01*
X-10723579Y-14166991D01*
X-10721149Y-14168150D01*
X-10721041Y-14168179D01*
X-10721047Y-14168198D01*
X-10668354Y-14193331D01*
X-10639158Y-14247102D01*
X-10637500Y-14265144D01*
X-10637500Y-14466004D01*
X-10636198Y-14494183D01*
X-10636197Y-14494187D01*
X-10605472Y-14602173D01*
X-10549219Y-14676665D01*
X-10537814Y-14691767D01*
X-10442359Y-14750870D01*
X-10332000Y-14771500D01*
X-9332007Y-14771500D01*
X-9332000Y-14771500D01*
X-9258315Y-14762481D01*
X-9228985Y-14749085D01*
X-9168200Y-14742110D01*
X-9151383Y-14748772D01*
X-9150912Y-14747557D01*
X-9142359Y-14750870D01*
X-9032000Y-14771500D01*
X-7881995Y-14771500D01*
X-7867906Y-14770848D01*
X-7853812Y-14770197D01*
X-7745827Y-14739472D01*
X-7656233Y-14671814D01*
X-7597130Y-14576359D01*
X-7576500Y-14466000D01*
X-7576500Y-14265500D01*
X-7557593Y-14207309D01*
X-7508093Y-14171345D01*
X-7477500Y-14166500D01*
X-7306693Y-14166500D01*
X-7306691Y-14166500D01*
X-7192114Y-14135799D01*
X-7192112Y-14135797D01*
X-7192110Y-14135797D01*
X-7089392Y-14076492D01*
X-7089392Y-14076491D01*
X-7089387Y-14076489D01*
X-7005511Y-13992613D01*
X-6946201Y-13889886D01*
X-6915500Y-13775309D01*
X-6915500Y-13435609D01*
X-6896593Y-13377418D01*
X-6886509Y-13365610D01*
X-6845578Y-13324679D01*
X-6791064Y-13296903D01*
X-6788552Y-13296538D01*
X-6708420Y-13285989D01*
X-6648261Y-13297139D01*
X-6606144Y-13341522D01*
X-6596500Y-13384142D01*
X-6596500Y-14666108D01*
X-6596500Y-14797892D01*
X-6587814Y-14830308D01*
X-6562391Y-14925190D01*
X-6496504Y-15039309D01*
X-6496502Y-15039311D01*
X-6496500Y-15039314D01*
X-5226502Y-16309311D01*
X-5226500Y-16309314D01*
X-5133314Y-16402500D01*
X-5133312Y-16402501D01*
X-5133310Y-16402503D01*
X-5019190Y-16468390D01*
X-5019192Y-16468390D01*
X-5019188Y-16468391D01*
X-5019186Y-16468392D01*
X-4891893Y-16502500D01*
X-4891892Y-16502500D01*
X-4891891Y-16502500D01*
X10733890Y-16502500D01*
X10733892Y-16502500D01*
X10861186Y-16468392D01*
X10861188Y-16468390D01*
X10861190Y-16468390D01*
X10975309Y-16402503D01*
X10975309Y-16402502D01*
X10975314Y-16402500D01*
X17355259Y-10022553D01*
X17409774Y-9994778D01*
X17459394Y-10000073D01*
X17459396Y-10000068D01*
X17459426Y-10000076D01*
X17461032Y-10000248D01*
X17463800Y-10001321D01*
X17673390Y-10040500D01*
X17886610Y-10040500D01*
X18096198Y-10001321D01*
X18295019Y-9924298D01*
X18476302Y-9812052D01*
X18633872Y-9668407D01*
X18762366Y-9498255D01*
X18857405Y-9307389D01*
X18915756Y-9102310D01*
X18935429Y-8890000D01*
X18915756Y-8677690D01*
X18857405Y-8472611D01*
X18762366Y-8281745D01*
X18633872Y-8111593D01*
X18533952Y-8020503D01*
X18476307Y-7967952D01*
X18476300Y-7967946D01*
X18295024Y-7855705D01*
X18295019Y-7855702D01*
X18185282Y-7813190D01*
X18096198Y-7778679D01*
X18096197Y-7778678D01*
X18096195Y-7778678D01*
X17886610Y-7739500D01*
X17673390Y-7739500D01*
X17463804Y-7778678D01*
X17264980Y-7855702D01*
X17264975Y-7855705D01*
X17083699Y-7967946D01*
X17083692Y-7967952D01*
X16926135Y-8111586D01*
X16926131Y-8111589D01*
X16926128Y-8111593D01*
X16926125Y-8111597D01*
X16797635Y-8281743D01*
X16797630Y-8281752D01*
X16702594Y-8472612D01*
X16656302Y-8635307D01*
X16622192Y-8686101D01*
X16564739Y-8707145D01*
X16505890Y-8690401D01*
X16468122Y-8642263D01*
X16465455Y-8633835D01*
X16419103Y-8460844D01*
X16326667Y-8262614D01*
X16201216Y-8083450D01*
X16046549Y-7928783D01*
X15867386Y-7803332D01*
X15669156Y-7710897D01*
X15495176Y-7664279D01*
X15443862Y-7630955D01*
X15421935Y-7573833D01*
X15437771Y-7514733D01*
X15485321Y-7476228D01*
X15502592Y-7471341D01*
X15556198Y-7461321D01*
X15755019Y-7384298D01*
X15936302Y-7272052D01*
X16093872Y-7128407D01*
X16222366Y-6958255D01*
X16317405Y-6767389D01*
X16375756Y-6562310D01*
X16395429Y-6350000D01*
X16375756Y-6137690D01*
X16317405Y-5932611D01*
X16222366Y-5741745D01*
X16118712Y-5604487D01*
X16098734Y-5546657D01*
X16116563Y-5488126D01*
X16165389Y-5451254D01*
X16226564Y-5450123D01*
X16267721Y-5474824D01*
X16666532Y-5873636D01*
X16694309Y-5928152D01*
X16691749Y-5970729D01*
X16670482Y-6045476D01*
X16644244Y-6137688D01*
X16633212Y-6256748D01*
X16624571Y-6350000D01*
X16644244Y-6562310D01*
X16700725Y-6760818D01*
X16702596Y-6767391D01*
X16742033Y-6846593D01*
X16797634Y-6958255D01*
X16926128Y-7128407D01*
X16942444Y-7143281D01*
X17083692Y-7272047D01*
X17083699Y-7272053D01*
X17107925Y-7287053D01*
X17264981Y-7384298D01*
X17463802Y-7461321D01*
X17673390Y-7500500D01*
X17886610Y-7500500D01*
X18096198Y-7461321D01*
X18295019Y-7384298D01*
X18476302Y-7272052D01*
X18633872Y-7128407D01*
X18762366Y-6958255D01*
X18857405Y-6767389D01*
X18915756Y-6562310D01*
X18935429Y-6350000D01*
X18915756Y-6137690D01*
X18857405Y-5932611D01*
X18762366Y-5741745D01*
X18633872Y-5571593D01*
X18538389Y-5484548D01*
X18476307Y-5427952D01*
X18476300Y-5427946D01*
X18295024Y-5315705D01*
X18295019Y-5315702D01*
X18096198Y-5238679D01*
X18096197Y-5238678D01*
X18096195Y-5238678D01*
X17886610Y-5199500D01*
X17673390Y-5199500D01*
X17463810Y-5238677D01*
X17463805Y-5238678D01*
X17463802Y-5238679D01*
X17463798Y-5238680D01*
X17463793Y-5238682D01*
X17410056Y-5259499D01*
X17348965Y-5262889D01*
X17304291Y-5237188D01*
X16969496Y-4902393D01*
X16941719Y-4847876D01*
X16940500Y-4832389D01*
X16940500Y-4821126D01*
X16959407Y-4762935D01*
X17008907Y-4726971D01*
X17070093Y-4726971D01*
X17091615Y-4736954D01*
X17264981Y-4844298D01*
X17463802Y-4921321D01*
X17673390Y-4960500D01*
X17886610Y-4960500D01*
X18096198Y-4921321D01*
X18295019Y-4844298D01*
X18476302Y-4732052D01*
X18633872Y-4588407D01*
X18762366Y-4418255D01*
X18857405Y-4227389D01*
X18915756Y-4022310D01*
X18935429Y-3810000D01*
X18915756Y-3597690D01*
X18857405Y-3392611D01*
X18762366Y-3201745D01*
X18633872Y-3031593D01*
X18496883Y-2906710D01*
X18476307Y-2887952D01*
X18476300Y-2887946D01*
X18295024Y-2775705D01*
X18295019Y-2775702D01*
X18257941Y-2761338D01*
X18096198Y-2698679D01*
X18096197Y-2698678D01*
X18096195Y-2698678D01*
X17886610Y-2659500D01*
X17673390Y-2659500D01*
X17463804Y-2698678D01*
X17264980Y-2775702D01*
X17264975Y-2775705D01*
X17083699Y-2887946D01*
X17083698Y-2887947D01*
X16970127Y-2991482D01*
X16914386Y-3016712D01*
X16854460Y-3004360D01*
X16833431Y-2988327D01*
X16062371Y-2217268D01*
X16034596Y-2162754D01*
X16044167Y-2102322D01*
X16065679Y-2074108D01*
X16093872Y-2048407D01*
X16222366Y-1878255D01*
X16317405Y-1687389D01*
X16375756Y-1482310D01*
X16395429Y-1270000D01*
X16624571Y-1270000D01*
X16644244Y-1482311D01*
X16656106Y-1523999D01*
X16702595Y-1687389D01*
X16797634Y-1878255D01*
X16926128Y-2048407D01*
X16926135Y-2048413D01*
X17083692Y-2192047D01*
X17083699Y-2192053D01*
X17107925Y-2207053D01*
X17264981Y-2304298D01*
X17463802Y-2381321D01*
X17673390Y-2420500D01*
X17886610Y-2420500D01*
X18096198Y-2381321D01*
X18295019Y-2304298D01*
X18476302Y-2192052D01*
X18633872Y-2048407D01*
X18762366Y-1878255D01*
X18857405Y-1687389D01*
X18915756Y-1482310D01*
X18935429Y-1270000D01*
X18915756Y-1057690D01*
X18857405Y-852611D01*
X18762366Y-661745D01*
X18633872Y-491593D01*
X18534511Y-401013D01*
X18476307Y-347952D01*
X18476300Y-347946D01*
X18295024Y-235705D01*
X18295019Y-235702D01*
X18096198Y-158679D01*
X18096197Y-158678D01*
X18096195Y-158678D01*
X17886610Y-119500D01*
X17673390Y-119500D01*
X17463804Y-158678D01*
X17264980Y-235702D01*
X17264975Y-235705D01*
X17083699Y-347946D01*
X17083692Y-347952D01*
X16926135Y-491586D01*
X16926131Y-491589D01*
X16926128Y-491593D01*
X16926125Y-491597D01*
X16797635Y-661743D01*
X16797630Y-661752D01*
X16702596Y-852608D01*
X16702595Y-852611D01*
X16701425Y-856723D01*
X16644244Y-1057688D01*
X16624571Y-1270000D01*
X16395429Y-1270000D01*
X16375756Y-1057690D01*
X16317405Y-852611D01*
X16222366Y-661745D01*
X16093872Y-491593D01*
X15994511Y-401013D01*
X15936307Y-347952D01*
X15936300Y-347946D01*
X15755024Y-235705D01*
X15755019Y-235702D01*
X15556198Y-158679D01*
X15556197Y-158678D01*
X15556195Y-158678D01*
X15346610Y-119500D01*
X15133390Y-119500D01*
X14923804Y-158678D01*
X14724980Y-235702D01*
X14724975Y-235705D01*
X14543699Y-347946D01*
X14543692Y-347952D01*
X14386135Y-491586D01*
X14386131Y-491589D01*
X14386128Y-491593D01*
X14386125Y-491597D01*
X14257635Y-661743D01*
X14257630Y-661752D01*
X14162596Y-852608D01*
X14162595Y-852611D01*
X14161425Y-856723D01*
X14104244Y-1057688D01*
X14084571Y-1270000D01*
X14104244Y-1482311D01*
X14116106Y-1523999D01*
X14162595Y-1687389D01*
X14257634Y-1878255D01*
X14268962Y-1893256D01*
X14282241Y-1910839D01*
X14302220Y-1968670D01*
X14284391Y-2027201D01*
X14235564Y-2064073D01*
X14203237Y-2069500D01*
X13415611Y-2069500D01*
X13357420Y-2050593D01*
X13345607Y-2040504D01*
X10035103Y1270000D01*
X14084571Y1270000D01*
X14104244Y1057689D01*
X14113804Y1024091D01*
X14162595Y852611D01*
X14257634Y661745D01*
X14386128Y491593D01*
X14386135Y491587D01*
X14543692Y347953D01*
X14543699Y347947D01*
X14567925Y332947D01*
X14724981Y235702D01*
X14923802Y158679D01*
X15133390Y119500D01*
X15346610Y119500D01*
X15556198Y158679D01*
X15755019Y235702D01*
X15936302Y347948D01*
X16093872Y491593D01*
X16222366Y661745D01*
X16317405Y852611D01*
X16375756Y1057690D01*
X16395429Y1270000D01*
X16624571Y1270000D01*
X16644244Y1057689D01*
X16653804Y1024091D01*
X16702595Y852611D01*
X16797634Y661745D01*
X16926128Y491593D01*
X16926135Y491587D01*
X17083692Y347953D01*
X17083699Y347947D01*
X17107925Y332947D01*
X17264981Y235702D01*
X17463802Y158679D01*
X17673390Y119500D01*
X17886610Y119500D01*
X18096198Y158679D01*
X18295019Y235702D01*
X18476302Y347948D01*
X18633872Y491593D01*
X18762366Y661745D01*
X18857405Y852611D01*
X18915756Y1057690D01*
X18935429Y1270000D01*
X18915756Y1482310D01*
X18857405Y1687389D01*
X18762366Y1878255D01*
X18633872Y2048407D01*
X18545266Y2129183D01*
X18476307Y2192048D01*
X18476300Y2192054D01*
X18295024Y2304295D01*
X18295019Y2304298D01*
X18143379Y2363043D01*
X18096198Y2381321D01*
X18096197Y2381322D01*
X18096195Y2381322D01*
X17886610Y2420500D01*
X17673390Y2420500D01*
X17463804Y2381322D01*
X17264980Y2304298D01*
X17264975Y2304295D01*
X17083699Y2192054D01*
X17083692Y2192048D01*
X16926135Y2048414D01*
X16926131Y2048411D01*
X16926128Y2048407D01*
X16926125Y2048403D01*
X16797635Y1878257D01*
X16797630Y1878248D01*
X16702596Y1687392D01*
X16644244Y1482312D01*
X16624571Y1270000D01*
X16395429Y1270000D01*
X16375756Y1482310D01*
X16317405Y1687389D01*
X16222366Y1878255D01*
X16093872Y2048407D01*
X16005266Y2129183D01*
X15936307Y2192048D01*
X15936300Y2192054D01*
X15755024Y2304295D01*
X15755019Y2304298D01*
X15603379Y2363043D01*
X15556198Y2381321D01*
X15556197Y2381322D01*
X15556195Y2381322D01*
X15346610Y2420500D01*
X15133390Y2420500D01*
X14923804Y2381322D01*
X14724980Y2304298D01*
X14724975Y2304295D01*
X14543699Y2192054D01*
X14543692Y2192048D01*
X14386135Y2048414D01*
X14386131Y2048411D01*
X14386128Y2048407D01*
X14386125Y2048403D01*
X14257635Y1878257D01*
X14257630Y1878248D01*
X14162596Y1687392D01*
X14104244Y1482312D01*
X14084571Y1270000D01*
X10035103Y1270000D01*
X9928614Y1376489D01*
X9928614Y1376490D01*
X9674614Y1630489D01*
X9674609Y1630493D01*
X9571892Y1689797D01*
X9571889Y1689798D01*
X9571887Y1689799D01*
X9540227Y1698282D01*
X9457309Y1720500D01*
X9457308Y1720500D01*
X5512932Y1720500D01*
X5454741Y1739407D01*
X5452684Y1740944D01*
X5382841Y1794536D01*
X5382840Y1794537D01*
X5382838Y1794538D01*
X5236766Y1855043D01*
X5236758Y1855045D01*
X5080001Y1875682D01*
X5079999Y1875682D01*
X4923241Y1855045D01*
X4923233Y1855043D01*
X4777161Y1794538D01*
X4777160Y1794538D01*
X4651723Y1698287D01*
X4651713Y1698277D01*
X4555462Y1572840D01*
X4555462Y1572839D01*
X4494957Y1426767D01*
X4494955Y1426759D01*
X4474318Y1270001D01*
X4474318Y1270000D01*
X4494955Y1113242D01*
X4494957Y1113234D01*
X4555462Y967162D01*
X4555462Y967161D01*
X4643361Y852609D01*
X4651718Y841718D01*
X4651722Y841715D01*
X4651723Y841714D01*
X4653845Y840086D01*
X4777159Y745464D01*
X4923238Y684956D01*
X5080000Y664318D01*
X5132103Y671178D01*
X5192262Y660028D01*
X5234379Y615647D01*
X5243177Y560104D01*
X5236318Y508002D01*
X5236318Y508000D01*
X5256955Y351242D01*
X5256957Y351234D01*
X5317462Y205162D01*
X5317462Y205161D01*
X5317464Y205159D01*
X5413718Y79718D01*
X5539159Y-16536D01*
X5685238Y-77044D01*
X5802809Y-92522D01*
X5841999Y-97682D01*
X5842000Y-97682D01*
X5842001Y-97682D01*
X5873352Y-93554D01*
X5998762Y-77044D01*
X6144841Y-16536D01*
X6214665Y37043D01*
X6272341Y57466D01*
X6274932Y57500D01*
X8898555Y57500D01*
X8956746Y38593D01*
X8968559Y28504D01*
X14408296Y-5411233D01*
X14436073Y-5465750D01*
X14426502Y-5526182D01*
X14404991Y-5554396D01*
X14386132Y-5571589D01*
X14386128Y-5571593D01*
X14386125Y-5571597D01*
X14257635Y-5741743D01*
X14257630Y-5741752D01*
X14164815Y-5928152D01*
X14162595Y-5932611D01*
X14152780Y-5967108D01*
X14104244Y-6137688D01*
X14093212Y-6256748D01*
X14084571Y-6350000D01*
X14104244Y-6562310D01*
X14160725Y-6760818D01*
X14162596Y-6767391D01*
X14202033Y-6846593D01*
X14257634Y-6958255D01*
X14386128Y-7128407D01*
X14402444Y-7143281D01*
X14543692Y-7272047D01*
X14543699Y-7272053D01*
X14567925Y-7287053D01*
X14724981Y-7384298D01*
X14923802Y-7461321D01*
X14977391Y-7471338D01*
X15031116Y-7500615D01*
X15057373Y-7555880D01*
X15046130Y-7616024D01*
X15001684Y-7658073D01*
X14984823Y-7664279D01*
X14810843Y-7710897D01*
X14612614Y-7803332D01*
X14433450Y-7928783D01*
X14278783Y-8083450D01*
X14153332Y-8262614D01*
X14060895Y-8460846D01*
X14042560Y-8529273D01*
X14009236Y-8580587D01*
X13952115Y-8602513D01*
X13893014Y-8586677D01*
X13854509Y-8539127D01*
X13848657Y-8515585D01*
X13844237Y-8479182D01*
X13788220Y-8331477D01*
X13726024Y-8241370D01*
X13708500Y-8185132D01*
X13708500Y-7554109D01*
X13708500Y-7554108D01*
X13674392Y-7426814D01*
X13674390Y-7426811D01*
X13674390Y-7426809D01*
X13608503Y-7312690D01*
X13608499Y-7312685D01*
X13515314Y-7219499D01*
X13515314Y-7219500D01*
X11622566Y-5326752D01*
X11622563Y-5326750D01*
X11622562Y-5326749D01*
X11622561Y-5326748D01*
X11508441Y-5260861D01*
X11508443Y-5260861D01*
X11459051Y-5247627D01*
X11381144Y-5226752D01*
X11381142Y-5226752D01*
X7611980Y-5226752D01*
X7553789Y-5207845D01*
X7546330Y-5201854D01*
X7530658Y-5187970D01*
X7530657Y-5187969D01*
X7460719Y-5151262D01*
X7390781Y-5114555D01*
X7237404Y-5076752D01*
X7237402Y-5076752D01*
X7079432Y-5076752D01*
X7079429Y-5076752D01*
X6926052Y-5114555D01*
X6786175Y-5187970D01*
X6770504Y-5201854D01*
X6714410Y-5226290D01*
X6704854Y-5226752D01*
X5537519Y-5226752D01*
X5405734Y-5226752D01*
X5327826Y-5247627D01*
X5278435Y-5260861D01*
X5164316Y-5326748D01*
X5164311Y-5326752D01*
X4553502Y-5937560D01*
X4498986Y-5965337D01*
X4438554Y-5955766D01*
X4395289Y-5912501D01*
X4384499Y-5867556D01*
X4384499Y-3800591D01*
X4403406Y-3742400D01*
X4452906Y-3706436D01*
X4483499Y-3701591D01*
X9912676Y-3701591D01*
X9970867Y-3720498D01*
X9979434Y-3727814D01*
X9981463Y-3729371D01*
X9981465Y-3729373D01*
X10106906Y-3825627D01*
X10106907Y-3825627D01*
X10106908Y-3825628D01*
X10252980Y-3886133D01*
X10252985Y-3886135D01*
X10370556Y-3901613D01*
X10409746Y-3906773D01*
X10409747Y-3906773D01*
X10409748Y-3906773D01*
X10441099Y-3902645D01*
X10566509Y-3886135D01*
X10712588Y-3825627D01*
X10838029Y-3729373D01*
X10934283Y-3603932D01*
X10994791Y-3457853D01*
X11015429Y-3301091D01*
X11013627Y-3287407D01*
X11004656Y-3219260D01*
X10994791Y-3144329D01*
X10954307Y-3046593D01*
X10934284Y-2998252D01*
X10934284Y-2998251D01*
X10838033Y-2872814D01*
X10838032Y-2872813D01*
X10838029Y-2872809D01*
X10838024Y-2872805D01*
X10838023Y-2872804D01*
X10747069Y-2803013D01*
X10712588Y-2776555D01*
X10712587Y-2776554D01*
X10712585Y-2776553D01*
X10566513Y-2716048D01*
X10566505Y-2716046D01*
X10409748Y-2695409D01*
X10409746Y-2695409D01*
X10252988Y-2716046D01*
X10252980Y-2716048D01*
X10106908Y-2776553D01*
X10106907Y-2776553D01*
X9976317Y-2876759D01*
X9975256Y-2875377D01*
X9928163Y-2899372D01*
X9912676Y-2900591D01*
X6945097Y-2900591D01*
X6886906Y-2881684D01*
X6850942Y-2832184D01*
X6850942Y-2770998D01*
X6886331Y-2722289D01*
X6886274Y-2722215D01*
X6886524Y-2722022D01*
X6886906Y-2721498D01*
X6888876Y-2720218D01*
X6891420Y-2718265D01*
X6891422Y-2718265D01*
X7016863Y-2622011D01*
X7113117Y-2496570D01*
X7173625Y-2350491D01*
X7194263Y-2193729D01*
X7194262Y-2193727D01*
X7194461Y-2192222D01*
X7220802Y-2136997D01*
X7262936Y-2111932D01*
X7262768Y-2111527D01*
X7265567Y-2110367D01*
X7267002Y-2109514D01*
X7268745Y-2109046D01*
X7268762Y-2109044D01*
X7414841Y-2048536D01*
X7540282Y-1952282D01*
X7636536Y-1826841D01*
X7697044Y-1680762D01*
X7717682Y-1524000D01*
X7716755Y-1516962D01*
X7712193Y-1482310D01*
X7697044Y-1367238D01*
X7696825Y-1366710D01*
X7636537Y-1221161D01*
X7636537Y-1221160D01*
X7540286Y-1095723D01*
X7540285Y-1095722D01*
X7540282Y-1095718D01*
X7540277Y-1095714D01*
X7540276Y-1095713D01*
X7414838Y-999462D01*
X7268766Y-938957D01*
X7268758Y-938955D01*
X7112001Y-918318D01*
X7111999Y-918318D01*
X6955241Y-938955D01*
X6955233Y-938957D01*
X6809161Y-999462D01*
X6809160Y-999462D01*
X6678570Y-1099668D01*
X6677509Y-1098286D01*
X6630416Y-1122281D01*
X6614929Y-1123500D01*
X5794901Y-1123500D01*
X5736710Y-1104593D01*
X5724897Y-1094504D01*
X4071026Y559367D01*
X4043249Y613884D01*
X4052820Y674316D01*
X4062488Y689639D01*
X4069852Y699236D01*
X4080536Y713159D01*
X4141044Y859238D01*
X4161682Y1016000D01*
X4158272Y1041898D01*
X4156193Y1057690D01*
X4141044Y1172762D01*
X4080537Y1318839D01*
X4080537Y1318840D01*
X3984286Y1444277D01*
X3984285Y1444278D01*
X3984282Y1444282D01*
X3984277Y1444286D01*
X3984276Y1444287D01*
X3858838Y1540538D01*
X3712766Y1601043D01*
X3712758Y1601045D01*
X3556001Y1621682D01*
X3555999Y1621682D01*
X3399241Y1601045D01*
X3399233Y1601043D01*
X3253161Y1540538D01*
X3253160Y1540538D01*
X3127723Y1444287D01*
X3127713Y1444277D01*
X3031462Y1318840D01*
X3031462Y1318839D01*
X2970957Y1172767D01*
X2970955Y1172759D01*
X2950318Y1016001D01*
X2950318Y1016000D01*
X2965606Y899870D01*
X2954456Y839709D01*
X2910073Y797592D01*
X2849411Y789606D01*
X2797449Y816944D01*
X2715496Y898897D01*
X2687719Y953414D01*
X2686500Y968901D01*
X2686500Y1280929D01*
X2705407Y1339120D01*
X2712715Y1347676D01*
X2773397Y1426759D01*
X2810536Y1475159D01*
X2871044Y1621238D01*
X2891682Y1778000D01*
X2871044Y1934762D01*
X2851694Y1981477D01*
X2810537Y2080839D01*
X2810537Y2080840D01*
X2714286Y2206277D01*
X2714285Y2206278D01*
X2714282Y2206282D01*
X2714277Y2206286D01*
X2714276Y2206287D01*
X2588838Y2302538D01*
X2442766Y2363043D01*
X2442758Y2363045D01*
X2286001Y2383682D01*
X2285999Y2383682D01*
X2129241Y2363045D01*
X2129233Y2363043D01*
X1983161Y2302538D01*
X1983160Y2302538D01*
X1857723Y2206287D01*
X1857713Y2206277D01*
X1761462Y2080840D01*
X1761462Y2080839D01*
X1700957Y1934767D01*
X1700955Y1934759D01*
X1680318Y1778001D01*
X1680318Y1778000D01*
X1700955Y1621242D01*
X1700957Y1621234D01*
X1761462Y1475162D01*
X1761462Y1475161D01*
X1861668Y1344569D01*
X1860283Y1343507D01*
X1884279Y1296431D01*
X1885500Y1280929D01*
X1885500Y1021900D01*
X1866593Y963709D01*
X1817093Y927745D01*
X1755907Y927745D01*
X1716496Y951896D01*
X1445496Y1222896D01*
X1417719Y1277413D01*
X1416500Y1292900D01*
X1416500Y2042929D01*
X1435407Y2101120D01*
X1442715Y2109676D01*
X1444282Y2111718D01*
X1540536Y2237159D01*
X1601044Y2383238D01*
X1621682Y2540000D01*
X1601044Y2696762D01*
X1578812Y2750435D01*
X1540537Y2842839D01*
X1540537Y2842840D01*
X1444284Y2968279D01*
X1444282Y2968282D01*
X1444277Y2968286D01*
X1444276Y2968287D01*
X1340391Y3048000D01*
X1318841Y3064536D01*
X1318840Y3064537D01*
X1318838Y3064538D01*
X1172766Y3125043D01*
X1172758Y3125045D01*
X1016001Y3145682D01*
X1015999Y3145682D01*
X859241Y3125045D01*
X859233Y3125043D01*
X713161Y3064538D01*
X713160Y3064538D01*
X587723Y2968287D01*
X587719Y2968284D01*
X587718Y2968282D01*
X587716Y2968279D01*
X491462Y2842840D01*
X491462Y2842839D01*
X430957Y2696767D01*
X430955Y2696759D01*
X410318Y2540001D01*
X410318Y2540000D01*
X430955Y2383242D01*
X430957Y2383234D01*
X491462Y2237162D01*
X491462Y2237161D01*
X591668Y2106569D01*
X590283Y2105507D01*
X614279Y2058431D01*
X615500Y2042929D01*
X615500Y1138726D01*
X615500Y1033272D01*
X620128Y1016001D01*
X642794Y931407D01*
X695516Y840091D01*
X695517Y840090D01*
X695518Y840089D01*
X695520Y840086D01*
X1771308Y-235702D01*
X2744102Y-1208496D01*
X2771879Y-1263013D01*
X2762308Y-1323445D01*
X2719043Y-1366710D01*
X2674098Y-1377500D01*
X1812727Y-1377500D01*
X1707273Y-1377500D01*
X1605412Y-1404793D01*
X1605410Y-1404793D01*
X1605410Y-1404794D01*
X1585694Y-1416177D01*
X1525846Y-1428896D01*
X1523275Y-1428592D01*
X1506001Y-1426318D01*
X1505999Y-1426318D01*
X1349241Y-1446955D01*
X1349233Y-1446957D01*
X1203161Y-1507462D01*
X1203160Y-1507462D01*
X1077723Y-1603713D01*
X1077713Y-1603723D01*
X981462Y-1729160D01*
X981462Y-1729161D01*
X920957Y-1875233D01*
X920955Y-1875241D01*
X900318Y-2031999D01*
X900318Y-2032000D01*
X918396Y-2169321D01*
X920956Y-2188762D01*
X941003Y-2237159D01*
X979713Y-2330614D01*
X984514Y-2391611D01*
X952544Y-2443780D01*
X896016Y-2467195D01*
X888249Y-2467500D01*
X-3446249Y-2467500D01*
X-3504440Y-2448593D01*
X-3540404Y-2399093D01*
X-3540404Y-2337907D01*
X-3537713Y-2330614D01*
X-3517973Y-2282957D01*
X-3478956Y-2188762D01*
X-3458318Y-2032000D01*
X-3478956Y-1875238D01*
X-3499003Y-1826841D01*
X-3539463Y-1729161D01*
X-3539463Y-1729160D01*
X-3639668Y-1598570D01*
X-3638287Y-1597509D01*
X-3662281Y-1550416D01*
X-3663500Y-1534929D01*
X-3663500Y9154929D01*
X-3644593Y9213120D01*
X-3637285Y9221676D01*
X-3635718Y9223718D01*
X-3539464Y9349159D01*
X-3478956Y9495238D01*
X-3458318Y9652000D01*
X-3478956Y9808762D01*
X-3520599Y9909298D01*
X-3539463Y9954839D01*
X-3539463Y9954840D01*
X-3614195Y10052233D01*
X-3634619Y10109909D01*
X-3617241Y10168575D01*
X-3568699Y10205822D01*
X-3535653Y10211500D01*
X5640608Y10211500D01*
X5698799Y10192593D01*
X5734763Y10143093D01*
X5734763Y10081907D01*
X5698799Y10032407D01*
X5690106Y10026763D01*
X5667694Y10013824D01*
X5607846Y10001104D01*
X5605275Y10001408D01*
X5588001Y10003682D01*
X5587999Y10003682D01*
X5431241Y9983045D01*
X5431233Y9983043D01*
X5285161Y9922538D01*
X5285160Y9922538D01*
X5159723Y9826287D01*
X5159713Y9826277D01*
X5063462Y9700840D01*
X5063462Y9700839D01*
X5002957Y9554767D01*
X5002955Y9554759D01*
X4982318Y9398001D01*
X4982318Y9398000D01*
X5002955Y9241242D01*
X5002957Y9241234D01*
X5063462Y9095162D01*
X5063462Y9095161D01*
X5144922Y8989000D01*
X5159718Y8969718D01*
X5285159Y8873464D01*
X5308277Y8863889D01*
X5331028Y8854464D01*
X5377554Y8814727D01*
X5391837Y8755232D01*
X5368422Y8698704D01*
X5331028Y8671536D01*
X5285160Y8652537D01*
X5159723Y8556287D01*
X5159713Y8556277D01*
X5063462Y8430840D01*
X5063461Y8430837D01*
X5050541Y8399646D01*
X5010804Y8353121D01*
X4951309Y8338838D01*
X4926380Y8344089D01*
X4751261Y8405367D01*
X4751257Y8405368D01*
X4572000Y8425565D01*
X4392742Y8405368D01*
X4392738Y8405367D01*
X4222477Y8345789D01*
X4222476Y8345789D01*
X4069741Y8249819D01*
X3942181Y8122259D01*
X3846211Y7969524D01*
X3846211Y7969523D01*
X3786633Y7799262D01*
X3786632Y7799258D01*
X3766435Y7620000D01*
X3786632Y7440743D01*
X3786633Y7440739D01*
X3846211Y7270478D01*
X3846211Y7270477D01*
X3942181Y7117742D01*
X3942184Y7117738D01*
X4069738Y6990184D01*
X4069740Y6990183D01*
X4069741Y6990182D01*
X4125360Y6955234D01*
X4222478Y6894211D01*
X4290657Y6870354D01*
X4392738Y6834634D01*
X4392742Y6834633D01*
X4392745Y6834632D01*
X4469246Y6826013D01*
X4524953Y6800709D01*
X4555149Y6747493D01*
X4548298Y6686693D01*
X4528165Y6657632D01*
X4251519Y6380986D01*
X4219444Y6325432D01*
X4186381Y6291109D01*
X4069743Y6217821D01*
X3942181Y6090259D01*
X3846211Y5937524D01*
X3846211Y5937523D01*
X3786633Y5767262D01*
X3786632Y5767258D01*
X3766435Y5588000D01*
X3786632Y5408743D01*
X3786633Y5408739D01*
X3846211Y5238478D01*
X3846211Y5238477D01*
X3942181Y5085742D01*
X3942184Y5085738D01*
X4069738Y4958184D01*
X4069740Y4958183D01*
X4069741Y4958182D01*
X4121900Y4925408D01*
X4222478Y4862211D01*
X4273679Y4844295D01*
X4392738Y4802634D01*
X4392742Y4802633D01*
X4392745Y4802632D01*
X4572000Y4782435D01*
X4572001Y4782436D01*
X4572003Y4782435D01*
X4621170Y4787976D01*
X4635129Y4789548D01*
X4695071Y4777276D01*
X4736351Y4732114D01*
X4744367Y4704094D01*
X4748955Y4669239D01*
X4809463Y4523161D01*
X4809464Y4523159D01*
X4825933Y4501696D01*
X4846356Y4444020D01*
X4828978Y4385355D01*
X4780436Y4348108D01*
X4736307Y4343053D01*
X4572000Y4361565D01*
X4392742Y4341368D01*
X4392738Y4341367D01*
X4222477Y4281789D01*
X4222476Y4281789D01*
X4069741Y4185819D01*
X3942181Y4058259D01*
X3846211Y3905524D01*
X3846211Y3905523D01*
X3786633Y3735262D01*
X3786632Y3735258D01*
X3766435Y3556000D01*
X3786632Y3376743D01*
X3786633Y3376739D01*
X3846211Y3206478D01*
X3846211Y3206477D01*
X3935399Y3064536D01*
X3942184Y3053738D01*
X4069738Y2926184D01*
X4069740Y2926183D01*
X4069741Y2926182D01*
X4202380Y2842839D01*
X4222478Y2830211D01*
X4290657Y2806354D01*
X4392738Y2770634D01*
X4392742Y2770633D01*
X4392745Y2770632D01*
X4572000Y2750435D01*
X4751255Y2770632D01*
X4921522Y2830211D01*
X5074262Y2926184D01*
X5201816Y3053738D01*
X5297789Y3206478D01*
X5357368Y3376745D01*
X5377565Y3556000D01*
X5358683Y3723581D01*
X5370957Y3783520D01*
X5387053Y3804663D01*
X5579910Y3997519D01*
X5579913Y3997520D01*
X5654480Y4072087D01*
X5707207Y4163413D01*
X5714111Y4189179D01*
X5734501Y4265273D01*
X5734501Y4328930D01*
X5753408Y4387121D01*
X5760714Y4395674D01*
X5842067Y4501696D01*
X5858536Y4523159D01*
X5919044Y4669238D01*
X5939682Y4826000D01*
X5937273Y4844295D01*
X5930930Y4892480D01*
X5919044Y4982762D01*
X5858537Y5128839D01*
X5858537Y5128840D01*
X5762286Y5254277D01*
X5762285Y5254278D01*
X5762282Y5254282D01*
X5762277Y5254286D01*
X5762276Y5254287D01*
X5636838Y5350538D01*
X5490762Y5411044D01*
X5490763Y5411044D01*
X5455906Y5415633D01*
X5400682Y5441974D01*
X5371487Y5495745D01*
X5370452Y5524871D01*
X5377565Y5587997D01*
X5373485Y5624212D01*
X5357368Y5767255D01*
X5297789Y5937522D01*
X5258232Y6000477D01*
X5202055Y6089883D01*
X5187105Y6149214D01*
X5209884Y6206001D01*
X5215879Y6212559D01*
X5246180Y6242859D01*
X5300697Y6270635D01*
X5311910Y6271518D01*
X5314463Y6271855D01*
X5314464Y6271854D01*
X5471226Y6292492D01*
X5617305Y6353000D01*
X5742746Y6449254D01*
X5839000Y6574695D01*
X5899508Y6720774D01*
X5920146Y6877536D01*
X5899508Y7034298D01*
X5864944Y7117742D01*
X5839001Y7180375D01*
X5839001Y7180376D01*
X5742750Y7305813D01*
X5742749Y7305814D01*
X5742746Y7305818D01*
X5668870Y7362505D01*
X5634216Y7412929D01*
X5635818Y7474093D01*
X5673065Y7522635D01*
X5716217Y7539199D01*
X5744762Y7542956D01*
X5890841Y7603464D01*
X6016282Y7699718D01*
X6112536Y7825159D01*
X6173044Y7971238D01*
X6193682Y8128000D01*
X6190895Y8149166D01*
X6183718Y8203683D01*
X6173044Y8284762D01*
X6129453Y8390000D01*
X6112537Y8430839D01*
X6112537Y8430840D01*
X6016286Y8556277D01*
X6016285Y8556278D01*
X6016282Y8556282D01*
X6016277Y8556286D01*
X6016276Y8556287D01*
X5890838Y8652538D01*
X5844972Y8671536D01*
X5798446Y8711272D01*
X5784162Y8770767D01*
X5807577Y8827295D01*
X5844972Y8854464D01*
X5873723Y8866374D01*
X5890841Y8873464D01*
X6016282Y8969718D01*
X6112536Y9095159D01*
X6151980Y9190385D01*
X6191716Y9236911D01*
X6243444Y9251500D01*
X8900929Y9251500D01*
X8959120Y9232593D01*
X8967687Y9225277D01*
X8969716Y9223720D01*
X8969718Y9223718D01*
X9095159Y9127464D01*
X9095160Y9127464D01*
X9095161Y9127463D01*
X9221818Y9075000D01*
X9241238Y9066956D01*
X9358809Y9051478D01*
X9397999Y9046318D01*
X9398000Y9046318D01*
X9398001Y9046318D01*
X9429352Y9050446D01*
X9554762Y9066956D01*
X9700841Y9127464D01*
X9826282Y9223718D01*
X9922536Y9349159D01*
X9965563Y9453037D01*
X10005299Y9499562D01*
X10064794Y9513846D01*
X10121322Y9490432D01*
X10127031Y9485155D01*
X11408504Y8203683D01*
X11436281Y8149166D01*
X11437500Y8133679D01*
X11437500Y3498868D01*
X11419976Y3442630D01*
X11357780Y3352524D01*
X11301763Y3204818D01*
X11301762Y3204817D01*
X11282722Y3048002D01*
X11282722Y3047999D01*
X11301762Y2891184D01*
X11301763Y2891182D01*
X11351246Y2760706D01*
X11357780Y2743477D01*
X11447515Y2613472D01*
X11447516Y2613471D01*
X11447517Y2613470D01*
X11565760Y2508717D01*
X11705635Y2435304D01*
X11859015Y2397500D01*
X11859018Y2397500D01*
X12016982Y2397500D01*
X12016985Y2397500D01*
X12170365Y2435304D01*
X12310240Y2508717D01*
X12428483Y2613470D01*
X12518220Y2743477D01*
X12574237Y2891182D01*
X12591286Y3031593D01*
X12593278Y3047999D01*
X12593278Y3048002D01*
X12579059Y3165103D01*
X12574237Y3204818D01*
X12518220Y3352523D01*
X12456024Y3442630D01*
X12438500Y3498868D01*
X12438500Y3810000D01*
X14084571Y3810000D01*
X14104244Y3597690D01*
X14162595Y3392611D01*
X14257634Y3201745D01*
X14386128Y3031593D01*
X14386135Y3031587D01*
X14543692Y2887953D01*
X14543699Y2887947D01*
X14567925Y2872947D01*
X14724981Y2775702D01*
X14923802Y2698679D01*
X15133390Y2659500D01*
X15346610Y2659500D01*
X15556198Y2698679D01*
X15755019Y2775702D01*
X15936302Y2887948D01*
X16093872Y3031593D01*
X16222366Y3201745D01*
X16317405Y3392611D01*
X16375756Y3597690D01*
X16395429Y3810000D01*
X16624571Y3810000D01*
X16644244Y3597690D01*
X16702595Y3392611D01*
X16797634Y3201745D01*
X16926128Y3031593D01*
X16926135Y3031587D01*
X17083692Y2887953D01*
X17083699Y2887947D01*
X17107925Y2872947D01*
X17264981Y2775702D01*
X17463802Y2698679D01*
X17673390Y2659500D01*
X17886610Y2659500D01*
X18096198Y2698679D01*
X18295019Y2775702D01*
X18476302Y2887948D01*
X18633872Y3031593D01*
X18762366Y3201745D01*
X18857405Y3392611D01*
X18915756Y3597690D01*
X18935429Y3810000D01*
X18915756Y4022310D01*
X18857405Y4227389D01*
X18762366Y4418255D01*
X18633872Y4588407D01*
X18545201Y4669242D01*
X18476307Y4732048D01*
X18476300Y4732054D01*
X18295024Y4844295D01*
X18295019Y4844298D01*
X18170646Y4892480D01*
X18096198Y4921321D01*
X18096197Y4921322D01*
X18096195Y4921322D01*
X17886610Y4960500D01*
X17673390Y4960500D01*
X17463804Y4921322D01*
X17264980Y4844298D01*
X17264975Y4844295D01*
X17083699Y4732054D01*
X17083692Y4732048D01*
X16926135Y4588414D01*
X16926131Y4588411D01*
X16926128Y4588407D01*
X16926125Y4588403D01*
X16797635Y4418257D01*
X16797630Y4418248D01*
X16702596Y4227392D01*
X16644244Y4022312D01*
X16633422Y3905524D01*
X16624571Y3810000D01*
X16395429Y3810000D01*
X16375756Y4022310D01*
X16317405Y4227389D01*
X16222366Y4418255D01*
X16093872Y4588407D01*
X16005201Y4669242D01*
X15936307Y4732048D01*
X15936300Y4732054D01*
X15755024Y4844295D01*
X15755019Y4844298D01*
X15630646Y4892480D01*
X15556198Y4921321D01*
X15556197Y4921322D01*
X15556195Y4921322D01*
X15346610Y4960500D01*
X15133390Y4960500D01*
X14923804Y4921322D01*
X14724980Y4844298D01*
X14724975Y4844295D01*
X14543699Y4732054D01*
X14543692Y4732048D01*
X14386135Y4588414D01*
X14386131Y4588411D01*
X14386128Y4588407D01*
X14386125Y4588403D01*
X14257635Y4418257D01*
X14257630Y4418248D01*
X14162596Y4227392D01*
X14104244Y4022312D01*
X14093422Y3905524D01*
X14084571Y3810000D01*
X12438500Y3810000D01*
X12438500Y8447889D01*
X12438498Y8447904D01*
X12438341Y8448488D01*
X12438324Y8448548D01*
X12416617Y8529559D01*
X12404392Y8575186D01*
X12402479Y8578500D01*
X12359734Y8652536D01*
X12338503Y8689310D01*
X12338501Y8689312D01*
X12338500Y8689314D01*
X12245314Y8782500D01*
X12245311Y8782502D01*
X11937812Y9090001D01*
X14002722Y9090001D01*
X14002723Y9090000D01*
X14778120Y9090000D01*
X14774075Y9082993D01*
X14740000Y8955826D01*
X14740000Y8824174D01*
X14774075Y8697007D01*
X14778120Y8690000D01*
X14002722Y8690000D01*
X14004286Y8672119D01*
X14060897Y8460843D01*
X14153332Y8262614D01*
X14278783Y8083451D01*
X14433450Y7928784D01*
X14612613Y7803333D01*
X14810842Y7710898D01*
X14984823Y7664280D01*
X15036137Y7630956D01*
X15058064Y7573835D01*
X15042229Y7514734D01*
X14994679Y7476229D01*
X14977392Y7471339D01*
X14923803Y7461322D01*
X14724980Y7384298D01*
X14724975Y7384295D01*
X14543699Y7272054D01*
X14543692Y7272048D01*
X14386135Y7128414D01*
X14386131Y7128411D01*
X14386128Y7128407D01*
X14386125Y7128403D01*
X14257635Y6958257D01*
X14257630Y6958248D01*
X14162596Y6767392D01*
X14104244Y6562312D01*
X14084571Y6350000D01*
X14104244Y6137689D01*
X14117846Y6089883D01*
X14162595Y5932611D01*
X14257634Y5741745D01*
X14386128Y5571593D01*
X14386135Y5571587D01*
X14543692Y5427953D01*
X14543699Y5427947D01*
X14610272Y5386727D01*
X14724981Y5315702D01*
X14923802Y5238679D01*
X15133390Y5199500D01*
X15346610Y5199500D01*
X15556198Y5238679D01*
X15755019Y5315702D01*
X15936302Y5427948D01*
X16093872Y5571593D01*
X16222366Y5741745D01*
X16317405Y5932611D01*
X16375756Y6137690D01*
X16395429Y6350000D01*
X16624571Y6350000D01*
X16644244Y6137689D01*
X16657846Y6089883D01*
X16702595Y5932611D01*
X16797634Y5741745D01*
X16926128Y5571593D01*
X16926135Y5571587D01*
X17083692Y5427953D01*
X17083699Y5427947D01*
X17150272Y5386727D01*
X17264981Y5315702D01*
X17463802Y5238679D01*
X17673390Y5199500D01*
X17886610Y5199500D01*
X18096198Y5238679D01*
X18295019Y5315702D01*
X18476302Y5427948D01*
X18633872Y5571593D01*
X18762366Y5741745D01*
X18857405Y5932611D01*
X18915756Y6137690D01*
X18935429Y6350000D01*
X18915756Y6562310D01*
X18857405Y6767389D01*
X18762366Y6958255D01*
X18633872Y7128407D01*
X18548877Y7205891D01*
X18476307Y7272048D01*
X18476300Y7272054D01*
X18295024Y7384295D01*
X18295019Y7384298D01*
X18167533Y7433686D01*
X18096198Y7461321D01*
X18096197Y7461322D01*
X18096195Y7461322D01*
X17886610Y7500500D01*
X17673390Y7500500D01*
X17463804Y7461322D01*
X17264980Y7384298D01*
X17264975Y7384295D01*
X17083699Y7272054D01*
X17083692Y7272048D01*
X16926135Y7128414D01*
X16926131Y7128411D01*
X16926128Y7128407D01*
X16926125Y7128403D01*
X16797635Y6958257D01*
X16797630Y6958248D01*
X16702596Y6767392D01*
X16644244Y6562312D01*
X16624571Y6350000D01*
X16395429Y6350000D01*
X16375756Y6562310D01*
X16317405Y6767389D01*
X16222366Y6958255D01*
X16093872Y7128407D01*
X16008877Y7205891D01*
X15936307Y7272048D01*
X15936300Y7272054D01*
X15755024Y7384295D01*
X15755019Y7384298D01*
X15556196Y7461322D01*
X15502607Y7471339D01*
X15448882Y7500617D01*
X15422626Y7555883D01*
X15433869Y7616026D01*
X15478316Y7658075D01*
X15495176Y7664280D01*
X15669157Y7710898D01*
X15867386Y7803333D01*
X16046549Y7928784D01*
X16201216Y8083451D01*
X16326667Y8262614D01*
X16419104Y8460846D01*
X16434873Y8519700D01*
X16468196Y8571015D01*
X16525317Y8592943D01*
X16584418Y8577108D01*
X16622924Y8529559D01*
X16629500Y8494079D01*
X16629500Y7995140D01*
X16629501Y7995137D01*
X16632414Y7970010D01*
X16657756Y7912615D01*
X16677794Y7867235D01*
X16757235Y7787794D01*
X16860009Y7742415D01*
X16885135Y7739500D01*
X18674864Y7739501D01*
X18699991Y7742415D01*
X18802765Y7787794D01*
X18882206Y7867235D01*
X18927585Y7970009D01*
X18930500Y7995135D01*
X18930499Y9784864D01*
X18927585Y9809991D01*
X18882206Y9912765D01*
X18802765Y9992206D01*
X18699991Y10037585D01*
X18699990Y10037586D01*
X18699988Y10037586D01*
X18674868Y10040500D01*
X16885139Y10040500D01*
X16885136Y10040499D01*
X16860009Y10037586D01*
X16757235Y9992206D01*
X16677794Y9912765D01*
X16632414Y9809989D01*
X16629500Y9784870D01*
X16629500Y9285924D01*
X16610593Y9227733D01*
X16561093Y9191769D01*
X16499907Y9191769D01*
X16450407Y9227733D01*
X16434873Y9260301D01*
X16419102Y9319158D01*
X16326667Y9517386D01*
X16201216Y9696550D01*
X16046549Y9851217D01*
X15867386Y9976668D01*
X15669157Y10069103D01*
X15457887Y10125712D01*
X15440000Y10127278D01*
X15440000Y9351880D01*
X15432993Y9355925D01*
X15305826Y9390000D01*
X15174174Y9390000D01*
X15047007Y9355925D01*
X15040000Y9351880D01*
X15040000Y10127278D01*
X15022112Y10125712D01*
X14810843Y10069103D01*
X14612614Y9976668D01*
X14433450Y9851217D01*
X14278783Y9696550D01*
X14153332Y9517386D01*
X14060897Y9319158D01*
X14004286Y9107882D01*
X14002722Y9090001D01*
X11937812Y9090001D01*
X11326972Y9700841D01*
X10324173Y10703641D01*
X10296396Y10758158D01*
X10295899Y10761712D01*
X10288237Y10824816D01*
X10288237Y10824818D01*
X10232220Y10972523D01*
X10142483Y11102530D01*
X10024240Y11207283D01*
X9939941Y11251527D01*
X9884364Y11280697D01*
X9730987Y11318500D01*
X9730985Y11318500D01*
X9573015Y11318500D01*
X9573012Y11318500D01*
X9419635Y11280697D01*
X9311306Y11223840D01*
X9265298Y11212500D01*
X6183871Y11212500D01*
X6125680Y11231407D01*
X6089716Y11280907D01*
X6089716Y11342093D01*
X6105326Y11371764D01*
X6112536Y11381159D01*
X6173044Y11527238D01*
X6193682Y11684000D01*
X6191869Y11697768D01*
X6183347Y11762504D01*
X6173044Y11840762D01*
X6112537Y11986839D01*
X6112537Y11986840D01*
X6016286Y12112277D01*
X6016285Y12112278D01*
X6016282Y12112282D01*
X6016277Y12112286D01*
X6016276Y12112287D01*
X5890838Y12208538D01*
X5744766Y12269043D01*
X5744758Y12269045D01*
X5581567Y12290529D01*
X5581794Y12292257D01*
X5531528Y12308589D01*
X5519716Y12318678D01*
X5325913Y12512480D01*
X5325908Y12512484D01*
X5234591Y12565206D01*
X5234593Y12565206D01*
X5195070Y12575796D01*
X5132727Y12592500D01*
X5132725Y12592500D01*
X4812473Y12592500D01*
X4754282Y12611407D01*
X4728647Y12638829D01*
X4693818Y12694259D01*
X4693817Y12694260D01*
X4693816Y12694262D01*
X4566262Y12821816D01*
X4566259Y12821818D01*
X4566258Y12821819D01*
X4413523Y12917789D01*
X4243261Y12977367D01*
X4243257Y12977368D01*
X4064000Y12997565D01*
X3884742Y12977368D01*
X3884738Y12977367D01*
X3714477Y12917789D01*
X3714476Y12917789D01*
X3561741Y12821819D01*
X3434181Y12694259D01*
X3338211Y12541524D01*
X3338211Y12541523D01*
X3278633Y12371262D01*
X3278632Y12371258D01*
X3258435Y12192000D01*
X3278632Y12012743D01*
X3278633Y12012739D01*
X3338211Y11842478D01*
X3338211Y11842477D01*
X3429138Y11697768D01*
X3434184Y11689738D01*
X3561738Y11562184D01*
X3561740Y11562183D01*
X3561741Y11562182D01*
X3645227Y11509724D01*
X3714478Y11466211D01*
X3766543Y11447993D01*
X3889567Y11404944D01*
X3938247Y11367879D01*
X3955844Y11309278D01*
X3935636Y11251527D01*
X3885341Y11216683D01*
X3856869Y11212500D01*
X-7928437Y11212500D01*
X-7986628Y11231407D01*
X-7994087Y11237398D01*
X-8009759Y11251282D01*
X-8009760Y11251283D01*
X-8079698Y11287990D01*
X-8149636Y11324697D01*
X-8303013Y11362500D01*
X-8303015Y11362500D01*
X-8460985Y11362500D01*
X-8460988Y11362500D01*
X-8614365Y11324697D01*
X-8754242Y11251282D01*
X-8872485Y11146529D01*
X-8962220Y11016524D01*
X-9018237Y10868818D01*
X-9018238Y10868817D01*
X-9037278Y10712002D01*
X-9037278Y10711999D01*
X-9018238Y10555184D01*
X-9018237Y10555182D01*
X-8962220Y10407477D01*
X-8872485Y10277472D01*
X-8872484Y10277471D01*
X-8872483Y10277470D01*
X-8754240Y10172717D01*
X-8614365Y10099304D01*
X-8460985Y10061500D01*
X-8460982Y10061500D01*
X-8303018Y10061500D01*
X-8303015Y10061500D01*
X-8149635Y10099304D01*
X-8009760Y10172717D01*
X-7994087Y10186602D01*
X-7937993Y10211038D01*
X-7928437Y10211500D01*
X-4592347Y10211500D01*
X-4534156Y10192593D01*
X-4498192Y10143093D01*
X-4498192Y10081907D01*
X-4513805Y10052233D01*
X-4588538Y9954840D01*
X-4588538Y9954839D01*
X-4649043Y9808767D01*
X-4649045Y9808759D01*
X-4669682Y9652001D01*
X-4669682Y9652000D01*
X-4649045Y9495242D01*
X-4649043Y9495234D01*
X-4588538Y9349162D01*
X-4588538Y9349161D01*
X-4488332Y9218569D01*
X-4489717Y9217507D01*
X-4465721Y9170431D01*
X-4464500Y9154929D01*
X-4464500Y7087792D01*
X-4483407Y7029601D01*
X-4532907Y6993637D01*
X-4594093Y6993637D01*
X-4616171Y7003966D01*
X-4730477Y7075789D01*
X-4900739Y7135367D01*
X-4900743Y7135368D01*
X-5016879Y7148453D01*
X-5080000Y7155565D01*
X-5080002Y7155565D01*
X-5143133Y7148453D01*
X-5203074Y7160728D01*
X-5244353Y7205891D01*
X-5252368Y7233910D01*
X-5255414Y7257048D01*
X-5256956Y7268762D01*
X-5272305Y7305818D01*
X-5317463Y7414839D01*
X-5317463Y7414840D01*
X-5413714Y7540277D01*
X-5413715Y7540278D01*
X-5413718Y7540282D01*
X-5413723Y7540286D01*
X-5413724Y7540287D01*
X-5519832Y7621706D01*
X-5539159Y7636536D01*
X-5539160Y7636537D01*
X-5539162Y7636538D01*
X-5685234Y7697043D01*
X-5685242Y7697045D01*
X-5841999Y7717682D01*
X-5842001Y7717682D01*
X-5998759Y7697045D01*
X-5998767Y7697043D01*
X-6144839Y7636538D01*
X-6144840Y7636538D01*
X-6270277Y7540287D01*
X-6270287Y7540277D01*
X-6366538Y7414840D01*
X-6366538Y7414839D01*
X-6427043Y7268767D01*
X-6427045Y7268759D01*
X-6447682Y7112001D01*
X-6447682Y7112000D01*
X-6427045Y6955242D01*
X-6427043Y6955234D01*
X-6366538Y6809162D01*
X-6366538Y6809161D01*
X-6298719Y6720778D01*
X-6270282Y6683718D01*
X-6144841Y6587464D01*
X-6144840Y6587464D01*
X-6144839Y6587463D01*
X-6114019Y6574697D01*
X-5998762Y6526956D01*
X-5963910Y6522368D01*
X-5908685Y6496028D01*
X-5879489Y6442257D01*
X-5878453Y6413133D01*
X-5885565Y6350002D01*
X-5865368Y6170743D01*
X-5865367Y6170739D01*
X-5805789Y6000478D01*
X-5805789Y6000477D01*
X-5753719Y5917609D01*
X-5709816Y5847738D01*
X-5582262Y5720184D01*
X-5582260Y5720183D01*
X-5582259Y5720182D01*
X-5531370Y5688206D01*
X-5429522Y5624211D01*
X-5395222Y5612209D01*
X-5259262Y5564634D01*
X-5259258Y5564633D01*
X-5259255Y5564632D01*
X-5080000Y5544435D01*
X-4900745Y5564632D01*
X-4730478Y5624211D01*
X-4616171Y5696036D01*
X-4556841Y5710985D01*
X-4500054Y5688206D01*
X-4467501Y5636399D01*
X-4464500Y5612209D01*
X-4464500Y-1534929D01*
X-4483407Y-1593120D01*
X-4490724Y-1601687D01*
X-4588538Y-1729160D01*
X-4588538Y-1729161D01*
X-4649043Y-1875233D01*
X-4649045Y-1875241D01*
X-4669682Y-2031999D01*
X-4669682Y-2032000D01*
X-4651604Y-2169321D01*
X-4649044Y-2188762D01*
X-4628997Y-2237159D01*
X-4590287Y-2330614D01*
X-4585486Y-2391611D01*
X-4617456Y-2443780D01*
X-4673984Y-2467195D01*
X-4681751Y-2467500D01*
X-5270929Y-2467500D01*
X-5329120Y-2448593D01*
X-5337688Y-2441276D01*
X-5348010Y-2433356D01*
X-5465159Y-2343464D01*
X-5465160Y-2343463D01*
X-5465162Y-2343462D01*
X-5611234Y-2282957D01*
X-5611242Y-2282955D01*
X-5767999Y-2262318D01*
X-5768001Y-2262318D01*
X-5905322Y-2280396D01*
X-5965483Y-2269246D01*
X-6007600Y-2224863D01*
X-6016397Y-2169321D01*
X-6011396Y-2131341D01*
X-5998318Y-2032000D01*
X-6018956Y-1875238D01*
X-6039003Y-1826841D01*
X-6079463Y-1729161D01*
X-6079463Y-1729160D01*
X-6175714Y-1603723D01*
X-6175715Y-1603722D01*
X-6175718Y-1603718D01*
X-6175723Y-1603714D01*
X-6175724Y-1603713D01*
X-6301162Y-1507462D01*
X-6447234Y-1446957D01*
X-6447242Y-1446955D01*
X-6610433Y-1425471D01*
X-6610206Y-1423743D01*
X-6660472Y-1407411D01*
X-6672285Y-1397322D01*
X-9476504Y1406897D01*
X-9504281Y1461414D01*
X-9505500Y1476901D01*
X-9505500Y3354726D01*
X-9505500Y3354727D01*
X-9532793Y3456587D01*
X-9532793Y3456588D01*
X-9532793Y3456589D01*
X-9585517Y3547909D01*
X-9585518Y3547910D01*
X-9585519Y3547911D01*
X-9585520Y3547913D01*
X-10930087Y4892480D01*
X-11254504Y5216897D01*
X-11282281Y5271414D01*
X-11283500Y5286901D01*
X-11283500Y10466726D01*
X-11283500Y10466727D01*
X-11310793Y10568587D01*
X-11363520Y10659913D01*
X-11438087Y10734481D01*
X-11438087Y10734480D01*
X-12573322Y11869715D01*
X-12601099Y11924232D01*
X-12601982Y11935446D01*
X-12612158Y12012743D01*
X-12622956Y12094762D01*
X-12670083Y12208536D01*
X-12683463Y12240839D01*
X-12683463Y12240840D01*
X-12779714Y12366277D01*
X-12779715Y12366278D01*
X-12779718Y12366282D01*
X-12779723Y12366286D01*
X-12779724Y12366287D01*
X-12905162Y12462538D01*
X-13051234Y12523043D01*
X-13051242Y12523045D01*
X-13207999Y12543682D01*
X-13208001Y12543682D01*
X-13364759Y12523045D01*
X-13364767Y12523043D01*
X-13510839Y12462538D01*
X-13510840Y12462538D01*
X-13636277Y12366287D01*
X-13636287Y12366277D01*
X-13732538Y12240840D01*
X-13732538Y12240839D01*
X-13793043Y12094767D01*
X-13793045Y12094759D01*
X-13813682Y11938001D01*
X-13813682Y11938000D01*
X-13793045Y11781242D01*
X-13793043Y11781234D01*
X-13732538Y11635162D01*
X-13732538Y11635161D01*
X-13636287Y11509724D01*
X-13636282Y11509718D01*
X-13510841Y11413464D01*
X-13510840Y11413464D01*
X-13510839Y11413463D01*
X-13432862Y11381164D01*
X-13364762Y11352956D01*
X-13208000Y11332318D01*
X-13201567Y11331471D01*
X-13201795Y11329744D01*
X-13151528Y11313411D01*
X-13139715Y11303322D01*
X-12113496Y10277103D01*
X-12085719Y10222586D01*
X-12084500Y10207099D01*
X-12084500Y5386727D01*
X-12084500Y5132727D01*
X-12084500Y5027273D01*
X-12062589Y4945500D01*
X-12057206Y4925408D01*
X-12004484Y4834092D01*
X-12004483Y4834091D01*
X-12004482Y4834090D01*
X-12004480Y4834087D01*
X-11743807Y4573414D01*
X-11496481Y4326088D01*
X-10335496Y3165103D01*
X-10307719Y3110586D01*
X-10306500Y3095099D01*
X-10306500Y2829744D01*
X-10325407Y2771553D01*
X-10374907Y2735589D01*
X-10436093Y2735589D01*
X-10471149Y2755641D01*
X-10549759Y2825282D01*
X-10549760Y2825283D01*
X-10640586Y2872953D01*
X-10689636Y2898697D01*
X-10844977Y2936984D01*
X-10891289Y2963103D01*
X-12424504Y4496318D01*
X-12452281Y4550835D01*
X-12453500Y4566322D01*
X-12453500Y9455134D01*
X-12435976Y9511372D01*
X-12373780Y9601477D01*
X-12317763Y9749182D01*
X-12298722Y9906000D01*
X-12317763Y10062818D01*
X-12373780Y10210523D01*
X-12463517Y10340530D01*
X-12581760Y10445283D01*
X-12651698Y10481990D01*
X-12721636Y10518697D01*
X-12875013Y10556500D01*
X-12875015Y10556500D01*
X-13032985Y10556500D01*
X-13032988Y10556500D01*
X-13186365Y10518697D01*
X-13326242Y10445282D01*
X-13444485Y10340529D01*
X-13534220Y10210524D01*
X-13590237Y10062818D01*
X-13590238Y10062817D01*
X-13609278Y9906002D01*
X-13609278Y9905999D01*
X-13590238Y9749184D01*
X-13590237Y9749183D01*
X-13534220Y9601476D01*
X-13501978Y9554767D01*
X-13472025Y9511372D01*
X-13454500Y9455134D01*
X-13454500Y4383892D01*
X-13454500Y4252108D01*
X-13443858Y4212392D01*
X-13420391Y4124810D01*
X-13354504Y4010691D01*
X-13354503Y4010690D01*
X-13354502Y4010689D01*
X-13354500Y4010686D01*
X-12468859Y3125045D01*
X-11594174Y2250360D01*
X-11566397Y2195843D01*
X-11565900Y2192290D01*
X-11558237Y2129182D01*
X-11543529Y2090401D01*
X-11502220Y1981476D01*
X-11469978Y1934767D01*
X-11440025Y1891372D01*
X-11422500Y1835134D01*
X-11422500Y-442108D01*
X-11422500Y-573892D01*
X-11398961Y-661743D01*
X-11388391Y-701190D01*
X-11322504Y-815309D01*
X-11322500Y-815314D01*
X-11086174Y-1051641D01*
X-11058397Y-1106157D01*
X-11057900Y-1109710D01*
X-11050237Y-1172818D01*
X-11013381Y-1270000D01*
X-10994220Y-1320523D01*
X-10904485Y-1450528D01*
X-10904484Y-1450529D01*
X-10904483Y-1450530D01*
X-10786240Y-1555283D01*
X-10693946Y-1603723D01*
X-10669600Y-1616501D01*
X-10626861Y-1660286D01*
X-10618021Y-1720829D01*
X-10646456Y-1775006D01*
X-10701304Y-1802122D01*
X-10715608Y-1803161D01*
X-12097438Y-1803161D01*
X-12155629Y-1784254D01*
X-12167442Y-1774165D01*
X-12588322Y-1353285D01*
X-12616099Y-1298768D01*
X-12616982Y-1287554D01*
X-12632087Y-1172817D01*
X-12637956Y-1128238D01*
X-12637958Y-1128233D01*
X-12698463Y-982161D01*
X-12698463Y-982160D01*
X-12794714Y-856723D01*
X-12794715Y-856722D01*
X-12794718Y-856718D01*
X-12794723Y-856714D01*
X-12794724Y-856713D01*
X-12920162Y-760462D01*
X-13066234Y-699957D01*
X-13066242Y-699955D01*
X-13222999Y-679318D01*
X-13223001Y-679318D01*
X-13379759Y-699955D01*
X-13379767Y-699957D01*
X-13525839Y-760462D01*
X-13525840Y-760462D01*
X-13651277Y-856713D01*
X-13651287Y-856723D01*
X-13747538Y-982160D01*
X-13747538Y-982161D01*
X-13808043Y-1128233D01*
X-13808045Y-1128241D01*
X-13828682Y-1284999D01*
X-13828682Y-1285000D01*
X-13808045Y-1441758D01*
X-13808043Y-1441766D01*
X-13747538Y-1587838D01*
X-13747538Y-1587839D01*
X-13659639Y-1702391D01*
X-13651282Y-1713282D01*
X-13651278Y-1713285D01*
X-13651277Y-1713286D01*
X-13525840Y-1809537D01*
X-13520218Y-1812783D01*
X-13520897Y-1813957D01*
X-13479765Y-1849082D01*
X-13465478Y-1908575D01*
X-13488888Y-1965105D01*
X-13526286Y-1992279D01*
X-13570187Y-2010464D01*
X-13695623Y-2106713D01*
X-13695633Y-2106723D01*
X-13791884Y-2232160D01*
X-13791884Y-2232161D01*
X-13852389Y-2378233D01*
X-13852391Y-2378241D01*
X-13873028Y-2534999D01*
X-19499500Y-2534999D01*
X-19499500Y-1285000D01*
X-18915429Y-1285000D01*
X-18895756Y-1497311D01*
X-18888162Y-1523999D01*
X-18837405Y-1702389D01*
X-18742366Y-1893255D01*
X-18613872Y-2063407D01*
X-18543266Y-2127773D01*
X-18456308Y-2207047D01*
X-18456301Y-2207053D01*
X-18415750Y-2232161D01*
X-18275019Y-2319298D01*
X-18076198Y-2396321D01*
X-17866610Y-2435500D01*
X-17653390Y-2435500D01*
X-17443802Y-2396321D01*
X-17244981Y-2319298D01*
X-17063698Y-2207052D01*
X-16906128Y-2063407D01*
X-16777634Y-1893255D01*
X-16682595Y-1702389D01*
X-16624244Y-1497310D01*
X-16604571Y-1285000D01*
X-16375429Y-1285000D01*
X-16355756Y-1497311D01*
X-16348162Y-1523999D01*
X-16297405Y-1702389D01*
X-16202366Y-1893255D01*
X-16073872Y-2063407D01*
X-16003266Y-2127773D01*
X-15916308Y-2207047D01*
X-15916301Y-2207053D01*
X-15875750Y-2232161D01*
X-15735019Y-2319298D01*
X-15536198Y-2396321D01*
X-15326610Y-2435500D01*
X-15113390Y-2435500D01*
X-14903802Y-2396321D01*
X-14704981Y-2319298D01*
X-14523698Y-2207052D01*
X-14366128Y-2063407D01*
X-14237634Y-1893255D01*
X-14142595Y-1702389D01*
X-14084244Y-1497310D01*
X-14064571Y-1285000D01*
X-14084244Y-1072690D01*
X-14142595Y-867611D01*
X-14237634Y-676745D01*
X-14366128Y-506593D01*
X-14481943Y-401013D01*
X-14523693Y-362952D01*
X-14523700Y-362946D01*
X-14704976Y-250705D01*
X-14704981Y-250702D01*
X-14903805Y-173678D01*
X-15113390Y-134500D01*
X-15326610Y-134500D01*
X-15536196Y-173678D01*
X-15735020Y-250702D01*
X-15735025Y-250705D01*
X-15916301Y-362946D01*
X-15916308Y-362952D01*
X-16073865Y-506586D01*
X-16073869Y-506589D01*
X-16073872Y-506593D01*
X-16073875Y-506597D01*
X-16202365Y-676743D01*
X-16202370Y-676752D01*
X-16297404Y-867608D01*
X-16355756Y-1072688D01*
X-16375429Y-1285000D01*
X-16604571Y-1285000D01*
X-16624244Y-1072690D01*
X-16682595Y-867611D01*
X-16777634Y-676745D01*
X-16906128Y-506593D01*
X-17021943Y-401013D01*
X-17063693Y-362952D01*
X-17063700Y-362946D01*
X-17244976Y-250705D01*
X-17244981Y-250702D01*
X-17443805Y-173678D01*
X-17653390Y-134500D01*
X-17866610Y-134500D01*
X-18076196Y-173678D01*
X-18275020Y-250702D01*
X-18275025Y-250705D01*
X-18456301Y-362946D01*
X-18456308Y-362952D01*
X-18613865Y-506586D01*
X-18613869Y-506589D01*
X-18613872Y-506593D01*
X-18613875Y-506597D01*
X-18742365Y-676743D01*
X-18742370Y-676752D01*
X-18837404Y-867608D01*
X-18895756Y-1072688D01*
X-18915429Y-1285000D01*
X-19499500Y-1285000D01*
X-19499500Y1255000D01*
X-18915429Y1255000D01*
X-18895756Y1042689D01*
X-18874761Y968901D01*
X-18837405Y837611D01*
X-18742366Y646745D01*
X-18613872Y476593D01*
X-18613865Y476587D01*
X-18456308Y332953D01*
X-18456301Y332947D01*
X-18352611Y268745D01*
X-18275019Y220702D01*
X-18076198Y143679D01*
X-17866610Y104500D01*
X-17653390Y104500D01*
X-17443802Y143679D01*
X-17244981Y220702D01*
X-17063698Y332948D01*
X-16906128Y476593D01*
X-16777634Y646745D01*
X-16682595Y837611D01*
X-16624244Y1042690D01*
X-16604571Y1255000D01*
X-16375429Y1255000D01*
X-16355756Y1042689D01*
X-16334761Y968901D01*
X-16297405Y837611D01*
X-16202366Y646745D01*
X-16073872Y476593D01*
X-16073865Y476587D01*
X-15916308Y332953D01*
X-15916301Y332947D01*
X-15812611Y268745D01*
X-15735019Y220702D01*
X-15536198Y143679D01*
X-15326610Y104500D01*
X-15113390Y104500D01*
X-14903802Y143679D01*
X-14704981Y220702D01*
X-14523698Y332948D01*
X-14366128Y476593D01*
X-14237634Y646745D01*
X-14142595Y837611D01*
X-14084244Y1042690D01*
X-14064571Y1255000D01*
X-14084244Y1467310D01*
X-14142595Y1672389D01*
X-14237634Y1863255D01*
X-14366128Y2033407D01*
X-14446382Y2106569D01*
X-14523693Y2177048D01*
X-14523700Y2177054D01*
X-14704976Y2289295D01*
X-14704981Y2289298D01*
X-14832573Y2338727D01*
X-14903802Y2366321D01*
X-14903803Y2366322D01*
X-14903805Y2366322D01*
X-15113390Y2405500D01*
X-15326610Y2405500D01*
X-15536196Y2366322D01*
X-15735020Y2289298D01*
X-15735025Y2289295D01*
X-15916301Y2177054D01*
X-15916308Y2177048D01*
X-16073865Y2033414D01*
X-16073869Y2033411D01*
X-16073872Y2033407D01*
X-16073875Y2033403D01*
X-16202365Y1863257D01*
X-16202370Y1863248D01*
X-16297404Y1672392D01*
X-16355756Y1467312D01*
X-16375429Y1255000D01*
X-16604571Y1255000D01*
X-16624244Y1467310D01*
X-16682595Y1672389D01*
X-16777634Y1863255D01*
X-16906128Y2033407D01*
X-16986382Y2106569D01*
X-17063693Y2177048D01*
X-17063700Y2177054D01*
X-17244976Y2289295D01*
X-17244981Y2289298D01*
X-17372573Y2338727D01*
X-17443802Y2366321D01*
X-17443803Y2366322D01*
X-17443805Y2366322D01*
X-17653390Y2405500D01*
X-17866610Y2405500D01*
X-18076196Y2366322D01*
X-18275020Y2289298D01*
X-18275025Y2289295D01*
X-18456301Y2177054D01*
X-18456308Y2177048D01*
X-18613865Y2033414D01*
X-18613869Y2033411D01*
X-18613872Y2033407D01*
X-18613875Y2033403D01*
X-18742365Y1863257D01*
X-18742370Y1863248D01*
X-18837404Y1672392D01*
X-18895756Y1467312D01*
X-18915429Y1255000D01*
X-19499500Y1255000D01*
X-19499500Y3795000D01*
X-18915429Y3795000D01*
X-18912620Y3764680D01*
X-18895756Y3582690D01*
X-18837405Y3377611D01*
X-18742366Y3186745D01*
X-18613872Y3016593D01*
X-18613865Y3016587D01*
X-18456308Y2872953D01*
X-18456301Y2872947D01*
X-18379321Y2825283D01*
X-18275019Y2760702D01*
X-18076198Y2683679D01*
X-17866610Y2644500D01*
X-17653390Y2644500D01*
X-17443802Y2683679D01*
X-17244981Y2760702D01*
X-17063698Y2872948D01*
X-16906128Y3016593D01*
X-16777634Y3186745D01*
X-16682595Y3377611D01*
X-16624244Y3582690D01*
X-16604571Y3795000D01*
X-16375429Y3795000D01*
X-16372620Y3764680D01*
X-16355756Y3582690D01*
X-16297405Y3377611D01*
X-16202366Y3186745D01*
X-16073872Y3016593D01*
X-16073865Y3016587D01*
X-15916308Y2872953D01*
X-15916301Y2872947D01*
X-15839321Y2825283D01*
X-15735019Y2760702D01*
X-15536198Y2683679D01*
X-15326610Y2644500D01*
X-15113390Y2644500D01*
X-14903802Y2683679D01*
X-14704981Y2760702D01*
X-14523698Y2872948D01*
X-14366128Y3016593D01*
X-14237634Y3186745D01*
X-14142595Y3377611D01*
X-14084244Y3582690D01*
X-14064571Y3795000D01*
X-14084244Y4007310D01*
X-14142595Y4212389D01*
X-14237634Y4403255D01*
X-14366128Y4573407D01*
X-14420377Y4622861D01*
X-14523693Y4717048D01*
X-14523700Y4717054D01*
X-14704976Y4829295D01*
X-14704981Y4829298D01*
X-14903805Y4906322D01*
X-15113390Y4945500D01*
X-15326610Y4945500D01*
X-15536196Y4906322D01*
X-15735020Y4829298D01*
X-15735025Y4829295D01*
X-15916301Y4717054D01*
X-15916308Y4717048D01*
X-16073865Y4573414D01*
X-16073869Y4573411D01*
X-16073872Y4573407D01*
X-16073875Y4573403D01*
X-16202365Y4403257D01*
X-16202370Y4403248D01*
X-16297404Y4212392D01*
X-16355756Y4007312D01*
X-16375429Y3795000D01*
X-16604571Y3795000D01*
X-16624244Y4007310D01*
X-16682595Y4212389D01*
X-16777634Y4403255D01*
X-16906128Y4573407D01*
X-16960377Y4622861D01*
X-17063693Y4717048D01*
X-17063700Y4717054D01*
X-17244976Y4829295D01*
X-17244981Y4829298D01*
X-17443805Y4906322D01*
X-17653390Y4945500D01*
X-17866610Y4945500D01*
X-18076196Y4906322D01*
X-18275020Y4829298D01*
X-18275025Y4829295D01*
X-18456301Y4717054D01*
X-18456308Y4717048D01*
X-18613865Y4573414D01*
X-18613869Y4573411D01*
X-18613872Y4573407D01*
X-18613875Y4573403D01*
X-18742365Y4403257D01*
X-18742370Y4403248D01*
X-18837404Y4212392D01*
X-18895756Y4007312D01*
X-18915429Y3795000D01*
X-19499500Y3795000D01*
X-19499500Y6335000D01*
X-18915429Y6335000D01*
X-18895756Y6122689D01*
X-18872551Y6041133D01*
X-18837405Y5917611D01*
X-18742366Y5726745D01*
X-18613872Y5556593D01*
X-18613865Y5556587D01*
X-18456308Y5412953D01*
X-18456301Y5412947D01*
X-18413954Y5386727D01*
X-18275019Y5300702D01*
X-18076198Y5223679D01*
X-17866610Y5184500D01*
X-17653390Y5184500D01*
X-17443802Y5223679D01*
X-17244981Y5300702D01*
X-17063698Y5412948D01*
X-16906128Y5556593D01*
X-16777634Y5726745D01*
X-16682595Y5917611D01*
X-16624244Y6122690D01*
X-16604571Y6335000D01*
X-16624244Y6547310D01*
X-16682595Y6752389D01*
X-16777634Y6943255D01*
X-16906128Y7113407D01*
X-17007577Y7205891D01*
X-17063693Y7257048D01*
X-17063700Y7257054D01*
X-17244976Y7369295D01*
X-17244981Y7369298D01*
X-17362537Y7414839D01*
X-17443802Y7446321D01*
X-17443803Y7446322D01*
X-17443805Y7446322D01*
X-17653390Y7485500D01*
X-17866610Y7485500D01*
X-18076196Y7446322D01*
X-18275020Y7369298D01*
X-18275025Y7369295D01*
X-18456301Y7257054D01*
X-18456308Y7257048D01*
X-18613865Y7113414D01*
X-18613869Y7113411D01*
X-18613872Y7113407D01*
X-18613875Y7113403D01*
X-18742365Y6943257D01*
X-18742370Y6943248D01*
X-18829936Y6767389D01*
X-18837405Y6752389D01*
X-18849345Y6710426D01*
X-18895756Y6547312D01*
X-18915429Y6335000D01*
X-19499500Y6335000D01*
X-19499500Y8875000D01*
X-18915429Y8875000D01*
X-18895756Y8662689D01*
X-18892867Y8652537D01*
X-18837405Y8457611D01*
X-18742366Y8266745D01*
X-18613872Y8096593D01*
X-18613865Y8096587D01*
X-18456308Y7952953D01*
X-18456301Y7952947D01*
X-18352611Y7888745D01*
X-18275019Y7840702D01*
X-18076198Y7763679D01*
X-17866610Y7724500D01*
X-17653390Y7724500D01*
X-17443802Y7763679D01*
X-17244981Y7840702D01*
X-17063698Y7952948D01*
X-16906128Y8096593D01*
X-16777634Y8266745D01*
X-16682595Y8457611D01*
X-16664219Y8522196D01*
X-16630111Y8572987D01*
X-16572659Y8594032D01*
X-16513809Y8577289D01*
X-16476040Y8529152D01*
X-16470000Y8495100D01*
X-16470000Y7993517D01*
X-16469999Y7993515D01*
X-16455167Y7899859D01*
X-16455164Y7899849D01*
X-16397642Y7786957D01*
X-16308044Y7697359D01*
X-16195152Y7639837D01*
X-16195148Y7639836D01*
X-16101485Y7625001D01*
X-15604577Y7625001D01*
X-15546386Y7606094D01*
X-15510422Y7556594D01*
X-15510422Y7495409D01*
X-15546386Y7445908D01*
X-15568814Y7433686D01*
X-15735020Y7369298D01*
X-15735025Y7369295D01*
X-15916301Y7257054D01*
X-15916308Y7257048D01*
X-16073865Y7113414D01*
X-16073869Y7113411D01*
X-16073872Y7113407D01*
X-16073875Y7113403D01*
X-16202365Y6943257D01*
X-16202370Y6943248D01*
X-16289936Y6767389D01*
X-16297405Y6752389D01*
X-16309345Y6710426D01*
X-16355756Y6547312D01*
X-16375429Y6335000D01*
X-16355756Y6122689D01*
X-16332551Y6041133D01*
X-16297405Y5917611D01*
X-16202366Y5726745D01*
X-16073872Y5556593D01*
X-16073865Y5556587D01*
X-15916308Y5412953D01*
X-15916301Y5412947D01*
X-15873954Y5386727D01*
X-15735019Y5300702D01*
X-15536198Y5223679D01*
X-15326610Y5184500D01*
X-15113390Y5184500D01*
X-14903802Y5223679D01*
X-14704981Y5300702D01*
X-14523698Y5412948D01*
X-14366128Y5556593D01*
X-14237634Y5726745D01*
X-14142595Y5917611D01*
X-14084244Y6122690D01*
X-14064571Y6335000D01*
X-14084244Y6547310D01*
X-14142595Y6752389D01*
X-14237634Y6943255D01*
X-14366128Y7113407D01*
X-14467577Y7205891D01*
X-14523693Y7257048D01*
X-14523700Y7257054D01*
X-14704976Y7369295D01*
X-14704981Y7369298D01*
X-14743701Y7384298D01*
X-14871189Y7433687D01*
X-14918619Y7472338D01*
X-14934273Y7531487D01*
X-14912170Y7588540D01*
X-14860754Y7621706D01*
X-14835425Y7625001D01*
X-14338517Y7625001D01*
X-14338515Y7625002D01*
X-14244859Y7639834D01*
X-14244849Y7639837D01*
X-14131957Y7697359D01*
X-14042359Y7786957D01*
X-13984837Y7899849D01*
X-13984836Y7899853D01*
X-13970000Y7993516D01*
X-13970000Y8674999D01*
X-13970001Y8675000D01*
X-14758120Y8675000D01*
X-14754075Y8682007D01*
X-14720000Y8809174D01*
X-14720000Y8940826D01*
X-14754075Y9067993D01*
X-14758120Y9075000D01*
X-13970002Y9075000D01*
X-13970001Y9075001D01*
X-13970001Y9756484D01*
X-13970002Y9756486D01*
X-13984834Y9850142D01*
X-13984837Y9850152D01*
X-14042359Y9963044D01*
X-14131957Y10052642D01*
X-14244849Y10110164D01*
X-14244853Y10110165D01*
X-14338516Y10125000D01*
X-15019999Y10125000D01*
X-15020000Y10124999D01*
X-15020000Y9336880D01*
X-15027007Y9340925D01*
X-15154174Y9375000D01*
X-15285826Y9375000D01*
X-15412993Y9340925D01*
X-15420000Y9336880D01*
X-15420000Y10124999D01*
X-15420001Y10125000D01*
X-16101484Y10125000D01*
X-16101486Y10124999D01*
X-16195142Y10110167D01*
X-16195152Y10110164D01*
X-16308044Y10052642D01*
X-16397642Y9963044D01*
X-16455164Y9850152D01*
X-16455165Y9850148D01*
X-16470000Y9756485D01*
X-16470000Y9254903D01*
X-16488907Y9196712D01*
X-16538407Y9160748D01*
X-16599593Y9160748D01*
X-16649093Y9196712D01*
X-16664220Y9227807D01*
X-16682595Y9292389D01*
X-16777634Y9483255D01*
X-16906128Y9653407D01*
X-17011187Y9749182D01*
X-17063693Y9797048D01*
X-17063700Y9797054D01*
X-17244976Y9909295D01*
X-17244981Y9909298D01*
X-17362537Y9954839D01*
X-17443802Y9986321D01*
X-17443803Y9986322D01*
X-17443805Y9986322D01*
X-17653390Y10025500D01*
X-17866610Y10025500D01*
X-18076196Y9986322D01*
X-18275020Y9909298D01*
X-18275025Y9909295D01*
X-18456301Y9797054D01*
X-18456308Y9797048D01*
X-18613865Y9653414D01*
X-18613869Y9653411D01*
X-18613872Y9653407D01*
X-18613875Y9653403D01*
X-18742365Y9483257D01*
X-18742370Y9483248D01*
X-18824076Y9319158D01*
X-18837405Y9292389D01*
X-18846535Y9260301D01*
X-18895756Y9087312D01*
X-18915429Y8875000D01*
X-19499500Y8875000D01*
X-19499500Y13871000D01*
X-19480593Y13929191D01*
X-19431093Y13965155D01*
X-19400500Y13970000D01*
X-18388739Y13970000D01*
X-18330548Y13951093D01*
G37*
%TD.AperFunction*%
%TD*%
M02*
